<svg width="14" height="24" viewBox="0 0 14 24" fill="none" xmlns="http://www.w3.org/2000/svg">
<path d="M13 19V21C13 21.5304 12.7893 22.0391 12.4142 22.4142C12.0391 22.7893 11.5304 23 11 23H3C2.46957 23 1.96086 22.7893 1.58579 22.4142C1.21071 22.0391 1 21.5304 1 21V17.81M1 9V7C1 6.46957 1.21071 5.96086 1.58579 5.58579C1.96086 5.21072 2.46957 5 3 5H11C11.5304 5 12.0391 5.21072 12.4142 5.58579C12.7893 5.96086 13 6.46957 13 7L13 10.19M8 1H6M1 13L7 17L7 11L13 15" stroke="#D9D9D9" stroke-width="2" stroke-linecap="round" stroke-linejoin="round"/>
</svg>
