<svg width="38" height="38" viewBox="0 0 38 38" fill="none" xmlns="http://www.w3.org/2000/svg">
<g filter="url(#filter0_dd_2850_164865)">
<rect x="3" y="2" width="32" height="32" rx="16" fill="white"/>
<path d="M22.3335 21.3334L19.0002 18.0001M19.0002 18.0001L15.6669 21.3334M19.0002 18.0001V25.5001M25.9919 23.3251C26.8047 22.882 27.4467 22.1808 27.8168 21.3322C28.1868 20.4837 28.2637 19.5361 28.0354 18.639C27.807 17.7418 27.2865 16.9463 26.5558 16.3779C25.8251 15.8095 24.9259 15.5007 24.0002 15.5001H22.9502C22.698 14.5244 22.2278 13.6187 21.5752 12.8509C20.9225 12.0831 20.1042 11.4733 19.182 11.0672C18.2597 10.6612 17.2573 10.4695 16.2503 10.5066C15.2433 10.5437 14.2578 10.8086 13.3679 11.2814C12.4779 11.7543 11.7068 12.4226 11.1124 13.2364C10.518 14.0501 10.1158 14.988 9.93603 15.9796C9.75627 16.9711 9.80363 17.9905 10.0746 18.9611C10.3455 19.9317 10.8329 20.8283 11.5002 21.5834" stroke="#497A38" stroke-width="0.72" stroke-linecap="round" stroke-linejoin="round"/>
</g>
<defs>
<filter id="filter0_dd_2850_164865" x="0" y="0" width="38" height="38" filterUnits="userSpaceOnUse" color-interpolation-filters="sRGB">
<feFlood flood-opacity="0" result="BackgroundImageFix"/>
<feColorMatrix in="SourceAlpha" type="matrix" values="0 0 0 0 0 0 0 0 0 0 0 0 0 0 0 0 0 0 127 0" result="hardAlpha"/>
<feOffset dy="1"/>
<feGaussianBlur stdDeviation="1"/>
<feColorMatrix type="matrix" values="0 0 0 0 0.0627451 0 0 0 0 0.0941176 0 0 0 0 0.156863 0 0 0 0.06 0"/>
<feBlend mode="normal" in2="BackgroundImageFix" result="effect1_dropShadow_2850_164865"/>
<feColorMatrix in="SourceAlpha" type="matrix" values="0 0 0 0 0 0 0 0 0 0 0 0 0 0 0 0 0 0 127 0" result="hardAlpha"/>
<feOffset dy="1"/>
<feGaussianBlur stdDeviation="1.5"/>
<feColorMatrix type="matrix" values="0 0 0 0 0.0627451 0 0 0 0 0.0941176 0 0 0 0 0.156863 0 0 0 0.1 0"/>
<feBlend mode="normal" in2="effect1_dropShadow_2850_164865" result="effect2_dropShadow_2850_164865"/>
<feBlend mode="normal" in="SourceGraphic" in2="effect2_dropShadow_2850_164865" result="shape"/>
</filter>
</defs>
</svg>
