<svg width="52" height="52" viewBox="0 0 52 52" fill="none" xmlns="http://www.w3.org/2000/svg">
<rect width="52" height="52" rx="26" fill="#385E2B"/>
<g clip-path="url(#clip0_2850_151521)">
<path fill-rule="evenodd" clip-rule="evenodd" d="M24.2156 19.5531C31.6841 19.5631 32.4536 19.5682 32.5893 19.6436C32.6748 19.6889 32.8006 19.7945 32.881 19.885C32.9565 19.9705 33.0168 20.0761 33.0168 20.1164C33.0168 20.1566 33.6505 22.7769 34.425 25.9353C35.1995 29.0987 35.8332 31.734 35.8332 31.7944C35.8332 31.8598 35.7729 31.9805 35.6974 32.066C35.617 32.1565 35.4912 32.2621 35.4057 32.3074C35.27 32.3828 34.3043 32.3878 24.467 32.3878C18.5325 32.3878 13.6188 32.3728 13.5434 32.3476C13.4629 32.3275 13.3271 32.247 13.2416 32.1716C13.1511 32.0911 13.0556 31.9604 13.0354 31.8799C13.0053 31.7692 13.2768 30.2655 14.1067 25.9503C14.7152 22.7668 15.2584 20.0912 15.3036 19.9957C15.3489 19.9001 15.4445 19.7794 15.5149 19.7291C15.5853 19.6738 15.7211 19.6134 15.8166 19.5883C15.9122 19.5682 19.6942 19.5531 24.2156 19.5531ZM15.5903 23.6268C15.2383 25.4021 14.7454 27.9118 14.4889 29.2043L14.0312 31.558H34.8274C32.695 23.0786 32.0613 20.569 32.0462 20.5036L32.011 20.393H16.229L15.5903 23.6268ZM23.4109 33.0165L25.2717 33.0215V36.7432H27.5349V38.0005H21.198V36.7432H23.4109V33.0165ZM16.9885 21.1977H20.9968V23.8129H16.2693L16.2944 23.6972C16.3045 23.6369 16.4704 23.0484 16.6515 22.3896L16.9885 21.1977ZM22.053 21.1977H26.7805V23.8129H22.053V21.1977ZM27.8367 21.1977H31.5332L31.8802 22.4399C32.0764 23.1289 32.2373 23.7173 32.2474 23.7525C32.2624 23.7978 31.7947 23.8129 27.8367 23.8129V21.1977ZM16.2743 24.6679H20.9968V27.2831H18.281C16.2341 27.2831 15.5652 27.268 15.5702 27.2228C15.5702 27.1926 15.6859 26.755 15.8217 26.2571C15.9625 25.7542 16.1184 25.1959 16.1737 25.0099L16.2743 24.6679ZM22.1083 24.6679H26.8258L26.8107 27.258L22.1083 27.2831V24.6679ZM27.8367 24.6679L32.2926 24.6628L32.6547 25.9353C32.8559 26.6343 33.0219 27.2228 33.0219 27.2429C33.0219 27.263 31.8601 27.273 27.8668 27.258L27.8367 24.6679ZM15.6808 28.1381H20.9968V30.7533H17.9792C16.3196 30.7533 14.9617 30.7332 14.9617 30.7131C14.9617 30.693 15.1226 30.1045 15.3187 29.4055L15.6808 28.1381ZM22.1083 28.1381H26.8358V30.7533H22.1083V28.1381ZM27.8417 28.1381L33.0369 28.1632L33.4041 29.4457C33.6053 30.1498 33.7712 30.7332 33.7712 30.7433C33.7763 30.7483 32.4385 30.7533 27.8417 30.7533V28.1381Z" fill="white"/>
<path d="M32.4533 14.7904C32.3075 14.2372 32.1616 13.7795 32.1314 13.7694C32.0962 13.7544 32.0359 13.865 31.9906 14.0159C31.9504 14.1617 31.8196 14.6194 31.709 15.0368C31.5581 15.6102 31.5229 15.8013 31.5732 15.8264C31.6034 15.8465 31.8498 15.8667 32.1113 15.8667C32.3729 15.8667 32.6193 15.8465 32.6545 15.8264C32.7048 15.8013 32.6645 15.58 32.4533 14.7904Z" fill="#FAC515"/>
<path d="M37.7693 19.9052C37.2462 19.7644 36.7835 19.6437 36.7534 19.6437C36.7031 19.6437 36.688 19.7895 36.688 20.222C36.688 20.5389 36.7031 20.8054 36.7282 20.8155C36.7483 20.8255 37.206 20.7149 37.7441 20.5741C38.4231 20.388 38.7249 20.2874 38.7249 20.2371C38.7249 20.1919 38.4281 20.0862 37.7693 19.9052Z" fill="#FAC515"/>
<path d="M36.688 15.7258C36.688 15.6906 36.6478 15.6655 36.6025 15.6705C36.5522 15.6705 36.1398 15.8918 35.6872 16.1584C35.2295 16.4249 34.8523 16.6663 34.8422 16.6965C34.8322 16.7216 35.0032 16.9228 35.2144 17.1391C35.4307 17.3553 35.6318 17.5263 35.657 17.5112C35.6872 17.4962 35.9286 17.1039 36.1951 16.6361C36.4667 16.1684 36.688 15.761 36.688 15.7258Z" fill="#FAC515"/>
<path d="M28.1734 16.2036C27.7258 15.9622 27.3436 15.7661 27.3234 15.7661C27.2983 15.7661 27.2832 15.7962 27.2832 15.8415C27.2832 15.8817 27.4743 16.2791 27.7107 16.7216C27.9471 17.1642 28.1533 17.5263 28.1784 17.5263C28.1985 17.5263 28.3896 17.3503 28.6009 17.134C28.8171 16.9178 28.9932 16.7216 28.9932 16.6965C28.9932 16.6663 28.626 16.445 28.1734 16.2036Z" fill="#FAC515"/>
<path d="M33.1172 16.8876C32.911 16.8273 32.569 16.7669 32.3628 16.7518C32.1566 16.7418 31.8498 16.7468 31.6838 16.7669C31.5179 16.787 31.3268 16.8222 31.2563 16.8423C31.1859 16.8625 31.0049 16.9228 30.854 16.9832C30.7031 17.0435 30.4667 17.1592 30.3259 17.2397C30.1901 17.3252 29.994 17.4559 29.8984 17.5364C29.8029 17.6219 29.6017 17.8231 29.4559 17.9941C29.31 18.165 29.1239 18.4266 29.0435 18.5825C28.963 18.7334 28.8976 18.8842 28.8926 18.9194C28.8926 18.9697 29.305 18.9848 30.7786 18.9848C32.051 18.9848 32.75 18.9999 32.9311 19.0401C33.4502 19.2373 33.6637 19.8344 33.9571 21.3486L34.3393 22.9328C34.9227 22.3042 35.1038 22.0426 35.2345 21.7761C35.3401 21.5548 35.4659 21.2229 35.5111 21.0468C35.5614 20.8457 35.5966 20.5188 35.5966 20.217C35.5966 19.9052 35.5614 19.5833 35.5111 19.3872C35.4608 19.2061 35.3301 18.8641 35.2144 18.6328C35.0535 18.2958 34.9177 18.1148 34.6008 17.7979C34.1437 17.3485 33.8325 17.1544 33.1172 16.8876Z" fill="#FAC515"/>
<path d="M35.657 23.5715C35.4659 23.2346 35.2798 22.958 35.2546 22.958C35.2245 22.958 35.0484 23.1088 34.8624 23.2949C34.5757 23.5816 34.5254 23.657 34.5505 23.7627C34.5707 23.8582 34.7467 23.9839 35.3955 24.3561C35.8431 24.6126 36.2404 24.8087 36.2756 24.7937C36.3208 24.7735 36.2907 24.683 36.175 24.4768C36.0845 24.3159 35.8531 23.9085 35.657 23.5715Z" fill="#FAC515"/>
</g>
<defs>
<clipPath id="clip0_2850_151521">
<rect width="25.75" height="25.75" fill="white" transform="translate(13 13)"/>
</clipPath>
</defs>
</svg>
