<svg width="41" height="40" viewBox="0 0 41 40" fill="none" xmlns="http://www.w3.org/2000/svg">
<rect x="0.833374" y="0.5" width="39" height="39" rx="19.5" fill="#F0F7ED"/>
<g clip-path="url(#clip0_3650_127037)">
<path d="M14.5001 25H12.8334C12.3914 25 11.9675 24.8244 11.6549 24.5118C11.3423 24.1993 11.1667 23.7754 11.1667 23.3333V16.6667C11.1667 16.2246 11.3423 15.8007 11.6549 15.4882C11.9675 15.1756 12.3914 15 12.8334 15H15.4917M22.8334 15H24.5001C24.9421 15 25.366 15.1756 25.6786 15.4882C25.9912 15.8007 26.1667 16.2246 26.1667 16.6667V23.3333C26.1667 23.7754 25.9912 24.1993 25.6786 24.5118C25.366 24.8244 24.9421 25 24.5001 25H21.8417M29.5001 20.8333V19.1667M19.5001 15L16.1667 20H21.1667L17.8334 25" stroke="#497A38" stroke-width="1.2" stroke-linecap="round" stroke-linejoin="round"/>
</g>
<rect x="0.833374" y="0.5" width="39" height="39" rx="19.5" stroke="#CEE5C8"/>
<defs>
<clipPath id="clip0_3650_127037">
<rect width="20" height="20" fill="white" transform="translate(10.3334 10)"/>
</clipPath>
</defs>
</svg>
