<svg width="90" height="58" viewBox="0 0 90 58" fill="none" xmlns="http://www.w3.org/2000/svg">
<path d="M1.3335 1C15.4682 2.51637 16.3435 38.8191 30.3335 43C41.8699 46.4477 47.7116 26.8771 59.3335 29C71.9392 31.3026 75.9731 51.6959 88.3335 57H1.3335V1Z" fill="#FEF3F2"/>
<path d="M1.3335 1C15.4682 2.51637 16.3435 38.8191 30.3335 43C41.8699 46.4477 47.7116 26.8771 59.3335 29C71.9392 31.3026 75.9731 51.6959 88.3335 57H1.3335V1Z" fill="url(#paint0_linear_4363_156099)"/>
<path d="M88.3335 57C75.9731 51.6959 71.9392 31.3026 59.3335 29C47.7116 26.8771 41.8699 46.4477 30.3335 43C16.3435 38.8191 15.4682 2.51637 1.3335 1" stroke="#F04438" stroke-width="2" stroke-linecap="round" stroke-linejoin="round"/>
<defs>
<linearGradient id="paint0_linear_4363_156099" x1="44.8335" y1="1" x2="44.8335" y2="57" gradientUnits="userSpaceOnUse">
<stop offset="0.641167" stop-color="white" stop-opacity="0"/>
<stop offset="1" stop-color="white"/>
</linearGradient>
</defs>
</svg>
