<svg width="52" height="52" viewBox="0 0 52 52" fill="none" xmlns="http://www.w3.org/2000/svg">
<rect width="52" height="52" rx="26" fill="#385E2B"/>
<rect x="10.5769" y="19.5769" width="27.6923" height="13.8462" rx="4.03846" stroke="white" stroke-width="1.15385"/>
<rect x="12.3077" y="21.3076" width="24.2308" height="10.3846" rx="2.30769" fill="#DCECD5"/>
<path d="M39.423 24.1922C39.8821 24.1922 40.3223 24.4354 40.6469 24.8681C40.9715 25.3009 41.1538 25.8879 41.1538 26.4999C41.1538 27.112 40.9715 27.6989 40.6469 28.1317C40.3223 28.5645 39.8821 28.8076 39.423 28.8076L39.423 26.4999V24.1922Z" fill="white"/>
<path d="M20.3846 27.3262C20.3846 27.4688 20.4321 27.5876 20.5269 27.6826C20.6218 27.7733 20.7394 27.8187 20.8796 27.8187H24.536L22.6181 33.1712C22.5521 33.3569 22.5397 33.5168 22.581 33.6507C22.6263 33.7846 22.7026 33.8818 22.8099 33.9423C22.9171 34.0027 23.0367 34.0157 23.1687 33.9811C23.3048 33.9466 23.4306 33.8537 23.5461 33.7025L29.4422 26.1209C29.5577 25.9697 29.6154 25.8185 29.6154 25.6673C29.6154 25.5248 29.568 25.4081 29.4731 25.3174C29.3824 25.2224 29.2648 25.1748 29.1205 25.1748H25.4702L27.382 19.8224C27.4521 19.6366 27.4645 19.4789 27.4191 19.3493C27.3778 19.2154 27.3036 19.1182 27.1964 19.0577C27.0891 18.9973 26.9674 18.9843 26.8313 19.0189C26.6993 19.0534 26.5756 19.1441 26.4601 19.291L20.5641 26.8791C20.4444 27.0303 20.3846 27.1793 20.3846 27.3262Z" fill="#EAAA08"/>
</svg>
