<svg width="49" height="48" viewBox="0 0 49 48" fill="none" xmlns="http://www.w3.org/2000/svg">
<rect x="0.666504" width="48" height="48" rx="10" fill="#F0F7ED"/>
<path d="M26.9985 14H18.9985C18.4681 14 17.9594 14.2107 17.5843 14.5858C17.2092 14.9609 16.9985 15.4696 16.9985 16V32C16.9985 32.5304 17.2092 33.0391 17.5843 33.4142C17.9594 33.7893 18.4681 34 18.9985 34H30.9985C31.529 34 32.0377 33.7893 32.4127 33.4142C32.7878 33.0391 32.9985 32.5304 32.9985 32V20M26.9985 14L32.9985 20M26.9985 14V20H32.9985M24.9985 30V24M21.9985 27H27.9985" stroke="#385E2B" stroke-width="2" stroke-linecap="round" stroke-linejoin="round"/>
</svg>
