<svg width="40" height="40" viewBox="0 0 40 40" fill="none" xmlns="http://www.w3.org/2000/svg">
<rect x="0.5" y="0.5" width="39" height="39" rx="19.5" fill="#F0F7ED"/>
<path d="M24.1666 25.0001C24.1666 23.895 23.7276 22.8352 22.9462 22.0538C22.1648 21.2724 21.105 20.8334 19.9999 20.8334C18.8948 20.8334 17.835 21.2724 17.0536 22.0538C16.2722 22.8352 15.8333 23.895 15.8333 25.0001M19.9999 17.5001V11.6667M19.9999 17.5001L23.3333 14.1667M19.9999 17.5001L16.6666 14.1667M13.5166 18.5167L14.6999 19.7001M10.8333 25.0001H12.4999M27.4999 25.0001H29.1666M25.2999 19.7001L26.4833 18.5167M29.1666 28.3334H10.8333" stroke="#497A38" stroke-width="1.2" stroke-linecap="round" stroke-linejoin="round"/>
<rect x="0.5" y="0.5" width="39" height="39" rx="19.5" stroke="#CEE5C8"/>
</svg>
