<svg width="41" height="40" viewBox="0 0 41 40" fill="none" xmlns="http://www.w3.org/2000/svg">
<rect x="0.816406" y="0.5" width="39" height="39" rx="19.5" fill="#F0F7ED"/>
<g clip-path="url(#clip0_3673_139191)">
<path d="M24.4832 27.5V25.8333C24.4832 24.9493 24.132 24.1014 23.5069 23.4763C22.8818 22.8512 22.034 22.5 21.1499 22.5H14.4832C13.5992 22.5 12.7513 22.8512 12.1262 23.4763C11.5011 24.1014 11.1499 24.9493 11.1499 25.8333V27.5M29.4832 27.5V25.8333C29.4827 25.0948 29.2369 24.3773 28.7844 23.7936C28.3319 23.2099 27.6983 22.793 26.9832 22.6083M23.6499 12.6083C24.3669 12.7919 25.0024 13.2089 25.4563 13.7936C25.9101 14.3783 26.1564 15.0974 26.1564 15.8375C26.1564 16.5776 25.9101 17.2967 25.4563 17.8814C25.0024 18.4661 24.3669 18.8831 23.6499 19.0667M21.1499 15.8333C21.1499 17.6743 19.6575 19.1667 17.8166 19.1667C15.9756 19.1667 14.4832 17.6743 14.4832 15.8333C14.4832 13.9924 15.9756 12.5 17.8166 12.5C19.6575 12.5 21.1499 13.9924 21.1499 15.8333Z" stroke="#497A38" stroke-width="1.2" stroke-linecap="round" stroke-linejoin="round"/>
</g>
<rect x="0.816406" y="0.5" width="39" height="39" rx="19.5" stroke="#CEE5C8"/>
<defs>
<clipPath id="clip0_3673_139191">
<rect width="20" height="20" fill="white" transform="translate(10.3164 10)"/>
</clipPath>
</defs>
</svg>
