<svg width="428" height="348" viewBox="0 0 428 348" fill="none" xmlns="http://www.w3.org/2000/svg">
<g clip-path="url(#clip0_4363_156131)">
<path d="M394.83 107.644L392.733 107.773L387.554 108.885L386.399 108.757L385.243 108.329L384.858 107.987L384.344 107.901L383.146 108.072L382.846 110.127V112.609L382.375 115.134L380.407 120.013L379.165 124.85L377.368 125.834L374.928 125.321L372.831 123.951L370.862 122.196L368.465 121.126L365.384 120.698L362.473 121.383L360.547 123.651L358.45 125.535L357.123 125.62L356.225 126.305L355.583 127.589L354.598 128.702L352.03 129.857L349.163 130.157L346.595 130.713L344.54 132.468L340.859 137.262L336.323 140.472L330.587 140.172L328.062 138.546L325.665 134.651L324.339 133.795L322.798 133.196L321.471 132.254L320.358 130.885L319.588 129.301L319.673 127.717L322.327 123.395L321.856 120.27L323.269 119.885L324.339 118.986L325.195 117.916L325.58 116.632L325.323 113.593L325.837 110.683L327.848 108.457L336.237 105.504L338.463 103.835L339.533 101.353L339.361 98.271L339.533 95.1894L340.303 94.0338L341.287 93.0066L342.743 90.353L346.338 85.859L346.167 84.5322L345.525 83.2482L344.497 82.0498L343.042 81.579L341.844 81.7502L340.902 81.4506L341.116 79.9954L343.256 75.7582L343.427 74.1318L342.571 70.4938L344.241 58.253L343.513 52.7746L347.408 49.051L348.991 46.8682L349.89 44.6426L349.591 42.3742L347.665 40.9618L346.081 39.207L345.439 36.853L346.295 29.791L347.279 29.8338L348.093 29.9622L348.777 30.219L349.334 30.3474L349.847 30.0906L350.019 29.6626L350.318 27.6938L350.489 27.5654L351.559 27.3514L352.03 26.6238L352.244 25.8106L351.688 25.5966L351.945 25.083L352.373 24.3982L352.501 23.799L353.785 22.5578H354.341L354.855 22.1298L354.941 21.3166L355.968 22.1726L356.524 22.301L356.824 22.087L357.081 21.2738L357.509 21.0598L358.322 20.8886L358.878 20.4178L359.82 19.305L360.205 18.5346L360.676 19.091L361.189 19.0482L360.804 18.1922L360.89 18.0638L361.617 17.7642L362.088 17.6786L362.045 17.2934L363.03 16.1806L363.501 15.7954L363.073 15.2818L362.516 15.0678V14.7682L363.501 15.1534L363.843 15.1106L363.971 14.5114L364.999 14.7254L365.983 14.5542L369.15 12.9278L370.092 12.5854L371.076 12.5426L370.862 13.099L371.247 13.2702L371.932 13.2274L372.531 13.0134L372.788 13.2702L373.045 12.671L373.259 12.5426L373.601 12.5854L373.687 12.885L373.473 13.527L374.415 13.099L375.399 12.9278L376.255 12.6282L376.897 11.7722L376.383 11.6866L376.298 11.5154L376.64 11.0018L377.282 10.9162L377.368 10.6166L377.154 10.1458L377.368 9.63221L377.582 9.33261L379.037 7.96301L379.551 7.57781V6.97861L379.85 6.67901L380.92 6.50781L389.737 6.89301L397.869 18.3634L406.044 29.8338L410.024 49.265L410.067 52.0898L410.324 52.8602V53.5878L410.11 54.7006V55.1286L410.452 55.685L410.923 55.9418L411.479 56.0702L418.798 56.2842L421.067 56.8834L422.051 57.397L422.137 57.7394L421.965 58.2958L422.051 58.6382L422.308 58.895L423.335 59.6654L423.72 59.8366V60.1362L423.249 60.3502L423.934 60.8638L424.662 61.249L425.218 61.7198L425.475 62.4902L425.646 62.6614L426.93 62.105L427.358 62.319L427.572 63.0894L426.887 63.7742L426.417 64.6302L425.775 67.241L425.86 67.6262L425.218 68.0542L425.304 68.7818L425.989 70.3226L426.031 71.0074L425.903 72.2058L425.518 73.3614L424.747 77.085L424.491 77.6842L423.164 79.439L422.993 79.7386L423.078 80.0382L423.378 80.509L424.148 80.5518L424.405 80.723L424.876 81.4506L425.432 82.0498L425.86 82.649L426.031 83.3766L426.074 84.3182L425.946 85.0458L425.646 85.9446L425.304 86.8434L424.876 87.4854L424.234 87.8278L422.393 88.5126L421.666 88.9406L420.339 90.139L419.611 90.567L417.514 91.2518L416.829 91.637L413.662 94.5902L413.363 94.6758L412.421 94.8042L411.993 94.9754L411.009 96.0026L410.367 96.4734L409.596 96.9014L408.826 97.0726L408.098 96.987L405.573 95.917L404.203 95.489H403.091L401.721 96.6018L400.394 97.9714L399.196 99.4694L398.34 101.01L397.741 102.465L397.313 103.022L395.943 103.792L395.387 104.306L395.001 104.948L394.83 105.675L395.087 107.045L394.83 107.644Z" fill="#A48AFB" stroke="white" stroke-width="0.856" stroke-linecap="round" stroke-linejoin="round"/>
<path d="M173.512 286.673L173.555 288.77L173.256 291.081L175.353 292.151L180.532 292.194L182.458 293.093L182.714 294.334L183.314 295.447L184.469 296.346L185.753 296.816L186.352 298.443L186.053 300.454L186.866 304.221L188.578 307.516L188.15 308.758L186.438 308.458L184.598 307.003L182.586 305.89L181.388 304.007L179.633 302.766L178.263 302.552L177.322 303.236L177.536 305.676L176.68 307.645L176.637 308.116L177.493 308.372L177.878 309.057L177.664 309.742L176.637 310.427L174.796 310.17L173.213 310.598L173.17 311.326L173.512 311.968L173.598 312.652L173.084 314.921L172.956 316.462L173.17 318.131L172.956 319.714L171.8 320.87L170.987 322.154L171.458 323.909L171.244 324.551L171.158 325.15L171.929 326.562L172.186 328.06L169.789 326.434L167.906 326.391L166.579 325.835L165.166 325.878L162.256 326.477L160.801 326.049L160.33 323.267L164.011 317.617L164.182 315.862L163.454 314.536L166.065 307.003L167.435 305.505L167.863 304.606L168.162 303.664L168.676 302.937L168.933 302.081V301.096L168.762 300.112V299.128L168.505 298.229L168.12 297.544L168.419 297.03L168.804 295.404L168.334 291.381L166.964 290.14L165.98 289.926L164.182 289.027L163.412 288.342L165.081 286.245L167.478 284.961L167.777 285.26L169.489 285.004L171.201 284.918L173.512 286.673Z" fill="#7CD4FD" stroke="white" stroke-width="0.856" stroke-linecap="round" stroke-linejoin="round"/>
<path d="M186.436 308.457L185.451 309.57L186.05 311.111L186.436 311.753L187.163 312.309L189.26 311.967L190.159 312.181L191.743 313.208L192.342 313.893L192.085 318.258L192.556 320.227L193.54 322.025L194.824 323.822L198.976 328.188L200.346 329.215L200.774 329.301L200.988 329.472L201.501 331.013L201.929 331.612L201.544 332.639L201.501 332.982L201.63 333.452L202.4 333.795L202.7 334.052L202.828 334.908L202.272 335.421L201.544 335.806L201.244 336.406L200.731 337.476L200.046 337.732H198.505L196.494 337.476H193.412L191.957 337.262L191.272 337.304L190.074 337.904L189.389 337.989H187.805L181.728 338.717L181.385 338.503L180.957 338.46L180.529 338.588L180.272 338.974H180.957L181.471 339.23L180.7 339.402L179.545 339.487L178.518 339.316L178.047 338.845L177.533 338.717L174.409 338.503L174.666 338.118L174.409 337.861L173.724 337.904L173.638 337.476L173.767 337.262L174.238 336.919L174.409 336.534L173.638 335.55L173.895 335.036L173.382 334.437L173.51 333.538L174.152 331.869H173.895L173.51 332.126L173.553 331.27L173.253 329.943L172.611 328.958L172.183 328.06L171.926 326.562L171.156 325.149L171.242 324.55L171.456 323.908L170.985 322.153L171.798 320.869L172.954 319.714L173.168 318.13L172.954 316.461L173.082 314.92L173.596 312.652L173.51 311.967L173.168 311.325L173.21 310.597L174.794 310.169L176.634 310.426L177.662 309.741L177.876 309.056L177.49 308.372L176.634 308.115L176.677 307.644L177.533 305.675L177.319 303.236L178.261 302.551L179.63 302.765L181.385 304.006L182.584 305.889L184.595 307.002L186.436 308.457Z" fill="#CEE5C8" stroke="white" stroke-width="0.856" stroke-linecap="round" stroke-linejoin="round"/>
<path d="M163.454 314.541L162.427 314.841L161.271 315.012L159.388 314.456L154.937 314.884L149.886 314.541L146.163 312.102L145.906 311.631L145.05 310.989L144.707 310.604L144.665 309.362L145.178 308.207L145.478 305.682L144.023 304.141L142.696 304.44L141.455 304.355L141.198 303.542L142.311 297.935L142.739 296.694L145.093 294.768L147.875 293.997L149.415 294.639L150.828 294.254L152.197 291.386L152.668 289.846L154.038 289.032L155.621 288.647L157.248 288.476L160.501 289.161L161.956 288.69L163.411 288.348L164.181 289.032L165.979 289.931L166.963 290.145L168.333 291.386L168.804 295.41L168.419 297.036L168.119 297.55L168.504 298.234L168.761 299.133V300.118L168.932 301.102V302.086L168.675 302.942L168.162 303.67L167.862 304.612L167.434 305.51L166.065 307.008L163.454 314.541Z" fill="#7CD4FD" stroke="white" stroke-width="0.856" stroke-linecap="round" stroke-linejoin="round"/>
<path d="M170.601 340.261L171.243 340.433L171.885 340.347L173.169 340.005L174.967 339.833L175.309 339.962L175.138 340.433L174.796 340.861L174.196 340.989L172.827 340.946L172.27 341.032L170.516 341.674L169.874 341.717L167.263 341.545L166.706 341.289L166.492 340.818L166.835 340.176L167.22 340.005L168.932 339.448L169.36 339.619L170.601 340.261ZM163.71 339.491L164.267 339.705L165.893 339.534L166.364 339.705L165.936 340.09L165.722 340.518L165.636 341.545L165.465 342.102L165.123 342.444L164.138 342.958L160.971 343.6L159.773 343.514L159.43 343.086L159.773 342.401L160.928 341.203L161.699 339.962L162.384 339.149L162.683 338.207L163.197 338.507L163.71 339.491ZM163.454 314.539L164.181 315.865L164.01 317.62L160.329 323.27L160.8 326.052L162.255 326.48L165.166 325.881L166.578 325.838L167.905 326.394L169.788 326.437L172.185 328.063L172.613 328.962L173.255 329.947L173.554 331.273L173.512 332.129L173.041 332.6L172.955 332.985L173.126 333.884V334.227L172.827 334.655V334.911L173.298 335.468L173.426 335.767L172.698 336.538L171.971 337.009L171.586 337.051L171.243 336.752H170.986L170.687 337.479L169.917 337.394L168.675 336.752L167.776 336.709L166.878 336.538L166.064 336.153L165.636 335.553L165.166 335.767H164.524L164.224 336.409L163.924 336.538V336.752L164.395 337.009L164.181 337.265L164.609 337.394L165.251 337.907L166.193 338.121L166.364 338.335L166.107 338.977L164.524 339.234L163.539 337.865L161.314 335.425L160.971 334.655V333.713L160.886 333.371H160.672L160.158 333.585L159.388 333.627L158.318 332.729L158.061 332.343L157.462 330.717L157.034 330.503L156.563 331.145L156.648 331.487L157.076 331.616L157.333 331.873L157.676 333.071L158.018 333.627L158.66 333.841L159.773 334.398L160.543 335.596L160.672 336.795L159.773 337.265L160.244 337.565L160.757 338.079L161.1 338.721L160.843 339.363L159.901 340.433L159.259 340.732L158.532 340.433V341.16L157.89 340.861L157.376 340.433L157.162 339.919L157.333 339.234L156.862 339.662L156.734 340.261L156.948 340.861L157.333 341.417L156.349 341.674H156.092L155.664 340.818L155.45 339.919L155.364 338.121L154.765 337.137L154.594 336.538L154.979 336.281L155.322 335.297L155.45 334.569L155.364 334.055L156.092 334.312L155.835 333.884L155.15 333.114L154.808 331.915L154.637 331.616L153.995 332.515H153.738L153.61 331.958L153.182 331.145L153.01 331.701L153.096 332.557L152.925 332.814L153.353 333.413L154.123 335.553L153.524 335.511L153.182 335.04L152.711 335.297L152.368 334.612L152.026 334.013L150.999 332.814L151.042 333.413L151.213 333.884L151.726 334.783L152.154 335.382L152.069 335.981L151.726 336.367L151.983 336.752L152.326 336.195L153.01 336.024L153.61 336.195L153.909 336.666L153.567 339.106L153.652 339.962L154.894 342.444L155.364 343.043L155.108 343.728L154.765 343.857L154.294 343.814L153.224 343.343L153.438 343.857L152.668 343.643L151.855 343.257L151.084 343.086L150.228 343.386L149.843 342.958L149.544 342.401L149.501 341.759L149.758 341.16L149.158 340.818L148.602 339.919L148.217 338.763L148.046 337.865L148.131 337.223L148.302 336.88L148.816 336.281L149.116 335.339L149.03 334.783L148.431 334.569L147.532 334.055L146.89 332.857L146.334 330.631L146.248 329.775L146.334 329.305L146.976 328.363L146.89 328.063L146.548 328.021L146.12 328.449L145.777 328.021L145.606 327.421L145.007 327.635L144.408 327.421L144.536 328.063L144.622 328.705L144.793 329.219L145.264 329.433L145.563 329.69L145.82 330.332L146.12 331.616L146.248 332.943L146.419 333.585L147.19 334.055L147.66 334.612L148.302 335.767L147.489 336.452L147.318 336.752L147.275 337.265L147.96 340.775L148.345 341.845L148.816 342.401L148.73 343.215L149.458 343.857L149.929 344.37L149.03 344.841L147.917 345.055L146.505 345.141L145.178 345.012L144.408 344.584L144.279 344.071L144.408 341.973L144.622 341.545L144.151 340.946V339.705L144.279 339.106L145.092 336.966L145.178 336.581L145.135 335.553L144.664 336.11L144.236 335.553L143.081 335.04L142.096 334.269L141.54 333.071L141.24 331.787L139.058 330.417L136.104 331.53L134.992 331.616L134.606 330.546L134.778 329.861L134.478 329.433L133.964 329.39L133.451 329.133L132.638 328.063L132.68 326.608L133.066 325.367L133.793 324.297L133.879 323.783L134.221 323.013L134.863 322.328L134.392 321.643L134.136 320.83V320.103L134.307 319.204L134.521 318.476L134.735 318.134L135.377 317.834L135.676 317.064L135.848 315.437L136.361 314.282L137.132 313.554L137.988 312.912L139.186 311.414L139.657 310.43L140.342 310.301L140.898 309.745L140.984 309.317L140.812 308.975L139.785 307.776L136.49 307.477L135.848 305.893L136.575 305.123L137.431 304.737L138.116 304.01L138.544 303.154L138.844 301.399L139.571 299.773L140.47 295.621L141.54 296.605L142.738 296.691L142.31 297.932L141.198 303.539L141.454 304.352L142.696 304.438L144.022 304.138L145.478 305.679L145.178 308.204L144.664 309.36L144.707 310.601L145.05 310.986L145.906 311.628L146.162 312.099L149.886 314.539L154.936 314.881L159.388 314.453L161.271 315.009L162.426 314.838L163.454 314.539Z" fill="#CEE5C8" stroke="white" stroke-width="0.856" stroke-linecap="round" stroke-linejoin="round"/>
<path d="M144.661 336.106L144.447 336.363L143.891 337.861L143.677 339.487L143.891 340.685L143.763 340.985L143.677 342.141L143.335 341.327L143.206 340.857L143.121 338.674L142.949 338.203L142.65 338.674L142.179 338.973L142.393 339.487L142.436 341.156L142.564 341.713L142.992 342.483L143.292 343.211L143.634 344.409L143.677 344.837L143.377 345.222L143.035 345.351H141.922L140.938 345.436L140.724 345.222L140.339 344.067L140.253 342.954L140.296 341.327L140.125 340.043L139.611 339.102L138.498 339.23L139.525 340.001L139.868 341.242L139.739 342.697L139.269 344.109L139.183 345.308L137.428 345.693L135.374 345.522L134.389 344.837L133.448 345.094L133.705 345.736L133.105 345.95L132.207 346.035L131.565 346.207L130.88 346.506L129.253 346.549L128.526 346.806L127.713 345.821L128.44 344.281L130.751 341.67L129.767 341.541L129.51 341.67L128.269 343.125L128.098 341.199L127.541 339.444H127.327L127.285 340.172L127.37 341.071L127.499 341.969L127.156 341.884L126.728 341.541L126.086 341.413L126.471 342.226L126.857 342.783L127.113 343.382L127.071 344.323L126.814 345.051L126.557 345.565L125.829 346.035L125.872 346.549L126.343 346.378L126.857 346.549L126.643 346.891L125.615 347.234L124.331 347.277L123.433 347.063L122.919 347.533L122.363 347.319L122.02 346.977L121.935 346.463V345.821L122.106 345.222L122.577 344.366L122.662 343.853L121.935 344.109V343.553L122.063 342.569L121.335 342.44L120.907 342.269L120.437 342.397L120.351 342.74L120.437 343.296L120.736 344.109L120.565 344.58L121.036 345.393L121.207 345.95L121.121 346.72L120.822 346.677L120.437 346.292L119.88 346.078L119.11 346.035L118.81 345.864L118.767 344.58L119.024 344.409L118.511 343.596V342.397H118.297L118.04 343.596L117.312 343.125L117.826 344.323L117.954 344.923L117.526 345.351L117.013 345.265L116.456 344.923L115.729 344.323L115.001 344.067L114.188 343.425L113.76 342.569L114.145 341.67L113.76 341.627L113.375 342.012L113.203 342.397L112.604 341.798L111.149 340.985L110.978 340.557L111.705 340.942L111.449 340.471L111.021 340.257L109.993 339.958L109.266 339.102L108.966 338.759L108.025 337.775L107.811 337.604L104.472 334.522L103.488 333.11L103.145 331.612L103.659 331.869V331.184L102.118 330.242L101.69 329.515L101.519 328.958L100.62 327.417L101.433 327.717L101.134 326.861L100.021 325.577L99.0367 322.795L98.6943 321.126L98.5231 320.569L98.0523 319.628L97.8811 319.114L97.6671 318.215L97.1963 317.573L97.0679 317.017L97.2391 316.589L97.6671 316.418L98.2235 316.461L98.7799 316.632L99.1651 316.974L99.8071 317.873L100.235 318.13L99.6787 316.717L100.663 317.531L102.033 318.429L103.659 318.986L105.457 319.97L106.141 320.484L106.997 320.612L107.639 320.527L108.196 320.569L109.48 319.885L110.678 319.029L111.363 318.815L112.005 318.515L112.69 318.301L113.332 318.429L114.445 318.215L115.429 317.702L116.585 316.033L117.055 315.819L118.254 316.889L119.024 317.317L119.752 317.659L120.693 317.787L121.293 317.445L122.32 316.033L122.619 315.904L123.903 316.161L124.374 316.075L125.102 315.433L126.001 315.177L126.386 314.963L126.557 314.577L126.514 314.278L126.172 313.721L126.086 313.336L126.386 312.48L127.028 312.223L128.526 312.266L129.168 312.095L129.253 311.881L129.339 310.939L129.51 310.597L130.109 309.955L130.794 309.441L131.351 309.27L135.973 308.543L136.529 308.243L136.487 307.473L139.782 307.772L140.809 308.971L140.981 309.313L140.895 309.741L140.339 310.297L139.654 310.426L139.183 311.41L137.985 312.908L137.129 313.55L136.358 314.278L135.845 315.433L135.673 317.06L135.374 317.83L134.732 318.13L134.518 318.472L134.304 319.2L134.133 320.099V320.826L134.389 321.639L134.86 322.324L134.218 323.009L133.876 323.779L133.79 324.293L133.063 325.363L132.677 326.604L132.635 328.059L133.448 329.129L133.961 329.386L134.475 329.429L134.775 329.857L134.603 330.542L134.989 331.612L136.101 331.526L139.055 330.413L141.237 331.783L141.537 333.067L142.093 334.265L143.078 335.036L144.233 335.549L144.661 336.106Z" fill="#CEE5C8" stroke="white" stroke-width="0.856" stroke-linecap="round" stroke-linejoin="round"/>
<path d="M231.762 216.996L229.794 219.95L230.222 220.72L231.334 220.506L233.731 219.393L235.144 219.136L240.622 218.965L246.058 219.607L250.081 222.389L253.291 226.412L256.929 229.665L258.512 233.817L257.1 238.139L256.843 242.377L255.302 243.832L253.505 245.116L252.05 246.913L250.98 249.011L249.824 255.259L249.952 257.528L249.524 263.563L248.668 267.029H248.24L247.17 267.243L246.657 267.714L245.844 269.298L245.244 269.854L244.517 270.197L243.104 270.753L242.42 269.597L241.392 267.714L237.155 262.707L233.988 261.08L228.381 262.15L226.37 262.193L225.385 261.979L224.7 261.38L225.043 259.24L224.187 257.399L219.907 254.874L217.339 253.975L214.899 253.761L212.588 254.618L212.117 255.773L212.46 257.143L211.86 258.17L210.662 258.812L209.164 259.197L207.58 259.24L206.168 258.983H204.756L203.728 259.753L202.744 260.823L201.674 261.38L200.518 261.508L199.705 260.567L199.234 259.368L198.978 257.999L198.592 257.399L197.865 257.357L197.694 257.742L197.308 258.298H196.495L195.682 258.469L194.355 260.224L192.986 260.567H191.573L190.075 260.781L189.519 261.979L189.176 264.975L187.593 267.115L185.153 265.617L183.998 263.135L185.196 259.796V258.042L184.811 256.329L183.912 254.874L182.457 254.147L181.173 254.489L180.103 255.302L178.69 255.473L177.321 254.831L175.994 253.847L174.796 252.734L173.811 251.493L172.442 248.625L172.099 247.17L173.469 247.855L174.967 249.096L176.122 249.653L177.064 249.353L177.192 247.727L177.749 246.314L182.5 243.703L183.955 241.264L184.597 238.354L184.682 237.198L185.11 236.171L185.838 234.93L184.939 234.288L183.57 234.459L182.414 233.86L181.986 232.447L181.43 228.124L181.515 223.973L181.387 222.689L180.659 221.405L179.632 220.335L178.562 218.794L178.134 216.953L178.048 215.07L178.22 213.016L180.017 213.444L182.328 213.701L184.04 214.3L185.239 214.557L187.764 214.856L189.005 215.199L190.76 216.269L191.359 216.483L194.355 216.996L195.34 217.381L197.266 218.366L198.378 218.708L199.534 218.837L200.561 219.136L201.374 219.992L203.001 220.934L203.9 221.619L204.328 221.833L205.012 222.004L205.483 221.448L205.226 220.164L203.557 216.483L202.744 213.872L203.3 211.347L205.312 209.677L209.977 209.121L217.168 211.518L219.778 212.117L223.673 212.245L224.957 212.117V211.946L231.762 216.996Z" fill="#84ADFF" stroke="white" stroke-width="0.856" stroke-linecap="round" stroke-linejoin="round"/>
<path d="M243.105 270.753L242.891 270.796L241.864 271.481L240.794 273.578L239.766 274.177L238.354 274.22L237.84 274.477L237.37 275.033L236.342 277.173L235.444 278.457L230.564 282.395L227.269 285.819L226.541 286.932L226.07 287.445L225.514 287.745L225.3 287.959L225.214 288.986L225.086 289.457L224.487 289.543L223.716 289.243L222.946 289.157L222.347 289.714L221.833 290.356L220.592 291.169L220.207 291.768L220.292 292.496L220.678 293.052L220.977 293.694L220.806 294.593L220.207 295.363L219.565 295.834L219.265 296.348L219.736 297.247L220.464 297.931L221.277 298.573L221.919 299.258L222.304 300.243L222.133 301.099L221.619 301.783L220.934 302.425L220.378 303.11L220.164 303.881L220.335 305.293L220.378 306.063L220.121 306.834L219.351 308.375L219.137 309.231L219.18 309.701L219.479 310.557L219.522 310.943L218.58 315.822L218.324 316.25L217.125 316.678L216.74 317.063L216.055 318.133L215.841 318.604L215.328 320.187L214.985 320.872L214.472 321.643L213.059 323.868L212.845 324.51L211.861 325.195L211.561 325.751L211.69 326.522L211.904 327.549L211.304 328.105L210.962 327.763L210.662 327.72L210.363 327.849L209.678 328.533L209.164 329.817L209.079 330.502L209.293 331.059V331.358L208.993 331.915L208.565 332.086L207.581 331.872L207.067 331.915L206.81 331.829L207.281 330.887L207.367 330.502L206.896 330.459L206.211 330.802L205.74 330.887L204.67 330.502L204.628 329.518L204.97 328.234L205.141 326.993H204.927L204.67 328.191L203.9 328.833L202.873 328.747L201.931 327.934L202.231 327.421L201.931 327.378L201.246 326.993L201.375 326.479L201.118 326.094L200.134 325.366L199.235 324.853L199.021 324.253L198.636 323.483L198.379 323.183L197.566 322.884L197.138 322.499L196.581 321.814L196.367 322.028L198.336 323.911L198.807 324.51L199.706 326.222L199.877 327.035L199.278 327.421L199.877 328.491L200.262 328.961L200.776 329.304L200.348 329.218L198.978 328.191L194.826 323.825L193.542 322.028L192.558 320.23L192.087 318.261L192.344 313.896L191.745 313.211L190.161 312.184L189.262 311.97L187.165 312.312L186.438 311.756L186.052 311.114L185.453 309.573L186.438 308.46L188.15 308.76L188.578 307.519L186.866 304.223L186.052 300.457L186.352 298.445L185.753 296.819L185.881 295.92L186.224 295.064L186.78 294.422L187.251 293.694L187.122 292.881L187.165 292.025L187.679 291.554L188.92 289.585L189.391 288.002L188.792 286.889L189.22 285.99L190.675 285.519L192.002 285.905L192.686 287.531L193.585 287.488L194.27 286.846L195.896 286.076L196.453 285.391L196.924 284.621H197.865L198.892 285.091L199.492 284.15L200.134 281.453L200.818 280.383L201.632 279.313L203.643 277.302L203.943 274.862L203.258 273.792L203.515 272.594L205.74 271.353L205.612 270.197L204.884 269.255L204.499 268.271L204.328 267.158L203.729 266.473L203.6 266.088L203.344 265.746L202.402 265.061L201.032 263.477L200.519 261.509L201.674 261.38L202.744 260.824L203.729 259.754L204.756 258.983H206.168L207.581 259.24L209.164 259.197L210.662 258.812L211.861 258.17L212.46 257.143L212.118 255.773L212.588 254.618L214.9 253.762L217.339 253.976L219.907 254.875L224.187 257.4L225.043 259.24L224.701 261.38L225.386 261.979L226.37 262.193L228.382 262.151L233.988 261.081L237.156 262.707L241.393 267.715L242.42 269.598L243.105 270.753Z" fill="#CEE5C8" stroke="white" stroke-width="0.856" stroke-linecap="round" stroke-linejoin="round"/>
<path d="M299.345 156.732L303.155 157.032L315.652 156.518L318.948 162.724L319.804 163.537L321.002 163.751L322.201 164.136L324.255 165.977L325.453 168.588L326.138 169.658L326.481 170.77L326.309 172.012V173.296L327.551 175.393L329.819 176.463L331.274 178.303L331.488 180.828L327.936 188.276L327.679 190.758L327.85 192.085L327.508 193.24L325.111 195.209L315.909 206.294L313.598 208.392L311.629 210.703L311.329 211.816L312.87 215.668L314.283 218.236L315.267 219.22L316.423 219.348L317.364 218.535L318.135 217.551L318.862 216.481L319.975 215.967L321.259 216.524L322.115 217.594L325.582 220.889L327.294 224.998V227.438L327.722 229.792L328.621 231.718L329.091 233.558L326.994 235.612L324.769 238.908L324.084 239.593L323.442 240.106L323.142 240.406L323.356 240.62L324.212 240.791L324.683 241.219L326.481 243.787L327.85 245.285L328.278 246.184L327.979 246.997L327.636 247.168L326.994 246.912L326.609 246.869L326.138 247.04L325.71 247.297L324.212 248.666L323.656 249.009L323.527 249.651L323.313 249.95L322.115 250.164L321.73 250.122L321.43 250.336L321.173 250.978L319.119 252.304L316.936 254.316L316.294 255.215L316.08 256.199L316.294 256.713L317.107 257.612L317.279 258.254L317.193 259.238L316.936 260.18L315.909 262.576L315.053 263.775L314.111 264.331L312.699 264.46L311.757 265.23L311.244 266.428L310.987 267.926L310.773 268.74L310.088 269.382L309.189 269.852L308.291 270.066L307.905 270.024L306.75 269.81L306.236 270.238L305.765 270.28L305.166 269.938L301.913 270.28L300.972 270.152L300.373 269.638L299.688 267.926L299.089 265.144L298.96 263.732L299.046 262.32L298.917 260.608L298.233 259.152L297.034 258.211L293.696 257.612L292.54 256.456L291.855 254.872L291.513 253.246L290.957 251.834L289.758 251.02L286.848 249.908L284.365 248.581L283.424 248.281L282.782 247.768L282.568 246.013L281.926 245.157L281.412 246.184L280.984 247.468L280.685 248.838L280.471 251.577L279.871 251.919L279.144 252.989L279.015 253.546L278.973 254.359L269.813 254.487L268.829 254.188L268.101 253.631L267.716 252.904L267.203 250.293L266.903 249.694L266.389 249.565L265.576 250.079L256.845 257.483L256.032 257.826L255.347 257.612L254.619 257.269L253.806 257.226L253.121 257.997L250.382 266.685L249.954 267.028H248.67L249.526 263.561L249.954 257.526L249.826 255.258L250.981 249.009L252.051 246.912L253.507 245.114L255.304 243.83L256.845 242.375L257.102 238.138L258.514 233.815L256.931 229.663L253.293 226.41L250.083 222.387L246.059 219.605L240.624 218.963L235.145 219.134L233.733 219.391L231.336 220.504L230.223 220.718L229.795 219.948L231.764 216.994L232.963 215.967L238.141 212.5L238.869 211.858L238.741 210.874L238.484 210.232L238.569 209.59L238.441 207.75L236.558 205.353L236.686 204.24L237.071 203.298L237.671 202.528L238.527 202.143L240.281 202.742L241.137 203.17L242.122 203.341L243.192 203.684L244.219 203.812L245.203 203.769L246.659 202.828L247.643 201.287L249.569 201.415L252.265 201.201L254.833 200.474L257.145 198.719L259.199 196.622L261.553 194.91L264.078 193.54L265.063 192.641L266.946 190.373L267.759 189.089L269.471 187.034L277.689 185.023L283.338 182.198L284.579 179.887L284.537 178.517L284.066 176.292L284.323 175.136V174.109L283.295 170.685L282.696 169.7L282.397 168.63L282.011 165.934L282.268 163.623L282.054 161.697L281.284 159.985L283.167 158.744L287.704 158.615L292.069 156.518L294.423 156.133L296.906 156.732H299.345Z" fill="#A48AFB" stroke="white" stroke-width="0.856" stroke-linecap="round" stroke-linejoin="round"/>
<path d="M126.604 187.638L125.106 189.606L123.65 194.571L123.094 198.295L122.752 199.365L122.024 200.221L120.826 200.478L116.888 199.579L111.966 199.322L108.456 198.509L104.904 197.182L103.106 195.384L101.694 194.828L100.11 196.283L96.0443 201.376L95.7447 202.575L96.8147 204.629L97.3283 205.271L97.9703 205.785L98.3127 206.47L99.7679 207.796L102.122 209.252L102.422 211.434L98.5695 211.563L97.3283 211.948L96.5579 212.847L96.3439 214.002L95.9159 214.858H95.3167L93.8187 215.115L92.9199 214.901L91.5075 214.816L89.1535 213.318L86.9279 214.002L86.2003 213.703L86.0291 213.061L85.6011 212.804L85.0875 212.718L83.0331 212.975L81.9631 212.29L81.2355 211.049L79.7375 211.006L78.3251 211.563L76.0139 211.777L75.0295 211.991L74.1307 212.376L72.1191 212.804L69.8079 212.59L67.4967 212.718L66.8975 212.333L66.2983 212.205L65.8703 211.477L64.8431 208.053L63.5591 205.956L62.6175 205.357L61.8043 204.629L60.5203 202.746L59.2791 197.91L58.0379 195.984L54.8707 188.964L54.3999 186.782L54.8707 184.599L55.6411 183.828L56.2403 182.887L57.0963 181.988L58.2947 181.303L59.4931 179.548L58.8939 178.179L57.1391 179.249H56.1547L53.5439 178.65L49.3495 177.152L47.7659 176.338L46.3963 175.14L45.5831 173.556L44.5559 172.23L42.9295 171.502L41.2175 171.673L39.6339 172.829L38.7351 174.584L38.3927 176.938L37.7079 177.708L36.8947 178.307L29.5759 181.988L28.0351 183.144L26.5799 183.871L24.9963 185.07L20.8019 186.996L20.3311 187.081L19.9459 186.653L19.5179 186.439L19.2611 186.054L18.6619 185.926L18.1055 185.968L17.2923 186.225L16.5219 186.696L15.0667 187.98L14.3391 188.408L13.7827 188.879L13.5259 189.221L12.7127 189.564L10.7439 191.147L10.1019 191.96L9.24593 192.517L6.42113 193.159L5.05153 193.116L2.95433 194.914L2.26953 186.097V185.712L2.48353 185.455L3.08273 185.198L3.29673 184.684L3.08273 183.786L3.21113 183.229L3.63913 182.202L3.68193 181.646L3.51073 181.389L3.21113 181.26V180.918L3.72473 180.062L3.93873 179.078L4.02433 176.809L3.89593 175.825L6.63513 176.082L7.10593 175.996L7.74793 175.44L8.13313 175.183L8.51833 175.097L9.63113 175.054L10.0163 175.097L11.0863 175.696H11.5143L13.9539 175.097L14.8099 174.455L15.3663 173.342L16.5647 169.619L17.2923 168.249L17.5063 167.479V165.125L17.3779 164.526L16.9499 163.413L16.6931 162.386L16.8215 161.401L17.5063 160.288L17.7631 160.074L18.3623 159.903L18.6191 159.646L20.8019 156.779L20.8447 156.608L20.5879 155.923L20.8447 155.024L21.4439 154.853L22.1287 154.981L22.7707 155.024L23.9263 154.339L24.1831 153.398L23.8835 152.328L23.4555 151.215L23.3271 150.487L23.4127 149.674L23.7123 148.946L24.3115 148.518L26.8367 147.448L28.2491 147.106L30.3891 147.32L31.0311 146.721L31.9299 145.009L33.0855 143.639L33.4707 142.912L33.6847 139.83L33.8987 139.231L34.4551 138.717L34.9687 138.46L35.4395 138.118L35.7819 137.134L39.0775 136.492L44.7699 136.32L47.2095 136.663L48.2367 137.519L60.1779 151.728L60.7343 152.156L61.2907 152.499H62.5319L63.0883 154.938L62.7459 157.849L62.7031 160.545L63.8587 162.557L66.4695 162.214L69.5939 162.685L69.6367 162.899L69.8507 165.596L69.9791 166.195L70.2787 166.666L70.7923 167.094L71.3915 167.308L73.1463 167.607L74.1735 167.992L74.6015 168.72L74.6443 169.662L74.4303 170.732L74.5159 171.844L75.1579 172.529L76.1423 172.872L77.2551 172.786L78.6675 172.358L80.2511 171.416L82.5623 170.689H83.0759L83.5467 170.817L84.4027 171.202L84.4455 171.416L85.0875 171.716L86.2859 172.529L88.1263 173.428L88.6827 173.813L89.2819 174.626L89.8811 175.268L90.0523 175.654L90.0951 176.809L90.3519 177.28L90.7799 177.58L91.2935 177.751L94.6747 178.307L97.0715 178.179L97.5851 178.264L98.3983 178.821L99.0403 179.463L99.4683 179.805L100.41 180.105L101.48 180.19L102.464 180.447L103.149 180.875L103.62 181.517L104.39 182.159L104.99 182.887L105.418 183.7L105.888 184.085L106.445 184.256L108.499 184.299L109.869 184.727L110.34 185.455L110.853 186.182L111.238 186.824L111.452 187.081L111.88 187.21L113.764 187.167L115.347 187.424H115.861L116.289 187.338L117.444 186.824L118.3 186.653L122.195 186.61L122.752 186.696L123.265 186.91L124.378 187.937L124.635 188.023L126.604 187.638Z" fill="#84ADFF" stroke="white" stroke-width="0.856" stroke-linecap="round" stroke-linejoin="round"/>
<path d="M59.8781 272.421L52.2169 271.009L43.1005 270.239L27.9065 271.009L27.0933 270.881L26.6653 270.581L26.3229 270.153L25.8093 269.768L26.4085 269.554L26.7937 269.768L27.3501 269.297L27.5641 269.468L27.7781 270.538L29.0193 269.383L29.3617 269.725L30.0893 269.554L30.7741 269.511L31.3733 269.425L31.9297 269.126L32.4433 268.569L32.4861 268.184L32.4433 267.457L32.7857 267.328H34.2409L35.0113 267.2L36.5521 266.686L37.0657 266.815L37.8361 266.515L38.5637 266.087L39.0773 265.531L39.2485 264.76L39.6765 264.589L42.6725 264.118L42.1589 263.819L41.6881 263.904L39.6765 263.391L37.6649 264.161L35.7389 265.274L34.0269 265.83L32.9997 265.916L31.7585 266.558L30.9453 266.815H30.4745L29.9181 266.601H29.4901L29.1477 266.301L28.9765 265.402L29.2333 264.632V264.118L28.6341 264.503L28.2061 264.846L27.4357 265.745L26.4513 265.916L26.3229 266.215L26.5369 266.986L26.4085 267.713L25.9377 268.484L25.6809 269.169L25.2957 269.597L25.9805 270.667L25.8093 271.48L23.7121 271.694L19.7317 271.523L15.0665 272.036L9.54527 271.779L1.58447 272.507V270.324L1.84127 268.741L3.25367 268.869L4.45207 268.741L5.39367 269.04L6.29247 268.997L7.23407 268.355L7.91887 267.585L7.87607 267.071L8.26127 266.857L16.0509 267.2L18.1481 266.943L18.6617 266.344L19.0469 264.589L19.5605 263.861L20.1169 263.262L20.6305 261.422L20.8445 260.908L21.9573 260.438L22.8133 260.694L24.4397 261.55L25.2529 262.62L26.5369 262.663L27.2217 262.535L27.6497 261.935L27.7353 261.422L28.0777 261.079L48.8785 260.994L50.9757 261.55L50.5905 262.492L49.7345 263.177L49.4349 264.075L49.7773 264.931L49.8201 265.402L50.8473 266.215L51.9173 265.659L52.9873 264.931L54.1429 264.675L55.1701 265.06L55.5553 265.787L55.2129 266.558L53.1585 267.671L53.2441 268.569L54.0573 269.083L55.0417 269.34L55.5553 269.811L56.1545 270.196L56.9677 269.982L59.0221 270.067L60.0065 270.41L60.0493 271.351L59.8781 272.421Z" fill="#FAA7E0" stroke="white" stroke-width="0.856" stroke-linecap="round" stroke-linejoin="round"/>
<path d="M119.883 101.478L121.381 103.49L124.121 108.112L124.677 110.509L123.949 110.851L123.265 111.665L122.965 112.563L122.751 115.602L122.794 116.501L123.393 118.341L123.436 119.197L123.265 120.011L122.751 121.252L122.665 121.68L122.58 123.135L122.366 123.563L122.237 124.291L122.451 125.532L123.607 126.388L124.506 127.458L125.105 128.699L126.346 128.528L127.245 127.501L128.015 126.302L129.856 124.291L134.093 120.995L136.618 120.439L137.56 121.081L138.031 122.193L139.143 122.407L141.754 121.209L143.081 120.952L144.451 121.166L145.264 120.61L145.093 119.155L146.248 118.684L147.532 118.769L148.645 119.197L148.945 119.925L149.159 122.835L149.758 123.007L150.999 122.621L152.968 124.291L153.011 127.201L152.54 128.485L153.31 129.298L155.835 130.24L156.905 130.967L156.82 132.209L155.964 133.321L154.808 134.092L153.653 135.033L152.711 136.189L151.513 136.959L150.657 137.944L152.283 140.041L154.808 141.154L157.462 141.453L162.726 141.368L164.438 142.566L165.123 148.344L165.08 149.671L164.139 150.441L163.026 150.527L162.255 151.126L162.983 152.111L164.267 152.496L165.037 153.138L164.738 154.122L165.251 155.021L166.321 155.577L166.535 156.733L165.722 157.632L165.209 158.103L164.866 158.702L164.738 159.429L164.524 160.114L162.598 161.527L162.298 162.853L163.026 163.966L163.497 164.266L164.096 165.036L164.01 165.55L163.625 166.663L163.839 167.219L164.738 166.962L165.594 167.176L160.586 174.324L160.372 174.367L158.66 173.425L155.365 170.172L153.225 169.53L146.633 169.787L145.777 170.172L145.606 171.199L145.949 196.922L146.163 197.564L147.019 199.105L148.645 199.276L148.174 200.689L147.104 201.716L146.377 201.973L145.82 202.529L145.906 203.342L145.735 203.941L145.221 203.642L144.793 203.984L144.365 204.883L144.151 205.825L143.552 206.467L143.423 206.253L142.91 205.782L142.867 205.568L142.439 205.354L141.112 203.899L139.7 201.673L139.272 201.202L135.762 198.506L135.505 198.377L134.692 196.708L134.221 194.996L134.136 193.926L133.922 193.284L133.622 192.985L133.066 191.829L132.98 190.887L132.124 189.389L131.653 188.919L131.097 188.619L130.369 188.491L129.043 187.592L128.786 187.378L128.187 187.335L126.603 187.635L124.634 188.02L124.377 187.934L123.265 186.907L122.751 186.693L122.195 186.607L118.3 186.65L117.444 186.821L116.288 187.335L115.86 187.421H115.347L113.763 187.164L111.88 187.207L111.452 187.078L111.238 186.821L110.853 186.179L110.339 185.452L109.868 184.724L108.499 184.296L106.444 184.253L105.888 184.082L105.417 183.697L104.989 182.884L104.39 182.156L103.619 181.514L103.149 180.872L102.464 180.444L101.479 180.187L100.409 180.102L99.4678 179.802L99.0398 179.46L98.3978 178.818L97.5846 178.261L97.071 178.176L94.6742 178.304L91.293 177.748L90.7794 177.577L90.3514 177.277L90.0946 176.806L90.0518 175.651L89.8806 175.265L89.2814 174.623L88.6822 173.81L88.1258 173.425L86.2854 172.526L85.087 171.713L84.445 171.413L84.4022 171.199L83.5462 170.814L83.0754 170.686H82.5618L80.2506 171.413L78.667 172.355L77.2546 172.783L76.1418 172.869L75.1574 172.526L74.5154 171.841L74.4298 170.729L74.6438 169.659L74.601 168.717L74.173 167.989L73.1458 167.604L71.391 167.305L70.7918 167.091L70.2782 166.663L69.9786 166.192L69.8502 165.593L69.6362 162.896L69.5934 162.682L66.469 162.211L63.8582 162.554L62.7026 160.542L62.7454 157.846L63.0878 154.935L62.5314 152.496H61.2902L60.7338 152.153L60.1774 151.725L48.2362 137.516L47.209 136.66L44.7694 136.317L39.077 136.489L35.7814 137.131L35.867 136.446L35.7814 135.889L35.439 135.461L33.0422 132.936L32.5286 132.123L32.4858 131.438L33.2134 129.769L34.1122 128.399L34.2834 127.971V127.244L34.6258 126.687L35.3106 126.003L36.0382 125.746L36.7658 125.917L39.077 127.115L39.6334 127.03L40.147 126.345L40.4038 125.66L40.4466 123.777L40.7462 122.835L41.645 121.038L41.9446 120.053L41.9018 118.042L41.7306 117.015L41.431 116.287L40.9602 116.03L40.0186 115.816L39.6762 115.388L39.3338 114.19L39.1626 113.805L38.3066 112.949L38.0926 112.521L38.1354 111.879L38.9058 109.953L38.9486 108.883L38.221 105.673L37.8786 105.031L37.6218 104.389L37.4506 103.661V102.848L37.8358 101.435L37.5362 101.179L37.2366 101.136L37.4934 100.879L40.7462 101.264L43.9134 103.233L47.8938 105.073L49.777 105.287L59.5354 105.031L63.2162 104.517L66.8114 105.459L71.1342 108.326L73.4454 109.011L73.4882 109.91L72.2898 116.373L72.3326 117.742L72.247 118.384L71.9902 118.855L71.0914 119.797L71.0058 120.439L66.897 122.793L65.5274 125.104L65.3134 127.8L65.4418 129.17L65.9982 130.411L66.9398 131.139L67.6674 131.952L67.4534 134.605L66.9398 137.259L67.7958 138.029L70.1926 138.158L70.6634 137.216V135.761L71.0486 134.477L72.2898 134.049L76.4414 133.193L77.6398 132.765L78.667 132.037L79.5658 129.641L78.453 127.201L76.7838 124.975L76.5698 123.777L76.741 122.536L76.5698 119.797L77.169 117.4L78.2818 116.972L80.7642 117.314L83.161 116.159L85.6862 115.431L86.6278 114.703L85.8574 112.307L84.4022 110.466L86.1142 108.283L86.0286 106.828L85.6862 105.373L85.2582 104.303L84.2738 104.003L83.803 103.747L83.5034 103.105L83.0326 102.805H82.4334L79.6942 102.377L77.1262 101.307L74.9006 99.5949L75.457 97.2837L80.3362 95.1009L90.865 92.9609L93.4758 93.0037L95.573 94.2877L96.0438 97.0269L97.3278 99.3381L98.4834 100.066L99.0398 101.264L98.8258 104.046L98.8686 105.459L99.3394 106.743L100.281 107.085H103.833L106.187 106.657L112.351 104.046L113.592 103.704L114.833 103.575L115.732 102.848L116.117 102.291L117.016 101.264L117.529 100.836L118.771 100.793L119.883 101.478Z" fill="#84ADFF" stroke="white" stroke-width="0.856" stroke-linecap="round" stroke-linejoin="round"/>
<path d="M50.4629 245.837L52.9881 244.596L53.7157 246.137L54.0153 247.72L55.4705 247.549L56.7973 246.693L58.4665 246.65L59.6221 247.635L60.0501 248.534L60.3925 249.432L60.4781 250.032L60.6921 250.545L61.6765 250.588L62.9605 249.903L63.6881 250.117L64.4585 250.16L65.0577 249.903L65.6997 249.732L67.1549 249.604L67.7113 250.288L66.8981 254.996L66.2133 255.895L63.0033 258.249L61.2485 260.132L60.3497 262.486V263.599L60.8633 264.498L61.3341 264.84L62.4897 265.226L63.0889 265.311L64.9293 265.397L66.4701 264.412L67.0265 263.599L67.9253 263.171L68.5673 264.113V266.638L68.9097 268.307L68.8241 268.821L68.3961 269.249L67.8397 269.42L66.0421 270.747L64.8865 270.918L64.2873 271.132L64.9293 271.86H65.9993L67.9681 272.716L68.0109 273.7L67.4545 274.342L65.3145 274.171L65.2717 274.214L62.1473 272.844L59.8789 272.416L60.0501 271.346L60.0073 270.404L59.0229 270.062L56.9685 269.976L56.1553 270.19L55.5561 269.805L55.0425 269.334L54.0581 269.078L53.2449 268.564L53.1593 267.665L55.2137 266.552L55.5561 265.782L55.1709 265.054L54.1437 264.669L52.9881 264.926L51.9181 265.654L50.8481 266.21L49.8209 265.397L49.7781 264.926L49.4357 264.07L49.7353 263.171L50.5913 262.486L50.9765 261.545L48.8793 260.988L28.0785 261.074L27.7361 261.416L27.6505 261.93L27.2225 262.529L26.5377 262.658L25.2537 262.615L24.4405 261.545L22.8141 260.689L21.9581 260.432L20.8453 260.903L20.6313 261.416L20.1177 263.257L19.5613 263.856L19.0477 264.584L18.6625 266.338L18.1489 266.938L16.0517 267.194L8.26209 266.852L7.87689 267.066L7.91969 267.58L7.23489 268.35L6.29329 268.992L5.39449 269.035L4.45289 268.735L3.25449 268.864L1.84209 268.735L1.97049 268.008L2.78369 265.696L2.82649 264.969L2.52689 263.428V262.7L2.95489 261.93L3.59689 261.374L4.02489 261.074L4.23889 260.646L4.11049 259.02L4.06769 258.634L3.85369 258.463L3.04049 258.335L2.44129 257.736L2.27009 257.051L2.35569 256.28L2.74089 254.782L2.56969 253.242L2.09889 251.872L1.97049 250.588L2.91209 249.304L4.15329 248.748L4.28169 248.362L4.06769 248.02L3.12609 247.25L2.82649 246.864L2.74089 246.18L3.21169 245.238L3.51129 244.853L3.63969 244.04L2.91209 235.18L2.99769 234.795L3.25449 234.624H3.63969L4.41009 234.795L4.62409 234.196L4.70969 232.698L3.93929 231.371L2.86929 230.13L2.18449 228.803L1.97049 227.39L2.39849 221.356L2.31289 220.842L1.97049 220.328L1.15729 219.344L0.729288 218.317L0.429688 217.76L0.686487 217.632L3.72529 215.449L7.19209 215.535L8.09089 217.247L8.26209 221.227L8.90409 223.196L9.88849 223.367L10.2309 221.527L10.7445 219.943L12.1141 219.9L12.3281 223.068L11.0013 226.706L11.0441 227.476L11.7289 229.316L13.2269 230.558L14.3825 232.098L16.0089 235.009L18.4913 237.277L20.4601 237.962L22.4289 237.876L23.8841 236.635L25.2965 233.083L26.7945 232.098L28.0785 233.083L28.7205 234.838L29.7477 235.394L30.7749 234.838L31.8449 234.367L35.3973 234.452L36.6385 236.207L36.5957 238.219L36.6813 238.818L37.7513 239.588L38.7785 240.145L38.9925 240.787V241.472L39.0781 242.028L39.3349 242.542L39.7629 244.682L38.4361 246.522L37.4517 248.148L39.5917 248.234L44.0001 247.72L46.1829 247.121L47.1673 246.479L48.3229 246.094L49.3929 246.008L50.4629 245.837Z" fill="#FAA7E0" stroke="white" stroke-width="0.856" stroke-linecap="round" stroke-linejoin="round"/>
<path d="M119.926 229.281L119.284 230.351L118.471 231.335L118.043 231.549L117.058 231.763L116.587 232.191L116.245 233.432L117.315 234.117L117.486 234.759L117.101 235.529L117.229 236.642L117.443 237.156L117.572 237.969L117.229 239.125L116.759 239.638L116.159 240.023L115.303 240.794L114.533 241.693L114.49 242.163L114.576 242.506L112.949 246.272L112.735 247.128L112.265 247.77L111.323 248.755L110.852 250.039L110.767 251.323L111.28 252.393L111.409 252.821L110.938 253.463L110.981 254.019L110.167 254.233L109.825 255.132L109.397 257.4L109.226 257.914L108.712 258.77L108.327 259.027L107.728 259.241L106.615 258.984L106.144 258.556L105.117 258.47L103.362 259.883L102.592 260.011L101.65 257.657L101.993 256.63L102.592 255.731L100.965 254.447H90.9929L90.3937 254.704L89.9657 255.175V256.116L89.4093 256.887L88.9385 257.828L87.6545 259.069L86.5845 260.439L86.1565 261.209L86.0281 262.365L85.8997 262.879V263.991L86.0709 264.291L86.3705 264.419L86.9697 265.404L87.6117 267.287L86.7985 269.17L86.1993 270.069L85.9425 271.139L85.4289 272.038L84.5301 272.509L83.7597 272.765L83.2461 273.536L83.0749 274.563L82.5613 275.547L82.7753 275.89L83.5029 276.318L84.3589 277.045L85.0865 277.944L85.1721 278.415L85.9425 278.543L86.7557 279.014L87.4405 280.041L87.3977 281.197L83.4173 290.913L79.2657 285.477L78.5381 284.792L77.1257 284.193L76.4837 283.465L75.5849 282.053L74.3437 280.726L73.2309 279.87L69.3789 277.431L67.1961 275.376L65.8265 274.477L65.2701 274.221L65.3129 274.178L67.4529 274.349L68.0093 273.707L67.9665 272.723L65.9977 271.867H64.9277L64.2857 271.139L64.8849 270.925L66.0405 270.754L67.8381 269.427L68.3945 269.256L68.8225 268.828L68.9081 268.314L68.5657 266.645V264.12L67.9237 263.178L67.0249 263.606L66.4685 264.419L64.9277 265.404L63.0873 265.318L62.4881 265.233L61.3325 264.847L60.8617 264.505L60.3481 263.606V262.493L61.2469 260.139L63.0017 258.256L66.2117 255.902L66.8965 255.003L67.7097 250.295L69.0793 249.568L69.6357 248.797L69.8925 247.856L70.8769 246.229L72.3749 244.988L73.7873 244.603L75.1141 245.159L76.9117 246.315L77.3397 246.529L78.2813 246.615L78.6665 246.358L78.7521 245.545L78.6665 244.731L78.7949 243.79L78.7521 241.093L79.0517 239.381L79.6937 237.669L81.2345 236.899L82.9893 236.385L83.0321 234.973L85.5145 234.16L86.8413 234.117L90.7361 234.374L93.2613 234.245L95.1017 234.802L95.9577 236.514L96.7281 239.039L98.6969 239.809L102.463 236.642L104.432 232.063L105.031 228.639L105.502 227.611L107.086 225.942L107.985 225.386L108.455 224.787L108.798 224.145L109.697 223.631L110.681 224.059L111.58 223.717L112.222 222.689L115.089 222.176L116.159 222.647L115.903 224.059L117.7 226.841L119.926 229.281Z" fill="#CEE5C8" stroke="white" stroke-width="0.856" stroke-linecap="round" stroke-linejoin="round"/>
<path d="M112.224 222.686L111.582 223.713L110.683 224.056L109.698 223.628L108.8 224.141L108.457 224.783L107.986 225.382L107.088 225.939L105.504 227.608L105.033 228.635L104.434 232.059L102.465 236.639L98.6987 239.806L96.7299 239.036L95.9595 236.51L95.1035 234.798L93.2631 234.242L90.7379 234.37L86.8431 234.114L85.5163 234.156L83.0339 234.97L80.2091 227.308L79.9951 225.468L80.3803 223.884L80.6799 219.562L82.3491 217.379L83.6759 216.737L84.7887 215.752L85.6019 212.799L86.0299 213.056L86.2011 213.698L86.9287 213.998L89.1543 213.313L91.5083 214.811L92.9207 214.896L93.8195 215.11L95.3175 214.854H95.9167L96.3447 213.998L96.5587 212.842L97.3291 211.943L98.5703 211.558L102.422 211.43L101.695 212.414L101.738 213.955L102.422 214.212L103.407 213.612L104.691 213.313L105.975 213.184L106.66 213.27L107.173 213.655L107.13 214.468L106.317 214.939L105.29 216.223L105.033 217.764L105.547 219.305L106.745 220.375L107.216 220.332L107.815 220.846L110.597 222.215L112.224 222.686Z" fill="#FAA7E0" stroke="white" stroke-width="0.856" stroke-linecap="round" stroke-linejoin="round"/>
<path d="M85.601 212.798L84.7878 215.751L83.675 216.735L82.3482 217.377L80.679 219.56L80.3794 223.883L79.9942 225.466L80.2082 227.307L83.033 234.968L82.9902 236.38L81.2354 236.894L79.6946 237.664L79.0526 239.376L78.753 241.088L78.7958 243.785L78.6674 244.726L78.753 245.54L78.6674 246.353L78.2822 246.61L77.3406 246.524L76.9126 246.31L75.115 245.154L73.7882 244.598L72.3758 244.983L70.8778 246.224L69.8934 247.851L69.6366 248.792L69.0802 249.563L67.7106 250.29L67.1542 249.606L65.699 249.734L65.057 249.905L64.4578 250.162L63.6874 250.119L62.9598 249.905L61.6758 250.59L60.6914 250.547L60.4774 250.034L60.3918 249.434L60.0494 248.536L59.6214 247.637L58.4658 246.652L56.7966 246.695L55.4698 247.551L54.0146 247.722L53.715 246.139L52.9874 244.598L50.4622 245.839L52.9018 232.828L52.6878 231.801L52.003 230.988L51.4466 229.832L50.6334 228.848L49.649 228.206L48.9214 227.392L48.9642 226.365L49.5634 225.466L49.9058 224.439L50.077 223.369L50.2054 221.015L50.8046 219.389L53.2014 220.031L55.0418 218.704L54.999 217.934L55.6838 217.292L56.3258 216.35L57.0962 215.58L58.209 216.008L59.1934 216.864L60.5202 219.004L61.9326 219.303L62.703 218.533L63.7302 217.805L64.1582 217.249L64.5006 217.12L65.0998 216.607L65.7846 216.222L66.4266 215.965L67.197 215.836L67.6678 215.152L67.7534 213.91L67.4966 212.712L69.8078 212.584L72.119 212.798L74.1306 212.37L75.0294 211.984L76.0138 211.77L78.325 211.556L79.7374 211L81.2354 211.043L81.963 212.284L83.033 212.969L85.0874 212.712L85.601 212.798Z" fill="#FAA7E0" stroke="white" stroke-width="0.856" stroke-linecap="round" stroke-linejoin="round"/>
<path d="M67.4973 212.716L67.7541 213.915L67.6685 215.156L67.1977 215.841L66.4273 215.969L65.7853 216.226L65.1005 216.611L64.5013 217.125L64.1589 217.253L63.7309 217.81L62.7037 218.537L61.9333 219.308L60.5209 219.008L59.1941 216.868L58.2097 216.012L57.0969 215.584L56.3265 216.354L55.6845 217.296L54.9997 217.938L55.0425 218.708L53.2021 220.035L50.8053 219.393L50.2061 221.02L50.0777 223.374L49.9065 224.444L49.5641 225.471L48.9649 226.37L48.9221 227.397L49.6497 228.21L50.6341 228.852L51.4473 229.836L52.0037 230.992L52.6885 231.805L52.9025 232.832L50.4629 245.844L49.3929 246.015L48.3229 246.1L47.1673 246.486L46.1829 247.128L44.0001 247.727L39.5917 248.24L37.4517 248.155L38.4361 246.528L39.7629 244.688L39.3349 242.548L39.0781 242.034L38.9925 241.478V240.793L38.7785 240.151L37.7513 239.595L36.6813 238.824L36.5957 238.225L36.6385 236.214L35.3973 234.459L31.8449 234.373L30.7749 234.844L29.7477 235.4L28.7205 234.844L28.0785 233.089L26.7945 232.105L25.2965 233.089L23.8841 236.642L22.4289 237.883L20.4601 237.968L18.4913 237.284L16.0089 235.015L14.3825 232.105L13.2269 230.564L11.7289 229.323L11.0441 227.482L11.0013 226.712L12.3281 223.074L12.1141 219.907L10.7445 219.95L10.2309 221.533L9.88849 223.374L8.90409 223.202L8.26209 221.234L8.09089 217.253L7.19209 215.541L3.72529 215.456L0.686488 217.638L0.429688 217.767L0.472488 217.339L0.986088 216.312L1.11449 214.043L1.54249 211.775L1.62809 209.635L1.75649 208.95L2.01329 208.351L2.39849 207.752L2.65529 207.067L2.69809 206.296L2.44129 205.526L1.75649 204.028L1.45689 203.258L1.32849 202.359L1.37129 201.674L1.67089 200.219L1.58529 198.892L1.75649 198.421L2.48409 197.608L2.74089 197.18L3.04049 195.982L2.95489 194.912L5.05209 193.114L6.42169 193.157L9.24649 192.515L10.1025 191.958L10.7445 191.145L12.7133 189.562L13.5265 189.219L13.7833 188.877L14.3397 188.406L15.0673 187.978L16.5225 186.694L17.2929 186.223L18.1061 185.966L18.6625 185.924L19.2617 186.052L19.5185 186.437L19.9465 186.651L20.3317 187.079L20.8025 186.994L24.9969 185.068L26.5805 183.869L28.0357 183.142L29.5765 181.986L36.8953 178.305L37.7085 177.706L38.3933 176.936L38.7357 174.582L39.6345 172.827L41.2181 171.671L42.9301 171.5L44.5565 172.228L45.5837 173.554L46.3969 175.138L47.7665 176.336L49.3501 177.15L53.5445 178.648L56.1553 179.247H57.1397L58.8945 178.177L59.4937 179.546L58.2953 181.301L57.0969 181.986L56.2409 182.885L55.6417 183.826L54.8713 184.597L54.4005 186.78L54.8713 188.962L58.0385 195.982L59.2797 197.908L60.5209 202.744L61.8049 204.627L62.6181 205.355L63.5597 205.954L64.8437 208.051L65.8709 211.475L66.2989 212.203L66.8981 212.331L67.4973 212.716Z" fill="#FAA7E0" stroke="white" stroke-width="0.856" stroke-linecap="round" stroke-linejoin="round"/>
<path d="M167.475 284.964L165.078 286.248L163.409 288.345L161.954 288.687L160.499 289.158L157.246 288.473L155.619 288.644L154.036 289.03L152.666 289.843L152.195 291.384L150.826 294.251L149.413 294.636L147.873 293.994L145.091 294.765L142.737 296.691L141.538 296.605L140.468 295.621L140.597 294.123L140.853 293.138L141.196 292.24L141.881 290.998L143.293 289.115L143.507 288.473L143.464 287.532L143.935 285.691L143.807 283.808L143.978 282.995L144.663 282.438L145.519 282.096L145.733 281.796L145.904 281.326L145.989 279.742L145.947 279.228L145.775 278.758L145.305 277.859L145.133 277.345L145.005 275.976L144.363 274.221L144.149 272.252L143.165 268.742L142.993 267.672V266.56L143.336 266.474L144.106 266.517L145.048 266.731L145.947 266.56L147.145 265.404L147.915 261.894L148.771 260.182L151.168 257.914L151.468 258.898L151.425 260.054L151.896 260.268L153.822 260.182L155.876 261.081L156.989 261.295L158.102 261.766L157.931 264.206L155.962 266.346L154.977 269.042L155.32 269.941L155.833 270.198L157.032 270.412L157.545 270.711L158.273 271.696L159.728 274.991L159.257 275.419V276.104L159.043 277.174L159.343 277.602L159.899 277.474L160.413 277.088L160.969 277.474L161.141 278.33L161.997 278.972L161.783 280.213L162.211 281.24L162.81 282.224L163.195 283.337L163.965 284.236L164.95 284.407L165.891 284.108L166.277 284.15L166.919 284.536L167.09 284.921L167.475 284.964Z" fill="#7CD4FD" stroke="white" stroke-width="0.856" stroke-linecap="round" stroke-linejoin="round"/>
<path d="M297.418 94.85L296.691 95.3636L296.134 96.1768L295.278 97.1184L291.94 99.0444L290.228 101.398L289.072 102.297L286.376 103.11L285.306 104.052L284.236 106.748L282.995 111.028L282.481 112.355L280.598 115.009L280.512 115.993L284.321 117.662L285.434 120.145L285.819 123.012L288.345 124.211L290.613 125.623L291.383 127.806L291.298 132.856L291.426 133.926L291.341 134.996L287.275 137.051L287.061 138.249L288.559 140.346L295.92 145.825L296.947 148.222L297.204 150.533L297.803 152.801L298.788 154.856L299.601 155.883L299.344 156.739H296.905L294.422 156.14L292.068 156.525L287.703 158.622L283.166 158.75L281.283 159.992L280.17 159.521L274.221 155.797L256.758 147.665L255.645 147.922L255.132 148.264L254.661 149.078L256.073 151.046L256.544 152.33L256.202 153.529L253.848 154.428L252.949 155.198L251.879 157.424L250.638 157.937L249.225 158.237L243.619 158.536L238.568 157.595L236.385 156.867L235.144 154.727L233.561 152.844L232.277 152.459L231.421 151.56L231.592 150.447L232.063 149.42L232.662 148.436L232.961 147.366L232.79 144.412L232.02 141.93L229.751 141.117L225.643 141.844L224.316 140.946L224.359 135.168L224.187 133.37L223.46 131.401L222.219 129.818L220.121 129.261L218.067 129.646L217.297 128.748L216.483 127.977L215.413 127.378L214.9 126.436L216.141 124.254L216.526 121.9L218.153 120.102L219.137 117.705L218.88 115.223L217.254 113.297L216.269 110.515L216.141 107.476L216.355 104.737L217.468 102.468L219.565 102.34L220.849 101.741L221.833 100.714L223.203 98.6164L226.841 94.8072L229.238 93.6944L230.393 94.3364L231.035 94.208L233.732 93.0952L235.915 93.138L238.012 93.7372L240.237 94.6788L242.506 94.8072L244.731 94.4648L246.144 96.2624L247.941 96.9044L252.521 96.562L254.575 96.0484L256.116 97.5036L256.929 99.6864V102.04L256.63 104.352L257.443 106.363L259.497 107.219L265.104 106.791L266.345 107.433L267.715 107.947L268.699 107.348L268.271 106.021L269.042 103.581L272.979 102.04L274.178 101.27L275.034 100.286L275.205 99.0872L272.637 98.2312L269.598 98.1028L263.949 97.0328L261.338 96.0056L257.914 91.426L256.459 88.8152L255.817 89.0292H254.661L253.976 88.0448L254.105 86.8464L255.303 84.6208L255.26 83.3796L254.704 80.7688L254.147 79.5704L252.949 79.2708L251.665 79.442L249.482 80.0412L247.984 79.014L248.712 76.3176L250.638 74.6056L253.634 74.3488L254.832 73.7924L255.988 73.022L266.859 68.8704L267.415 67.6292L267.116 66.1312L267.33 64.9328L269.898 57.6996L270.24 56.0732L270.754 54.4896L271.567 53.7192L272.68 53.2912L275.333 52.8204L276.446 53.548L278.329 54.0188L283.037 50.8516L285.434 52.5208L287.489 54.5324L287.959 55.902L288.516 58.7696L288.559 60.2248L288.73 61.5088L289.457 62.6644L290.185 64.0768L290.399 65.6604L290.442 68.1856L291.512 74.0064L295.792 84.6208L296.006 87.7024L294.765 93.352L295.706 94.5504L297.418 94.85Z" fill="#A48AFB" stroke="white" stroke-width="0.856" stroke-linecap="round" stroke-linejoin="round"/>
<path d="M321.856 120.27L322.327 123.394L319.673 127.717L319.588 129.3L320.358 130.884L321.471 132.254L322.798 133.195L324.338 133.794L325.665 134.65L328.062 138.545L330.587 140.172L330.202 143.296L330.416 148.09L329.86 149.588L328.533 150.658L321.942 154.638L318.903 156.008L315.65 156.521L303.152 157.035L299.343 156.735L299.6 155.879L298.787 154.852L297.802 152.798L297.203 150.529L296.946 148.218L295.919 145.821L288.558 140.343L287.06 138.246L287.274 137.047L291.34 134.993L291.425 133.923L291.297 132.853L291.382 127.802L290.612 125.62L288.344 124.207L285.818 123.009L285.433 120.141L284.32 117.659L280.511 115.99L280.597 115.005L282.48 112.352L282.994 111.025L284.235 106.745L285.305 104.048L286.375 103.107L289.071 102.294L290.227 101.395L291.939 99.0407L295.277 97.1147L296.133 96.1731L296.69 95.3599L297.417 94.8463L302.382 93.5195L307.261 95.9163L309.53 97.7139L311.498 99.8111L313.21 102.165L316.934 105.932L317.704 106.916L317.918 108.157L317.49 116.46L317.704 119.071L318.047 120.141L320.529 120.398L321.856 120.27Z" fill="#A48AFB" stroke="white" stroke-width="0.856" stroke-linecap="round" stroke-linejoin="round"/>
<path d="M140.469 295.616L139.57 299.768L138.843 301.394L138.543 303.149L138.115 304.005L137.43 304.732L136.574 305.118L135.847 305.888L136.489 307.472L136.531 308.242L135.975 308.542L131.353 309.269L130.796 309.44L130.111 309.954L129.512 310.596L129.341 310.938L129.255 311.88L129.17 312.094L128.528 312.265L127.03 312.222L126.388 312.479L126.088 313.335L126.174 313.72L126.516 314.277L126.559 314.576L126.388 314.962L126.003 315.176L125.104 315.432L124.376 316.074L123.905 316.16L122.621 315.903L122.322 316.032L121.295 317.444L120.695 317.786L119.754 317.658L119.026 317.316L118.256 316.888L117.057 315.818L116.587 316.032L115.431 317.701L114.447 318.214L113.334 318.428L112.692 318.3L112.007 318.514L111.365 318.814L110.68 319.028L109.482 319.884L108.198 320.568L107.641 320.526L106.999 320.611L106.143 320.483L105.459 319.969L103.661 318.985L102.035 318.428L100.665 317.53L99.6805 316.716L99.5093 316.16L100.237 316.246L100.965 316.417L100.708 315.989L99.7233 314.919L99.3809 314.705L99.2525 314.876V315.518L99.1241 315.646L98.5677 315.732L98.0113 315.903L97.5833 315.689L96.7273 315.86L96.3421 315.646L96.2565 315.39L96.3421 314.063L96.1709 312.436L95.4433 309.226L95.6145 308.756L96.4705 308.542L98.8245 308.499L99.5093 308.328L99.6805 308.884L99.9801 309.312L100.28 309.098L100.537 308.542L100.922 308.156L102.163 307.686L102.762 307.6H103.319L103.618 307.386L102.762 306.658L102.42 306.102L102.249 305.032L102.334 304.476L102.548 304.048L103.019 303.748L103.575 303.62L104.731 303.662L105.159 303.448L105.587 302.978L106.101 302.164L105.544 302.421L105.031 302.849L104.56 303.106L103.875 302.935L103.404 303.448L102.591 303.234L101.735 303.662L101.221 304.476L101.435 305.374L101.05 306.273L100.579 306.787L99.9801 306.915L99.2525 306.616L98.8245 305.974L98.3965 305.888L98.2253 306.102L98.3109 306.573L98.7817 307.343L96.6845 307.258L92.7041 305.888L92.2333 305.118L91.0777 304.09L90.3501 303.577L90.0933 302.806L90.0077 302.036L90.1361 301.694L90.3501 301.565L90.9493 300.923L91.5057 300.666L95.0153 300.795L96.2993 301.052L97.0697 301.437H97.2837L97.6689 300.966L98.2253 299.682L98.5249 299.254L98.9957 299.04L99.5521 299.083L100.066 299.211L100.451 299.511L100.836 300.709L101.393 300.581L101.435 299.982L101.179 299.425L100.579 298.826L99.8517 298.312L99.2525 298.013L98.5677 298.056L98.2253 298.398L97.7973 299.511L97.4121 299.853L96.8129 300.11L96.1709 300.281L95.6145 300.238L94.9297 299.853L94.6301 299.34V298.74L95.3149 296.772L95.4005 296.258L95.3149 295.573H95.1009L94.1593 298.27L93.7741 298.954L93.3033 299.425L92.6613 299.682L91.8481 299.725L91.4629 299.853L90.6069 300.324L89.7081 300.666L89.0233 300.238L88.4669 299.725L87.9105 299.04L87.4825 298.312L87.1401 297.285L86.4553 296.13L86.3269 295.316L86.4125 294.589L86.6265 293.776L86.9689 293.134L87.3969 292.834L87.8249 293.005L88.5525 293.562L88.8093 293.647L88.9805 293.39L88.7665 292.706L88.8093 292.363L89.9221 291.379L92.8325 290.309L93.6457 288.939L92.9181 289.068L91.6769 290.18L90.3073 290.608L87.5681 292.021L87.0545 292.406L85.2569 294.075L84.9145 294.032L83.5877 291.122L83.4165 290.908L87.3969 281.192L89.9221 282.391L91.5913 284.317L91.2489 286.714L91.5485 288.554L92.2761 289.11L92.8753 288.854L94.9297 287.056L94.7585 285.9L95.1009 285.002L97.4121 285.13L98.4821 284.959L99.8089 285.044L101.179 286.029L102.206 286.371L102.548 286.072L102.762 285.601L104.731 284.36L106.914 284.274L111.065 286.542L113.034 288.682L114.233 289.324L115.217 290.095L115.046 291.379L114.318 292.663L114.447 293.048L114.875 293.39L115.046 293.818L114.917 294.246L114.96 294.803L115.559 295.017L116.201 294.974L119.668 294.246L121.509 292.92L122.964 291.208L124.933 289.71L126.431 287.998L126.859 286.628L126.816 285.216L126.345 284.83L125.703 284.659L123.563 282.69L122.493 280.893L122.065 279.48L121.937 278.282L120.781 276.27L120.909 274.986L121.423 273.959L122.236 273.189L123.477 273.317L124.376 274.259L125.104 275.414H126.088L127.543 273.574L128.485 272.975L131.866 271.562L136.189 268.952L138.372 268.053L139.613 268.01L140.897 268.224L141.881 267.882L142.994 266.555V267.668L143.165 268.738L144.15 272.247L144.364 274.216L145.006 275.971L145.134 277.34L145.305 277.854L145.776 278.753L145.947 279.224L145.99 279.737L145.905 281.321L145.733 281.792L145.519 282.091L144.663 282.434L143.979 282.99L143.807 283.803L143.936 285.686L143.465 287.527L143.508 288.468L143.294 289.11L141.881 290.994L141.197 292.235L140.854 293.134L140.597 294.118L140.469 295.616Z" fill="#CEE5C8" stroke="white" stroke-width="0.856" stroke-linecap="round" stroke-linejoin="round"/>
<path d="M142.996 266.556L141.883 267.883L140.898 268.225L139.614 268.011L138.373 268.054L136.19 268.953L131.868 271.564L128.486 272.976L127.545 273.575L126.09 275.416H125.105L124.378 274.26L123.479 273.319L122.238 273.19L121.424 273.961L120.911 274.988L120.782 276.272L121.938 278.283L122.066 279.482L122.494 280.894L123.564 282.692L125.704 284.661L126.346 284.832L126.817 285.217L126.86 286.629L126.432 287.999L124.934 289.711L122.965 291.209L121.51 292.921L119.67 294.248L116.203 294.975L115.561 295.018L114.962 294.804L114.919 294.248L115.047 293.82L114.876 293.392L114.448 293.049L114.32 292.664L115.047 291.38L115.218 290.096L114.234 289.326L113.036 288.684L111.067 286.544L106.915 284.275L104.732 284.361L102.764 285.602L102.55 286.073L102.207 286.373L101.18 286.03L99.8104 285.046L98.4836 284.96L97.4136 285.131L95.1024 285.003L94.76 285.902L94.9312 287.057L92.8768 288.855L92.2776 289.112L91.55 288.555L91.2504 286.715L91.5928 284.318L89.9236 282.392L87.3984 281.194L87.4412 280.038L86.7564 279.011L85.9432 278.54L85.1728 278.412L85.0872 277.941L84.3596 277.042L83.5036 276.315L82.776 275.887L82.562 275.544L83.0756 274.56L83.2468 273.533L83.7604 272.762L84.5308 272.505L85.4296 272.035L85.9432 271.136L86.2 270.066L86.7992 269.167L87.6124 267.284L86.9704 265.401L86.3712 264.416L86.0716 264.288L85.9004 263.988V262.875L86.0288 262.362L86.1572 261.206L86.5852 260.436L87.6552 259.066L88.9392 257.825L89.41 256.883L89.9664 256.113V255.171L90.3944 254.701L90.9936 254.444H100.966L102.592 255.728L101.993 256.627L101.651 257.654L102.592 260.008L103.363 259.879L105.118 258.467L106.145 258.553L106.616 258.981L107.728 259.237L108.328 259.023L108.713 258.767L109.226 257.911L109.398 257.397L109.826 255.129L110.168 254.23L110.981 254.016L110.938 253.459L111.409 252.817L111.281 252.389L110.767 251.319L110.853 250.035L111.324 248.751L112.265 247.767L112.736 247.125L112.95 246.269L114.576 242.503L114.491 242.16L114.534 241.689L115.304 240.791L116.16 240.02L116.759 239.635L117.23 239.121L117.572 237.966L117.444 237.153L117.23 236.639L117.102 235.526L117.487 234.756L117.316 234.114L116.246 233.429L116.588 232.188L117.059 231.76L118.043 231.546L118.471 231.332L119.284 230.347L119.926 229.277L120.526 229.577L121.253 229.449L121.852 229.834L121.724 230.519L122.88 230.904L123.136 231.717L122.751 233.301L123.65 234.542L125.276 234.499L126.903 233.814L127.63 233.386L128.315 233.215L128.7 233.857L129.214 234.285L130.412 235.098L131.397 236.254L132.253 236.297L133.58 235.954L134.307 236.04L135.206 236.853L136.019 238.865L136.49 239.507L136.661 240.191L137.132 240.876L138.887 240.534L140.342 239.935L141.284 239.849L141.84 240.277L142.225 240.748L142.311 241.39L142.782 241.647L143.723 241.946L143.809 242.246L144.365 243.487L144.536 244.514L144.365 245.156L143.937 246.483L143.766 248.366L143.466 249.179L143.424 249.565L143.466 251.148L143.381 251.448L142.439 253.459L142.054 254.872L142.011 255.471L142.225 257.354L142.097 261.934L142.225 263.475L142.953 265.486L142.996 266.556Z" fill="#CEE5C8" stroke="white" stroke-width="0.856" stroke-linecap="round" stroke-linejoin="round"/>
<path d="M172.099 247.167L172.442 248.622L173.811 251.49L174.796 252.731L175.994 253.844L177.321 254.828L178.69 255.47L180.103 255.299L181.173 254.486L182.457 254.144L183.912 254.871L184.811 256.326L185.196 258.038V259.793L183.998 263.132L181.601 263.388L180.402 263.26L179.29 263.988L180.702 268.567L180.659 271.092L179.118 275.886L179.76 276.828L179.803 277.298L180.188 278.796L180.274 279.909L180.531 281.022L180.616 282.092L179.889 283.162L179.033 284.146L178.776 285.944L179.204 287.784L178.22 288.298L176.978 287.1L176.208 286.586L175.309 286.115L173.512 286.672L171.2 284.917L169.488 285.002L167.776 285.259L167.477 284.96L167.092 284.917L166.92 284.532L166.278 284.146L165.893 284.104L164.952 284.403L163.967 284.232L163.197 283.333L162.812 282.22L162.212 281.236L161.784 280.209L161.998 278.968L161.142 278.326L160.971 277.47L160.415 277.084L159.901 277.47L159.345 277.598L159.045 277.17L159.259 276.1V275.415L159.73 274.987L158.275 271.692L157.547 270.707L157.034 270.408L155.835 270.194L155.322 269.937L154.979 269.038L155.964 266.342L157.932 264.202L158.104 261.762L156.991 261.291L155.878 261.077L153.824 260.178L151.898 260.264L151.427 260.05L151.47 258.894L151.17 257.91L152.112 255.984L153.31 255.214L153.567 256.369L153.824 256.583L154.38 257.396L155.279 257.824L156.82 256.583L158.189 254.957L161.142 252.86L162.94 251.233L164.952 248.537L165.636 247.938L166.749 247.552L167.862 246.654L169.189 245.969L170.901 246.097L172.099 247.167Z" fill="#7CD4FD" stroke="white" stroke-width="0.856" stroke-linecap="round" stroke-linejoin="round"/>
<path d="M200.52 261.507L201.034 263.476L202.403 265.059L203.345 265.744L203.602 266.087L203.73 266.472L204.329 267.157L204.5 268.269L204.886 269.254L205.613 270.195L205.742 271.351L203.516 272.592L203.259 273.791L203.944 274.861L203.644 277.3L201.633 279.312L200.82 280.382L200.135 281.452L199.493 284.148L198.894 285.09L197.866 284.619H196.925L196.454 285.389L195.898 286.074L194.271 286.845L193.586 287.487L192.688 287.529L192.003 285.903L190.676 285.518L189.221 285.989L188.793 286.887L189.392 288L188.921 289.584L187.68 291.553L187.166 292.023L187.124 292.879L187.252 293.693L186.781 294.42L186.225 295.062L185.882 295.918L185.754 296.817L184.47 296.346L183.314 295.447L182.715 294.335L182.458 293.093L180.532 292.195L175.354 292.152L173.256 291.082L173.556 288.771L173.513 286.673L175.311 286.117L176.21 286.588L176.98 287.101L178.221 288.3L179.206 287.786L178.778 285.946L179.034 284.148L179.89 283.164L180.618 282.094L180.532 281.024L180.276 279.911L180.19 278.798L179.805 277.3L179.762 276.829L179.12 275.888L180.661 271.094L180.704 268.569L179.291 263.989L180.404 263.262L181.602 263.39L183.999 263.133L185.155 265.616L187.594 267.114L189.178 264.974L189.52 261.978L190.077 260.779L191.575 260.565H192.987L194.357 260.223L195.684 258.468L196.497 258.297H197.31L197.695 257.741L197.866 257.355L198.594 257.398L198.979 257.997L199.236 259.367L199.707 260.565L200.52 261.507Z" fill="#7CD4FD" stroke="white" stroke-width="0.856" stroke-linecap="round" stroke-linejoin="round"/>
<path d="M216.524 121.896L216.139 124.25L214.898 126.433L215.411 127.374L216.481 127.973L217.295 128.744L218.065 129.643L217.723 130.67L217.551 131.868L216.695 133.024L215.411 133.623L213.614 135.635L212.972 138.331L213.913 141.07L212.501 145.821V148.603L212.287 150.015L212.587 151.214L211.131 153.268V153.867L211.046 154.509L210.019 155.28V160.416L211.474 162.556L213.143 164.311L214.513 166.237L214.341 168.462L213.614 170.517L212.287 172.057L211.388 174.197L210.233 176.209L208.735 177.75L207.322 177.921L206.466 177.065L205.995 176.252L205.311 175.567L203.855 173.684L200.645 172.828L199.49 172.357L198.548 173.256L196.494 176.166L193.669 177.707L192.77 174.24L192.385 170.003L190.973 169.147L189.817 168.248L189.86 167.307L189.517 166.493L188.362 165.423L186.179 165.766L184.809 168.291L183.568 168.847L182.37 168.334L181.171 168.248L180.315 167.521L179.16 167.606L178.304 167.178L177.79 166.194L176.806 166.665L175.65 166.921L175.008 165.68L173.724 165.209L172.611 166.793L171.841 167.349L170.942 166.964L169.958 166.836L168.973 166.793L165.592 167.178L164.736 166.964L163.837 167.221L163.623 166.665L164.009 165.552L164.094 165.038L163.495 164.268L163.024 163.968L162.297 162.855L162.596 161.529L164.522 160.116L164.736 159.431L164.865 158.704L165.207 158.105L165.721 157.634L166.534 156.735L166.32 155.579L165.25 155.023L164.736 154.124L165.036 153.14L164.265 152.498L162.981 152.113L162.254 151.128L163.024 150.529L164.137 150.443L165.079 149.673L165.121 148.346L164.437 142.568L162.725 141.37L157.46 141.455L154.807 141.156L152.281 140.043L150.655 137.946L151.511 136.961L152.709 136.191L153.651 135.035L154.807 134.094L155.962 133.323L156.818 132.211L156.904 130.969L155.834 130.242L153.309 129.3L152.538 128.487L153.009 127.203L152.966 124.293L150.997 122.623L149.756 123.009L149.157 122.837L148.943 119.927L148.643 119.199L147.531 118.771L146.247 118.686L145.091 119.157L145.262 120.612L144.449 121.168L143.079 120.954L141.753 121.211L139.142 122.409L138.029 122.195L137.558 121.083L136.617 120.441L134.091 120.997L129.854 124.293L128.014 126.304L127.243 127.503L126.345 128.53L125.103 128.701L124.504 127.46L123.605 126.39L122.45 125.534L122.236 124.293L122.364 123.565L122.578 123.137L122.664 121.682L122.749 121.254L123.263 120.013L123.434 119.199L123.391 118.343L122.792 116.503L122.749 115.604L122.963 112.565L123.263 111.667L123.948 110.853L124.675 110.511L126.302 109.955L126.815 109.484L126.987 109.013L127.029 108.071L127.329 107.601L127.671 107.344L128.527 107.044L128.913 106.787L129.341 106.231L129.983 104.904L130.411 104.348L131.095 104.091L131.866 104.177L134.22 105.033L134.99 105.204H135.803L138.115 104.519H139.099L142.737 103.149L143.336 102.764L143.893 102.293L144.363 101.694L144.706 100.881L145.391 97.6281L145.776 96.5153L146.503 95.6165L149.029 94.0329L149.713 93.3053L150.313 92.2353L151.939 93.0485L152.795 93.2625L154.678 93.3053L155.449 93.8617L155.877 94.7177L155.748 95.4025L155.192 95.8305L154.207 96.9005L154.25 97.9277L156.861 98.6125L158.102 99.3829L159.985 101.309L161.141 101.48L162.339 100.838L163.195 99.8965L163.153 98.8265L162.553 97.9277L163.153 95.9589L165.849 96.0017L167.133 96.4725L168.117 95.9161L168.289 94.6321L168.888 93.4765L171.113 92.1497L173.724 92.6633L175.094 93.2625L176.335 94.1613L177.02 95.1029L178.047 95.5737L180.915 94.3753L182.156 92.4921L184.595 92.2781L188.79 89.1537L193.797 87.5273L195.039 88.1265L194.996 89.4961L194.354 90.6945L194.183 91.9785L194.91 93.1769L196.066 93.9473L198.548 94.8461L199.704 95.7877L200.603 96.9861L203.085 97.9277L205.781 98.6553L209.419 102.55L210.104 107.601L209.419 110.383L209.976 114.705L209.462 116.075L207.964 116.46L207.237 117.445L209.163 119.114L212.03 119.456L213.614 121.339L214.299 121.682L215.754 122.067L216.524 121.896Z" fill="#294620" stroke="white" stroke-width="0.856" stroke-linecap="round" stroke-linejoin="round"/>
<path d="M148.644 199.277L150.827 199.192L152.154 199.363L153.737 199.106L153.438 200.347L152.539 202.658L154.251 205.697L154.422 208.051L153.866 213.358L153.438 214.471L152.796 215.498L152.368 216.954L152.325 218.452L152.624 218.537L153.48 218.152L154.679 217.382L155.663 216.44L157.504 215.37L164.694 212.93L165.892 212.802L172.141 213.316L177.192 212.845L178.219 213.016L178.048 215.07L178.133 216.954L178.561 218.794L179.631 220.335L180.658 221.405L181.386 222.689L181.514 223.973L181.429 228.124L181.985 232.447L182.413 233.86L183.569 234.459L184.938 234.288L185.837 234.93L185.11 236.171L184.682 237.198L184.596 238.354L183.954 241.264L182.499 243.704L177.748 246.314L177.192 247.727L177.063 249.353L176.122 249.653L174.966 249.096L173.468 247.855L172.098 247.17L170.9 246.1L169.188 245.972L167.861 246.657L166.748 247.556L165.636 247.941L164.951 248.54L162.939 251.236L161.142 252.863L158.188 254.96L156.819 256.586L155.278 257.828L154.379 257.4L153.823 256.586L153.566 256.372L153.309 255.217L152.111 255.987L151.169 257.913L148.772 260.182L147.916 261.894L147.146 265.403L145.948 266.559L145.049 266.73L144.107 266.516L143.337 266.473L142.994 266.559L142.952 265.489L142.224 263.477L142.096 261.936L142.224 257.357L142.01 255.474L142.053 254.874L142.438 253.462L143.38 251.45L143.465 251.151L143.422 249.567L143.465 249.182L143.765 248.369L143.936 246.486L144.364 245.159L144.535 244.517L144.364 243.49L143.808 242.248L143.722 241.949L142.78 241.649L142.31 241.392L142.224 240.75L141.839 240.28L141.282 239.852L140.341 239.937L138.886 240.536L137.131 240.879L136.66 240.194L136.489 239.509L136.018 238.867L135.205 236.856L134.306 236.042L133.578 235.957L132.252 236.299L131.396 236.256L130.411 235.101L129.213 234.288L128.699 233.86L128.314 233.218L127.629 233.389L126.902 233.817L125.275 234.502L123.649 234.544L122.75 233.303L123.135 231.72L122.878 230.906L121.723 230.521L121.851 229.836L121.252 229.451L120.524 229.58L119.925 229.28L117.7 226.84L115.902 224.058L116.159 222.646L115.089 222.175L112.221 222.689L110.595 222.218L107.813 220.848L107.214 220.335L106.743 220.378L105.544 219.308L105.031 217.767L105.288 216.226L106.315 214.942L107.128 214.471L107.171 213.658L106.657 213.273L105.972 213.187L104.688 213.316L103.404 213.615L102.42 214.214L101.735 213.958L101.692 212.417L102.42 211.432L102.12 209.25L99.7664 207.794L98.3112 206.468L97.9688 205.783L97.3268 205.269L96.8132 204.627L95.7432 202.573L96.0428 201.374L100.109 196.281L101.692 194.826L103.105 195.382L104.902 197.18L108.455 198.507L111.964 199.32L116.886 199.577L120.824 200.476L122.022 200.219L122.75 199.363L123.092 198.293L123.649 194.569L125.104 189.604L126.602 187.636L128.186 187.336L128.785 187.379L129.042 187.593L130.368 188.492L131.096 188.62L131.652 188.92L132.123 189.39L132.979 190.888L133.065 191.83L133.621 192.986L133.921 193.285L134.135 193.927L134.22 194.997L134.691 196.709L135.504 198.378L135.761 198.507L139.271 201.203L139.699 201.674L141.111 203.9L142.438 205.355L142.866 205.569L142.909 205.783L143.422 206.254L143.551 206.468L144.15 205.826L144.364 204.884L144.792 203.985L145.22 203.643L145.734 203.942L145.905 203.343L145.819 202.53L146.376 201.974L147.103 201.717L148.173 200.69L148.644 199.277Z" fill="#84ADFF" stroke="white" stroke-width="0.856" stroke-linecap="round" stroke-linejoin="round"/>
<path d="M281.281 159.988L282.051 161.7L282.265 163.626L282.008 165.937L282.393 168.634L282.693 169.704L283.292 170.688L284.319 174.112V175.139L284.063 176.295L284.533 178.521L284.576 179.89L283.335 182.201L277.685 185.026L269.468 187.038L267.756 189.092L266.943 190.376L265.059 192.645L264.075 193.543L261.55 194.913L259.196 196.625L257.141 198.722L254.83 200.477L252.262 201.205L249.566 201.419L247.64 201.29L246.313 199.407L244.387 198.166L240.235 196.411L238.01 196.325L235.741 197.01L232.489 197.609L229.15 197.567L226.967 196.967L224.014 195.384L223.201 193.929L223.415 192.174L223.158 190.676L222.302 189.477L221.617 187.723L222.217 186.225L223.115 185.112L223.971 183.828L225.298 183.4L226.111 182.587L227.609 180.575L228.123 179.291L228.337 178.264L227.695 177.451L226.711 176.809L225.598 177.108L225.041 177.365L224.442 177.451L222.003 177.493L219.649 177.023L217.979 175.268L217.423 172.828L215.668 171.544L213.614 170.517L214.341 168.463L214.513 166.237L213.143 164.311L211.474 162.556L210.019 160.416V155.28L211.046 154.51L211.131 153.868V153.269L212.587 151.214L212.287 150.016L212.501 148.603V145.821L213.913 141.071L212.972 138.331L213.614 135.635L215.411 133.623L216.695 133.024L217.551 131.869L217.723 130.67L218.065 129.643L220.119 129.258L222.217 129.814L223.458 131.398L224.185 133.367L224.357 135.164L224.314 140.942L225.641 141.841L229.749 141.113L232.018 141.927L232.788 144.409L232.959 147.362L232.66 148.432L232.061 149.417L231.59 150.444L231.419 151.557L232.275 152.455L233.559 152.841L235.142 154.724L236.383 156.864L238.566 157.591L243.617 158.533L249.223 158.233L250.636 157.934L251.877 157.42L252.947 155.195L253.846 154.424L256.2 153.525L256.542 152.327L256.071 151.043L254.659 149.074L255.13 148.261L255.643 147.919L256.756 147.662L274.219 155.794L280.168 159.517L281.281 159.988Z" fill="#84ADFF" stroke="white" stroke-width="0.856" stroke-linecap="round" stroke-linejoin="round"/>
<path d="M213.614 170.515L215.669 171.542L217.424 172.826L217.98 175.266L219.649 177.021L222.003 177.491L224.443 177.449L225.042 177.363L225.598 177.106L226.711 176.807L227.696 177.449L228.338 178.262L228.124 179.289L227.61 180.573L226.112 182.585L225.299 183.398L223.972 183.826L223.116 185.11L222.217 186.223L221.618 187.721L222.303 189.475L223.159 190.674L223.416 192.172L223.202 193.927L224.015 195.382L226.968 196.965L229.151 197.565L232.489 197.607L235.742 197.008L238.01 196.323L240.236 196.409L244.388 198.164L246.314 199.405L247.64 201.288L246.656 202.829L245.201 203.771L244.216 203.813L243.189 203.685L242.119 203.343L241.135 203.171L240.279 202.743L238.524 202.144L237.668 202.529L237.069 203.3L236.684 204.241L236.555 205.354L238.438 207.751L238.567 209.591L238.481 210.233L238.738 210.875L238.866 211.86L238.139 212.502L232.96 215.969L231.762 216.996L224.956 211.945V212.117L223.672 212.245L219.778 212.117L217.167 211.517L209.976 209.121L205.311 209.677L203.3 211.346L202.743 213.871L203.556 216.482L205.226 220.163L205.482 221.447L205.012 222.003L204.327 221.832L203.899 221.618L203 220.933L201.374 219.992L200.56 219.136L199.533 218.836L198.378 218.708L197.265 218.365L195.339 217.381L194.354 216.996L191.358 216.482L190.759 216.268L189.004 215.198L187.763 214.856L185.238 214.556L184.04 214.299L182.328 213.7L180.016 213.443L178.219 213.015L177.192 212.844L172.141 213.315L165.892 212.801L164.694 212.93L157.504 215.369L155.663 216.439L154.679 217.381L153.48 218.151L152.624 218.537L152.325 218.451L152.368 216.953L152.796 215.498L153.438 214.471L153.866 213.358L154.422 208.051L154.251 205.697L152.539 202.658L153.438 200.347L153.737 199.105L158.873 198.292L163.881 196.965L168.46 194.654L170.044 192.942L171.285 190.888L172.826 186.608L174.495 179.332L174.367 175.779L174.452 173.554L175.266 169.659L175.908 168.503L176.336 168.375L176.764 168.075L176.892 167.391L176.806 166.663L177.791 166.192L178.304 167.177L179.16 167.605L180.316 167.519L181.172 168.247L182.37 168.332L183.569 168.846L184.81 168.289L186.18 165.764L188.362 165.422L189.518 166.492L189.86 167.305L189.818 168.247L190.973 169.145L192.386 170.001L192.771 174.239L193.67 177.705L196.494 176.165L198.549 173.254L199.49 172.355L200.646 172.826L203.856 173.682L205.311 175.565L205.996 176.25L206.467 177.063L207.323 177.919L208.735 177.748L210.233 176.207L211.389 174.196L212.288 172.056L213.614 170.515Z" fill="#84ADFF" stroke="white" stroke-width="0.856" stroke-linecap="round" stroke-linejoin="round"/>
<path d="M283.036 50.8447L278.328 54.0119L276.444 53.5411L275.332 52.8135L272.678 53.2843L271.565 53.7123L270.752 54.4827L270.238 56.0663L269.896 57.6927L267.328 64.9259L267.114 66.1243L267.414 67.6223L266.857 68.8635L255.986 73.0151L254.83 73.7855L253.632 74.3419L250.636 74.5987L248.71 76.3107L247.982 79.0071L249.48 80.0343L251.663 79.4351L252.947 79.2639L254.146 79.5635L254.702 80.7619L255.258 83.3727L255.301 84.6139L254.103 86.8395L253.974 88.0379L254.659 89.0223H255.815L256.457 88.8083L257.912 91.4191L261.336 95.9987L263.947 97.0259L269.596 98.0959L272.635 98.2243L275.203 99.0803L275.032 100.279L274.176 101.263L272.978 102.034L269.04 103.574L268.27 106.014L268.698 107.341L267.713 107.94L266.344 107.426L265.102 106.784L259.496 107.212L257.441 106.356L256.628 104.345L256.928 102.034V99.6795L256.114 97.4967L254.574 96.0415L252.519 96.5551L247.94 96.8975L246.142 96.2555L244.73 94.4579L242.504 94.8003L240.236 94.6719L238.01 93.7303L235.913 93.1311L233.73 93.0883L233.816 92.6175L233.773 91.6331L233.816 91.1623L234.158 90.0495L234.714 89.0651L237.882 86.1975L238.181 85.3843L237.411 84.8707L236.94 84.7423L236.127 84.2287L235.142 83.1587L234.629 82.3883L233.816 80.3339L233.43 80.0343L232.446 79.9059L230.905 80.0343L230.349 79.5207L230.82 77.2951L232.104 75.4119L232.446 74.5559L232.574 73.6571L233.002 72.5443L233.088 71.3031L232.574 69.1203L232.189 68.0503L230.52 67.8791L229.279 68.7351H227.053L227.01 67.7935L226.754 66.9375L226.497 66.8091L224.999 67.0231L224.186 67.3227L223.458 66.9375L222.987 66.1243L223.287 65.5679L223.629 65.0543L223.843 64.4551L223.8 61.0739L222.302 59.2335L220.077 58.9767L218.065 58.2919L217.766 57.1791L217.808 55.9379L217.38 54.9107L216.482 54.3115L215.54 53.7979L214.684 53.1559L214.384 51.8719L214.427 50.4595L214.256 49.5179L213.4 49.1327L211.089 48.5335L208.992 48.2339L206.894 48.6191L205.097 49.5607L204.027 51.1871L203.428 52.9847L203 53.6695L202.358 53.2843L202.229 52.7707V52.2571L201.972 51.6151L200.175 48.4051L199.747 47.2923L198.976 46.4791L196.152 46.3935L194.268 45.2379L194.226 42.8839L194.525 40.4443L194.996 39.5027L198.805 38.9035L201.373 38.8607L203.684 39.1603L209.163 38.9035L209.848 39.5455L210.49 41.4287L211.431 43.0979L212.287 43.6115L213.143 43.9539L213.956 43.9111L215.112 43.2691L215.54 43.8255L216.054 44.2963L217.466 44.4247L219.392 43.9967L221.104 43.0551L222.688 41.8139L223.073 41.1719L223.33 40.4871L223.672 39.9735L224.1 39.5883L224.699 39.2887L224.913 38.3899L235.314 39.6311H236.64L238.524 39.0747L239.166 39.0319L246.741 39.9307L247.469 39.8879L248.111 39.5027L248.796 38.8607L249.737 39.1175L253.118 40.2731L256.243 38.9035L256.799 38.0047L257.184 37.0203L257.826 36.5495L260.309 35.4795L262.021 35.0515L265.402 33.6819L266.986 33.2539L268.484 33.7247L269.382 35.1371L270.324 38.7751L270.666 39.7167L272.207 39.9307L274.561 39.2459L275.717 39.3743L277.001 39.9735L278.328 40.2731L279.526 40.2303L280.51 40.9579L281.623 43.3119L282.265 48.4907L283.036 50.8447Z" fill="#294620" stroke="white" stroke-width="0.856" stroke-linecap="round" stroke-linejoin="round"/>
<path d="M233.73 93.0927L231.033 94.2055L230.391 94.3339L229.236 93.6919L226.839 94.8047L223.201 98.6139L221.831 100.711L220.847 101.738L219.563 102.337L217.466 102.466L216.353 104.734L216.139 107.473L216.267 110.512L217.252 113.294L218.878 115.22L219.135 117.703L218.15 120.099L216.524 121.897L215.754 122.068L214.298 121.683L213.614 121.341L212.03 119.457L209.162 119.115L207.236 117.446L207.964 116.461L209.462 116.076L209.976 114.707L209.419 110.384L210.104 107.602L209.419 102.551L205.781 98.6567L203.085 97.9291L200.602 96.9875L199.704 95.7891L198.548 94.8475L196.066 93.9487L194.91 93.1783L194.182 91.9799L194.354 90.6959L194.996 89.4975L195.038 88.1279L193.797 87.5287L188.79 89.1551L184.595 92.2795L182.156 92.4935L179.716 90.3963L179.16 88.5559L179.416 86.8011L179.973 85.0463L181.086 83.7195L182.755 83.2915L184.724 82.2643L186.35 81.8791L186.222 80.4667L185.323 78.1983L184.98 77.7275L184.852 77.1711L185.066 76.4863L185.109 75.8015L184.938 74.6459L184.167 72.2919L184.381 64.6735L184.039 61.1211L184.467 59.4947L187.206 57.5687L193.455 55.2147L194.739 53.9735L195.937 50.4639L196.793 48.9231L198.42 48.4095H200.174L201.972 51.6195L202.229 52.2615V52.7751L202.357 53.2887L202.999 53.6739L203.427 52.9891L204.026 51.1915L205.096 49.5651L206.894 48.6235L208.991 48.2383L211.088 48.5379L213.4 49.1371L214.256 49.5223L214.427 50.4639L214.384 51.8763L214.684 53.1603L215.54 53.8023L216.481 54.3159L217.38 54.9151L217.808 55.9423L217.765 57.1835L218.065 58.2963L220.076 58.9811L222.302 59.2379L223.8 61.0783L223.843 64.4595L223.629 65.0587L223.286 65.5723L222.987 66.1287L223.458 66.9419L224.185 67.3271L224.998 67.0275L226.496 66.8135L226.753 66.9419L227.01 67.7979L227.053 68.7395H229.278L230.52 67.8835L232.189 68.0547L232.574 69.1247L233.088 71.3075L233.002 72.5487L232.574 73.6615L232.446 74.5603L232.103 75.4163L230.819 77.2995L230.348 79.5251L230.905 80.0387L232.446 79.9103L233.43 80.0387L233.815 80.3383L234.628 82.3927L235.142 83.1631L236.126 84.2331L236.94 84.7467L237.41 84.8751L238.181 85.3887L237.881 86.2019L234.714 89.0695L234.158 90.0539L233.815 91.1667L233.772 91.6375L233.815 92.6219L233.73 93.0927Z" fill="#294620" stroke="white" stroke-width="0.856" stroke-linecap="round" stroke-linejoin="round"/>
<path d="M224.913 38.3924L224.699 39.2913L224.099 39.5909L223.671 39.9761L223.329 40.4897L223.072 41.1744L222.687 41.8165L221.103 43.0576L219.391 43.9993L217.465 44.4273L216.053 44.2989L215.539 43.8281L215.111 43.2717L213.956 43.9137L213.143 43.9564L212.287 43.6141L211.431 43.1004L210.489 41.4313L209.847 39.5481L209.162 38.9061L203.684 39.1629L201.373 38.8633L198.805 38.9061L194.995 39.5053L194.525 40.4468L194.225 42.8864L194.268 45.2404L196.151 46.3961L198.976 46.4816L199.746 47.2949L200.174 48.4077H198.419L196.793 48.9212L195.937 50.4621L194.739 53.9717L193.455 55.2128L187.206 57.5668L184.467 59.4928L184.039 61.1193L184.381 64.6716L184.167 72.29L184.937 74.644L185.109 75.7997L185.066 76.4844L184.852 77.1693L184.98 77.7257L185.323 78.1964L186.221 80.4648L186.35 81.8773L184.723 82.2624L182.755 83.2896L181.085 83.7177L179.973 85.0444L179.416 86.7992L179.159 88.554L179.716 90.3944L182.155 92.4917L180.914 94.3748L178.047 95.5732L177.019 95.1024L176.335 94.1609L175.093 93.262L173.724 92.6628L171.113 92.1493L168.887 93.476L168.288 94.6317L168.117 95.9156L167.133 96.472L165.849 96.0013L163.152 95.9585L162.553 97.9273L163.152 98.826L163.195 99.896L162.339 100.838L161.141 101.48L159.985 101.308L158.102 99.3824L156.861 98.612L154.25 97.9273L154.207 96.9L155.191 95.83L155.748 95.402L155.876 94.7172L155.448 93.8613L154.678 93.3048L152.795 93.262L151.939 93.048L150.312 92.2348L150.869 90.6084L151.211 88.9392L151.083 87.6553L151.297 86.414L150.098 84.1884L151.425 77.6828L153.479 76.6984H156.133L156.861 77.212L157.46 76.9124L158.958 75.7568L159.814 74.9008L159.985 73.7024L160.627 73.1032L161.74 73.4028L162.81 72.9748L162.425 70.8349L160.456 69.2084L159.257 68.652L158.53 67.7533L159.129 66.6404L159.899 64.5004L160.113 63.5588L159.899 62.446L159.6 61.4188L159.386 59.5357L158.872 57.6953L157.888 55.7692L158.059 53.5864L157.289 51.7461L156.176 36.6804L156.775 32.8713L157.717 32.4433L159.429 30.9453L161.569 28.3773L162.382 28.2489L166.063 28.9337H167.347L168.459 28.5484L181.428 20.7161L182.626 20.1596L183.867 20.0312L192.898 21.3153L193.84 21.7005L194.268 22.0429L195.124 22.8133L196.065 23.4553L197.307 24.3969L197.82 24.6536L198.847 24.9105L199.361 25.1673L199.832 25.5953L200.731 26.6652L204.283 29.9181L205.053 30.2176L205.995 29.7896L207.279 29.7041L208.263 29.9181L209.119 30.3033L210.66 31.5016L211.345 32.2721L212.372 33.9841L213.014 34.7116L214.298 35.4821L223.671 38.2641L224.913 38.3924Z" fill="#294620" stroke="white" stroke-width="0.856" stroke-linecap="round" stroke-linejoin="round"/>
<path d="M145.778 26.2809L143.98 27.6933L141.198 29.3197H137.731L134.265 28.4637L133.665 27.9073L133.109 27.2225L131.825 26.8373L131.055 26.7089H129.385L128.872 27.1797L128.701 28.0785L128.658 29.0629L128.23 30.5609L127.374 30.8177L125.961 30.2613L123.393 30.6037L121.125 31.8449L120.74 32.8721L121.339 39.1209L120.312 41.1325L119.028 41.6889L117.701 42.0741L109.655 42.8445L107.857 44.2569L106.53 46.4397L104.69 48.7937L102.978 49.9493L102.764 52.3461L103.491 55.0425L103.62 57.8673L101.865 59.7933L90.9937 60.2213L85.7293 59.3653L84.4453 63.7309L84.1457 80.8081L83.4609 81.2361L82.6905 81.3217L82.3053 80.7653L81.7489 80.4229L80.9357 80.6797L80.3793 80.3801L79.6089 80.2089L78.8813 80.3801L72.1189 83.4617L70.8777 85.0025L69.2941 85.9869L67.7105 85.4305L66.5549 84.1465L66.8545 80.6797L68.4381 77.2557L69.6365 71.5633L69.3797 57.5677L70.6637 55.2993L73.2317 54.6573L75.6713 55.4277L77.2549 54.6145L77.3833 51.8753L76.3133 46.0117L76.4845 44.5993L76.8269 43.2725L77.1265 40.6189L76.3133 38.3505L75.1149 36.2961L75.3289 34.7981L75.7141 33.4285L75.9281 32.9149L76.0993 32.3585V31.6737L76.1849 30.9889L76.7413 29.9189L76.8697 28.7633L76.2277 27.9929L75.2861 28.2925L74.6441 29.1913L74.0877 30.1329L72.9749 30.8177L71.6481 30.6893L70.3641 30.0901L69.1657 29.2341L67.9245 28.8061L66.6405 28.4637L64.2437 27.5649L62.0181 26.2381L60.9481 25.2109L59.8353 24.3121L58.5513 24.6117L57.3101 25.2109L54.9989 24.8257L52.3025 24.9113L52.0029 24.9541L52.1313 24.1409L52.1741 15.3669L54.4853 15.2813L55.5553 15.0673L56.5825 14.5965L62.1465 9.20369L63.8157 8.00529L65.7417 7.23489L77.0837 4.45289L78.2393 4.32449L79.0525 4.70969L79.8229 5.48009L80.6361 5.82249L82.7333 5.95089L86.3285 5.30889L91.4217 5.52289L92.6629 5.30889L93.0481 5.13769L94.1609 4.32449L94.6317 3.72529L95.2309 2.39849L95.6589 1.84209L96.6433 1.32849L101.908 0.429688L103.063 0.686488L123.222 8.73289L123.993 9.20369L124.378 9.11809L126.432 7.96249L127.117 7.79129L129.685 8.39049L132.039 9.76009L137.047 14.5109L142.867 20.9309L145.778 26.2809Z" fill="#294620" stroke="white" stroke-width="0.856" stroke-linecap="round" stroke-linejoin="round"/>
<path d="M156.776 32.8685L156.176 36.6777L157.289 51.7433L158.06 53.5837L157.888 55.7665L158.873 57.6925L159.386 59.5329L159.6 61.4161L159.9 62.4433L160.114 63.5561L159.9 64.4977L159.13 66.6377L158.53 67.7505L159.258 68.6493L160.456 69.2057L162.425 70.8321L162.81 72.9721L161.74 73.4001L160.628 73.1005L159.986 73.6997L159.814 74.8981L158.958 75.7541L157.46 76.9097L156.861 77.2093L156.134 76.6957H153.48L151.426 77.6801L150.099 84.1857L151.297 86.4113L151.083 87.6525L151.212 88.9365L150.869 90.6057L150.313 92.2321L149.714 93.3021L149.029 94.0297L146.504 95.6133L145.776 96.5121L145.391 97.6249L144.706 100.878L144.364 101.691L143.893 102.29L143.336 102.761L142.737 103.146L139.099 104.516H138.115L135.804 105.201H134.99L134.22 105.029L131.866 104.173L131.096 104.088L130.411 104.345L129.983 104.901L129.341 106.228L128.913 106.784L128.528 107.041L127.672 107.341L127.329 107.597L127.03 108.068L126.987 109.01L126.816 109.481L126.302 109.951L124.676 110.508L124.119 108.111L121.38 103.489L119.882 101.477L119.582 95.9557L116.843 91.5901L115.431 91.0337L114.746 89.9209L115.645 87.1817L115.816 84.6993L114.147 83.0729L112.82 82.6021L110.166 82.1313L109.567 82.3025L109.011 82.6021L103.618 82.9873L101.478 82.5165L98.3964 81.1897L97.8828 80.1197L97.0268 79.4349L95.0152 79.7345L94.1592 79.6917L93.3888 79.3065L92.6184 79.3493L92.0192 79.9913L91.7196 80.8473L91.0776 81.2325L90.2644 81.2753L88.3812 81.7461L87.6536 81.575L87.0544 81.1041L85.5992 80.5477L84.144 80.8045L84.4436 63.7273L85.7276 59.3617L90.992 60.2177L101.863 59.7897L103.618 57.8637L103.49 55.0389L102.762 52.3425L102.976 49.9457L104.688 48.7901L106.528 46.4361L107.855 44.2533L109.653 42.8409L117.699 42.0705L119.026 41.6853L120.31 41.1289L121.337 39.1173L120.738 32.8685L121.123 31.8413L123.392 30.6001L125.96 30.2577L127.372 30.8141L128.228 30.5573L128.656 29.0593L128.699 28.0749L128.87 27.1761L129.384 26.7053H131.053L131.823 26.8337L133.107 27.2189L133.664 27.9037L134.263 28.4601L137.73 29.3161H141.196L143.978 27.6897L145.776 26.2773L146.632 27.9037L148.729 30.3433L150.056 31.5417L151.212 32.4405L152.282 32.8257L153.48 32.9541H156.134L156.776 32.8685Z" fill="#294620" stroke="white" stroke-width="0.856" stroke-linecap="round" stroke-linejoin="round"/>
<path d="M346.296 29.7882L345.44 36.8502L346.082 39.2042L347.666 40.959L349.592 42.3714L349.891 44.6398L348.993 46.8654L347.409 49.0482L343.514 52.7718L344.242 58.2502L342.573 70.491L343.429 74.129L343.257 75.7553L341.117 79.9925L340.903 81.4478L341.845 81.7473L343.043 81.5762L344.499 82.047L345.526 83.2453L346.168 84.5294L346.339 85.8562L342.744 90.3502L341.289 93.0038L340.304 94.031L339.534 95.1865L339.363 98.2682L339.534 101.35L338.464 103.832L336.238 105.501L327.849 108.455L325.838 110.68L325.324 113.591L325.581 116.629L325.196 117.913L324.34 118.983L323.27 119.882L321.857 120.267L320.531 120.396L318.048 120.139L317.706 119.069L317.492 116.458L317.92 108.155L317.706 106.914L316.935 105.929L313.212 102.163L311.5 99.809L309.531 97.7118L307.263 95.9142L302.383 93.5173L297.419 94.8442L295.707 94.5445L294.765 93.3462L296.006 87.6965L295.792 84.615L291.512 74.0005L290.442 68.1798L290.399 65.6546L290.185 64.071L289.458 62.6586L288.73 61.503L288.559 60.219L288.516 58.7638L287.96 55.8962L287.489 54.5266L285.435 52.515L283.038 50.8458L282.267 48.4918L281.625 43.313L280.513 40.959L279.528 40.2314L278.33 40.2742L277.003 39.9746L275.719 39.3754L274.563 39.247L272.209 39.9318L270.669 39.7178L270.326 38.7762L269.385 35.1382L268.486 33.7258L266.988 33.255L265.404 33.683L262.023 35.0526L260.311 35.4806L257.829 36.5506L257.187 37.0214L256.801 38.0058L256.245 38.9046L253.121 40.2742L249.739 39.1186L248.798 38.8618L254.875 31.6286L256.074 30.473L256.759 30.0022L257.486 29.8738L257.914 29.2318L258.043 28.333L258.214 27.9478L258.813 27.3486L265.575 23.5394L267.073 22.8974L285.349 18.9598L288.773 18.6602L295.236 19.4306L312.57 19.345L323.355 22.0842L327.293 23.7106L332.215 26.7494L333.884 28.0334L334.569 28.4186L336.666 28.9322L338.335 28.7182L339.106 28.2046L339.705 28.0762L341.503 28.7182L341.888 28.9322L342.102 29.5314L342.401 29.5742L342.915 29.1462L343.257 29.1034L343.6 29.2746L344.113 29.7882L344.456 29.5742L345.055 29.7454L346.296 29.7882Z" fill="#A48AFB" stroke="white" stroke-width="0.856" stroke-linecap="round" stroke-linejoin="round"/>
<path d="M84.1452 80.8085L85.6004 80.5517L87.0556 81.1081L87.6548 81.5789L88.3824 81.7501L90.2656 81.2793L91.0788 81.2365L91.7208 80.8513L92.0204 79.9953L92.6196 79.3533L93.39 79.3105L94.1604 79.6957L95.0164 79.7385L97.028 79.4389L97.884 80.1237L98.3976 81.1937L101.479 82.5205L103.619 82.9913L109.012 82.6061L109.568 82.3065L110.168 82.1353L112.821 82.6061L114.148 83.0769L115.817 84.7033L115.646 87.1857L114.747 89.9249L115.432 91.0377L116.844 91.5941L119.584 95.9597L119.883 101.481L118.77 100.796L117.529 100.839L117.016 101.267L116.117 102.294L115.732 102.85L114.833 103.578L113.592 103.706L112.35 104.049L106.187 106.66L103.833 107.088H100.281L99.3392 106.745L98.8684 105.461L98.8256 104.049L99.0396 101.267L98.4832 100.068L97.3276 99.3409L96.0436 97.0297L95.5728 94.2905L93.4756 93.0065L90.8648 92.9637L80.336 95.1037L75.4568 97.2865L74.9004 99.5977L77.126 101.31L79.694 102.38L82.4332 102.808H83.0324L83.5032 103.107L83.8028 103.749L84.2736 104.006L85.258 104.306L85.686 105.376L86.0284 106.831L86.114 108.286L84.402 110.469L85.8572 112.309L86.6276 114.706L85.686 115.434L83.1608 116.161L80.764 117.317L78.2816 116.974L77.1688 117.402L76.5696 119.799L76.7408 122.538L76.5696 123.78L76.7836 124.978L78.4528 127.204L79.5656 129.643L78.6668 132.04L77.6396 132.768L76.4412 133.196L72.2896 134.052L71.0484 134.48L70.6632 135.764V137.219L70.1924 138.16L67.7956 138.032L66.9396 137.262L67.4532 134.608L67.6672 131.954L66.9396 131.141L65.998 130.414L65.4416 129.172L65.3132 127.803L65.5272 125.106L66.8968 122.795L71.0056 120.441L71.0912 119.799L71.99 118.858L72.2468 118.387L72.3324 117.745L72.2896 116.375L73.488 109.912L73.4452 109.014L71.134 108.329L66.8112 105.461L63.216 104.52L59.5352 105.033L49.7768 105.29L47.8936 105.076L43.9132 103.236L40.746 101.267L37.4932 100.882L37.2364 101.138L36.5516 101.181L35.6956 100.325L29.3184 91.2945L28.8048 90.3101L28.7192 89.4541L29.6608 86.9717L30.0888 85.3025L32.5712 81.0653L33.3416 80.2521L35.182 79.1393L35.61 78.7113L35.8668 77.9409L35.6956 77.2133L35.2676 76.5285L34.4116 75.6297L34.1548 75.4157L33.8124 74.6881L33.5984 72.6337L33.7696 72.0345L34.1548 71.4781L34.7968 70.8789L35.396 69.6377L35.2248 68.3965L34.326 65.7429L34.3688 64.1593L35.3104 59.3657L34.968 50.2921L35.0964 49.9069L42.886 44.0005L45.1972 41.8177L50.8896 32.8297L52.0024 24.9545L52.302 24.9117L54.9984 24.8261L57.3096 25.2113L58.5508 24.6121L59.8348 24.3125L60.9476 25.2113L62.0176 26.2385L64.2432 27.5653L66.64 28.4641L67.924 28.8065L69.1652 29.2345L70.3636 30.0905L71.6476 30.6897L72.9744 30.8181L74.0872 30.1333L74.6436 29.1917L75.2856 28.2929L76.2272 27.9933L76.8692 28.7637L76.7408 29.9193L76.1844 30.9893L76.0988 31.6741V32.3589L75.9276 32.9153L75.7136 33.4289L75.3284 34.7985L75.1144 36.2965L76.3128 38.3509L77.126 40.6193L76.8264 43.2729L76.484 44.5997L76.3128 46.0121L77.3828 51.8757L77.2544 54.6149L75.6708 55.4281L73.2312 54.6577L70.6632 55.2997L69.3792 57.5681L69.636 71.5637L68.4376 77.2561L66.854 80.6801L66.5544 84.1469L67.71 85.4309L69.2936 85.9873L70.8772 85.0029L72.1184 83.4621L78.8808 80.3805L79.6084 80.2093L80.3788 80.3805L80.9352 80.6801L81.7484 80.4233L82.3048 80.7657L82.69 81.3221L83.4604 81.2365L84.1452 80.8085Z" fill="#294620" stroke="white" stroke-width="0.856" stroke-linecap="round" stroke-linejoin="round"/>
<path d="M329.09 233.558L328.619 231.718L327.72 229.792L327.292 227.438V224.998L325.58 220.889L322.113 217.594L321.257 216.524L319.973 215.967L318.86 216.481L318.133 217.551L317.362 218.535L316.421 219.349L315.265 219.22L314.281 218.236L312.868 215.668L311.328 211.816L311.627 210.703L313.596 208.392L315.907 206.295L325.109 195.209L327.506 193.241L327.848 192.085L327.677 190.758L327.934 188.276L331.486 180.829L331.272 178.303L329.817 176.463L327.549 175.393L326.308 173.296V172.012L326.479 170.771L326.136 169.658L325.452 168.588L324.253 165.977L322.199 164.137L321 163.751L319.802 163.537L318.946 162.724L315.65 156.518L318.903 156.005L321.942 154.635L328.533 150.655L329.86 149.585L330.416 148.087L330.202 143.293L330.588 140.169L336.323 140.468L340.86 137.258L344.54 132.465L346.595 130.71L349.163 130.153L352.03 129.854L354.598 128.698L355.583 127.585L356.225 126.301L357.124 125.617L358.45 125.531L360.548 123.648L362.474 121.379L365.384 120.695L368.466 121.123L370.862 122.193L372.831 123.947L374.928 125.317L377.368 125.831L379.166 124.846L380.407 120.01L382.376 115.131L382.846 112.605V110.123L383.146 108.069L384.344 107.897L384.858 107.983L385.243 108.325L386.399 108.753L387.554 108.882L392.733 107.769L394.83 107.641L394.616 108.069L388.282 117.185L387.298 119.282L385.971 123.819L384.772 130.624L383.959 132.893V133.363L384.173 134.091L384.259 134.519L384.173 134.99L383.617 136.231L383.189 136.745L382.418 137.344L381.605 137.857L380.92 138.114L378.138 138.457L376.94 138.885L376.298 140.126L376.341 140.853L376.769 142.052L376.897 142.737L376.726 143.593L375.913 144.919L375.656 145.647L375.699 146.46L376.041 147.059L377.111 148.129L377.496 148.943L377.411 149.499L377.068 150.098L376.726 150.997L376.255 153.437L376.084 155.748L375.1 158.316L372.746 159.257L369.964 159.685L367.481 160.755L367.01 161.141L365.983 162.467L365.298 163.067L363.201 164.094L362.987 164.265L362.73 164.907L362.902 165.035L363.886 165.164L364.271 165.934L364.528 167.004L364.485 168.417L364.357 169.101L364.143 169.701L362.516 172.697L361.789 174.409L361.746 175.864L362.003 177.191L361.19 183.953L360.804 185.537L360.034 186.564L359.563 186.778L358.151 186.692L357.766 186.863L357.509 187.291L357.166 188.319L356.653 189.474L356.011 190.159L352.373 192.128L351.816 192.256L351.303 192.128L350.147 191.614L349.719 191.486L349.034 191.571L348.178 192.085L347.622 192.342L347.151 192.385L346.638 192.299L345.653 191.957L345.953 192.513L346.766 194.525L346.894 195.038V196.065L346.595 196.365L345.525 197.135L344.754 198.334L344.326 198.633L343.556 198.762L342.186 198.505L341.416 198.847L340.603 200.003L340.346 201.587L340.432 203.213L340.988 206.123L340.945 206.851L340.688 207.621L339.233 209.676L339.019 210.575V211.944L339.233 213.357L339.447 214.213L339.576 214.812L339.362 215.325L338.035 216.738L334.482 221.703L333.198 224.014L332.942 224.784L332.856 225.555L332.899 226.325L333.412 228.422L333.284 229.15L332.813 229.578L332.257 229.963L331.315 231.375L329.09 233.558Z" fill="#A48AFB" stroke="white" stroke-width="0.856" stroke-linecap="round" stroke-linejoin="round"/>
<path d="M176.806 166.662L176.891 167.39L176.763 168.075L176.335 168.374L175.907 168.503L175.265 169.658L174.452 173.553L174.366 175.779L174.494 179.331L172.825 186.607L171.284 190.887L170.043 192.941L168.46 194.653L163.88 196.965L158.872 198.291L153.736 199.105L152.153 199.361L150.826 199.19L148.643 199.276L147.017 199.105L146.161 197.564L145.947 196.922L145.604 171.199L145.776 170.172L146.632 169.787L153.223 169.53L155.363 170.172L158.658 173.425L160.37 174.366L160.584 174.323L165.592 167.176L168.973 166.791L169.958 166.833L170.942 166.962L171.841 167.347L172.611 166.791L173.724 165.207L175.008 165.678L175.65 166.919L176.806 166.662Z" fill="#84ADFF" stroke="white" stroke-width="0.856" stroke-linecap="round" stroke-linejoin="round"/>
</g>
<defs>
<clipPath id="clip0_4363_156131">
<rect width="428" height="347.964" fill="white"/>
</clipPath>
</defs>
</svg>
