<svg width="48" height="40" viewBox="0 0 48 40" fill="none" xmlns="http://www.w3.org/2000/svg">
<path d="M24.9815 0.0413451C24.7644 0.0245661 24.4346 0.00778715 24.2486 0.00219416C24.0625 -0.00339883 23.7074 0.00219416 23.4593 0.0133801C23.2113 0.0217696 22.8618 0.0469381 22.6842 0.0665135C22.5066 0.0832925 22.1373 0.136426 21.8667 0.18117C21.5961 0.225914 21.1508 0.318198 20.8802 0.385314C20.6096 0.45243 20.1952 0.572679 19.9641 0.648184C19.7301 0.726486 19.344 0.869107 19.1044 0.969781C18.8648 1.06766 18.5012 1.23265 18.301 1.33333C18.1009 1.4312 17.8077 1.58501 17.6527 1.6745C17.4977 1.76119 17.1566 1.97652 16.8917 2.1499C16.6267 2.32328 16.2462 2.59734 16.046 2.75954C15.8459 2.91894 15.533 3.18181 15.3554 3.34401C15.1779 3.50341 14.8903 3.78585 14.7156 3.97042C14.5436 4.15219 14.2899 4.43743 14.1518 4.59963C14.0165 4.76462 13.7939 5.04707 13.6586 5.22884C13.5261 5.41341 13.3006 5.7434 13.1568 5.96712C13.0159 6.19084 12.7509 6.67463 12.5649 7.04377C12.3817 7.41291 12.1618 7.8967 12.0744 8.12042C11.9899 8.34414 11.863 8.70768 11.7954 8.9314C11.7249 9.15512 11.6234 9.53265 11.567 9.77035C11.5135 10.0081 11.4402 10.3548 11.4092 10.5394C11.3782 10.724 11.3331 11.04 11.3077 11.2385C11.2852 11.4371 11.2542 11.8426 11.2429 12.1334C11.2288 12.4242 11.2288 12.9108 11.2401 13.21C11.2542 13.5093 11.2852 13.9315 11.3105 14.1469C11.3359 14.3622 11.3866 14.709 11.4261 14.9159C11.4627 15.1228 11.5473 15.5004 11.6093 15.7548C11.6742 16.0093 11.7869 16.4036 11.8658 16.6357C11.9419 16.8651 12.0688 17.2118 12.1477 17.4048C12.2266 17.5977 12.4014 17.9809 12.5367 18.2577C12.672 18.5346 12.9031 18.9568 13.0469 19.1945C13.1935 19.435 13.4105 19.7678 13.5289 19.9356C13.6473 20.1062 13.8671 20.3942 14.0165 20.5788C14.1659 20.7634 14.4422 21.0822 14.631 21.2891C14.8199 21.4933 15.1412 21.8121 15.3413 21.991C15.5415 22.1728 15.829 22.4189 15.9756 22.5391C16.1221 22.6566 16.4096 22.8691 16.6098 23.0118C16.8099 23.1516 17.1087 23.3501 17.2722 23.4508C17.4357 23.5515 17.7457 23.7277 17.9628 23.8451C18.1798 23.9598 18.5406 24.1359 18.7661 24.2366C18.9916 24.3373 19.3468 24.4799 19.5554 24.5582C19.764 24.6337 20.0881 24.7428 20.2741 24.7959C20.4602 24.8518 20.7646 24.9329 20.9506 24.9805C21.1367 25.0252 21.4608 25.0951 21.6694 25.1343C21.878 25.1734 22.2022 25.2238 22.3882 25.2462C22.5742 25.2713 22.9294 25.3049 23.1775 25.3217C23.4509 25.3412 23.8962 25.3468 24.305 25.3384C24.677 25.33 25.1534 25.3021 25.362 25.2769C25.5706 25.2545 25.9004 25.2098 26.0949 25.179C26.2893 25.1483 26.6445 25.0756 26.8841 25.0224C27.1237 24.9665 27.5042 24.8658 27.7297 24.7959C27.9552 24.7288 28.285 24.6169 28.4626 24.5498C28.6402 24.4855 28.939 24.3653 29.125 24.2842C29.311 24.2031 29.576 24.08 29.7169 24.0101C29.8579 23.943 30.1172 23.8032 30.2948 23.7053C30.4724 23.6046 30.836 23.3809 31.0981 23.2075C31.3603 23.0313 31.7183 22.7796 31.8874 22.6454C32.0565 22.5112 32.3384 22.2791 32.5075 22.1281C32.6766 21.9798 32.9641 21.7086 33.1417 21.5268C33.3221 21.3422 33.5814 21.0626 33.7224 20.9004C33.8605 20.7382 34.0691 20.4809 34.1875 20.3271C34.3059 20.1733 34.5032 19.8965 34.6272 19.7119C34.7512 19.5273 34.9514 19.2057 35.0726 18.9988C35.1966 18.7918 35.3854 18.4339 35.4982 18.2018C35.6109 17.9725 35.7857 17.5754 35.8844 17.3209C35.9858 17.0664 36.1239 16.6777 36.1944 16.454C36.2649 16.2303 36.3607 15.8919 36.4086 15.6989C36.4537 15.506 36.5242 15.1788 36.5637 14.9718C36.6031 14.7649 36.6539 14.4489 36.6764 14.2727C36.699 14.0965 36.7328 13.7302 36.7525 13.4617C36.7723 13.1625 36.7779 12.7318 36.7694 12.3571C36.7582 12.0187 36.7384 11.6216 36.7215 11.4762C36.7076 11.333 36.6719 11.0651 36.6466 10.8754L36.6454 10.8666L36.5947 10.5254H35.7772C35.8111 10.6876 35.8449 10.9309 35.8759 11.1686C35.9069 11.4063 35.9464 11.8426 35.9605 12.1334C35.9802 12.4802 35.9802 12.8465 35.9605 13.1821C35.9464 13.4673 35.921 13.8253 35.9041 13.9791C35.8872 14.1329 35.8421 14.4405 35.8026 14.6642C35.766 14.8879 35.6814 15.2766 35.6194 15.5311C35.5574 15.7856 35.4362 16.1939 35.3544 16.44C35.2727 16.6861 35.1261 17.0692 35.0303 17.2929C34.9373 17.5166 34.754 17.8998 34.6244 18.1459C34.4975 18.3919 34.2946 18.7499 34.1734 18.9429C34.0522 19.1358 33.8746 19.3987 33.7816 19.5301C33.6857 19.6616 33.4941 19.9132 33.3503 20.0894C33.2094 20.2656 32.9529 20.562 32.7837 20.7466C32.6118 20.9312 32.3496 21.1968 32.1946 21.3339C32.0424 21.4737 31.8254 21.6638 31.7183 21.7561C31.6111 21.8456 31.3941 22.0162 31.2391 22.1337C31.084 22.2511 30.7937 22.4525 30.5908 22.5839C30.3878 22.7153 30.0975 22.8971 29.9424 22.9838C29.7874 23.0733 29.514 23.2159 29.3364 23.3054C29.1588 23.3949 28.8403 23.5375 28.6317 23.627C28.4231 23.7137 28.0482 23.8535 27.8002 23.9374C27.5521 24.0185 27.1462 24.1387 26.8982 24.2003C26.6501 24.2618 26.264 24.3429 26.0385 24.3792C25.813 24.4184 25.4324 24.4715 25.1929 24.4967C24.8912 24.5303 24.5248 24.5442 24.009 24.5442C23.4932 24.5442 23.1267 24.5303 22.8251 24.4967C22.5855 24.4715 22.205 24.4184 21.9795 24.3792C21.754 24.3429 21.3678 24.2618 21.1198 24.2003C20.8717 24.1387 20.4968 24.0353 20.2882 23.9654C20.0797 23.8982 19.7414 23.7752 19.5413 23.6969C19.3411 23.6158 19.0085 23.4732 18.8084 23.3781C18.6083 23.283 18.2897 23.118 18.1037 23.0118C17.9177 22.9083 17.6583 22.7517 17.5259 22.6678C17.3934 22.5839 17.1679 22.4329 17.0241 22.3294L16.762 22.1448C17.1031 22.1337 17.2186 22.1225 17.2355 22.1169C17.2581 22.1085 17.182 22.0022 17.0382 21.8456C16.9086 21.703 16.7028 21.4597 16.5816 21.3059C16.4576 21.1521 16.2546 20.8752 16.1278 20.6907C16.0009 20.5061 15.8262 20.2292 15.736 20.0754C15.6429 19.9216 15.4654 19.5833 15.3385 19.3204C15.2117 19.0575 15.0482 18.6884 14.9749 18.4954C14.9044 18.3025 14.7889 17.9585 14.7212 17.7264C14.6536 17.4971 14.5662 17.1503 14.5267 16.9573C14.4873 16.7644 14.4365 16.4763 14.414 16.3141C14.3886 16.152 14.3548 15.8443 14.3379 15.629C14.3181 15.3857 14.3125 14.9774 14.321 14.5524C14.3294 14.1748 14.3576 13.7218 14.383 13.5456C14.4055 13.3694 14.4591 13.0534 14.4985 12.8465C14.538 12.6396 14.6085 12.3319 14.6507 12.1614C14.6958 11.9908 14.7945 11.672 14.8734 11.4482C14.9495 11.2245 15.0707 10.9057 15.144 10.7351C15.2173 10.5646 15.347 10.2933 15.4287 10.1255C15.5133 9.96051 15.6768 9.66688 15.7952 9.47113C15.9135 9.27257 16.0996 8.98733 16.2095 8.83352C16.3194 8.67972 16.4998 8.43922 16.6098 8.30219C16.7197 8.16516 16.9311 7.91907 17.0805 7.75687C17.2271 7.59468 17.4836 7.3374 17.6499 7.18359C17.819 7.02979 18.1009 6.78649 18.2841 6.64387C18.4645 6.50125 18.7436 6.29431 18.9071 6.18245C19.0705 6.07338 19.3496 5.89721 19.5272 5.79374C19.7048 5.68747 20.0176 5.52247 20.2178 5.4218C20.4179 5.32392 20.7421 5.1813 20.9366 5.1058C21.131 5.03029 21.4467 4.91564 21.6412 4.85411C21.8357 4.79259 22.1204 4.70869 22.2755 4.66954C22.4305 4.63039 22.7349 4.56887 22.952 4.52972L23.3466 4.45701C24.0907 4.84013 24.5192 5.07504 24.7841 5.22325C25.0491 5.37426 25.2774 5.51129 25.2915 5.52807C25.3056 5.54764 25.3592 5.5784 25.4043 5.59798C25.4494 5.62035 25.6551 5.7378 25.8553 5.86365C26.0554 5.98669 26.7798 6.45371 27.4619 6.89835C28.1441 7.34579 28.829 7.78764 28.9841 7.88272C29.1391 7.9778 29.3928 8.12601 29.5478 8.2155C29.7028 8.30219 29.8494 8.38329 29.872 8.39727C29.8945 8.41125 30.0918 8.50354 30.3089 8.60421C30.5259 8.70489 30.9121 8.86988 31.1686 8.96776C31.4251 9.06843 31.7803 9.19427 31.9578 9.24741C32.1354 9.30334 32.4032 9.37884 32.5498 9.41799C32.6964 9.45714 33.0402 9.53265 33.3108 9.58578C33.5814 9.63892 33.8633 9.68925 33.9366 9.69764C34.0703 9.71422 34.0719 9.71715 34.1779 9.90863L34.1818 9.91577L34.182 9.91604C34.2439 10.0278 34.3059 10.1395 34.32 10.1619C34.3369 10.1926 34.3651 10.1451 34.4271 9.98288L34.5088 9.76476C34.6836 9.78993 35.1177 9.8067 35.5884 9.81789C36.3354 9.83747 36.4396 9.83467 36.4396 9.79832C36.4396 9.77594 36.3945 9.58578 36.3382 9.37884C36.2846 9.1719 36.1803 8.83073 36.1099 8.62379C36.0394 8.41685 35.9013 8.0589 35.8054 7.82679C35.7096 7.59747 35.5405 7.23113 35.4305 7.0158C35.3234 6.80047 35.1628 6.49845 35.0726 6.34464C34.9824 6.19084 34.7935 5.88882 34.6497 5.67349C34.506 5.45816 34.2918 5.15613 34.1706 5.00233C34.0522 4.84852 33.8295 4.57726 33.6773 4.40108C33.5251 4.2249 33.1925 3.87814 32.9416 3.63204C32.6879 3.38316 32.3666 3.08673 32.2256 2.97207C32.0847 2.85742 31.8451 2.66725 31.6901 2.5526C31.535 2.43514 31.225 2.21981 30.9995 2.0716C30.774 1.92618 30.4498 1.72763 30.2807 1.63255C30.1116 1.53747 29.793 1.37527 29.576 1.2718C29.359 1.16554 29.0235 1.01732 28.829 0.93902C28.6345 0.863515 28.3442 0.751655 28.1807 0.695725C28.0172 0.639795 27.7072 0.544714 27.4901 0.483191C27.2731 0.421668 26.8926 0.329384 26.6445 0.276251C26.3965 0.223117 26.0103 0.156001 25.7848 0.12524C25.5593 0.0944785 25.1985 0.0581241 24.9815 0.0413451Z" fill="#65AA4F"/>
<path fill-rule="evenodd" clip-rule="evenodd" d="M42.3208 28.6574C42.7577 28.6658 42.8648 28.6769 43.0818 28.7385C43.2228 28.7776 43.406 28.8391 43.4906 28.8755C43.5751 28.9146 43.7161 28.9902 43.9557 29.144L44.1389 29.0377C44.2403 28.9762 44.4405 28.8839 44.5842 28.8308C44.7252 28.7748 44.9619 28.7105 45.1029 28.6853C45.303 28.6518 45.4721 28.6434 45.816 28.6546C46.1543 28.6658 46.3234 28.6853 46.4925 28.7301C46.6166 28.7636 46.8082 28.8308 46.9153 28.8811C47.0224 28.9314 47.1916 29.0321 47.2902 29.1048C47.3861 29.1747 47.5242 29.3117 47.5947 29.4068C47.6679 29.5047 47.7638 29.6585 47.8061 29.7508C47.8512 29.8431 47.9132 30.0388 47.9442 30.1843C47.9977 30.4331 48.0006 30.5646 48.0006 32.3292C48.0006 34.0994 47.9977 34.2112 47.9498 34.2252C47.9244 34.2308 47.8117 34.2504 47.7046 34.2699C47.5975 34.2867 47.3494 34.3007 47.1549 34.3035C46.9604 34.3035 46.7378 34.2895 46.6617 34.2727C46.5827 34.2532 46.4643 34.2028 46.3939 34.1609C46.3093 34.1077 46.2388 34.0322 46.0979 33.7778L46.0838 32.1698C46.0725 30.9309 46.0613 30.5422 46.0331 30.4779C46.0133 30.4303 45.9682 30.3632 45.9344 30.3297C45.9006 30.2933 45.8217 30.2374 45.7597 30.2038C45.6723 30.1591 45.5933 30.1451 45.4073 30.1423C45.1931 30.1423 45.148 30.1507 44.7872 30.3241V34.2112L44.7224 34.2252C44.6885 34.2308 44.5786 34.2532 44.4771 34.2699C44.3756 34.2867 44.1304 34.3035 43.9275 34.3035C43.6597 34.3035 43.5159 34.2895 43.3919 34.256C43.2651 34.2168 43.1918 34.1749 43.0931 34.0742C42.9973 33.9819 42.9494 33.9036 42.9155 33.7917C42.8761 33.6575 42.8704 33.4422 42.8704 32.1558C42.8704 30.9169 42.8648 30.6485 42.8282 30.5254C42.7971 30.4192 42.7577 30.3576 42.6788 30.2961C42.6224 30.2486 42.504 30.1898 42.4194 30.1647C42.3151 30.1367 42.2052 30.1255 42.0812 30.1367C41.9713 30.1451 41.8331 30.1787 41.5738 30.2961V32.2537C41.5738 34.0938 41.571 34.2112 41.5231 34.2224C41.4977 34.228 41.4442 34.242 41.4047 34.2504C41.3652 34.2588 41.1933 34.2783 41.0242 34.2951C40.7987 34.3175 40.6408 34.3175 40.4463 34.2951C40.2997 34.2783 40.1278 34.242 40.0658 34.214C40.0038 34.186 39.9108 34.1189 39.86 34.063C39.8121 34.0071 39.7473 33.912 39.7191 33.8533C39.674 33.7582 39.6712 33.5904 39.6627 31.8342C39.6571 30.1255 39.6599 29.9018 39.7022 29.7648C39.736 29.6501 39.7867 29.5718 39.9079 29.4488C39.9953 29.3565 40.156 29.2279 40.2631 29.1607C40.3702 29.0936 40.5703 28.9957 40.7056 28.9398C40.8438 28.8867 41.0467 28.8168 41.1566 28.786C41.2694 28.7552 41.4639 28.7133 41.5879 28.6909C41.7514 28.6602 41.9543 28.6518 42.3208 28.6574ZM0.87112 28.7888C1.06843 28.7888 1.26293 28.8028 1.3644 28.828C1.45742 28.8503 1.58144 28.9007 1.63782 28.9398C1.69701 28.979 1.77594 29.0629 1.81258 29.1272C1.85204 29.1943 1.89432 29.3229 1.91124 29.4152C1.93097 29.5271 1.94224 30.3576 1.94224 34.2112L1.86332 34.2252C1.82104 34.2308 1.69701 34.2532 1.5899 34.2699C1.47997 34.2895 1.23474 34.3035 1.04024 34.3007C0.800651 34.3007 0.642801 34.2839 0.546964 34.256C0.468039 34.2308 0.366564 34.186 0.321464 34.1525C0.273545 34.1217 0.208714 34.0546 0.174889 34.0071C0.138246 33.9567 0.090327 33.8533 0.0621395 33.7778C0.0254958 33.6659 0.0142208 33.4813 0.00294583 32.8269C-0.00269166 32.3795 -0.00269166 31.3084 0.0254958 28.8755L0.28482 28.8335C0.428576 28.8112 0.693539 28.7916 0.87112 28.7888ZM30.6033 37.7767C30.6822 37.7851 30.778 37.8047 30.8147 37.8215C30.8485 37.8383 30.9105 37.8858 31.0289 38.0005L31.043 37.9082C31.0599 37.8243 31.0683 37.8187 31.1726 37.8187C31.2657 37.8187 31.2826 37.8271 31.2713 37.8662C31.2628 37.8942 31.1896 38.2633 31.105 38.6856C31.0204 39.1219 30.9302 39.5022 30.8992 39.5665C30.8654 39.628 30.7921 39.7231 30.7329 39.779C30.6709 39.8322 30.5497 39.9049 30.4623 39.9384C30.3721 39.972 30.2396 40 30.1663 40C30.0902 40 29.9606 39.9804 29.876 39.9552C29.7915 39.93 29.6984 39.8993 29.6731 39.8853C29.6251 39.8601 29.6251 39.8573 29.6731 39.7762C29.7041 39.7175 29.7351 39.6979 29.7633 39.7091C29.7858 39.7203 29.876 39.7455 29.9606 39.7678C30.0846 39.8014 30.1466 39.8042 30.2706 39.779C30.3552 39.7595 30.468 39.7175 30.5215 39.684C30.5751 39.6504 30.6455 39.5721 30.6822 39.5106C30.7188 39.449 30.7555 39.3344 30.7865 39.1191L30.7047 39.1946C30.6596 39.2365 30.5892 39.2841 30.5469 39.298C30.5018 39.3148 30.389 39.3288 30.2932 39.3288C30.1635 39.3288 30.0874 39.312 30.0029 39.2645C29.9437 39.2309 29.8619 39.1582 29.8281 39.1051C29.7915 39.0519 29.7492 38.9429 29.7323 38.8674C29.7125 38.7611 29.7153 38.68 29.7435 38.5318C29.7661 38.4255 29.8055 38.2941 29.8309 38.2438C29.8563 38.1962 29.9296 38.0955 29.9972 38.0256C30.0621 37.9529 30.1523 37.8774 30.2002 37.8522C30.2481 37.8299 30.3214 37.7991 30.3693 37.7879C30.4172 37.7739 30.5215 37.7711 30.6033 37.7767ZM30.1438 38.1599C30.0874 38.227 30.0226 38.3416 29.9972 38.4199C29.9747 38.4954 29.9521 38.6297 29.9521 38.7136C29.9521 38.8003 29.9747 38.9065 30 38.9569C30.0254 39.0072 30.0874 39.0687 30.1382 39.0939C30.2002 39.1247 30.2791 39.1358 30.3862 39.1302C30.5018 39.1219 30.5694 39.0995 30.6455 39.0408C30.7047 38.9988 30.7808 38.9009 30.8203 38.817C30.8598 38.7387 30.9049 38.5905 30.9218 38.4898C30.9443 38.3472 30.9443 38.2829 30.9133 38.199C30.8936 38.1375 30.8457 38.0676 30.8062 38.0396C30.7667 38.0116 30.685 37.9837 30.623 37.9753C30.561 37.9669 30.451 37.9781 30.3778 38.0005C30.2819 38.0312 30.2143 38.076 30.1438 38.1599ZM18.8406 37.8327L18.9675 38.4619C19.0943 39.0659 19.1 39.0883 19.1422 39.0212C19.1676 38.982 19.3339 38.6968 19.8413 37.8187H20.095L19.5284 38.7471C19.2183 39.2589 18.928 39.7231 18.8857 39.7762C18.8434 39.8294 18.7589 39.9021 18.6969 39.9356C18.6377 39.972 18.5503 40 18.5024 40C18.4573 40 18.3699 39.9832 18.3135 39.958C18.2543 39.9356 18.2064 39.9077 18.2064 39.8937C18.2036 39.8825 18.2261 39.8461 18.2543 39.8098C18.2994 39.7511 18.3135 39.7483 18.3896 39.7762C18.4488 39.7958 18.4996 39.7986 18.5588 39.779C18.6067 39.7623 18.6771 39.7147 18.7166 39.6728C18.7589 39.628 18.8237 39.5413 18.866 39.4742C18.9055 39.4099 18.9393 39.3372 18.9393 39.3148C18.9393 39.2924 18.8688 38.9681 18.7843 38.5933C18.6969 38.2214 18.6208 37.8942 18.6123 37.8662C18.601 37.8215 18.6151 37.8159 18.8406 37.8327Z" fill="white"/>
<path d="M24.8907 5.50826C24.6512 5.48029 24.3044 5.46631 23.9606 5.46631C23.659 5.46911 23.3151 5.48029 23.1995 5.49427C23.0839 5.50826 22.8161 5.5502 22.6076 5.59215C22.399 5.6313 22.0805 5.70681 21.9029 5.76274C21.7253 5.81587 21.4378 5.91654 21.2687 5.98366C21.0995 6.05357 20.812 6.18501 20.6344 6.28009C20.4569 6.37237 20.1891 6.52618 20.0425 6.61846C19.8959 6.71354 19.6479 6.89252 19.4928 7.01557C19.3378 7.13582 19.1039 7.33716 18.9742 7.46301C18.8445 7.58605 18.6162 7.82375 18.4696 7.99434C18.3231 8.16493 18.0891 8.47254 17.951 8.67948C17.8101 8.88642 17.5986 9.25835 17.4746 9.50445C17.3534 9.75054 17.1984 10.1169 17.1307 10.3154C17.0631 10.514 16.9729 10.816 16.9334 10.9866C16.8911 11.1572 16.8404 11.4145 16.815 11.5599C16.7925 11.7053 16.7615 12.0213 16.7474 12.259C16.7333 12.5163 16.7333 12.863 16.7474 13.1119C16.7615 13.344 16.7981 13.688 16.8319 13.881C16.8658 14.0739 16.9334 14.3815 16.9842 14.5661C17.0349 14.7507 17.1223 15.0275 17.1815 15.1813C17.2378 15.3351 17.3788 15.6511 17.4915 15.8805C17.6071 16.1126 17.796 16.4453 17.9143 16.6215C18.0327 16.7977 18.2272 17.0634 18.3456 17.2088C18.4612 17.3542 18.698 17.6143 18.8699 17.7821C19.0418 17.9527 19.2899 18.1764 19.4224 18.2826C19.5549 18.3889 19.8198 18.5791 20.0143 18.7077C20.2088 18.8336 20.5189 19.0153 20.7049 19.1076C20.8909 19.2027 21.17 19.3285 21.325 19.3873C21.4801 19.4488 21.7591 19.5439 21.9452 19.5998C22.1312 19.6557 22.4497 19.7312 22.6498 19.7676C22.85 19.8039 23.1572 19.8459 23.3263 19.8627C23.4955 19.8794 23.814 19.8934 24.031 19.8934C24.2481 19.8934 24.5469 19.8794 24.6934 19.8655C24.84 19.8487 25.0824 19.8179 25.229 19.7927C25.3756 19.7676 25.6631 19.7061 25.8632 19.6557C26.0633 19.6054 26.3565 19.5159 26.5115 19.46C26.6666 19.404 26.9851 19.2642 27.2162 19.1524C27.4473 19.0405 27.811 18.8336 28.0196 18.6965C28.2281 18.5595 28.5213 18.3442 28.6679 18.2211C28.8144 18.0981 29.0681 17.8604 29.2344 17.6954C29.3979 17.5276 29.6121 17.2899 29.7108 17.1668C29.8095 17.0438 29.9758 16.8117 30.0857 16.6495C30.1928 16.4873 30.3394 16.2496 30.4098 16.1182C30.4803 15.9867 30.5987 15.749 30.672 15.5868C30.7425 15.4246 30.8552 15.1366 30.92 14.9436C30.9849 14.7507 31.0666 14.4542 31.1061 14.2865C31.1455 14.1159 31.1963 13.8474 31.2188 13.6852C31.2414 13.523 31.2696 13.179 31.278 12.9162C31.2893 12.6337 31.2837 12.2981 31.2639 12.0912C31.247 11.8982 31.2132 11.6214 31.1878 11.476C31.1625 11.3306 31.1004 11.0453 31.0497 10.8468C30.999 10.6482 30.9088 10.3574 30.8524 10.2036C30.796 10.0498 30.6692 9.75893 30.5733 9.56038C30.4775 9.36182 30.3253 9.07658 30.2351 8.93116C30.1449 8.78575 30.0237 8.59838 29.9617 8.52008C29.8743 8.39983 29.7954 8.3411 29.5642 8.21247C29.4036 8.12577 29.1471 7.97756 28.992 7.88248C28.837 7.7874 28.152 7.34555 27.4699 6.89811C26.7878 6.45347 26.0577 5.98366 25.8491 5.85502C25.6405 5.72359 25.4235 5.60334 25.3699 5.58656C25.3164 5.56698 25.0993 5.53342 24.8907 5.50826Z" fill="white"/>
<path d="M23.826 4.7063C23.561 4.56927 23.3327 4.46021 23.3186 4.46021C23.3045 4.46021 23.1241 4.49376 22.924 4.53012C22.7239 4.56927 22.4307 4.63079 22.2757 4.66994C22.1207 4.70909 21.836 4.79299 21.6415 4.85451C21.447 4.91603 21.1313 5.03069 20.9368 5.1062C20.7423 5.1817 20.4181 5.32432 20.218 5.4222C20.0179 5.52287 19.705 5.68787 19.5274 5.79413C19.3498 5.8976 19.0708 6.07378 18.9073 6.18285C18.7438 6.29471 18.4647 6.50165 18.2843 6.64427C18.1011 6.78689 17.8193 7.03018 17.6501 7.18399C17.4838 7.3378 17.2273 7.59508 17.0807 7.75727C16.9313 7.91947 16.7199 8.16556 16.61 8.30259C16.5001 8.43962 16.3197 8.68011 16.2097 8.83392C16.0998 8.98773 15.9138 9.27297 15.7954 9.47152C15.677 9.66728 15.5135 9.96091 15.429 10.1287C15.3472 10.2937 15.2175 10.565 15.1443 10.7355C15.071 10.9061 14.9498 11.2249 14.8737 11.4486C14.7947 11.6724 14.6961 11.9912 14.651 12.1618C14.6087 12.3323 14.5382 12.64 14.4988 12.8469C14.4593 13.0538 14.4058 13.3698 14.3832 13.546C14.3578 13.7222 14.3296 14.1752 14.3212 14.5528C14.3127 14.9778 14.3184 15.3861 14.3381 15.6294C14.355 15.8447 14.3888 16.1523 14.4142 16.3145C14.4368 16.4767 14.4875 16.7648 14.527 16.9577C14.5664 17.1507 14.6538 17.4975 14.7215 17.7268C14.7891 17.9589 14.9047 18.3029 14.9751 18.4958C15.0484 18.6888 15.2119 19.0579 15.3388 19.3208C15.4656 19.5836 15.6432 19.922 15.7362 20.0758C15.8264 20.2296 16.0012 20.5065 16.128 20.6911C16.2548 20.8756 16.4578 21.1525 16.5818 21.3063C16.703 21.4601 16.9088 21.7034 17.0385 21.846C17.1822 22.0026 17.2583 22.1089 17.2358 22.1173C17.2189 22.1229 17.1033 22.134 16.9821 22.1368L16.7622 22.1452C17.1681 22.4333 17.3936 22.5843 17.5261 22.6682C17.6586 22.7521 17.9179 22.9087 18.1039 23.0121C18.29 23.1184 18.6085 23.2834 18.8086 23.3785C19.0088 23.4736 19.3414 23.6162 19.5415 23.6973C19.7416 23.7756 20.0799 23.8986 20.2885 23.9658C20.4971 24.0357 20.872 24.1391 21.12 24.2007C21.3681 24.2622 21.7542 24.3433 21.9797 24.3796C22.2052 24.4188 22.5858 24.4719 22.8253 24.4971C23.127 24.5306 23.4934 24.5446 24.0092 24.5446C24.525 24.5446 24.8915 24.5306 25.1931 24.4971C25.4327 24.4719 25.8132 24.4188 26.0387 24.3796C26.2642 24.3433 26.6504 24.2622 26.8984 24.2007C27.1465 24.1391 27.5524 24.0189 27.8004 23.9378C28.0485 23.8539 28.4234 23.7141 28.632 23.6274C28.8406 23.5379 29.1591 23.3953 29.3366 23.3058C29.5142 23.2163 29.7877 23.0737 29.9427 22.9842C30.0977 22.8975 30.388 22.7157 30.591 22.5843C30.7939 22.4528 31.0843 22.2515 31.2393 22.1341C31.3943 22.0166 31.6114 21.846 31.7185 21.7565C31.8256 21.6642 32.0426 21.4741 32.1949 21.3343C32.3499 21.1972 32.612 20.9316 32.784 20.747C32.9531 20.5624 33.2096 20.266 33.3505 20.0898C33.4943 19.9136 33.686 19.6619 33.7818 19.5305C33.8748 19.3991 34.0524 19.1362 34.1736 18.9433C34.2948 18.7503 34.4978 18.3923 34.6246 18.1462C34.7543 17.9002 34.9375 17.517 35.0305 17.2933C35.1264 17.0696 35.2729 16.6865 35.3547 16.4404C35.4364 16.1943 35.5576 15.786 35.6196 15.5315C35.6816 15.277 35.7662 14.8883 35.8029 14.6646C35.8423 14.4409 35.8874 14.1333 35.9043 13.9795C35.9212 13.8257 35.9466 13.4677 35.9607 13.1825C35.9804 12.8469 35.9804 12.4806 35.9607 12.1338C35.9466 11.843 35.9071 11.4067 35.8761 11.169C35.8451 10.9313 35.8113 10.688 35.8 10.6293L35.7775 10.5258C36.5442 10.5258 36.5808 10.5202 36.5808 10.4783C36.5808 10.4503 36.5555 10.2965 36.5216 10.1343L36.4624 9.84066C35.1235 9.8071 34.6838 9.79032 34.6218 9.78193L34.5091 9.76515C34.3653 10.1455 34.3371 10.193 34.3202 10.1623C34.3061 10.1399 34.2441 10.028 34.1821 9.91896L34.1782 9.91182C34.0721 9.71755 34.0705 9.71462 33.9368 9.69804C33.8636 9.68965 33.5563 9.63372 33.2547 9.5722C32.9531 9.51347 32.5021 9.4072 32.2541 9.33729C32.006 9.26458 31.6311 9.14433 31.4225 9.06603C31.2139 8.98773 30.9095 8.86748 30.746 8.80036C30.5825 8.73045 30.3401 8.61859 30.202 8.55148C30.0667 8.48436 29.9455 8.43123 29.9314 8.43682C29.9173 8.43962 29.9934 8.57385 30.1033 8.73604C30.2105 8.89824 30.3993 9.23102 30.5205 9.47712C30.6417 9.72321 30.7883 10.0504 30.8447 10.2042C30.9039 10.358 30.9913 10.6488 31.042 10.8474C31.0927 11.0459 31.1547 11.3312 31.1801 11.4766C31.2055 11.622 31.2393 11.8989 31.2562 12.0918C31.2759 12.2988 31.2816 12.6344 31.2703 12.9168C31.2619 13.1797 31.2337 13.5236 31.2111 13.6858C31.1886 13.848 31.1378 14.1165 31.0984 14.2871C31.0589 14.4549 30.9772 14.7513 30.9123 14.9443C30.8475 15.1372 30.7347 15.4253 30.6643 15.5875C30.591 15.7497 30.4726 15.9874 30.4021 16.1188C30.3317 16.2502 30.1851 16.4879 30.078 16.6501C29.968 16.8123 29.8017 17.0444 29.7031 17.1675C29.6044 17.2905 29.3902 17.5282 29.2267 17.696C29.0604 17.861 28.8067 18.0987 28.6602 18.2218C28.5136 18.3448 28.2204 18.5601 28.0118 18.6972C27.8033 18.8342 27.4396 19.0411 27.2085 19.153C26.9745 19.2648 26.6588 19.4047 26.5038 19.4606C26.3488 19.5165 26.0556 19.606 25.8555 19.6564C25.6554 19.7067 25.3679 19.7682 25.2213 19.7934C25.0747 19.8186 24.8323 19.8493 24.6857 19.8661C24.5391 19.8801 24.2404 19.8941 24.0233 19.8941C23.8063 19.8941 23.4878 19.8801 23.3186 19.8633C23.1495 19.8465 22.8423 19.8046 22.6421 19.7682C22.442 19.7319 22.1235 19.6564 21.9374 19.6004C21.7514 19.5445 21.4723 19.4494 21.3173 19.3879C21.1623 19.3292 20.8832 19.2033 20.6972 19.1082C20.5112 19.016 20.2011 18.8342 20.0066 18.7083C19.8121 18.5797 19.5471 18.3895 19.4147 18.2833C19.2822 18.177 19.0341 17.9533 18.8622 17.7827C18.6902 17.6149 18.4535 17.3548 18.3379 17.2094C18.2195 17.064 18.025 16.7983 17.9066 16.6222C17.7882 16.446 17.5994 16.1132 17.4838 15.8811C17.3711 15.6518 17.2301 15.3358 17.1738 15.182C17.1146 15.0282 17.0272 14.7513 16.9764 14.5667C16.9257 14.3822 16.8581 14.0746 16.8242 13.8816C16.7904 13.6886 16.7538 13.3363 16.7397 13.0986C16.7256 12.8413 16.7256 12.4945 16.7397 12.2456C16.7538 12.0163 16.7848 11.7059 16.8073 11.5605C16.8327 11.4151 16.8834 11.1578 16.9257 10.9872C16.9652 10.8166 17.0554 10.5146 17.123 10.3161C17.1907 10.1175 17.3457 9.75117 17.4669 9.50508C17.5909 9.25899 17.8023 8.88706 17.9433 8.68011C18.0814 8.47317 18.3154 8.16556 18.4619 7.99497C18.6085 7.82439 18.8368 7.58669 18.9665 7.46364C19.0961 7.3378 19.3301 7.13645 19.4851 7.0162C19.6402 6.89316 19.8882 6.71418 20.0348 6.6191C20.1814 6.52681 20.4491 6.37301 20.6267 6.28072C20.8043 6.18564 21.0918 6.05421 21.2609 5.98429C21.4301 5.91718 21.7176 5.8165 21.8952 5.76337C22.0727 5.70744 22.3856 5.63194 22.5858 5.59279C22.7859 5.55363 23.0988 5.50889 23.2763 5.48932C23.4878 5.46694 23.8175 5.46135 24.2206 5.47254C24.5617 5.48372 24.945 5.50609 25.0719 5.52567C25.2015 5.54524 25.303 5.55084 25.2974 5.53965C25.2946 5.52567 25.0691 5.38864 24.7985 5.23483C24.5279 5.07823 24.091 4.84053 23.826 4.7063Z" fill="#C9E00C"/>
<path fill-rule="evenodd" clip-rule="evenodd" d="M0.959638 26.692C0.985007 26.6892 1.07521 26.7032 1.15695 26.72C1.23588 26.7368 1.35144 26.7759 1.41064 26.8039C1.46701 26.8346 1.57131 26.9129 1.64178 26.9828C1.71224 27.0528 1.79962 27.1758 1.83627 27.2541C1.87291 27.3352 1.91237 27.4638 1.92365 27.5421C1.93774 27.6372 1.92647 27.7407 1.89828 27.8637C1.87291 27.9644 1.82217 28.0903 1.78553 28.1434C1.74889 28.1965 1.67842 28.2832 1.62486 28.3336C1.57131 28.3867 1.46701 28.4594 1.38809 28.5013C1.28098 28.5545 1.19359 28.574 1.02165 28.5852C0.835614 28.5936 0.765145 28.5852 0.627026 28.5321C0.50582 28.4874 0.412802 28.4258 0.300052 28.314C0.190121 28.2049 0.12529 28.1098 0.0830085 27.9952C0.0435461 27.8917 0.0209961 27.7715 0.0209961 27.654C0.0209961 27.5366 0.0435461 27.4163 0.0830085 27.31C0.122471 27.2094 0.195758 27.0975 0.285958 27.0024C0.364883 26.9213 0.480452 26.829 0.542464 26.7983C0.604477 26.7703 0.711589 26.734 0.782058 26.72C0.852526 26.706 0.931451 26.6948 0.959638 26.692ZM5.68668 28.6496C5.91781 28.6468 6.16304 28.6635 6.3068 28.6887C6.43928 28.7111 6.63659 28.7586 6.74371 28.795C6.85364 28.8313 7.00585 28.8956 7.08195 28.9348C7.16088 28.9739 7.26799 29.0355 7.4202 29.1417L7.68798 28.9991C7.83456 28.9236 8.05724 28.8257 8.18127 28.7838C8.30529 28.7418 8.51388 28.6915 8.64636 28.6747C8.79857 28.6524 9.03816 28.644 9.30876 28.6551C9.60473 28.6635 9.79923 28.6859 9.95708 28.7279C10.0811 28.7586 10.3038 28.8453 10.4504 28.9152C10.6674 29.0215 10.7576 29.0858 10.9295 29.2592C11.0818 29.413 11.172 29.5305 11.2452 29.6815C11.3016 29.7961 11.3721 29.9667 11.3975 30.059C11.4426 30.21 11.4482 30.4113 11.4566 32.2179C11.4651 34.0971 11.4623 34.2118 11.4172 34.223C11.389 34.2314 11.2847 34.2509 11.1832 34.2705C11.0818 34.2873 10.8422 34.3041 10.6477 34.3041C10.4475 34.3041 10.222 34.2901 10.1262 34.2677C10.0247 34.2453 9.91198 34.195 9.84433 34.1447C9.77668 34.0915 9.69775 33.9909 9.56245 33.7224L9.54836 32.1284C9.53426 30.6043 9.53144 30.5288 9.47789 30.4253C9.44688 30.3638 9.37641 30.2855 9.32286 30.2519C9.2693 30.2156 9.16219 30.1736 9.08326 30.1541C9.00152 30.1345 8.87186 30.1289 8.7732 30.1373C8.67173 30.1485 8.53361 30.1876 8.25173 30.3247V32.2682C8.25173 34.0943 8.24891 34.2118 8.20382 34.2258C8.17563 34.2314 8.0657 34.2509 7.95577 34.2705C7.84583 34.2873 7.60624 34.3041 7.4202 34.3041C7.23417 34.3041 7.00585 34.2873 6.91283 34.2677C6.81136 34.2453 6.69861 34.195 6.63096 34.1447C6.56331 34.0915 6.48438 33.9909 6.34908 33.7224L6.33499 32.1144C6.32371 30.9651 6.31244 30.4896 6.28707 30.4505C6.27016 30.4197 6.21942 30.361 6.17432 30.3219C6.13204 30.2799 6.05029 30.224 5.99674 30.196C5.92345 30.1569 5.83325 30.1457 5.64439 30.1429C5.41889 30.1429 5.37098 30.1513 5.03554 30.3107L5.03836 32.2598C5.03836 34.0971 5.03555 34.2118 4.99045 34.223C4.96226 34.2314 4.8636 34.2481 4.77058 34.2649C4.67756 34.2789 4.50562 34.2985 4.39005 34.3069C4.27448 34.3181 4.06026 34.3125 3.91932 34.2957C3.74174 34.2761 3.61208 34.2453 3.51624 34.1978C3.44014 34.1587 3.3443 34.0859 3.30765 34.0356C3.26819 33.9881 3.21464 33.8902 3.18645 33.8203C3.13853 33.7028 3.13571 33.5602 3.13571 31.7649C3.13571 29.8744 3.13571 29.8325 3.1949 29.7094C3.22591 29.6395 3.30202 29.5277 3.36403 29.4605C3.42322 29.3934 3.54443 29.29 3.62899 29.234C3.71355 29.1753 3.87422 29.0858 3.98133 29.0327C4.09127 28.9767 4.29421 28.8956 4.43233 28.8481C4.57327 28.8034 4.7875 28.7446 4.91152 28.7195C5.03555 28.6971 5.17648 28.6719 5.22158 28.6663C5.2695 28.6607 5.47809 28.6524 5.68668 28.6496ZM15.1097 28.6524C15.4649 28.6468 15.6566 28.6607 15.899 28.6999C16.0709 28.7307 16.3133 28.7866 16.4346 28.8257C16.5529 28.8677 16.7503 28.946 16.8715 29.0075C16.9898 29.0662 17.1843 29.1893 17.2999 29.2788C17.4155 29.3711 17.5846 29.5388 17.6748 29.6535C17.7678 29.7682 17.889 29.9583 17.9482 30.073C18.0074 30.1876 18.0807 30.3638 18.1145 30.4645C18.1484 30.5652 18.1935 30.7581 18.216 30.8979C18.2386 31.0378 18.2583 31.3202 18.2583 31.5271C18.2583 31.7341 18.2442 31.9942 18.2301 32.1004C18.2132 32.2067 18.1765 32.3969 18.1455 32.5199C18.1117 32.643 18.0243 32.8695 17.9482 33.0233C17.8693 33.1771 17.7396 33.384 17.6579 33.4847C17.5761 33.5854 17.4324 33.728 17.3422 33.8007C17.2492 33.8762 17.097 33.9769 17.0039 34.03C16.9109 34.0803 16.7277 34.1614 16.5952 34.2062C16.4627 34.2509 16.2231 34.3125 16.0597 34.3376C15.8313 34.3768 15.665 34.3824 15.3409 34.3712C15.0562 34.3628 14.8561 34.3404 14.5404 34.2537L14.5234 36.0994L14.3543 36.1386C14.25 36.1609 13.9963 36.1777 13.6919 36.1805C13.2212 36.1833 13.1902 36.1805 13.0464 36.1134C12.959 36.0743 12.8519 35.9959 12.7984 35.9316C12.7476 35.8701 12.6913 35.7638 12.6715 35.6939C12.6433 35.596 12.6349 34.9165 12.6349 29.7234L12.711 29.5696C12.7561 29.4773 12.8491 29.3571 12.9506 29.2648C13.0408 29.1837 13.2099 29.069 13.3255 29.0103C13.441 28.9516 13.6384 28.8733 13.7624 28.8341C13.8864 28.795 14.0894 28.7446 14.2134 28.7195C14.3374 28.6971 14.484 28.6719 14.5375 28.6663C14.5911 28.6607 14.8476 28.6524 15.1097 28.6524ZM14.7179 30.2184L14.5432 30.2799L14.5375 32.7296C14.7236 32.8135 14.8589 32.8527 14.9603 32.8695C15.0985 32.8946 15.1971 32.8946 15.355 32.8695C15.4705 32.8527 15.6312 32.8107 15.7073 32.7744C15.7862 32.7408 15.8962 32.6653 15.9554 32.6094C16.0117 32.5535 16.0907 32.4416 16.1301 32.3661C16.1696 32.2878 16.2231 32.148 16.2485 32.0501C16.2823 31.927 16.2936 31.7704 16.2936 31.5132C16.2936 31.3118 16.2795 31.0909 16.2598 31.0154C16.2429 30.9427 16.2034 30.8168 16.1752 30.7357C16.1442 30.6574 16.0625 30.526 15.9948 30.4505C15.9103 30.3554 15.8144 30.2855 15.6904 30.2296C15.541 30.1625 15.4649 30.1457 15.2563 30.1401C15.1154 30.1345 14.9773 30.1373 14.9463 30.1457C14.9152 30.1541 14.811 30.1876 14.7179 30.2184ZM21.7394 28.6496C21.9508 28.6468 22.2073 28.6635 22.3455 28.6887C22.4779 28.7111 22.6809 28.7614 22.7965 28.8006C22.912 28.8397 23.1037 28.9236 23.2193 28.9851C23.3348 29.0495 23.5124 29.1641 23.6111 29.2452C23.7126 29.3235 23.8535 29.4633 23.9296 29.5556C24.0057 29.6479 24.1156 29.8185 24.1748 29.9331C24.2368 30.0478 24.3158 30.238 24.3496 30.3526C24.4031 30.526 24.4172 30.6267 24.4172 30.9259C24.4172 31.2447 24.4088 31.3034 24.3552 31.4013C24.3242 31.4628 24.2594 31.5467 24.2143 31.5859C24.172 31.6278 24.0846 31.6865 24.0226 31.7173C23.9606 31.7481 23.8535 31.7872 23.783 31.8068C23.7126 31.8236 23.0389 31.927 22.2863 32.0389C21.5308 32.1508 20.9051 32.2458 20.8938 32.2542C20.8854 32.2626 20.8825 32.2934 20.891 32.3242C20.8994 32.3549 20.953 32.4416 21.015 32.5199C21.0911 32.6178 21.1813 32.6905 21.3194 32.7632C21.4266 32.8191 21.5957 32.8862 21.6972 32.9142C21.8296 32.9506 21.9847 32.9645 22.2609 32.9645C22.4695 32.9645 22.7175 32.9478 22.8106 32.9282C22.9036 32.9086 23.0671 32.8667 23.177 32.8359C23.2869 32.8051 23.4673 32.738 23.783 32.5898L23.9127 32.7073C23.9832 32.7744 24.0734 32.889 24.11 32.9673C24.1466 33.0428 24.1861 33.1771 24.1974 33.261C24.2087 33.3635 24.1993 33.4661 24.1692 33.5686C24.141 33.6637 24.0818 33.7699 24.0142 33.8482C23.9522 33.9209 23.8225 34.016 23.7097 34.0776C23.6026 34.1335 23.4335 34.2062 23.332 34.237C23.2306 34.2677 23.0276 34.3125 22.881 34.3348C22.7345 34.3572 22.4808 34.3852 22.3173 34.3964C22.1482 34.4047 21.8804 34.3991 21.6972 34.3824C21.5196 34.3628 21.2715 34.3264 21.1475 34.2985C21.0235 34.2677 20.8205 34.2062 20.6965 34.1587C20.5725 34.1111 20.3723 34.016 20.254 33.9461C20.1327 33.8762 19.9383 33.728 19.8199 33.6161C19.7015 33.5071 19.5493 33.3393 19.4844 33.247C19.4168 33.1547 19.3238 32.9981 19.273 32.8974C19.2223 32.7968 19.1518 32.6346 19.118 32.5339C19.0842 32.4332 19.0334 32.2207 19.0052 32.0585C18.9658 31.8264 18.9573 31.6698 18.9714 31.3034C18.9827 30.9651 19.0024 30.7777 19.0475 30.6043C19.0785 30.4729 19.1546 30.2659 19.2138 30.1429C19.2702 30.0198 19.3604 29.8548 19.414 29.7793C19.4675 29.701 19.5549 29.5864 19.6085 29.5193C19.6648 29.4521 19.7973 29.3291 19.9072 29.2424C20.0172 29.1585 20.1807 29.0467 20.2737 28.9935C20.3667 28.9432 20.5556 28.8621 20.6965 28.8145C20.8374 28.767 21.046 28.7111 21.1616 28.6887C21.2772 28.6691 21.5393 28.6496 21.7394 28.6496ZM21.2602 30.1401C21.1813 30.1764 21.0601 30.2743 20.984 30.3582C20.8938 30.4589 20.8318 30.5624 20.7923 30.6742C20.7641 30.7665 20.7388 30.8756 20.7388 30.9175C20.7388 30.9846 20.7472 30.993 20.8036 30.9818C20.8374 30.9762 21.2602 30.9063 21.7394 30.828C22.2186 30.7497 22.6161 30.6798 22.6217 30.6742C22.6245 30.6658 22.6132 30.6183 22.5963 30.568C22.5822 30.5204 22.5202 30.4169 22.4639 30.3414C22.4075 30.2659 22.3088 30.1764 22.2468 30.1401C22.1848 30.1065 22.058 30.0646 21.9649 30.0478C21.8719 30.031 21.7704 30.017 21.7394 30.0198C21.7084 30.0226 21.621 30.0338 21.5421 30.0478C21.466 30.0618 21.3392 30.1009 21.2602 30.1401ZM28.0534 28.6607C28.2874 28.6691 28.4706 28.6887 28.5608 28.7167C28.6397 28.7418 28.7525 28.7894 28.8145 28.8257C28.8765 28.8621 28.9554 28.9236 28.9892 28.96C29.0231 28.9935 29.0794 29.0858 29.1133 29.1641C29.164 29.2732 29.1781 29.3543 29.1753 29.5277C29.1753 29.6982 29.1584 29.7961 29.0343 30.1149L28.6848 30.1345C28.4734 30.1457 28.1718 30.1848 27.9266 30.2352C27.7011 30.2827 27.4671 30.3386 27.2924 30.4002L27.2783 34.2118L27.1599 34.2397C27.0922 34.2537 26.8921 34.2789 26.7145 34.2957C26.489 34.3153 26.3143 34.3181 26.1367 34.2957C25.9732 34.2789 25.8294 34.2425 25.7364 34.1978C25.6547 34.1587 25.556 34.0859 25.5166 34.0356C25.4771 33.9881 25.4264 33.8818 25.3982 33.8063C25.3559 33.6804 25.3502 33.4791 25.339 31.9326C25.3333 30.979 25.3418 30.1037 25.3559 29.9891C25.37 29.8744 25.4066 29.7234 25.4404 29.6535C25.4743 29.5836 25.5673 29.4605 25.649 29.3794C25.7392 29.29 25.8914 29.1837 26.038 29.1082C26.1705 29.0411 26.4101 28.9432 26.5736 28.8873C26.7371 28.8341 27.0105 28.767 27.1796 28.7334C27.3487 28.7027 27.5348 28.6719 27.5883 28.6635C27.6419 28.6579 27.8533 28.6551 28.0534 28.6607ZM30.9285 28.7978C31.2273 28.8034 31.357 28.8201 31.4641 28.8593C31.5487 28.8901 31.6473 28.9572 31.7122 29.0243C31.7714 29.0858 31.839 29.1921 31.8672 29.262C31.9095 29.3766 31.9151 29.6088 31.9292 34.2118L31.8531 34.2258C31.808 34.2314 31.684 34.2537 31.5769 34.2705C31.4697 34.2873 31.233 34.3041 31.0554 34.3041C30.8778 34.3041 30.6692 34.2901 30.5903 34.2733C30.5142 34.2537 30.393 34.2034 30.3225 34.1614C30.238 34.1083 30.1675 34.0328 30.0265 33.7783L30.0125 28.8705L30.2746 28.8313C30.4353 28.8062 30.6805 28.7922 30.9285 28.7978ZM34.0292 28.7978C34.2857 28.8062 34.4943 28.8229 34.5619 28.8453C34.6239 28.8677 34.7282 28.9348 34.7959 28.9963C34.8804 29.069 34.9396 29.1585 34.9763 29.2536C35.027 29.3934 35.0298 29.4885 35.0298 30.7497C35.0298 31.5411 35.0411 32.1759 35.058 32.2822C35.0777 32.3885 35.12 32.5171 35.1651 32.5898C35.2187 32.6765 35.2891 32.7408 35.3963 32.7996C35.5372 32.8751 35.5823 32.8834 35.8614 32.8918C36.0333 32.8974 36.2278 32.889 36.2983 32.8723C36.3687 32.8527 36.4617 32.8247 36.583 32.7716L36.5801 28.8705L36.7718 28.8341C36.8761 28.8173 37.1693 28.8006 37.4258 28.8006C37.7189 28.8006 37.9275 28.8145 37.9895 28.8341C38.0431 28.8537 38.1417 28.9068 38.2094 28.9544C38.2883 29.0103 38.3531 29.0886 38.4828 29.3599V33.3309L38.4067 33.4847C38.3672 33.5686 38.2714 33.6944 38.1953 33.7643C38.1192 33.8343 37.95 33.9433 37.8204 34.0076C37.6879 34.072 37.499 34.1503 37.3976 34.1838C37.2961 34.2174 37.1016 34.2677 36.9607 34.2985C36.8197 34.3264 36.5548 34.3628 36.3687 34.3824C36.1714 34.3991 35.8895 34.4047 35.6922 34.3964C35.5062 34.3852 35.2469 34.3572 35.1144 34.3348C34.9819 34.3125 34.7846 34.2677 34.6775 34.2342C34.5704 34.2034 34.3843 34.1307 34.2688 34.072C34.1532 34.0132 33.9812 33.9098 33.8882 33.8398C33.7952 33.7727 33.6599 33.6413 33.5866 33.5518C33.5162 33.4595 33.4062 33.2806 33.3442 33.1491C33.2822 33.0177 33.2089 32.8163 33.1807 32.7017C33.1384 32.5171 33.13 32.2822 33.1215 30.7022C33.1159 29.7178 33.1215 28.904 33.1328 28.8901C33.1441 28.8789 33.2568 28.8509 33.3809 28.8285C33.5331 28.8034 33.7445 28.7922 34.0292 28.7978ZM22.0072 37.1705C22.0608 37.1761 22.1622 37.1984 22.2327 37.2208C22.3032 37.2432 22.3906 37.2851 22.5005 37.3634L22.3737 37.5396L22.2412 37.4641C22.1566 37.4194 22.0495 37.3858 21.9508 37.3774C21.8212 37.369 21.7704 37.3802 21.6436 37.4473C21.5421 37.4977 21.4745 37.5592 21.4406 37.6235C21.4096 37.6766 21.3871 37.7549 21.3871 37.7969C21.3871 37.8416 21.4181 37.9088 21.4519 37.9507C21.4886 37.9954 21.6267 38.0849 21.7563 38.1548C21.886 38.222 22.0354 38.317 22.089 38.3646C22.1397 38.4093 22.2017 38.4848 22.2271 38.5324C22.2496 38.5799 22.2694 38.6722 22.2722 38.7421C22.2722 38.826 22.2496 38.9155 22.2017 39.0078C22.1538 39.1057 22.089 39.1756 21.9931 39.2399C21.9142 39.2902 21.8014 39.3461 21.7394 39.3629C21.6774 39.3769 21.5506 39.3853 21.4576 39.3769C21.3645 39.3713 21.2264 39.3378 21.1475 39.307C21.0714 39.2734 20.9756 39.2147 20.8656 39.1029L21.0178 38.9518L21.0827 39.0134C21.1193 39.0469 21.1954 39.0945 21.2546 39.1168C21.311 39.142 21.435 39.1616 21.528 39.1616C21.6408 39.1616 21.7347 39.1429 21.8099 39.1057C21.8719 39.0749 21.948 39.0078 21.979 38.9574C22.0129 38.9043 22.0354 38.8176 22.0354 38.7477C22.0354 38.6638 22.0157 38.6079 21.9706 38.5519C21.9339 38.51 21.7958 38.4205 21.6661 38.3534C21.5365 38.2863 21.3899 38.2024 21.3448 38.1688C21.2997 38.1325 21.2377 38.0598 21.2123 38.0038C21.1841 37.9479 21.1616 37.85 21.1616 37.7829C21.1616 37.7186 21.1898 37.6095 21.2264 37.5396C21.2602 37.4725 21.3392 37.3802 21.4012 37.3355C21.4632 37.2907 21.5449 37.2432 21.5844 37.2264C21.6239 37.2124 21.7112 37.1901 21.7817 37.1789C21.8522 37.1677 21.9537 37.1621 22.0072 37.1705ZM17.1421 37.204H17.2492C17.3168 37.204 17.3563 37.218 17.3563 37.2376C17.3563 37.2572 17.3225 37.4305 17.2858 37.6235C17.2464 37.8165 17.2153 37.9871 17.2153 38.001C17.2153 38.015 17.2492 37.9954 17.2915 37.9563C17.3366 37.9143 17.4098 37.8612 17.4549 37.8388C17.5 37.8165 17.5846 37.7885 17.6382 37.7773C17.6945 37.7661 17.8016 37.7717 17.8918 37.7941C18.0018 37.8193 18.0751 37.8584 18.1483 37.9283C18.2188 38.001 18.2583 38.0737 18.2837 38.1828C18.309 38.2807 18.3147 38.4009 18.3034 38.5184C18.2949 38.6191 18.2526 38.7701 18.2132 38.854C18.1737 38.9379 18.0892 39.0609 18.0243 39.128C17.9595 39.1951 17.8552 39.2762 17.7932 39.307C17.7312 39.3378 17.6184 39.3713 17.5395 39.3797C17.4465 39.3909 17.3563 39.3797 17.2717 39.3489C17.2013 39.3266 17.1111 39.2678 17.0688 39.2203C17.018 39.1644 16.9842 39.1476 16.9786 39.1672C16.9729 39.1867 16.9588 39.2371 16.9504 39.279C16.9363 39.3461 16.9194 39.3573 16.8348 39.3573C16.7813 39.3573 16.7362 39.3489 16.7362 39.335C16.7362 39.3238 16.8264 38.84 16.9391 38.2583L17.1421 37.204ZM17.5451 38.001C17.5029 38.0094 17.4155 38.0654 17.3478 38.1241C17.2802 38.1856 17.1984 38.2975 17.1618 38.3842C17.1251 38.4653 17.0885 38.6107 17.08 38.7002C17.0716 38.8204 17.08 38.9015 17.1139 38.9742C17.1364 39.0329 17.1984 39.1029 17.2492 39.1336C17.2999 39.1644 17.3929 39.1923 17.4549 39.1923C17.5198 39.1923 17.6212 39.1644 17.6945 39.1252C17.7622 39.0917 17.8637 39.005 17.9144 38.9379C17.9651 38.8679 18.0271 38.7505 18.0497 38.6722C18.0694 38.5967 18.0892 38.4764 18.0892 38.4065C18.0892 38.3394 18.0666 38.2387 18.0384 38.1856C18.0131 38.1325 17.9567 38.0682 17.92 38.0402C17.8806 38.015 17.8101 37.9871 17.765 37.9787C17.7171 37.9703 17.6663 37.9675 17.6523 37.9731C17.6353 37.9787 17.5874 37.9898 17.5451 38.001ZM26.7794 37.204H26.8865C26.9457 37.204 26.9964 37.2152 26.9964 37.2264C26.9964 37.2376 26.9203 37.6319 26.8273 38.0989C26.7343 38.5687 26.6581 38.9854 26.6581 39.0218C26.6553 39.0609 26.6722 39.1084 26.692 39.128C26.7117 39.1476 26.7512 39.1644 26.7765 39.1644C26.8075 39.1644 26.8273 39.184 26.8273 39.2175C26.8273 39.2483 26.8188 39.293 26.8132 39.3154C26.8047 39.3434 26.7624 39.3573 26.7004 39.3573C26.6356 39.3573 26.5708 39.335 26.5172 39.2874C26.4467 39.2315 26.4326 39.1979 26.4326 39.1001C26.4326 39.0357 26.5088 38.5827 26.6046 38.0933L26.7794 37.204ZM27.7856 37.204L27.7687 37.3075C27.7575 37.3662 27.7462 37.4222 27.7405 37.4333C27.7349 37.4473 27.6785 37.4557 27.5038 37.4557L27.5207 37.3495C27.5291 37.2935 27.5432 37.2376 27.5489 37.2236C27.5573 37.2124 27.6137 37.204 27.7856 37.204ZM23.1206 37.3718C23.1742 37.3718 23.2193 37.3802 23.2193 37.3914C23.2165 37.4054 23.1995 37.4949 23.177 37.5955C23.1544 37.6962 23.1375 37.7857 23.1347 37.7969C23.1347 37.8109 23.2193 37.8193 23.5152 37.8193L23.5012 37.9115C23.4842 38.001 23.4842 38.001 23.0924 38.029L23.0163 38.4205C22.974 38.6358 22.9402 38.8596 22.9402 38.9155C22.9374 38.9938 22.9571 39.0413 23.0079 39.0917C23.0558 39.1392 23.1093 39.1616 23.177 39.1616C23.2559 39.1616 23.2757 39.1728 23.2757 39.2175C23.2757 39.2483 23.27 39.293 23.2616 39.3154C23.2522 39.3434 23.2099 39.3573 23.1347 39.3573C23.0727 39.3573 22.974 39.335 22.9177 39.307C22.8472 39.2734 22.7993 39.2259 22.7626 39.1476C22.7373 39.0861 22.7119 38.991 22.7119 38.9379C22.7119 38.8847 22.7429 38.6834 22.7824 38.4904C22.8218 38.2975 22.8585 38.1129 22.8669 38.0765C22.8782 38.0206 22.8698 38.015 22.7824 38.015C22.7232 38.015 22.6837 38.001 22.6837 37.9787C22.6837 37.9619 22.6894 37.9171 22.6978 37.8808C22.7091 37.8332 22.7345 37.8165 22.9205 37.8053L22.9571 37.6235C22.9769 37.5228 22.9994 37.425 23.0079 37.4054C23.0135 37.3886 23.0642 37.3718 23.1206 37.3718ZM24.5018 37.7661C24.5497 37.7661 24.6371 37.7773 24.6991 37.7941C24.7611 37.8109 24.8485 37.8528 24.8936 37.8864C24.9415 37.9171 25.0007 37.9954 25.0289 38.057C25.0571 38.1213 25.0796 38.2359 25.0796 38.3226C25.0796 38.4065 25.074 38.5044 25.0656 38.538C25.0515 38.6023 25.0515 38.6023 23.8394 38.6023V38.7058C23.8394 38.7645 23.8676 38.8679 23.9014 38.9351C23.9381 39.005 24.0029 39.0861 24.0452 39.1168C24.11 39.1644 24.1692 39.1756 24.3299 39.1756C24.4962 39.1756 24.561 39.1616 24.685 39.0973C24.7696 39.0553 24.8429 39.0246 24.8429 39.0273C24.8457 39.0329 24.8626 39.0665 24.8823 39.1057C24.9133 39.1672 24.9105 39.1812 24.8654 39.2147C24.8344 39.2343 24.7555 39.279 24.685 39.3126C24.5864 39.3573 24.5046 39.3713 24.3186 39.3713C24.1297 39.3713 24.0536 39.3573 23.9662 39.3126C23.9042 39.279 23.8168 39.2091 23.7689 39.156C23.7238 39.1001 23.6675 39.0078 23.6505 38.949C23.6308 38.8875 23.6139 38.7896 23.6139 38.7281C23.6139 38.6666 23.6336 38.5464 23.659 38.4625C23.6815 38.3786 23.7464 38.2443 23.7971 38.1688C23.8507 38.0905 23.9268 38.0038 23.9719 37.9703C24.0142 37.9395 24.0959 37.8892 24.1495 37.8612C24.203 37.8332 24.2876 37.7997 24.3327 37.7885C24.3806 37.7773 24.4567 37.7689 24.5018 37.7661ZM24.0339 38.1884C23.9944 38.2387 23.9465 38.3086 23.9296 38.3422L23.8958 38.4065H24.8541C24.8541 38.1828 24.8372 38.1353 24.778 38.0682C24.7104 37.9954 24.6737 37.9787 24.5441 37.9675C24.4201 37.9563 24.3609 37.9675 24.2481 38.0262C24.172 38.0626 24.0734 38.1353 24.0339 38.1884ZM28.9695 37.7661C29.009 37.7633 29.0879 37.7773 29.1471 37.7913C29.2035 37.8081 29.2824 37.8556 29.3219 37.9032C29.3613 37.9507 29.4008 38.0346 29.4092 38.0905C29.4205 38.1604 29.3923 38.3814 29.3247 38.7281C29.2655 39.0218 29.2147 39.2818 29.2091 39.307C29.1978 39.3434 29.1668 39.3573 29.0964 39.3573C29.0174 39.3573 28.9977 39.3461 28.9977 39.3014C28.9977 39.2706 29.0372 39.0469 29.0823 38.8036C29.1302 38.5631 29.1725 38.331 29.1809 38.2863C29.1894 38.2443 29.1837 38.1744 29.1668 38.1269C29.1527 38.0793 29.1133 38.029 29.0823 38.015C29.0513 38.001 28.9723 37.9871 28.9075 37.9871C28.8314 37.9871 28.7299 38.015 28.6341 38.0626C28.5495 38.1073 28.4509 38.1772 28.4114 38.2248C28.3748 38.2723 28.3184 38.3562 28.2902 38.4121C28.2592 38.4708 28.1972 38.703 28.1521 38.9295C28.1042 39.1588 28.0675 39.3461 28.0675 39.3489C28.0675 39.3545 28.0168 39.3573 27.9548 39.3573C27.8617 39.3573 27.8448 39.3489 27.8561 39.307C27.8617 39.2818 27.9266 38.9574 27.997 38.5883C28.0675 38.2192 28.1323 37.8948 28.1408 37.8668C28.1493 37.8332 28.1803 37.8193 28.3494 37.8193L28.3353 37.9647C28.324 38.0765 28.3268 38.1017 28.3494 38.0626C28.3635 38.0374 28.4368 37.9759 28.5129 37.9255C28.5862 37.8752 28.7017 37.8193 28.7722 37.7997C28.8427 37.7829 28.9301 37.7661 28.9695 37.7661ZM26.272 37.7913C26.3735 37.7913 26.3763 37.7941 26.3594 37.8808C26.3481 37.9311 26.3368 37.9815 26.3312 37.9926C26.3255 38.0066 26.2833 38.015 26.2353 38.015C26.1902 38.015 26.1169 38.0318 26.0747 38.0542C26.0296 38.0765 25.9563 38.1353 25.9055 38.1884C25.8576 38.2387 25.7843 38.3422 25.7477 38.4205C25.7082 38.496 25.6659 38.6051 25.649 38.6582C25.6321 38.7113 25.5983 38.8679 25.5729 39.0078C25.5476 39.1476 25.5222 39.2818 25.5137 39.307C25.5053 39.3434 25.4743 39.3573 25.4038 39.3573C25.3192 39.3573 25.3051 39.3489 25.3051 39.293C25.3051 39.2595 25.3643 38.9351 25.4348 38.5743C25.5053 38.2136 25.5673 37.8948 25.5757 37.8668C25.5842 37.8332 25.6152 37.8193 25.7843 37.8193L25.7505 38.1129L25.8323 38.015C25.8774 37.9619 25.9704 37.8892 26.0408 37.8556C26.1085 37.8193 26.2128 37.7913 26.272 37.7913ZM27.4333 37.8193H27.5376C27.5968 37.8193 27.6447 37.8332 27.6447 37.8472C27.6447 37.8612 27.5771 38.208 27.3487 39.3573H27.2444C27.1571 39.3573 27.1402 39.3489 27.1458 39.307C27.1514 39.2818 27.2191 38.9351 27.2952 38.538L27.4333 37.8193Z" fill="white"/>
<path d="M23.3312 1.72749C23.0832 1.69393 22.7224 1.67715 22.1192 1.67156C21.5216 1.66596 21.1552 1.67435 20.9212 1.70232C20.7352 1.72189 20.4618 1.76105 20.3152 1.78621C20.1686 1.81138 19.8952 1.86731 19.7091 1.91206C19.5231 1.954 19.23 2.0351 19.0608 2.09103C18.8917 2.14417 18.5929 2.25323 18.3984 2.33153C18.2039 2.40983 17.8939 2.55525 17.7078 2.65033C17.5218 2.74541 17.2371 2.90481 17.0793 3.00549C16.9186 3.10336 16.6339 3.29912 16.445 3.43894C16.2562 3.57877 15.9799 3.79969 15.8334 3.93113C15.6868 4.06256 15.4303 4.30865 15.264 4.47924C15.0949 4.65262 14.8355 4.94625 14.6833 5.13362C14.5311 5.32378 14.2859 5.65936 14.1365 5.88308C13.9871 6.1068 13.787 6.4256 13.6883 6.59618C13.5896 6.76677 13.4008 7.13032 13.2655 7.40717C13.1302 7.68402 12.9498 8.08672 12.8652 8.30205C12.7807 8.51738 12.6566 8.86414 12.5918 9.07108C12.527 9.27802 12.4283 9.64436 12.3691 9.88207C12.3099 10.1198 12.2338 10.4721 12.2 10.6651C12.169 10.858 12.1211 11.1796 12.0957 11.3782C12.0732 11.5767 12.045 12.0382 12.0365 12.3989C12.0281 12.8044 12.0337 13.2211 12.0534 13.4895C12.0732 13.7272 12.107 14.0684 12.1295 14.2446C12.1521 14.4208 12.2141 14.7787 12.2677 15.0416C12.3212 15.3045 12.4171 15.6932 12.4791 15.9085C12.5439 16.1238 12.6285 16.3951 12.6679 16.5098C12.7074 16.6244 12.7976 16.8649 12.8652 17.0411C12.9357 17.2173 13.0992 17.5836 13.2317 17.8521C13.3613 18.1205 13.5812 18.5288 13.7221 18.7609C13.8602 18.9902 13.9927 19.2056 14.0153 19.2363C14.0378 19.2671 14.0632 19.2867 14.0717 19.2783C14.0801 19.2699 14.0463 19.1692 13.9984 19.0546C13.9533 18.9399 13.8518 18.6575 13.7729 18.4254C13.6968 18.196 13.5896 17.8297 13.5361 17.6144C13.4825 17.399 13.4064 17.0523 13.3698 16.8453C13.3303 16.6384 13.2768 16.286 13.2486 16.0623C13.2119 15.7519 13.1978 15.4527 13.1978 14.7899C13.1978 14.1271 13.2119 13.8279 13.2486 13.5175C13.2768 13.2938 13.3303 12.9414 13.3698 12.7345C13.4064 12.5275 13.4769 12.2004 13.5248 12.0074C13.5727 11.8144 13.6686 11.4817 13.739 11.2663C13.8095 11.051 13.9307 10.7182 14.0068 10.5253C14.0829 10.3323 14.2323 9.99952 14.3366 9.78419C14.4409 9.56886 14.6072 9.25565 14.7031 9.08506C14.8017 8.91448 14.9849 8.62085 15.1118 8.42789C15.2386 8.23493 15.4303 7.96367 15.5374 7.82664C15.6445 7.68961 15.8249 7.4603 15.9433 7.32327C16.0589 7.18625 16.3097 6.91499 16.4958 6.72482C16.6818 6.53466 16.9665 6.2634 17.13 6.12078C17.2935 5.98096 17.5528 5.76563 17.7078 5.64538C17.8629 5.52513 18.187 5.29861 18.4266 5.14201C18.6662 4.9854 18.9763 4.79245 19.1172 4.71414C19.2581 4.63584 19.5682 4.47924 19.8078 4.36458C20.0474 4.24993 20.4279 4.08493 20.6534 4.00104C20.8789 3.91714 21.1354 3.82486 21.2256 3.7941C21.313 3.76613 21.3863 3.73817 21.3863 3.72978C21.3863 3.72139 21.2115 3.67385 21.0001 3.62351C20.7859 3.57317 20.4899 3.51165 20.3434 3.48928C20.1883 3.46411 19.8219 3.43894 19.4696 3.43055C19.0101 3.41937 18.779 3.42776 18.5196 3.46131C18.328 3.48648 18.0038 3.54801 17.8009 3.60114C17.5951 3.65427 17.2935 3.74935 17.13 3.81367C16.9665 3.87799 16.6903 4.00383 16.5183 4.09612C16.3436 4.18561 16.1857 4.26111 16.1716 4.26111C16.1575 4.26111 16.2111 4.20239 16.2928 4.13247C16.3718 4.06256 16.5522 3.91994 16.6931 3.81367C16.834 3.7102 17.0539 3.5564 17.1864 3.4697C17.3189 3.38581 17.5669 3.24039 17.736 3.14531C17.9051 3.05023 18.1786 2.916 18.3421 2.84609C18.5055 2.77338 18.779 2.66711 18.9481 2.60559C19.1172 2.54406 19.3906 2.46017 19.5541 2.41543C19.7176 2.37068 19.9769 2.30916 20.132 2.2784C20.287 2.24764 20.5801 2.20009 20.7803 2.17213C21.0509 2.13857 21.3525 2.12459 21.9219 2.12459C22.3813 2.12179 22.8239 2.13578 23.0071 2.15815C23.1762 2.17772 23.475 2.21967 23.6695 2.25043C23.864 2.28119 24.1938 2.34272 24.4024 2.39026C24.6109 2.435 24.9858 2.53008 25.2339 2.59999C25.4819 2.6727 25.9076 2.80973 26.1782 2.90481C26.4488 3.00269 26.8631 3.16489 27.0943 3.26276C27.3282 3.36064 27.5819 3.4753 27.658 3.51165C27.7369 3.5508 28.0836 3.67944 28.4332 3.7941C28.7827 3.90875 29.2196 4.06815 29.4056 4.14925C29.5917 4.23035 29.7721 4.30586 29.8087 4.31984C29.8425 4.33382 29.8651 4.33662 29.8594 4.32263C29.8538 4.31145 29.6678 4.1884 29.4451 4.04578C29.2224 3.90596 28.8813 3.69902 28.6869 3.58995C28.4924 3.47809 28.0555 3.25158 27.7144 3.08658C27.3733 2.92159 26.928 2.72024 26.7278 2.63914C26.5277 2.55805 26.1894 2.4322 25.9809 2.3595C25.7723 2.28679 25.3917 2.16933 25.1352 2.09662C24.8787 2.02671 24.4475 1.92604 24.1769 1.87291C23.9063 1.81977 23.5257 1.75545 23.3312 1.72749Z" fill="#C9E00C"/>
</svg>
