<svg width="242" height="200" viewBox="0 0 242 200" fill="none" xmlns="http://www.w3.org/2000/svg">
<path d="M125.907 0.206725C124.822 0.122831 123.173 0.0389357 122.242 0.0109708C121.312 -0.0169942 119.536 0.0109708 118.296 0.0669007C117.056 0.108848 115.308 0.23469 114.42 0.332568C113.532 0.416463 111.686 0.68213 110.333 0.905849C108.98 1.12957 106.753 1.59099 105.4 1.92657C104.047 2.26215 101.976 2.8634 100.82 3.24092C99.6501 3.63243 97.7193 4.34554 96.5213 4.84891C95.3234 5.33829 93.5053 6.16326 92.5046 6.66663C91.504 7.15601 90.0382 7.92505 89.2631 8.37249C88.4879 8.80595 86.7826 9.8826 85.4578 10.7495C84.133 11.6164 82.2303 12.9867 81.2296 13.7977C80.229 14.5947 78.6646 15.909 77.7767 16.72C76.8888 17.517 75.4512 18.9293 74.5774 19.8521C73.7177 20.761 72.4493 22.1872 71.7587 22.9982C71.0822 23.8231 69.9688 25.2354 69.2923 26.1442C68.6299 27.0671 67.5024 28.717 66.7836 29.8356C66.0789 30.9542 64.7541 33.3732 63.8239 35.2188C62.9078 37.0645 61.8085 39.4835 61.3716 40.6021C60.9488 41.7207 60.3146 43.5384 59.9763 44.657C59.624 45.7756 59.1166 47.6632 58.8347 48.8517C58.5669 50.0403 58.2005 51.7741 58.0455 52.6969C57.8904 53.6198 57.6649 55.1998 57.5381 56.1925C57.4253 57.1853 57.2703 59.2128 57.2139 60.6669C57.1435 62.1211 57.1435 64.5541 57.1998 66.0502C57.2703 67.5463 57.4253 69.6577 57.5522 70.7343C57.679 71.811 57.9327 73.5448 58.13 74.5795C58.3133 75.6142 58.7361 77.5018 59.0461 78.7742C59.3703 80.0467 59.934 82.0182 60.3287 83.1787C60.7092 84.3253 61.3434 86.0591 61.738 87.0239C62.1327 87.9887 63.0065 89.9043 63.683 91.2886C64.3595 92.6728 65.5151 94.7842 66.2339 95.9727C66.9668 97.1752 68.052 98.8391 68.644 99.678C69.2359 100.531 70.3352 101.971 71.0822 102.894C71.8291 103.817 73.2103 105.411 74.1546 106.446C75.0989 107.466 76.7056 109.06 77.7062 109.955C78.7069 110.864 80.1444 112.094 80.8773 112.696C81.6102 113.283 83.0477 114.346 84.0484 115.059C85.049 115.758 86.543 116.751 87.3604 117.254C88.1779 117.757 89.7282 118.638 90.8134 119.226C91.8986 119.799 93.7026 120.68 94.8301 121.183C95.9576 121.686 97.7334 122.4 98.7763 122.791C99.8193 123.169 101.44 123.714 102.37 123.98C103.3 124.259 104.823 124.665 105.753 124.902C106.683 125.126 108.304 125.476 109.347 125.671C110.39 125.867 112.01 126.119 112.941 126.231C113.871 126.357 115.647 126.524 116.887 126.608C118.254 126.706 120.481 126.734 122.524 126.692C124.385 126.65 126.766 126.51 127.809 126.385C128.852 126.273 130.501 126.049 131.474 125.895C132.446 125.741 134.222 125.378 135.42 125.112C136.618 124.833 138.521 124.329 139.648 123.98C140.776 123.644 142.425 123.085 143.313 122.749C144.2 122.428 145.694 121.826 146.625 121.421C147.555 121.015 148.88 120.4 149.584 120.051C150.289 119.715 151.586 119.016 152.473 118.526C153.361 118.023 155.179 116.904 156.49 116.038C157.801 115.157 159.591 113.898 160.436 113.227C161.282 112.556 162.691 111.395 163.537 110.64C164.383 109.899 165.82 108.543 166.708 107.634C167.61 106.711 168.907 105.313 169.611 104.502C170.302 103.691 171.345 102.405 171.937 101.636C172.529 100.867 173.515 99.4823 174.135 98.5594C174.756 97.6366 175.756 96.0286 176.362 94.9939C176.982 93.9592 177.927 92.1695 178.49 91.0089C179.054 89.8624 179.928 87.8768 180.421 86.6044C180.929 85.332 181.619 83.3885 181.972 82.2699C182.324 81.1513 182.803 79.4594 183.043 78.4946C183.268 77.5298 183.621 75.8939 183.818 74.8592C184.015 73.8244 184.269 72.2444 184.382 71.3635C184.494 70.4826 184.663 68.6509 184.762 67.3086C184.861 65.8125 184.889 63.6592 184.847 61.7855C184.79 60.0937 184.692 58.1081 184.607 57.3811C184.538 56.6649 184.359 55.3246 184.232 54.3759L184.227 54.3329L183.973 52.627H179.886C180.055 53.438 180.224 54.6545 180.379 55.843C180.534 57.0315 180.731 59.2128 180.802 60.6669C180.9 62.4008 180.9 64.2325 180.802 65.9104C180.731 67.3366 180.605 69.1263 180.52 69.8954C180.435 70.6644 180.21 72.2025 180.013 73.3211C179.829 74.4397 179.407 76.3832 179.096 77.6556C178.786 78.9281 178.18 80.9695 177.772 82.2C177.363 83.4304 176.63 85.346 176.151 86.4646C175.686 87.5832 174.77 89.4988 174.121 90.7293C173.487 91.9597 172.472 93.7495 171.866 94.7143C171.26 95.6791 170.372 96.9934 169.907 97.6506C169.428 98.3078 168.47 99.5662 167.751 100.447C167.046 101.328 165.764 102.81 164.918 103.733C164.058 104.656 162.748 105.984 161.973 106.669C161.212 107.368 160.126 108.319 159.591 108.781C159.055 109.228 157.97 110.081 157.195 110.668C156.42 111.256 154.968 112.262 153.953 112.919C152.939 113.577 151.487 114.485 150.712 114.919C149.937 115.366 148.569 116.079 147.682 116.527C146.794 116.974 145.201 117.687 144.158 118.135C143.115 118.568 141.241 119.267 140 119.687C138.76 120.092 136.731 120.694 135.49 121.001C134.25 121.309 132.319 121.714 131.192 121.896C130.064 122.092 128.162 122.358 126.964 122.483C125.456 122.651 123.624 122.721 121.044 122.721C118.465 122.721 116.633 122.651 115.125 122.483C113.927 122.358 112.024 122.092 110.897 121.896C109.769 121.714 107.839 121.309 106.598 121.001C105.358 120.694 103.484 120.176 102.441 119.827C101.398 119.491 99.7065 118.876 98.7059 118.484C97.7052 118.079 96.0422 117.366 95.0415 116.89C94.0408 116.415 92.4483 115.59 91.5181 115.059C90.5879 114.541 89.2913 113.758 88.6289 113.339C87.9664 112.919 86.839 112.164 86.1202 111.647L84.8095 110.724C86.5148 110.668 87.0926 110.612 87.1772 110.584C87.2899 110.542 86.9094 110.011 86.1906 109.228C85.5423 108.515 84.5135 107.298 83.9075 106.529C83.2873 105.76 82.2726 104.376 81.6384 103.453C81.0041 102.53 80.1303 101.146 79.6793 100.377C79.2142 99.6081 78.3263 97.9163 77.6921 96.6019C77.0579 95.2875 76.2405 93.4419 75.874 92.4771C75.5217 91.5123 74.9438 89.7924 74.6056 88.6319C74.2673 87.4853 73.8304 85.7515 73.6331 84.7867C73.4358 83.8219 73.1821 82.3817 73.0694 81.5707C72.9425 80.7598 72.7734 79.2217 72.6889 78.145C72.5902 76.9286 72.562 74.8871 72.6043 72.7618C72.6466 70.8741 72.7875 68.609 72.9144 67.7281C73.0271 66.8472 73.2949 65.2672 73.4922 64.2325C73.6895 63.1978 74.0418 61.6597 74.2533 60.8068C74.4788 59.9538 74.972 58.3598 75.3667 57.2412C75.7472 56.1226 76.3532 54.5286 76.7197 53.6757C77.0861 52.8228 77.7344 51.4665 78.1431 50.6275C78.5659 49.8026 79.3834 48.3344 79.9753 47.3556C80.5672 46.3629 81.4974 44.9367 82.0471 44.1676C82.5967 43.3986 83.4987 42.1961 84.0484 41.5109C84.598 40.8258 85.6551 39.5954 86.402 38.7844C87.1349 37.9734 88.4174 36.687 89.249 35.918C90.0946 35.1489 91.504 33.9324 92.4201 33.2193C93.3221 32.5062 94.7173 31.4715 95.5348 30.9122C96.3522 30.3669 97.7475 29.486 98.6354 28.9687C99.5233 28.4373 101.088 27.6124 102.088 27.109C103.089 26.6196 104.71 25.9065 105.682 25.529C106.655 25.1515 108.233 24.5782 109.206 24.2706C110.178 23.9629 111.602 23.5435 112.377 23.3477C113.152 23.152 114.674 22.8443 115.759 22.6486L117.732 22.2851C121.453 24.2006 123.595 25.3752 124.92 26.1162C126.245 26.8713 127.387 27.5564 127.457 27.6403C127.528 27.7382 127.795 27.892 128.021 27.9899C128.246 28.1018 129.275 28.689 130.276 29.3182C131.276 29.9335 134.899 32.2685 138.309 34.4918C141.72 36.7289 145.145 38.9382 145.92 39.4136C146.695 39.889 147.963 40.6301 148.739 41.0775C149.514 41.511 150.247 41.9164 150.359 41.9864C150.472 42.0563 151.459 42.5177 152.544 43.0211C153.629 43.5244 155.56 44.3494 156.842 44.8388C158.125 45.3422 159.901 45.9714 160.789 46.237C161.677 46.5167 163.016 46.8942 163.748 47.09C164.481 47.2857 166.201 47.6632 167.554 47.9289C168.907 48.1946 170.316 48.4463 170.683 48.4882C171.351 48.5711 171.359 48.5857 171.889 49.5432L171.909 49.5788C172.219 50.1381 172.529 50.6974 172.599 50.8093C172.684 50.9631 172.825 50.7254 173.135 49.9144L173.544 48.8238C174.417 48.9496 176.588 49.0335 178.941 49.0895C182.676 49.1873 183.198 49.1733 183.198 48.9916C183.198 48.8797 182.972 47.9289 182.69 46.8942C182.423 45.8595 181.901 44.1536 181.549 43.1189C181.196 42.0842 180.506 40.2945 180.027 39.1339C179.547 37.9874 178.702 36.1557 178.152 35.079C177.617 34.0024 176.813 32.4923 176.362 31.7232C175.911 30.9542 174.967 29.4441 174.248 28.3674C173.529 27.2908 172.458 25.7807 171.852 25.0116C171.26 24.2426 170.147 22.8863 169.386 22.0054C168.625 21.1245 166.962 19.3907 165.707 18.1602C164.439 16.9158 162.832 15.4336 162.128 14.8604C161.423 14.2871 160.225 13.3363 159.45 12.763C158.675 12.1757 157.124 11.0991 155.997 10.358C154.869 9.63091 153.249 8.63816 152.403 8.16275C151.557 7.68735 149.965 6.87637 148.88 6.35901C147.794 5.82768 146.117 5.08661 145.145 4.6951C144.172 4.31757 142.721 3.75827 141.903 3.47862C141.086 3.19897 139.535 2.72357 138.45 2.41596C137.365 2.10834 135.462 1.64692 134.222 1.38125C132.982 1.11559 131.051 0.780007 129.923 0.6262C128.796 0.472392 126.992 0.29062 125.907 0.206725Z" fill="#65AA4F"/>
<path fill-rule="evenodd" clip-rule="evenodd" d="M212.602 143.287C214.787 143.329 215.323 143.385 216.408 143.692C217.112 143.888 218.029 144.196 218.451 144.377C218.874 144.573 219.579 144.951 220.777 145.72L221.693 145.188C222.2 144.881 223.201 144.419 223.92 144.154C224.624 143.874 225.808 143.553 226.513 143.427C227.514 143.259 228.359 143.217 230.079 143.273C231.77 143.329 232.616 143.427 233.461 143.65C234.081 143.818 235.04 144.154 235.575 144.405C236.111 144.657 236.956 145.161 237.45 145.524C237.929 145.874 238.619 146.559 238.972 147.034C239.338 147.524 239.817 148.293 240.029 148.754C240.254 149.215 240.564 150.194 240.719 150.921C240.987 152.166 241.001 152.823 241.001 161.646C241.001 170.497 240.987 171.056 240.748 171.126C240.621 171.154 240.057 171.252 239.521 171.35C238.986 171.434 237.746 171.503 236.773 171.517C235.801 171.517 234.687 171.448 234.307 171.364C233.912 171.266 233.32 171.014 232.968 170.804C232.545 170.539 232.193 170.161 231.488 168.889L231.418 160.849C231.361 154.655 231.305 152.711 231.164 152.389C231.065 152.152 230.84 151.816 230.671 151.648C230.501 151.467 230.107 151.187 229.797 151.019C229.36 150.795 228.965 150.726 228.035 150.712C226.964 150.712 226.738 150.753 224.934 151.62V171.056L224.61 171.126C224.441 171.154 223.892 171.266 223.384 171.35C222.877 171.434 221.651 171.517 220.636 171.517C219.297 171.517 218.578 171.448 217.958 171.28C217.324 171.084 216.957 170.874 216.464 170.371C215.985 169.909 215.745 169.518 215.576 168.959C215.379 168.288 215.351 167.211 215.351 160.779C215.351 154.585 215.323 153.242 215.139 152.627C214.984 152.096 214.787 151.788 214.392 151.481C214.11 151.243 213.519 150.949 213.096 150.823C212.574 150.684 212.025 150.628 211.404 150.684C210.855 150.726 210.164 150.893 208.868 151.481V161.268C208.868 170.469 208.854 171.056 208.614 171.112C208.487 171.14 208.219 171.21 208.022 171.252C207.825 171.294 206.965 171.392 206.119 171.476C204.992 171.587 204.203 171.587 203.23 171.476C202.497 171.392 201.638 171.21 201.327 171.07C201.017 170.93 200.552 170.595 200.299 170.315C200.059 170.035 199.735 169.56 199.594 169.266C199.368 168.791 199.354 167.952 199.312 159.171C199.284 150.628 199.298 149.509 199.509 148.824C199.678 148.251 199.932 147.859 200.538 147.244C200.975 146.782 201.778 146.139 202.314 145.804C202.85 145.468 203.85 144.979 204.527 144.699C205.217 144.433 206.232 144.084 206.782 143.93C207.345 143.776 208.318 143.566 208.938 143.455C209.756 143.301 210.77 143.259 212.602 143.287ZM5.35413 143.944C6.34069 143.944 7.31316 144.014 7.82054 144.14C8.28563 144.252 8.90575 144.503 9.18763 144.699C9.4836 144.895 9.87822 145.314 10.0614 145.636C10.2588 145.971 10.4702 146.615 10.5547 147.076C10.6534 147.635 10.7098 151.788 10.7098 171.056L10.3151 171.126C10.1037 171.154 9.4836 171.266 8.94803 171.35C8.39838 171.448 7.17222 171.517 6.19976 171.503C5.00179 171.503 4.21254 171.42 3.73335 171.28C3.33873 171.154 2.83136 170.93 2.60586 170.762C2.36626 170.609 2.04211 170.273 1.87298 170.035C1.68976 169.784 1.45017 169.266 1.30923 168.889C1.12601 168.329 1.06964 167.407 1.01326 164.135C0.985077 161.898 0.985077 156.542 1.12601 144.377L2.42264 144.168C3.14142 144.056 4.46623 143.958 5.35413 143.944ZM154.015 188.884C154.409 188.926 154.889 189.024 155.072 189.107C155.241 189.191 155.551 189.429 156.143 190.002L156.213 189.541C156.298 189.121 156.34 189.093 156.862 189.093C157.327 189.093 157.411 189.135 157.355 189.331C157.313 189.471 156.946 191.317 156.523 193.428C156.101 195.609 155.65 197.511 155.495 197.833C155.326 198.14 154.959 198.616 154.663 198.895C154.353 199.161 153.747 199.524 153.31 199.692C152.859 199.86 152.197 200 151.83 200C151.45 200 150.801 199.902 150.379 199.776C149.956 199.65 149.491 199.496 149.364 199.427C149.124 199.301 149.124 199.287 149.364 198.881C149.519 198.588 149.674 198.49 149.815 198.546C149.928 198.602 150.379 198.727 150.801 198.839C151.422 199.007 151.732 199.021 152.352 198.895C152.775 198.797 153.338 198.588 153.606 198.42C153.874 198.252 154.226 197.86 154.409 197.553C154.593 197.245 154.776 196.672 154.931 195.595L154.522 195.973C154.297 196.183 153.944 196.42 153.733 196.49C153.507 196.574 152.944 196.644 152.464 196.644C151.816 196.644 151.436 196.56 151.013 196.322C150.717 196.155 150.308 195.791 150.139 195.525C149.956 195.26 149.744 194.714 149.66 194.337C149.561 193.806 149.575 193.4 149.716 192.659C149.829 192.128 150.026 191.47 150.153 191.219C150.28 190.981 150.646 190.478 150.985 190.128C151.309 189.765 151.76 189.387 151.999 189.261C152.239 189.149 152.605 188.996 152.845 188.94C153.085 188.87 153.606 188.856 154.015 188.884ZM151.718 190.799C151.436 191.135 151.111 191.708 150.985 192.1C150.872 192.477 150.759 193.148 150.759 193.568C150.759 194.001 150.872 194.533 150.999 194.784C151.126 195.036 151.436 195.344 151.689 195.469C151.999 195.623 152.394 195.679 152.93 195.651C153.507 195.609 153.846 195.497 154.226 195.204C154.522 194.994 154.903 194.505 155.1 194.085C155.297 193.694 155.523 192.953 155.607 192.449C155.72 191.736 155.72 191.415 155.565 190.995C155.466 190.687 155.227 190.338 155.03 190.198C154.832 190.058 154.424 189.918 154.113 189.876C153.803 189.835 153.254 189.89 152.887 190.002C152.408 190.156 152.07 190.38 151.718 190.799ZM95.2017 189.163L95.8359 192.309C96.4701 195.33 96.4983 195.441 96.7097 195.106C96.8365 194.91 97.6681 193.484 100.205 189.093H101.473L98.6405 193.736C97.0902 196.294 95.6386 198.616 95.4272 198.881C95.2158 199.147 94.7929 199.51 94.4829 199.678C94.1869 199.86 93.75 200 93.5104 200C93.2849 200 92.848 199.916 92.5661 199.79C92.2702 199.678 92.0306 199.538 92.0306 199.468C92.0165 199.413 92.1292 199.231 92.2702 199.049C92.4957 198.755 92.5661 198.741 92.9467 198.881C93.2426 198.979 93.4963 198.993 93.7923 198.895C94.0319 198.811 94.3842 198.574 94.5815 198.364C94.7929 198.14 95.1171 197.707 95.3285 197.371C95.5258 197.049 95.6949 196.686 95.6949 196.574C95.6949 196.462 95.3426 194.84 94.9198 192.967C94.4829 191.107 94.1023 189.471 94.0601 189.331C94.0037 189.107 94.0742 189.079 95.2017 189.163Z" fill="white"/>
<path d="M125.451 27.5413C124.253 27.4015 122.52 27.3315 120.8 27.3315C119.292 27.3455 117.573 27.4015 116.995 27.4714C116.417 27.5413 115.078 27.751 114.035 27.9608C112.992 28.1565 111.4 28.534 110.512 28.8137C109.624 29.0794 108.186 29.5827 107.341 29.9183C106.495 30.2679 105.058 30.925 104.17 31.4004C103.282 31.8619 101.943 32.6309 101.21 33.0923C100.477 33.5677 99.2369 34.4626 98.4618 35.0778C97.6866 35.6791 96.5169 36.6858 95.8685 37.315C95.2202 37.9303 94.0786 39.1188 93.3458 39.9717C92.6129 40.8246 91.4431 42.3627 90.7525 43.3974C90.0478 44.4321 88.9908 46.2918 88.3707 47.5222C87.7646 48.7527 86.9895 50.5844 86.6512 51.5771C86.313 52.5699 85.862 54.08 85.6647 54.9329C85.4533 55.7859 85.1996 57.0723 85.0727 57.7993C84.96 58.5264 84.805 60.1065 84.7345 61.295C84.664 62.5813 84.664 64.3152 84.7345 65.5596C84.805 66.7202 84.9882 68.44 85.1573 69.4048C85.3264 70.3696 85.6647 71.9077 85.9184 72.8305C86.1721 73.7533 86.609 75.1376 86.9049 75.9066C87.1868 76.6757 87.8915 78.2557 88.4552 79.4023C89.0331 80.5628 89.9774 82.2267 90.5693 83.1076C91.1612 83.9885 92.1337 85.3168 92.7256 86.0439C93.3035 86.771 94.4874 88.0714 95.3471 88.9103C96.2068 89.7633 97.447 90.8819 98.1094 91.4132C98.7718 91.9445 100.097 92.8953 101.069 93.5385C102.042 94.1677 103.592 95.0766 104.522 95.538C105.452 96.0134 106.848 96.6426 107.623 96.9363C108.398 97.2439 109.793 97.7193 110.723 97.9989C111.654 98.2786 113.246 98.6561 114.247 98.8379C115.247 99.0197 116.784 99.2294 117.629 99.3133C118.475 99.3972 120.067 99.4671 121.153 99.4671C122.238 99.4671 123.732 99.3972 124.465 99.3273C125.198 99.2434 126.41 99.0896 127.143 98.9637C127.875 98.8379 129.313 98.5303 130.314 98.2786C131.314 98.0269 132.78 97.5795 133.555 97.2998C134.33 97.0202 135.923 96.3211 137.079 95.7617C138.234 95.2025 140.052 94.1678 141.095 93.4826C142.138 92.7975 143.604 91.7208 144.337 91.1056C145.07 90.4904 146.338 89.3018 147.17 88.4769C147.987 87.6379 149.058 86.4494 149.552 85.8342C150.045 85.219 150.876 84.0584 151.426 83.2474C151.962 82.4365 152.694 81.2479 153.047 80.5908C153.399 79.9336 153.991 78.7451 154.358 77.9341C154.71 77.1231 155.274 75.6829 155.598 74.7181C155.922 73.7533 156.331 72.2712 156.528 71.4323C156.725 70.5793 156.979 69.237 157.092 68.426C157.204 67.615 157.345 65.8952 157.388 64.5808C157.444 63.1686 157.416 61.4907 157.317 60.456C157.233 59.4912 157.064 58.107 156.937 57.3799C156.81 56.6528 156.5 55.2266 156.246 54.2338C155.992 53.2411 155.541 51.7869 155.26 51.0178C154.978 50.2488 154.343 48.7946 153.864 47.8019C153.385 46.8091 152.624 45.3829 152.173 44.6558C151.722 43.9287 151.116 42.9919 150.806 42.6004C150.369 41.9992 149.974 41.7055 148.819 41.0623C148.015 40.6289 146.733 39.8878 145.958 39.4124C145.183 38.937 141.758 36.7278 138.347 34.4906C134.936 32.2674 131.286 29.9183 130.243 29.2751C129.2 28.6179 128.115 28.0167 127.847 27.9328C127.579 27.8349 126.494 27.6671 125.451 27.5413Z" fill="white"/>
<path d="M120.128 23.5317C118.803 22.8466 117.661 22.3013 117.591 22.3013C117.52 22.3013 116.618 22.4691 115.618 22.6508C114.617 22.8466 113.151 23.1542 112.376 23.35C111.601 23.5457 110.177 23.9652 109.205 24.2728C108.232 24.5804 106.654 25.1537 105.681 25.5312C104.709 25.9087 103.088 26.6219 102.088 27.1112C101.087 27.6146 99.5225 28.4396 98.6346 28.9709C97.7467 29.4883 96.3514 30.3692 95.534 30.9145C94.7166 31.4738 93.3213 32.5085 92.4193 33.2216C91.5032 33.9347 90.0938 35.1512 89.2482 35.9202C88.4167 36.6892 87.1341 37.9756 86.4013 38.7866C85.6543 39.5976 84.5973 40.828 84.0476 41.5132C83.498 42.1983 82.596 43.4008 82.0463 44.1699C81.4966 44.9389 80.5665 46.3651 79.9745 47.3579C79.3826 48.3366 78.5651 49.8048 78.1423 50.6437C77.7336 51.4687 77.0853 52.825 76.7189 53.6779C76.3524 54.5309 75.7464 56.1249 75.3659 57.2435C74.9712 58.3621 74.478 59.9561 74.2525 60.809C74.0411 61.6619 73.6887 63.2 73.4914 64.2347C73.2941 65.2694 73.0263 66.8494 72.9136 67.7303C72.7867 68.6112 72.6458 70.8764 72.6035 72.764C72.5612 74.8893 72.5894 76.9308 72.6881 78.1473C72.7726 79.2239 72.9417 80.762 73.0686 81.573C73.1813 82.3839 73.435 83.8241 73.6323 84.7889C73.8297 85.7537 74.2666 87.4875 74.6048 88.6341C74.9431 89.7947 75.5209 91.5145 75.8732 92.4793C76.2397 93.4441 77.0571 95.2898 77.6913 96.6041C78.3256 97.9185 79.2135 99.6104 79.6786 100.379C80.1296 101.148 81.0034 102.533 81.6376 103.456C82.2718 104.378 83.2865 105.763 83.9067 106.532C84.5127 107.301 85.5415 108.517 86.1899 109.23C86.9086 110.013 87.2892 110.545 87.1764 110.587C87.0919 110.615 86.514 110.67 85.908 110.684L84.8087 110.726C86.8382 112.167 87.9657 112.922 88.6281 113.341C89.2905 113.761 90.5871 114.544 91.5173 115.061C92.4475 115.592 94.0401 116.417 95.0407 116.893C96.0414 117.368 97.7044 118.081 98.7051 118.487C99.7057 118.878 101.397 119.493 102.44 119.829C103.483 120.179 105.357 120.696 106.598 121.004C107.838 121.311 109.769 121.717 110.896 121.898C112.024 122.094 113.926 122.36 115.124 122.486C116.632 122.653 118.465 122.723 121.044 122.723C123.623 122.723 125.455 122.653 126.963 122.486C128.161 122.36 130.064 122.094 131.191 121.898C132.319 121.717 134.249 121.311 135.49 121.004C136.73 120.696 138.759 120.095 140 119.689C141.24 119.27 143.114 118.571 144.157 118.137C145.2 117.69 146.793 116.977 147.681 116.529C148.569 116.082 149.936 115.369 150.711 114.921C151.486 114.488 152.938 113.579 153.953 112.922C154.967 112.264 156.419 111.258 157.194 110.67C157.969 110.083 159.054 109.23 159.59 108.783C160.126 108.321 161.211 107.371 161.972 106.672C162.747 105.986 164.058 104.658 164.917 103.735C165.763 102.812 167.046 101.33 167.75 100.449C168.469 99.5684 169.427 98.31 169.907 97.6528C170.372 96.9956 171.26 95.6813 171.866 94.7165C172.472 93.7517 173.486 91.9619 174.121 90.7315C174.769 89.501 175.685 87.5854 176.15 86.4668C176.629 85.3482 177.362 83.4326 177.771 82.2022C178.18 80.9717 178.786 78.9303 179.096 77.6579C179.406 76.3855 179.829 74.4419 180.012 73.3233C180.209 72.2047 180.435 70.6666 180.519 69.8976C180.604 69.1286 180.731 67.3388 180.801 65.9126C180.9 64.2347 180.9 62.403 180.801 60.6692C180.731 59.215 180.533 57.0337 180.378 55.8452C180.223 54.6567 180.054 53.4402 179.998 53.1466L179.885 52.6292C183.718 52.6292 183.902 52.6013 183.902 52.3915C183.902 52.2517 183.775 51.4827 183.606 50.6717L183.31 49.2035C176.615 49.0358 174.417 48.9519 174.107 48.9099L173.543 48.826C172.824 50.7276 172.683 50.9653 172.599 50.8115C172.528 50.6997 172.218 50.1404 171.908 49.5951L171.888 49.5594C171.358 48.588 171.35 48.5733 170.682 48.4904C170.315 48.4485 168.779 48.1688 167.271 47.8612C165.763 47.5676 163.508 47.0363 162.268 46.6867C161.028 46.3232 159.153 45.7219 158.11 45.3304C157.067 44.9389 155.545 44.3376 154.728 44.0021C153.91 43.6525 152.698 43.0932 152.008 42.7576C151.331 42.422 150.725 42.1564 150.655 42.1843C150.584 42.1983 150.965 42.8695 151.514 43.6805C152.05 44.4915 152.994 46.1554 153.6 47.3858C154.206 48.6163 154.939 50.2522 155.221 51.0213C155.517 51.7903 155.954 53.2445 156.208 54.2372C156.461 55.23 156.771 56.6562 156.898 57.3833C157.025 58.1104 157.194 59.4946 157.279 60.4594C157.377 61.4941 157.405 63.172 157.349 64.5843C157.307 65.8986 157.166 67.6185 157.053 68.4294C156.94 69.2404 156.687 70.5827 156.489 71.4357C156.292 72.2746 155.883 73.7568 155.559 74.7216C155.235 75.6863 154.671 77.1265 154.319 77.9375C153.953 78.7485 153.361 79.937 153.008 80.5942C152.656 81.2514 151.923 82.4399 151.387 83.2509C150.838 84.0618 150.006 85.2224 149.513 85.8376C149.02 86.4529 147.949 87.6414 147.131 88.4803C146.3 89.3053 145.031 90.4938 144.298 91.109C143.565 91.7242 142.1 92.8009 141.057 93.486C140.014 94.1712 138.196 95.2059 137.04 95.7652C135.87 96.3245 134.292 97.0236 133.517 97.3033C132.741 97.5829 131.276 98.0303 130.275 98.282C129.274 98.5337 127.837 98.8413 127.104 98.9672C126.371 99.093 125.159 99.2468 124.426 99.3307C123.693 99.4006 122.199 99.4705 121.114 99.4705C120.029 99.4705 118.436 99.4006 117.591 99.3167C116.745 99.2328 115.209 99.0231 114.208 98.8413C113.208 98.6596 111.615 98.282 110.685 98.0024C109.755 97.7227 108.359 97.2473 107.584 96.9397C106.809 96.6461 105.414 96.0169 104.484 95.5415C103.553 95.08 102.003 94.1712 101.031 93.542C100.058 92.8988 98.7333 91.948 98.0709 91.4166C97.4085 90.8853 96.1682 89.7667 95.3085 88.9138C94.4488 88.0748 93.2649 86.7744 92.6871 86.0474C92.0951 85.3203 91.1227 83.9919 90.5307 83.111C89.9388 82.2301 88.9945 80.5662 88.4167 79.4057C87.8529 78.2591 87.1482 76.6791 86.8664 75.9101C86.5704 75.141 86.1335 73.7568 85.8798 72.8339C85.6261 71.9111 85.2879 70.373 85.1187 69.4082C84.9496 68.4434 84.7664 66.6816 84.6959 65.4931C84.6255 64.2067 84.6255 62.4729 84.6959 61.2285C84.7664 60.0819 84.9214 58.5299 85.0342 57.8028C85.161 57.0757 85.4147 55.7893 85.6261 54.9364C85.8234 54.0834 86.2744 52.5733 86.6127 51.5806C86.9509 50.5878 87.7261 48.7561 88.3321 47.5256C88.9522 46.2952 90.0093 44.4355 90.7139 43.4008C91.4045 42.3661 92.5743 40.828 93.3072 39.9751C94.0401 39.1222 95.1817 37.9337 95.83 37.3184C96.4783 36.6892 97.6481 35.6825 98.4232 35.0812C99.1984 34.466 100.439 33.5711 101.171 33.0957C101.904 32.6343 103.243 31.8653 104.131 31.4039C105.019 30.9285 106.457 30.2713 107.302 29.9217C108.148 29.5861 109.585 29.0828 110.473 28.8171C111.361 28.5375 112.926 28.1599 113.926 27.9642C114.927 27.7684 116.491 27.5447 117.379 27.4468C118.436 27.335 120.085 27.307 122.101 27.3629C123.806 27.4189 125.723 27.5307 126.357 27.6286C127.005 27.7265 127.513 27.7544 127.484 27.6985C127.47 27.6286 126.343 26.9435 124.99 26.1744C123.637 25.3914 121.452 24.2029 120.128 23.5317Z" fill="#C9E00C"/>
<path fill-rule="evenodd" clip-rule="evenodd" d="M5.7977 133.46C5.92455 133.446 6.37555 133.516 6.78427 133.6C7.17889 133.684 7.75673 133.88 8.0527 134.02C8.33458 134.173 8.85604 134.565 9.20839 134.914C9.56073 135.264 9.99764 135.879 10.1809 136.271C10.3641 136.676 10.5614 137.319 10.6178 137.711C10.6882 138.186 10.6319 138.704 10.4909 139.319C10.3641 139.822 10.1104 140.452 9.92717 140.717C9.74395 140.983 9.39161 141.416 9.12383 141.668C8.85604 141.934 8.33458 142.297 7.93995 142.507C7.40439 142.773 6.96748 142.87 6.10777 142.926C5.17758 142.968 4.82524 142.926 4.13464 142.661C3.52861 142.437 3.06352 142.129 2.49977 141.57C1.95012 141.025 1.62596 140.549 1.41455 139.976C1.21724 139.459 1.10449 138.858 1.10449 138.27C1.10449 137.683 1.21724 137.082 1.41455 136.55C1.61187 136.047 1.9783 135.488 2.4293 135.012C2.82393 134.607 3.40177 134.145 3.71183 133.992C4.02189 133.852 4.55746 133.67 4.9098 133.6C5.26214 133.53 5.65677 133.474 5.7977 133.46ZM29.4329 143.248C30.5886 143.234 31.8147 143.318 32.5335 143.444C33.1959 143.556 34.1825 143.793 34.718 143.975C35.2677 144.157 36.0288 144.478 36.4093 144.674C36.8039 144.87 37.3395 145.178 38.1005 145.709L39.4394 144.996C40.1723 144.618 41.2857 144.129 41.9058 143.919C42.526 143.709 43.5689 143.458 44.2313 143.374C44.9924 143.262 46.1903 143.22 47.5433 143.276C49.0232 143.318 49.9956 143.43 50.7849 143.64C51.405 143.793 52.5184 144.227 53.2513 144.576C54.3365 145.108 54.7875 145.429 55.6472 146.296C56.4083 147.065 56.8593 147.652 57.2257 148.408C57.5076 148.981 57.8599 149.834 57.9868 150.295C58.2123 151.05 58.2405 152.057 58.2828 161.09C58.325 170.486 58.3109 171.059 58.0854 171.115C57.9445 171.157 57.423 171.255 56.9157 171.353C56.4083 171.437 55.2103 171.521 54.2379 171.521C53.2372 171.521 52.1097 171.451 51.6305 171.339C51.1231 171.227 50.5594 170.975 50.2211 170.724C49.8829 170.458 49.4883 169.955 48.8118 168.612L48.7413 160.642C48.6708 153.022 48.6567 152.644 48.389 152.127C48.2339 151.819 47.8816 151.428 47.6138 151.26C47.346 151.078 46.8105 150.868 46.4158 150.771C46.0071 150.673 45.3588 150.645 44.8655 150.687C44.3582 150.743 43.6676 150.938 42.2582 151.624V161.341C42.2582 170.472 42.2441 171.059 42.0186 171.129C41.8777 171.157 41.328 171.255 40.7783 171.353C40.2287 171.437 39.0307 171.521 38.1005 171.521C37.1703 171.521 36.0288 171.437 35.5637 171.339C35.0563 171.227 34.4925 170.975 34.1543 170.724C33.816 170.458 33.4214 169.955 32.7449 168.612L32.6744 160.572C32.6181 154.826 32.5617 152.448 32.4349 152.253C32.3503 152.099 32.0966 151.805 31.8711 151.61C31.6597 151.4 31.251 151.12 30.9832 150.98C30.6168 150.785 30.1658 150.729 29.2215 150.715C28.094 150.715 27.8544 150.757 26.1772 151.554L26.1913 161.299C26.1913 170.486 26.1772 171.059 25.9517 171.115C25.8108 171.157 25.3175 171.241 24.8524 171.325C24.3873 171.395 23.5276 171.493 22.9498 171.535C22.3719 171.59 21.3008 171.563 20.5961 171.479C19.7082 171.381 19.0599 171.227 18.5807 170.989C18.2002 170.793 17.721 170.43 17.5378 170.178C17.3405 169.941 17.0727 169.451 16.9318 169.102C16.6922 168.514 16.6781 167.801 16.6781 158.824C16.6781 149.372 16.6781 149.163 16.974 148.547C17.1291 148.198 17.5096 147.639 17.8197 147.303C18.1156 146.967 18.7217 146.45 19.1445 146.17C19.5673 145.877 20.3706 145.429 20.9062 145.164C21.4558 144.884 22.4706 144.478 23.1612 144.241C23.8659 144.017 24.937 143.723 25.5571 143.598C26.1772 143.486 26.8819 143.36 27.1074 143.332C27.347 143.304 28.39 143.262 29.4329 143.248ZM76.5482 143.262C78.324 143.234 79.2824 143.304 80.4945 143.5C81.3542 143.654 82.5662 143.933 83.1723 144.129C83.7642 144.339 84.7508 144.73 85.3568 145.038C85.9487 145.331 86.9212 145.947 87.4991 146.394C88.0769 146.855 88.9225 147.694 89.3735 148.268C89.8386 148.841 90.4446 149.792 90.7406 150.365C91.0366 150.938 91.403 151.819 91.5722 152.323C91.7413 152.826 91.9668 153.791 92.0795 154.49C92.1923 155.189 92.2909 156.601 92.2909 157.636C92.2909 158.671 92.2205 159.971 92.15 160.502C92.0654 161.034 91.8822 161.985 91.7272 162.6C91.5581 163.215 91.1211 164.348 90.7406 165.117C90.346 165.886 89.6977 166.92 89.289 167.424C88.8802 167.927 88.1615 168.64 87.7105 169.004C87.2454 169.381 86.4843 169.885 86.0192 170.15C85.5541 170.402 84.638 170.807 83.9756 171.031C83.3132 171.255 82.1152 171.563 81.2978 171.688C80.1562 171.884 79.3247 171.912 77.7039 171.856C76.2804 171.814 75.2798 171.702 73.7013 171.269L73.6167 180.497L72.7711 180.693C72.2496 180.805 70.9812 180.889 69.4591 180.903C67.1054 180.917 66.9504 180.903 66.2316 180.567C65.7947 180.371 65.2591 179.98 64.9914 179.658C64.7377 179.351 64.4558 178.819 64.3572 178.47C64.2162 177.98 64.1739 174.583 64.1739 148.617L64.5545 147.848C64.78 147.387 65.2451 146.786 65.7524 146.324C66.2034 145.919 67.0491 145.345 67.6269 145.052C68.2047 144.758 69.1913 144.367 69.8114 144.171C70.4315 143.975 71.4463 143.723 72.0664 143.598C72.6865 143.486 73.4194 143.36 73.6872 143.332C73.955 143.304 75.2375 143.262 76.5482 143.262ZM74.5892 151.092L73.7154 151.4L73.6872 163.648C74.6174 164.068 75.2939 164.264 75.8013 164.348C76.4919 164.473 76.9851 164.473 77.7744 164.348C78.3522 164.264 79.1556 164.054 79.5361 163.872C79.9307 163.704 80.4804 163.327 80.7763 163.047C81.0582 162.768 81.4528 162.208 81.6502 161.831C81.8475 161.439 82.1152 160.74 82.2421 160.251C82.4112 159.635 82.4676 158.852 82.4676 157.566C82.4676 156.559 82.3971 155.455 82.2985 155.077C82.2139 154.714 82.0166 154.084 81.8757 153.679C81.7206 153.287 81.3119 152.63 80.9737 152.253C80.5508 151.777 80.0717 151.428 79.4515 151.148C78.7046 150.813 78.324 150.729 77.2811 150.701C76.5764 150.673 75.8858 150.687 75.7308 150.729C75.5758 150.771 75.0543 150.938 74.5892 151.092ZM109.697 143.248C110.754 143.234 112.036 143.318 112.727 143.444C113.389 143.556 114.404 143.807 114.982 144.003C115.56 144.199 116.518 144.618 117.096 144.926C117.674 145.248 118.562 145.821 119.055 146.226C119.562 146.618 120.267 147.317 120.648 147.778C121.028 148.24 121.578 149.093 121.874 149.666C122.184 150.239 122.578 151.19 122.747 151.763C123.015 152.63 123.086 153.134 123.086 154.63C123.086 156.224 123.043 156.517 122.776 157.007C122.621 157.314 122.296 157.734 122.071 157.93C121.86 158.139 121.423 158.433 121.113 158.587C120.803 158.741 120.267 158.936 119.915 159.034C119.562 159.118 116.194 159.635 112.431 160.195C108.654 160.754 105.525 161.229 105.469 161.271C105.426 161.313 105.412 161.467 105.454 161.621C105.497 161.775 105.765 162.208 106.075 162.6C106.455 163.089 106.906 163.453 107.597 163.816C108.132 164.096 108.978 164.431 109.485 164.571C110.148 164.753 110.923 164.823 112.304 164.823C113.347 164.823 114.587 164.739 115.052 164.641C115.517 164.543 116.335 164.334 116.884 164.18C117.434 164.026 118.336 163.69 119.915 162.949L120.563 163.537C120.915 163.872 121.366 164.445 121.55 164.837C121.733 165.214 121.93 165.886 121.986 166.305C122.043 166.818 121.996 167.331 121.845 167.843C121.705 168.319 121.409 168.85 121.07 169.241C120.76 169.605 120.112 170.08 119.548 170.388C119.013 170.668 118.167 171.031 117.66 171.185C117.152 171.339 116.138 171.563 115.405 171.674C114.672 171.786 113.403 171.926 112.586 171.982C111.74 172.024 110.401 171.996 109.485 171.912C108.597 171.814 107.357 171.632 106.737 171.493C106.117 171.339 105.102 171.031 104.482 170.793C103.862 170.556 102.861 170.08 102.269 169.731C101.663 169.381 100.691 168.64 100.099 168.081C99.5069 167.536 98.7458 166.697 98.4217 166.235C98.0835 165.774 97.6184 164.991 97.3647 164.487C97.111 163.984 96.7586 163.173 96.5895 162.67C96.4204 162.166 96.1667 161.104 96.0258 160.293C95.8285 159.132 95.7862 158.349 95.8566 156.517C95.913 154.826 96.0117 153.889 96.2372 153.022C96.3922 152.365 96.7727 151.33 97.0687 150.715C97.3506 150.099 97.8016 149.274 98.0694 148.897C98.3371 148.505 98.774 147.932 99.0418 147.597C99.3237 147.261 99.9861 146.646 100.536 146.212C101.085 145.793 101.903 145.234 102.368 144.968C102.833 144.716 103.777 144.311 104.482 144.073C105.187 143.835 106.23 143.556 106.807 143.444C107.385 143.346 108.696 143.248 109.697 143.248ZM107.301 150.701C106.906 150.882 106.3 151.372 105.92 151.791C105.469 152.295 105.159 152.812 104.961 153.371C104.82 153.833 104.693 154.378 104.693 154.588C104.693 154.923 104.736 154.965 105.018 154.909C105.187 154.881 107.301 154.532 109.697 154.14C112.093 153.749 114.08 153.399 114.108 153.371C114.122 153.329 114.066 153.092 113.981 152.84C113.911 152.602 113.601 152.085 113.319 151.707C113.037 151.33 112.544 150.882 112.234 150.701C111.923 150.533 111.289 150.323 110.824 150.239C110.359 150.155 109.852 150.085 109.697 150.099C109.542 150.113 109.105 150.169 108.71 150.239C108.33 150.309 107.695 150.505 107.301 150.701ZM141.267 143.304C142.436 143.346 143.353 143.444 143.804 143.584C144.198 143.709 144.762 143.947 145.072 144.129C145.382 144.311 145.777 144.618 145.946 144.8C146.115 144.968 146.397 145.429 146.566 145.821C146.82 146.366 146.89 146.772 146.876 147.639C146.876 148.491 146.791 148.981 146.171 150.575L144.424 150.673C143.367 150.729 141.859 150.924 140.632 151.176C139.505 151.414 138.335 151.693 137.461 152.001L137.391 171.059L136.799 171.199C136.461 171.269 135.46 171.395 134.572 171.479C133.445 171.577 132.571 171.59 131.683 171.479C130.865 171.395 130.147 171.213 129.682 170.989C129.273 170.793 128.78 170.43 128.582 170.178C128.385 169.941 128.131 169.409 127.99 169.032C127.779 168.402 127.751 167.396 127.694 159.663C127.666 154.895 127.708 150.519 127.779 149.946C127.849 149.372 128.033 148.617 128.202 148.268C128.371 147.918 128.836 147.303 129.245 146.897C129.696 146.45 130.457 145.919 131.19 145.541C131.852 145.206 133.05 144.716 133.867 144.437C134.685 144.171 136.052 143.835 136.898 143.667C137.743 143.514 138.673 143.36 138.941 143.318C139.209 143.29 140.266 143.276 141.267 143.304ZM155.642 143.989C157.136 144.017 157.784 144.101 158.32 144.297C158.743 144.451 159.236 144.786 159.56 145.122C159.856 145.429 160.195 145.961 160.335 146.31C160.547 146.883 160.575 148.044 160.646 171.059L160.265 171.129C160.039 171.157 159.419 171.269 158.884 171.353C158.348 171.437 157.164 171.521 156.276 171.521C155.389 171.521 154.346 171.451 153.951 171.367C153.57 171.269 152.964 171.017 152.612 170.807C152.189 170.542 151.837 170.164 151.132 168.892L151.062 144.353L152.372 144.157C153.176 144.031 154.402 143.961 155.642 143.989ZM171.145 143.989C172.428 144.031 173.471 144.115 173.809 144.227C174.119 144.339 174.641 144.674 174.979 144.982C175.402 145.345 175.698 145.793 175.881 146.268C176.135 146.967 176.149 147.443 176.149 153.749C176.149 157.706 176.205 160.88 176.29 161.411C176.388 161.943 176.6 162.586 176.825 162.949C177.093 163.383 177.445 163.704 177.981 163.998C178.685 164.376 178.911 164.417 180.306 164.459C181.166 164.487 182.138 164.445 182.491 164.362C182.843 164.264 183.308 164.124 183.914 163.858L183.9 144.353L184.859 144.171C185.38 144.087 186.846 144.003 188.128 144.003C189.594 144.003 190.637 144.073 190.947 144.171C191.215 144.269 191.708 144.534 192.046 144.772C192.441 145.052 192.765 145.443 193.413 146.8V166.655L193.033 167.424C192.836 167.843 192.356 168.472 191.976 168.822C191.595 169.172 190.75 169.717 190.101 170.038C189.439 170.36 188.495 170.752 187.987 170.919C187.48 171.087 186.508 171.339 185.803 171.493C185.098 171.632 183.773 171.814 182.843 171.912C181.857 171.996 180.447 172.024 179.461 171.982C178.53 171.926 177.234 171.786 176.571 171.674C175.909 171.563 174.922 171.339 174.387 171.171C173.851 171.017 172.921 170.654 172.343 170.36C171.765 170.066 170.906 169.549 170.441 169.199C169.976 168.864 169.299 168.207 168.933 167.759C168.58 167.298 168.031 166.403 167.721 165.746C167.41 165.089 167.044 164.082 166.903 163.509C166.692 162.586 166.649 161.411 166.607 153.511C166.579 148.589 166.607 144.52 166.664 144.451C166.72 144.395 167.284 144.255 167.904 144.143C168.665 144.017 169.722 143.961 171.145 143.989ZM111.036 185.853C111.303 185.881 111.811 185.992 112.163 186.104C112.515 186.216 112.952 186.426 113.502 186.817L112.868 187.698L112.205 187.321C111.783 187.097 111.247 186.929 110.754 186.887C110.105 186.845 109.852 186.901 109.217 187.237C108.71 187.489 108.372 187.796 108.203 188.118C108.048 188.383 107.935 188.775 107.935 188.985C107.935 189.208 108.09 189.544 108.259 189.754C108.442 189.977 109.133 190.425 109.781 190.774C110.43 191.11 111.177 191.585 111.444 191.823C111.698 192.047 112.008 192.424 112.135 192.662C112.248 192.9 112.346 193.361 112.36 193.711C112.36 194.13 112.248 194.578 112.008 195.039C111.768 195.528 111.444 195.878 110.965 196.2C110.57 196.451 110.007 196.731 109.697 196.815C109.387 196.885 108.752 196.927 108.287 196.885C107.822 196.857 107.132 196.689 106.737 196.535C106.356 196.367 105.877 196.074 105.328 195.515L106.089 194.759L106.413 195.067C106.596 195.235 106.977 195.473 107.273 195.584C107.554 195.71 108.175 195.808 108.64 195.808C109.203 195.808 109.673 195.715 110.049 195.528C110.359 195.375 110.74 195.039 110.895 194.787C111.064 194.522 111.177 194.088 111.177 193.739C111.177 193.319 111.078 193.04 110.852 192.76C110.669 192.55 109.979 192.103 109.33 191.767C108.682 191.432 107.949 191.012 107.724 190.844C107.498 190.663 107.188 190.299 107.061 190.019C106.92 189.74 106.807 189.25 106.807 188.915C106.807 188.593 106.948 188.048 107.132 187.698C107.301 187.363 107.695 186.901 108.005 186.678C108.315 186.454 108.724 186.216 108.922 186.132C109.119 186.062 109.556 185.951 109.908 185.895C110.26 185.839 110.768 185.811 111.036 185.853ZM86.7098 186.02H87.2454C87.5836 186.02 87.7809 186.09 87.7809 186.188C87.7809 186.286 87.6118 187.153 87.4286 188.118C87.2313 189.083 87.0762 189.936 87.0762 190.005C87.0762 190.075 87.2454 189.977 87.4568 189.782C87.6823 189.572 88.0487 189.306 88.2742 189.194C88.4997 189.083 88.9225 188.943 89.1903 188.887C89.4722 188.831 90.0077 188.859 90.4587 188.971C91.0084 189.097 91.3748 189.292 91.7413 189.642C92.0936 190.005 92.2909 190.369 92.4178 190.914C92.5446 191.404 92.5728 192.005 92.5164 192.592C92.4741 193.096 92.2627 193.851 92.0654 194.27C91.8681 194.69 91.4453 195.305 91.1211 195.64C90.797 195.976 90.2755 196.381 89.9655 196.535C89.6554 196.689 89.0916 196.857 88.697 196.899C88.2319 196.955 87.7809 196.899 87.3581 196.745C87.0058 196.633 86.5548 196.339 86.3434 196.102C86.0897 195.822 85.9206 195.738 85.8924 195.836C85.8642 195.934 85.7937 196.186 85.7514 196.395C85.681 196.731 85.5964 196.787 85.1736 196.787C84.9058 196.787 84.6803 196.745 84.6803 196.675C84.6803 196.619 85.1313 194.2 85.6951 191.292L86.7098 186.02ZM88.7252 190.005C88.5138 190.047 88.0769 190.327 87.7387 190.621C87.4004 190.928 86.9917 191.488 86.8085 191.921C86.6252 192.327 86.442 193.054 86.3997 193.501C86.3575 194.102 86.3997 194.508 86.5689 194.871C86.6816 195.165 86.9917 195.515 87.2454 195.668C87.4991 195.822 87.9641 195.962 88.2742 195.962C88.5984 195.962 89.1057 195.822 89.4722 195.626C89.8104 195.459 90.3178 195.025 90.5715 194.69C90.8252 194.34 91.1352 193.753 91.248 193.361C91.3466 192.984 91.4453 192.382 91.4453 192.033C91.4453 191.697 91.3326 191.194 91.1916 190.928C91.0648 190.663 90.7829 190.341 90.5997 190.201C90.4024 190.075 90.05 189.936 89.8245 189.894C89.5849 189.852 89.3312 189.838 89.2608 189.866C89.1762 189.894 88.9366 189.949 88.7252 190.005ZM134.896 186.02H135.432C135.728 186.02 135.981 186.076 135.981 186.132C135.981 186.188 135.601 188.16 135.136 190.495C134.671 192.844 134.29 194.927 134.29 195.109C134.276 195.305 134.361 195.542 134.459 195.64C134.558 195.738 134.755 195.822 134.882 195.822C135.037 195.822 135.136 195.92 135.136 196.088C135.136 196.242 135.094 196.465 135.065 196.577C135.023 196.717 134.812 196.787 134.502 196.787C134.177 196.787 133.853 196.675 133.586 196.437C133.233 196.158 133.163 195.99 133.163 195.501C133.163 195.179 133.543 192.914 134.022 190.467L134.896 186.02ZM139.928 186.02L139.843 186.538C139.787 186.831 139.73 187.111 139.702 187.167C139.674 187.237 139.392 187.279 138.518 187.279L138.603 186.747C138.645 186.468 138.716 186.188 138.744 186.118C138.786 186.062 139.068 186.02 139.928 186.02ZM116.603 186.859C116.87 186.859 117.096 186.901 117.096 186.957C117.082 187.027 116.997 187.475 116.884 187.978C116.772 188.481 116.687 188.929 116.673 188.985C116.673 189.055 117.096 189.097 118.576 189.097L118.505 189.558C118.421 190.005 118.421 190.005 116.462 190.145L116.081 192.103C115.87 193.179 115.701 194.298 115.701 194.578C115.687 194.969 115.785 195.207 116.039 195.459C116.278 195.696 116.546 195.808 116.884 195.808C117.279 195.808 117.378 195.864 117.378 196.088C117.378 196.242 117.35 196.465 117.307 196.577C117.26 196.717 117.049 196.787 116.673 196.787C116.363 196.787 115.87 196.675 115.588 196.535C115.236 196.367 114.996 196.13 114.813 195.738C114.686 195.431 114.559 194.955 114.559 194.69C114.559 194.424 114.714 193.417 114.911 192.452C115.109 191.488 115.292 190.565 115.334 190.383C115.391 190.103 115.348 190.075 114.911 190.075C114.615 190.075 114.418 190.005 114.418 189.894C114.418 189.81 114.446 189.586 114.489 189.404C114.545 189.166 114.672 189.083 115.602 189.027L115.785 188.118C115.884 187.614 115.997 187.125 116.039 187.027C116.067 186.943 116.321 186.859 116.603 186.859ZM123.509 188.831C123.748 188.831 124.185 188.887 124.495 188.971C124.805 189.055 125.242 189.264 125.468 189.432C125.707 189.586 126.003 189.977 126.144 190.285C126.285 190.607 126.398 191.18 126.398 191.613C126.398 192.033 126.37 192.522 126.327 192.69C126.257 193.012 126.257 193.012 120.197 193.012V193.529C120.197 193.823 120.337 194.34 120.507 194.676C120.69 195.025 121.014 195.431 121.225 195.584C121.55 195.822 121.845 195.878 122.649 195.878C123.48 195.878 123.805 195.808 124.425 195.487C124.847 195.277 125.214 195.123 125.214 195.137C125.228 195.165 125.313 195.333 125.411 195.528C125.566 195.836 125.552 195.906 125.327 196.074C125.172 196.172 124.777 196.395 124.425 196.563C123.931 196.787 123.523 196.857 122.592 196.857C121.648 196.857 121.268 196.787 120.831 196.563C120.521 196.395 120.084 196.046 119.844 195.78C119.619 195.501 119.337 195.039 119.252 194.745C119.154 194.438 119.069 193.948 119.069 193.641C119.069 193.333 119.168 192.732 119.295 192.313C119.407 191.893 119.731 191.222 119.985 190.844C120.253 190.453 120.633 190.019 120.859 189.852C121.07 189.698 121.479 189.446 121.747 189.306C122.015 189.166 122.437 188.999 122.663 188.943C122.903 188.887 123.283 188.845 123.509 188.831ZM121.169 190.942C120.972 191.194 120.732 191.543 120.648 191.711L120.478 192.033H125.27C125.27 190.914 125.186 190.677 124.89 190.341C124.551 189.977 124.368 189.894 123.72 189.838C123.1 189.782 122.804 189.838 122.24 190.131C121.86 190.313 121.366 190.677 121.169 190.942ZM145.847 188.831C146.044 188.817 146.439 188.887 146.735 188.957C147.017 189.041 147.411 189.278 147.609 189.516C147.806 189.754 148.003 190.173 148.046 190.453C148.102 190.802 147.961 191.907 147.623 193.641C147.327 195.109 147.073 196.409 147.045 196.535C146.989 196.717 146.834 196.787 146.481 196.787C146.087 196.787 145.988 196.731 145.988 196.507C145.988 196.353 146.185 195.235 146.411 194.018C146.65 192.816 146.862 191.655 146.904 191.432C146.946 191.222 146.918 190.872 146.834 190.635C146.763 190.397 146.566 190.145 146.411 190.075C146.256 190.005 145.861 189.936 145.537 189.936C145.157 189.936 144.649 190.075 144.17 190.313C143.747 190.537 143.254 190.886 143.057 191.124C142.873 191.362 142.591 191.781 142.451 192.061C142.295 192.354 141.985 193.515 141.76 194.648C141.52 195.794 141.337 196.731 141.337 196.745C141.337 196.773 141.083 196.787 140.773 196.787C140.308 196.787 140.224 196.745 140.28 196.535C140.308 196.409 140.632 194.787 140.985 192.942C141.337 191.096 141.661 189.474 141.704 189.334C141.746 189.166 141.901 189.097 142.746 189.097L142.676 189.824C142.62 190.383 142.634 190.509 142.746 190.313C142.817 190.187 143.183 189.88 143.564 189.628C143.93 189.376 144.508 189.097 144.861 188.999C145.213 188.915 145.65 188.831 145.847 188.831ZM132.359 188.957C132.867 188.957 132.881 188.971 132.796 189.404C132.74 189.656 132.684 189.908 132.655 189.963C132.627 190.033 132.416 190.075 132.176 190.075C131.951 190.075 131.584 190.159 131.373 190.271C131.147 190.383 130.781 190.677 130.527 190.942C130.288 191.194 129.921 191.711 129.738 192.103C129.541 192.48 129.329 193.026 129.245 193.291C129.16 193.557 128.991 194.34 128.864 195.039C128.737 195.738 128.61 196.409 128.568 196.535C128.526 196.717 128.371 196.787 128.019 196.787C127.596 196.787 127.525 196.745 127.525 196.465C127.525 196.298 127.821 194.676 128.174 192.872C128.526 191.068 128.836 189.474 128.878 189.334C128.921 189.166 129.076 189.097 129.921 189.097L129.752 190.565L130.161 190.075C130.386 189.81 130.851 189.446 131.204 189.278C131.542 189.097 132.063 188.957 132.359 188.957ZM138.166 189.097H138.687C138.983 189.097 139.223 189.166 139.223 189.236C139.223 189.306 138.885 191.04 137.743 196.787H137.222C136.785 196.787 136.7 196.745 136.728 196.535C136.757 196.409 137.095 194.676 137.475 192.69L138.166 189.097Z" fill="white"/>
<path d="M117.656 8.63744C116.415 8.46965 114.611 8.38575 111.595 8.35779C108.608 8.32982 106.775 8.37177 105.606 8.51159C104.675 8.60947 103.308 8.80523 102.575 8.93107C101.843 9.05691 100.475 9.33656 99.5452 9.56028C98.6151 9.77002 97.1493 10.1755 96.3037 10.4552C95.4581 10.7208 93.9641 11.2661 92.9917 11.6577C92.0192 12.0492 90.4689 12.7762 89.5387 13.2517C88.6085 13.7271 87.185 14.5241 86.3958 15.0274C85.5925 15.5168 84.169 16.4956 83.2247 17.1947C82.2804 17.8938 80.8992 18.9985 80.1664 19.6556C79.4335 20.3128 78.151 21.5433 77.3194 22.3962C76.4738 23.2631 75.1772 24.7313 74.4161 25.6681C73.6551 26.6189 72.4289 28.2968 71.6819 29.4154C70.935 30.534 69.9343 32.128 69.441 32.9809C68.9478 33.8339 68.0035 35.6516 67.327 37.0358C66.6505 38.4201 65.7485 40.4336 65.3257 41.5102C64.9029 42.5869 64.2827 44.3207 63.9586 45.3554C63.6344 46.3901 63.1411 48.2218 62.8452 49.4103C62.5492 50.5988 62.1687 52.3606 61.9995 53.3254C61.8445 54.2902 61.6049 55.8982 61.4781 56.8909C61.3653 57.8837 61.2244 60.1908 61.1821 61.9946C61.1398 64.022 61.168 66.1054 61.2667 67.4477C61.3653 68.6362 61.5345 70.3421 61.6472 71.223C61.76 72.1039 62.07 73.8936 62.3378 75.208C62.6056 76.5223 63.0848 78.4659 63.3948 79.5426C63.719 80.6192 64.1418 81.9755 64.3391 82.5488C64.5364 83.1221 64.9874 84.3246 65.3257 85.2055C65.678 86.0864 66.4954 87.9181 67.1579 89.2604C67.8062 90.6027 68.9055 92.6441 69.6102 93.8047C70.3008 94.9512 70.9632 96.0279 71.0759 96.1817C71.1887 96.3355 71.3155 96.4334 71.3578 96.3914C71.4001 96.3495 71.2309 95.8461 70.9913 95.2728C70.7658 94.6996 70.2585 93.2873 69.8638 92.1268C69.4833 90.9802 68.9478 89.1485 68.68 88.0719C68.4122 86.9952 68.0317 85.2614 67.8484 84.2267C67.6511 83.192 67.3834 81.4302 67.2424 80.3116C67.0592 78.7595 66.9887 77.2634 66.9887 73.9496C66.9887 70.6357 67.0592 69.1396 67.2424 67.5875C67.3834 66.4689 67.6511 64.7072 67.8484 63.6725C68.0317 62.6377 68.384 61.0018 68.6236 60.037C68.8632 59.0722 69.3424 57.4083 69.6947 56.3317C70.0471 55.255 70.6531 53.5911 71.0336 52.6263C71.4142 51.6615 72.1611 49.9976 72.6826 48.9209C73.2041 47.8443 74.0356 46.2783 74.5148 45.4253C75.0081 44.5724 75.9242 43.1042 76.5584 42.1394C77.1926 41.1747 78.151 39.8184 78.6865 39.1332C79.2221 38.4481 80.1241 37.3015 80.716 36.6164C81.2939 35.9312 82.5482 34.5749 83.4784 33.6241C84.4086 32.6733 85.832 31.317 86.6495 30.6039C87.4669 29.9048 88.7635 28.8281 89.5387 28.2269C90.3139 27.6256 91.9346 26.4931 93.1326 25.71C94.3306 24.927 95.8809 23.9622 96.5856 23.5707C97.2902 23.1792 98.8406 22.3962 100.039 21.8229C101.236 21.2496 103.139 20.4247 104.267 20.0052C105.394 19.5857 106.677 19.1243 107.128 18.9705C107.565 18.8307 107.931 18.6908 107.931 18.6489C107.931 18.6069 107.057 18.3692 106 18.1176C104.929 17.8659 103.449 17.5583 102.716 17.4464C101.941 17.3206 100.109 17.1947 98.3473 17.1528C96.05 17.0968 94.8943 17.1388 93.5977 17.3066C92.6393 17.4324 91.0185 17.74 90.0038 18.0057C88.9749 18.2714 87.4669 18.7468 86.6495 19.0684C85.832 19.39 84.4509 20.0192 83.5911 20.4806C82.7173 20.928 81.9281 21.3056 81.8576 21.3056C81.7871 21.3056 82.0549 21.0119 82.4636 20.6624C82.8583 20.3128 83.7603 19.5997 84.465 19.0684C85.1696 18.551 86.2689 17.782 86.9314 17.3485C87.5938 16.929 88.834 16.202 89.6796 15.7266C90.5253 15.2511 91.8923 14.58 92.7098 14.2304C93.5272 13.8669 94.8943 13.3355 95.7399 13.0279C96.5856 12.7203 97.9526 12.3008 98.7701 12.0771C99.5875 11.8534 100.884 11.5458 101.659 11.392C102.434 11.2382 103.9 11.0005 104.901 10.8607C106.254 10.6929 107.762 10.6229 110.609 10.6229C112.906 10.609 115.119 10.6789 116.035 10.7907C116.881 10.8886 118.374 11.0984 119.347 11.2522C120.319 11.406 121.968 11.7136 123.011 11.9513C124.054 12.175 125.929 12.6504 127.169 13C128.409 13.3635 130.537 14.0487 131.89 14.5241C133.243 15.0134 135.315 15.8244 136.471 16.3138C137.641 16.8032 138.909 17.3765 139.29 17.5583C139.684 17.754 141.418 18.3972 143.165 18.9705C144.913 19.5438 147.097 20.3408 148.028 20.7463C148.958 21.1518 149.86 21.5293 150.043 21.5992C150.212 21.6691 150.325 21.6831 150.297 21.6132C150.269 21.5572 149.338 20.942 148.225 20.2289C147.112 19.5298 145.406 18.4951 144.434 17.9498C143.461 17.3905 141.277 16.2579 139.571 15.4329C137.866 14.608 135.639 13.6012 134.639 13.1957C133.638 12.7902 131.947 12.161 130.904 11.7975C129.861 11.4339 127.958 10.8467 126.676 10.4831C125.393 10.1336 123.237 9.63019 121.884 9.36453C120.531 9.09886 118.628 8.77726 117.656 8.63744Z" fill="#C9E00C"/>
</svg>
