<svg width="400" height="400" viewBox="0 0 400 400" fill="none" xmlns="http://www.w3.org/2000/svg">
<path d="M198.4 394.288C306.078 394.288 393.368 345.544 393.368 285.416C393.368 225.288 306.078 176.544 198.4 176.544C90.7222 176.544 3.43201 225.288 3.43201 285.416C3.43201 345.544 90.7222 394.288 198.4 394.288Z" fill="#E9F9EE"/>
<path d="M80.976 326.656C103.872 326.656 122.432 315.939 122.432 302.72C122.432 289.5 103.872 278.784 80.976 278.784C58.0805 278.784 39.52 289.5 39.52 302.72C39.52 315.939 58.0805 326.656 80.976 326.656Z" fill="#D8F5E0"/>
<path d="M94.552 278.4C94.472 272.92 97.128 240.12 97.128 240.12L80.8 247.896C82.4 267.768 83.752 277.248 83.704 278.856C83.6231 279.115 83.5826 279.385 83.5841 279.656C83.4161 283.272 87.584 285.456 90.856 288.048C93.6126 290.331 96.5563 292.379 99.656 294.168C102.056 295.456 106.984 295.832 107.656 294.368C103.72 291.168 99.16 287.704 96.08 284.144C94.632 282.4 94.616 282.208 94.552 278.4Z" fill="#9E6767"/>
<path d="M114.448 298.616C114.656 298.616 114.864 300.84 113.648 301.712C112.288 302.712 108.352 304.272 103.296 303.376C98.24 302.48 95.584 300.8 93.6 299.104C91.616 297.408 88.904 294.936 86.624 294.304C84.512 293.736 82.232 292.704 81.576 292.032C80.92 291.36 81.16 288.576 81.16 288.576L114.448 298.616Z" fill="black"/>
<path d="M99.3841 285.552C99.0721 285.216 98.7681 284.88 98.4801 284.544C97.7228 283.632 97.1251 282.599 96.7121 281.488C96.4973 281.021 96.3077 280.543 96.1441 280.056C95.9681 279.384 95.8721 278.68 95.7361 278C95.6774 277.667 95.5863 277.34 95.4641 277.024C95.389 276.813 95.2338 276.641 95.0321 276.544C94.9079 276.52 94.7803 276.52 94.6561 276.544C92.7502 276.607 90.875 277.041 89.1361 277.824C88.6801 278.032 88.3361 278.28 88.2801 278.792C88.3226 279.384 88.2381 279.979 88.0321 280.536C87.9884 280.639 87.9163 280.728 87.8241 280.792C87.7567 280.829 87.681 280.849 87.6041 280.849C87.5272 280.849 87.4515 280.829 87.3841 280.792C87.2466 280.716 87.1309 280.606 87.0481 280.472C86.5441 279.76 86.4241 278.808 85.8481 278.144C85.5284 277.796 85.1047 277.56 84.6401 277.472C84.4161 277.424 83.6561 277.408 83.6081 277.088L83.4641 275.608C83.4641 275.608 83.0081 275.392 82.7121 276.272C82.5038 277.186 82.3858 278.119 82.3601 279.056C82.2641 280.072 82.1281 280.864 81.9521 281.872C81.7361 283.072 81.5361 284.272 81.3441 285.472C81.0641 286.623 80.9536 287.809 81.0161 288.992C81.0745 289.514 81.329 289.995 81.7281 290.336C82.3324 290.943 83.0428 291.434 83.8241 291.784C84.8801 292.296 85.9841 292.712 87.0721 293.168C89.6256 294.387 91.9845 295.978 94.0721 297.888C97.1389 300.257 100.781 301.767 104.624 302.264C109.68 302.6 113.328 301.176 114.424 299.496C114.6 298.328 114.752 297.096 114.264 296.232C112.664 293.384 108.8 292.232 105.744 290.512C104.415 289.729 103.14 288.858 101.928 287.904C101.017 287.191 100.166 286.405 99.3841 285.552Z" fill="#37474F"/>
<path d="M96.4561 292.944C96.5464 292.998 96.6521 293.02 96.7564 293.007C96.8608 292.994 96.9578 292.947 97.0321 292.872C99.2401 290.704 103.432 289.416 104.808 289.912C104.808 289.912 104.64 289.24 103.208 288.832C103.208 288.832 99.536 288.48 95.904 291.928C95.8521 291.979 95.8126 292.04 95.7884 292.109C95.7642 292.177 95.756 292.25 95.7645 292.322C95.773 292.394 95.798 292.463 95.8374 292.524C95.8769 292.584 95.9298 292.635 95.992 292.672L96.4561 292.944Z" fill="#FAFAFA"/>
<path d="M101.352 287.408C99.832 286.832 96.152 288.448 94.336 290.216C94.2629 290.294 94.1636 290.342 94.0572 290.351C93.9509 290.36 93.845 290.329 93.76 290.264L93.304 289.92C93.2539 289.88 93.2135 289.828 93.1857 289.77C93.158 289.712 93.1436 289.649 93.1436 289.584C93.1436 289.52 93.158 289.456 93.1857 289.398C93.2135 289.34 93.2539 289.289 93.304 289.248C94.328 288.304 97.304 285.896 100.136 286.288C100.104 286.288 101.24 286.848 101.352 287.408Z" fill="#FAFAFA"/>
<path d="M98.4801 284.544C97.3841 284.296 94.4801 284.904 92.0801 286.792C92.0333 286.828 91.9793 286.854 91.9217 286.867C91.8641 286.88 91.8043 286.881 91.7465 286.869C91.6887 286.856 91.6342 286.832 91.5868 286.797C91.5394 286.761 91.5003 286.716 91.4721 286.664L91.2641 286.248C91.2199 286.167 91.2061 286.072 91.2251 285.981C91.2442 285.89 91.2948 285.809 91.3681 285.752C92.1681 285.096 95.0081 283.104 97.6641 283.456C98.0275 283.74 98.3091 284.116 98.4801 284.544Z" fill="#FAFAFA"/>
<path d="M107.616 291.44C101.304 292.776 98.8721 296.816 97.7201 300.136C99.8801 301.234 102.218 301.941 104.624 302.224C109.68 302.56 113.328 301.136 114.424 299.456C114.6 298.288 114.752 297.056 114.264 296.192C112.992 293.904 110.232 292.712 107.616 291.44Z" fill="#FAFAFA"/>
<path d="M68.736 255.12L53.536 252.968C53.776 260.968 53.256 271.64 52.904 280.624C52.4779 282.582 52.3993 284.599 52.672 286.584C52.984 288.312 50.272 300.64 51.072 304.24C52.224 309.648 60.672 307.96 61.024 304.696C61.376 301.432 62.384 294.896 63.488 286.296C64.376 278.936 68.664 255.632 68.736 255.12Z" fill="#9E6767"/>
<path d="M62.96 306.744L57.8961 295.44C56.4801 294.64 54.8001 293.04 53.2241 293.92C52.6686 294.2 52.1544 294.555 51.6961 294.976C50.5201 296.144 50.4081 297.832 50.0961 299.352C49.7841 300.872 48.6641 302.264 48.4241 303.84C47.9681 306.808 47.8481 308.688 48.6401 311.416C49.4321 314.144 52.0881 315.688 54.7361 316.464C56.9521 317.112 59.7681 316.52 61.0001 314.632C62.5281 312.256 62.856 309.936 62.96 306.744Z" fill="black"/>
<path d="M62.8961 306.64C60.8561 303.888 51.0001 302.904 48.2401 305.376C48.2401 305.016 48.3121 304.624 48.3601 304.216C48.6445 301.523 49.2158 298.868 50.0641 296.296C50.596 294.69 51.0052 293.045 51.2881 291.376C51.5041 289.656 51.7601 286.088 51.8721 284.872C51.9041 283.671 52.0163 282.474 52.2081 281.288C52.2961 280.936 52.4001 280.488 52.8641 280.624C52.8641 280.624 52.8641 281.216 52.7921 281.576C52.7201 281.936 52.7361 282.312 52.7121 282.624C52.6481 283.36 52.6481 284.024 52.6401 284.768C52.6197 285.052 52.6522 285.337 52.7361 285.608C52.7595 285.67 52.8014 285.723 52.8561 285.76C53.0641 285.848 53.0481 285.36 53.0641 285.264L53.3921 283.432C53.3978 283.336 53.4343 283.243 53.4961 283.168C53.5505 283.115 53.6161 283.074 53.6881 283.048C55.2321 282.448 56.3761 281.936 57.9681 282.2C58.8548 282.331 59.7278 282.543 60.5761 282.832C61.1921 283.048 62.2881 283.392 62.6321 283.992C62.7591 284.285 62.7872 284.611 62.7121 284.92C62.6241 285.72 62.5121 286.672 62.3921 287.6C62.2561 288.72 63.6801 284.968 63.9201 282.848C64.5121 282.984 64.4401 283.648 63.9201 286.16C63.2993 289.316 62.8931 292.51 62.7041 295.72C62.5601 298.281 62.5601 300.848 62.7041 303.408C62.8161 304.544 62.8801 305.6 62.8961 306.64Z" fill="#37474F"/>
<path d="M51.576 300.432C54.7265 300.046 57.9235 300.377 60.928 301.4C60.9686 301.418 61.0129 301.424 61.0569 301.42C61.1008 301.416 61.143 301.401 61.1796 301.376C61.2162 301.352 61.2461 301.318 61.2664 301.279C61.2867 301.24 61.2969 301.196 61.296 301.152V300.28C61.2957 300.231 61.2811 300.183 61.2542 300.142C61.2272 300.101 61.189 300.068 61.144 300.048C58.1403 298.771 54.8146 298.455 51.624 299.144C51.5694 299.155 51.5195 299.182 51.4808 299.222C51.4422 299.262 51.4168 299.313 51.408 299.368L51.288 300.168C51.2866 300.205 51.2932 300.242 51.3075 300.277C51.3218 300.311 51.3434 300.342 51.3709 300.367C51.3983 300.392 51.4308 300.411 51.4663 300.422C51.5017 300.433 51.5392 300.437 51.576 300.432Z" fill="#FAFAFA"/>
<path d="M52.496 296.096C55.3308 295.693 58.2218 296.084 60.848 297.224C60.8863 297.241 60.9281 297.249 60.9698 297.246C61.0116 297.243 61.0519 297.23 61.0875 297.208C61.123 297.186 61.1526 297.155 61.1736 297.119C61.1946 297.083 61.2064 297.042 61.208 297V296.2C61.2066 296.153 61.1914 296.108 61.1644 296.07C61.1374 296.031 61.0997 296.002 61.056 295.984C60.304 295.648 57.648 294.064 52.536 294.92C52.4834 294.926 52.434 294.949 52.3952 294.985C52.3563 295.021 52.33 295.068 52.32 295.12L52.208 295.824C52.2068 295.862 52.2134 295.899 52.2277 295.934C52.2419 295.968 52.2634 296 52.2906 296.025C52.3179 296.051 52.3503 296.071 52.3857 296.083C52.4211 296.095 52.4587 296.1 52.496 296.096Z" fill="#FAFAFA"/>
<path d="M53.2801 292.136C55.932 291.726 58.646 292.09 61.0961 293.184C61.1329 293.2 61.1732 293.207 61.2132 293.203C61.2533 293.2 61.2918 293.186 61.3252 293.164C61.3587 293.142 61.386 293.111 61.4047 293.076C61.4233 293.04 61.4328 293 61.4321 292.96V292.16C61.429 292.116 61.4139 292.073 61.3886 292.037C61.3633 292 61.3285 291.971 61.2881 291.952C60.5921 291.624 58.0881 290.104 53.2881 290.968C53.2379 290.976 53.1914 291 53.1555 291.036C53.1195 291.072 53.0959 291.118 53.0881 291.168L52.9841 291.848C52.9766 291.888 52.9791 291.93 52.9915 291.969C53.0038 292.008 53.0256 292.043 53.0549 292.072C53.0842 292.1 53.1201 292.121 53.1594 292.132C53.1987 292.143 53.2401 292.145 53.2801 292.136Z" fill="#FAFAFA"/>
<path d="M48.2641 305.408C48.1761 308.088 48.4081 309.912 49.8161 311.912C51.6081 314.472 58.2321 316.864 61.0881 313.072C62.5041 311.184 62.8321 308.976 62.9601 306.744C61.0801 303.912 51.0001 302.896 48.2641 305.408Z" fill="#FAFAFA"/>
<path d="M57.1841 168.32C55.0481 185.56 55.3121 206.312 54.6401 217.424C53.9681 228.536 52.7281 236.088 52.5921 244.544C52.3601 258.84 52.8001 274.4 52.8001 274.4C52.8001 274.4 58.8161 277.832 65.6001 275.576C65.6001 275.576 71.2641 246.648 72.7121 237.736C74.7841 225.04 77.5121 202.472 77.5121 202.472L80.0081 226.472C78.8997 232.422 78.6492 238.5 79.2641 244.52C79.8881 250.12 82.5521 270.608 82.5521 270.608C84.6505 271.437 86.9052 271.794 89.157 271.656C91.4087 271.518 93.6027 270.887 95.5841 269.808C95.5841 269.808 99.0961 230.608 99.3841 225.432C99.8081 218.144 100.272 163.832 100.184 157.616L57.1841 168.32Z" fill="#455A64"/>
<path d="M77.4961 202.44L79.4081 189.64C79.4081 189.64 88.0321 187.24 91.6881 181.432C89.2881 188.576 81.3361 191.744 81.3361 191.744L78.6081 204.168L80.0001 226.44L77.4961 202.44Z" fill="#37474F"/>
<path d="M89.7919 110.488C96.5999 111.56 98.8319 113.904 101.248 119.672C105.36 129.504 109.352 139.2 109.352 139.2L128.16 146.72L126.504 158.72C126.504 158.72 112.056 155.76 103.56 153.512C101.16 152.864 100.288 151.328 99.1039 149.584C98.1279 148.16 88.7999 130.792 88.7999 130.792L89.7919 110.488Z" fill="#263238"/>
<path d="M99.0159 126.12C97.2559 117.048 96.4399 113.024 90.5439 111C84.6479 108.976 74.5439 109.056 74.5439 109.056C71.5039 109.856 62.0159 112.128 57.8799 113.36C53.7439 114.592 54.5999 124.208 55.5599 130.344C56.7223 137.352 57.4596 144.423 57.7679 151.52C57.6079 161.296 56.7279 167.896 56.3439 173.488C65.1439 179.088 90.8959 178.096 100.232 172.472C100.448 167.824 100.52 155.56 100.44 149.544C100.288 138.256 99.7519 129.944 99.0159 126.12Z" fill="#37474F"/>
<path d="M60.72 112.296C57.208 112.904 52.768 113.896 50.776 117.096C49.336 119.416 41.696 137.36 41.888 144.672C44.816 152.968 59.944 137.744 59.944 137.744C61.688 127.848 63.832 117.552 60.72 112.296Z" fill="#263238"/>
<path d="M93.248 73.7361C91.0213 71.3853 88.0946 69.8167 84.904 69.2642C81.7372 68.6591 78.4721 68.8126 75.376 69.7121C71.792 70.7681 67.944 73.8482 67.712 78.2402C66 78.6322 64.744 80.3841 64.32 82.4561C63.664 85.6561 64.68 89.0961 65.848 91.9921C65.848 91.9921 69.712 98.9521 70.432 100.4C71.232 102.088 71.864 103.496 71.864 103.496L71.648 98.2081C73.7471 98.1638 75.8292 97.8217 77.832 97.1921C79.8193 96.4765 81.7455 95.6017 83.592 94.5761C87.2474 92.4966 90.7045 90.0865 93.92 87.3762C95.752 85.8801 96.088 84.1762 96.176 81.8642C96.2572 80.3823 96.0398 78.8993 95.5369 77.503C95.0339 76.1068 94.2556 74.8258 93.248 73.7361Z" fill="#263238"/>
<path d="M76.184 79.32C75.6887 81.5514 74.478 83.56 72.736 85.04C73.12 87.1543 73.1417 89.3185 72.8 91.44C72.7201 91.895 72.5516 92.3299 72.304 92.72C72.1749 92.9118 72.0058 93.0733 71.8083 93.1934C71.6109 93.3136 71.3897 93.3895 71.16 93.416C70.544 93.416 70.296 93.072 70.112 92.616C69.8439 91.9945 69.5366 91.3906 69.192 90.808C69.0427 90.5524 68.8627 90.3159 68.656 90.104C67.728 89.224 64.952 88.128 63.624 91.072C62.296 94.016 64.656 98.216 66.888 98.872C70.744 100.008 71.616 97.384 71.616 97.384L72.168 111.2C74.24 113.424 82.224 116.68 84.472 119.312C85.528 117.56 87.872 114.64 85.776 110.752V106.232C87.308 106.309 88.8437 106.207 90.352 105.928C92.36 105.568 94.304 103.76 95.248 100.736C97.08 94.832 96.168 86.696 95.472 83.032C95.112 80.8084 94.1175 78.736 92.608 77.064C92.5367 76.9861 92.4484 76.9257 92.3499 76.8875C92.2515 76.8493 92.1455 76.8342 92.0403 76.8435C91.9351 76.8528 91.8335 76.8861 91.7433 76.941C91.653 76.9959 91.5767 77.0708 91.52 77.16C91.012 77.8331 90.3703 78.3938 89.6351 78.8068C88.8999 79.2199 88.0871 79.4763 87.248 79.56C84.848 79.88 80.952 79.256 78.016 78.304C77.8293 78.2395 77.631 78.215 77.4342 78.2322C77.2373 78.2493 77.0463 78.3077 76.8735 78.4035C76.7007 78.4993 76.55 78.6305 76.4312 78.7884C76.3124 78.9463 76.2282 79.1274 76.184 79.32Z" fill="#9E6767"/>
<path d="M85.7761 106.208C82.2081 105.832 78.4801 105.224 76.4881 104.144C75.1955 103.476 74.1212 102.452 73.3921 101.192C73.3921 101.192 73.5441 102.616 75.4321 104.528C77.5601 106.68 85.7761 107.568 85.7761 107.568V106.208Z" fill="#874C4C"/>
<path d="M82.1201 89.6644C82.1138 89.9056 82.0368 90.1396 81.8987 90.3374C81.7606 90.5352 81.5674 90.6881 81.3432 90.7772C81.119 90.8662 80.8736 90.8875 80.6374 90.8383C80.4012 90.7891 80.1846 90.6717 80.0146 90.5005C79.8445 90.3294 79.7285 90.1121 79.6808 89.8756C79.6331 89.6391 79.6559 89.3938 79.7464 89.1702C79.8369 88.9465 79.991 88.7544 80.1897 88.6175C80.3884 88.4807 80.6229 88.4052 80.8641 88.4004C81.1979 88.4025 81.5174 88.5366 81.7527 88.7734C81.988 89.0102 82.1201 89.3305 82.1201 89.6644Z" fill="#263238"/>
<path d="M90.3521 83.2C91.6359 83.4123 92.8523 83.9219 93.904 84.688C94.0944 84.2023 94.0891 83.6617 93.8892 83.1798C93.6893 82.698 93.3104 82.3123 92.832 82.104C92.5978 82.0079 92.3465 81.9601 92.0933 81.9635C91.8401 81.9669 91.5902 82.0215 91.3586 82.1238C91.127 82.2262 90.9185 82.3743 90.7455 82.5592C90.5725 82.7441 90.4387 82.9621 90.3521 83.2Z" fill="#263238"/>
<path d="M82.064 96.9043L86.464 98.1603C86.3952 98.4548 86.2676 98.7324 86.0889 98.9764C85.9103 99.2204 85.6842 99.4259 85.4243 99.5805C85.1644 99.7351 84.8759 99.8357 84.5762 99.8762C84.2765 99.9167 83.9717 99.8964 83.68 99.8163C83.0862 99.6343 82.5861 99.2292 82.2848 98.6862C81.9834 98.1432 81.9043 97.5045 82.064 96.9043Z" fill="#874C4C"/>
<path d="M82.4881 97.9199C82.9911 97.9586 83.4626 98.1801 83.8134 98.5427C84.1642 98.9053 84.3701 99.3839 84.3921 99.8879C84.1525 99.8996 83.9125 99.8754 83.6801 99.8159C83.2733 99.6801 82.9104 99.4378 82.629 99.1143C82.3476 98.7907 82.1581 98.3976 82.0801 97.9759C82.214 97.9442 82.3506 97.9255 82.4881 97.9199Z" fill="#F28F8F"/>
<path d="M81.416 86.224C80.1476 86.4546 78.9975 87.1158 78.16 88.096C78.036 87.8871 77.9549 87.6556 77.9216 87.4149C77.8882 87.1743 77.9033 86.9294 77.9659 86.6946C78.0285 86.4599 78.1373 86.24 78.2861 86.0479C78.4348 85.8558 78.6204 85.6954 78.832 85.576C79.2629 85.3288 79.7728 85.2581 80.2547 85.379C80.7366 85.4998 81.1528 85.8027 81.416 86.224Z" fill="#263238"/>
<path d="M93.0241 88.7039C93.0193 88.9471 92.9432 89.1835 92.8051 89.3836C92.6671 89.5838 92.4732 89.739 92.2476 89.8299C92.022 89.9208 91.7747 89.9433 91.5365 89.8947C91.2982 89.8461 91.0795 89.7285 90.9075 89.5565C90.7355 89.3846 90.6179 89.1658 90.5693 88.9276C90.5207 88.6893 90.5433 88.442 90.6341 88.2164C90.725 87.9908 90.8802 87.7969 91.0804 87.6589C91.2806 87.5208 91.5169 87.4447 91.7601 87.4399C92.0953 87.4399 92.4168 87.5731 92.6539 87.8102C92.8909 88.0472 93.0241 88.3687 93.0241 88.7039Z" fill="#263238"/>
<path d="M85.672 86.3442L86.472 95.4482L90.984 94.0642C89.7751 91.1464 87.9651 88.516 85.672 86.3442Z" fill="#874C4C"/>
<path d="M84.472 119.288C82.872 118.312 79.768 116.024 78.216 117.984C76.664 119.944 75.5201 122.232 74.3841 121.888C73.2481 121.544 69.52 117.984 68.112 114.912C67.4021 113.231 67.0323 111.425 67.024 109.6C67.024 109.6 68.3761 108.112 69.4961 106.96C70.7361 105.68 70.9441 105.36 71.8961 105.28L72.024 108.688C72.1284 109.364 72.366 110.013 72.7231 110.597C73.0801 111.181 73.5495 111.687 74.104 112.088C76.904 114.112 82.48 114.84 84.472 119.288Z" fill="#263238"/>
<path d="M84.472 119.288C85.416 118.44 86.736 116.152 88.256 116.6C89.776 117.048 91.256 120.056 91.304 119.24C91.352 118.424 90 114.096 88.736 111.704C87.768 109.864 86.792 108.24 85.776 108.056V110.728C85.776 110.728 85.7761 113.04 85.6641 114.424C85.6044 116.11 85.1986 117.766 84.472 119.288Z" fill="#263238"/>
<path d="M60.5439 118.76C62.0674 116.852 63.196 114.661 63.8639 112.312C64.5439 109.576 66.7039 107.056 67.4399 106.024C68.1759 104.992 69.7599 103.464 70.9679 102.024C72.1759 100.584 72.5679 100.16 74.2719 99.8722C76.6719 99.4642 78.5359 99.0722 79.4719 99.3762C80.4079 99.6802 80.3759 100.272 79.5679 101.096C78.7599 101.92 77.0399 102.128 76.5119 102.288C75.9839 102.448 74.8159 102.96 74.8159 102.96L72.5999 106.216C74.1199 106.475 75.6196 106.842 77.0879 107.312C77.8239 107.712 78.4559 109.608 78.1279 110.664C78.1279 110.664 79.5039 111.592 78.9279 112.944C78.9279 112.944 79.7679 114.04 79.1919 114.944C78.5412 115.85 77.7927 116.682 76.9599 117.424C76.5039 117.816 74.6959 117.912 74.6959 117.912C73.8988 119.127 72.9468 120.232 71.8639 121.2C70.5759 122.152 69.7359 122.088 68.3279 124.088L60.5439 118.76Z" fill="#9E6767"/>
<path d="M74.288 106.536C75.176 106.152 75.376 105.552 76.216 105.872C77.056 106.192 76.728 107.144 76.728 107.144L74.288 106.536Z" fill="#874C4C"/>
<path d="M78.104 110.728C77.5491 110.26 76.9361 109.864 76.28 109.552C75.664 109.248 74.4 108.8 74.4 108.8C75.295 108.876 76.1738 109.083 77.008 109.416C77.4349 109.582 77.8449 109.788 78.232 110.032C78.2295 110.241 78.2 110.448 78.144 110.648L78.104 110.728Z" fill="#874C4C"/>
<path d="M78.2239 112C78.5213 112.125 78.8099 112.269 79.0879 112.432C79.0649 112.64 79.0165 112.844 78.9439 113.04C78.2429 112.404 77.4289 111.905 76.5439 111.568C77.1186 111.648 77.6822 111.793 78.2239 112Z" fill="#874C4C"/>
<path d="M74.4 118.4C74.915 117.363 75.5285 116.377 76.232 115.456C76.4588 115.201 76.7736 115.041 77.1135 115.009C77.4533 114.976 77.7929 115.073 78.064 115.28C78.296 115.64 77.08 115.592 76.728 115.752C75.8188 116.508 75.0333 117.402 74.4 118.4Z" fill="#874C4C"/>
<path d="M71.576 106.104C71.576 106.104 72.264 105.136 73.488 103.592C74.712 102.048 74.6481 102.272 75.8401 102.04C77.0321 101.808 79.296 101.4 79.904 100.688C79.8021 100.827 79.6898 100.958 79.568 101.08C78.768 101.88 77.04 102.112 76.512 102.272C75.984 102.432 74.816 102.944 74.816 102.944L72.536 106.296L71.576 106.104Z" fill="#874C4C"/>
<path d="M60.544 118.76C56.536 123.6 45.728 135.2 43.2 139.864C41.472 143.064 41.04 150.512 42.8 153.216C44.56 155.92 49.608 154.816 53.696 151.2C57.216 148.104 60.16 140.656 62.72 135.352C65.28 130.048 68.32 124.072 68.32 124.072L60.544 118.76Z" fill="#9E6767"/>
<path d="M60.5439 118.76C61.4619 117.535 62.2653 116.229 62.9439 114.856C63.2697 114.165 63.5373 113.448 63.7439 112.712C63.9177 111.963 64.1614 111.232 64.4719 110.528C65.1456 109.148 65.9664 107.844 66.9199 106.64C67.8281 105.408 68.8197 104.24 69.8879 103.144C70.4079 102.584 70.8959 102 71.3839 101.408C71.8481 100.773 72.4875 100.286 73.2239 100.008C73.9686 99.8104 74.7247 99.6581 75.4879 99.5524C76.2399 99.4244 76.9919 99.2884 77.7599 99.2084C78.1446 99.1603 78.5326 99.1442 78.9199 99.1604C79.329 99.1615 79.728 99.2871 80.0639 99.5204C80.1538 99.5903 80.2239 99.6823 80.2674 99.7875C80.3109 99.8927 80.3262 100.007 80.3119 100.12C80.2771 100.328 80.195 100.525 80.0719 100.696C79.8439 101.018 79.5527 101.291 79.2159 101.496C78.5321 101.869 77.7915 102.125 77.0239 102.256C76.2877 102.453 75.5723 102.721 74.8879 103.056L74.9439 103.016L72.7199 106.264L72.6559 106.104C74.0159 106.376 75.3759 106.632 76.7119 107.04C76.8846 107.091 77.0509 107.161 77.2079 107.248C77.3654 107.349 77.5014 107.479 77.6079 107.632C77.8109 107.925 77.9699 108.246 78.0799 108.584C78.3355 109.253 78.3938 109.98 78.2479 110.68V110.584C78.6205 110.849 78.9159 111.208 79.1039 111.624C79.1973 111.836 79.2437 112.065 79.2399 112.296C79.2416 112.527 79.1982 112.755 79.1119 112.968V112.888C79.3291 113.152 79.4754 113.467 79.537 113.803C79.5985 114.139 79.5734 114.485 79.4639 114.808C79.1173 115.369 78.7095 115.89 78.2479 116.36C78.0239 116.6 77.7999 116.832 77.5599 117.064C77.3398 117.318 77.0667 117.52 76.7599 117.656C76.1273 117.84 75.4743 117.945 74.8159 117.968H74.8639C74.4427 118.587 73.9888 119.182 73.5039 119.752C73.0417 120.352 72.5039 120.89 71.9039 121.352C71.2879 121.792 70.5919 122.072 69.9839 122.512C69.3933 122.962 68.8776 123.502 68.4559 124.112C68.837 123.47 69.3177 122.892 69.8799 122.4C70.4799 121.952 71.1759 121.656 71.7759 121.208C72.3774 120.748 72.9154 120.21 73.3759 119.608C73.8486 119.031 74.2918 118.43 74.7039 117.808C75.3514 117.775 75.993 117.668 76.6159 117.488C76.9051 117.36 77.1599 117.165 77.3599 116.92C77.5919 116.696 77.8239 116.464 78.0399 116.224C78.4888 115.762 78.8858 115.253 79.2239 114.704C79.3185 114.406 79.3365 114.088 79.2764 113.781C79.2163 113.473 79.08 113.186 78.8799 112.944V112.904C78.9525 112.707 78.9904 112.499 78.9919 112.288C78.9894 112.079 78.9459 111.873 78.8639 111.68C78.6851 111.294 78.4095 110.961 78.0639 110.712H78.0159V110.648C78.1516 109.985 78.0933 109.296 77.8479 108.664C77.6159 108.04 77.2879 107.376 76.5919 107.248C75.2719 106.856 73.9039 106.6 72.5919 106.336H72.4319L72.5199 106.2L74.7279 102.944C75.4229 102.608 76.149 102.34 76.8959 102.144C77.6383 102.016 78.3562 101.773 79.0239 101.424C79.3475 101.221 79.6209 100.948 79.8239 100.624C80.0399 100.336 80.1439 99.9524 79.8239 99.7444C79.1647 99.4097 78.41 99.3136 77.6879 99.4724C76.8879 99.5524 76.1759 99.6724 75.4239 99.8004C74.6722 99.9046 73.927 100.051 73.1919 100.24C72.485 100.504 71.8705 100.968 71.4239 101.576C70.9359 102.16 70.4399 102.752 69.9199 103.312C68.8424 104.396 67.8451 105.556 66.9359 106.784C65.9836 107.975 65.1628 109.265 64.4879 110.632C64.1685 111.327 63.9167 112.05 63.7359 112.792C63.53 113.528 63.2624 114.245 62.9359 114.936C62.254 116.28 61.4535 117.559 60.5439 118.76Z" fill="#874C4C"/>
<path d="M138.416 130.792L106.232 142.664L97.88 181.288L98.616 182.048L129.2 170.12L139.152 131.544L138.416 130.792Z" fill="#65AA4F"/>
<path opacity="0.25" d="M138.416 130.792L106.232 142.664L97.88 181.288L98.616 182.048L129.2 170.12L139.152 131.544L138.416 130.792Z" fill="white"/>
<path d="M106.968 143.424L98.616 182.048L97.88 181.288L106.232 142.664L106.968 143.424Z" fill="#65AA4F"/>
<path opacity="0.35" d="M106.968 143.424L98.616 182.048L97.88 181.288L106.232 142.664L106.968 143.424Z" fill="black"/>
<path d="M139.152 131.544L106.968 143.424L98.616 182.048L129.2 170.12L139.152 131.544Z" fill="#65AA4F"/>
<g opacity="0.2">
<path d="M124.28 162.4C124.592 163.152 127.096 164.8 130.68 164.432L131.256 162.2L124.28 162.4Z" fill="black"/>
</g>
<g opacity="0.1">
<path d="M129.52 139.568L129.768 138.28C129.904 137.56 128.008 137.96 125.536 139.176L119.728 141.024C117.256 142.24 114.928 143.144 114.776 143.856L114.528 145.152L129.52 139.568Z" fill="black"/>
</g>
<path d="M131.36 133.704C131.448 133.256 130.704 133.36 129.68 133.648L127.824 134.312C127.824 134.312 128.448 132.096 124.168 133.688C118.688 135.72 119.264 137.496 119.264 137.496C118.509 137.835 117.734 138.128 116.944 138.376C115.344 138.92 115.168 139.24 115.04 139.696L114.816 140.496L131.2 134.472C131.2 134.472 131.272 134.152 131.36 133.704Z" fill="#37474F"/>
<path d="M129.664 136.208C128.144 136.92 127.512 137.272 127.264 138.368C127.016 139.632 126.968 140.152 126.968 140.152L118.432 143.664C118.432 143.664 118.872 141.808 118.976 141.192C119.08 140.576 117.944 140.584 116.472 141.296L116.8 139.752L129.984 134.952L129.664 136.208Z" fill="#263238"/>
<path d="M129.96 139.584L130.208 138.296C130.344 137.576 128.456 137.976 125.984 139.192L120.168 141.04C117.696 142.248 115.368 143.16 115.216 143.872L114.968 145.168L129.96 139.584Z" fill="#263238"/>
<path d="M135.744 144.8C135.744 144.8 134.656 149.04 134.368 150.112C134.08 151.184 128.824 153.704 126.176 154.112C121.112 154.816 120.576 155.928 121.824 159.512C122.992 162.816 126.32 164.024 130.888 163.416C132.325 163.117 133.657 162.44 134.747 161.456C135.836 160.472 136.644 159.216 137.088 157.816C138.512 153.552 137.648 149.016 138.2 146.544C138.752 144.072 137.008 143.272 135.744 144.8Z" fill="#9E6767"/>
<path d="M147.704 192C148.112 191.04 149.16 190.344 150.744 190.152C152.49 190.033 154.239 190.331 155.848 191.019C157.457 191.707 158.88 192.767 160 194.112C160.96 195.384 161.192 196.624 160.8 197.584L134.44 266.48C133.936 267.936 132.448 268.984 130.12 269.272C125.688 269.808 119.92 267.352 117.24 263.784C115.832 261.912 115.568 260.104 116.256 258.736L147.704 192Z" fill="#455A64"/>
<path d="M160 194.112C161.92 196.664 160.904 199.048 157.736 199.432C155.999 199.546 154.26 199.25 152.659 198.568C151.058 197.885 149.64 196.836 148.52 195.504C146.6 192.952 147.616 190.568 150.784 190.184C152.521 190.068 154.26 190.363 155.862 191.046C157.463 191.728 158.881 192.779 160 194.112Z" fill="#37474F"/>
<path d="M160.648 172C161.705 171.928 162.763 172.109 163.737 172.526C164.71 172.943 165.571 173.585 166.248 174.4C166.507 174.675 166.687 175.015 166.77 175.383C166.854 175.752 166.836 176.136 166.72 176.496L158.192 196.496C158.013 196.829 157.748 197.108 157.424 197.303C157.1 197.499 156.73 197.604 156.352 197.608C155.295 197.68 154.236 197.5 153.263 197.083C152.289 196.665 151.429 196.023 150.752 195.208C150.493 194.931 150.313 194.59 150.23 194.22C150.147 193.85 150.164 193.465 150.28 193.104L158.808 173.104C158.989 172.773 159.255 172.497 159.579 172.303C159.902 172.109 160.271 172.004 160.648 172Z" fill="#65AA4F"/>
<path opacity="0.2" d="M160.648 172C161.705 171.928 162.763 172.109 163.737 172.526C164.71 172.943 165.571 173.585 166.248 174.4C166.507 174.675 166.687 175.015 166.77 175.383C166.854 175.752 166.836 176.136 166.72 176.496L158.192 196.496C158.013 196.829 157.748 197.108 157.424 197.303C157.1 197.499 156.73 197.604 156.352 197.608C155.295 197.68 154.236 197.5 153.263 197.083C152.289 196.665 151.429 196.023 150.752 195.208C150.493 194.931 150.313 194.59 150.23 194.22C150.147 193.85 150.164 193.465 150.28 193.104L158.808 173.104C158.989 172.773 159.255 172.497 159.579 172.303C159.902 172.109 160.271 172.004 160.648 172Z" fill="black"/>
<path opacity="0.2" d="M154.88 182.344L155.472 182.688L155.56 182.744L155.672 182.808L155.8 182.872C156.176 183.095 156.563 183.298 156.96 183.48C157.439 183.722 157.93 183.938 158.432 184.128C158.874 184.319 159.325 184.488 159.784 184.632C160.017 184.716 160.255 184.785 160.496 184.84C160.756 184.938 161.024 185.016 161.296 185.072C161.568 185.152 161.816 185.216 162.096 185.272C162.287 185.327 162.482 185.367 162.68 185.392H162.88L166.696 176.432C166.812 176.072 166.829 175.688 166.746 175.319C166.663 174.951 166.483 174.611 166.224 174.336C165.992 174.037 165.723 173.768 165.424 173.536C163.042 174.266 160.577 174.688 158.088 174.792L154.88 182.344Z" fill="black"/>
<path opacity="0.15" d="M154.592 199.2L126.84 269.152C127.921 269.333 129.022 269.368 130.112 269.256C132.44 268.968 133.928 267.92 134.432 266.464L160.736 197.6C160.328 198.568 159.28 199.248 157.696 199.44C156.655 199.537 155.606 199.455 154.592 199.2Z" fill="black"/>
<path d="M241.296 89.1676C241.296 88.5916 241.248 88.0236 241.2 87.4557C241.152 86.8876 241.136 86.3436 241.08 85.7916C241.08 85.4156 241.008 85.0476 240.96 84.6796C240.864 83.7196 240.728 82.7677 240.568 81.8636C240.496 81.4477 240.424 81.0636 240.344 80.6156C240.264 80.1676 240.184 79.8156 240.096 79.4556C239.856 78.4076 239.6 77.3836 239.296 76.3997C239.144 75.9356 239 75.4716 238.84 75.0156C238.811 74.946 238.79 74.8736 238.776 74.7997C238.608 74.3436 238.448 73.9116 238.272 73.4876C238.096 73.0637 237.88 72.4876 237.656 72.0236C237.432 71.5596 237.344 71.3276 237.16 70.9916C237.057 70.7371 236.934 70.491 236.792 70.2556C236.648 69.9596 236.496 69.6556 236.32 69.3676C236.287 69.301 236.25 69.2368 236.208 69.1756C236.064 68.9196 235.912 68.6637 235.76 68.3757C235.608 68.0877 235.544 68.0476 235.448 67.8876C234.721 66.7557 233.902 65.6854 233 64.6876L232.552 64.1756C232.424 64.0316 232.296 63.9036 232.168 63.7756C232.04 63.6476 231.848 63.4476 231.672 63.2796C231.211 62.8078 230.719 62.3668 230.2 61.9596C229.96 61.7516 229.704 61.5516 229.448 61.3676C229.192 61.1836 228.936 60.9836 228.648 60.7996C228.232 60.5036 227.808 60.2236 227.384 59.9996L227.048 59.7916L226.976 59.7356L219.056 55.0716L218.944 55.0076C215.091 52.8557 210.741 51.7523 206.328 51.8076C199.752 51.8076 192.328 53.9596 184.456 58.4956C157.432 74.0877 135.52 112 135.52 143.2C135.52 158.76 140.968 169.712 149.76 174.84H149.848L157.784 179.488L157.872 179.544L157.984 179.608C158.032 179.608 158.072 179.656 158.112 179.672C158.488 179.895 158.875 180.098 159.272 180.28C159.752 180.52 160.248 180.736 160.752 180.928C161.189 181.121 161.638 181.287 162.096 181.424C162.327 181.514 162.565 181.586 162.808 181.64C163.068 181.738 163.336 181.816 163.608 181.872C163.88 181.952 164.128 182.016 164.408 182.072C164.6 182.123 164.795 182.163 164.992 182.192C165.336 182.264 165.696 182.336 166.056 182.376C166.135 182.408 166.219 182.424 166.304 182.424C166.72 182.488 167.152 182.552 167.568 182.592C174.856 183.392 183.328 181.304 192.368 176.072C219.4 160.472 241.312 122.512 241.312 91.3197C241.336 90.6477 241.32 89.9116 241.296 89.1676ZM152.128 162.768C151.004 158.595 150.449 154.289 150.48 149.968C150.48 120.368 172.08 82.9196 197.72 68.1356C201.464 65.9203 205.505 64.2502 209.72 63.1756C211.737 62.6669 213.808 62.3983 215.888 62.3756C216.935 62.3707 217.982 62.451 219.016 62.6156H219.104C224.344 68.8156 225.112 78.7516 225.112 84.0556C225.112 113.656 203.512 151.104 177.912 165.88C171.4 169.64 165.112 171.632 159.76 171.632C158.645 171.639 157.533 171.496 156.456 171.208C154.455 168.729 152.983 165.868 152.128 162.8V162.768Z" fill="#37474F"/>
<path opacity="0.25" d="M234.296 89.3038C234.296 105.008 228.192 122.944 218.632 138.528C218.184 139.272 217.72 140 217.248 140.728C216.776 141.456 216.448 141.976 216.024 142.6C215.12 143.936 214.216 145.248 213.264 146.536C212.816 147.154 212.36 147.762 211.896 148.36C211.392 149.024 210.88 149.68 210.368 150.328C209.384 151.568 208.36 152.776 207.328 153.952C206.648 154.752 205.952 155.512 205.256 156.256C199.96 162.082 193.829 167.091 187.064 171.12C185.84 171.832 184.664 172.472 183.432 173.056C179.539 175.042 175.319 176.31 170.976 176.8C170.293 176.869 169.607 176.904 168.92 176.904C168.56 176.904 168.224 176.904 167.88 176.904C167.228 176.879 166.579 176.812 165.936 176.704C165.624 176.656 165.312 176.608 165.016 176.536C164.72 176.464 164.416 176.408 164.12 176.32C161.088 175.547 158.393 173.802 156.448 171.352C157.523 171.637 158.632 171.777 159.744 171.768C165.12 171.768 171.384 169.792 177.904 166.032C203.504 151.256 225.104 113.768 225.104 84.1998C225.104 78.8878 224.304 68.9998 219.088 62.7598H219.008C225.688 63.8318 229.48 68.3598 231.624 73.6158C232.229 75.103 232.716 76.6358 233.08 78.1998C233.08 78.2878 233.12 78.3678 233.136 78.4558C233.208 78.7358 233.28 79.0238 233.328 79.3118C233.376 79.5998 233.44 79.8638 233.488 80.1118C233.493 80.1837 233.493 80.2559 233.488 80.3278C233.544 80.6238 233.6 80.9198 233.648 81.2078C233.816 82.3038 233.952 83.3678 234.04 84.4078C234.04 84.7118 234.096 84.9918 234.112 85.2718C234.128 85.5518 234.112 85.7038 234.16 85.9118C234.16 85.9998 234.16 86.0878 234.16 86.1758C234.16 86.4078 234.16 86.6318 234.2 86.8558C234.204 86.917 234.204 86.9785 234.2 87.0398C234.2 87.3278 234.2 87.5944 234.2 87.8398C234.296 88.3198 234.296 88.7998 234.296 89.3038Z" fill="black"/>
<path d="M157.104 179.2L149.76 174.88C140.96 169.736 135.52 158.792 135.52 143.256C135.52 129.344 139.88 114.088 147.096 100.056L155.464 104.856C148.264 118.856 143.464 133.944 143.464 147.864C143.448 163.112 148.632 173.912 157.104 179.2Z" fill="#263238"/>
<path d="M227.08 59.7678L227.008 59.7118L219.088 55.0558L218.976 54.9838C215.123 52.8308 210.773 51.7273 206.36 51.7838C199.784 51.7838 192.36 53.9358 184.488 58.4718C169.512 67.1198 156.112 82.6398 147.144 100.072L155.472 104.968L155.288 105.312C164.288 88.0798 177.624 72.5118 192.44 63.1438C205.848 54.6958 218.576 54.5758 227.464 59.9438L227.08 59.7678Z" fill="#455A64"/>
<path opacity="0.1" d="M230.04 86.7918C230.04 116.392 208.44 153.84 182.8 168.624C179.058 170.842 175.017 172.513 170.8 173.584C168.783 174.093 166.712 174.361 164.632 174.384C162.496 174.41 160.374 174.046 158.368 173.312C155.168 170.64 153.264 166.784 152.112 162.816C150.988 158.643 150.433 154.337 150.464 150.016C150.464 120.416 172.064 82.9678 197.704 68.1838C201.448 65.9685 205.489 64.2983 209.704 63.2238C211.721 62.715 213.792 62.4465 215.872 62.4238C218.007 62.3964 220.13 62.7569 222.136 63.4878C225.336 66.1518 227.24 70.0238 228.392 73.9838C229.517 78.1592 230.071 82.4677 230.04 86.7918Z" fill="#65AA4F"/>
<path opacity="0.3" d="M164.648 174.4C166.728 174.377 168.799 174.108 170.816 173.6C175.033 172.529 179.074 170.858 182.816 168.64C208.416 153.856 230.056 116.376 230.056 86.8076C230.087 82.4861 229.532 78.1804 228.408 74.0076C227.256 70.0556 225.344 66.1916 222.176 63.5276L221.872 63.4236C221.592 63.3196 221.312 63.2316 221.016 63.1436L220.512 63.0076C220.224 62.9276 219.92 62.8716 219.624 62.8076L219.096 62.7036H219.04H219.096C224.344 68.9036 225.112 78.8316 225.112 84.1436C225.112 113.744 203.512 151.2 177.912 165.976C171.392 169.736 165.112 171.712 159.752 171.712C158.64 171.721 157.531 171.581 156.456 171.296L156.504 171.36C157.089 172.062 157.734 172.713 158.432 173.304C160.421 174.041 162.527 174.412 164.648 174.4Z" fill="white"/>
<path d="M288.512 100.904L252.36 121.776C250.424 122.888 248.856 121.704 248.856 119.12V87.7599C248.856 85.1759 250.456 82.1599 252.36 81.0559L288.512 60.1919C290.448 59.0719 292.016 60.2559 292.016 62.8399V94.2079C292 96.7999 290.448 99.7839 288.512 100.904Z" fill="#FAFAFA"/>
<path d="M250.968 122.576C250.586 122.579 250.21 122.48 249.88 122.288C248.984 121.776 248.472 120.624 248.472 119.088V87.7599C248.472 85.0559 250.136 81.9039 252.168 80.7279L288.32 59.8559C288.707 59.5856 289.16 59.4258 289.631 59.3934C290.101 59.3609 290.572 59.4572 290.992 59.6719C291.888 60.1919 292.4 61.3439 292.4 62.8719V94.2399C292.4 96.9359 290.744 100.096 288.704 101.272L252.56 122.104C252.08 122.399 251.531 122.561 250.968 122.576ZM289.904 60.1759C289.478 60.1899 289.064 60.3169 288.704 60.5439L252.56 81.3919C250.728 82.4479 249.24 85.3039 249.24 87.7919V119.152C249.24 120.368 249.616 121.28 250.264 121.656C250.569 121.798 250.906 121.856 251.241 121.824C251.576 121.792 251.896 121.67 252.168 121.472L288.32 100.6C290.144 99.5439 291.632 96.6959 291.632 94.2399V62.8399C291.632 61.6239 291.256 60.7119 290.608 60.3359C290.393 60.216 290.15 60.1553 289.904 60.1599V60.1759Z" fill="#E0E0E0"/>
<path d="M280.584 77.3999L273.208 103.928L287.96 95.4079L280.584 77.3999Z" fill="#65AA4F"/>
<path opacity="0.3" d="M280.584 77.3999L273.208 103.928L287.96 95.4079L280.584 77.3999Z" fill="white"/>
<path d="M270.44 75.5757L263.056 109.784L277.816 101.264L270.44 75.5757Z" fill="#65AA4F"/>
<path d="M260.376 93.272L253 115.592L267.752 107.08L260.376 93.272Z" fill="#65AA4F"/>
<path opacity="0.3" d="M260.376 93.272L253 115.592L267.752 107.08L260.376 93.272Z" fill="black"/>
<path d="M254.4 86.1119L253.24 86.7839C253.104 86.8559 253 86.7839 253 86.5999V84.7039C253.001 84.6143 253.024 84.5263 253.065 84.4471C253.107 84.3678 253.167 84.2996 253.24 84.2479L254.4 83.5759C254.536 83.4959 254.64 83.5759 254.64 83.7599V85.6479C254.639 85.7385 254.616 85.8277 254.575 85.9082C254.533 85.9887 254.473 86.0585 254.4 86.1119Z" fill="#65AA4F"/>
<path opacity="0.3" d="M254.4 86.1119L253.24 86.7839C253.104 86.8559 253 86.7839 253 86.5999V84.7039C253.001 84.6143 253.024 84.5263 253.065 84.4471C253.107 84.3678 253.167 84.2996 253.24 84.2479L254.4 83.5759C254.536 83.4959 254.64 83.5759 254.64 83.7599V85.6479C254.639 85.7385 254.616 85.8277 254.575 85.9082C254.533 85.9887 254.473 86.0585 254.4 86.1119Z" fill="black"/>
<path d="M254.4 89.7599L253.24 90.4319C253.104 90.5119 253 90.4319 253 90.2479V88.3599C253.001 88.2692 253.024 88.1801 253.065 88.0996C253.107 88.019 253.167 87.9493 253.24 87.8959L254.4 87.1999C254.536 87.1279 254.64 87.1999 254.64 87.3839V89.2799C254.643 89.3735 254.622 89.4663 254.58 89.55C254.538 89.6338 254.476 89.7059 254.4 89.7599Z" fill="#65AA4F"/>
<path d="M254.4 93.4079L253.24 94.0799C253.104 94.1599 253 94.0799 253 93.9039V91.9999C253 91.9101 253.022 91.8216 253.064 91.7422C253.105 91.6627 253.166 91.5947 253.24 91.5439L254.4 90.8719C254.536 90.7919 254.64 90.8719 254.64 91.0479V92.9439C254.641 93.0351 254.62 93.1251 254.578 93.2061C254.536 93.2871 254.475 93.3564 254.4 93.4079Z" fill="#65AA4F"/>
<path opacity="0.3" d="M254.4 93.4079L253.24 94.0799C253.104 94.1599 253 94.0799 253 93.9039V91.9999C253 91.9101 253.022 91.8216 253.064 91.7422C253.105 91.6627 253.166 91.5947 253.24 91.5439L254.4 90.8719C254.536 90.7919 254.64 90.8719 254.64 91.0479V92.9439C254.641 93.0351 254.62 93.1251 254.578 93.2061C254.536 93.2871 254.475 93.3564 254.4 93.4079Z" fill="white"/>
<path d="M191.544 206.216C191.612 206.184 191.672 206.136 191.718 206.076C191.764 206.016 191.795 205.946 191.808 205.872C191.971 205.221 192.099 204.561 192.192 203.896C192.285 203.268 192.341 202.635 192.36 202C192.36 201.84 192.28 201.752 192.168 201.792L190.856 202.192C190.844 201.307 190.704 200.429 190.44 199.584L191.56 197.984C191.607 197.922 191.639 197.851 191.655 197.774C191.67 197.698 191.668 197.619 191.648 197.544C191.322 196.717 190.807 195.977 190.144 195.384C190.064 195.32 189.936 195.384 189.84 195.52L188.728 197.12C188.194 196.758 187.566 196.557 186.92 196.544L187.192 194.64C187.192 194.472 187.152 194.36 187.048 194.36C186.602 194.395 186.162 194.481 185.736 194.616C185.266 194.76 184.811 194.947 184.376 195.176C184.313 195.222 184.259 195.281 184.22 195.348C184.18 195.416 184.154 195.49 184.144 195.568L183.872 197.472C183.087 197.971 182.372 198.571 181.744 199.256L181.008 198.192C180.944 198.104 180.816 198.128 180.712 198.248C179.846 199.274 179.085 200.383 178.44 201.56C178.406 201.625 178.388 201.698 178.388 201.772C178.388 201.846 178.406 201.919 178.44 201.984L179.176 203.04C178.679 204.036 178.275 205.075 177.968 206.144L176.656 206.544C176.587 206.577 176.527 206.625 176.48 206.684C176.433 206.744 176.4 206.814 176.384 206.888C176.224 207.544 176.096 208.2 176 208.864C175.913 209.495 175.86 210.131 175.84 210.768C175.84 210.92 175.92 211.008 176.032 210.976L177.344 210.576C177.355 211.456 177.496 212.329 177.76 213.168L176.64 214.768C176.593 214.83 176.561 214.902 176.546 214.978C176.531 215.054 176.533 215.133 176.552 215.208C176.875 216.037 177.39 216.778 178.056 217.368C178.136 217.432 178.264 217.368 178.36 217.24L179.472 215.64C180.006 215.998 180.63 216.198 181.272 216.216L181.008 218.12C181.008 218.28 181.048 218.4 181.152 218.392C181.597 218.36 182.038 218.277 182.464 218.144C182.934 217.997 183.389 217.807 183.824 217.576C183.889 217.531 183.943 217.473 183.983 217.406C184.023 217.338 184.048 217.262 184.056 217.184L184.328 215.28C185.112 214.784 185.828 214.187 186.456 213.504L187.192 214.56C187.256 214.656 187.384 214.632 187.488 214.512C188.354 213.486 189.113 212.373 189.752 211.192C189.788 211.127 189.806 211.054 189.806 210.98C189.806 210.906 189.788 210.833 189.752 210.768L189.016 209.712C189.511 208.719 189.916 207.682 190.224 206.616L191.544 206.216ZM184.8 211.08C181.376 213.744 179.024 210.368 180.848 205.392C181.344 203.949 182.22 202.667 183.384 201.68C186.808 199.008 189.16 202.392 187.336 207.368C186.84 208.811 185.964 210.093 184.8 211.08Z" fill="#E6E6E6"/>
<path d="M201.536 206.624C201.562 206.593 201.581 206.557 201.592 206.519C201.603 206.48 201.606 206.44 201.6 206.4C201.572 206.018 201.518 205.639 201.44 205.264C201.366 204.925 201.262 204.593 201.128 204.272C201.128 204.216 201.04 204.216 200.984 204.272L200.096 205.072C199.897 204.663 199.597 204.31 199.224 204.048L199.688 202.728C199.688 202.64 199.688 202.552 199.688 202.528C199.197 202.269 198.641 202.158 198.088 202.208C198.032 202.208 197.968 202.28 197.936 202.368L197.472 203.688C196.965 203.779 196.481 203.969 196.048 204.248L195.816 203.2C195.813 203.187 195.807 203.174 195.799 203.163C195.79 203.153 195.778 203.145 195.765 203.14C195.753 203.135 195.739 203.134 195.725 203.136C195.712 203.138 195.699 203.144 195.688 203.152C195.366 203.38 195.059 203.629 194.768 203.896C194.457 204.188 194.163 204.498 193.888 204.824C193.86 204.855 193.839 204.892 193.826 204.932C193.814 204.972 193.81 205.015 193.816 205.056L194.048 206.104C193.609 206.671 193.226 207.279 192.904 207.92L192.104 207.768C192.056 207.768 191.984 207.768 191.952 207.888C191.546 208.75 191.23 209.65 191.008 210.576C191.008 210.664 191.008 210.736 191.064 210.744L191.864 210.904C191.724 211.567 191.657 212.243 191.664 212.92L190.784 213.72C190.752 213.749 190.726 213.785 190.709 213.825C190.693 213.865 190.685 213.909 190.688 213.952C190.712 214.334 190.765 214.714 190.848 215.088C190.922 215.427 191.026 215.759 191.16 216.08C191.16 216.136 191.248 216.136 191.304 216.08L192.192 215.28C192.387 215.693 192.688 216.046 193.064 216.304L192.6 217.632C192.6 217.712 192.6 217.8 192.6 217.824C193.091 218.083 193.647 218.194 194.2 218.144C194.256 218.144 194.32 218.072 194.352 217.984L194.808 216.672C195.317 216.575 195.803 216.382 196.24 216.104L196.472 217.152C196.471 217.167 196.476 217.182 196.484 217.195C196.492 217.207 196.504 217.217 196.519 217.222C196.533 217.228 196.548 217.228 196.563 217.224C196.578 217.22 196.59 217.212 196.6 217.2C196.924 216.974 197.231 216.726 197.52 216.456C197.831 216.167 198.125 215.86 198.4 215.536C198.453 215.468 198.479 215.382 198.472 215.296L198.24 214.256C198.678 213.685 199.061 213.075 199.384 212.432L200.184 212.592C200.232 212.592 200.304 212.544 200.336 212.464C200.737 211.601 201.053 210.7 201.28 209.776C201.28 209.688 201.28 209.616 201.224 209.608L200.424 209.448C200.564 208.785 200.631 208.109 200.624 207.432L201.536 206.624ZM197.536 212.288C195.704 214.832 193.44 214.32 193.592 211.344C193.677 210.165 194.087 209.032 194.776 208.072C196.616 205.536 198.872 206.048 198.728 209.024C198.646 210.203 198.232 211.334 197.536 212.288Z" fill="#E6E6E6"/>
<path d="M204.112 188.864C204.144 188.835 204.17 188.799 204.187 188.759C204.203 188.719 204.21 188.675 204.208 188.632C204.184 188.25 204.13 187.87 204.048 187.496C203.974 187.157 203.87 186.825 203.736 186.504C203.736 186.448 203.648 186.448 203.592 186.504L202.704 187.304C202.505 186.894 202.208 186.54 201.84 186.272L202.296 184.96C202.296 184.872 202.296 184.784 202.296 184.76C201.805 184.501 201.249 184.39 200.696 184.44C200.64 184.44 200.576 184.512 200.544 184.6L200.088 185.912C199.579 186.009 199.093 186.202 198.656 186.48L198.424 185.432C198.421 185.419 198.415 185.406 198.407 185.395C198.398 185.385 198.386 185.377 198.373 185.372C198.361 185.367 198.347 185.366 198.333 185.368C198.32 185.37 198.307 185.376 198.296 185.384C197.974 185.612 197.667 185.861 197.376 186.128C197.067 186.419 196.773 186.726 196.496 187.048C196.469 187.081 196.449 187.12 196.438 187.161C196.427 187.203 196.425 187.246 196.432 187.288L196.664 188.336C196.219 188.901 195.833 189.509 195.512 190.152L194.712 189.992C194.664 189.992 194.6 190.04 194.56 190.12C194.153 190.98 193.831 191.877 193.6 192.8C193.6 192.888 193.6 192.96 193.656 192.968L194.456 193.128C194.316 193.791 194.249 194.467 194.256 195.144L193.376 195.944C193.343 195.973 193.318 196.009 193.301 196.049C193.285 196.089 193.277 196.133 193.28 196.176C193.303 196.558 193.357 196.938 193.44 197.312C193.514 197.651 193.618 197.983 193.752 198.304C193.752 198.36 193.84 198.36 193.896 198.304L194.784 197.504C194.984 197.913 195.284 198.265 195.656 198.528L195.192 199.856C195.192 199.936 195.192 200.024 195.192 200.048C195.683 200.307 196.239 200.418 196.792 200.368C196.848 200.368 196.912 200.296 196.944 200.208L197.408 198.896C197.913 198.795 198.396 198.602 198.832 198.328L199.064 199.376C199.066 199.39 199.072 199.402 199.081 199.413C199.09 199.423 199.102 199.431 199.114 199.436C199.127 199.441 199.141 199.442 199.155 199.44C199.168 199.438 199.181 199.432 199.192 199.424C199.517 199.2 199.825 198.951 200.112 198.68C200.423 198.391 200.717 198.084 200.992 197.76C201.02 197.727 201.041 197.689 201.054 197.648C201.066 197.606 201.07 197.563 201.064 197.52L200.832 196.48C201.27 195.909 201.653 195.299 201.976 194.656L202.776 194.816C202.824 194.816 202.896 194.768 202.936 194.688C203.334 193.824 203.648 192.924 203.872 192C203.872 191.912 203.872 191.84 203.816 191.832L203.016 191.672C203.156 191.009 203.223 190.333 203.216 189.656L204.112 188.864ZM200.112 194.528C198.272 197.072 196.016 196.56 196.16 193.584C196.244 192.403 196.657 191.27 197.352 190.312C199.184 187.776 201.448 188.28 201.296 191.264C201.212 192.44 200.805 193.569 200.12 194.528H200.112Z" fill="#E6E6E6"/>
<path d="M113.848 99.0798C113.712 99.1518 113.6 99.0798 113.6 98.8398V67.9198C113.598 67.8186 113.619 67.7183 113.662 67.6267C113.705 67.5351 113.769 67.4547 113.848 67.3918C113.984 67.3118 114.096 67.3918 114.096 67.6318V98.5518C114.097 98.6528 114.075 98.7527 114.032 98.8441C113.989 98.9355 113.926 99.0161 113.848 99.0798Z" fill="#E0E0E0"/>
<path d="M146.08 80.4723L110.88 100.784C110.744 100.864 110.64 100.784 110.64 100.544C110.637 100.445 110.658 100.346 110.699 100.256C110.741 100.166 110.803 100.087 110.88 100.024L146.08 79.7123C146.216 79.6323 146.32 79.7123 146.32 79.9443C146.323 80.0448 146.303 80.1447 146.262 80.2362C146.22 80.3278 146.158 80.4085 146.08 80.4723Z" fill="#E0E0E0"/>
<path d="M119.92 70.1841L115.6 72.6801V94.3921L119.92 91.8961V70.1841Z" fill="#F5F5F5"/>
<path d="M126.056 81.7041L121.736 84.2001V90.8481L126.056 88.3521V81.7041Z" fill="#EBEBEB"/>
<path d="M132.192 57.936L127.872 60.432V87.304L132.192 84.808V57.936Z" fill="#F5F5F5"/>
<path d="M138.328 65.1279L134.008 67.6239V83.7599L138.328 81.2639V65.1279Z" fill="#E0E0E0"/>
<path d="M144.464 67.8398L140.144 70.3358V80.2158L144.464 77.7278V67.8398Z" fill="#F5F5F5"/>
<path d="M240.336 144.504V154.328L234.4 163.856C232.296 161.152 232.912 154.408 236.2 149.08C237.193 147.246 238.612 145.677 240.336 144.504Z" fill="#E0E0E0"/>
<path d="M248.448 153.168C247.264 159.136 243.144 164.688 239.088 165.68C238.394 165.893 237.655 165.913 236.95 165.739C236.246 165.564 235.602 165.201 235.088 164.688L241.096 154.976L248.448 153.168Z" fill="#F0F0F0"/>
<path d="M248.6 152.136L241.528 153.864L245.528 143.424C248 144.376 249.224 147.72 248.6 152.136Z" fill="#E0E0E0"/>
<path d="M244.752 143.344L241.168 152.8V144C242.239 143.343 243.517 143.109 244.752 143.344Z" fill="#F0F0F0"/>
<path d="M292.48 340.336C284.76 340.336 277.048 338.64 271.176 335.248C265.304 331.856 262.232 327.472 262.232 322.72C262.232 317.968 265.432 313.528 271.176 310.2C282.92 303.416 302.032 303.416 313.784 310.2C319.544 313.528 322.72 317.976 322.72 322.72C322.72 327.464 319.52 331.92 313.784 335.248C307.904 338.64 300.192 340.336 292.48 340.336ZM292.48 305.88C284.904 305.88 277.328 307.544 271.56 310.872C266.048 314.072 263.008 318.264 263.008 322.72C263.008 327.176 266.048 331.392 271.56 334.576C283.096 341.232 301.856 341.232 313.392 334.576C318.904 331.376 321.944 327.184 321.944 322.72C321.944 318.256 318.904 314.056 313.392 310.872C307.632 307.544 300.048 305.88 292.48 305.88Z" fill="#65AA4F"/>
<path d="M293.272 316.424V321.448L288.312 308V302.984L293.272 316.424Z" fill="#263238"/>
<path d="M293.28 316.424V321.448L313.744 314.344V309.328L293.28 316.424Z" fill="#37474F"/>
<path d="M288.312 302.944L293.28 316.424L313.744 309.328C308.128 304.424 298.4 301.976 288.312 302.944Z" fill="#455A64"/>
<path d="M266.936 317.36C266.932 317.411 266.932 317.462 266.936 317.512V317.36Z" fill="#65AA4F"/>
<path d="M291.24 322.76L288.2 337.056C275.792 335.848 266.832 329.568 266.936 322.4V317.504C266.936 324.616 275.88 330.824 288.208 332.032L290.296 322.208L291.24 322.76Z" fill="#65AA4F"/>
<path opacity="0.4" d="M291.24 322.76L288.2 337.056C275.792 335.848 266.832 329.568 266.936 322.4V317.504C266.936 324.616 275.88 330.824 288.208 332.032L290.296 322.208L291.24 322.76Z" fill="black"/>
<path d="M290.528 332.2V337.224C295.636 337.528 300.754 336.84 305.6 335.2C311.448 333.168 315.576 329.944 317.224 326.128C317.725 325.023 317.997 323.829 318.024 322.616C318.024 322.144 318.024 317.432 318.024 317.432C318.024 317.432 316.608 317.32 314.952 315.552L311.12 316.88L293.6 322.928L290.528 332.2Z" fill="#65AA4F"/>
<path opacity="0.6" d="M290.528 332.2V337.224C295.636 337.528 300.754 336.84 305.6 335.2C311.448 333.168 315.576 329.944 317.224 326.128C317.725 325.023 317.997 323.829 318.024 322.616C318.024 322.144 318.024 317.432 318.024 317.432C318.024 317.432 316.608 317.32 314.952 315.552L311.12 316.88L293.6 322.928L290.528 332.2Z" fill="white"/>
<path d="M275.256 311.616L290.504 320.416V315.4L275.256 306.6V311.616Z" fill="#65AA4F"/>
<path opacity="0.1" d="M275.256 311.616L290.504 320.416V315.4L275.256 306.6V311.616Z" fill="black"/>
<path d="M267.12 315.696C265.448 323.544 274.832 330.728 288.2 332.04L291.24 317.744L273.6 307.56C269.912 309.864 267.792 312.536 267.12 315.696Z" fill="#65AA4F"/>
<path opacity="0.3" d="M267.12 315.696C265.448 323.544 274.832 330.728 288.2 332.04L291.24 317.744L273.6 307.56C269.912 309.864 267.792 312.536 267.12 315.696Z" fill="black"/>
<path d="M290.616 331.784L290.528 332.2C295.638 332.495 300.757 331.794 305.6 330.136C311.448 328.104 315.576 324.888 317.224 321.064C318.784 317.464 317.96 313.736 314.92 310.488L311.088 311.816L293.6 317.904L290.616 331.784Z" fill="#65AA4F"/>
<path opacity="0.75" d="M290.616 331.784L290.528 332.2C295.638 332.495 300.757 331.794 305.6 330.136C311.448 328.104 315.576 324.888 317.224 321.064C318.784 317.464 317.96 313.736 314.92 310.488L311.088 311.816L293.6 317.904L290.616 331.784Z" fill="white"/>
<path d="M275.256 306.6L290.504 315.4L286.016 303.2C282.253 303.671 278.607 304.823 275.256 306.6Z" fill="#65AA4F"/>
<path d="M291.24 322.76V317.744L288.2 332.04V337.056L291.24 322.76Z" fill="#65AA4F"/>
<path opacity="0.55" d="M291.24 322.76V317.744L288.2 332.04V337.056L291.24 322.76Z" fill="black"/>
<path d="M310.688 295.408L307.368 297.328L310.688 299.248L314.008 297.328L310.688 295.408Z" fill="#65AA4F"/>
<path opacity="0.3" d="M310.688 295.408L307.368 297.328L310.688 299.248L314.008 297.328L310.688 295.408Z" fill="black"/>
<path d="M314.008 297.328V299.248L310.688 301.168V299.248L314.008 297.328Z" fill="#65AA4F"/>
<path opacity="0.4" d="M314.008 297.328V299.248L310.688 301.168V299.248L314.008 297.328Z" fill="black"/>
<path d="M310.688 299.248V301.168L307.368 299.248V297.328L310.688 299.248Z" fill="#65AA4F"/>
<path opacity="0.55" d="M310.688 299.248V301.168L307.368 299.248V297.328L310.688 299.248Z" fill="black"/>
<path d="M315.76 293.92L328.064 286.816C328.46 286.607 328.899 286.494 329.346 286.486C329.794 286.478 330.237 286.574 330.64 286.768C331.328 287.168 331.296 287.832 330.56 288.256L318.256 295.36C317.861 295.571 317.422 295.685 316.974 295.693C316.526 295.701 316.083 295.604 315.68 295.408C314.984 295.016 315.024 294.344 315.76 293.92Z" fill="#E0E0E0"/>
<path d="M318.168 299.736L314.848 301.648L318.168 303.568L321.496 301.648L318.168 299.736Z" fill="#65AA4F"/>
<path opacity="0.88" d="M318.168 299.736L314.848 301.648L318.168 303.568L321.496 301.648L318.168 299.736Z" fill="white"/>
<path d="M321.496 301.648V303.568L318.168 305.488V303.568L321.496 301.648Z" fill="#65AA4F"/>
<path opacity="0.75" d="M321.496 301.648V303.568L318.168 305.488V303.568L321.496 301.648Z" fill="white"/>
<path d="M318.168 303.568V305.488L314.848 303.568V301.648L318.168 303.568Z" fill="#65AA4F"/>
<path opacity="0.6" d="M318.168 303.568V305.488L314.848 303.568V301.648L318.168 303.568Z" fill="white"/>
<path d="M323.24 298.248L335.544 291.136C335.941 290.927 336.382 290.814 336.83 290.806C337.279 290.798 337.723 290.894 338.128 291.088C338.816 291.488 338.776 292.152 338.04 292.576L325.736 299.688C325.34 299.897 324.901 300.01 324.453 300.017C324.005 300.024 323.562 299.925 323.16 299.728C322.472 299.336 322.504 298.664 323.24 298.248Z" fill="#E0E0E0"/>
<path d="M325.656 304.048L322.336 305.968L325.656 307.888L328.976 305.968L325.656 304.048Z" fill="#65AA4F"/>
<path opacity="0.3" d="M325.656 304.048L322.336 305.968L325.656 307.888L328.976 305.968L325.656 304.048Z" fill="white"/>
<path d="M328.976 305.968V307.888L325.656 309.808V307.888L328.976 305.968Z" fill="#65AA4F"/>
<path d="M325.656 307.888V309.808L322.336 307.888V305.968L325.656 307.888Z" fill="#65AA4F"/>
<path opacity="0.1" d="M325.656 307.888V309.808L322.336 307.888V305.968L325.656 307.888Z" fill="black"/>
<path d="M330.728 302.568L343.032 295.456C343.428 295.247 343.867 295.134 344.314 295.126C344.762 295.118 345.205 295.214 345.608 295.408C346.296 295.808 346.256 296.472 345.528 296.896L333.216 304C332.82 304.209 332.381 304.322 331.933 304.329C331.485 304.336 331.042 304.237 330.64 304.04C329.952 303.656 329.992 302.992 330.728 302.568Z" fill="#E0E0E0"/>
<path d="M333.136 308.368L329.816 310.288L333.136 312.208L336.456 310.288L333.136 308.368Z" fill="#455A64"/>
<path d="M336.456 310.288V312.208L333.136 314.128V312.208L336.456 310.288Z" fill="#37474F"/>
<path d="M333.136 312.208V314.128L329.816 312.208V310.288L333.136 312.208Z" fill="#263238"/>
<path d="M338.208 306.888L350.512 299.776C350.908 299.567 351.348 299.454 351.795 299.447C352.243 299.44 352.686 299.539 353.088 299.736C353.776 300.128 353.744 300.792 353.008 301.216L340.704 308.328C340.308 308.537 339.869 308.65 339.422 308.658C338.974 308.666 338.531 308.57 338.128 308.376C337.44 308 337.472 307.312 338.208 306.888Z" fill="#E0E0E0"/>
<g opacity="0.3">
<path d="M278.888 286.328C278.823 286.328 278.76 286.312 278.704 286.28L255.008 272.6C254.953 272.566 254.907 272.519 254.875 272.463C254.843 272.408 254.825 272.344 254.824 272.28C254.824 272.216 254.842 272.154 254.874 272.099C254.906 272.044 254.952 271.999 255.008 271.968L284.608 254.864C284.663 254.832 284.725 254.816 284.788 254.816C284.851 254.816 284.913 254.832 284.968 254.864L308.672 268.544C308.727 268.577 308.773 268.624 308.804 268.68C308.835 268.736 308.85 268.8 308.848 268.864C308.849 268.927 308.834 268.989 308.803 269.044C308.772 269.099 308.727 269.144 308.672 269.176L279.072 286.28C279.016 286.312 278.952 286.328 278.888 286.328ZM255.92 272.28L278.888 285.544L307.784 268.864L284.8 255.6L255.92 272.28Z" fill="#65AA4F"/>
</g>
<path d="M278.888 282.544V176.6L261.112 166.336V272.28L278.888 282.544Z" fill="#65AA4F"/>
<path opacity="0.2" d="M278.888 282.544V176.6L261.112 166.336V272.28L278.888 282.544Z" fill="black"/>
<path d="M278.888 282.544L302.584 268.864L302.592 162.92L278.888 176.6V282.544Z" fill="#65AA4F"/>
<path d="M302.592 162.92L284.816 152.656L261.112 166.336L278.888 176.6L302.592 162.92Z" fill="#65AA4F"/>
<path opacity="0.25" d="M302.592 162.92L284.816 152.656L261.112 166.336L278.888 176.6L302.592 162.92Z" fill="white"/>
<path opacity="0.3" d="M302.592 162.92L278.648 176.12L270.872 171.776L261.112 166.336L270.712 172.08L278.576 176.768C278.384 179.44 278.336 271.704 278.368 274.368C278.388 277.101 278.565 279.831 278.896 282.544C279.224 279.831 279.398 277.101 279.416 274.368C279.416 271.784 279.416 179.608 279.224 177.024L302.592 162.92Z" fill="white"/>
<g opacity="0.3">
<path d="M234.448 312C234.384 311.999 234.32 311.983 234.264 311.952L210.568 298.272C210.513 298.238 210.467 298.191 210.435 298.135C210.403 298.08 210.385 298.016 210.384 297.952C210.384 297.888 210.402 297.826 210.434 297.771C210.466 297.716 210.513 297.671 210.568 297.64L240.168 280.536C240.224 280.504 240.288 280.488 240.352 280.488C240.416 280.488 240.48 280.504 240.536 280.536L264.232 294.216C264.289 294.247 264.336 294.293 264.369 294.348C264.402 294.404 264.42 294.467 264.42 294.532C264.42 294.597 264.402 294.66 264.369 294.716C264.336 294.771 264.289 294.817 264.232 294.848L234.632 311.952C234.576 311.984 234.513 312 234.448 312ZM211.48 297.952L234.448 311.2L263.344 294.52L240.376 281.256L211.48 297.952Z" fill="#65AA4F"/>
</g>
<path d="M234.448 308.2V232.944L216.672 222.68V297.936L234.448 308.2Z" fill="#65AA4F"/>
<path opacity="0.1" d="M234.776 308.52V233.264L217 223V298.256L234.776 308.52Z" fill="white"/>
<path d="M234.448 308.2L258.152 294.512V219.264L234.448 232.944V308.2Z" fill="#65AA4F"/>
<path opacity="0.3" d="M234 307.936L257.704 294.248V219L234 232.68V307.936Z" fill="white"/>
<path d="M258.152 219.264L240.376 209L216.672 222.68L234.448 232.944L258.152 219.264Z" fill="#65AA4F"/>
<path opacity="0.55" d="M258.152 219.264L240.376 209L216.672 222.68L234.448 232.944L258.152 219.264Z" fill="white"/>
<path opacity="0.3" d="M234.76 233.376L258.152 219.264L234.208 232.464C231.624 231 229.032 229.56 226.44 228.12L216.672 222.68L226.272 228.416C228.896 230.016 231.512 231.568 234.144 233.112C234.064 235.88 233.976 256.072 233.952 258.84C233.928 261.608 233.912 288.44 233.952 291.256C233.992 294.072 234.016 296.904 234.104 299.728C234.192 302.552 234.296 305.376 234.472 308.2C234.656 305.376 234.768 302.552 234.84 299.728C234.912 296.904 234.976 294.08 234.992 291.256C235.008 288.432 234.992 261.656 234.992 258.84C234.928 256.16 234.84 236.056 234.76 233.376Z" fill="white"/>
<g opacity="0.3">
<path d="M190.016 337.64C189.951 337.64 189.888 337.624 189.832 337.592L166.128 323.912C166.074 323.878 166.029 323.831 165.999 323.775C165.968 323.719 165.952 323.656 165.952 323.592C165.951 323.529 165.966 323.467 165.997 323.412C166.028 323.357 166.073 323.311 166.128 323.28L195.728 306.176C195.783 306.144 195.845 306.128 195.908 306.128C195.971 306.128 196.033 306.144 196.088 306.176L219.792 319.856C219.847 319.889 219.893 319.936 219.924 319.992C219.955 320.048 219.97 320.112 219.968 320.176C219.969 320.239 219.954 320.301 219.923 320.356C219.892 320.411 219.847 320.456 219.792 320.488L190.192 337.592C190.139 337.623 190.078 337.64 190.016 337.64ZM167.04 323.592L190.016 336.856L218.912 320.176L195.936 306.912L167.04 323.592Z" fill="#65AA4F"/>
</g>
<path d="M190.016 333.856L190.008 282.544L172.232 272.28L172.24 323.592L190.016 333.856Z" fill="#65AA4F"/>
<path opacity="0.45" d="M190.016 333.856L190.008 282.544L172.232 272.28L172.24 323.592L190.016 333.856Z" fill="black"/>
<path d="M190.016 333.856L213.712 320.168L213.72 268.864L190.008 282.544L190.016 333.856Z" fill="#65AA4F"/>
<path opacity="0.3" d="M190.016 333.856L213.712 320.168L213.72 268.864L190.008 282.544L190.016 333.856Z" fill="black"/>
<path d="M213.72 268.864L195.944 258.6L172.232 272.28L190.008 282.544L213.72 268.864Z" fill="#65AA4F"/>
<path opacity="0.15" d="M213.72 268.864L195.944 258.6L172.232 272.28L190.008 282.544L213.72 268.864Z" fill="black"/>
<path opacity="0.3" d="M213.72 268.864L189.776 282.056L182 277.72L172.232 272.28L181.832 278.016L189.696 282.712C189.512 284.312 189.464 327.192 189.496 328.816C189.513 330.509 189.69 332.196 190.024 333.856C190.351 332.195 190.525 330.508 190.544 328.816C190.544 327.272 190.544 284.504 190.368 282.96L213.72 268.864Z" fill="white"/>
<g opacity="0.3">
<path d="M323.32 260.672C323.258 260.671 323.198 260.655 323.144 260.624L299.44 246.944C299.384 246.911 299.338 246.864 299.306 246.808C299.274 246.752 299.257 246.689 299.256 246.624C299.256 246.56 299.274 246.498 299.306 246.443C299.338 246.388 299.384 246.343 299.44 246.312L329.04 229.208C329.096 229.176 329.16 229.16 329.224 229.16C329.288 229.16 329.352 229.176 329.408 229.208L353.104 242.888C353.161 242.919 353.208 242.965 353.241 243.02C353.274 243.076 353.292 243.139 353.292 243.204C353.292 243.269 353.274 243.332 353.241 243.388C353.208 243.443 353.161 243.489 353.104 243.52L323.504 260.624C323.448 260.656 323.384 260.672 323.32 260.672ZM300.352 246.624L323.32 259.888L352.216 243.2L329.248 229.936L300.352 246.624Z" fill="#65AA4F"/>
</g>
<path d="M323.32 256.888V102.736L305.544 92.4722L305.552 246.624L323.32 256.888Z" fill="#65AA4F"/>
<path opacity="0.3" d="M323.32 256.888V102.736L305.544 92.4722L305.552 246.624L323.32 256.888Z" fill="white"/>
<path d="M323.32 256.888L347.024 243.208V89.0562L323.32 102.736V256.888Z" fill="#65AA4F"/>
<path opacity="0.55" d="M323.32 256.888L347.024 243.208V89.0562L323.32 102.736V256.888Z" fill="white"/>
<path d="M347.024 89.056L329.248 78.792L305.544 92.472L323.32 102.736L347.024 89.056Z" fill="#65AA4F"/>
<path opacity="0.75" d="M347.024 89.056L329.248 78.792L305.544 92.472L323.32 102.736L347.024 89.056Z" fill="white"/>
<path opacity="0.3" d="M323.632 103.2L347.024 89.0801L323.08 102.28C320.504 100.816 317.904 99.3761 315.312 97.9361L305.544 92.4961L315.144 98.2401C317.768 99.8401 320.384 101.384 323.024 102.928C322.936 106.064 322.848 109.2 322.824 112.336C322.8 115.472 322.824 234.568 322.824 237.76C322.824 240.952 322.888 244.16 322.984 247.36C323.08 250.56 323.168 253.76 323.352 256.96C323.528 253.76 323.64 250.56 323.712 247.36C323.784 244.16 323.856 240.96 323.872 237.76C323.888 234.56 323.872 115.528 323.872 112.336C323.8 109.272 323.72 106.224 323.632 103.2Z" fill="white"/>
<path d="M282.896 121.152L262.984 132.648C262.433 133.007 261.974 133.492 261.644 134.062C261.315 134.631 261.124 135.271 261.088 135.928V152.08C261.088 153.288 261.936 153.776 262.984 153.176L270.32 148.928L272.288 152.328C272.374 152.481 272.502 152.606 272.658 152.688C272.813 152.769 272.989 152.803 273.164 152.786C273.339 152.769 273.505 152.702 273.642 152.592C273.779 152.482 273.881 152.335 273.936 152.168L276.248 145.512L282.896 141.68C283.449 141.321 283.909 140.838 284.24 140.268C284.571 139.698 284.763 139.058 284.8 138.4V122.248C284.8 121.04 283.944 120.552 282.896 121.152Z" fill="#FAFAFA"/>
<path d="M262.136 153.864C261.888 153.866 261.645 153.799 261.432 153.672C261.165 153.504 260.949 153.266 260.808 152.984C260.666 152.702 260.606 152.386 260.632 152.072V135.928C260.667 135.196 260.877 134.484 261.243 133.849C261.609 133.215 262.121 132.677 262.736 132.28L282.68 120.8C282.936 120.623 283.235 120.517 283.546 120.493C283.856 120.469 284.168 120.528 284.448 120.664C284.713 120.834 284.928 121.072 285.069 121.354C285.21 121.635 285.271 121.95 285.248 122.264V138.4C285.213 139.132 285.003 139.846 284.635 140.481C284.268 141.115 283.754 141.653 283.136 142.048L276.632 145.8L274.376 152.312C274.291 152.555 274.138 152.769 273.935 152.928C273.733 153.087 273.488 153.184 273.232 153.208C272.977 153.229 272.721 153.178 272.493 153.06C272.265 152.943 272.075 152.764 271.944 152.544L270.2 149.512L263.232 153.512C262.904 153.725 262.526 153.846 262.136 153.864ZM283.736 121.32C283.512 121.334 283.295 121.402 283.104 121.52L263.2 133.016C262.713 133.339 262.308 133.769 262.015 134.274C261.722 134.779 261.55 135.345 261.512 135.928V152.08C261.493 152.24 261.514 152.402 261.574 152.552C261.634 152.702 261.731 152.834 261.856 152.936C262.006 152.994 262.169 153.013 262.329 152.991C262.488 152.968 262.639 152.905 262.768 152.808L270.48 148.352L272.656 152.12C272.702 152.2 272.77 152.266 272.852 152.309C272.935 152.351 273.028 152.369 273.12 152.36C273.213 152.351 273.303 152.315 273.376 152.257C273.45 152.199 273.506 152.121 273.536 152.032L275.896 145.216L282.68 141.312C283.165 140.989 283.57 140.558 283.861 140.053C284.153 139.548 284.323 138.982 284.36 138.4V122.248C284.381 122.088 284.361 121.926 284.302 121.777C284.243 121.627 284.148 121.495 284.024 121.392C283.936 121.342 283.837 121.317 283.736 121.32Z" fill="#E0E0E0"/>
<path d="M265.536 146.936C265.471 146.936 265.407 146.919 265.351 146.887C265.295 146.854 265.248 146.808 265.216 146.752C265.192 146.71 265.176 146.665 265.17 146.617C265.164 146.57 265.167 146.521 265.18 146.475C265.192 146.429 265.214 146.386 265.244 146.348C265.273 146.31 265.31 146.279 265.352 146.256L280.16 137.704C280.201 137.673 280.249 137.651 280.3 137.64C280.35 137.628 280.403 137.628 280.453 137.638C280.504 137.649 280.552 137.67 280.594 137.7C280.636 137.73 280.672 137.769 280.698 137.814C280.724 137.858 280.74 137.908 280.746 137.96C280.751 138.011 280.746 138.063 280.73 138.113C280.714 138.162 280.687 138.207 280.653 138.246C280.618 138.284 280.575 138.315 280.528 138.336L265.712 146.888C265.658 146.918 265.598 146.935 265.536 146.936Z" fill="#E0E0E0"/>
<path d="M265.536 143.512C265.471 143.512 265.407 143.495 265.351 143.463C265.295 143.431 265.248 143.384 265.216 143.328C265.192 143.287 265.176 143.241 265.17 143.193C265.164 143.146 265.167 143.098 265.18 143.052C265.192 143.005 265.214 142.962 265.244 142.924C265.273 142.887 265.31 142.855 265.352 142.832L280.16 134.28C280.245 134.233 280.345 134.221 280.439 134.246C280.533 134.272 280.614 134.333 280.664 134.416C280.71 134.5 280.722 134.599 280.697 134.692C280.672 134.784 280.611 134.864 280.528 134.912L265.712 143.464C265.658 143.495 265.598 143.511 265.536 143.512Z" fill="#E0E0E0"/>
<path d="M265.536 140.096C265.471 140.096 265.407 140.079 265.351 140.047C265.295 140.015 265.248 139.968 265.216 139.912C265.192 139.87 265.176 139.825 265.17 139.777C265.164 139.73 265.167 139.681 265.18 139.635C265.192 139.589 265.214 139.546 265.244 139.508C265.273 139.471 265.31 139.439 265.352 139.416L280.16 130.864C280.201 130.833 280.249 130.811 280.3 130.8C280.35 130.789 280.403 130.788 280.453 130.798C280.504 130.809 280.552 130.83 280.594 130.86C280.636 130.89 280.672 130.929 280.698 130.974C280.724 131.019 280.74 131.068 280.746 131.12C280.751 131.171 280.746 131.224 280.73 131.273C280.714 131.322 280.687 131.367 280.653 131.406C280.618 131.444 280.575 131.475 280.528 131.496L265.712 140.048C265.658 140.078 265.598 140.095 265.536 140.096Z" fill="#E0E0E0"/>
<path d="M265.536 136.672C265.472 136.672 265.409 136.656 265.353 136.625C265.297 136.594 265.25 136.55 265.216 136.496C265.192 136.454 265.176 136.407 265.17 136.359C265.163 136.311 265.166 136.262 265.179 136.215C265.192 136.169 265.213 136.125 265.243 136.086C265.273 136.048 265.31 136.016 265.352 135.992L280.16 127.44C280.245 127.393 280.345 127.381 280.439 127.406C280.533 127.431 280.614 127.492 280.664 127.576C280.71 127.66 280.722 127.759 280.697 127.851C280.672 127.944 280.611 128.023 280.528 128.072L265.712 136.624C265.658 136.654 265.598 136.671 265.536 136.672Z" fill="#65AA4F"/>
<path d="M238.48 177.488L218.568 188.984C218.016 189.342 217.556 189.827 217.227 190.397C216.897 190.967 216.707 191.606 216.672 192.264V208.408C216.672 209.616 217.52 210.112 218.568 209.504L225.904 205.264L227.872 208.664C227.96 208.814 228.089 208.936 228.244 209.015C228.399 209.095 228.574 209.128 228.747 209.111C228.92 209.094 229.085 209.028 229.222 208.92C229.359 208.813 229.463 208.668 229.52 208.504L231.832 201.84L238.48 198.008C239.032 197.649 239.492 197.165 239.821 196.595C240.151 196.025 240.341 195.385 240.376 194.728V178.576C240.376 177.368 239.528 176.88 238.48 177.488Z" fill="#FAFAFA"/>
<path d="M217.72 210.192C217.473 210.193 217.231 210.129 217.016 210.008C216.751 209.838 216.536 209.6 216.395 209.318C216.254 209.037 216.192 208.722 216.216 208.408V192.264C216.252 191.531 216.461 190.818 216.827 190.182C217.193 189.546 217.704 189.007 218.32 188.608L238.232 177.112C238.482 176.929 238.781 176.822 239.091 176.805C239.4 176.788 239.709 176.862 239.977 177.017C240.246 177.172 240.464 177.402 240.604 177.679C240.745 177.956 240.802 178.267 240.768 178.576V194.728C240.733 195.461 240.524 196.174 240.156 196.809C239.789 197.444 239.274 197.981 238.656 198.376L232.152 202.128L229.896 208.64C229.813 208.884 229.661 209.099 229.457 209.258C229.254 209.417 229.009 209.514 228.752 209.536C228.496 209.563 228.238 209.514 228.009 209.396C227.78 209.278 227.59 209.096 227.464 208.872L225.72 205.84L218.752 209.84C218.445 210.046 218.089 210.167 217.72 210.192ZM238.688 177.856L218.784 189.352C218.296 189.673 217.89 190.104 217.597 190.609C217.304 191.114 217.132 191.681 217.096 192.264V208.408C217.045 208.569 217.051 208.743 217.112 208.9C217.174 209.058 217.287 209.19 217.433 209.274C217.579 209.359 217.75 209.392 217.917 209.366C218.084 209.341 218.237 209.26 218.352 209.136L226.064 204.68L228.24 208.448C228.283 208.531 228.351 208.598 228.434 208.641C228.517 208.684 228.611 208.7 228.704 208.688C228.798 208.682 228.889 208.648 228.963 208.589C229.038 208.53 229.092 208.451 229.12 208.36L231.52 201.552L238.304 197.64C238.79 197.317 239.194 196.886 239.486 196.381C239.777 195.876 239.948 195.31 239.984 194.728V178.576C240.004 178.417 239.984 178.255 239.925 178.105C239.866 177.956 239.771 177.823 239.648 177.72C239.496 177.661 239.331 177.643 239.17 177.667C239.009 177.691 238.857 177.756 238.728 177.856H238.688Z" fill="#E0E0E0"/>
<path d="M221.12 203.264C221.055 203.264 220.991 203.247 220.935 203.215C220.879 203.183 220.832 203.136 220.8 203.08C220.776 203.038 220.76 202.993 220.754 202.945C220.748 202.898 220.751 202.849 220.764 202.803C220.776 202.757 220.798 202.714 220.828 202.676C220.857 202.638 220.894 202.607 220.936 202.584L235.744 194.032C235.785 194.001 235.833 193.979 235.884 193.968C235.934 193.957 235.987 193.956 236.037 193.966C236.088 193.977 236.136 193.998 236.178 194.028C236.22 194.058 236.256 194.097 236.282 194.142C236.308 194.187 236.324 194.236 236.33 194.288C236.335 194.339 236.33 194.392 236.314 194.441C236.298 194.49 236.271 194.535 236.237 194.574C236.202 194.612 236.159 194.643 236.112 194.664L221.296 203.2C221.244 203.236 221.183 203.258 221.12 203.264Z" fill="#65AA4F"/>
<path d="M221.12 199.848C221.055 199.848 220.991 199.831 220.935 199.799C220.879 199.767 220.832 199.72 220.8 199.664C220.776 199.623 220.76 199.577 220.754 199.529C220.748 199.482 220.751 199.434 220.764 199.387C220.776 199.341 220.798 199.298 220.828 199.26C220.857 199.223 220.894 199.191 220.936 199.168L235.744 190.616C235.785 190.585 235.833 190.563 235.884 190.552C235.934 190.541 235.987 190.54 236.037 190.551C236.088 190.561 236.136 190.582 236.178 190.612C236.22 190.642 236.256 190.681 236.282 190.726C236.308 190.771 236.324 190.821 236.33 190.872C236.335 190.924 236.33 190.976 236.314 191.025C236.298 191.074 236.271 191.12 236.237 191.158C236.202 191.197 236.159 191.227 236.112 191.248L221.296 199.8C221.242 199.831 221.182 199.847 221.12 199.848Z" fill="#E0E0E0"/>
<path d="M221.12 196.424C221.055 196.424 220.991 196.407 220.935 196.375C220.879 196.343 220.832 196.296 220.8 196.24C220.776 196.199 220.76 196.153 220.754 196.105C220.748 196.058 220.751 196.01 220.764 195.963C220.776 195.917 220.798 195.874 220.828 195.836C220.857 195.799 220.894 195.767 220.936 195.744L235.744 187.2C235.786 187.176 235.832 187.16 235.88 187.154C235.928 187.147 235.977 187.15 236.024 187.163C236.071 187.176 236.115 187.198 236.153 187.227C236.192 187.257 236.224 187.294 236.248 187.336C236.294 187.42 236.306 187.519 236.281 187.612C236.256 187.704 236.195 187.783 236.112 187.832L221.296 196.384C221.241 196.412 221.181 196.425 221.12 196.424Z" fill="#E0E0E0"/>
<path d="M221.12 193.008C221.055 193.008 220.991 192.991 220.935 192.959C220.879 192.927 220.832 192.88 220.8 192.824C220.776 192.783 220.76 192.737 220.754 192.689C220.748 192.642 220.751 192.594 220.764 192.547C220.776 192.501 220.798 192.458 220.828 192.42C220.857 192.383 220.894 192.351 220.936 192.328L235.744 183.776C235.785 183.745 235.833 183.723 235.884 183.712C235.934 183.701 235.987 183.7 236.037 183.711C236.088 183.721 236.136 183.742 236.178 183.772C236.22 183.802 236.256 183.841 236.282 183.886C236.308 183.931 236.324 183.981 236.33 184.032C236.335 184.084 236.33 184.136 236.314 184.185C236.298 184.234 236.271 184.28 236.237 184.318C236.202 184.356 236.159 184.387 236.112 184.408L221.296 192.96C221.242 192.99 221.182 193.007 221.12 193.008Z" fill="#E0E0E0"/>
<path d="M194.056 227.08L174.144 238.576C173.592 238.935 173.132 239.419 172.803 239.989C172.473 240.559 172.283 241.199 172.248 241.856V258C172.248 259.208 173.096 259.704 174.144 259.096L181.48 254.856L183.448 258.256C183.537 258.406 183.667 258.527 183.823 258.606C183.978 258.684 184.153 258.717 184.327 258.701C184.5 258.684 184.665 258.618 184.803 258.511C184.941 258.404 185.045 258.26 185.104 258.096L187.408 251.432L194.056 247.6C194.608 247.241 195.068 246.757 195.397 246.187C195.727 245.617 195.917 244.977 195.952 244.32V228.168C195.952 226.96 195.104 226.472 194.056 227.08Z" fill="#FAFAFA"/>
<path d="M173.296 259.784C173.049 259.784 172.807 259.72 172.592 259.6C172.327 259.43 172.112 259.192 171.971 258.91C171.83 258.629 171.768 258.314 171.792 258V241.856C171.827 241.122 172.037 240.408 172.405 239.772C172.772 239.136 173.286 238.597 173.904 238.2L193.808 226.704C194.058 226.521 194.357 226.414 194.667 226.397C194.976 226.38 195.285 226.454 195.553 226.609C195.822 226.764 196.04 226.994 196.18 227.271C196.321 227.548 196.378 227.859 196.344 228.168V244.32C196.31 245.052 196.101 245.765 195.735 246.399C195.369 247.034 194.856 247.572 194.24 247.968L187.728 251.72L185.472 258.232C185.386 258.469 185.234 258.677 185.035 258.831C184.835 258.986 184.596 259.08 184.345 259.105C184.094 259.129 183.841 259.082 183.616 258.968C183.391 258.855 183.202 258.68 183.072 258.464L181.32 255.432L174.352 259.432C174.038 259.642 173.673 259.763 173.296 259.784ZM194.272 227.448L174.4 238.944C173.913 239.266 173.508 239.696 173.216 240.202C172.925 240.707 172.755 241.274 172.72 241.856V258C172.699 258.161 172.719 258.324 172.778 258.475C172.837 258.626 172.932 258.76 173.056 258.864C173.209 258.918 173.373 258.934 173.533 258.91C173.693 258.887 173.845 258.824 173.976 258.728L181.68 254.272L183.856 258.04C183.903 258.12 183.973 258.184 184.056 258.226C184.138 258.268 184.232 258.285 184.324 258.276C184.416 258.267 184.504 258.232 184.577 258.174C184.65 258.117 184.705 258.04 184.736 257.952L187.096 251.144L193.84 247.2C194.327 246.878 194.733 246.447 195.026 245.942C195.318 245.437 195.49 244.871 195.528 244.288V228.168C195.547 228.008 195.526 227.846 195.466 227.696C195.405 227.546 195.309 227.414 195.184 227.312C195.033 227.253 194.87 227.235 194.71 227.259C194.55 227.283 194.399 227.348 194.272 227.448Z" fill="#E0E0E0"/>
<path d="M176.696 252.856C176.614 252.861 176.532 252.837 176.465 252.789C176.398 252.74 176.35 252.67 176.328 252.591C176.307 252.511 176.313 252.426 176.347 252.351C176.38 252.275 176.438 252.214 176.512 252.176L191.328 243.624C191.412 243.576 191.511 243.564 191.604 243.589C191.65 243.602 191.693 243.624 191.731 243.653C191.769 243.682 191.8 243.719 191.824 243.76C191.848 243.802 191.863 243.847 191.869 243.895C191.875 243.942 191.871 243.99 191.859 244.036C191.846 244.082 191.824 244.125 191.795 244.163C191.766 244.201 191.729 244.232 191.688 244.256L176.88 252.8C176.824 252.834 176.761 252.853 176.696 252.856Z" fill="#E0E0E0"/>
<path d="M176.696 249.44C176.631 249.44 176.567 249.423 176.511 249.391C176.455 249.359 176.408 249.312 176.376 249.256C176.329 249.172 176.318 249.073 176.343 248.98C176.368 248.888 176.429 248.809 176.512 248.76L191.328 240.208C191.369 240.184 191.414 240.167 191.461 240.161C191.509 240.154 191.557 240.156 191.603 240.168C191.649 240.18 191.692 240.201 191.73 240.23C191.768 240.259 191.8 240.295 191.824 240.336C191.871 240.421 191.883 240.521 191.858 240.615C191.832 240.709 191.771 240.79 191.688 240.84L176.88 249.392C176.824 249.423 176.76 249.439 176.696 249.44Z" fill="#E0E0E0"/>
<path d="M176.696 246.016C176.614 246.021 176.532 245.997 176.465 245.949C176.398 245.9 176.35 245.83 176.328 245.751C176.307 245.671 176.313 245.586 176.347 245.511C176.38 245.435 176.438 245.374 176.512 245.336L191.328 236.8C191.369 236.776 191.415 236.761 191.463 236.755C191.51 236.749 191.558 236.753 191.604 236.765C191.65 236.778 191.693 236.8 191.731 236.829C191.769 236.858 191.8 236.895 191.824 236.936C191.848 236.978 191.863 237.023 191.869 237.071C191.875 237.118 191.871 237.166 191.859 237.212C191.846 237.258 191.824 237.301 191.795 237.339C191.766 237.377 191.729 237.408 191.688 237.432L176.88 245.968C176.824 245.999 176.76 246.015 176.696 246.016Z" fill="#65AA4F"/>
<path d="M176.696 242.6C176.631 242.6 176.567 242.583 176.511 242.551C176.455 242.519 176.408 242.472 176.376 242.416C176.329 242.332 176.318 242.233 176.343 242.14C176.368 242.048 176.429 241.968 176.512 241.92L191.328 233.368C191.411 233.321 191.509 233.308 191.602 233.332C191.694 233.355 191.774 233.414 191.824 233.496C191.871 233.581 191.883 233.681 191.858 233.775C191.832 233.869 191.771 233.95 191.688 234L176.88 242.552C176.824 242.583 176.76 242.599 176.696 242.6Z" fill="#E0E0E0"/>
<path d="M327.352 47.2797L307.44 58.7757C306.888 59.1343 306.428 59.6183 306.099 60.1883C305.769 60.7584 305.579 61.3982 305.544 62.0557V78.2077C305.544 79.4157 306.392 79.9037 307.44 79.2957L314.776 75.0557L316.744 78.4557C316.831 78.6084 316.96 78.7326 317.117 78.8134C317.273 78.8943 317.449 78.9283 317.624 78.9114C317.799 78.8945 317.965 78.8274 318.103 78.7181C318.24 78.6089 318.344 78.4622 318.4 78.2957L320.704 71.6317L327.352 67.7997C327.904 67.4412 328.364 66.9571 328.693 66.3871C329.023 65.8171 329.213 65.1772 329.248 64.5197V48.3757C329.248 47.1997 328.4 46.6717 327.352 47.2797Z" fill="#FAFAFA"/>
<path d="M306.592 79.9999C306.345 79.9995 306.103 79.9362 305.888 79.8159C305.622 79.6469 305.407 79.4087 305.266 79.1269C305.125 78.845 305.064 78.5301 305.088 78.2159V62.0559C305.121 61.3218 305.33 60.6065 305.698 59.9703C306.066 59.334 306.581 58.7954 307.2 58.3999L327.104 46.9039C327.354 46.7205 327.653 46.6139 327.963 46.5971C328.272 46.5802 328.581 46.6539 328.849 46.809C329.118 46.9642 329.336 47.1942 329.476 47.471C329.617 47.7477 329.674 48.0594 329.64 48.3679V64.5199C329.604 65.2525 329.395 65.9661 329.029 66.6018C328.663 67.2375 328.152 67.7771 327.536 68.1759L321.024 71.9199L318.8 78.3999C318.718 78.6436 318.567 78.8582 318.366 79.0174C318.164 79.1766 317.92 79.2734 317.664 79.2959C317.408 79.325 317.149 79.2775 316.919 79.1593C316.69 79.0411 316.501 78.8576 316.376 78.6319L314.624 75.6079L307.656 79.6079C307.344 79.8331 306.976 79.9687 306.592 79.9999ZM327.568 47.6639L307.656 59.1439C307.17 59.4666 306.766 59.8974 306.474 60.4026C306.183 60.9079 306.012 61.4737 305.976 62.0559V78.2079C305.929 78.3685 305.937 78.5403 305.999 78.6957C306.061 78.8511 306.174 78.981 306.319 79.0642C306.465 79.1475 306.634 79.1793 306.799 79.1546C306.965 79.1299 307.117 79.05 307.232 78.9279L314.936 74.4719L317.112 78.2399C317.155 78.3226 317.223 78.39 317.306 78.4329C317.389 78.4759 317.483 78.4923 317.576 78.4799C317.67 78.4748 317.759 78.4415 317.834 78.3844C317.908 78.3273 317.963 78.249 317.992 78.1599L320.352 71.3439L327.136 67.4319C327.619 67.1071 328.02 66.6754 328.308 66.1703C328.597 65.6653 328.765 65.1005 328.8 64.5199V48.3759C328.851 48.2147 328.845 48.0411 328.784 47.8836C328.722 47.7261 328.609 47.5942 328.463 47.5095C328.317 47.4247 328.146 47.3923 327.979 47.4175C327.812 47.4426 327.659 47.5239 327.544 47.6479L327.568 47.6639Z" fill="#E0E0E0"/>
<path d="M316.2 69.6C316.201 69.116 316.311 68.6384 316.523 68.2033C316.735 67.7682 317.043 67.3869 317.424 67.088C318.072 66.72 318.592 67.264 318.592 68.216C318.605 68.7035 318.507 69.1876 318.304 69.6313C318.102 70.075 317.801 70.4665 317.424 70.776C316.736 71.2 316.2 70.624 316.2 69.6ZM316.344 57.232L318.512 56L318.08 65.264L316.776 66.016L316.344 57.232Z" fill="#65AA4F"/>
</svg>
