<svg width="36" height="36" viewBox="0 0 36 36" fill="none" xmlns="http://www.w3.org/2000/svg">
<rect x="2" y="2" width="32" height="32" rx="16" fill="#DCECD5"/>
<path d="M18.667 11.3333H14.0003C13.6467 11.3333 13.3076 11.4737 13.0575 11.7238C12.8075 11.9738 12.667 12.313 12.667 12.6666V23.3333C12.667 23.6869 12.8075 24.026 13.0575 24.2761C13.3076 24.5261 13.6467 24.6666 14.0003 24.6666H22.0003C22.3539 24.6666 22.6931 24.5261 22.9431 24.2761C23.1932 24.026 23.3337 23.6869 23.3337 23.3333V15.9999M18.667 11.3333L23.3337 15.9999M18.667 11.3333V15.9999H23.3337" stroke="#385E2B" stroke-width="1.33" stroke-linecap="round" stroke-linejoin="round"/>
<rect x="2" y="2" width="32" height="32" rx="16" stroke="#F0F7ED" stroke-width="4"/>
</svg>
