<svg width="43" height="42" viewBox="0 0 43 42" fill="none" xmlns="http://www.w3.org/2000/svg">
<circle cx="21.4121" cy="21" r="21" fill="#F0F7ED"/>
<path d="M22.328 15.2501L25.2447 12.3334M26.9114 10.6667L25.2447 12.3334L26.9114 10.6667ZM18.903 18.6751C19.3333 19.0996 19.6754 19.6051 19.9095 20.1624C20.1436 20.7197 20.2652 21.3178 20.2672 21.9223C20.2692 22.5267 20.1517 23.1257 19.9213 23.6845C19.6909 24.2433 19.3522 24.7511 18.9248 25.1785C18.4974 25.606 17.9896 25.9446 17.4308 26.175C16.8719 26.4054 16.273 26.523 15.6686 26.5209C15.0641 26.5189 14.466 26.3973 13.9087 26.1632C13.3514 25.9291 12.8459 25.587 12.4214 25.1567C11.5865 24.2923 11.1245 23.1346 11.1349 21.9328C11.1454 20.7311 11.6274 19.5815 12.4772 18.7317C13.327 17.882 14.4765 17.3999 15.6783 17.3895C16.88 17.379 18.0378 17.841 18.9022 18.6759L18.903 18.6751ZM18.903 18.6751L22.328 15.2501L18.903 18.6751ZM22.328 15.2501L24.828 17.7501L27.7447 14.8334L25.2447 12.3334L22.328 15.2501Z" stroke="#497A38" stroke-width="2" stroke-linecap="round" stroke-linejoin="round"/>
</svg>
