<svg width="400" height="267" viewBox="0 0 400 267" fill="none" xmlns="http://www.w3.org/2000/svg">
<path d="M387.627 168.613C387.627 168.613 384.539 166.789 381.253 174.117C377.968 181.445 376.789 185.637 376.789 185.637C376.789 185.637 375.899 187.179 374.821 186.251C373.744 185.323 372.197 182.619 370.475 183.205C368.752 183.792 368.192 185.872 368.683 188.821C369.173 191.771 370.021 198.299 370.096 198.885C370.171 199.472 369.877 200.336 369.029 199.824C368.181 199.312 363.291 194.368 361.088 196.832C358.885 199.296 361.621 207.312 361.888 208.192C362.155 209.072 362.016 209.461 361.6 209.707C361.184 209.952 359.696 208.133 358.245 206.784C356.795 205.435 354.869 204.117 353.717 205.653C352.565 207.189 352.475 213.301 358.768 222.917L361.968 227.184L367.301 226.619C378.64 224.725 383.072 220.507 383.413 218.619C383.755 216.731 381.488 216.208 379.515 216.059C377.541 215.909 375.189 216.059 375.088 215.573C374.987 215.088 375.168 214.725 376.005 214.336C376.843 213.947 384.581 210.512 384.896 207.221C385.211 203.931 378.256 203.675 377.312 203.413C376.368 203.152 376.811 202.347 377.312 202C377.813 201.653 383.179 197.856 385.664 196.213C388.149 194.571 389.344 192.811 388.576 191.083C387.808 189.355 384.8 190.123 383.387 189.957C381.973 189.792 382.507 188.096 382.507 188.096C382.507 188.096 384.789 184.389 387.947 177.003C391.104 169.616 387.573 168.576 387.573 168.576" fill="#EBEBEB"/>
<path d="M361.184 228.181C363.52 222.768 367.84 213.211 371.504 204.987C375.168 196.763 378.475 189.323 380.837 183.92L383.632 177.52C383.963 176.773 384.219 176.187 384.395 175.781L384.597 175.328L384.672 175.179L384.613 175.339C384.565 175.445 384.507 175.6 384.427 175.792C384.256 176.203 384.011 176.789 383.691 177.547C383.056 179.067 382.117 181.28 380.944 183.947C378.608 189.365 375.317 196.821 371.653 205.04C367.989 213.259 363.653 222.811 361.291 228.213" fill="#E0E0E0"/>
<path d="M372.485 187.077C372.549 187.191 372.6 187.311 372.64 187.435C372.725 187.664 372.848 188.005 372.987 188.421C373.269 189.264 373.632 190.432 374.011 191.733C374.389 193.035 374.709 194.176 374.96 195.061L375.259 196.069C375.304 196.19 375.334 196.315 375.349 196.443C375.285 196.331 375.233 196.213 375.195 196.091C375.109 195.856 374.987 195.52 374.848 195.099C374.576 194.251 374.229 193.077 373.851 191.781C373.472 190.485 373.136 189.344 372.875 188.459C372.757 188.059 372.656 187.723 372.576 187.456C372.531 187.334 372.501 187.207 372.485 187.077Z" fill="#E0E0E0"/>
<path d="M375.845 196.512C375.845 196.469 378.208 195.616 381.179 194.608C384.149 193.6 386.512 192.816 386.544 192.859C386.576 192.901 384.181 193.755 381.211 194.763C378.24 195.771 375.861 196.555 375.845 196.512Z" fill="#E0E0E0"/>
<path d="M369.648 208.885C369.778 208.857 369.91 208.845 370.043 208.848L371.109 208.8C372.016 208.757 373.243 208.693 374.635 208.571C376.027 208.448 377.248 208.299 378.144 208.181L379.211 208.048C379.341 208.023 379.473 208.012 379.605 208.016C379.481 208.06 379.352 208.092 379.221 208.112C378.976 208.16 378.613 208.229 378.155 208.299C377.264 208.448 376.021 208.613 374.645 208.736C373.269 208.859 372.016 208.901 371.109 208.917C370.656 208.917 370.288 208.917 370.043 208.917C369.91 208.921 369.778 208.91 369.648 208.885Z" fill="#E0E0E0"/>
<path d="M364.731 201.019C364.816 201.106 364.891 201.203 364.955 201.307L365.515 202.128C365.979 202.821 366.613 203.787 367.301 204.859C367.989 205.931 368.608 206.912 369.045 207.621C369.248 207.957 369.419 208.24 369.579 208.469C369.647 208.569 369.703 208.676 369.744 208.789C369.66 208.701 369.584 208.605 369.52 208.501L368.987 207.685C368.523 206.992 367.888 206.021 367.2 204.949C366.512 203.877 365.893 202.901 365.451 202.192C365.253 201.856 365.077 201.573 364.917 201.344C364.844 201.242 364.782 201.133 364.731 201.019Z" fill="#E0E0E0"/>
<path d="M357.867 211.248C357.971 211.365 358.065 211.489 358.149 211.621L358.864 212.688C359.467 213.573 360.288 214.821 361.184 216.171C362.08 217.52 362.885 218.784 363.461 219.685L364.139 220.752C364.227 220.879 364.302 221.015 364.363 221.157C364.262 221.039 364.169 220.915 364.085 220.784C363.893 220.512 363.653 220.16 363.365 219.717C362.763 218.832 361.941 217.584 361.045 216.235C360.149 214.885 359.344 213.621 358.768 212.72L358.096 211.653C358.006 211.527 357.929 211.391 357.867 211.248Z" fill="#E0E0E0"/>
<path d="M364.267 220.864C364.442 220.827 364.621 220.805 364.8 220.8L366.155 220.688C367.296 220.592 368.875 220.459 370.613 220.256C372.352 220.053 373.92 219.835 375.056 219.664L376.4 219.467C376.564 219.437 376.73 219.419 376.896 219.413C376.738 219.466 376.576 219.506 376.411 219.531C376.096 219.595 375.637 219.685 375.072 219.781C373.941 219.979 372.373 220.219 370.629 220.421C368.885 220.624 367.307 220.741 366.16 220.805C365.589 220.837 365.125 220.859 364.8 220.864C364.623 220.887 364.444 220.887 364.267 220.864Z" fill="#E0E0E0"/>
<path d="M76.8426 76.9813C76.8426 76.9813 73.4986 78.2826 77.2373 85.3919C80.976 92.5013 83.5413 95.9999 83.5413 95.9999C83.5413 95.9999 84.208 97.6533 82.816 97.9306C81.424 98.2079 78.336 97.7493 77.7333 99.4666C77.1306 101.184 78.4 102.933 81.0666 104.363C83.7333 105.792 89.3493 109.163 89.856 109.461C90.3626 109.76 90.864 110.528 89.9413 110.869C89.0186 111.211 82.0853 112 82.6666 115.275C83.248 118.549 91.232 121.333 92.096 121.675C92.96 122.016 93.1626 122.363 93.1093 122.837C93.056 123.312 90.6933 123.371 88.736 123.675C86.7786 123.979 84.5653 124.683 85.056 126.539C85.5466 128.395 90.304 132.235 101.755 133.221L107.088 133.328L109.936 128.789C115.44 118.699 114.859 112.608 113.589 111.189C112.32 109.771 110.507 111.216 109.168 112.677C107.829 114.139 106.501 116.069 106.053 115.877C105.605 115.685 105.435 115.291 105.648 114.389C105.861 113.488 107.936 105.285 105.536 103.003C103.136 100.72 98.6506 106.043 97.856 106.624C97.0613 107.205 96.7093 106.357 96.7306 105.771C96.752 105.184 97.0773 98.6133 97.3333 95.6373C97.5893 92.6613 96.928 90.6453 95.0986 90.1813C93.2693 89.7173 92.0106 92.5546 91.008 93.5679C90.0053 94.5813 88.9973 93.1093 88.9973 93.1093C88.9973 93.1093 87.4933 89.0239 83.6266 81.9839C79.76 74.9439 76.8 77.0133 76.8 77.0133" fill="#EBEBEB"/>
<path d="M107.381 134.56C104.565 129.376 99.712 120.08 95.504 112.123C91.296 104.165 87.504 96.9653 84.6934 91.7706L81.3814 85.6213L80.48 83.9466L80.2507 83.5093C80.1974 83.408 80.176 83.3546 80.176 83.3546L80.2667 83.4986L80.512 83.9306L81.4347 85.5893C82.24 87.0293 83.3867 89.12 84.7947 91.712C87.6107 96.896 91.4454 104.091 95.648 112.043C99.8507 119.995 104.715 129.307 107.488 134.501" fill="#E0E0E0"/>
<path d="M82.0214 100.293C82.1494 100.309 82.2749 100.342 82.3947 100.389L83.392 100.725C84.224 101.024 85.3707 101.461 86.624 101.968L89.824 103.269L90.8 103.659C90.9217 103.702 91.0395 103.755 91.152 103.819C91.0247 103.799 90.8996 103.767 90.7787 103.723C90.5387 103.648 90.1974 103.531 89.7814 103.381C88.9494 103.077 87.8134 102.624 86.5814 102.117L83.3814 100.837L82.4054 100.453C82.2721 100.414 82.1434 100.36 82.0214 100.293Z" fill="#E0E0E0"/>
<path d="M91.5147 103.467C91.472 103.467 92.272 101.056 93.3014 98.1333C94.3307 95.2106 95.1947 92.8 95.2374 92.8266C95.28 92.8533 94.4854 95.2426 93.456 98.16C92.4267 101.077 91.5574 103.467 91.5147 103.467Z" fill="#E0E0E0"/>
<path d="M97.4241 115.984C97.4866 115.868 97.5579 115.758 97.6374 115.653L98.2614 114.779C98.7947 114.043 99.5041 113.024 100.256 111.867C101.008 110.709 101.659 109.643 102.117 108.869C102.336 108.501 102.517 108.192 102.651 107.947C102.713 107.831 102.786 107.722 102.869 107.621C102.83 107.746 102.776 107.866 102.709 107.979C102.592 108.208 102.421 108.512 102.176 108.928C101.739 109.717 101.109 110.8 100.352 111.957C99.5947 113.115 98.8587 114.128 98.3147 114.848C98.0374 115.211 97.8081 115.499 97.6481 115.691C97.585 115.797 97.5098 115.895 97.4241 115.984Z" fill="#E0E0E0"/>
<path d="M88.2026 114.997C88.3249 114.984 88.4484 114.984 88.5706 114.997L89.5573 115.067C90.3893 115.131 91.5413 115.227 92.8106 115.349C94.08 115.472 95.232 115.584 96.0586 115.68L97.0453 115.797C97.1663 115.806 97.286 115.828 97.4026 115.861C97.2821 115.875 97.1605 115.875 97.04 115.861L96.048 115.792C95.216 115.733 94.064 115.632 92.7946 115.515C91.5253 115.397 90.3786 115.275 89.5466 115.184L88.5653 115.061C88.4421 115.056 88.3202 115.034 88.2026 114.997Z" fill="#E0E0E0"/>
<path d="M92.016 126.704C92.1722 126.691 92.3291 126.691 92.4853 126.704L93.7493 126.784C94.816 126.859 96.2933 126.971 97.9253 127.109C99.5573 127.248 101.029 127.381 102.096 127.488L103.355 127.621C103.511 127.63 103.667 127.653 103.819 127.691C103.663 127.706 103.505 127.706 103.349 127.691L102.085 127.611C101.019 127.536 99.5413 127.419 97.9093 127.28C96.2773 127.141 94.8053 127.008 93.744 126.907L92.48 126.773C92.3236 126.764 92.1684 126.74 92.016 126.704Z" fill="#E0E0E0"/>
<path d="M103.541 127.6C103.616 127.45 103.703 127.308 103.803 127.173L104.549 126.037C105.179 125.077 106.048 123.755 106.96 122.261C107.872 120.768 108.672 119.397 109.237 118.4C109.515 117.925 109.739 117.525 109.915 117.221C109.989 117.073 110.077 116.933 110.176 116.8C110.12 116.957 110.051 117.109 109.968 117.253C109.829 117.541 109.616 117.952 109.344 118.459C108.811 119.472 108.021 120.853 107.104 122.347C106.187 123.84 105.301 125.163 104.645 126.08C104.315 126.555 104.048 126.928 103.856 127.189C103.764 127.336 103.659 127.473 103.541 127.6Z" fill="#E0E0E0"/>
<path d="M45.0346 116.544C46.4202 115.495 47.9393 114.636 49.552 113.989L50.0373 109.189L57.9413 108.219L59.5413 112.747C61.2642 112.984 62.9481 113.449 64.5493 114.128L68.2826 111.083L74.56 115.984L72.5333 120.341C73.5819 121.729 74.441 123.25 75.088 124.864L79.888 125.344L80.864 133.248L76.336 134.88C76.0991 136.601 75.6346 138.284 74.9546 139.883L77.9946 143.616L73.0666 149.867L68.7093 147.813C67.3259 148.867 65.8063 149.728 64.192 150.373L63.712 155.173L55.808 156.149L54.176 151.616C52.4546 151.379 50.7723 150.915 49.1733 150.235L45.44 153.28L39.1573 148.379L41.2106 144.027C40.1585 142.643 39.2974 141.123 38.6506 139.509L33.8506 139.024L32.8746 131.12L37.408 129.493C37.6448 127.77 38.1093 126.086 38.7893 124.485L35.744 120.752L40.6453 114.475L44.9973 116.523L45.0346 116.544ZM50.368 126.651C49.3326 127.982 48.7151 129.591 48.5934 131.273C48.4716 132.955 48.8511 134.636 49.684 136.102C50.5168 137.569 51.7656 138.756 53.2726 139.513C54.7797 140.271 56.4774 140.565 58.1513 140.358C59.8252 140.151 61.4002 139.452 62.6775 138.351C63.9547 137.249 64.8769 135.794 65.3276 134.169C65.7782 132.543 65.737 130.821 65.2093 129.219C64.6816 127.617 63.691 126.207 62.3626 125.168C61.4784 124.476 60.4662 123.966 59.3843 123.666C58.3024 123.366 57.1719 123.282 56.0576 123.42C54.9433 123.558 53.8672 123.914 52.8908 124.468C51.9145 125.023 51.0572 125.764 50.368 126.651Z" fill="#DBDBDB"/>
<path d="M272.843 26.6933C273.913 26.0446 275.064 25.5406 276.267 25.1946L276.981 21.7813L282.741 21.6853L283.595 25.0666C284.815 25.3684 285.99 25.8311 287.088 26.4426L290.005 24.5333L294.149 28.5386L292.347 31.5146C293.003 32.5909 293.514 33.7494 293.867 34.96L297.275 35.6746L297.376 41.4346L293.995 42.2666C293.693 43.4869 293.23 44.6617 292.619 45.76L294.528 48.6773L290.501 52.8L287.525 50.9973C286.447 51.6471 285.286 52.1493 284.075 52.4906L283.365 55.904L277.6 56.0053L276.8 52.64C275.577 52.3425 274.401 51.8815 273.301 51.2693L270.389 53.1786L266.24 49.1733L268.048 46.192C267.396 45.1162 266.892 43.9573 266.549 42.7466L263.141 42.0373L263.013 36.2666L266.395 35.44C266.696 34.218 267.159 33.0415 267.771 31.9413L265.861 29.0293L269.867 24.8853L272.843 26.6933ZM275.915 34.3733C275.066 35.2533 274.498 36.3649 274.282 37.5677C274.065 38.7706 274.21 40.0106 274.698 41.1311C275.186 42.2516 275.995 43.2024 277.023 43.8631C278.052 44.5238 279.253 44.865 280.474 44.8434C281.696 44.8218 282.885 44.4384 283.889 43.7417C284.893 43.045 285.668 42.0663 286.116 40.9292C286.564 39.7922 286.665 38.5478 286.406 37.3533C286.147 36.1589 285.54 35.0681 284.661 34.2186C284.077 33.6539 283.387 33.21 282.631 32.9121C281.875 32.6142 281.068 32.4683 280.256 32.4826C279.444 32.497 278.642 32.6714 277.897 32.9958C277.152 33.3202 276.479 33.7883 275.915 34.3733Z" fill="#C9E00C" fill-opacity="0.19"/>
<path d="M344.043 77.9039C344.721 77.4937 345.451 77.1762 346.213 76.9599L346.661 74.8266L350.299 74.7626L350.832 76.8959C351.601 77.0891 352.341 77.3813 353.035 77.7652L354.875 76.5599L357.488 79.0879L356.347 80.9652C356.757 81.6434 357.074 82.3735 357.291 83.1359L359.424 83.5839L359.488 87.2212L357.355 87.7546C357.163 88.5236 356.87 89.2642 356.485 89.9572L357.691 91.7972L355.2 94.3999L353.323 93.2639C352.642 93.6697 351.913 93.987 351.152 94.2079L350.704 96.3412L347.067 96.4052L346.533 94.2719C345.764 94.0821 345.023 93.7897 344.331 93.4026L342.491 94.6079L339.877 92.0799L341.019 90.2026C340.608 89.5249 340.29 88.7947 340.075 88.0319L337.941 87.5839L337.877 83.9519L340.011 83.4186C340.204 82.6498 340.496 81.9094 340.88 81.2159L339.675 79.3812L342.203 76.7626L344.08 77.9039H344.043ZM345.979 82.7466C345.444 83.3018 345.086 84.0032 344.949 84.7621C344.813 85.5209 344.905 86.3031 345.213 87.0097C345.521 87.7164 346.032 88.3158 346.681 88.7323C347.33 89.1487 348.088 89.3634 348.858 89.3492C349.629 89.335 350.378 89.0927 351.012 88.6527C351.645 88.2127 352.133 87.5949 352.415 86.8774C352.697 86.1599 352.76 85.3748 352.596 84.6215C352.432 83.8682 352.048 83.1805 351.493 82.6452C351.125 82.2896 350.69 82.0101 350.213 81.8228C349.736 81.6354 349.227 81.5438 348.715 81.5532C348.203 81.5626 347.698 81.6728 347.228 81.8776C346.759 82.0824 346.334 82.3777 345.979 82.7466Z" fill="#C9E00C" fill-opacity="0.19"/>
<path d="M39.5627 61.4772C40.8825 60.6786 42.3031 60.0598 43.7867 59.6373L44.656 55.4666L51.7334 55.3333L52.752 59.4826C54.243 59.8518 55.6779 60.4186 57.0187 61.1679L60.592 58.8266L65.68 63.7386L63.4667 67.3919C64.2675 68.7106 64.8864 70.1315 65.3067 71.6159L69.488 72.4853L69.6107 79.5572L65.4614 80.5706C65.0921 82.0615 64.5253 83.4964 63.776 84.8373L66.1174 88.4106L61.2054 93.4986L57.5574 91.2853C56.235 92.0813 54.8128 92.6983 53.328 93.1199L52.4587 97.3013L45.392 97.4239L44.3734 93.2746C42.882 92.9068 41.4469 92.3399 40.1067 91.5892L36.5334 93.9306L31.4347 89.0666L33.648 85.4186C32.8481 84.0975 32.2293 82.675 31.808 81.1892L27.6267 80.3199L27.504 73.2533L31.6534 72.2346C32.0235 70.7439 32.5902 69.3091 33.3387 67.9679L30.9974 64.3946L35.9094 59.3119L39.5627 61.5253V61.4772ZM43.328 70.8906C42.2855 71.9693 41.5863 73.333 41.3189 74.8092C41.0515 76.2854 41.2279 77.8077 41.8258 79.1836C42.4237 80.5595 43.4162 81.7272 44.6778 82.5389C45.9395 83.3507 47.4135 83.77 48.9135 83.7439C50.4134 83.7178 51.872 83.2474 53.1046 82.3922C54.3372 81.537 55.2884 80.3355 55.8381 78.9396C56.3877 77.5437 56.511 76.0162 56.1924 74.5502C55.8738 73.0843 55.1275 71.7457 54.048 70.7039C52.6007 69.3091 50.6592 68.5454 48.6494 68.5804C46.6397 68.6154 44.7259 69.4462 43.328 70.8906Z" fill="#C9E00C" fill-opacity="0.19"/>
<path d="M346.667 110.235C347.744 109.585 348.903 109.082 350.112 108.736L350.821 105.328L356.587 105.227L357.419 108.608C358.639 108.91 359.814 109.372 360.912 109.984L363.824 108.075L367.973 112.08L366.165 115.056C366.819 116.133 367.323 117.294 367.664 118.507L371.077 119.216L371.179 124.976L367.792 125.808C367.494 127.031 367.031 128.208 366.416 129.307L368.325 132.219L364.325 136.363L361.344 134.56C360.267 135.209 359.108 135.713 357.899 136.059L357.189 139.467L351.424 139.568L350.597 136.187C349.375 135.885 348.199 135.422 347.099 134.811L344.187 136.72L340.037 132.715L341.845 129.739C341.194 128.661 340.69 127.5 340.347 126.288L336.933 125.579L336.832 119.819L340.219 118.987C340.521 117.765 340.984 116.589 341.595 115.488L339.685 112.576L343.691 108.432L346.667 110.235ZM349.739 117.915C348.891 118.795 348.322 119.906 348.106 121.109C347.889 122.312 348.034 123.552 348.522 124.673C349.01 125.793 349.819 126.744 350.847 127.404C351.876 128.065 353.077 128.406 354.299 128.385C355.521 128.363 356.709 127.98 357.713 127.283C358.717 126.586 359.492 125.608 359.94 124.471C360.388 123.334 360.489 122.089 360.23 120.895C359.971 119.7 359.364 118.609 358.485 117.76C357.902 117.195 357.212 116.752 356.457 116.454C355.701 116.156 354.895 116.01 354.083 116.024C353.271 116.039 352.47 116.213 351.725 116.538C350.981 116.862 350.307 117.33 349.744 117.915H349.739Z" fill="#EBEBEB"/>
<path d="M221.285 42.0906C222.943 41.0865 224.728 40.3098 226.592 39.7813L227.685 34.528L236.565 34.3733L237.845 39.584C239.728 40.053 241.539 40.7704 243.232 41.7173L247.717 38.7786L254.117 44.944L251.333 49.5306C252.34 51.1961 253.117 52.9902 253.643 54.864L258.896 55.9306L259.051 64.8106L253.84 66.0853C253.373 67.968 252.655 69.7797 251.707 71.472L254.645 75.9626L248.48 82.3626L243.888 79.584C242.23 80.5861 240.445 81.361 238.581 81.888L237.488 87.1466L228.608 87.3013L227.333 82.0853C225.451 81.6178 223.639 80.9003 221.947 79.952L217.456 82.8906L211.056 76.7253L213.835 72.1386C212.832 70.4709 212.056 68.6775 211.525 66.8053L206.272 65.7386L206.117 56.864L211.328 55.584C211.796 53.7013 212.513 51.8896 213.461 50.1973L210.517 45.712L216.688 39.312L221.275 42.096L221.285 42.0906ZM226.016 53.9146C224.708 55.2699 223.831 56.9827 223.496 58.8365C223.161 60.6902 223.383 62.6016 224.134 64.329C224.886 66.0565 226.132 67.5224 227.716 68.5414C229.301 69.5604 231.152 70.0868 233.035 70.054C234.919 70.0212 236.75 69.4307 238.298 68.3571C239.846 67.2835 241.041 65.7751 241.731 64.0225C242.422 62.27 242.577 60.352 242.178 58.511C241.779 56.6701 240.843 54.9889 239.488 53.68C237.67 51.9253 235.23 50.9644 232.703 51.0084C230.177 51.0524 227.772 52.0978 226.016 53.9146Z" fill="#DBDBDB"/>
<path d="M389.083 228.267C389.083 228.341 304.389 228.405 199.941 228.405C95.4934 228.405 10.7841 228.341 10.7841 228.267C10.7841 228.192 95.4561 228.128 199.941 228.128C304.427 228.128 389.083 228.187 389.083 228.267Z" fill="#263238"/>
<path d="M302.101 64.0853H116.416C114.881 64.0839 113.408 64.692 112.321 65.7761C111.234 66.8602 110.621 68.3315 110.619 69.8667V201.035C110.618 201.796 110.767 202.55 111.059 203.254C111.35 203.958 111.777 204.597 112.315 205.136C112.854 205.674 113.493 206.101 114.197 206.392C114.9 206.683 115.654 206.833 116.416 206.832H187.68C187.68 206.832 192.213 220.853 178.16 228.107H244.8C244.8 228.107 228.933 222.667 233.013 206.832H302.101C303.633 206.832 305.103 206.226 306.189 205.145C307.276 204.065 307.89 202.599 307.899 201.067V69.8667C307.894 68.3319 307.282 66.8614 306.195 65.7777C305.108 64.6939 303.636 64.0853 302.101 64.0853Z" fill="#455A64"/>
<path d="M211.733 193.067C214.256 196.677 210.304 200.629 206.693 198.107C206.572 198.021 206.467 197.915 206.384 197.792C203.867 194.187 207.813 190.235 211.424 192.757C211.544 192.842 211.648 192.947 211.733 193.067Z" fill="#263238"/>
<path d="M118.987 66.4854H299.531C300.21 66.4854 300.883 66.6192 301.51 66.8791C302.138 67.1391 302.708 67.5202 303.189 68.0006C303.669 68.481 304.05 69.0513 304.31 69.6789C304.57 70.3066 304.704 70.9793 304.704 71.6587V182.837H113.813V71.6587C113.813 70.9793 113.947 70.3066 114.207 69.6789C114.467 69.0513 114.848 68.481 115.329 68.0006C115.809 67.5202 116.379 67.1391 117.007 66.8791C117.635 66.6192 118.307 66.4854 118.987 66.4854Z" fill="white"/>
<path d="M118.699 66.4854H300.693C301.757 66.4854 302.777 66.9079 303.529 67.66C304.281 68.4122 304.704 69.4323 304.704 70.496V76.1547H113.813V71.3547C113.816 70.0614 114.332 68.822 115.248 67.909C116.164 66.996 117.405 66.4839 118.699 66.4854Z" fill="#EBEBEB"/>
<path d="M119.893 72.864C120.633 72.864 121.232 72.2646 121.232 71.5253C121.232 70.786 120.633 70.1866 119.893 70.1866C119.154 70.1866 118.555 70.786 118.555 71.5253C118.555 72.2646 119.154 72.864 119.893 72.864Z" fill="#E0E0E0"/>
<path d="M123.893 72.864C124.633 72.864 125.232 72.2646 125.232 71.5253C125.232 70.786 124.633 70.1866 123.893 70.1866C123.154 70.1866 122.555 70.786 122.555 71.5253C122.555 72.2646 123.154 72.864 123.893 72.864Z" fill="#E0E0E0"/>
<path d="M127.691 72.864C128.43 72.864 129.029 72.2646 129.029 71.5253C129.029 70.786 128.43 70.1866 127.691 70.1866C126.951 70.1866 126.352 70.786 126.352 71.5253C126.352 72.2646 126.951 72.864 127.691 72.864Z" fill="#E0E0E0"/>
<path d="M268.907 206.853C268.907 206.912 242.48 206.965 209.893 206.965C177.307 206.965 150.875 206.912 150.875 206.853C150.875 206.795 177.296 206.741 209.893 206.741C242.491 206.741 268.907 206.789 268.907 206.853Z" fill="#263238"/>
<path d="M304.267 91.8026H113.877V134.304H304.267V91.8026Z" fill="#F5F5F5"/>
<path d="M146.032 80.608H118.555V87.7974H146.032V80.608Z" fill="#F5F5F5"/>
<path d="M299.749 80.608H284.704V87.7974H299.749V80.608Z" fill="#F5F5F5"/>
<path d="M280.181 80.608H255.563V87.7974H280.181V80.608Z" fill="#F5F5F5"/>
<path d="M250.443 80.608H225.824V87.7974H250.443V80.608Z" fill="#F5F5F5"/>
<path d="M290.944 146.277H123.147V153.808H290.944V146.277Z" fill="#F5F5F5"/>
<path d="M290.944 160.293H123.147V167.824H290.944V160.293Z" fill="#F5F5F5"/>
<path d="M189.221 117.36L193.845 112.736L201.909 120.085L216.128 105.888L220.421 110.512L201.248 129.008L189.221 117.36Z" fill="#65AA4F"/>
<path d="M195.872 106.512C194.704 105.43 193.67 104.21 192.795 102.88C193.407 103.391 193.958 103.971 194.437 104.608C194.984 105.188 195.465 105.827 195.872 106.512Z" fill="#263238"/>
<path d="M202.075 105.84C201.855 104.125 201.729 102.4 201.696 100.672C201.574 98.9486 201.542 97.22 201.6 95.4933C201.817 97.2081 201.941 98.9332 201.973 100.661C202.099 102.384 202.133 104.113 202.075 105.84Z" fill="#263238"/>
<path d="M211.659 102.672C210.738 104.132 209.665 105.491 208.459 106.725C208.877 105.962 209.378 105.246 209.952 104.592C210.453 103.894 211.025 103.251 211.659 102.672Z" fill="#263238"/>
<path d="M339.291 103.589H260.213C258.072 103.589 256.336 105.325 256.336 107.467V224.32C256.336 226.461 258.072 228.197 260.213 228.197H339.291C341.432 228.197 343.168 226.461 343.168 224.32V107.467C343.168 105.325 341.432 103.589 339.291 103.589Z" fill="#E0E0E0"/>
<path d="M339.291 228.197H339.563C339.829 228.179 340.092 228.131 340.347 228.053C340.85 227.907 341.319 227.66 341.724 227.328C342.13 226.995 342.463 226.583 342.704 226.117C342.87 225.792 342.99 225.446 343.061 225.088C343.126 224.688 343.149 224.282 343.131 223.877C343.131 223.019 343.131 222.085 343.131 221.072C343.131 219.045 343.131 216.704 343.131 214.075C343.131 203.541 343.104 188.304 343.083 169.472C343.083 160.059 343.083 149.739 343.083 138.677C343.083 133.141 343.083 127.422 343.083 121.52C343.083 118.569 343.083 115.577 343.083 112.544V107.947C343.098 107.569 343.079 107.19 343.024 106.816C342.962 106.444 342.841 106.084 342.667 105.749C342.324 105.072 341.785 104.515 341.12 104.149C340.785 103.972 340.425 103.844 340.053 103.771C339.674 103.708 339.29 103.683 338.907 103.696H260.224C259.351 103.7 258.506 104.003 257.829 104.555C257.161 105.113 256.707 105.886 256.544 106.741C256.477 107.173 256.454 107.611 256.475 108.048V143.285C256.475 156.832 256.475 169.904 256.475 182.352C256.475 194.8 256.475 206.635 256.475 217.707C256.475 219.088 256.475 220.459 256.475 221.819V223.851C256.431 224.507 256.535 225.165 256.779 225.776C257.035 226.369 257.44 226.886 257.953 227.278C258.467 227.67 259.072 227.924 259.712 228.016C260.032 228.054 260.355 228.069 260.677 228.059H263.589H278.368L322.965 228.101L335.088 228.128H338.245H339.312H338.245H335.088L322.965 228.155L278.368 228.197H263.589H260.677C260.346 228.21 260.014 228.195 259.685 228.155C259.008 228.06 258.367 227.793 257.822 227.379C257.278 226.965 256.849 226.419 256.576 225.792C256.32 225.152 256.209 224.464 256.251 223.776V217.739C256.251 206.667 256.251 194.832 256.251 182.384C256.251 169.936 256.251 156.864 256.251 143.317C256.251 136.544 256.251 129.655 256.251 122.651V108.08C256.228 107.625 256.253 107.169 256.325 106.72C256.498 105.799 256.988 104.968 257.71 104.371C258.432 103.774 259.34 103.448 260.277 103.451H338.875C339.274 103.438 339.674 103.463 340.069 103.525C340.463 103.61 340.844 103.748 341.2 103.936C341.908 104.324 342.483 104.915 342.853 105.632C343.035 105.987 343.161 106.369 343.227 106.763C343.285 107.151 343.306 107.544 343.291 107.936V121.488C343.291 127.383 343.291 133.102 343.291 138.645C343.291 149.712 343.291 160.027 343.291 169.44C343.291 188.272 343.259 203.509 343.248 214.043C343.248 216.672 343.248 219.013 343.248 221.04C343.248 222.053 343.248 222.987 343.248 223.845C343.263 224.254 343.236 224.663 343.168 225.067C343.029 225.771 342.697 226.422 342.209 226.949C341.721 227.475 341.097 227.856 340.405 228.048C340.146 228.121 339.88 228.165 339.611 228.181L339.291 228.197Z" fill="#263238"/>
<path d="M339.291 228.197H339.563C339.653 228.197 339.76 228.197 339.893 228.155C340.047 228.132 340.198 228.098 340.347 228.053C340.852 227.91 341.323 227.664 341.729 227.331C342.135 226.998 342.469 226.585 342.709 226.117C342.878 225.793 343.001 225.447 343.072 225.088C343.135 224.686 343.16 224.279 343.147 223.872C343.147 223.019 343.147 222.08 343.147 221.067C343.147 219.04 343.147 216.707 343.147 214.069C343.147 203.536 343.147 188.299 343.147 169.467C343.147 160.053 343.147 149.733 343.147 138.672C343.147 133.136 343.147 127.417 343.147 121.515V107.947C343.16 107.567 343.139 107.186 343.083 106.811C343.02 106.438 342.9 106.078 342.725 105.744C342.372 105.069 341.829 104.513 341.163 104.144C340.826 103.969 340.467 103.84 340.096 103.76C339.715 103.697 339.329 103.672 338.944 103.685H260.224C259.339 103.685 258.482 103.993 257.801 104.556C257.119 105.12 256.656 105.904 256.491 106.773C256.427 107.209 256.404 107.65 256.421 108.091V143.328C256.421 156.875 256.421 169.947 256.421 182.395C256.421 194.843 256.421 206.677 256.421 217.749C256.421 219.132 256.421 220.503 256.421 221.861V223.893C256.413 224.226 256.429 224.56 256.469 224.891C256.516 225.215 256.604 225.532 256.731 225.835C256.99 226.434 257.399 226.956 257.918 227.352C258.437 227.748 259.049 228.004 259.696 228.096C260.018 228.134 260.342 228.149 260.667 228.139H278.357L322.955 228.171H335.077H338.235H339.301H338.235H335.077H322.955L278.357 228.203H260.651C260.321 228.212 259.991 228.198 259.664 228.16C258.994 228.065 258.359 227.8 257.82 227.39C257.282 226.98 256.857 226.439 256.587 225.819C256.453 225.505 256.362 225.175 256.315 224.837C256.269 224.5 256.253 224.159 256.267 223.819V217.739C256.267 206.667 256.267 194.837 256.267 182.384C256.267 169.931 256.267 156.864 256.267 143.317V108.08C256.245 107.629 256.268 107.177 256.336 106.731C256.508 105.822 256.992 105.001 257.705 104.412C258.418 103.823 259.315 103.502 260.24 103.504H338.875C339.271 103.492 339.667 103.517 340.059 103.579C340.449 103.662 340.825 103.799 341.179 103.984C341.877 104.368 342.445 104.951 342.811 105.659C342.99 106.009 343.116 106.385 343.184 106.773C343.242 107.16 343.264 107.551 343.248 107.941C343.248 109.477 343.248 111.003 343.248 112.517V121.493C343.248 127.388 343.248 133.107 343.248 138.651C343.248 149.717 343.248 160.032 343.248 169.445C343.248 188.277 343.248 203.515 343.248 214.048C343.248 216.683 343.248 219.015 343.248 221.045C343.248 222.059 343.248 222.997 343.248 223.851C343.263 224.259 343.236 224.669 343.168 225.072C342.972 226.045 342.414 226.907 341.605 227.483C341.242 227.738 340.838 227.929 340.411 228.048C340.261 228.094 340.107 228.127 339.952 228.149C339.843 228.169 339.732 228.179 339.621 228.181L339.291 228.197Z" fill="#263238"/>
<path d="M303.083 221.936C303.083 222.595 302.887 223.24 302.521 223.788C302.155 224.336 301.634 224.763 301.025 225.016C300.416 225.268 299.746 225.334 299.099 225.205C298.452 225.077 297.858 224.759 297.392 224.293C296.926 223.827 296.609 223.233 296.48 222.586C296.351 221.94 296.417 221.269 296.67 220.66C296.922 220.051 297.349 219.531 297.897 219.164C298.445 218.798 299.09 218.603 299.749 218.603C300.633 218.603 301.481 218.954 302.106 219.579C302.731 220.204 303.083 221.052 303.083 221.936Z" fill="white"/>
<path d="M310.597 109.579H292.864C292.702 109.579 292.541 109.547 292.391 109.484C292.241 109.422 292.105 109.331 291.991 109.216C291.876 109.101 291.786 108.965 291.724 108.814C291.663 108.664 291.631 108.504 291.632 108.341C291.631 108.179 291.663 108.018 291.724 107.868C291.786 107.718 291.876 107.582 291.991 107.467C292.105 107.352 292.241 107.261 292.391 107.198C292.541 107.136 292.702 107.104 292.864 107.104H310.597C310.76 107.104 310.921 107.136 311.071 107.198C311.221 107.26 311.357 107.352 311.472 107.466C311.587 107.581 311.678 107.718 311.74 107.868C311.803 108.018 311.835 108.179 311.835 108.341C311.835 108.504 311.803 108.665 311.74 108.815C311.678 108.965 311.587 109.101 311.472 109.216C311.357 109.331 311.221 109.422 311.071 109.484C310.921 109.547 310.76 109.579 310.597 109.579Z" fill="#EBEBEB"/>
<path d="M339.056 112.48H260.293C259.578 112.48 258.997 113.06 258.997 113.776V215.248C258.997 215.964 259.578 216.544 260.293 216.544H339.056C339.772 216.544 340.352 215.964 340.352 215.248V113.776C340.352 113.06 339.772 112.48 339.056 112.48Z" fill="white"/>
<path d="M339.056 216.533C339.056 216.533 339.136 216.533 339.291 216.501C339.523 216.454 339.738 216.345 339.915 216.187C340.057 216.055 340.168 215.894 340.24 215.714C340.312 215.534 340.343 215.34 340.331 215.147C340.331 214.683 340.331 214.139 340.331 213.547C340.331 211.088 340.331 207.467 340.304 202.811C340.304 193.477 340.304 179.984 340.261 163.312C340.261 154.971 340.261 145.84 340.261 136.037C340.261 131.131 340.261 126.066 340.261 120.843V113.909C340.283 113.6 340.187 113.294 339.995 113.051C339.798 112.814 339.516 112.665 339.211 112.635C338.896 112.635 338.544 112.635 338.208 112.635H332.037H260.304C260.126 112.634 259.95 112.674 259.79 112.751C259.631 112.829 259.491 112.942 259.381 113.083C259.273 113.224 259.199 113.388 259.163 113.563C259.137 113.75 259.128 113.939 259.136 114.128V148.896C259.136 160.896 259.136 172.469 259.136 183.493C259.136 194.517 259.136 204.997 259.136 214.805V215.264C259.138 215.473 259.195 215.678 259.3 215.859C259.406 216.039 259.557 216.189 259.739 216.293C259.994 216.423 260.281 216.475 260.565 216.443H285.099L324.597 216.485H335.333H338.128H339.077L338.133 216.533H335.339L324.603 216.56L285.104 216.603H272.016H260.544C260.22 216.631 259.895 216.569 259.605 216.421C259.313 216.258 259.09 215.995 258.976 215.68C258.917 215.525 258.886 215.361 258.885 215.195V214.736C258.885 204.928 258.885 194.469 258.885 183.424C258.885 172.379 258.885 160.827 258.885 148.827V130.576C258.885 127.476 258.885 124.356 258.885 121.216V114.133C258.878 113.927 258.889 113.72 258.917 113.515C258.96 113.299 259.053 113.096 259.189 112.923C259.324 112.748 259.497 112.606 259.694 112.509C259.892 112.412 260.11 112.362 260.331 112.363H332.064H338.203C338.549 112.363 338.869 112.363 339.232 112.363C339.417 112.385 339.597 112.443 339.76 112.535C339.923 112.626 340.066 112.749 340.181 112.896C340.411 113.182 340.527 113.543 340.507 113.909V120.843C340.507 126.066 340.507 131.131 340.507 136.037C340.507 145.84 340.507 154.971 340.507 163.312C340.507 179.984 340.469 193.477 340.459 202.811C340.459 207.467 340.459 211.088 340.459 213.547C340.459 214.16 340.459 214.704 340.459 215.147C340.47 215.346 340.436 215.546 340.359 215.731C340.283 215.915 340.165 216.08 340.016 216.213C339.838 216.375 339.618 216.482 339.381 216.523C339.274 216.546 339.164 216.549 339.056 216.533Z" fill="#263238"/>
<path d="M340.021 127.301H259.488V156.784H340.021V127.301Z" fill="#F5F5F5"/>
<path d="M280.341 117.323H261.28V122.309H280.341V117.323Z" fill="#F5F5F5"/>
<path d="M338.427 117.323H321.349V122.309H338.427V117.323Z" fill="#F5F5F5"/>
<path d="M318.101 117.323H301.024V122.309H318.101V117.323Z" fill="#F5F5F5"/>
<path d="M333.248 171.968H264.491V177.195H333.248V171.968Z" fill="#F5F5F5"/>
<path d="M333.248 162.085H264.491V167.312H333.248V162.085Z" fill="#F5F5F5"/>
<path d="M333.248 192.208H264.491V197.435H333.248V192.208Z" fill="#F5F5F5"/>
<path d="M333.248 182.325H264.491V187.552H333.248V182.325Z" fill="#F5F5F5"/>
<path d="M284.149 153.253L288.779 148.629L296.843 155.979L311.056 141.781L315.349 146.405L296.181 164.901L284.149 153.253Z" fill="#65AA4F"/>
<path d="M365.477 228.347H331.835C329.895 228.348 328.034 227.579 326.661 226.209C325.288 224.839 324.515 222.98 324.512 221.04V136.949C324.508 135.983 324.696 135.026 325.064 134.133C325.432 133.239 325.974 132.428 326.657 131.745C327.34 131.062 328.151 130.52 329.045 130.152C329.938 129.784 330.895 129.596 331.861 129.6H365.504C366.465 129.599 367.416 129.787 368.304 130.153C369.192 130.52 369.999 131.057 370.679 131.736C371.359 132.415 371.899 133.22 372.268 134.108C372.636 134.995 372.826 135.946 372.827 136.907V220.997C372.83 221.963 372.643 222.921 372.274 223.814C371.906 224.707 371.365 225.519 370.682 226.202C369.999 226.885 369.187 227.426 368.294 227.794C367.401 228.163 366.443 228.35 365.477 228.347Z" fill="#263238"/>
<path d="M365.712 132.149L359.168 132.117C358.953 132.117 358.741 132.16 358.543 132.244C358.345 132.328 358.167 132.45 358.017 132.605C357.868 132.759 357.751 132.942 357.674 133.142C357.597 133.342 357.561 133.556 357.568 133.771V134.96C357.571 135.174 357.533 135.386 357.454 135.585C357.376 135.783 357.259 135.965 357.11 136.118C356.962 136.272 356.784 136.394 356.588 136.479C356.392 136.564 356.182 136.61 355.968 136.613L343.211 136.533C342.996 136.53 342.783 136.484 342.586 136.398C342.389 136.312 342.211 136.188 342.062 136.032C341.914 135.877 341.797 135.694 341.719 135.493C341.642 135.293 341.605 135.079 341.611 134.864V133.675C341.616 133.46 341.578 133.246 341.5 133.046C341.422 132.846 341.306 132.663 341.157 132.508C341.009 132.353 340.831 132.228 340.634 132.142C340.437 132.056 340.225 132.009 340.011 132.005H337.707L331.979 131.979C330.613 131.974 329.301 132.512 328.331 133.474C327.361 134.436 326.812 135.743 326.805 137.109L326.501 219.733C326.498 220.409 326.629 221.079 326.885 221.704C327.141 222.33 327.518 222.899 327.994 223.379C328.47 223.859 329.035 224.24 329.659 224.501C330.282 224.763 330.951 224.899 331.627 224.901L365.333 225.067C366.699 225.072 368.011 224.536 368.981 223.575C369.951 222.614 370.5 221.307 370.507 219.941L370.853 137.339C370.859 136.66 370.73 135.986 370.474 135.357C370.219 134.728 369.841 134.156 369.363 133.674C368.885 133.191 368.316 132.808 367.69 132.547C367.063 132.285 366.391 132.15 365.712 132.149Z" fill="white"/>
<path d="M370.592 146.853H326.752V162.901H370.592V146.853Z" fill="#F5F5F5"/>
<path d="M338.101 141.419H327.728V144.133H338.101V141.419Z" fill="#F5F5F5"/>
<path d="M369.723 141.419H360.427V144.133H369.723V141.419Z" fill="#F5F5F5"/>
<path d="M358.661 141.419H349.365V144.133H358.661V141.419Z" fill="#F5F5F5"/>
<path d="M366.901 171.168H329.472V174.011H366.901V171.168Z" fill="#F5F5F5"/>
<path d="M366.901 165.787H329.472V168.629H366.901V165.787Z" fill="#F5F5F5"/>
<path d="M366.901 182.187H329.472V185.029H366.901V182.187Z" fill="#F5F5F5"/>
<path d="M366.901 187.216H329.472V190.059H366.901V187.216Z" fill="#F5F5F5"/>
<path d="M366.901 192.971H329.472V195.813H366.901V192.971Z" fill="#F5F5F5"/>
<path d="M366.901 198.72H329.472V201.563H366.901V198.72Z" fill="#F5F5F5"/>
<path d="M366.901 204.475H329.472V207.317H366.901V204.475Z" fill="#F5F5F5"/>
<path d="M366.901 176.805H329.472V179.648H366.901V176.805Z" fill="#F5F5F5"/>
<path d="M336.8 181.877L340.416 178.261L347.397 184.464L361.104 171.275L364.464 174.896L346.88 191.445L336.8 181.877Z" fill="#65AA4F"/>
<path d="M158.72 129.717H28.576C24.2843 129.717 20.8053 133.196 20.8053 137.488V218.288C20.8053 222.58 24.2843 226.059 28.576 226.059H158.72C163.012 226.059 166.491 222.58 166.491 218.288V137.488C166.491 133.196 163.012 129.717 158.72 129.717Z" fill="#263238"/>
<path d="M15.1146 219.835H172.949V220.208C172.949 222.344 172.101 224.392 170.591 225.902C169.08 227.413 167.032 228.261 164.896 228.261H23.168C21.0321 228.261 18.9837 227.413 17.4734 225.902C15.9631 224.392 15.1146 222.344 15.1146 220.208V219.835Z" fill="#263238"/>
<path d="M162.176 133.547H24.72V214.907H162.176V133.547Z" fill="#263238"/>
<path d="M79.2853 218.933L81.2479 222.048H108.805L110.624 218.933H79.2853Z" fill="#455A64"/>
<path d="M157.877 136.299H29.2906C28.3274 136.299 27.5466 137.079 27.5466 138.043V212.896C27.5466 213.859 28.3274 214.64 29.2906 214.64H157.877C158.84 214.64 159.621 213.859 159.621 212.896V138.043C159.621 137.079 158.84 136.299 157.877 136.299Z" fill="#EBEBEB"/>
<path d="M159.483 214.757H27.408L27.5466 142.155H159.483V214.757Z" fill="white"/>
<path d="M38.3999 139.328C38.3999 139.539 38.3374 139.745 38.2202 139.921C38.103 140.096 37.9364 140.233 37.7415 140.313C37.5466 140.394 37.3321 140.415 37.1252 140.374C36.9183 140.333 36.7282 140.231 36.579 140.082C36.4298 139.933 36.3283 139.743 36.2871 139.536C36.2459 139.329 36.2671 139.115 36.3478 138.92C36.4285 138.725 36.5652 138.558 36.7407 138.441C36.9161 138.324 37.1223 138.261 37.3333 138.261C37.6162 138.261 37.8875 138.374 38.0875 138.574C38.2876 138.774 38.3999 139.045 38.3999 139.328Z" fill="#263238"/>
<path d="M31.9999 139.328C31.9999 139.539 31.9374 139.745 31.8201 139.921C31.7029 140.096 31.5363 140.233 31.3414 140.313C31.1465 140.394 30.9321 140.415 30.7251 140.374C30.5182 140.333 30.3282 140.231 30.179 140.082C30.0298 139.933 29.9282 139.743 29.8871 139.536C29.8459 139.329 29.867 139.115 29.9478 138.92C30.0285 138.725 30.1652 138.558 30.3406 138.441C30.516 138.324 30.7223 138.261 30.9332 138.261C31.2161 138.261 31.4875 138.374 31.6875 138.574C31.8875 138.774 31.9999 139.045 31.9999 139.328Z" fill="#263238"/>
<path d="M35.0559 139.328C35.0559 139.539 34.9934 139.745 34.8762 139.921C34.759 140.096 34.5924 140.233 34.3975 140.313C34.2026 140.394 33.9881 140.415 33.7812 140.374C33.5743 140.333 33.3842 140.231 33.235 140.082C33.0859 139.933 32.9843 139.743 32.9431 139.536C32.9019 139.329 32.9231 139.115 33.0038 138.92C33.0845 138.725 33.2213 138.558 33.3967 138.441C33.5721 138.324 33.7783 138.261 33.9893 138.261C34.2722 138.261 34.5435 138.374 34.7435 138.574C34.9436 138.774 35.0559 139.045 35.0559 139.328Z" fill="#263238"/>
<path d="M165.237 218.933C165.237 218.987 132.907 219.029 93.0293 219.029C53.1519 219.029 20.7999 218.987 20.7999 218.933C20.7999 218.88 53.1306 218.837 93.0239 218.837C132.917 218.837 165.237 218.88 165.237 218.933Z" fill="#455A64"/>
<path d="M159.621 153.861H27.5466V183.344H159.621V153.861Z" fill="#F5F5F5"/>
<path d="M49.8506 146.096H30.7893V151.083H49.8506V146.096Z" fill="#F5F5F5"/>
<path d="M156.491 146.096H146.053V151.083H156.491V146.096Z" fill="#F5F5F5"/>
<path d="M142.917 146.096H125.84V151.083H142.917V146.096Z" fill="#F5F5F5"/>
<path d="M122.288 146.096H105.211V151.083H122.288V146.096Z" fill="#F5F5F5"/>
<path d="M150.405 200.741H34V205.968H150.405V200.741Z" fill="#F5F5F5"/>
<path d="M150.405 190.853H34V196.08H150.405V190.853Z" fill="#F5F5F5"/>
<path d="M76.8427 173.477L81.472 168.853L90.3893 176.779L107.899 159.931L112.192 164.555L89.728 185.701L76.8427 173.477Z" fill="#65AA4F"/>
<path d="M130.923 111.115C151.456 111.115 168.101 94.4692 168.101 73.936C168.101 53.4028 151.456 36.7573 130.923 36.7573C110.389 36.7573 93.744 53.4028 93.744 73.936C93.744 94.4692 110.389 111.115 130.923 111.115Z" fill="#65AA4F"/>
<path opacity="0.3" d="M130.923 111.115C151.456 111.115 168.101 94.4692 168.101 73.936C168.101 53.4028 151.456 36.7573 130.923 36.7573C110.389 36.7573 93.744 53.4028 93.744 73.936C93.744 94.4692 110.389 111.115 130.923 111.115Z" fill="black"/>
<path d="M129.92 108.736C150.453 108.736 167.099 92.0905 167.099 71.5573C167.099 51.0241 150.453 34.3787 129.92 34.3787C109.387 34.3787 92.7413 51.0241 92.7413 71.5573C92.7413 92.0905 109.387 108.736 129.92 108.736Z" fill="#65AA4F"/>
<path d="M141.184 98.2064C155.896 91.9856 162.78 75.0158 156.559 60.3034C150.338 45.5909 133.368 38.7071 118.656 44.928C103.944 51.1488 97.0597 68.1186 103.281 82.831C109.501 97.5434 126.471 104.427 141.184 98.2064Z" fill="white"/>
<path d="M144.308 85.9491C152.256 78.0012 152.256 65.115 144.308 57.1671C136.36 49.2191 123.474 49.2191 115.526 57.1671C107.578 65.115 107.578 78.0012 115.526 85.9491C123.474 93.8971 136.36 93.8971 144.308 85.9491Z" fill="#65AA4F"/>
<path d="M134.19 81.411C139.63 79.0524 142.128 72.7303 139.769 67.2903C137.411 61.8503 131.089 59.3523 125.649 61.7109C120.209 64.0695 117.711 70.3916 120.069 75.8316C122.428 81.2716 128.75 83.7696 134.19 81.411Z" fill="white"/>
<path d="M158.688 41.4454L157.675 33.5147L165.749 24.8694L166.331 33.4347L158.688 41.4454Z" fill="#455A64"/>
<path d="M176.016 35.136L167.824 34.4694L159.616 42.368L167.829 43.2427L176.016 35.136Z" fill="#455A64"/>
<path opacity="0.3" d="M129.92 72.1814L160.443 50.3148C159.274 48.6201 157.98 47.0156 156.571 45.5148L130.437 70.7948L129.92 72.1814Z" fill="black"/>
<path d="M167.541 31.776L163.733 35.6587L154.512 44.9814L143.435 56.1814C140.235 59.4347 137.026 62.6862 133.808 65.936C132.251 67.536 130.608 69.0507 129.12 70.6827L129.051 70.752C128.149 71.6694 129.584 73.0827 130.469 72.1654L134.299 68.2827L143.499 58.9654L154.576 47.7654C157.776 44.512 160.985 41.2605 164.203 38.0107C165.76 36.4107 167.403 34.896 168.891 33.2587L168.955 33.1947C169.861 32.2774 168.421 30.8587 167.541 31.776Z" fill="#263238"/>
<path d="M233.531 128.667C232.897 128.703 232.272 128.504 231.776 128.108C231.28 127.712 230.948 127.147 230.843 126.521C230.738 125.896 230.868 125.253 231.207 124.717C231.547 124.181 232.072 123.789 232.683 123.616C232.301 123.197 232.062 122.668 232.002 122.104C231.941 121.541 232.062 120.973 232.346 120.482C232.63 119.992 233.063 119.605 233.582 119.377C234.101 119.149 234.679 119.093 235.232 119.216C235.28 118.663 235.472 118.133 235.787 117.676C236.102 117.22 236.53 116.853 237.03 116.612C237.53 116.371 238.083 116.264 238.637 116.302C239.19 116.34 239.724 116.52 240.187 116.827C240.833 116.348 241.62 116.1 242.424 116.122C243.228 116.144 244 116.435 244.619 116.949C245.163 116.874 245.716 116.975 246.198 117.239C246.68 117.502 247.064 117.914 247.294 118.412C247.524 118.911 247.588 119.47 247.476 120.007C247.364 120.545 247.082 121.032 246.672 121.397" fill="#263238"/>
<path d="M233.141 129.013C233.485 126.287 234.843 123.79 236.945 122.02C239.048 120.251 241.74 119.339 244.485 119.467L245.051 119.493C251.125 120.133 253.979 125.648 253.168 131.707L251.339 151.973L250.859 156.747L237.051 155.115L237.312 149.947C237.312 149.947 231.499 148.763 231.701 142.901C231.797 140.075 232.469 134.261 233.141 129.013Z" fill="#99655C"/>
<path d="M237.264 149.936C239.983 150.065 242.683 149.409 245.04 148.048C245.04 148.048 243.04 152.176 237.221 151.376L237.264 149.936Z" fill="#744A45"/>
<path d="M234.432 134.4C234.42 134.617 234.493 134.83 234.635 134.994C234.778 135.158 234.978 135.261 235.195 135.28C235.301 135.293 235.409 135.285 235.512 135.256C235.615 135.228 235.712 135.178 235.795 135.112C235.879 135.045 235.949 134.963 236.001 134.869C236.052 134.775 236.085 134.672 236.096 134.565C236.108 134.347 236.034 134.134 235.891 133.969C235.747 133.805 235.545 133.703 235.328 133.685C235.222 133.671 235.114 133.679 235.011 133.707C234.908 133.736 234.812 133.785 234.728 133.852C234.644 133.919 234.575 134.001 234.524 134.096C234.473 134.19 234.442 134.293 234.432 134.4Z" fill="#263238"/>
<path d="M234.267 131.936C234.368 132.048 235.019 131.611 235.92 131.653C236.821 131.696 237.461 132.187 237.563 132.075C237.664 131.963 237.515 131.824 237.237 131.605C236.861 131.316 236.405 131.15 235.931 131.131C235.462 131.107 234.999 131.234 234.608 131.493C234.32 131.691 234.219 131.883 234.267 131.936Z" fill="#263238"/>
<path d="M242.624 134.821C242.614 135.039 242.688 135.252 242.831 135.416C242.974 135.58 243.175 135.682 243.392 135.701C243.498 135.715 243.606 135.707 243.709 135.678C243.813 135.649 243.909 135.6 243.993 135.533C244.077 135.467 244.147 135.384 244.198 135.29C244.25 135.196 244.282 135.093 244.293 134.987C244.304 134.769 244.23 134.556 244.087 134.392C243.943 134.228 243.742 134.126 243.525 134.107C243.419 134.093 243.311 134.101 243.208 134.13C243.105 134.159 243.008 134.208 242.925 134.275C242.841 134.341 242.771 134.424 242.719 134.518C242.668 134.612 242.635 134.715 242.624 134.821Z" fill="#263238"/>
<path d="M243.104 132.517C243.205 132.629 243.861 132.192 244.757 132.235C245.653 132.277 246.299 132.768 246.4 132.656C246.501 132.544 246.352 132.405 246.075 132.181C245.697 131.896 245.241 131.732 244.768 131.712C244.3 131.688 243.836 131.815 243.445 132.075C243.157 132.267 243.056 132.464 243.104 132.517Z" fill="#263238"/>
<path d="M239.525 139.035C239.059 138.866 238.573 138.755 238.08 138.704C237.851 138.672 237.632 138.613 237.6 138.459C237.594 138.219 237.659 137.984 237.787 137.781C238.032 137.248 238.283 136.667 238.549 136.064C239.616 133.616 240.389 131.6 240.288 131.557C240.187 131.515 239.221 133.467 238.192 135.915L237.456 137.643C237.301 137.914 237.244 138.23 237.296 138.539C237.325 138.621 237.373 138.696 237.436 138.757C237.499 138.819 237.575 138.864 237.659 138.891C237.784 138.934 237.915 138.959 238.048 138.965C238.535 139.053 239.032 139.076 239.525 139.035Z" fill="#263238"/>
<path d="M242.912 129.669C243.019 129.904 243.803 129.669 244.752 129.707C245.701 129.744 246.496 129.915 246.597 129.707C246.64 129.595 246.48 129.387 246.144 129.173C245.714 128.932 245.229 128.807 244.736 128.811C244.247 128.802 243.764 128.925 243.339 129.168C243.013 129.349 242.864 129.557 242.912 129.669Z" fill="#263238"/>
<path d="M234.395 128.224C234.576 128.437 235.328 128.256 236.224 128.288C237.12 128.32 237.867 128.507 238.048 128.288C238.133 128.187 238.048 127.979 237.701 127.755C237.258 127.49 236.751 127.35 236.235 127.349C235.721 127.33 235.211 127.448 234.757 127.691C234.432 127.915 234.32 128.117 234.395 128.224Z" fill="#263238"/>
<path d="M233.829 126.352C233.829 126.352 235.547 122.757 237.355 121.984C239.547 121.051 240.357 123.44 242.421 122.965C244.485 122.491 246.581 121.595 248.592 123.269C250.789 125.099 249.659 126.261 249.685 128.864C249.765 139.424 251.547 142.496 252.352 137.557C252.437 137.024 253.952 136.656 254.293 134.357C254.725 131.392 255.008 127.781 254.443 125.637C253.963 123.829 253.008 122.555 251.243 121.109C248.469 118.837 244.523 118.603 241.824 118.752C239.125 118.901 233.803 121.749 233.829 126.352Z" fill="#263238"/>
<path d="M251.963 137.381C251.981 137.167 252.043 136.959 252.143 136.769C252.244 136.58 252.382 136.412 252.548 136.277C252.715 136.141 252.907 136.041 253.114 135.982C253.32 135.922 253.536 135.905 253.749 135.931C254.816 136.085 256.021 136.763 255.845 139.013C255.531 143.013 251.579 141.872 251.579 141.755C251.579 141.637 251.813 139.051 251.963 137.381Z" fill="#99655C"/>
<path d="M252.576 140.32C252.576 140.32 252.64 140.373 252.752 140.437C252.833 140.482 252.922 140.509 253.013 140.518C253.105 140.528 253.197 140.518 253.285 140.491C253.556 140.347 253.784 140.134 253.945 139.873C254.106 139.613 254.195 139.314 254.203 139.008C254.239 138.666 254.199 138.32 254.085 137.995C254.058 137.867 254 137.748 253.916 137.647C253.833 137.547 253.726 137.468 253.605 137.419C253.527 137.391 253.441 137.393 253.363 137.422C253.285 137.451 253.22 137.506 253.179 137.579C253.115 137.685 253.136 137.765 253.115 137.771C253.093 137.776 253.035 137.696 253.077 137.536C253.107 137.438 253.169 137.354 253.253 137.296C253.371 137.222 253.512 137.198 253.648 137.227C253.809 137.273 253.955 137.36 254.074 137.478C254.192 137.597 254.279 137.743 254.325 137.904C254.468 138.263 254.521 138.651 254.48 139.035C254.389 139.84 253.92 140.56 253.328 140.683C253.218 140.705 253.105 140.703 252.996 140.677C252.887 140.65 252.785 140.599 252.699 140.528C252.571 140.416 252.56 140.325 252.576 140.32Z" fill="#744A45"/>
<path d="M252.267 129.6C251.757 129.976 251.161 130.218 250.533 130.304C250.22 130.336 249.905 130.254 249.648 130.073C249.39 129.892 249.206 129.623 249.131 129.317C249.093 129.035 249.179 128.715 249.008 128.491C248.837 128.267 248.395 128.288 248.053 128.309C247.466 128.327 246.891 128.142 246.423 127.786C245.956 127.429 245.626 126.923 245.488 126.352C245.3 126.543 245.047 126.656 244.779 126.669C244.511 126.682 244.248 126.594 244.043 126.421C243.644 126.065 243.295 125.656 243.008 125.205C242.863 124.979 242.664 124.793 242.43 124.661C242.196 124.53 241.933 124.459 241.664 124.453C241.377 124.534 241.082 124.584 240.784 124.603C240.251 124.533 240.032 123.904 239.979 123.376C239.925 122.848 239.893 122.24 239.445 121.936C238.997 121.632 238.501 121.781 238.011 121.829C237.52 121.877 236.907 121.733 236.805 121.259C236.79 121.13 236.801 121 236.837 120.876C236.874 120.753 236.936 120.638 237.019 120.539C237.367 120.071 237.863 119.734 238.426 119.582C238.989 119.43 239.586 119.472 240.123 119.701C240.352 119.044 240.77 118.47 241.325 118.051C241.88 117.631 242.547 117.386 243.242 117.346C243.936 117.305 244.627 117.471 245.227 117.823C245.827 118.175 246.31 118.697 246.613 119.323C247.058 118.954 247.585 118.698 248.149 118.578C248.714 118.458 249.3 118.476 249.855 118.632C250.411 118.788 250.921 119.076 251.341 119.472C251.761 119.868 252.079 120.361 252.267 120.907C252.761 120.808 253.273 120.855 253.741 121.043C254.208 121.231 254.611 121.551 254.9 121.964C255.188 122.377 255.35 122.865 255.366 123.369C255.381 123.873 255.249 124.37 254.987 124.8C255.35 125.002 255.656 125.293 255.876 125.645C256.097 125.998 256.224 126.401 256.245 126.816C256.245 127.648 255.376 128.416 254.587 128.181C254.73 128.515 254.742 128.891 254.62 129.233C254.497 129.574 254.249 129.857 253.927 130.024C253.604 130.19 253.23 130.228 252.88 130.13C252.531 130.031 252.231 129.804 252.043 129.493" fill="#263238"/>
<path d="M239.765 120.885C239.762 120.91 239.762 120.935 239.765 120.96C239.759 121.031 239.759 121.102 239.765 121.173C239.804 121.447 239.888 121.712 240.016 121.957C240.22 122.348 240.51 122.687 240.864 122.949C241.326 123.295 241.887 123.483 242.464 123.483L242.4 123.387C242.262 123.745 242.272 124.144 242.427 124.496C242.588 124.866 242.804 125.209 243.067 125.515C243.192 125.688 243.335 125.849 243.493 125.995C243.78 126.205 244.132 126.306 244.487 126.281C244.842 126.256 245.176 126.105 245.429 125.856L245.28 125.808C245.317 126.226 245.441 126.632 245.644 126.999C245.847 127.367 246.124 127.688 246.459 127.941C246.825 128.24 247.277 128.412 247.749 128.432C248.196 128.432 248.64 128.356 249.061 128.208L248.955 128.155C249.138 128.65 249.444 129.091 249.845 129.435C250.027 129.606 250.245 129.735 250.483 129.813C250.721 129.89 250.973 129.914 251.221 129.883C251.647 129.811 252.042 129.617 252.358 129.324C252.674 129.032 252.899 128.653 253.003 128.235L252.907 128.272C253.317 128.516 253.8 128.61 254.272 128.539C254.626 128.492 254.962 128.361 255.253 128.155C255.437 128.03 255.596 127.873 255.723 127.691C255.766 127.627 255.804 127.559 255.835 127.488C255.664 127.725 255.454 127.932 255.216 128.101C254.928 128.287 254.602 128.403 254.261 128.443C253.813 128.499 253.358 128.403 252.971 128.171L252.901 128.123V128.208C252.798 128.597 252.584 128.948 252.286 129.218C251.988 129.489 251.619 129.668 251.221 129.733C250.995 129.761 250.765 129.738 250.549 129.665C250.333 129.592 250.136 129.471 249.973 129.312C249.598 128.984 249.31 128.568 249.136 128.101V128.021L249.056 128.048C248.655 128.188 248.233 128.26 247.808 128.261C247.369 128.242 246.948 128.081 246.608 127.803C246.293 127.562 246.032 127.259 245.841 126.912C245.65 126.564 245.533 126.181 245.499 125.787V125.595L245.365 125.739C245.215 125.886 245.031 125.995 244.83 126.057C244.628 126.118 244.415 126.13 244.208 126.091C244.014 126.06 243.83 125.981 243.675 125.861C243.525 125.726 243.389 125.576 243.269 125.413C243.016 125.119 242.806 124.791 242.645 124.437C242.499 124.122 242.484 123.761 242.603 123.435L242.64 123.339H242.539C241.981 123.343 241.437 123.167 240.987 122.837C240.642 122.592 240.356 122.273 240.149 121.904C239.965 121.588 239.835 121.244 239.765 120.885Z" fill="#455A64"/>
<path d="M238.501 141.984C238.501 142.021 238.709 142.16 239.115 142.251C239.649 142.353 240.2 142.325 240.722 142.17C241.243 142.015 241.72 141.737 242.112 141.36C242.405 141.067 242.512 140.827 242.48 140.827C242.448 140.827 241.765 141.547 240.624 141.893C239.483 142.24 238.528 141.867 238.501 141.984Z" fill="#263238"/>
<path d="M225.307 207.52L260.768 208.005C260.768 208.005 270.688 203.856 273.413 203.739C276.139 203.621 281.547 203.973 284.048 208.005C286.635 212.171 286.997 219.509 279.024 224.848C271.264 230.043 235.776 234.848 230.912 234.405L221.941 222.368C221.941 222.368 221.851 212.501 221.941 212.032C222.032 211.563 223.541 207.333 223.541 207.333L225.307 207.52Z" fill="#263238"/>
<path d="M244.992 223.467L266.171 231.333L256.533 257.728C254.069 256.661 254 241.147 254 241.147L240.224 236.667L244.992 223.467Z" fill="#65AA4F"/>
<g opacity="0.6">
<path d="M255.824 232.571C255.994 232.344 256.241 232.188 256.519 232.133C256.796 232.078 257.085 232.127 257.328 232.272C257.558 232.435 257.718 232.679 257.775 232.956C257.831 233.232 257.78 233.52 257.632 233.76C257.45 234 257.186 234.163 256.89 234.219C256.595 234.276 256.289 234.22 256.032 234.064C255.802 233.87 255.658 233.593 255.631 233.294C255.604 232.994 255.696 232.696 255.888 232.464" fill="white"/>
</g>
<path d="M266.171 231.339L264.037 230.544L255.563 256.197C255.563 256.197 255.648 257.563 256.523 257.728L266.171 231.339Z" fill="#263238"/>
<path d="M253.691 241.525C253.824 241.568 254.117 240.949 254.757 240.459C255.397 239.968 256.069 239.835 256.064 239.701C256.059 239.568 255.237 239.483 254.464 240.08C253.691 240.677 253.563 241.509 253.691 241.525Z" fill="#263238"/>
<path d="M253.824 244.715C253.941 244.789 254.357 244.309 255.067 244.075C255.776 243.84 256.395 243.92 256.437 243.787C256.48 243.653 255.781 243.307 254.907 243.621C254.032 243.936 253.701 244.667 253.824 244.715Z" fill="#263238"/>
<path d="M256.565 247.499C256.635 247.392 256.032 246.965 255.227 247.051C254.421 247.136 253.899 247.621 253.989 247.717C254.08 247.813 254.592 247.573 255.269 247.525C255.947 247.477 256.533 247.621 256.565 247.499Z" fill="#263238"/>
<path d="M250.667 240.155C250.805 240.155 250.843 239.488 251.157 238.779C251.472 238.069 251.909 237.584 251.824 237.477C251.739 237.371 251.083 237.749 250.72 238.592C250.357 239.435 250.544 240.181 250.667 240.155Z" fill="#263238"/>
<path d="M247.765 238.4C248.042 238.011 248.206 237.553 248.24 237.077C248.331 236.569 248.36 236.051 248.325 235.536C248.302 235.231 248.259 234.929 248.197 234.629C248.173 234.444 248.117 234.263 248.032 234.096C247.972 233.978 247.875 233.883 247.755 233.827C247.635 233.771 247.5 233.757 247.371 233.787C247.256 233.817 247.151 233.875 247.064 233.955C246.977 234.035 246.91 234.134 246.869 234.245C246.805 234.417 246.765 234.596 246.752 234.779C246.726 235.087 246.726 235.398 246.752 235.707C246.79 236.225 246.909 236.734 247.104 237.216C247.451 238.037 247.856 238.421 247.893 238.384C247.931 238.347 247.664 237.899 247.424 237.104C247.287 236.641 247.208 236.163 247.189 235.68C247.182 235.398 247.198 235.116 247.237 234.837C247.237 234.533 247.349 234.304 247.499 234.267C247.557 234.267 247.579 234.267 247.637 234.352C247.695 234.47 247.735 234.596 247.755 234.725C247.822 235.003 247.87 235.284 247.899 235.568C247.955 236.053 247.963 236.542 247.925 237.029C247.839 237.482 247.785 237.94 247.765 238.4Z" fill="#263238"/>
<path d="M248 238.283C248.037 238.245 247.669 237.819 246.853 237.467C246.082 237.145 245.237 237.04 244.411 237.163C244.21 237.17 244.015 237.228 243.844 237.333C243.673 237.438 243.532 237.585 243.435 237.76C243.395 237.879 243.39 238.007 243.42 238.129C243.45 238.251 243.515 238.361 243.605 238.448C243.734 238.572 243.88 238.678 244.037 238.763C244.316 238.915 244.616 239.025 244.928 239.088C245.45 239.196 245.99 239.174 246.501 239.024C247.376 238.757 247.723 238.277 247.685 238.251C247.272 238.42 246.85 238.568 246.421 238.693C245.959 238.784 245.481 238.771 245.024 238.656C244.76 238.591 244.507 238.489 244.272 238.352C244.005 238.213 243.819 238.021 243.883 237.931C243.955 237.839 244.046 237.764 244.15 237.711C244.254 237.659 244.369 237.63 244.485 237.627C244.762 237.578 245.042 237.555 245.323 237.557C245.802 237.567 246.278 237.644 246.736 237.787C247.536 238.032 247.968 238.347 248 238.283Z" fill="#263238"/>
<path d="M233.307 222.933L214.336 231.733L225.163 255.397C227.36 254.224 226.299 239.904 226.299 239.904L238.683 234.768L233.307 222.933Z" fill="#65AA4F"/>
<g opacity="0.6">
<path d="M224 232.107C223.826 231.912 223.586 231.789 223.326 231.759C223.067 231.73 222.806 231.796 222.592 231.947C222.39 232.112 222.259 232.348 222.226 232.607C222.193 232.867 222.261 233.128 222.416 233.339C222.601 233.545 222.855 233.676 223.131 233.707C223.407 233.738 223.684 233.665 223.909 233.504C224.098 233.306 224.204 233.042 224.204 232.768C224.204 232.494 224.098 232.23 223.909 232.032" fill="white"/>
</g>
<path d="M214.336 231.723L216.251 230.837L225.936 253.904C225.936 253.904 225.936 255.168 225.163 255.387L214.336 231.723Z" fill="#263238"/>
<path d="M226.592 240.224C226.475 240.272 226.16 239.717 225.525 239.323C224.891 238.928 224.272 238.843 224.267 238.715C224.261 238.587 225.013 238.453 225.765 238.949C226.517 239.445 226.709 240.197 226.592 240.224Z" fill="#263238"/>
<path d="M226.704 243.2C226.603 243.28 226.171 242.869 225.509 242.699C224.848 242.528 224.272 242.656 224.224 242.539C224.176 242.421 224.795 242.048 225.621 242.272C226.448 242.496 226.811 243.12 226.704 243.2Z" fill="#263238"/>
<path d="M224.379 245.947C224.304 245.851 224.805 245.413 225.573 245.413C226.341 245.413 226.843 245.845 226.768 245.947C226.693 246.048 226.203 245.867 225.6 245.867C224.997 245.867 224.443 246.053 224.379 245.947Z" fill="#263238"/>
<path d="M229.285 238.741C229.157 238.741 229.077 238.133 228.752 237.504C228.427 236.875 227.973 236.437 228.043 236.352C228.112 236.267 228.752 236.544 229.141 237.296C229.531 238.048 229.403 238.752 229.285 238.741Z" fill="#263238"/>
<path d="M231.835 236.891C231.553 236.55 231.368 236.139 231.301 235.701C231.18 235.24 231.117 234.765 231.115 234.288C231.11 234.004 231.126 233.721 231.163 233.44C231.177 233.274 231.215 233.11 231.275 232.955C231.32 232.839 231.403 232.743 231.511 232.683C231.619 232.623 231.745 232.602 231.867 232.624C231.974 232.644 232.075 232.689 232.161 232.756C232.248 232.822 232.317 232.909 232.363 233.008C232.434 233.158 232.482 233.318 232.507 233.483C232.558 233.763 232.586 234.046 232.592 234.331C232.595 234.814 232.521 235.294 232.373 235.755C232.117 236.533 231.771 236.923 231.728 236.891C231.685 236.859 231.904 236.427 232.069 235.675C232.163 235.237 232.2 234.789 232.181 234.341C232.17 234.081 232.136 233.822 232.08 233.568C232.032 233.285 231.936 233.072 231.797 233.061C231.744 233.061 231.723 233.061 231.675 233.147C231.63 233.261 231.601 233.381 231.589 233.504C231.552 233.776 231.531 234.037 231.52 234.293C231.507 234.743 231.536 235.193 231.605 235.637C231.713 236.049 231.789 236.468 231.835 236.891Z" fill="#263238"/>
<path d="M231.6 236.8C231.563 236.768 231.872 236.347 232.603 235.963C233.032 235.743 233.496 235.597 233.973 235.531C234.259 235.501 234.547 235.501 234.832 235.531C235.018 235.521 235.202 235.561 235.368 235.645C235.533 235.729 235.674 235.855 235.776 236.011C235.823 236.118 235.837 236.236 235.819 236.352C235.8 236.467 235.748 236.575 235.669 236.661C235.559 236.786 235.432 236.894 235.291 236.981C234.625 237.412 233.816 237.562 233.04 237.397C232.213 237.216 231.856 236.8 231.888 236.773C231.92 236.747 232.336 237.008 233.088 237.093C233.521 237.138 233.96 237.091 234.373 236.955C234.614 236.876 234.843 236.763 235.051 236.619C235.285 236.469 235.445 236.283 235.376 236.197C235.301 236.119 235.211 236.058 235.111 236.017C235.01 235.977 234.903 235.958 234.795 235.963C234.537 235.939 234.279 235.939 234.021 235.963C233.579 236.006 233.145 236.11 232.731 236.272C232 236.549 231.648 236.869 231.6 236.8Z" fill="#263238"/>
<path d="M223.541 207.333C223.541 207.333 208.224 201.616 202.587 202.357C199.435 202.768 194.507 205.173 194.133 209.216C193.76 213.259 194.741 218.656 200.192 221.291C205.643 223.925 227.392 233.68 232.56 235.184C237.728 236.688 250.613 240.208 250.613 240.208L255.504 226.256C255.504 226.256 228.8 217.013 227.392 216C225.984 214.987 222.411 213.557 222.411 213.557L223.541 207.333Z" fill="#263238"/>
<path d="M276.8 209.232L276.693 209.205L276.389 209.109C276.117 209.029 275.717 208.912 275.195 208.789C274.563 208.634 273.922 208.522 273.275 208.453C272.418 208.373 271.556 208.373 270.699 208.453C269.659 208.54 268.631 208.734 267.632 209.035C267.083 209.203 266.547 209.415 266.032 209.669L264.368 210.48C262.075 211.547 259.515 212.699 256.789 213.776C251.333 215.963 246.096 216.976 242.363 217.845C240.485 218.261 238.971 218.603 237.925 218.848L236.725 219.136L236.411 219.205H236.304L236.405 219.168L236.715 219.083C236.992 219.008 237.392 218.896 237.915 218.768C238.981 218.501 240.464 218.139 242.336 217.701C246.069 216.821 251.291 215.771 256.736 213.589C259.456 212.523 262.016 211.397 264.304 210.309L265.973 209.504C266.502 209.248 267.052 209.038 267.616 208.875C268.624 208.575 269.661 208.384 270.709 208.304C271.573 208.223 272.443 208.223 273.307 208.304C273.957 208.377 274.6 208.498 275.232 208.667C275.765 208.8 276.149 208.928 276.416 209.019L276.72 209.131L276.8 209.232Z" fill="#455A64"/>
<path d="M275.973 207.211C275.973 207.237 275.509 207.157 274.757 207.077C273.782 206.97 272.799 206.942 271.819 206.992C270.838 207.043 269.862 207.171 268.901 207.376C268.165 207.531 267.712 207.664 267.707 207.637C267.802 207.584 267.905 207.542 268.011 207.515C268.213 207.445 268.507 207.355 268.875 207.264C269.836 207.022 270.818 206.875 271.808 206.827C272.798 206.776 273.791 206.82 274.773 206.96C275.147 207.013 275.451 207.072 275.659 207.12C275.767 207.136 275.873 207.167 275.973 207.211Z" fill="#455A64"/>
<path d="M217.099 211.387C217.099 211.387 216.656 211.077 215.92 210.624C214.964 210.034 213.949 209.548 212.891 209.173C211.829 208.801 210.732 208.542 209.616 208.4C208.763 208.293 208.224 208.283 208.224 208.256C208.35 208.24 208.477 208.24 208.603 208.256C208.946 208.255 209.29 208.271 209.632 208.304C210.761 208.416 211.873 208.661 212.944 209.035C214.015 209.414 215.036 209.923 215.984 210.549C216.273 210.736 216.551 210.939 216.816 211.157C216.919 211.223 217.013 211.3 217.099 211.387Z" fill="#455A64"/>
<path d="M224.784 232.192L224.901 232.235L225.253 232.384C225.557 232.507 226.005 232.72 226.603 232.949C227.797 233.419 229.557 234.069 231.819 234.811C236.347 236.293 242.848 238.176 250.629 240.144L250.539 240.192L255.275 227.051L255.323 227.152L249.456 224.747L217.013 211.413C215.696 210.016 214.48 208.784 213.344 207.792C212.379 206.937 211.348 206.16 210.261 205.467C209.571 205.038 208.859 204.644 208.128 204.288L207.557 204.027L207.365 203.931C207.433 203.953 207.499 203.98 207.563 204.011L208.139 204.261C208.872 204.604 209.585 204.99 210.272 205.419C211.365 206.104 212.403 206.875 213.376 207.723C214.523 208.715 215.749 209.941 217.077 211.339L249.541 224.64L255.408 227.051L255.483 227.083L255.456 227.152C253.765 231.824 252.16 236.267 250.709 240.293V240.357H250.645C242.864 238.384 236.363 236.48 231.845 234.976C229.589 234.224 227.829 233.557 226.64 233.072C226.043 232.832 225.573 232.613 225.296 232.485L224.949 232.325L224.784 232.192Z" fill="#455A64"/>
<path d="M262.635 158.528C262.635 158.528 267.045 161.067 267.941 164.053C268.475 165.861 272.597 189.045 273.275 193.616C273.952 198.187 272.549 201.573 270.608 203.093C268.667 204.613 262.747 206.629 262.747 206.629L254.4 209.323L252.016 203.259L259.931 191.888L259.163 184.229L262.635 158.528Z" fill="#65AA4F"/>
<path d="M253.968 154.523L250.667 152.629C250.667 152.629 247.648 156.16 243.531 155.728C240.978 155.388 238.643 154.111 236.981 152.144L224.715 154.64C223.893 154.805 222.389 155.328 220.955 157.381C219.355 159.669 211.76 169.819 211.76 169.819H206.4C205.68 169.818 204.974 170.014 204.357 170.385C203.741 170.756 203.237 171.289 202.901 171.925C201.995 173.653 200.907 175.968 201.013 176.928C201.189 178.528 200.88 182.992 203.051 184.395C203.739 184.837 206.203 186.155 208.117 186.064C210.939 185.931 214.213 184.464 216.117 183.141C217.717 182.027 221.451 178.16 222.869 176.651V176.677L223.787 208.875L255.968 207.957L262.635 158.544C262.635 158.544 254.293 154.523 253.968 154.523Z" fill="#65AA4F"/>
<path d="M222.757 163.147C222.805 163.147 222.885 167.136 222.944 172.059C223.003 176.981 223.013 180.976 222.971 180.976C222.928 180.976 222.837 176.987 222.779 172.064C222.72 167.141 222.715 163.147 222.757 163.147Z" fill="#263238"/>
<path d="M266.533 189.173C266.533 189.173 266.261 189.216 265.776 189.312C265.09 189.449 264.421 189.662 263.781 189.947C262.831 190.37 261.935 190.907 261.115 191.547C260.113 192.33 259.178 193.195 258.32 194.133C257.397 195.125 256.555 196.112 255.765 196.981C255.073 197.763 254.342 198.509 253.573 199.216C253.056 199.693 252.505 200.133 251.925 200.533C251.728 200.677 251.557 200.773 251.445 200.848C251.39 200.885 251.331 200.918 251.269 200.944L251.429 200.816C251.531 200.736 251.696 200.635 251.888 200.48C252.447 200.061 252.981 199.611 253.488 199.131C254.139 198.528 254.869 197.76 255.648 196.88C256.427 196 257.248 195.019 258.192 194.021C259.055 193.077 259.999 192.209 261.013 191.429C261.842 190.784 262.749 190.247 263.712 189.829C264.362 189.548 265.045 189.349 265.744 189.237C265.933 189.206 266.124 189.185 266.315 189.173H266.533Z" fill="#263238"/>
<path d="M267.264 186.992C267.264 187.024 266.773 187.093 266.005 187.307C264.001 187.865 262.182 188.947 260.736 190.443C260.203 191.019 259.893 191.419 259.867 191.397C259.916 191.292 259.979 191.193 260.053 191.104C260.237 190.845 260.437 190.597 260.651 190.363C262.073 188.797 263.93 187.692 265.984 187.189C266.291 187.113 266.603 187.056 266.917 187.019C267.032 186.997 267.148 186.988 267.264 186.992Z" fill="#263238"/>
<g opacity="0.3">
<path d="M207.371 181.333C209.072 181.797 211.104 179.344 212.667 177.813C213.472 177.013 214.309 176.16 214.603 175.067C214.814 174.148 214.72 173.186 214.336 172.325C214.05 171.548 213.67 170.808 213.205 170.123C213.349 171.445 213.675 173.472 213.205 175.131C212.77 176.466 212.022 177.678 211.024 178.667C210.037 179.776 208.891 180.939 207.349 181.333" fill="black"/>
</g>
<path d="M214.651 179.941C214.619 179.941 214.816 179.381 214.976 178.453C215.069 177.914 215.122 177.368 215.136 176.821C215.161 175.478 214.95 174.14 214.512 172.869C214.336 172.35 214.12 171.846 213.867 171.36C213.429 170.533 213.072 170.069 213.099 170.048C213.199 170.143 213.289 170.248 213.365 170.363C213.463 170.489 213.554 170.621 213.637 170.757C213.739 170.917 213.861 171.093 213.973 171.291C214.242 171.775 214.472 172.279 214.661 172.8C214.899 173.44 215.077 174.101 215.195 174.773C215.294 175.448 215.335 176.129 215.317 176.811C215.297 177.364 215.233 177.915 215.125 178.459C215.087 178.669 215.037 178.877 214.976 179.083C214.938 179.238 214.892 179.391 214.837 179.541C214.79 179.681 214.727 179.815 214.651 179.941Z" fill="#263238"/>
<path d="M238.309 153.387C238.309 153.429 237.952 153.648 237.557 154.005C237.163 154.363 236.901 154.704 236.859 154.677C236.998 154.373 237.199 154.102 237.448 153.879C237.698 153.657 237.991 153.489 238.309 153.387Z" fill="#263238"/>
<path d="M241.659 155.333C241.691 155.365 241.371 155.717 241.125 156.229C240.88 156.741 240.763 157.205 240.715 157.195C240.721 156.831 240.811 156.475 240.977 156.152C241.144 155.829 241.382 155.549 241.675 155.333H241.659Z" fill="#263238"/>
<path d="M247.392 157.333C247.236 157.027 247.113 156.705 247.024 156.373C246.881 156.062 246.77 155.737 246.693 155.403C246.919 155.67 247.084 155.983 247.179 156.32C247.323 156.638 247.395 156.984 247.392 157.333Z" fill="#263238"/>
<path d="M251.083 155.605C251.029 155.605 250.907 155.072 250.549 154.464C250.192 153.856 249.749 153.493 249.787 153.456C250.172 153.668 250.485 153.989 250.688 154.379C250.936 154.741 251.073 155.167 251.083 155.605Z" fill="#263238"/>
<path d="M261.675 166.032C261.723 166.032 261.173 170.437 260.459 175.856C259.744 181.275 259.125 185.664 259.077 185.653C259.029 185.643 259.579 181.253 260.293 175.835C261.008 170.416 261.632 166.027 261.675 166.032Z" fill="#263238"/>
<path d="M213.451 173.152C213.469 173.304 213.469 173.458 213.451 173.611C213.44 173.79 213.416 173.968 213.381 174.144C213.381 174.245 213.344 174.357 213.328 174.475L213.237 174.837C213.077 175.431 212.865 176.009 212.603 176.565C212.268 177.24 211.871 177.883 211.419 178.485C210.955 179.075 210.428 179.612 209.845 180.085C209.359 180.476 208.82 180.797 208.245 181.04C208.128 181.088 208.011 181.141 207.899 181.179L207.579 181.269L207.296 181.349L207.056 181.381C206.906 181.406 206.755 181.418 206.603 181.419C207.15 181.309 207.686 181.146 208.203 180.933C208.75 180.678 209.263 180.354 209.728 179.968C210.295 179.49 210.81 178.954 211.264 178.368C211.713 177.775 212.107 177.143 212.443 176.48C212.711 175.937 212.93 175.371 213.099 174.789C213.248 174.251 213.365 173.704 213.451 173.152Z" fill="#263238"/>
<g opacity="0.3">
<path d="M260.64 209.957C262.005 209.296 262.315 207.531 262.453 206.021C262.862 201.595 263.271 197.172 263.68 192.752C263.872 190.672 263.963 188.299 262.496 186.811C261.157 185.456 259.029 185.371 257.12 185.376C245.344 185.413 234.949 185.755 223.173 185.787L223.771 206.4L260.64 209.957Z" fill="black"/>
</g>
<path d="M218.096 188.981L219.349 212.869C219.375 213.316 219.572 213.735 219.899 214.041C220.225 214.347 220.657 214.515 221.104 214.512L259.157 214.581C259.606 214.583 260.037 214.413 260.363 214.105C260.689 213.797 260.883 213.376 260.907 212.928L262.363 189.461C262.411 188.485 261.717 187.189 260.725 187.168H219.883C219.644 187.161 219.406 187.204 219.185 187.293C218.963 187.382 218.762 187.515 218.595 187.686C218.427 187.856 218.296 188.059 218.21 188.282C218.125 188.504 218.086 188.743 218.096 188.981Z" fill="#E0E0E0"/>
<path d="M218.096 188.981C218.096 188.981 218.096 188.949 218.096 188.891C218.096 188.832 218.096 188.741 218.096 188.624C218.147 188.275 218.305 187.95 218.549 187.696C218.725 187.504 218.942 187.355 219.184 187.259C219.478 187.154 219.79 187.111 220.101 187.131H222.416L237.163 187.104H259.029H260.581C260.859 187.091 261.134 187.162 261.371 187.307C261.601 187.454 261.798 187.646 261.952 187.872C262.26 188.327 262.425 188.864 262.427 189.413C262.395 189.947 262.368 190.48 262.336 191.013C262.204 193.147 262.069 195.339 261.931 197.589C261.653 202.059 261.365 206.688 261.072 211.429L261.019 212.315C261.009 212.614 260.984 212.913 260.944 213.211C260.884 213.515 260.747 213.798 260.546 214.034C260.345 214.27 260.088 214.451 259.797 214.56C259.511 214.659 259.208 214.699 258.907 214.677H256.288H249.456H236.539L224.853 214.645H221.499C221.28 214.645 221.061 214.645 220.837 214.645C220.397 214.583 219.995 214.362 219.707 214.024C219.418 213.687 219.262 213.255 219.269 212.811C219.248 212.395 219.227 211.984 219.205 211.579C219.163 210.763 219.125 209.979 219.083 209.189C218.768 202.976 218.512 197.947 218.336 194.464C218.251 192.731 218.187 191.381 218.144 190.464C218.144 190.005 218.107 189.659 218.096 189.397C218.085 189.136 218.096 189.045 218.096 189.045C218.096 189.045 218.096 189.163 218.123 189.397C218.149 189.632 218.16 189.984 218.187 190.437C218.24 191.36 218.315 192.704 218.411 194.443C218.603 197.92 218.875 202.976 219.211 209.163C219.253 209.941 219.296 210.736 219.339 211.552C219.36 211.957 219.381 212.368 219.403 212.784C219.399 213.195 219.54 213.593 219.803 213.909C220.073 214.23 220.453 214.439 220.869 214.496C221.084 214.507 221.3 214.507 221.515 214.496H224.869H236.555H249.472H256.304H258.923C259.197 214.519 259.472 214.486 259.733 214.4C260.002 214.304 260.24 214.141 260.427 213.926C260.614 213.711 260.742 213.452 260.8 213.173C260.848 212.901 260.848 212.592 260.869 212.304L260.928 211.413C261.221 206.677 261.504 202.048 261.781 197.579C261.92 195.342 262.057 193.148 262.192 190.997L262.288 189.397C262.286 188.88 262.13 188.375 261.84 187.947C261.714 187.729 261.533 187.55 261.314 187.426C261.096 187.302 260.848 187.239 260.597 187.243H259.04H237.173H222.427H220.112C219.807 187.217 219.499 187.257 219.211 187.36C218.972 187.449 218.757 187.591 218.581 187.776C218.339 188.026 218.179 188.344 218.123 188.688C218.091 188.859 218.133 188.981 218.096 188.981Z" fill="#263238"/>
<path d="M242.752 200.635C242.754 201.08 242.624 201.516 242.377 201.888C242.13 202.259 241.779 202.548 241.367 202.719C240.955 202.89 240.502 202.934 240.065 202.847C239.628 202.759 239.227 202.543 238.913 202.227C238.599 201.911 238.387 201.508 238.302 201.071C238.218 200.633 238.265 200.18 238.439 199.77C238.613 199.359 238.905 199.01 239.278 198.766C239.651 198.522 240.088 198.395 240.533 198.4C241.123 198.406 241.686 198.643 242.102 199.062C242.517 199.48 242.751 200.045 242.752 200.635Z" fill="white"/>
<path d="M242.752 200.635C242.752 200.635 242.752 200.432 242.651 200.101C242.572 199.807 242.432 199.531 242.241 199.294C242.049 199.056 241.811 198.86 241.54 198.72C241.269 198.579 240.972 198.497 240.667 198.478C240.362 198.458 240.057 198.503 239.771 198.608C239.37 198.755 239.023 199.019 238.773 199.365C238.498 199.734 238.349 200.182 238.349 200.643C238.349 201.103 238.498 201.551 238.773 201.92C239.023 202.267 239.37 202.53 239.771 202.677C240.057 202.781 240.362 202.824 240.666 202.804C240.97 202.784 241.267 202.701 241.537 202.561C241.808 202.421 242.047 202.226 242.238 201.989C242.43 201.752 242.57 201.478 242.651 201.184C242.741 200.843 242.736 200.651 242.752 200.651C242.76 200.698 242.76 200.747 242.752 200.795C242.75 200.933 242.734 201.07 242.704 201.205C242.589 201.71 242.302 202.158 241.893 202.475C241.612 202.699 241.281 202.851 240.928 202.917C240.522 202.995 240.102 202.964 239.712 202.827C239.284 202.671 238.913 202.39 238.645 202.021C238.351 201.624 238.193 201.142 238.193 200.648C238.193 200.154 238.351 199.672 238.645 199.275C238.913 198.906 239.284 198.625 239.712 198.469C240.102 198.332 240.522 198.301 240.928 198.379C241.358 198.463 241.755 198.67 242.07 198.975C242.385 199.28 242.605 199.669 242.704 200.096C242.734 200.231 242.75 200.369 242.752 200.507C242.758 200.549 242.758 200.592 242.752 200.635Z" fill="#263238"/>
<path d="M219.381 191.627C219.424 191.627 219.611 195.637 219.797 200.592C219.984 205.547 220.096 209.563 220.053 209.563C220.011 209.563 219.819 205.552 219.632 200.597C219.445 195.643 219.333 191.627 219.381 191.627Z" fill="#263238"/>
<path d="M207.941 160.453C207.717 160.267 208.693 156.512 208.693 156.512C208.693 156.512 206.112 152.299 206.027 150.944C205.941 149.589 207.045 146.8 207.045 146.8L214.453 144.896C214.453 144.896 216.832 149.312 217.307 150.875C217.781 152.437 216.533 157.739 216.533 157.739L215.28 160.453C215.28 160.453 211.467 163.445 207.941 160.453Z" fill="#99655C"/>
<path d="M206.059 151.755C205.765 151.223 205.504 150.674 205.275 150.112C204.811 148.997 204.235 147.909 205.275 147.285C205.439 147.179 205.623 147.108 205.816 147.078C206.009 147.047 206.206 147.058 206.395 147.109C206.395 147.109 206.235 146.176 206.789 145.824C206.952 145.722 207.136 145.66 207.327 145.643C207.518 145.626 207.711 145.655 207.888 145.728C207.888 145.728 207.712 144.405 208.517 143.845C208.821 143.647 209.174 143.537 209.536 143.527C209.898 143.516 210.256 143.606 210.571 143.787C210.571 143.787 209.931 138.011 209.877 137.701C209.675 136.581 210.091 135.568 211.205 135.861C211.616 135.963 211.845 136.395 212.325 138.277C212.805 140.16 213.579 143.371 213.579 143.371C213.579 143.371 214.88 145.632 215.493 146.859C216.107 148.085 217.323 150.875 217.424 151.616C217.685 153.525 216.565 156.059 216.565 156.059L208.693 156.512C208.693 156.512 206.357 152.304 206.059 151.755Z" fill="#99655C"/>
<path d="M206.549 147.36C206.772 147.628 206.975 147.911 207.157 148.208L207.781 149.157C207.91 149.345 208.022 149.543 208.117 149.749C208.228 149.984 208.261 150.247 208.213 150.501C208.189 150.634 208.129 150.758 208.041 150.86C207.953 150.962 207.84 151.039 207.712 151.083C207.475 151.143 207.224 151.113 207.008 150.997C206.821 150.906 206.642 150.797 206.475 150.672L206.048 150.352C205.792 150.155 205.595 149.984 205.461 149.861C205.328 149.739 205.259 149.664 205.264 149.653C205.269 149.643 205.595 149.888 206.117 150.261C206.416 150.484 206.732 150.684 207.061 150.859C207.244 150.952 207.454 150.977 207.653 150.928C207.753 150.893 207.842 150.831 207.91 150.749C207.977 150.667 208.021 150.569 208.037 150.464C208.08 150.244 208.052 150.016 207.957 149.813C207.869 149.613 207.763 149.42 207.643 149.237L207.061 148.267C206.866 147.979 206.695 147.676 206.549 147.36Z" fill="#744A45"/>
<path d="M213.003 148.048C212.934 147.635 212.963 147.211 213.088 146.811C213.16 146.397 213.328 146.006 213.579 145.669C213.621 145.669 213.403 146.203 213.248 146.848C213.093 147.493 213.051 148.048 213.003 148.048Z" fill="#744A45"/>
<path d="M216.123 149.733C215.398 149.031 214.484 148.555 213.493 148.363C212.504 148.172 211.492 148.132 210.491 148.245C209.691 148.32 208.779 148.523 208.411 149.243C208.259 149.633 208.256 150.066 208.402 150.459C208.547 150.852 208.831 151.178 209.2 151.376C209.946 151.746 210.788 151.875 211.611 151.744C212.428 151.609 213.259 151.575 214.085 151.643" fill="#99655C"/>
<path d="M214.085 151.621C214.085 151.621 213.861 151.621 213.467 151.621C212.901 151.644 212.336 151.697 211.776 151.781C211.385 151.828 210.991 151.844 210.597 151.829C210.136 151.813 209.683 151.698 209.269 151.493C208.807 151.253 208.453 150.845 208.283 150.352C208.194 150.087 208.175 149.804 208.229 149.531C208.293 149.249 208.444 148.995 208.661 148.805C209.097 148.464 209.624 148.258 210.176 148.213C210.672 148.158 211.17 148.127 211.669 148.123C212.521 148.109 213.368 148.239 214.176 148.507C214.718 148.687 215.225 148.96 215.675 149.312C215.796 149.41 215.912 149.515 216.021 149.627C216.059 149.665 216.092 149.706 216.123 149.749C216.123 149.749 215.963 149.6 215.637 149.365C215.181 149.037 214.675 148.783 214.139 148.613C213.34 148.371 212.509 148.258 211.675 148.277C211.181 148.284 210.688 148.316 210.197 148.373C209.681 148.409 209.186 148.594 208.773 148.907C208.581 149.074 208.447 149.298 208.389 149.547C208.341 149.79 208.358 150.042 208.437 150.277C208.59 150.735 208.913 151.117 209.339 151.344C209.732 151.543 210.163 151.656 210.603 151.675C210.99 151.698 211.379 151.689 211.765 151.648C212.33 151.575 212.898 151.538 213.467 151.536C213.62 151.544 213.773 151.56 213.925 151.584C213.98 151.587 214.034 151.6 214.085 151.621Z" fill="#744A45"/>
<path d="M206.608 147.451C207.435 148.709 208.165 150.091 208.864 151.424C209.03 151.832 209.303 152.187 209.653 152.453C209.952 152.635 210.693 152.304 211.024 152.187L208.752 147.013" fill="#99655C"/>
<path d="M208.752 147.013C208.831 147.135 208.899 147.263 208.955 147.397L209.456 148.464C209.877 149.387 210.453 150.672 211.099 152.133L211.136 152.213L211.051 152.245C210.805 152.331 210.517 152.443 210.256 152.517C210.143 152.547 210.026 152.563 209.909 152.565C209.847 152.573 209.785 152.573 209.723 152.565C209.662 152.546 209.604 152.517 209.552 152.48C209.37 152.346 209.214 152.18 209.093 151.989C208.859 151.621 208.693 151.253 208.512 150.923C208.155 150.235 207.824 149.616 207.541 149.104C207.259 148.592 207.008 148.181 206.853 147.899C206.761 147.757 206.679 147.61 206.608 147.456C206.718 147.585 206.818 147.722 206.907 147.867C207.093 148.139 207.349 148.539 207.643 149.045C207.936 149.552 208.283 150.165 208.645 150.853C208.832 151.189 209.008 151.568 209.227 151.92C209.337 152.093 209.48 152.244 209.648 152.363C209.787 152.48 210.011 152.437 210.219 152.389C210.483 152.316 210.743 152.229 210.997 152.128L210.949 152.24C210.309 150.773 209.749 149.477 209.349 148.544C209.163 148.096 209.013 147.723 208.891 147.44C208.831 147.303 208.784 147.16 208.752 147.013Z" fill="#744A45"/>
<path d="M208.139 145.477L210.331 150.976C210.463 151.375 210.664 151.749 210.923 152.08C211.053 152.245 211.221 152.375 211.414 152.459C211.607 152.543 211.817 152.578 212.027 152.56C212.307 152.486 212.554 152.322 212.73 152.092C212.906 151.862 213 151.58 212.997 151.291C212.982 150.711 212.842 150.142 212.587 149.621C211.923 147.949 211.388 146.229 210.987 144.475" fill="#99655C"/>
<path d="M211.013 144.475C211.04 144.529 211.059 144.586 211.072 144.645C211.104 144.773 211.147 144.933 211.2 145.131C211.312 145.552 211.477 146.16 211.733 146.907C211.989 147.653 212.267 148.533 212.64 149.493C212.873 149.991 213.028 150.522 213.099 151.067C213.123 151.366 213.066 151.666 212.933 151.936C212.8 152.228 212.562 152.46 212.267 152.587C212.117 152.641 211.958 152.663 211.8 152.65C211.641 152.637 211.488 152.59 211.349 152.512C211.083 152.367 210.859 152.156 210.699 151.899C210.438 151.42 210.217 150.92 210.037 150.405L209.035 147.851L208.357 146.133C208.288 145.941 208.235 145.787 208.187 145.664C208.164 145.609 208.148 145.552 208.139 145.493C208.172 145.541 208.199 145.593 208.219 145.648L208.421 146.112L209.131 147.819C209.424 148.549 209.776 149.419 210.165 150.363C210.343 150.869 210.562 151.359 210.821 151.829C210.967 152.055 211.169 152.239 211.408 152.363C211.526 152.43 211.657 152.471 211.792 152.483C211.928 152.495 212.064 152.477 212.192 152.432C212.446 152.321 212.649 152.119 212.763 151.867C212.881 151.619 212.935 151.346 212.917 151.072C212.847 150.544 212.698 150.03 212.475 149.547C212.107 148.581 211.819 147.691 211.6 146.939C211.381 146.187 211.232 145.573 211.136 145.147C211.093 144.933 211.056 144.763 211.04 144.651C211.025 144.593 211.016 144.534 211.013 144.475Z" fill="#744A45"/>
<path d="M208.315 158.4C208.315 158.4 203.291 173.2 203.093 173.925C202.896 174.651 204.085 179.941 206.267 181.195C208.448 182.448 212.667 177.232 213.2 175.328C213.733 173.424 213.2 170.176 213.2 170.176L216.587 157.424" fill="#99655C"/>
<path d="M213.205 156.069C213.045 156.091 212.881 156.071 212.731 156.011C212.36 155.893 212.02 155.697 211.733 155.434C211.447 155.171 211.221 154.849 211.072 154.491C211 154.345 210.966 154.184 210.971 154.021C211.157 154.514 211.456 154.955 211.844 155.311C212.233 155.667 212.699 155.926 213.205 156.069Z" fill="#744A45"/>
</svg>
