<svg width="400" height="400" viewBox="0 0 400 400" fill="none" xmlns="http://www.w3.org/2000/svg">
<path d="M77.104 324.4V330.416H122.144V324.4H77.104Z" fill="#DCDCDC"/>
<path d="M83.248 324.64C83.4 324.64 83.528 325.904 83.528 327.464C83.528 329.024 83.4 330.28 83.248 330.28C83.096 330.28 82.96 329.016 82.96 327.464C82.96 325.912 83.088 324.64 83.248 324.64Z" fill="#FAFAFA"/>
<path d="M82.2639 324.52C82.4239 324.52 82.5439 325.784 82.5439 327.336C82.5439 328.888 82.4239 330.16 82.2639 330.16C82.1039 330.16 81.9839 328.896 81.9839 327.336C81.9839 325.776 82.1039 324.52 82.2639 324.52Z" fill="#FAFAFA"/>
<path d="M118.664 324.64C118.824 324.64 118.952 325.904 118.952 327.464C118.952 329.024 118.824 330.28 118.664 330.28C118.504 330.28 118.384 329.016 118.384 327.464C118.384 325.912 118.512 324.64 118.664 324.64Z" fill="#FAFAFA"/>
<path d="M117.688 324.52C117.84 324.52 117.968 325.784 117.968 327.336C117.968 328.888 117.84 330.16 117.688 330.16C117.536 330.16 117.4 328.896 117.4 327.336C117.4 325.776 117.528 324.52 117.688 324.52Z" fill="#FAFAFA"/>
<path d="M111.8 327.584C111.8 327.744 106.64 327.864 100.28 327.864C93.9203 327.864 88.7603 327.744 88.7603 327.584C88.7603 327.424 93.9203 327.304 100.28 327.304C106.64 327.304 111.8 327.424 111.8 327.584Z" fill="#FAFAFA"/>
<path d="M76.9121 351.488V363.52H121.952V351.488H76.9121Z" fill="#DCDCDC"/>
<path d="M122.528 360.136C122.528 360.136 122.456 360.192 122.288 360.272C122.12 360.352 121.872 360.472 121.536 360.616C120.557 361.031 119.531 361.324 118.48 361.488C116.797 361.793 115.06 361.546 113.528 360.784C112.581 360.279 111.773 359.548 111.176 358.656C110.491 357.64 110.206 356.406 110.376 355.192C110.474 354.533 110.751 353.913 111.176 353.4C111.404 353.119 111.693 352.895 112.022 352.745C112.351 352.595 112.711 352.524 113.072 352.536C113.444 352.567 113.806 352.673 114.135 352.849C114.464 353.025 114.753 353.267 114.984 353.56C115.477 354.141 115.781 354.858 115.856 355.616C115.917 356.396 115.811 357.181 115.543 357.917C115.275 358.652 114.853 359.322 114.304 359.88C113.164 361.085 111.627 361.838 109.976 362C108.276 362.163 106.561 361.95 104.952 361.376C103.233 360.838 101.707 359.813 100.56 358.424C99.9685 357.678 99.612 356.773 99.5361 355.824C99.4883 355.331 99.5494 354.833 99.7153 354.365C99.8812 353.898 100.148 353.473 100.496 353.12C100.877 352.754 101.376 352.536 101.904 352.504C102.426 352.49 102.939 352.635 103.376 352.92C104.22 353.473 104.815 354.335 105.032 355.32C105.22 356.282 105.156 357.277 104.845 358.207C104.533 359.136 103.986 359.969 103.256 360.624C101.826 361.831 100.051 362.554 98.1841 362.688C96.4151 362.891 94.623 362.714 92.9281 362.168C91.2644 361.645 89.8446 360.54 88.9281 359.056C88.4724 358.352 88.1898 357.55 88.1036 356.716C88.0174 355.881 88.13 355.039 88.4321 354.256C88.5817 353.864 88.8282 353.516 89.1485 353.244C89.4688 352.973 89.8526 352.787 90.2641 352.704C90.6599 352.633 91.066 352.645 91.4571 352.738C91.8481 352.832 92.2155 353.005 92.5361 353.248C93.0976 353.741 93.4995 354.39 93.6904 355.113C93.8813 355.835 93.8527 356.598 93.6081 357.304C93.1702 358.565 92.3821 359.675 91.3361 360.504C89.6035 361.972 87.4291 362.817 85.1601 362.904C83.779 362.953 82.4031 362.711 81.1214 362.195C79.8397 361.678 78.6809 360.897 77.7201 359.904C77.5277 359.706 77.3461 359.498 77.1761 359.28C77.1161 359.208 77.0625 359.13 77.0161 359.048C77.9671 360.098 79.1034 360.963 80.3681 361.6C81.8583 362.332 83.5099 362.673 85.1681 362.592C87.3571 362.468 89.4438 361.624 91.1041 360.192C92.0786 359.403 92.8107 358.355 93.2161 357.168C93.428 356.55 93.4522 355.883 93.2857 355.25C93.1191 354.618 92.7692 354.05 92.2801 353.616C92.0114 353.416 91.7045 353.273 91.3784 353.196C91.0524 353.119 90.714 353.11 90.3841 353.168C90.0496 353.237 89.7385 353.391 89.4807 353.616C89.2229 353.84 89.0271 354.126 88.9121 354.448C88.6491 355.155 88.5562 355.913 88.641 356.662C88.7258 357.412 88.9858 358.13 89.4001 358.76C90.2591 360.131 91.5822 361.147 93.1281 361.624C94.7498 362.138 96.4624 362.302 98.1521 362.104C99.8987 361.974 101.561 361.3 102.904 360.176C103.563 359.583 104.057 358.828 104.337 357.987C104.618 357.146 104.675 356.246 104.504 355.376C104.324 354.53 103.822 353.787 103.104 353.304C102.78 353.065 102.383 352.946 101.981 352.969C101.579 352.993 101.198 353.157 100.904 353.432C100.613 353.726 100.391 354.081 100.252 354.471C100.114 354.861 100.064 355.276 100.104 355.688C100.171 356.528 100.486 357.33 101.008 357.992C102.086 359.294 103.517 360.258 105.128 360.768C106.664 361.321 108.302 361.531 109.928 361.384C111.45 361.237 112.869 360.55 113.928 359.448C114.433 358.943 114.824 358.335 115.073 357.665C115.323 356.996 115.426 356.281 115.376 355.568C115.349 354.921 115.103 354.302 114.679 353.812C114.255 353.322 113.677 352.991 113.04 352.872C112.744 352.863 112.449 352.921 112.178 353.043C111.908 353.165 111.669 353.348 111.48 353.576C111.09 354.031 110.833 354.585 110.736 355.176C110.572 356.296 110.832 357.437 111.464 358.376C112.019 359.231 112.774 359.936 113.664 360.432C115.142 361.191 116.824 361.457 118.464 361.192C119.502 361.05 120.521 360.795 121.504 360.432C122.176 360.264 122.52 360.112 122.528 360.136Z" fill="#FAFAFA"/>
<path d="M80.936 330.584V351.464H121.952V330.584H80.936Z" fill="#EBEBEB"/>
<path d="M87.7519 331.304C87.9039 331.304 88.0319 335.824 88.0319 341.408C88.0319 346.992 87.9039 351.512 87.7519 351.512C87.5999 351.512 87.4639 346.992 87.4639 341.408C87.4639 335.824 87.5919 331.304 87.7519 331.304Z" fill="#DCDCDC"/>
<path d="M90.8642 331.04C91.0162 331.04 91.1442 335.512 91.1442 341.016C91.1442 346.52 91.0162 350.992 90.8642 350.992C90.7122 350.992 90.5762 346.528 90.5762 341.016C90.5762 335.504 90.7042 331.04 90.8642 331.04Z" fill="#DCDCDC"/>
<path d="M117.32 330.4C117.472 330.4 117.6 335.104 117.6 340.912C117.6 346.72 117.472 351.416 117.32 351.416C117.168 351.416 117.032 346.712 117.032 340.912C117.032 335.112 117.16 330.4 117.32 330.4Z" fill="#DCDCDC"/>
<path d="M113.664 330.656C113.816 330.656 113.944 335.232 113.944 340.888C113.944 346.544 113.816 351.12 113.664 351.12C113.512 351.12 113.376 346.544 113.376 340.888C113.376 335.232 113.504 330.656 113.664 330.656Z" fill="#DCDCDC"/>
<path d="M334.456 285.008C338.712 282.808 343.712 282.528 348.44 283.304C350.976 283.728 353.616 284.48 355.344 286.392C357.072 288.304 357.392 291.648 355.416 293.28C354.232 294.256 352.592 294.408 351.056 294.384C347.36 294.344 343.264 293.696 340.312 295.92C338.624 297.184 337.504 299.296 335.512 299.92C333.52 300.544 331.32 299.368 330.28 297.592C329.319 295.74 329.107 293.589 329.688 291.584C329.923 290.195 330.476 288.879 331.303 287.739C332.13 286.598 333.209 285.664 334.456 285.008Z" fill="#EBEBEB"/>
<path d="M324.712 266.2C327.312 269.912 332.368 268.68 334.712 266.416C337.056 264.152 338.048 260.864 338.944 257.728C341.008 250.576 343.08 243.064 341.552 235.776C341.186 233.566 340.214 231.5 338.744 229.808C338.001 228.974 337.052 228.349 335.992 227.996C334.933 227.642 333.799 227.572 332.704 227.792C330.16 228.472 328.576 230.992 327.432 233.336C324.061 240.347 322.293 248.021 322.256 255.8C322.256 259.416 322.672 263.208 324.712 266.2Z" fill="#EBEBEB"/>
<path d="M317.6 271.528C320.424 268.176 320.96 263.288 319.704 259.096C318.448 254.904 315.608 251.32 312.336 248.408C308.486 244.981 304.005 242.337 299.144 240.624C297.263 239.867 295.241 239.523 293.216 239.616C292.203 239.675 291.221 239.98 290.353 240.506C289.486 241.031 288.76 241.761 288.24 242.632C286.848 245.28 288.184 248.488 289.624 251.112C292.162 255.725 295.056 260.133 298.28 264.296C300.88 267.648 303.88 270.952 307.808 272.464C311.736 273.976 315.88 273.792 317.976 271.048" fill="#EBEBEB"/>
<path d="M324.536 322.216C324.673 321.663 324.754 321.097 324.776 320.528C324.896 319.304 325.04 317.76 325.224 315.928C325.453 313.659 325.798 311.402 326.256 309.168C326.858 306.44 327.679 303.764 328.712 301.168C329.726 298.589 331.096 296.166 332.784 293.968C334.159 292.177 335.917 290.715 337.928 289.688C339.295 289.017 340.758 288.561 342.264 288.336C342.831 288.319 343.395 288.238 343.944 288.096C343.375 288.033 342.801 288.033 342.232 288.096C340.667 288.215 339.136 288.613 337.712 289.272C335.596 290.273 333.74 291.748 332.288 293.584C330.523 295.815 329.1 298.295 328.064 300.944C327.031 303.571 326.228 306.282 325.664 309.048C325.228 311.308 324.926 313.592 324.76 315.888C324.616 317.84 324.56 319.424 324.536 320.52C324.476 321.084 324.476 321.652 324.536 322.216Z" fill="#DCDCDC"/>
<path d="M324.856 318.672C324.904 318.408 324.92 318.14 324.904 317.872C324.904 317.288 324.904 316.544 324.904 315.632C324.904 313.696 324.904 310.88 325 307.408C325.176 300.464 325.8 293.008 326.928 282.448C328.024 272.544 329.488 261.008 331.04 253.512C331.368 251.808 331.704 250.272 332.024 248.928C332.344 247.584 332.576 246.424 332.824 245.488C333.072 244.552 333.208 243.888 333.344 243.312C333.416 243.05 333.464 242.783 333.488 242.512C333.366 242.745 333.274 242.992 333.216 243.248C333.04 243.808 332.824 244.52 332.56 245.392C332.296 246.264 331.976 247.472 331.64 248.816C331.304 250.16 330.92 251.688 330.56 253.392C328.638 262.258 327.194 271.22 326.232 280.24C325.08 290.8 324.56 300.416 324.512 307.376C324.472 310.856 324.512 313.672 324.632 315.616C324.688 316.528 324.736 317.272 324.768 317.856C324.763 318.131 324.793 318.405 324.856 318.672Z" fill="#DCDCDC"/>
<path d="M324.904 300.128C324.965 299.351 324.965 298.57 324.904 297.792C324.816 296.288 324.608 294.112 324.184 291.456C323.674 288.342 322.987 285.26 322.128 282.224C321.119 278.489 319.827 274.835 318.264 271.296C315.587 264.772 311.746 258.789 306.928 253.64C306.088 252.761 305.196 251.932 304.256 251.16C303.848 250.816 303.456 250.472 303.12 250.2L302.088 249.488C301.465 249.013 300.804 248.59 300.112 248.224C300 248.376 302.904 250.08 306.568 253.984C311.229 259.178 314.968 265.131 317.624 271.584C319.152 275.099 320.443 278.712 321.488 282.4C322.504 285.792 323.176 288.912 323.688 291.536C324.2 294.16 324.448 296.336 324.616 297.816C324.65 298.593 324.746 299.366 324.904 300.128Z" fill="#DCDCDC"/>
<path d="M305.736 330.024L307.6 355.48H340.296L342.16 330.024H305.736Z" fill="#EBEBEB"/>
<path d="M346.056 319.992H302.576V330.024H346.056V319.992Z" fill="#EBEBEB"/>
<path d="M302.576 354.504V357.288H304.624H345.344V354.504H302.576Z" fill="#DCDCDC"/>
<path d="M306.624 361.872L304.624 356.984H343.784L341.448 361.872H306.624Z" fill="#DCDCDC"/>
<path d="M341.552 338.344C341.512 338.428 341.461 338.506 341.4 338.576C341.264 338.752 341.104 338.96 340.912 339.224L339 341.664L338.92 341.776L338.84 341.656C337.64 340 336.04 337.792 334.16 335.184H334.4L329.792 341.712L329.648 341.912L329.488 341.72L324.048 335.2H324.36L324.064 335.576L319.2 341.72L319.032 341.928L318.888 341.712C317.224 339.368 315.688 337.168 314.272 335.192H314.544L308.864 341.664L308.768 341.776L308.688 341.648L306.912 338.664C306.72 338.336 306.576 338.072 306.456 337.864C306.397 337.777 306.349 337.683 306.312 337.584C306.386 337.659 306.45 337.742 306.504 337.832L307.008 338.632L308.872 341.568H308.696L314.296 335.016L314.432 334.856L314.56 335.032L319.216 341.528H318.896L323.776 335.392L324.072 335.008L324.232 334.816L324.392 335.008L329.84 341.52H329.536L334.192 335.024L334.328 334.832L334.456 335.024L339.04 341.568H338.872C339.712 340.56 340.368 339.768 340.856 339.168L341.384 338.552C341.48 338.4 341.544 338.336 341.552 338.344Z" fill="#F5F5F5"/>
<path d="M342.616 329.856C342.616 329.968 334.416 330.056 324.312 330.056C314.208 330.056 306.008 329.968 306.008 329.856C306.008 329.744 314.2 329.656 324.312 329.656C334.424 329.656 342.616 329.744 342.616 329.856Z" fill="#F5F5F5"/>
<path d="M156.168 64.6719C156.168 64.6719 156.096 64.6719 155.976 64.6159L155.448 64.4079L153.432 63.5679L146.032 60.3679L121.712 49.7759L120.864 49.3999H121.04L97.2082 59.6319L90.0082 62.6559L88.0402 63.4559C87.816 63.5589 87.5831 63.6419 87.3442 63.7039C87.5566 63.5773 87.7786 63.4676 88.0082 63.3759L89.9442 62.4959L97.1442 59.3359L120.92 49.0239H121.008H121.096L121.944 49.3919L146.216 60.1119L153.552 63.3999L155.536 64.3199L156.048 64.5679C156.092 64.5978 156.132 64.6327 156.168 64.6719Z" fill="#DCDCDC"/>
<path d="M194.104 61.1841H37.8721V178.168H194.104V61.1841Z" fill="#DCDCDC"/>
<path d="M189.232 66.624H43.3359V173.36H189.232V66.624Z" fill="#FAFAFA"/>
<path d="M75.5601 113.256C75.5601 113.256 75.7121 131.168 76.6241 136.64L99.0961 135.576C99.0961 135.576 97.1281 117.976 97.8881 113.256H75.5601Z" fill="#DCDCDC"/>
<path d="M86.6319 115.784H86.9599C87.2727 115.773 87.5859 115.789 87.8959 115.832C88.3883 115.905 88.8678 116.048 89.3199 116.256C89.9185 116.553 90.4474 116.972 90.8719 117.488C91.3937 118.115 91.7633 118.854 91.9519 119.648C92.1277 120.577 92.0475 121.537 91.7199 122.424C91.5525 122.907 91.3409 123.373 91.0879 123.816C90.8194 124.268 90.579 124.735 90.3679 125.216C89.9199 126.236 89.613 127.313 89.4559 128.416V128.488H89.3839H87.1679H84.8399H84.7519V128.408C84.6521 127.31 84.281 126.255 83.6719 125.336C83.3999 124.872 83.1039 124.448 82.8719 124.008C82.5815 123.594 82.3144 123.164 82.0719 122.72C81.6616 121.87 81.538 120.91 81.7199 119.984C81.8505 119.185 82.1476 118.422 82.5919 117.744C82.9713 117.2 83.4691 116.749 84.0479 116.424C84.7625 116.045 85.5461 115.814 86.3519 115.744H86.6719C86.6719 115.744 86.6719 115.744 86.5919 115.744H86.3519C86.0466 115.78 85.7444 115.839 85.4479 115.92C84.9748 116.044 84.5202 116.229 84.0959 116.472C83.5298 116.792 83.0453 117.238 82.6799 117.776C82.2667 118.448 81.9945 119.196 81.8799 119.976C81.7053 120.874 81.829 121.803 82.2319 122.624C82.4769 123.061 82.7439 123.486 83.0319 123.896C83.3119 124.32 83.6079 124.76 83.8799 125.224C84.5114 126.164 84.894 127.248 84.9919 128.376L84.9039 128.288H87.2319H89.4559L89.3679 128.368C89.5279 127.251 89.8401 126.161 90.2959 125.128C90.5155 124.643 90.7612 124.171 91.0319 123.712C91.2804 123.278 91.4892 122.823 91.6559 122.352C91.9798 121.492 92.0654 120.561 91.9039 119.656C91.7215 118.882 91.369 118.157 90.8719 117.536C90.4592 117.027 89.9441 116.61 89.3599 116.312C88.9172 116.098 88.4455 115.95 87.9599 115.872C87.6553 115.825 87.348 115.799 87.0399 115.792H86.7919C86.6639 115.792 86.6319 115.792 86.6319 115.784Z" fill="white"/>
<path d="M87.7839 128.272C87.7823 128.248 87.7823 128.224 87.7839 128.2V127.992C87.7839 127.808 87.7119 127.536 87.6639 127.192C87.5599 126.488 87.4079 125.48 87.3119 124.224C87.3119 123.912 87.2639 123.584 87.2559 123.24C87.2358 122.88 87.2358 122.52 87.2559 122.16C87.2646 121.774 87.3488 121.394 87.5039 121.04C87.6768 120.658 87.9844 120.353 88.3679 120.184C88.5722 120.098 88.7972 120.075 89.0149 120.116C89.2325 120.157 89.4332 120.262 89.5919 120.416C89.6764 120.494 89.743 120.59 89.7872 120.696C89.8314 120.802 89.8521 120.917 89.8479 121.032C89.8433 121.264 89.7649 121.488 89.6239 121.672C89.4793 121.859 89.293 122.01 89.0799 122.112C88.8685 122.212 88.6454 122.284 88.4159 122.328C87.4787 122.52 86.5159 122.552 85.5679 122.424C85.3334 122.392 85.1045 122.328 84.8879 122.232C84.6766 122.137 84.4863 122.001 84.3279 121.832C84.1656 121.663 84.0522 121.453 83.9999 121.224C83.9496 121 83.9778 120.766 84.0799 120.56C84.1726 120.353 84.3417 120.19 84.5519 120.104C84.6517 120.061 84.7593 120.039 84.8679 120.039C84.9766 120.039 85.0841 120.061 85.1839 120.104C85.3771 120.192 85.5429 120.33 85.6639 120.504C85.7766 120.675 85.8579 120.865 85.9039 121.064C85.9717 121.445 86.0092 121.83 86.0159 122.216L86.1279 124.272C86.1839 125.528 86.2399 126.544 86.2719 127.256C86.2719 127.6 86.2719 127.872 86.2719 128.056V128.336C86.2737 128.312 86.2737 128.288 86.2719 128.264C86.2719 128.216 86.2719 128.144 86.2719 128.056C86.2719 127.968 86.2719 127.592 86.2239 127.256C86.2239 126.544 86.1199 125.528 86.0479 124.272C86.0479 123.648 85.9759 122.96 85.9359 122.216C85.9308 121.835 85.8906 121.454 85.8159 121.08C85.7768 120.889 85.7007 120.707 85.5919 120.544C85.4732 120.381 85.3167 120.249 85.1359 120.16C85.0436 120.121 84.9443 120.1 84.8439 120.1C84.7436 120.1 84.6442 120.121 84.5519 120.16C84.3572 120.241 84.2002 120.393 84.1119 120.584C84.0198 120.779 83.9945 120.998 84.0399 121.208C84.0938 121.421 84.2012 121.616 84.3519 121.776C84.6766 122.096 85.0989 122.299 85.5519 122.352C86.0212 122.414 86.495 122.435 86.9679 122.416C87.441 122.404 87.9121 122.35 88.3759 122.256C88.6006 122.213 88.8185 122.141 89.0239 122.04C89.2266 121.943 89.4044 121.8 89.5439 121.624C89.676 121.451 89.7515 121.242 89.7599 121.024C89.7595 120.918 89.738 120.814 89.6968 120.716C89.6556 120.619 89.5955 120.53 89.5199 120.456C89.3694 120.313 89.1809 120.215 88.9767 120.175C88.7725 120.136 88.5613 120.155 88.3679 120.232C88.0127 120.392 87.7283 120.677 87.5679 121.032C87.4158 121.381 87.3316 121.756 87.3199 122.136C87.3199 122.504 87.3199 122.856 87.3199 123.2C87.3199 123.544 87.3199 123.872 87.3759 124.192C87.4719 125.448 87.6159 126.456 87.7039 127.152C87.7519 127.504 87.7919 127.768 87.8159 127.952V128.16C87.8097 128.199 87.799 128.236 87.7839 128.272Z" fill="white"/>
<path d="M84.8003 128.392C84.8368 128.639 84.8581 128.887 84.8643 129.136C84.8643 129.67 84.8963 130.318 84.9603 131.08V131.032L86.4803 132.8H86.4003L88.1523 132.704H88.0803L88.9443 131.648L89.3843 131.112V131.184C89.3843 130.152 89.3363 129.184 89.3203 128.304L89.4163 128.392H86.1443H84.8003C84.9038 128.378 85.0088 128.378 85.1123 128.392L86.0323 128.344L89.3603 128.216H89.4563V128.312C89.4563 129.2 89.5123 130.168 89.5443 131.192V131.2C89.4003 131.376 89.2563 131.56 89.1043 131.736L88.2323 132.8H88.1843L86.4323 132.888H86.4003L84.9123 131.12C84.9123 130.32 84.9123 129.68 84.9123 129.12C84.8606 128.88 84.8232 128.637 84.8003 128.392Z" fill="white"/>
<path d="M89.3439 130.92C89.3439 130.92 89.2799 130.92 89.1759 130.848C89.0271 130.782 88.8749 130.723 88.7199 130.672C88.2063 130.493 87.6636 130.411 87.1199 130.432C86.5704 130.444 86.0279 130.558 85.5199 130.768L85.0799 130.976L84.9199 131.056C84.9612 131.013 85.01 130.978 85.0639 130.952C85.2057 130.866 85.3527 130.789 85.5039 130.72C86.0084 130.496 86.5521 130.374 87.1039 130.36C87.6496 130.34 88.1937 130.43 88.7039 130.624C88.8581 130.679 89.0079 130.746 89.1519 130.824L89.3439 130.92Z" fill="white"/>
<path d="M89.3359 130.224L89.1759 130.152L88.7199 129.968C88.2051 129.793 87.6633 129.712 87.1199 129.728C86.5713 129.748 86.0301 129.861 85.5199 130.064C85.3279 130.144 85.1839 130.216 85.0799 130.272L84.9199 130.352L85.0639 130.248C85.2044 130.162 85.3516 130.087 85.5039 130.024C86.0078 129.797 86.5515 129.672 87.1039 129.656C87.649 129.644 88.1916 129.733 88.7039 129.92C88.8959 130 89.0479 130.072 89.1519 130.128C89.2559 130.184 89.3439 130.216 89.3359 130.224Z" fill="white"/>
<path d="M89.2959 129.552L89.1359 129.488C89.0239 129.44 88.8719 129.368 88.6799 129.304C88.165 129.13 87.6232 129.049 87.0799 129.064C86.5302 129.075 85.9875 129.189 85.4799 129.4C85.2879 129.48 85.1439 129.552 85.0399 129.608L84.8799 129.688L85.0239 129.584C85.1647 129.496 85.3118 129.419 85.4639 129.352C85.9697 129.132 86.5126 129.01 87.0639 128.992C87.6089 128.981 88.1514 129.07 88.6639 129.256C88.8179 129.315 88.9676 129.385 89.1119 129.464C89.1784 129.481 89.241 129.511 89.2959 129.552Z" fill="white"/>
<path d="M50.5361 84C50.5361 84 50.6881 101.92 51.6001 107.384L74.0721 106.32C74.0721 106.32 72.0961 88.72 72.8561 84H50.5361Z" fill="#EBEBEB"/>
<path d="M69.4723 91.4879C66.978 91.8572 64.4645 92.0816 61.9443 92.1599C59.4314 92.3916 56.9067 92.4691 54.3843 92.3919C56.8791 92.0275 59.3924 91.8031 61.9123 91.7199C64.4258 91.4979 66.9499 91.4204 69.4723 91.4879Z" fill="white"/>
<path d="M69.4721 95.2802C66.9784 95.6558 64.4647 95.8828 61.9441 95.9602C59.4333 96.1823 56.9118 96.2597 54.3921 96.1922C56.8863 95.8224 59.3999 95.598 61.9201 95.5202C64.4306 95.2934 66.9522 95.2132 69.4721 95.2802Z" fill="white"/>
<path d="M65.656 99.0082C64.2464 99.3122 62.8098 99.473 61.368 99.4882C59.937 99.6338 58.4949 99.6338 57.064 99.4882C58.4708 99.1845 59.9048 99.0237 61.344 99.0082C62.7776 98.8625 64.2223 98.8625 65.656 99.0082Z" fill="white"/>
<path d="M49.4722 136.68C49.4722 136.68 49.6242 154.592 50.5362 160.064L73.0082 159C73.0082 159 71.0322 141.4 71.7922 136.68H49.4722Z" fill="#EBEBEB"/>
<path d="M68.4081 144.2C65.9143 144.575 63.4006 144.802 60.8801 144.88C58.3693 145.102 55.8478 145.18 53.3281 145.112C55.8196 144.742 58.3305 144.518 60.8481 144.44C63.3613 144.213 65.8856 144.133 68.4081 144.2Z" fill="white"/>
<path d="M68.4081 148C65.914 148.37 63.4004 148.595 60.8801 148.672C58.3693 148.894 55.8478 148.972 53.3281 148.904C55.8223 148.534 58.3359 148.31 60.8561 148.232C63.3669 148.01 65.8884 147.933 68.4081 148Z" fill="white"/>
<path d="M64.592 151.728C63.1852 152.031 61.751 152.19 60.312 152.2C58.8797 152.359 57.435 152.373 56 152.24C57.4069 151.936 58.8408 151.776 60.28 151.76C61.7124 151.601 63.1574 151.59 64.592 151.728Z" fill="white"/>
<path d="M110.888 88.7119L113.112 140.392L177.624 141.168L174.728 89.3919L110.888 88.7119Z" fill="#EBEBEB"/>
<path d="M174.224 88.3442H110.136V136.736H174.224V88.3442Z" fill="#F5F5F5"/>
<path d="M174.224 136.736C174.224 136.736 174.224 136.424 174.224 135.832C174.224 135.24 174.224 134.376 174.224 133.256C174.224 130.984 174.224 127.656 174.176 123.464C174.176 115.024 174.12 102.952 174.08 88.344L174.264 88.52H110.184L110.408 88.304C110.408 105.704 110.408 122.184 110.408 136.696L110.208 136.496L156.432 136.592L169.584 136.648H173.08H173.984H174.296H173.12L169.6 136.8L156.504 136.856L110.104 136.952H109.904V136.76C109.904 122.248 109.904 105.768 109.904 88.368V88.144H110.128H174.208H174.4V88.328C174.4 102.976 174.328 115.096 174.304 123.528C174.304 127.728 174.304 131.016 174.256 133.28C174.256 134.384 174.256 135.232 174.256 135.824C174.24 136.448 174.224 136.736 174.224 136.736Z" fill="#DCDCDC"/>
<path d="M143.848 98.5923H117.872V131.288H143.848V98.5923Z" fill="#F5F5F5"/>
<path d="M143.848 131.288C143.839 131.232 143.839 131.176 143.848 131.12V130.656C143.848 130.224 143.848 129.632 143.848 128.872C143.848 127.272 143.848 125.024 143.8 122.16C143.8 116.408 143.736 108.264 143.696 98.592L143.896 98.792H117.92C117.864 98.792 118.336 98.376 118.136 98.576V107.464C118.136 110.368 118.136 113.2 118.136 115.944C118.136 121.44 118.136 126.584 118.136 131.256L117.96 131.072L136.768 131.168L142.04 131.216H143.44H143.936C143.784 131.227 143.632 131.227 143.48 131.216H142.12L136.88 131.264L117.96 131.36H117.776V131.176C117.776 126.504 117.776 121.36 117.776 115.864C117.776 113.12 117.776 110.264 117.776 107.384V98.608C117.576 98.8 118.04 98.328 118 98.384H143.976H144.176V98.584C144.136 108.304 144.096 116.496 144.072 122.28L144.024 128.944C144.024 129.691 144.024 130.275 144.024 130.696C144.024 130.872 144.024 131.016 144.024 131.136C143.971 131.193 143.912 131.245 143.848 131.288Z" fill="#DCDCDC"/>
<path d="M168.648 91.1123H118.864V95.8243H168.648V91.1123Z" fill="#F5F5F5"/>
<path d="M168.648 95.8239C168.648 95.8239 168.648 95.7039 168.648 95.5039C168.648 95.3039 168.648 94.968 168.648 94.584C168.648 93.784 168.648 92.608 168.592 91.112L168.68 91.2C160.288 91.28 141.152 91.3359 118.896 91.3359C119.336 90.8879 119.016 91.208 119.12 91.112V95.808L118.904 95.584L154.192 95.6799L164.784 95.744H167.664H168.424C168.512 95.7374 168.6 95.7374 168.688 95.744H168.456H167.728H164.896L154.352 95.8159L118.904 95.9039H118.688V95.688C118.688 94.936 118.688 94.16 118.688 93.376V90.976L118.912 90.752C141.168 90.752 160.304 90.808 168.696 90.888H168.792V90.976C168.792 92.488 168.792 93.6719 168.744 94.5039C168.744 94.8799 168.744 95.1679 168.744 95.3919C168.737 95.5405 168.705 95.6867 168.648 95.8239Z" fill="#DCDCDC"/>
<path d="M168.648 98.5923H147.024V118.296H168.648V98.5923Z" fill="#F5F5F5"/>
<path d="M168.648 118.296C168.648 118.296 168.648 118.16 168.648 117.92V116.848C168.648 115.888 168.648 114.536 168.6 112.848C168.6 109.376 168.544 104.488 168.504 98.6082L168.688 98.8002H147.088L147.304 98.5842V103.872C147.304 105.6 147.304 107.296 147.304 108.952C147.304 112.256 147.304 115.352 147.304 118.28L147.104 118.088L162.704 118.184L167.128 118.24H168.312C168.451 118.229 168.59 118.229 168.728 118.24C168.603 118.252 168.477 118.252 168.352 118.24H167.208L162.832 118.288L147.104 118.384H146.912V118.184C146.912 115.296 146.912 112.16 146.912 108.856C146.912 107.2 146.912 105.504 146.912 103.776V98.4882C146.712 98.6802 147.176 98.2162 147.136 98.2642H168.736H168.928V98.4482C168.888 104.376 168.856 109.312 168.832 112.848C168.832 114.528 168.792 115.864 168.784 116.848C168.784 117.27 168.784 117.614 168.784 117.88C168.758 118.024 168.712 118.164 168.648 118.296Z" fill="#DCDCDC"/>
<path d="M168.648 121.384H147.024V131.288H168.648V121.384Z" fill="#F5F5F5"/>
<path d="M168.648 131.288C168.648 131.288 168.648 131.032 168.648 130.568L168.608 128.584C168.608 126.832 168.56 124.392 168.52 121.384L168.68 121.544L147.08 121.608C146.88 121.808 147.344 121.336 147.296 121.392V126.488C147.296 128.144 147.296 129.752 147.296 131.288L147.08 131.08L162.544 131.176L167.056 131.24H168.272H168.704C168.576 131.252 168.448 131.252 168.32 131.24H167.144L162.688 131.304L147.08 131.4H146.872V131.192C146.872 129.656 146.872 128.048 146.872 126.392V121.296C146.824 121.296 147.288 120.872 147.096 121.072L168.696 121.128H168.8V121.288C168.8 124.336 168.736 126.816 168.72 128.584C168.72 129.384 168.72 130.048 168.72 130.536C168.72 130.789 168.696 131.04 168.648 131.288Z" fill="#DCDCDC"/>
<path d="M143.2 98.6479C135.152 109.76 125.904 120.176 117.864 131.288L143.2 98.6479Z" fill="white"/>
<path d="M117.872 131.288C117.872 131.288 117.928 131.152 118.08 130.92L118.76 129.928C119.352 129.064 120.24 127.84 121.36 126.344C123.592 123.336 126.784 119.272 130.368 114.832C133.952 110.392 137.176 106.36 139.464 103.408L142.176 99.9119L142.92 98.9599C143.096 98.7519 143.192 98.6399 143.208 98.6479C143.15 98.7782 143.078 98.9017 142.992 99.0159L142.312 100.008C141.72 100.872 140.832 102.096 139.712 103.6C137.48 106.6 134.288 110.664 130.704 115.104C127.12 119.544 123.904 123.576 121.608 126.528L118.896 130.032L118.152 130.976C118.071 131.09 117.977 131.195 117.872 131.288Z" fill="#DCDCDC"/>
<path d="M143.848 131.288C143.752 131.36 137.856 124.088 130.688 115.08C123.52 106.072 117.776 98.672 117.888 98.592C118 98.512 123.872 105.792 131.048 114.808C138.224 123.824 143.944 131.2 143.848 131.288Z" fill="#DCDCDC"/>
<path d="M113.112 98.6641C113.112 99.4679 112.874 100.254 112.427 100.922C111.98 101.59 111.346 102.111 110.603 102.419C109.861 102.726 109.043 102.807 108.255 102.65C107.467 102.493 106.743 102.106 106.174 101.538C105.606 100.969 105.219 100.245 105.062 99.4569C104.905 98.6686 104.986 97.8515 105.293 97.1089C105.601 96.3663 106.122 95.7316 106.79 95.285C107.458 94.8384 108.244 94.6001 109.048 94.6001C110.125 94.6022 111.158 95.0311 111.919 95.7927C112.681 96.5544 113.11 97.5869 113.112 98.6641Z" fill="#DCDCDC"/>
<path d="M179.584 88.8003C179.584 89.6041 179.346 90.3898 178.899 91.0582C178.453 91.7265 177.818 92.2474 177.075 92.555C176.333 92.8626 175.516 92.9431 174.727 92.7862C173.939 92.6294 173.215 92.2424 172.646 91.674C172.078 91.1057 171.691 90.3815 171.534 89.5932C171.377 88.8048 171.458 87.9877 171.765 87.2451C172.073 86.5025 172.594 85.8678 173.262 85.4212C173.931 84.9747 174.716 84.7363 175.52 84.7363C176.597 84.7384 177.63 85.1673 178.391 85.929C179.153 86.6907 179.582 87.7231 179.584 88.8003Z" fill="#DCDCDC"/>
<path d="M338.56 117.104H291.728V184.992H338.56V117.104Z" fill="#DCDCDC"/>
<path d="M336.216 117.104H289.384V184.992H336.216V117.104Z" fill="#F5F5F5"/>
<path d="M330.4 124.456H295.2V177.64H330.4V124.456Z" fill="white"/>
<path d="M330.4 177.64C330.4 177.64 330.4 177.544 330.4 177.376C330.4 177.208 330.4 176.952 330.4 176.624C330.4 175.952 330.4 174.976 330.4 173.704C330.4 171.16 330.4 167.44 330.4 162.752C330.4 153.376 330.4 140.096 330.344 124.456L330.464 124.576H295.2L295.328 124.448C295.328 144.512 295.328 163.008 295.328 177.632L295.224 177.528L320.824 177.584H327.904H329.76H330.408H329.784H327.944H320.888L295.208 177.632H295.104V177.536C295.104 162.912 295.104 144.416 295.104 124.352V124.224H295.2H330.4H330.512V124.336C330.512 140.008 330.472 153.312 330.456 162.736C330.456 167.416 330.456 171.12 330.456 173.664C330.456 174.92 330.456 175.888 330.456 176.552C330.456 176.88 330.456 177.12 330.456 177.296L330.4 177.64Z" fill="#DCDCDC"/>
<path d="M336.344 117.104C336.118 117.535 335.85 117.942 335.544 118.32C335 119.048 334.224 120.032 333.344 121.104C332.464 122.176 331.64 123.12 331.032 123.8C330.721 124.181 330.376 124.532 330 124.848C330.267 124.435 330.567 124.045 330.896 123.68L333.152 120.944L335.4 118.208C335.687 117.817 336.003 117.448 336.344 117.104Z" fill="#DCDCDC"/>
<path d="M330.576 177.464C332.324 180.248 334.382 182.825 336.712 185.144L330.576 177.464Z" fill="white"/>
<path d="M336.712 185.144C336.323 184.859 335.966 184.531 335.648 184.168C334.83 183.339 334.056 182.469 333.328 181.56C332.601 180.651 331.92 179.706 331.288 178.728C331.007 178.333 330.768 177.909 330.576 177.464C330.891 177.83 331.179 178.218 331.44 178.624C331.952 179.352 332.68 180.336 333.528 181.4C334.376 182.464 335.184 183.384 335.776 184.048C336.116 184.388 336.429 184.755 336.712 185.144Z" fill="#DCDCDC"/>
<path d="M289.376 184.936L295.512 177.368L289.376 184.936Z" fill="white"/>
<path d="M295.512 177.368C295.56 177.368 294.232 179.144 292.544 181.232C291.544 182.522 290.476 183.759 289.344 184.936C291.256 182.308 293.304 179.782 295.48 177.368H295.512Z" fill="#DCDCDC"/>
<path d="M289.384 117.104C290.435 118.24 291.429 119.428 292.36 120.664C293.354 121.852 294.28 123.094 295.136 124.384C294.082 123.243 293.088 122.046 292.16 120.8C291.165 119.622 290.238 118.388 289.384 117.104Z" fill="#DCDCDC"/>
<path d="M319.432 135.256H307.648V168.72H319.432V135.256Z" fill="#DCDCDC"/>
<path d="M327.767 44.9696L321.063 45.0059L321.243 78.3654L327.947 78.3291L327.767 44.9696Z" fill="#DCDCDC"/>
<path d="M280.344 45.0584L262.984 45.1523L263.084 63.5681L280.444 63.4741L280.344 45.0584Z" fill="#EBEBEB"/>
<path d="M297.616 44.973L280.256 45.0669L280.355 63.4826L297.715 63.3887L297.616 44.973Z" fill="#F5F5F5"/>
<path d="M263.008 50.2561C274.544 50.3521 286.112 50.2561 297.648 50.0961C297.697 50.0961 297.744 50.0767 297.778 50.0422C297.813 50.0077 297.832 49.9609 297.832 49.9121C297.832 49.8633 297.813 49.8165 297.778 49.782C297.744 49.7475 297.697 49.7281 297.648 49.7281C286.101 49.6641 274.555 49.7335 263.008 49.9361C262.966 49.9361 262.925 49.953 262.895 49.983C262.865 50.013 262.848 50.0537 262.848 50.0961C262.848 50.1386 262.865 50.1792 262.895 50.2093C262.925 50.2393 262.966 50.2561 263.008 50.2561Z" fill="#DCDCDC"/>
<path d="M283.698 63.176L252.155 63.3467L252.236 78.3545L283.78 78.1838L283.698 63.176Z" fill="#EBEBEB"/>
<path d="M315.097 63.0061L283.553 63.1768L283.634 78.1845L315.178 78.0139L315.097 63.0061Z" fill="#F5F5F5"/>
<path d="M252.176 67.528C273.136 67.768 294.16 67.528 315.112 67.216C315.161 67.216 315.208 67.1966 315.242 67.1621C315.277 67.1276 315.296 67.0808 315.296 67.032C315.296 66.9832 315.277 66.9364 315.242 66.9019C315.208 66.8674 315.161 66.848 315.112 66.848C294.152 66.736 273.128 66.752 252.176 67.208C252.134 67.208 252.093 67.2249 252.063 67.2549C252.033 67.2849 252.016 67.3256 252.016 67.368C252.016 67.4105 252.033 67.4512 252.063 67.4812C252.093 67.5112 252.134 67.528 252.176 67.528Z" fill="#DCDCDC"/>
<path d="M362.592 78.3599H240.384V83.7359H362.592V78.3599Z" fill="#DCDCDC"/>
<path d="M265.352 80.9443H260.392V99.2883H265.352V80.9443Z" fill="#DCDCDC"/>
<path d="M339.408 80.9443H334.448V99.2883H339.408V80.9443Z" fill="#DCDCDC"/>
<path d="M334.307 32.534L327.604 32.5703L327.852 78.4496L334.556 78.4134L334.307 32.534Z" fill="#EBEBEB"/>
<path d="M344.785 41.0774L334.37 41.1338L334.571 78.3172L344.987 78.2609L344.785 41.0774Z" fill="#F5F5F5"/>
<path d="M344.712 48.2482C341.25 48.4928 337.774 48.4928 334.312 48.2482C337.775 48.0143 341.249 48.0143 344.712 48.2482Z" fill="#DCDCDC"/>
<path d="M344.712 46.6882C341.25 46.9327 337.774 46.9327 334.312 46.6882C337.775 46.4542 341.249 46.4542 344.712 46.6882Z" fill="#DCDCDC"/>
<path d="M344.712 72.672C341.25 72.9166 337.774 72.9166 334.312 72.672C337.775 72.4381 341.249 72.4381 344.712 72.672Z" fill="#DCDCDC"/>
<path d="M344.712 71.112C341.25 71.3565 337.774 71.3565 334.312 71.112C337.775 70.878 341.249 70.878 344.712 71.112Z" fill="#DCDCDC"/>
<path d="M339.672 67.7041C339.568 67.7041 339.488 63.9522 339.488 59.3282C339.488 54.7042 339.568 50.9521 339.672 50.9521C339.776 50.9521 339.848 54.7042 339.848 59.3282C339.848 63.9522 339.768 67.7041 339.672 67.7041Z" fill="#DCDCDC"/>
<path d="M356.16 50.2163H344.824V78.2803H356.16V50.2163Z" fill="#EBEBEB"/>
<path d="M350.816 71.008C350.478 71.0277 350.141 70.9758 349.825 70.8558C349.509 70.7358 349.221 70.5504 348.982 70.3118C348.743 70.0731 348.556 69.7866 348.435 69.4709C348.314 69.1552 348.261 68.8175 348.28 68.48C348.262 68.1121 348.336 67.7455 348.497 67.4142C348.658 67.0828 348.9 66.7973 349.2 66.584L349.456 66.944C349.216 67.1194 349.022 67.3513 348.892 67.6191C348.763 67.887 348.701 68.1826 348.712 68.48C348.712 69.038 348.934 69.5732 349.328 69.9677C349.723 70.3623 350.258 70.584 350.816 70.584C351.374 70.584 351.909 70.3623 352.304 69.9677C352.698 69.5732 352.92 69.038 352.92 68.48C352.932 68.1817 352.869 67.8851 352.738 67.617C352.607 67.3488 352.411 67.1176 352.168 66.944L352.432 66.584C352.729 66.8002 352.967 67.0865 353.126 67.4173C353.286 67.7481 353.36 68.1132 353.344 68.48C353.362 68.8168 353.31 69.1538 353.189 69.4689C353.069 69.784 352.883 70.0701 352.645 70.3086C352.406 70.5472 352.12 70.7328 351.805 70.8533C351.49 70.9738 351.153 71.0265 350.816 71.008Z" fill="#FAFAFA"/>
<path d="M352.704 65.8879L352.328 65.6719C352.721 65.1546 352.932 64.5217 352.928 63.8719C352.928 62.8239 352.552 62.3999 351.992 62.3999C350.536 62.3999 351.608 65.7119 349.648 65.7119C348.896 65.7119 348.28 65.0799 348.28 63.8159C348.27 63.2096 348.44 62.6139 348.768 62.1039L349.152 62.3279C348.851 62.7678 348.694 63.2908 348.704 63.8239C348.704 64.7999 349.104 65.2319 349.64 65.2319C351.136 65.2319 350.08 61.9199 351.984 61.9199C352.784 61.9199 353.344 62.6239 353.344 63.8959C353.368 64.6141 353.142 65.3183 352.704 65.8879Z" fill="#FAFAFA"/>
<path d="M352.704 61.3201L352.328 61.104C352.721 60.5867 352.932 59.9538 352.928 59.304C352.928 58.256 352.552 57.832 351.992 57.832C350.536 57.832 351.608 61.136 349.648 61.136C348.896 61.136 348.28 60.512 348.28 59.248C348.27 58.6417 348.44 58.046 348.768 57.536L349.152 57.7521C348.852 58.1953 348.695 58.7205 348.704 59.256C348.704 60.232 349.104 60.6641 349.64 60.6641C351.136 60.6641 350.08 57.3521 351.984 57.3521C352.784 57.3521 353.344 58.0481 353.344 59.3201C353.37 60.0408 353.143 60.748 352.704 61.3201Z" fill="#FAFAFA"/>
<path d="M330.856 42.3121C331.921 42.3121 332.784 41.4489 332.784 40.3841C332.784 39.3192 331.921 38.4561 330.856 38.4561C329.791 38.4561 328.928 39.3192 328.928 40.3841C328.928 41.4489 329.791 42.3121 330.856 42.3121Z" fill="#DCDCDC"/>
<path d="M331.448 45.6802H330.256V72.9762H331.448V45.6802Z" fill="#DCDCDC"/>
<path d="M376.648 363.2C376.648 363.312 299.376 363.408 204.08 363.408C108.784 363.408 31.4961 363.328 31.4961 363.2C31.4961 363.072 108.752 362.992 204.08 362.992C299.408 362.992 376.648 363.104 376.648 363.2Z" fill="#263238"/>
<path d="M124.944 88.1916C112.104 108.384 112.944 136.384 126.976 155.768C136.328 168.696 150.352 177.368 161.488 188.776C172.624 200.184 181.088 217.024 175.208 231.856C169.224 246.952 151.696 253.088 138.576 262.656C124.1 273.199 114.273 288.941 111.158 306.576C108.044 324.211 111.884 342.368 121.872 357.232H258.208C258.208 357.232 282.16 311.592 251.368 276.8C220.576 242.008 204.04 241.448 205.176 218.632C206.312 195.816 222.28 188.416 231.408 179.856C240.536 171.296 285.008 151.352 258.776 88.1836L124.944 88.1916Z" fill="#FAFAFA"/>
<path d="M124.944 88.1916H127.288H134.2H160.808L258.776 88.1196H258.88V88.2156C260.888 92.9985 262.598 97.9013 264 102.896C265.472 108.125 266.442 113.482 266.896 118.896C267.368 124.554 267.077 130.25 266.032 135.832C264.884 141.617 262.803 147.177 259.872 152.296C258.353 154.906 256.636 157.396 254.736 159.744C252.797 162.123 250.698 164.368 248.456 166.464C246.185 168.598 243.806 170.614 241.328 172.504C238.848 174.424 236.256 176.232 233.728 178.152C232.464 179.104 231.328 180.176 230.096 181.248C228.864 182.32 227.64 183.32 226.376 184.328C223.856 186.344 221.312 188.328 218.912 190.56C213.903 194.901 210.054 200.422 207.712 206.624C206.587 209.804 205.877 213.117 205.6 216.48C205.528 217.28 205.416 218.16 205.384 219.008C205.352 219.856 205.32 220.704 205.384 221.552C205.402 223.254 205.574 224.952 205.896 226.624C206.53 230.011 207.913 233.215 209.944 236C212.034 238.784 214.4 241.349 217.008 243.656C222.184 248.384 227.68 252.904 232.936 257.784C238.192 262.664 243.336 267.752 248.296 273.136C250.827 275.801 253.194 278.616 255.384 281.568C257.587 284.556 259.503 287.746 261.104 291.096C264.342 297.885 266.331 305.202 266.976 312.696C267.628 320.293 267.181 327.946 265.648 335.416C264.903 339.19 263.925 342.914 262.72 346.568C261.536 350.252 260.092 353.847 258.4 357.328L258.344 357.44H121.76L121.704 357.352C115.31 347.725 111.389 336.671 110.288 325.168C109.18 314.118 110.8 302.965 115.008 292.688C119.007 282.864 125.164 274.065 133.024 266.944C136.838 263.577 140.957 260.572 145.328 257.968C149.584 255.328 153.88 252.88 157.936 250.208C161.996 247.67 165.726 244.639 169.04 241.184C172.205 237.791 174.553 233.719 175.904 229.28C177.088 224.948 177.274 220.405 176.448 215.992C175.659 211.732 174.238 207.615 172.232 203.776C170.314 200.079 168.013 196.593 165.368 193.376C162.815 190.289 160.039 187.393 157.064 184.712C151.296 179.4 145.384 174.752 140.072 169.976C137.408 167.576 134.888 165.176 132.56 162.72C130.304 160.315 128.224 157.751 126.336 155.048C122.924 150.089 120.293 144.637 118.536 138.88C116.997 133.908 116.104 128.759 115.88 123.56C115.768 122.376 115.816 121.208 115.816 120.064C115.816 118.92 115.816 117.808 115.92 116.728C116.024 115.648 116.08 114.592 116.16 113.528C116.24 112.464 116.456 111.512 116.592 110.544C117.476 104.651 119.279 98.9332 121.936 93.5996C122.296 92.7745 122.707 91.973 123.168 91.1996L124.152 89.5276C124.672 88.6396 124.952 88.1916 124.952 88.1916L124.152 89.5516L123.2 91.1996C122.75 91.9764 122.344 92.7776 121.984 93.5996C119.351 98.9462 117.57 104.671 116.704 110.568C116.568 111.528 116.408 112.52 116.288 113.536C116.168 114.552 116.128 115.616 116.048 116.696C115.968 117.776 115.968 118.888 115.96 120.024C115.952 121.16 115.92 122.328 116.032 123.512C116.263 128.694 117.164 133.824 118.712 138.776C120.467 144.512 123.095 149.944 126.504 154.88C128.387 157.572 130.464 160.123 132.72 162.512C135.04 164.976 137.56 167.376 140.224 169.712C145.536 174.512 151.424 179.112 157.232 184.432C160.231 187.133 163.027 190.05 165.6 193.16C168.26 196.4 170.574 199.91 172.504 203.632C174.529 207.495 175.963 211.639 176.76 215.928C177.598 220.388 177.412 224.981 176.216 229.36C174.859 233.85 172.489 237.97 169.288 241.4C165.957 244.875 162.212 247.927 158.136 250.488C154.064 253.168 149.768 255.616 145.52 258.256C141.168 260.853 137.065 263.847 133.264 267.2C125.452 274.285 119.331 283.033 115.352 292.8C111.17 303.025 109.563 314.12 110.672 325.112C111.774 336.549 115.675 347.54 122.032 357.112L121.872 357.024H258.208L258.024 357.136C259.713 353.664 261.152 350.077 262.328 346.4C263.527 342.762 264.499 339.053 265.24 335.296C266.766 327.863 267.211 320.248 266.56 312.688C265.927 305.235 263.951 297.957 260.728 291.208C259.138 287.882 257.239 284.714 255.056 281.744C252.871 278.808 250.515 276.003 248 273.344C243.067 267.973 237.955 262.864 232.664 258.016C227.416 253.144 221.936 248.632 216.744 243.88C214.116 241.554 211.728 238.97 209.616 236.168C207.546 233.349 206.127 230.105 205.464 226.672C205.144 224.975 204.97 223.254 204.944 221.528C204.904 220.672 204.944 219.816 204.944 218.96C204.944 218.104 205.088 217.256 205.152 216.408C205.446 213.025 206.172 209.694 207.312 206.496C209.674 200.239 213.559 194.671 218.616 190.296C221.016 188.072 223.584 186.056 226.104 184.048C227.368 183.04 228.608 182.024 229.816 180.984C231.024 179.944 232.216 178.824 233.464 177.864C236.008 175.944 238.592 174.136 241.064 172.224C243.534 170.342 245.908 168.337 248.176 166.216C250.404 164.129 252.491 161.898 254.424 159.536C256.309 157.196 258.018 154.72 259.536 152.128C262.451 147.045 264.52 141.522 265.664 135.776C266.704 130.24 266.998 124.589 266.536 118.976C266.089 113.563 265.127 108.206 263.664 102.976C262.281 97.9675 260.593 93.0489 258.608 88.2476L258.744 88.3356L160.832 88.2636H134.208H127.28L124.944 88.1916Z" fill="#263238"/>
<path d="M253.336 125.224C273.416 128.528 241.76 164.096 223.832 178.128C213.432 186.248 202.312 195.064 197.384 207.288C191.784 221.16 195.936 236.744 193.232 250.696C193.145 251.177 192.879 251.607 192.488 251.9C192.096 252.194 191.608 252.328 191.122 252.276C190.636 252.225 190.187 251.991 189.866 251.622C189.545 251.253 189.376 250.777 189.392 250.288C189.52 241.128 189.28 231.976 187.792 222.96C185.64 210.16 180.728 197.528 171.792 188.16C164.472 180.504 154.88 175.424 147.08 168.272C135.688 157.832 123.984 144.368 122.84 128.96C122.84 128.96 144.712 111.36 156.856 113.56C171.048 116.16 185.016 138.056 207 135.552C222.296 133.8 230.048 121.4 253.336 125.224Z" fill="#65AA4F"/>
<path d="M255.12 315.584C254.616 310.56 253.272 304.88 248.816 302.512C246.12 301.072 242.832 301.232 239.872 302.008C236.912 302.784 234.136 304.136 231.208 305.008C225.387 306.72 219.171 306.52 213.472 304.44C208.024 302.44 203.352 298.84 198.272 295.976C193.192 293.112 187.296 291.016 181.664 292.416C171.952 294.816 166.896 306.528 157.296 309.352C153.024 310.6 148.44 309.896 144.104 308.92C139.768 307.944 135.408 306.672 130.968 306.84C127.48 306.968 123.856 308.176 121.416 310.56L121.352 310.632C120.946 311.03 120.576 311.464 120.248 311.928C117.272 315.928 116.792 321.232 117.712 326.08C118.736 331.512 121.272 336.528 123.992 341.336C127.192 347 130.84 352.632 136.136 356.408C142.68 361.072 150.896 357.856 158.904 358.488C177.568 359.96 197.648 360.96 216.32 359.52C226.184 358.72 235.424 359.824 243.248 353.768C248.752 349.512 252.336 343.096 254.064 336.36C255.792 329.624 255.816 322.504 255.12 315.584Z" fill="#65AA4F"/>
<g opacity="0.24">
<path d="M219.888 305.968C218.84 307.568 218.384 309.744 219.4 311.376C220.416 313.008 221.8 314.504 222.232 316.384C222.928 319.328 221.152 322.208 219.832 324.936C217.389 329.813 216.466 335.312 217.184 340.72C217.941 346.145 220.743 351.076 225.016 354.504C226.912 355.968 229.376 357.104 231.664 356.384C233.816 355.712 235.2 353.528 235.664 351.312C236.128 349.096 235.736 346.816 235.456 344.584C234.153 334.181 234.423 323.642 236.256 313.32C236.56 311.6 236.848 309.632 235.76 308.264C234.975 307.467 233.979 306.912 232.888 306.664C228.728 305.28 224.24 306.816 219.928 306" fill="#DCDCDC"/>
</g>
<path d="M111.864 363.424C111.864 363.424 111.488 357.168 119.648 353.68H263.048C263.048 353.68 270.528 357.472 271.448 363.28L111.864 363.424Z" fill="#263238"/>
<path d="M260 88.9518L259.768 89.0558L124.928 88.1918C124.928 88.1918 124.448 87.8878 123.736 87.3198C122.895 86.6613 122.282 85.7561 121.982 84.7313C121.682 83.7065 121.711 82.6135 122.064 81.6057C122.417 80.5979 123.076 79.726 123.95 79.1123C124.824 78.4986 125.868 78.1739 126.936 78.1838L257.816 79.2398C263.2 79.2878 264.896 86.6478 260 88.9518Z" fill="#263238"/>
<g opacity="0.24">
<path d="M238.4 140.392C238.672 140.912 237.656 141.992 235.728 143.752C233.8 145.512 230.928 147.824 227.36 150.728C223.076 154.267 218.529 157.477 213.76 160.328C210.797 162.044 207.679 163.477 204.448 164.608C202.697 165.213 200.909 165.708 199.096 166.088C197.191 166.493 195.257 166.744 193.312 166.84C189.37 167.054 185.425 166.511 181.688 165.24C178.384 164.038 175.245 162.426 172.344 160.44C169.656 158.664 167.344 156.904 165.144 155.216C162.944 153.528 160.984 151.904 159.208 150.368C152.128 144.232 148.4 139.72 149.12 138.848C149.84 137.976 154.88 140.816 162.72 145.616L169.12 149.536C171.416 150.928 173.872 152.472 176.384 153.896C178.876 155.359 181.518 156.553 184.264 157.456C187.073 158.297 190.008 158.644 192.936 158.48C199.08 158.16 205.04 156 210.2 153.504C215.36 151.008 220.032 148.096 224.08 145.824C227.283 143.934 230.633 142.302 234.096 140.944C236.632 140.056 238.168 139.888 238.4 140.392Z" fill="#DCDCDC"/>
</g>
<path d="M189.488 267.408C190.055 267.182 190.687 267.189 191.249 267.427C191.811 267.664 192.257 268.114 192.49 268.678C192.723 269.241 192.724 269.874 192.494 270.439C192.263 271.004 191.82 271.456 191.259 271.696C190.699 271.936 190.066 271.946 189.498 271.723C188.93 271.5 188.473 271.063 188.225 270.505C187.978 269.948 187.959 269.315 188.175 268.744C188.39 268.174 188.822 267.711 189.376 267.456" fill="#65AA4F"/>
<path d="M141.264 162.704C141.089 162.56 140.928 162.399 140.784 162.224L139.48 160.8C138.928 160.168 138.2 159.432 137.456 158.496L134.912 155.296C134.04 154.064 133.056 152.736 132.064 151.296L130.6 148.968C130.352 148.568 130.088 148.168 129.848 147.744L129.144 146.448C127.015 142.675 125.347 138.659 124.176 134.488C122.999 130.32 122.365 126.018 122.288 121.688C122.288 120.688 122.344 119.72 122.36 118.768C122.36 118.296 122.36 117.832 122.424 117.376C122.488 116.92 122.52 116.472 122.568 116.032C122.672 115.152 122.736 114.296 122.856 113.48C122.976 112.664 123.144 111.88 123.28 111.152C123.504 109.656 123.904 108.352 124.184 107.152C124.336 106.576 124.456 106.032 124.608 105.552L125.048 104.216L125.664 102.384C125.723 102.166 125.803 101.954 125.904 101.752C125.871 101.975 125.818 102.195 125.744 102.408C125.608 102.872 125.432 103.488 125.2 104.264L124.8 105.6C124.664 106.088 124.552 106.632 124.408 107.2C124.152 108.36 123.776 109.672 123.608 111.2C123.48 111.936 123.352 112.712 123.216 113.52C123.08 114.328 123.048 115.176 122.952 116.056C122.952 116.496 122.864 116.936 122.816 117.392C122.768 117.848 122.816 118.312 122.768 118.776C122.768 119.72 122.704 120.68 122.712 121.672C122.79 125.977 123.417 130.254 124.576 134.4C125.741 138.541 127.387 142.53 129.48 146.288C129.712 146.72 129.944 147.152 130.168 147.584C130.392 148.016 130.672 148.384 130.912 148.8L132.352 151.128C133.328 152.6 134.296 153.928 135.144 155.128L137.64 158.328C138.36 159.28 139.072 160.024 139.6 160.68L140.848 162.16C140.998 162.332 141.137 162.514 141.264 162.704Z" fill="#263238"/>
<path d="M133.672 281.552C133.711 281.459 133.76 281.371 133.816 281.288L134.296 280.536C134.512 280.2 134.776 279.8 135.096 279.32L135.6 278.52C135.8 278.256 136.032 277.992 136.264 277.72L137.864 275.8C138.48 275.136 139.184 274.448 139.928 273.696C141.653 272.035 143.486 270.49 145.416 269.072C149.664 265.872 155.144 262.672 161.08 258.92C164.201 256.996 167.202 254.883 170.064 252.592C173.135 250.146 175.846 247.28 178.12 244.08C182.281 237.686 184.542 230.243 184.64 222.616C184.741 216.399 183.7 210.216 181.568 204.376C180.156 200.434 178.383 196.632 176.272 193.016C175.528 191.728 174.92 190.752 174.504 190.088L174.032 189.336C173.928 189.168 173.88 189.072 173.88 189.072C173.951 189.144 174.013 189.224 174.064 189.312L174.576 190.048C175.016 190.688 175.648 191.648 176.408 192.936C178.584 196.532 180.406 200.331 181.848 204.28C184.037 210.145 185.122 216.364 185.048 222.624C185.014 224.429 184.867 226.229 184.608 228.016C184.349 229.884 183.956 231.732 183.432 233.544C182.339 237.381 180.64 241.019 178.4 244.32C176.103 247.555 173.361 250.45 170.256 252.92C167.376 255.213 164.36 257.329 161.224 259.256C155.264 262.976 149.776 266.144 145.528 269.32C143.599 270.719 141.76 272.24 140.024 273.872C139.28 274.616 138.568 275.288 137.944 275.944L136.344 277.824C136.104 278.112 135.872 278.376 135.672 278.624L135.152 279.384L134.352 280.576L133.84 281.304C133.791 281.391 133.734 281.474 133.672 281.552Z" fill="#263238"/>
<path d="M126.232 295.688C126.184 295.818 126.125 295.944 126.056 296.064L125.48 297.08C125.224 297.512 124.92 298.056 124.608 298.68C124.296 299.304 123.896 300.04 123.56 300.88C123.384 301.296 123.192 301.728 123 302.176C122.808 302.624 122.648 303.12 122.456 303.616C122.072 304.608 121.768 305.696 121.416 306.816C120.024 311.831 119.545 317.055 120 322.24C120.136 323.424 120.232 324.56 120.44 325.6C120.528 326.12 120.6 326.632 120.704 327.112C120.808 327.592 120.92 328.056 121.024 328.496C121.2 329.384 121.464 330.16 121.656 330.848C121.848 331.536 122.04 332.128 122.216 332.608L122.592 333.712C122.646 333.837 122.681 333.969 122.696 334.104C122.619 333.993 122.557 333.872 122.512 333.744C122.392 333.448 122.248 333.096 122.064 332.664C121.822 332.094 121.611 331.512 121.432 330.92C121.216 330.232 120.936 329.456 120.736 328.568C120.624 328.128 120.512 327.664 120.392 327.184C120.272 326.704 120.2 326.184 120.096 325.664C119.872 324.608 119.76 323.472 119.616 322.28C119.115 317.063 119.598 311.799 121.04 306.76C121.4 305.608 121.72 304.512 122.128 303.52C122.328 303.024 122.488 302.536 122.696 302.08L123.288 300.776C123.64 299.976 124.088 299.232 124.4 298.592C124.682 298.042 124.994 297.507 125.336 296.992L125.976 296.008C126.136 295.792 126.216 295.68 126.232 295.688Z" fill="#263238"/>
<path d="M225.136 314.92L224.976 315.032L224.48 315.344L222.536 316.512L221.128 317.312C220.6 317.608 220.016 317.88 219.392 318.192C218.128 318.8 216.736 319.576 215.088 320.2L212.528 321.248C211.64 321.6 210.672 321.88 209.696 322.216C207.752 322.928 205.592 323.44 203.344 324.024C193.473 326.336 183.235 326.608 173.256 324.824C170.968 324.36 168.792 323.96 166.808 323.352C165.816 323.064 164.84 322.84 163.928 322.552L161.32 321.6C159.648 321.064 158.208 320.368 156.92 319.824C156.28 319.544 155.68 319.296 155.144 319.024L153.688 318.264L151.688 317.2L151.176 316.912L151.008 316.808C151.008 316.808 151.08 316.808 151.2 316.88L151.728 317.128L153.76 318.12L155.224 318.84C155.768 319.096 156.376 319.328 157.016 319.6C158.304 320.112 159.744 320.792 161.424 321.304L164 322.24C164.912 322.544 165.888 322.76 166.88 323.04C168.856 323.632 171.024 324.008 173.28 324.464C183.213 326.184 193.389 325.912 203.216 323.664C205.456 323.088 207.608 322.6 209.552 321.904C210.528 321.576 211.488 321.312 212.376 320.96L214.936 319.944C216.584 319.336 217.984 318.584 219.248 318C219.872 317.696 220.464 317.432 220.992 317.2L222.416 316.4L224.392 315.296L224.912 315.024C225.072 314.936 225.136 314.912 225.136 314.92Z" fill="#263238"/>
<path d="M233.48 145.6C233.431 145.658 233.375 145.709 233.312 145.752L232.784 146.184C232.296 146.576 231.616 147.128 230.744 147.784C228.968 149.192 226.392 151.232 223.136 153.664C219.347 156.564 215.373 159.215 211.24 161.6C208.782 162.975 206.219 164.155 203.576 165.128C200.725 166.165 197.75 166.827 194.728 167.096C188.852 167.425 182.993 166.206 177.736 163.56C175.463 162.405 173.269 161.101 171.168 159.656C169.216 158.28 167.432 156.944 165.856 155.656C162.656 153.112 160.208 150.96 158.48 149.488L156.504 147.776L156 147.328L155.832 147.16C155.832 147.16 155.904 147.16 156.024 147.288L156.56 147.712L158.584 149.36C160.344 150.8 162.856 152.912 166.04 155.424C167.64 156.68 169.408 158 171.368 159.36C173.461 160.78 175.645 162.063 177.904 163.2C183.108 165.794 188.898 166.987 194.704 166.664C197.69 166.399 200.629 165.748 203.448 164.728C206.073 163.768 208.62 162.604 211.064 161.248C215.191 158.906 219.169 156.312 222.976 153.48C226.24 151.08 228.84 149.08 230.656 147.712L232.744 146.112L233.296 145.712C233.351 145.665 233.413 145.628 233.48 145.6Z" fill="#263238"/>
<g opacity="0.24">
<path d="M161.328 321.64C165.12 318.712 170.448 319.416 175.136 320.408C179.824 321.4 184.544 322.992 189.288 322.328C192.864 321.824 196.144 320.072 199.688 319.304C203.232 318.536 207.496 319.104 209.456 322.136C193.791 327.184 176.91 327.01 161.352 321.64" fill="#DCDCDC"/>
</g>
<path d="M293.6 299.928L276.4 280.64L276.224 304.088L281.408 319.128L229.872 328.064L227.688 287.4L223.976 256.2C223.755 254.34 224.157 252.459 225.118 250.851C226.079 249.243 227.545 247.999 229.288 247.312L243.472 241.712L263.472 245.376L271.512 248.432C274.883 249.716 277.888 251.806 280.264 254.52L304.456 282.184" fill="#65AA4F"/>
<path d="M275.2 276C276.171 275.987 277.141 275.917 278.104 275.792C280.425 275.438 282.586 274.399 284.312 272.808C286.038 271.218 287.25 269.148 287.792 266.864C287.991 265.91 288.138 264.946 288.232 263.976C288.297 264.237 288.321 264.507 288.304 264.776C288.31 265.502 288.235 266.227 288.08 266.936C287.596 269.312 286.376 271.474 284.595 273.118C282.813 274.762 280.559 275.804 278.152 276.096C277.433 276.189 276.707 276.205 275.984 276.144C275.717 276.139 275.452 276.09 275.2 276Z" fill="white"/>
<path d="M276.696 303.088C276.816 303.088 276.848 294.96 276.768 284.944C276.688 274.928 276.52 266.808 276.4 266.808C276.28 266.808 276.248 274.928 276.328 284.952C276.408 294.976 276.576 303.088 276.696 303.088Z" fill="#263238"/>
<path d="M274.808 309.048L243.672 296.512C242.441 296.017 241.373 295.187 240.589 294.117C239.804 293.047 239.334 291.779 239.232 290.456L236.952 260.6C236.952 260.6 237.224 247.896 229.288 247.28L224.8 249.056C218.968 252.152 217.528 260.648 218.32 267.2C219.448 276.512 219.92 289.696 221.176 297.776C222.216 304.392 225.976 310.208 232.472 311.912L270.824 320.216L274.808 309.048Z" fill="#65AA4F"/>
<path d="M237.4 265.152C237.452 265.375 237.484 265.603 237.496 265.832C237.544 266.32 237.616 266.976 237.696 267.8C237.856 269.552 238.08 272.016 238.352 275.04C238.624 278.064 238.928 281.752 239.28 285.784C239.36 286.8 239.448 287.832 239.536 288.888C239.598 289.962 239.732 291.032 239.936 292.088C240.153 293.156 240.695 294.132 241.488 294.88C242.341 295.63 243.311 296.236 244.36 296.672C252.944 300.384 260.856 303.456 266.6 305.608L273.424 308.12L275.28 308.8C275.497 308.872 275.709 308.96 275.912 309.064C275.686 309.023 275.463 308.961 275.248 308.88L273.368 308.272C271.768 307.728 269.368 306.92 266.504 305.872C260.72 303.792 252.8 300.768 244.184 297.072C243.094 296.614 242.087 295.982 241.2 295.2C240.349 294.392 239.768 293.342 239.536 292.192C239.33 291.12 239.199 290.035 239.144 288.944C239.056 287.88 238.976 286.848 238.896 285.832C238.584 281.832 238.296 278.152 238.096 275.08C237.896 272.008 237.696 269.584 237.568 267.832C237.512 267.032 237.472 266.344 237.448 265.856C237.412 265.623 237.396 265.388 237.4 265.152Z" fill="#263238"/>
<path d="M219.56 281.384C219.592 281.515 219.611 281.649 219.616 281.784L219.72 282.936C219.816 284 219.936 285.432 220.088 287.176C220.24 288.92 220.48 291.088 220.792 293.44C221.098 295.987 221.566 298.512 222.192 301C222.487 302.281 223.001 303.502 223.712 304.608C224.407 305.623 225.186 306.579 226.04 307.464C227.496 308.962 229.178 310.223 231.024 311.2C232.745 312.075 234.591 312.679 236.496 312.992C236.361 313.009 236.224 313.009 236.088 312.992C235.701 312.966 235.317 312.916 234.936 312.84C233.529 312.578 232.166 312.117 230.888 311.472C228.99 310.516 227.261 309.257 225.768 307.744C224.884 306.849 224.081 305.877 223.368 304.84C222.621 303.703 222.08 302.444 221.768 301.12C221.133 298.613 220.671 296.066 220.384 293.496C220.096 291.096 219.904 289 219.776 287.208C219.648 285.416 219.576 283.96 219.536 282.952C219.536 282.488 219.536 282.104 219.536 281.792C219.523 281.656 219.531 281.518 219.56 281.384Z" fill="#263238"/>
<path d="M232.872 302.272C232.954 301.689 233.147 301.127 233.44 300.616C234.082 299.341 234.971 298.207 236.056 297.28C237.141 296.352 238.401 295.651 239.76 295.216C240.311 295.006 240.898 294.905 241.488 294.92C240.965 295.138 240.431 295.331 239.888 295.496C238.602 295.994 237.409 296.705 236.36 297.6C235.314 298.497 234.424 299.562 233.728 300.752C233.168 301.672 232.936 302.296 232.872 302.272Z" fill="#263238"/>
<path d="M239 279.568C239.068 279.588 239.133 279.618 239.192 279.656L239.752 279.952C240.474 280.308 241.217 280.62 241.976 280.888C244.775 281.87 247.778 282.129 250.704 281.64C255.05 280.865 258.933 278.451 261.552 274.896C263.117 272.843 264.098 270.405 264.392 267.84C264.537 266.492 264.396 265.129 263.976 263.84C263.533 262.524 262.762 261.343 261.736 260.408C260.724 259.461 259.45 258.842 258.08 258.632C257.431 258.516 256.764 258.548 256.129 258.727C255.495 258.906 254.909 259.226 254.416 259.664C253.97 260.101 253.711 260.695 253.696 261.32C253.71 261.941 253.923 262.541 254.304 263.032C254.701 263.506 255.189 263.897 255.738 264.181C256.287 264.465 256.888 264.638 257.504 264.688C259.67 264.958 261.87 264.68 263.901 263.879C265.932 263.078 267.729 261.78 269.128 260.104C270.188 258.8 270.987 257.303 271.48 255.696C271.848 254.478 272.047 253.216 272.072 251.944C272.081 251.141 272.022 250.338 271.896 249.544C271.848 249.296 271.808 249.088 271.784 248.928C271.777 248.856 271.777 248.784 271.784 248.712C272.115 249.746 272.277 250.827 272.264 251.912C272.272 253.203 272.094 254.488 271.736 255.728C270.845 258.717 268.923 261.293 266.31 262.996C263.698 264.7 260.566 265.422 257.472 265.032C256.811 264.974 256.169 264.785 255.581 264.478C254.993 264.17 254.472 263.75 254.048 263.24C253.613 262.681 253.372 261.996 253.36 261.288C253.361 260.56 253.648 259.862 254.16 259.344C254.698 258.864 255.336 258.511 256.029 258.312C256.721 258.113 257.45 258.072 258.16 258.192C259.615 258.408 260.969 259.064 262.04 260.072C263.123 261.051 263.934 262.294 264.392 263.68C264.828 265.021 264.975 266.439 264.824 267.84C264.512 270.461 263.497 272.948 261.888 275.04C259.667 278.071 256.515 280.29 252.913 281.359C249.311 282.428 245.459 282.288 241.944 280.96C240.906 280.628 239.916 280.16 239 279.568Z" fill="white"/>
<path d="M218.6 271.608C218.735 271.369 218.908 271.153 219.112 270.968C219.623 270.427 220.186 269.937 220.792 269.504C222.834 268.101 225.21 267.259 227.68 267.064C229.035 266.912 230.406 266.968 231.744 267.232C232.832 267.458 233.884 267.829 234.872 268.336C235.536 268.671 236.172 269.056 236.776 269.488C237.01 269.631 237.22 269.809 237.4 270.016C237.352 270.08 236.424 269.376 234.744 268.6C232.554 267.585 230.125 267.197 227.728 267.48C225.321 267.67 222.997 268.448 220.96 269.744C219.416 270.776 218.656 271.664 218.6 271.608Z" fill="white"/>
<path d="M223.584 250.256C224.343 250.971 225.19 251.587 226.104 252.088C227.102 252.6 228.188 252.92 229.304 253.032C230.663 253.168 232.035 252.976 233.304 252.472C234.548 251.941 235.646 251.118 236.504 250.072C237.212 249.199 237.754 248.204 238.104 247.136C238.392 246.133 238.555 245.099 238.592 244.056C238.67 244.332 238.705 244.618 238.696 244.904C238.709 245.689 238.604 246.471 238.384 247.224C238.058 248.348 237.514 249.397 236.784 250.312C235.907 251.459 234.742 252.354 233.407 252.905C232.072 253.456 230.615 253.643 229.184 253.448C228.024 253.317 226.901 252.958 225.88 252.392C225.192 252.015 224.567 251.535 224.024 250.968C223.835 250.76 223.686 250.519 223.584 250.256Z" fill="white"/>
<path d="M250.72 299.352C250.722 299.153 250.743 298.955 250.784 298.76C250.896 298.205 251.082 297.667 251.336 297.16C252.353 295.297 254.006 293.86 255.992 293.112C258.916 291.95 262.152 291.834 265.152 292.784C266.8 293.272 268.688 293.88 269.952 295.488C270.27 295.899 270.471 296.388 270.533 296.904C270.595 297.419 270.516 297.942 270.304 298.416C269.821 299.342 269.041 300.077 268.088 300.504C267.169 300.959 266.162 301.21 265.136 301.24C264.118 301.29 263.115 300.978 262.304 300.36C261.93 300.041 261.625 299.648 261.407 299.207C261.19 298.765 261.065 298.284 261.04 297.792C260.988 296.874 261.132 295.954 261.464 295.096C262.67 292.18 264.966 289.849 267.864 288.6C269.787 287.743 271.893 287.38 273.992 287.544C274.756 287.602 275.51 287.761 276.232 288.016C276.232 288.072 275.432 287.808 273.976 287.704C272.238 287.61 270.498 287.871 268.864 288.472C267.23 289.073 265.735 290.002 264.472 291.2C263.299 292.323 262.385 293.688 261.792 295.2C261.482 296.008 261.348 296.873 261.4 297.736C261.423 298.174 261.536 298.602 261.732 298.994C261.927 299.386 262.201 299.734 262.536 300.016C263.268 300.578 264.175 300.862 265.096 300.816C266.058 300.791 267.003 300.556 267.864 300.128C268.734 299.74 269.449 299.073 269.896 298.232C270.076 297.824 270.143 297.374 270.09 296.931C270.036 296.487 269.864 296.066 269.592 295.712C269.034 295.008 268.319 294.443 267.504 294.064C266.714 293.686 265.892 293.378 265.048 293.144C262.128 292.199 258.972 292.281 256.104 293.376C254.161 294.079 252.525 295.441 251.48 297.224C251.134 297.897 250.878 298.612 250.72 299.352Z" fill="white"/>
<path d="M229.984 310.592C229.984 310.512 231.168 310.416 232.968 309.792C235.318 308.964 237.424 307.562 239.092 305.711C240.761 303.861 241.939 301.623 242.52 299.2C242.976 297.344 242.96 296.136 243.04 296.144C243.096 296.42 243.11 296.704 243.08 296.984C243.062 297.751 242.971 298.514 242.808 299.264C242.29 301.765 241.113 304.082 239.401 305.976C237.688 307.87 235.5 309.273 233.064 310.04C232.335 310.278 231.585 310.446 230.824 310.544C230.548 310.601 230.265 310.617 229.984 310.592Z" fill="white"/>
<path d="M219.888 287.384C220.007 287.318 220.133 287.267 220.264 287.232C220.52 287.152 220.888 287.04 221.376 286.912C222.761 286.548 224.194 286.402 225.624 286.48C226.617 286.555 227.591 286.796 228.504 287.192C229.568 287.651 230.495 288.379 231.192 289.304C231.958 290.354 232.329 291.64 232.24 292.936C232.189 293.626 231.978 294.294 231.624 294.888C231.266 295.514 230.7 295.996 230.024 296.248C229.668 296.37 229.286 296.395 228.916 296.322C228.547 296.249 228.203 296.08 227.92 295.832C227.44 295.303 227.18 294.611 227.192 293.896C227.151 292.621 227.403 291.354 227.928 290.192C228.658 288.536 229.921 287.171 231.515 286.315C233.109 285.458 234.944 285.159 236.728 285.464C237.112 285.524 237.489 285.617 237.856 285.744C238.104 285.84 238.232 285.896 238.224 285.912C238.216 285.928 237.688 285.744 236.704 285.624C235.314 285.456 233.903 285.637 232.6 286.152C230.67 286.926 229.126 288.434 228.304 290.344C227.816 291.454 227.583 292.66 227.624 293.872C227.607 294.484 227.825 295.079 228.232 295.536C228.462 295.731 228.738 295.863 229.034 295.92C229.33 295.976 229.635 295.954 229.92 295.856C230.513 295.637 231.011 295.218 231.328 294.672C231.647 294.133 231.838 293.528 231.888 292.904C231.972 291.702 231.636 290.509 230.936 289.528C230.287 288.648 229.418 287.952 228.416 287.512C227.541 287.115 226.605 286.866 225.648 286.776C224.249 286.672 222.842 286.771 221.472 287.072C220.44 287.272 219.904 287.416 219.888 287.384Z" fill="white"/>
<g opacity="0.3">
<path d="M265.856 305.488C262.528 303.608 259.272 302.16 255.792 300.584C252.312 299.008 248.896 296.968 246.616 293.896C242.32 288.104 242.808 279.744 238.416 274.032C238.704 277.872 238.989 281.715 239.272 285.56C239.536 289.08 239 292.568 241.264 294.96C243.176 296.976 246.904 298.52 249.544 299.392C254.848 301.144 260.56 303.744 265.856 305.488Z" fill="#DCDCDC"/>
</g>
<path d="M320 349.368C320 349.368 346.056 356.568 347.104 356.952C348.704 357.504 348.408 363.256 345.968 363.16C344.808 363.12 325.968 363.864 323.568 363.72C321.168 363.576 313.968 360.736 313.968 360.736L320 349.368Z" fill="#65AA4F"/>
<path d="M330.824 359.312C331.146 358.354 331.531 357.419 331.976 356.512C332.537 355.673 333.151 354.871 333.816 354.112C332.889 354.62 332.119 355.373 331.592 356.288C331.064 357.204 330.798 358.247 330.824 359.304V359.312Z" fill="#263238"/>
<path d="M328.104 358.08C328.232 358.08 328.496 356.872 329.192 355.512C329.888 354.152 330.704 353.2 330.616 353.112C329.856 353.704 329.236 354.458 328.801 355.318C328.367 356.178 328.129 357.125 328.104 358.088V358.08Z" fill="#263238"/>
<path d="M325.6 357.4C325.728 356.468 325.931 355.547 326.208 354.648C326.616 353.799 327.09 352.984 327.624 352.208C326.798 352.764 326.161 353.559 325.8 354.487C325.438 355.415 325.368 356.431 325.6 357.4Z" fill="#263238"/>
<path d="M326.024 354.032C326.254 353.414 326.349 352.754 326.304 352.096C326.296 351.379 326.208 350.665 326.04 349.968C325.94 349.556 325.809 349.152 325.648 348.76C325.573 348.512 325.429 348.29 325.232 348.12C325.101 348.023 324.939 347.974 324.776 347.983C324.612 347.992 324.457 348.057 324.336 348.168C324.134 348.362 324.012 348.625 323.992 348.904C323.973 349.133 323.973 349.363 323.992 349.592C323.995 350.021 324.048 350.448 324.152 350.864C324.325 351.562 324.595 352.232 324.952 352.856C325.239 353.457 325.635 354 326.12 354.456C326.184 354.456 325.744 353.808 325.224 352.744C324.92 352.129 324.692 351.479 324.544 350.808C324.46 350.416 324.417 350.017 324.416 349.616C324.416 349.216 324.416 348.72 324.656 348.528C324.703 348.485 324.765 348.462 324.828 348.462C324.892 348.462 324.953 348.485 325 348.528C325.13 348.656 325.229 348.812 325.288 348.984C325.442 349.36 325.572 349.745 325.68 350.136C325.864 350.8 325.979 351.481 326.024 352.168C326.072 353.288 325.952 354.024 326.024 354.032Z" fill="#263238"/>
<path d="M325.992 353.768C325.461 353.547 324.886 353.453 324.312 353.496C323.69 353.496 323.069 353.571 322.464 353.72C322.092 353.805 321.731 353.936 321.392 354.112C321.179 354.221 321.007 354.396 320.901 354.611C320.796 354.826 320.763 355.069 320.808 355.304C320.868 355.529 320.986 355.734 321.151 355.898C321.315 356.062 321.52 356.18 321.744 356.24C322.128 356.336 322.529 356.336 322.912 356.24C323.529 356.099 324.108 355.826 324.608 355.44C325.083 355.123 325.492 354.718 325.816 354.248C325.335 354.53 324.873 354.842 324.432 355.184C323.948 355.516 323.405 355.753 322.832 355.88C322.515 355.96 322.182 355.96 321.864 355.88C321.714 355.842 321.576 355.765 321.465 355.657C321.355 355.549 321.274 355.413 321.232 355.264C321.208 355.118 321.232 354.967 321.302 354.836C321.371 354.704 321.482 354.599 321.616 354.536C321.913 354.373 322.231 354.249 322.56 354.168C323.134 354.004 323.724 353.903 324.32 353.864C325.336 353.736 325.976 353.84 325.992 353.768Z" fill="#263238"/>
<path d="M334.824 359.592C334.936 358.796 335.11 358.009 335.344 357.24C335.71 356.526 336.136 355.843 336.616 355.2C335.857 355.614 335.265 356.277 334.938 357.077C334.612 357.877 334.571 358.766 334.824 359.592Z" fill="#263238"/>
<path d="M316.648 360.8C316.964 361 317.302 361.161 317.656 361.28C318.602 361.639 319.569 361.938 320.552 362.176C323.819 362.889 327.161 363.206 330.504 363.12C334.408 363.072 337.928 362.896 340.48 362.792L343.496 362.632C343.866 362.626 344.236 362.588 344.6 362.52C344.232 362.462 343.86 362.444 343.488 362.464H340.472L330.504 362.656C327.192 362.741 323.88 362.473 320.624 361.856C318.128 361.352 316.68 360.712 316.648 360.8Z" fill="#263238"/>
<path d="M315.88 361.392C315.88 361.448 316.624 361.032 317.832 360.504C319.367 359.779 321.075 359.502 322.76 359.704C324.418 360.064 325.914 360.951 327.024 362.232C327.487 362.778 327.986 363.292 328.52 363.768C328.177 363.132 327.749 362.545 327.248 362.024C326.735 361.427 326.155 360.89 325.52 360.424C324.725 359.836 323.801 359.446 322.824 359.288C321.056 359.074 319.265 359.412 317.696 360.256C317.034 360.534 316.42 360.918 315.88 361.392Z" fill="#263238"/>
<path d="M292.312 342.176C292.312 342.176 267.656 358.32 266.776 358.976C265.448 359.976 266.968 364.752 269.272 363.928C270.36 363.536 291.048 357.776 293.272 356.912C295.496 356.048 301.488 351.2 301.488 351.2L292.312 342.176Z" fill="#65AA4F"/>
<path d="M284.992 354.944C284.695 353.929 284.124 353.015 283.342 352.303C282.561 351.59 281.598 351.106 280.56 350.904C281.427 351.424 282.258 352.001 283.048 352.632C283.744 353.362 284.393 354.134 284.992 354.944Z" fill="#263238"/>
<path d="M287.2 352.944C286.886 352.031 286.374 351.199 285.701 350.507C285.027 349.815 284.209 349.282 283.304 348.944C283.24 349.056 284.32 349.744 285.384 350.8C286.448 351.856 287.088 353.008 287.2 352.944Z" fill="#263238"/>
<path d="M289.424 351.52C289.421 350.513 289.038 349.545 288.352 348.808C287.779 347.995 286.923 347.424 285.952 347.208C286.694 347.787 287.392 348.421 288.04 349.104C288.565 349.871 289.028 350.679 289.424 351.52Z" fill="#263238"/>
<path d="M288 348.456C288.064 348.456 287.728 347.76 287.448 346.608C287.28 345.94 287.181 345.256 287.152 344.568C287.125 344.163 287.125 343.757 287.152 343.352C287.149 343.17 287.196 342.99 287.288 342.832C287.323 342.778 287.377 342.739 287.44 342.724C287.503 342.709 287.569 342.719 287.624 342.752C287.904 342.864 288.048 343.344 288.184 343.728C288.302 344.109 288.382 344.5 288.424 344.896C288.486 345.582 288.465 346.272 288.36 346.952C288.192 348.12 287.96 348.832 288.024 348.856C288.354 348.284 288.571 347.654 288.664 347C288.818 346.299 288.872 345.58 288.824 344.864C288.792 344.436 288.714 344.012 288.592 343.6C288.527 343.379 288.446 343.163 288.352 342.952C288.246 342.69 288.046 342.477 287.792 342.352C287.644 342.283 287.476 342.268 287.318 342.311C287.16 342.353 287.022 342.45 286.928 342.584C286.796 342.807 286.727 343.061 286.728 343.32C286.64 344.46 286.771 345.605 287.112 346.696C287.281 347.339 287.583 347.939 288 348.456Z" fill="#263238"/>
<path d="M287.912 348.192C287.912 348.256 288.52 347.968 289.512 347.72C290.092 347.581 290.684 347.501 291.28 347.48C291.62 347.457 291.962 347.478 292.296 347.544C292.443 347.564 292.58 347.631 292.687 347.735C292.793 347.838 292.864 347.973 292.888 348.12C292.895 348.279 292.859 348.437 292.785 348.578C292.71 348.718 292.599 348.836 292.464 348.92C292.189 349.093 291.876 349.197 291.552 349.224C290.967 349.281 290.377 349.221 289.816 349.048C289.295 348.853 288.76 348.695 288.216 348.576C288.668 348.937 289.183 349.208 289.736 349.376C290.33 349.603 290.966 349.699 291.6 349.656C291.995 349.635 292.377 349.514 292.712 349.304C292.91 349.182 293.072 349.01 293.18 348.804C293.288 348.599 293.34 348.368 293.328 348.136C293.3 347.898 293.195 347.675 293.029 347.502C292.863 347.329 292.645 347.214 292.408 347.176C292.033 347.11 291.651 347.093 291.272 347.128C290.65 347.17 290.035 347.285 289.44 347.472C288.882 347.591 288.359 347.838 287.912 348.192Z" fill="#263238"/>
<path d="M272.408 363.04C272.408 363.08 272.824 362.792 273.016 362.088C273.208 361.168 273.042 360.21 272.552 359.408C272.315 358.979 272.048 358.567 271.752 358.176C271.512 357.843 271.23 357.542 270.912 357.28C270.685 357.092 270.406 356.978 270.112 356.952C269.904 356.952 269.8 356.992 269.8 357.016C269.8 357.04 270.24 357.056 270.696 357.52C270.965 357.792 271.204 358.093 271.408 358.416C271.695 358.802 271.962 359.203 272.208 359.616C272.65 360.334 272.842 361.178 272.752 362.016C272.658 362.364 272.544 362.706 272.408 363.04Z" fill="#263238"/>
<path d="M281.264 356.424C281.297 355.991 281.236 355.556 281.086 355.149C280.935 354.741 280.699 354.371 280.392 354.064C280.146 353.706 279.824 353.407 279.449 353.187C279.075 352.967 278.657 352.832 278.224 352.792C278.878 353.256 279.491 353.775 280.056 354.344C280.517 355.002 280.921 355.698 281.264 356.424Z" fill="#263238"/>
<path d="M298.952 352.056C298.569 352.269 298.205 352.516 297.864 352.792C296.887 353.471 295.872 354.093 294.824 354.656C293.273 355.479 291.67 356.198 290.024 356.808C288.152 357.504 286.024 358.16 283.848 358.8C279.408 360.08 275.392 361.248 272.496 362.12L269.048 363.2C268.622 363.313 268.208 363.463 267.808 363.648C268.244 363.589 268.675 363.495 269.096 363.368L272.56 362.4C275.48 361.6 279.504 360.48 283.944 359.2C286.16 358.552 288.264 357.88 290.136 357.16C291.802 356.527 293.42 355.773 294.976 354.904C296.021 354.312 297.021 353.644 297.968 352.904C298.319 352.649 298.648 352.366 298.952 352.056Z" fill="#263238"/>
<path d="M299.864 352.384C299.201 352.092 298.497 351.903 297.776 351.824C296.023 351.5 294.213 351.723 292.592 352.464C291.716 352.923 290.964 353.587 290.4 354.4C289.936 355.042 289.547 355.734 289.24 356.464C288.919 357.112 288.69 357.801 288.56 358.512C288.922 357.894 289.243 357.253 289.52 356.592C290.187 355.03 291.344 353.727 292.816 352.88C294.365 352.184 296.078 351.937 297.76 352.168C299.04 352.272 299.848 352.448 299.864 352.384Z" fill="#263238"/>
<path d="M343.552 302.808C343.552 302.808 350.952 305.448 350.976 313.744C351.04 329.624 318.88 347.136 318.88 347.136L276.08 318.784L273.4 317.696C273.4 317.696 331.2 296 343.552 302.808Z" fill="#263238"/>
<path d="M297.76 333.104C298.154 332.886 298.529 332.634 298.88 332.352C299.576 331.84 300.576 331.088 301.8 330.136C304.256 328.248 307.584 325.56 311.176 322.48C314.768 319.4 317.92 316.512 320.16 314.376C321.28 313.312 322.176 312.432 322.792 311.816C323.125 311.516 323.43 311.186 323.704 310.832C323.336 311.09 322.991 311.379 322.672 311.696L319.952 314.152C317.656 316.224 314.472 319.08 310.888 322.152C307.304 325.224 304.008 327.944 301.616 329.896L298.776 332.216C298.414 332.485 298.075 332.781 297.76 333.104Z" fill="#455A64"/>
<path d="M331.472 308.744C328.673 308.448 325.871 309.274 323.68 311.04C323.752 311.16 325.28 310.16 327.472 309.536C329.664 308.912 331.472 308.88 331.472 308.744Z" fill="#455A64"/>
<path d="M327.784 306.24C326.794 306.66 325.923 307.318 325.247 308.155C324.572 308.993 324.113 309.983 323.912 311.04C324.04 311.04 324.504 309.752 325.584 308.432C326.664 307.112 327.856 306.352 327.784 306.24Z" fill="#455A64"/>
<path d="M345.904 356.544C345.904 356.496 345.392 356.392 344.8 356.88C344.103 357.53 343.665 358.412 343.568 359.36C343.428 360.293 343.561 361.246 343.952 362.104C344.256 362.752 344.592 363.056 344.632 363.024C344.527 362.669 344.396 362.321 344.24 361.984C343.96 361.162 343.878 360.285 344 359.424C344.095 358.567 344.447 357.759 345.008 357.104C345.464 356.632 345.912 356.616 345.904 356.544Z" fill="#263238"/>
<path d="M333.704 276.848L318.464 315.488L252.84 316.56L251.624 313.008L274.624 312.176L285.68 277.896L333.704 276.848Z" fill="#455A64"/>
<path d="M303.056 293.6C303.56 293.347 304.127 293.245 304.687 293.306C305.248 293.367 305.779 293.589 306.216 293.944C306.588 294.294 306.845 294.747 306.955 295.245C307.065 295.743 307.022 296.263 306.832 296.736C306.627 297.209 306.293 297.614 305.869 297.907C305.445 298.2 304.947 298.368 304.432 298.392C303.891 298.427 303.352 298.284 302.899 297.985C302.446 297.686 302.102 297.248 301.92 296.736C301.749 296.164 301.764 295.552 301.962 294.988C302.16 294.425 302.532 293.939 303.024 293.6" fill="#EBEBEB"/>
<path d="M322.928 349.072C322.928 349.072 262.464 309.408 260 308.584C257.536 307.76 251.536 303.84 245.56 305.488C239.584 307.136 234.208 312.504 231.528 320.344C229.992 324.824 229.272 332.464 228.928 338.2C228.47 345.059 230.693 351.828 235.128 357.08C237.093 359.531 239.703 361.384 242.664 362.432C243.296 362.632 243.952 362.8 244.624 362.944C256.056 365.424 267.824 360.288 274.224 350.512L275.632 348.368C275.632 348.368 315.192 362.896 315.808 362.696L322.928 349.072Z" fill="#263238"/>
<path d="M248.128 338.152C248.235 338.206 248.344 338.254 248.456 338.296L249.448 338.688L253.28 340.168L267.528 345.536C273.576 347.792 280.824 350.48 288.96 353.44C297.096 356.4 306.104 359.64 315.736 362.896L315.904 362.96L315.992 362.792L320.72 353.768L323.12 349.168L323.208 348.992L323.04 348.888L276.92 319.608L263.064 310.872L259.304 308.52L258.32 307.92C258.096 307.784 257.976 307.728 257.976 307.728L258.296 307.96L259.256 308.592L262.976 310.992L276.8 319.864L322.848 349.256L322.768 348.968C322.008 350.432 321.168 351.992 320.368 353.568L315.648 362.592L315.912 362.488C306.312 359.24 297.272 356.008 289.128 353.072L267.664 345.264L253.336 340L249.48 338.592L248.472 338.24L248.128 338.152Z" fill="#455A64"/>
<path d="M254.4 197.312C255.432 194.52 257.712 193.312 260.6 192.616C262.053 192.278 263.566 192.296 265.01 192.668C266.454 193.039 267.788 193.755 268.896 194.752C270.36 196.088 271.432 197.952 273.24 198.752C276.224 200.104 280.04 198.128 282.84 199.784C283.681 200.28 284.325 201.051 284.661 201.968C284.998 202.884 285.007 203.889 284.686 204.811C284.366 205.733 283.736 206.515 282.903 207.025C282.071 207.535 281.087 207.741 280.12 207.608C282.064 208.52 282.424 211.448 281.088 213.128C279.752 214.808 277.28 215.264 275.208 214.68C273.166 213.977 271.354 212.729 269.968 211.072C268.512 209.472 267.232 207.752 265.648 206.272C264.128 204.727 262.11 203.77 259.952 203.568C257.048 203.456 254.352 205.416 252.84 207.888C251.328 210.36 250.744 213.296 250.32 216.176C249.896 219.056 249.576 221.984 248.464 224.672C248.336 224.992 248.144 225.336 247.816 225.408C247.328 225.512 246.976 224.976 246.784 224.52C244.595 219.382 243.437 213.864 243.376 208.28C243.336 205.08 243.704 202.016 245.712 199.48C247.72 196.944 252.352 195.368 254.376 197.272" fill="#263238"/>
<path d="M247.584 210.216L243.136 242.52C242.958 243.825 243.047 245.152 243.398 246.421C243.749 247.69 244.354 248.874 245.178 249.902C246.001 250.929 247.025 251.779 248.187 252.398C249.348 253.017 250.624 253.393 251.936 253.504C254.42 253.72 256.892 252.973 258.84 251.416C260.788 249.86 262.063 247.614 262.4 245.144C262.728 242.744 263.008 240.688 263.064 240.44C263.064 240.44 271.392 240.8 273.104 232.744C273.904 228.848 274.984 220.688 275.856 213.296C276.296 209.471 275.282 205.62 273.014 202.508C270.747 199.396 267.392 197.25 263.616 196.496L262.816 196.344C254.296 195.128 248.536 201.688 247.584 210.216Z" fill="#FFBE9D"/>
<path d="M263.056 240.328C259.311 239.641 255.856 237.856 253.128 235.2C253.128 235.2 254.456 241.504 262.656 242.4L263.056 240.328Z" fill="#EB996E"/>
<path d="M272.376 218.24C272.32 218.541 272.147 218.808 271.896 218.983C271.644 219.158 271.334 219.228 271.032 219.176C270.883 219.16 270.739 219.113 270.609 219.039C270.479 218.966 270.364 218.867 270.273 218.748C270.182 218.629 270.116 218.493 270.079 218.348C270.041 218.203 270.034 218.052 270.056 217.904C270.111 217.602 270.282 217.333 270.534 217.156C270.786 216.979 271.097 216.909 271.4 216.96C271.549 216.978 271.693 217.025 271.824 217.1C271.954 217.174 272.068 217.274 272.159 217.393C272.25 217.513 272.316 217.649 272.354 217.795C272.391 217.94 272.399 218.092 272.376 218.24Z" fill="#263238"/>
<path d="M273.288 216.912C273.112 217.04 272.368 216.216 271.128 215.968C269.888 215.72 268.848 216.168 268.728 215.968C268.608 215.768 268.88 215.648 269.336 215.44C269.944 215.17 270.622 215.1 271.272 215.24C271.918 215.364 272.507 215.692 272.952 216.176C273.296 216.56 273.368 216.864 273.288 216.912Z" fill="#263238"/>
<path d="M260.12 216.224C260.065 216.527 259.894 216.796 259.642 216.972C259.39 217.149 259.079 217.219 258.776 217.168C258.627 217.149 258.483 217.101 258.353 217.027C258.223 216.952 258.109 216.852 258.017 216.733C257.926 216.614 257.859 216.478 257.82 216.333C257.781 216.188 257.772 216.037 257.792 215.888C257.852 215.588 258.025 215.323 258.276 215.148C258.526 214.972 258.834 214.899 259.136 214.944C259.285 214.962 259.43 215.009 259.561 215.084C259.691 215.158 259.806 215.258 259.898 215.377C259.989 215.496 260.056 215.633 260.095 215.778C260.133 215.924 260.141 216.075 260.12 216.224Z" fill="#263238"/>
<path d="M261.04 214.712C260.864 214.832 260.12 214.008 258.88 213.76C257.64 213.512 256.6 213.96 256.48 213.76C256.36 213.56 256.632 213.44 257.088 213.232C257.697 212.966 258.374 212.896 259.024 213.032C259.67 213.163 260.259 213.49 260.712 213.968C261.048 214.4 261.12 214.656 261.04 214.712Z" fill="#263238"/>
<path d="M263.704 224.8C264.399 224.723 265.101 224.736 265.792 224.84C266.12 224.84 266.432 224.84 266.528 224.656C266.63 224.339 266.63 223.998 266.528 223.68C266.384 222.88 266.232 221.984 266.072 221.072C265.456 217.376 265.08 214.368 265.224 214.344C265.368 214.32 266.024 217.296 266.608 220.992C266.752 221.904 266.896 222.768 267.024 223.6C267.149 224.024 267.118 224.478 266.936 224.88C266.868 224.981 266.778 225.065 266.673 225.126C266.567 225.187 266.45 225.224 266.328 225.232C266.145 225.258 265.959 225.258 265.776 225.232C265.07 225.175 264.374 225.03 263.704 224.8Z" fill="#263238"/>
<path d="M259.88 224.944C260.088 224.944 259.816 226.32 260.776 227.504C261.736 228.688 263.176 228.832 263.176 229.024C263.176 229.216 262.808 229.216 262.2 229.112C261.408 228.966 260.692 228.547 260.176 227.928C259.688 227.328 259.45 226.563 259.512 225.792C259.576 225.216 259.792 224.912 259.88 224.944Z" fill="#263238"/>
<path d="M262.328 209.904C262.144 210.224 260.936 209.816 259.44 209.696C257.944 209.576 256.696 209.744 256.56 209.4C256.504 209.24 256.776 208.968 257.312 208.736C258.023 208.456 258.791 208.346 259.552 208.416C260.318 208.475 261.059 208.716 261.712 209.12C262.2 209.44 262.4 209.76 262.328 209.904Z" fill="#263238"/>
<path d="M273.544 213.232C273.272 213.472 272.48 213.008 271.448 212.784C270.416 212.56 269.512 212.6 269.376 212.264C269.312 212.104 269.504 211.848 269.944 211.656C270.517 211.43 271.146 211.388 271.744 211.536C272.347 211.663 272.894 211.98 273.304 212.44C273.6 212.8 273.672 213.112 273.544 213.232Z" fill="#263238"/>
<path d="M247.048 216.328C246.92 216.24 241.824 213.576 240.896 219.136C239.968 224.696 245.744 224.48 245.776 224.32C245.808 224.16 247.048 216.328 247.048 216.328Z" fill="#FFBE9D"/>
<path d="M244.432 221.928C244.432 221.928 244.328 221.984 244.152 222.032C243.905 222.091 243.645 222.054 243.424 221.928C243.1 221.642 242.859 221.275 242.727 220.864C242.595 220.452 242.576 220.013 242.672 219.592C242.736 219.112 242.908 218.652 243.176 218.248C243.252 218.082 243.366 217.937 243.509 217.824C243.653 217.711 243.821 217.635 244 217.6C244.117 217.59 244.234 217.622 244.33 217.689C244.427 217.756 244.497 217.855 244.528 217.968C244.576 218.128 244.528 218.24 244.528 218.248C244.528 218.256 244.664 218.176 244.656 217.944C244.648 217.802 244.591 217.666 244.496 217.56C244.431 217.488 244.352 217.431 244.264 217.391C244.176 217.351 244.081 217.33 243.984 217.328C243.749 217.335 243.52 217.402 243.319 217.522C243.117 217.643 242.949 217.813 242.832 218.016C242.514 218.459 242.308 218.972 242.232 219.512C242.08 220.64 242.48 221.784 243.248 222.144C243.39 222.213 243.546 222.249 243.704 222.249C243.862 222.249 244.018 222.213 244.16 222.144C244.4 222.064 244.448 221.944 244.432 221.928Z" fill="#EB996E"/>
<path d="M277.856 212C275.976 212.101 274.099 211.756 272.379 210.991C270.658 210.226 269.144 209.064 267.96 207.6C266.36 205.536 265.296 202.84 262.984 201.592C262.188 201.2 261.322 200.97 260.436 200.915C259.55 200.86 258.663 200.982 257.824 201.272C256.155 201.869 254.625 202.8 253.328 204.008C254.064 208.424 252.104 212.808 250.192 216.808C250.027 217.28 249.709 217.683 249.288 217.952C248.536 218.328 247.64 217.736 247.184 217.024C246.545 215.831 246.267 214.477 246.384 213.128C246.401 210.055 247.026 207.015 248.224 204.184C249.44 201.345 251.462 198.925 254.04 197.224C257.346 195.205 261.307 194.548 265.088 195.392C268.847 196.267 272.237 198.301 274.776 201.208C276.013 202.496 276.912 204.071 277.392 205.792" fill="#263238"/>
<path d="M53.9682 342.28C54.0032 342.163 54.0515 342.05 54.1122 341.944L54.5602 340.976C55.1119 339.725 55.5588 338.429 55.8962 337.104C56.7762 333.664 57.0802 328.408 55.7762 322.168C55.0747 318.764 54.15 315.41 53.0082 312.128C51.8322 308.568 50.4722 304.792 49.3602 300.704C48.1047 296.44 47.4979 292.012 47.5602 287.568C47.7282 282.92 49.1042 278.28 50.6162 273.664C52.1282 269.048 53.6882 264.52 54.1522 259.976C54.6766 255.604 53.7998 251.178 51.6482 247.336C49.6402 243.64 47.1282 240.488 45.2482 237.216C43.4861 234.186 42.1864 230.91 41.3922 227.496C40.259 222.547 40.1773 217.415 41.1522 212.432C41.5109 210.611 42.0467 208.829 42.7522 207.112C42.7334 207.234 42.704 207.355 42.6642 207.472L42.3442 208.488C40.4619 214.632 40.2603 221.168 41.7602 227.416C42.5619 230.791 43.8643 234.027 45.6242 237.016C47.5042 240.216 50.0322 243.416 52.0722 247.12C54.2572 251.038 55.1503 255.545 54.6242 260C54.1522 264.624 52.5762 269.176 51.0722 273.792C49.5682 278.408 48.2002 282.992 48.0322 287.56C47.9626 291.959 48.5531 296.344 49.7842 300.568C50.8802 304.632 52.2322 308.408 53.3842 311.984C54.5164 315.285 55.4277 318.658 56.1122 322.08C57.3842 328.368 57.0162 333.68 56.1122 337.128C55.7596 338.458 55.2828 339.751 54.6882 340.992C54.4802 341.392 54.3122 341.704 54.1922 341.944C54.1285 342.063 54.0535 342.176 53.9682 342.28Z" fill="#263238"/>
<path d="M47.8001 240.44C47.8001 240.44 43.9681 228.2 50.8401 221.032C50.8933 220.974 50.9615 220.933 51.0371 220.912C51.1127 220.89 51.1927 220.89 51.2681 220.912C51.3436 220.934 51.4116 220.976 51.4646 221.034C51.5175 221.092 51.5534 221.163 51.5681 221.24C51.9361 223.264 52.3921 229.424 47.8001 240.44Z" fill="#65AA4F"/>
<path d="M50.096 225.112C50.0832 225.871 49.9947 226.627 49.832 227.368C49.584 228.968 49.288 230.752 48.96 232.768C48.632 234.784 48.352 236.616 48.104 238.168C48.0393 238.926 47.9027 239.676 47.696 240.408C47.6313 239.648 47.6555 238.883 47.768 238.128C47.896 236.728 48.144 234.808 48.488 232.696C48.832 230.584 49.2 228.696 49.504 227.312C49.6162 226.558 49.8148 225.82 50.096 225.112Z" fill="#263238"/>
<path d="M52.2959 269.32C52.2959 269.32 54.6399 256.704 64.0639 253.6C64.1382 253.574 64.2182 253.569 64.295 253.586C64.3718 253.603 64.4424 253.641 64.4989 253.696C64.5553 253.751 64.5954 253.82 64.6147 253.897C64.6339 253.973 64.6316 254.053 64.6079 254.128C63.9999 256.064 61.5119 261.728 52.2959 269.32Z" fill="#65AA4F"/>
<path d="M61.4959 256.84C61.13 257.505 60.6985 258.133 60.2079 258.712C59.2639 259.976 58.1439 261.448 56.9119 263.08L53.5999 267.456C53.1864 268.093 52.7151 268.69 52.1919 269.24C52.4893 268.537 52.8679 267.871 53.3199 267.256C54.1199 266.08 55.1999 264.496 56.5199 262.792C57.8399 261.088 59.0319 259.592 59.9359 258.504C60.39 257.891 60.9135 257.333 61.4959 256.84Z" fill="#263238"/>
<path d="M49.7519 300.96C49.7519 300.96 48.3279 288.208 56.4399 282.48C56.5038 282.434 56.5792 282.407 56.6578 282.401C56.7364 282.395 56.815 282.412 56.8847 282.448C56.9545 282.485 57.0127 282.54 57.0529 282.608C57.093 282.676 57.1134 282.753 57.1119 282.832C57.0879 284.88 56.3599 291.016 49.7519 300.96Z" fill="#65AA4F"/>
<path d="M54.928 286.344C54.7758 287.089 54.5452 287.816 54.24 288.512C53.696 289.992 53.064 291.712 52.352 293.648L50.488 298.784C50.2897 299.515 50.0218 300.225 49.688 300.904C49.7727 300.146 49.9417 299.4 50.192 298.68C50.584 297.328 51.192 295.48 51.936 293.48C52.68 291.48 53.408 289.68 53.96 288.392C54.2041 287.675 54.5289 286.988 54.928 286.344Z" fill="#263238"/>
<path d="M56.848 332.8C56.848 332.8 55.88 320 64.192 314.576C64.257 314.531 64.3331 314.506 64.4119 314.502C64.4907 314.498 64.569 314.516 64.638 314.554C64.707 314.593 64.7639 314.649 64.8024 314.718C64.841 314.787 64.8595 314.865 64.856 314.944C64.752 316.984 63.808 323.088 56.848 332.8Z" fill="#65AA4F"/>
<path d="M62.5438 318.4C62.3519 319.141 62.0838 319.859 61.7438 320.544C61.1438 322 60.4478 323.744 59.6718 325.6L57.6158 330.672C57.4062 331.378 57.1331 332.064 56.7998 332.72C56.9073 331.966 57.1034 331.228 57.3838 330.52C57.8158 329.184 58.4958 327.368 59.3118 325.392C60.1278 323.416 60.9118 321.64 61.5118 320.376C61.7822 319.682 62.1283 319.019 62.5438 318.4Z" fill="#263238"/>
<path d="M42.296 229.688C42.296 229.688 30.928 223.752 30.704 213.824C30.7005 213.745 30.7191 213.667 30.7576 213.598C30.7961 213.529 30.8531 213.473 30.9221 213.435C30.9911 213.396 31.0693 213.378 31.1481 213.382C31.2269 213.386 31.3031 213.411 31.368 213.456C33.056 214.624 37.736 218.648 42.296 229.688Z" fill="#65AA4F"/>
<path d="M33.064 217.232C33.5953 217.774 34.0698 218.369 34.48 219.008L37.68 223.44L40.88 227.864C41.3675 228.445 41.8012 229.069 42.176 229.728C41.5744 229.246 41.0367 228.69 40.576 228.072C39.672 227 38.48 225.464 37.232 223.728C35.984 221.992 34.896 220.384 34.136 219.2C33.7047 218.587 33.3451 217.927 33.064 217.232Z" fill="#263238"/>
<path d="M54.5038 256C54.5038 256 42.7998 250.768 41.9678 240.872C41.9612 240.794 41.9762 240.716 42.011 240.646C42.0459 240.576 42.0994 240.518 42.1656 240.476C42.2318 240.435 42.3081 240.413 42.3861 240.412C42.4641 240.411 42.5409 240.432 42.6078 240.472C44.3678 241.504 49.2878 245.24 54.5038 256Z" fill="#65AA4F"/>
<path d="M44.5361 244.112C45.0978 244.623 45.6071 245.188 46.0561 245.8L49.5281 250.032L53.0081 254.248C53.5275 254.786 53.9937 255.373 54.4001 256C53.7901 255.53 53.2346 254.994 52.7441 254.4C51.7761 253.376 50.4961 251.92 49.1441 250.264C47.7921 248.608 46.6081 247.064 45.7841 245.936C45.3005 245.377 44.8818 244.765 44.5361 244.112Z" fill="#263238"/>
<path d="M47.768 285.312C47.768 285.312 39.728 275.312 43.504 266.112C43.5327 266.039 43.5809 265.976 43.6434 265.929C43.7058 265.882 43.7801 265.853 43.8579 265.846C43.9357 265.838 44.0141 265.852 44.0843 265.887C44.1546 265.921 44.214 265.974 44.256 266.04C45.336 267.808 48 273.368 47.768 285.312Z" fill="#65AA4F"/>
<path d="M44.296 270.2C44.5651 270.909 44.7608 271.643 44.88 272.392C45.216 273.936 45.608 275.744 46.048 277.744C46.488 279.744 46.848 281.544 47.224 283.08C47.438 283.809 47.5853 284.556 47.664 285.312C47.3088 284.634 47.04 283.913 46.864 283.168C46.464 281.816 45.992 279.968 45.544 277.84C45.096 275.712 44.744 273.84 44.52 272.464C44.3628 271.72 44.2877 270.961 44.296 270.2Z" fill="#263238"/>
<path d="M55.736 319.824C55.736 319.824 44.112 314.4 43.456 304.48C43.4509 304.403 43.4671 304.326 43.5026 304.257C43.5381 304.189 43.5917 304.131 43.6576 304.091C43.7235 304.05 43.7992 304.029 43.8764 304.028C43.9537 304.028 44.0296 304.048 44.096 304.088C45.84 305.184 50.696 309 55.736 319.824Z" fill="#65AA4F"/>
<path d="M45.96 307.784C46.5154 308.303 47.0167 308.876 47.456 309.496C48.432 310.736 49.584 312.184 50.856 313.784L54.264 318.064C54.7764 318.624 55.2369 319.229 55.64 319.872C55.0448 319.405 54.5076 318.867 54.04 318.272C53.096 317.24 51.84 315.76 50.52 314.08C49.2 312.4 48 310.848 47.2 309.704C46.7191 309.11 46.3034 308.467 45.96 307.784Z" fill="#263238"/>
<path d="M78.88 269.384C78.8912 269.48 78.8912 269.576 78.88 269.672C78.88 269.896 78.88 270.16 78.88 270.472C78.88 271.272 78.8 272.288 78.744 273.584C78.592 276.32 78.384 280.128 78.136 284.696C77.336 289.336 74.936 294.48 71.736 299.472C69.408 303.152 66.936 306.504 64.864 309.616C62.9484 312.333 61.2243 315.18 59.704 318.136C58.71 320.142 57.9065 322.236 57.304 324.392C57.096 325.152 56.944 325.752 56.856 326.16C56.8207 326.37 56.7644 326.577 56.688 326.776C56.6906 326.563 56.7147 326.352 56.76 326.144C56.816 325.728 56.944 325.12 57.12 324.344C57.6629 322.138 58.4295 319.994 59.408 317.944C60.8949 314.952 62.5981 312.072 64.504 309.328C66.592 306.192 69.024 302.84 71.344 299.184C74.544 294.208 76.848 289.144 77.744 284.576C78.064 280.024 78.328 276.216 78.544 273.48C78.648 272.184 78.736 271.144 78.792 270.376C78.792 270.056 78.856 269.784 78.88 269.576C78.8731 269.512 78.8731 269.448 78.88 269.384Z" fill="#263238"/>
<path d="M72.0001 298.56C72.0001 298.56 76.9201 286.712 70.7281 278.952C70.6801 278.89 70.6157 278.842 70.5422 278.814C70.4687 278.786 70.3889 278.78 70.3117 278.795C70.2345 278.81 70.163 278.846 70.1051 278.899C70.0473 278.952 70.0054 279.02 69.9841 279.096C69.4001 281.08 68.3841 287.2 72.0001 298.56Z" fill="#65AA4F"/>
<path d="M71.0642 283.088C71.2764 283.818 71.4078 284.569 71.4562 285.328C71.6322 286.72 71.8242 288.648 71.9762 290.784C72.1282 292.92 72.2002 294.856 72.2002 296.256C72.2495 297.016 72.2038 297.779 72.0642 298.528C71.9252 297.784 71.8582 297.029 71.8642 296.272C71.7602 294.672 71.6322 292.856 71.4962 290.816C71.3602 288.776 71.2242 286.928 71.1202 285.36C71.0269 284.607 71.0082 283.845 71.0642 283.088Z" fill="#263238"/>
<g opacity="0.3">
<path d="M72.0001 298.56C72.0001 298.56 76.9201 286.712 70.7281 278.952C70.6801 278.89 70.6157 278.842 70.5422 278.814C70.4687 278.786 70.3889 278.78 70.3117 278.795C70.2345 278.81 70.163 278.846 70.1051 278.899C70.0473 278.952 70.0054 279.02 69.9841 279.096C69.4001 281.08 68.3841 287.2 72.0001 298.56Z" fill="#DCDCDC"/>
</g>
<path d="M56.7201 327.104C56.7201 327.104 60.6641 314.904 53.8641 307.672C53.8114 307.614 53.7438 307.572 53.6688 307.551C53.5938 307.529 53.5142 307.529 53.439 307.549C53.3637 307.57 53.2955 307.611 53.2421 307.668C53.1887 307.725 53.152 307.796 53.1361 307.872C52.7441 309.888 52.2321 316.04 56.7201 327.104Z" fill="#65AA4F"/>
<path d="M54.5679 311.752C54.8397 312.464 55.0302 313.205 55.1359 313.96C55.4239 315.328 55.7759 317.232 56.1039 319.352C56.4319 321.472 56.6559 323.392 56.7679 324.792C56.8766 325.547 56.8927 326.313 56.8159 327.072C56.621 326.338 56.4925 325.589 56.4319 324.832C56.1999 323.232 55.9279 321.448 55.6319 319.424C55.3359 317.4 55.0479 315.576 54.8319 314.016C54.6697 313.272 54.5812 312.513 54.5679 311.752Z" fill="#263238"/>
<g opacity="0.3">
<path d="M56.7201 327.104C56.7201 327.104 60.6641 314.904 53.8641 307.672C53.8114 307.614 53.7438 307.572 53.6688 307.551C53.5938 307.529 53.5142 307.529 53.439 307.549C53.3637 307.57 53.2955 307.611 53.2421 307.668C53.1887 307.725 53.152 307.796 53.1361 307.872C52.7441 309.888 52.2321 316.04 56.7201 327.104Z" fill="#DCDCDC"/>
</g>
<path d="M78.2241 284.088C78.2241 284.088 88.7361 276.728 87.6721 266.856C87.6653 266.778 87.6368 266.703 87.5899 266.64C87.543 266.577 87.4795 266.528 87.4064 266.499C87.3334 266.47 87.2538 266.462 87.1764 266.475C87.099 266.489 87.0269 266.524 86.9681 266.576C85.4481 268 81.3201 272.552 78.2241 284.088Z" fill="#65AA4F"/>
<g opacity="0.3">
<path d="M78.2241 284.088C78.2241 284.088 88.7361 276.728 87.6721 266.856C87.6653 266.778 87.6368 266.703 87.5899 266.64C87.543 266.577 87.4795 266.528 87.4064 266.499C87.3334 266.47 87.2538 266.462 87.1764 266.475C87.099 266.489 87.0269 266.524 86.9681 266.576C85.4481 268 81.3201 272.552 78.2241 284.088Z" fill="#DCDCDC"/>
</g>
<path d="M85.7761 270.544C85.5638 271.273 85.2713 271.976 84.9041 272.64C84.3041 273.912 83.4321 275.64 82.4161 277.528C81.4001 279.416 80.4241 281.088 79.6641 282.272C79.3008 282.941 78.8516 283.559 78.3281 284.112C78.6167 283.41 78.9674 282.735 79.3761 282.096L81.9921 277.296L84.6001 272.496C84.9239 271.807 85.318 271.152 85.7761 270.544Z" fill="#263238"/>
<path d="M60.9521 315.008C60.9521 315.008 73.6001 313.032 77.0241 303.704C77.0524 303.63 77.0597 303.55 77.0451 303.473C77.0304 303.396 76.9945 303.324 76.9413 303.266C76.8882 303.207 76.8198 303.165 76.744 303.144C76.6682 303.122 76.5879 303.122 76.5121 303.144C74.5361 303.704 68.8001 306.016 60.9521 315.008Z" fill="#65AA4F"/>
<g opacity="0.3">
<path d="M60.9521 315.008C60.9521 315.008 73.6001 313.032 77.0241 303.704C77.0524 303.63 77.0597 303.55 77.0451 303.473C77.0304 303.396 76.9945 303.324 76.9413 303.266C76.8882 303.207 76.8198 303.165 76.744 303.144C76.6682 303.122 76.5879 303.122 76.5121 303.144C74.5361 303.704 68.8001 306.016 60.9521 315.008Z" fill="#DCDCDC"/>
</g>
<path d="M73.6959 306.176C73.1849 306.733 72.6164 307.235 71.9999 307.672C70.9039 308.552 69.3599 309.72 67.6159 310.96C65.8719 312.2 64.2559 313.28 63.0639 314.016C62.4372 314.451 61.7603 314.808 61.0479 315.08C61.6136 314.575 62.2241 314.122 62.8719 313.728L67.3439 310.576L71.7999 307.376C72.3885 306.911 73.024 306.509 73.6959 306.176Z" fill="#263238"/>
<path d="M48.864 338.336L45.168 363.216H68.208L65.216 338.336H48.864Z" fill="#455A64"/>
<path d="M66.1441 346.04C66.1441 346.176 61.9841 346.28 56.8481 346.28C51.7121 346.28 47.5601 346.176 47.5601 346.04C50.65 345.803 53.75 345.723 56.8481 345.8C59.9488 345.723 63.0514 345.803 66.1441 346.04Z" fill="#263238"/>
<path d="M66.5999 348C66.5999 348.128 62.3039 348.24 56.9999 348.24C51.6959 348.24 47.3999 348.128 47.3999 348C47.3999 347.872 51.6959 347.76 56.9999 347.76C62.3039 347.76 66.5999 347.888 66.5999 348Z" fill="#263238"/>
</svg>
