<svg width="36" height="36" viewBox="0 0 36 36" fill="none" xmlns="http://www.w3.org/2000/svg">
<path d="M19.2493 0.0578831C18.9455 0.0343926 18.4838 0.010902 18.2233 0.00307182C17.9628 -0.00475837 17.4656 0.00307182 17.1184 0.0187322C16.7711 0.0304775 16.2817 0.0657133 16.0331 0.093119C15.7845 0.11661 15.2676 0.190996 14.8887 0.253638C14.5099 0.316279 13.8864 0.445477 13.5075 0.539439C13.1287 0.633402 12.5486 0.801751 12.225 0.907458C11.8975 1.01708 11.3568 1.21675 11.0214 1.35769C10.686 1.49472 10.1769 1.72571 9.89673 1.86666C9.61654 2.00368 9.20613 2.21901 8.98909 2.3443C8.77205 2.46567 8.29455 2.76713 7.9236 3.00986C7.55266 3.2526 7.01991 3.63628 6.73973 3.86335C6.45955 4.08651 6.02151 4.45453 5.7729 4.68161C5.52429 4.90477 5.12177 5.30019 4.8771 5.55859C4.63638 5.81307 4.28122 6.21241 4.08786 6.43948C3.89844 6.67047 3.58668 7.0659 3.39726 7.32038C3.21179 7.57878 2.89609 8.04076 2.69483 8.35396C2.49752 8.66717 2.12657 9.34448 1.86612 9.86128C1.60962 10.3781 1.30181 11.0554 1.17947 11.3686C1.06109 11.6818 0.883506 12.1908 0.788797 12.504C0.69014 12.8172 0.548076 13.3457 0.469151 13.6785C0.394172 14.0113 0.29157 14.4967 0.248161 14.7551C0.204753 15.0135 0.141613 15.4559 0.106096 15.7339C0.0745265 16.0119 0.0311179 16.5796 0.0153329 16.9867C-0.00439833 17.3939 -0.00439833 18.0751 0.0113866 18.4941C0.0311179 18.913 0.0745265 19.5041 0.110043 19.8056C0.145559 20.1071 0.216591 20.5925 0.271839 20.8823C0.32314 21.172 0.441527 21.7005 0.528345 22.0568C0.619108 22.4131 0.776958 22.9651 0.887453 23.29C0.994001 23.6111 1.17158 24.0966 1.28208 24.3667C1.39257 24.6368 1.63724 25.1732 1.82666 25.5608C2.01608 25.9484 2.33967 26.5396 2.54093 26.8724C2.74613 27.2091 3.04999 27.6749 3.21574 27.9099C3.38148 28.1487 3.68929 28.5519 3.89844 28.8103C4.10759 29.0687 4.49432 29.515 4.75872 29.8048C5.02312 30.0906 5.47299 30.5369 5.75317 30.7874C6.03335 31.0419 6.43587 31.3865 6.64108 31.5548C6.84628 31.7192 7.2488 32.0168 7.52898 32.2165C7.80916 32.4122 8.22746 32.6902 8.45635 32.8311C8.68523 32.9721 9.11932 33.2187 9.42318 33.3832C9.72704 33.5437 10.2322 33.7903 10.5479 33.9313C10.8636 34.0722 11.3608 34.2719 11.6528 34.3815C11.9448 34.4872 12.3986 34.6399 12.6591 34.7143C12.9195 34.7926 13.3457 34.9061 13.6062 34.9727C13.8666 35.0353 14.3205 35.1332 14.6125 35.188C14.9045 35.2428 15.3583 35.3133 15.6188 35.3446C15.8792 35.3798 16.3765 35.4268 16.7237 35.4503C17.1065 35.4777 17.73 35.4856 18.3022 35.4738C18.8231 35.4621 19.49 35.4229 19.7821 35.3877C20.0741 35.3564 20.5358 35.2937 20.8081 35.2507C21.0804 35.2076 21.5776 35.1058 21.913 35.0314C22.2485 34.9531 22.7812 34.8122 23.0969 34.7143C23.4126 34.6203 23.8743 34.4637 24.1229 34.3698C24.3715 34.2797 24.7898 34.1114 25.0503 33.9978C25.3108 33.8843 25.6817 33.712 25.879 33.6141C26.0763 33.5202 26.4394 33.3244 26.688 33.1874C26.9366 33.0465 27.4457 32.7332 27.8127 32.4905C28.1797 32.2439 28.6808 31.8915 28.9176 31.7036C29.1544 31.5157 29.549 31.1907 29.7858 30.9793C30.0226 30.7718 30.4251 30.392 30.6737 30.1375C30.9263 29.8791 31.2893 29.4876 31.4866 29.2606C31.68 29.0335 31.972 28.6733 32.1378 28.458C32.3035 28.2426 32.5797 27.855 32.7534 27.5966C32.927 27.3382 33.2072 26.888 33.3769 26.5983C33.5505 26.3086 33.8149 25.8074 33.9728 25.4825C34.1306 25.1615 34.3753 24.6055 34.5134 24.2492C34.6555 23.893 34.8488 23.3488 34.9475 23.0356C35.0461 22.7224 35.1803 22.2486 35.2474 21.9785C35.3105 21.7083 35.4092 21.2503 35.4644 20.9606C35.5197 20.6708 35.5907 20.2284 35.6223 19.9818C35.6539 19.7351 35.7012 19.2223 35.7288 18.8464C35.7565 18.4275 35.7644 17.8246 35.7525 17.3C35.7367 16.8262 35.7091 16.2703 35.6854 16.0667C35.666 15.8661 35.6159 15.4905 35.5804 15.2248L35.5789 15.2132L35.5078 14.7356H34.3634C34.4108 14.9626 34.4581 15.3033 34.5016 15.636C34.545 15.9688 34.6002 16.5796 34.6199 16.9867C34.6476 17.4722 34.6476 17.9851 34.6199 18.4549C34.6002 18.8542 34.5647 19.3554 34.541 19.5707C34.5173 19.786 34.4542 20.2167 34.3989 20.5299C34.3476 20.8431 34.2293 21.3873 34.1424 21.7436C34.0556 22.0999 33.8859 22.6715 33.7715 23.016C33.6571 23.3605 33.4519 23.8969 33.3177 24.2101C33.1875 24.5233 32.9309 25.0597 32.7494 25.4042C32.5718 25.7487 32.2877 26.2499 32.118 26.52C31.9483 26.7901 31.6997 27.1582 31.5695 27.3422C31.4353 27.5262 31.167 27.8785 30.9657 28.1252C30.7684 28.3718 30.4093 28.7868 30.1725 29.0452C29.9318 29.3036 29.5648 29.6756 29.3478 29.8674C29.1347 30.0632 28.8308 30.3294 28.6808 30.4586C28.5309 30.5839 28.227 30.8227 28.01 30.9871C27.7929 31.1515 27.3865 31.4334 27.1023 31.6174C26.8182 31.8015 26.4118 32.0559 26.1947 32.1773C25.9777 32.3026 25.5949 32.5023 25.3463 32.6275C25.0977 32.7528 24.6517 32.9525 24.3597 33.0778C24.0677 33.1991 23.5428 33.3949 23.1956 33.5124C22.8483 33.6259 22.28 33.7942 21.9328 33.8804C21.5855 33.9665 21.0449 34.08 20.7292 34.1309C20.4135 34.1857 19.8807 34.2601 19.5453 34.2954C19.123 34.3424 18.61 34.3619 17.8879 34.3619C17.1657 34.3619 16.6527 34.3424 16.2304 34.2954C15.895 34.2601 15.3623 34.1857 15.0466 34.1309C14.7309 34.08 14.1902 33.9665 13.843 33.8804C13.4957 33.7942 12.9708 33.6494 12.6788 33.5515C12.3868 33.4575 11.9133 33.2853 11.6331 33.1757C11.3529 33.0621 10.8872 32.8624 10.607 32.7293C10.3269 32.5962 9.88094 32.3652 9.62049 32.2165C9.36004 32.0716 8.99698 31.8524 8.81151 31.7349C8.62604 31.6174 8.31034 31.406 8.10908 31.2612L7.74208 31.0028C8.21957 30.9871 8.38137 30.9715 8.40505 30.9636C8.43662 30.9519 8.33007 30.8031 8.12881 30.5839C7.94728 30.3842 7.65921 30.0436 7.48952 29.8282C7.31588 29.6129 7.03175 29.2253 6.85417 28.9669C6.67659 28.7085 6.43192 28.3209 6.30564 28.1056C6.17542 27.8903 5.92681 27.4166 5.74922 27.0485C5.57164 26.6805 5.34276 26.1637 5.24016 25.8936C5.1415 25.6234 4.97971 25.1419 4.885 24.8169C4.79029 24.4959 4.66795 24.0104 4.61271 23.7403C4.55746 23.4701 4.48643 23.0669 4.45486 22.8398C4.41934 22.6127 4.37199 22.1821 4.34831 21.8806C4.32068 21.54 4.31279 20.9684 4.32463 20.3733C4.33647 19.8448 4.37593 19.2105 4.41145 18.9639C4.44302 18.7172 4.518 18.2748 4.57324 17.9851C4.62849 17.6954 4.72715 17.2647 4.78634 17.0259C4.84948 16.7871 4.9876 16.3408 5.09809 16.0275C5.20464 15.7143 5.37433 15.268 5.47693 15.0292C5.57954 14.7904 5.76106 14.4106 5.8755 14.1757C5.99389 13.9447 6.22277 13.5336 6.38852 13.2596C6.55426 12.9816 6.81471 12.5823 6.96861 12.3669C7.12252 12.1516 7.37508 11.8149 7.52898 11.6231C7.68288 11.4312 7.97885 11.0867 8.188 10.8596C8.39321 10.6325 8.75232 10.2724 8.98514 10.057C9.22192 9.8417 9.61654 9.50109 9.87305 9.30142C10.1256 9.10175 10.5163 8.81203 10.7452 8.65543C10.9741 8.50274 11.3647 8.25609 11.6133 8.11123C11.862 7.96246 12.3 7.73146 12.5802 7.59052C12.8604 7.45349 13.3142 7.25382 13.5865 7.14812C13.8588 7.04241 14.3007 6.88189 14.573 6.79576C14.8453 6.70963 15.2439 6.59217 15.4609 6.53736C15.678 6.48255 16.1042 6.39642 16.408 6.34161L16.9605 6.23981C18.0023 6.77618 18.6021 7.10505 18.9731 7.31255C19.344 7.52396 19.6637 7.7158 19.6834 7.7393C19.7031 7.7667 19.7781 7.80977 19.8413 7.83717C19.9044 7.86849 20.1925 8.03293 20.4727 8.20911C20.7528 8.38137 21.767 9.03519 22.722 9.65769C23.677 10.2841 24.6359 10.9027 24.853 11.0358C25.07 11.1689 25.4252 11.3764 25.6422 11.5017C25.8593 11.6231 26.0645 11.7366 26.0961 11.7562C26.1276 11.7758 26.4039 11.905 26.7077 12.0459C27.0116 12.1868 27.5522 12.4178 27.9113 12.5549C28.2704 12.6958 28.7677 12.872 29.0163 12.9464C29.2649 13.0247 29.6398 13.1304 29.845 13.1852C30.0502 13.24 30.5316 13.3457 30.9105 13.4201C31.2893 13.4945 31.6839 13.565 31.7865 13.5767C31.9737 13.5999 31.9759 13.604 32.1243 13.8721L32.1299 13.8821C32.2167 14.0387 32.3035 14.1953 32.3232 14.2266C32.3469 14.2697 32.3864 14.2031 32.4732 13.976L32.5876 13.6707C32.8323 13.7059 33.44 13.7294 34.099 13.745C35.1448 13.7725 35.2908 13.7685 35.2908 13.7176C35.2908 13.6863 35.2277 13.4201 35.1487 13.1304C35.0738 12.8407 34.9277 12.363 34.8291 12.0733C34.7304 11.7836 34.5371 11.2825 34.4029 10.9575C34.2687 10.6365 34.0319 10.1236 33.878 9.82212C33.7281 9.52066 33.5032 9.09783 33.3769 8.8825C33.2506 8.66717 32.9862 8.24434 32.7849 7.94288C32.5837 7.64142 32.2838 7.21859 32.1141 7.00326C31.9483 6.78793 31.6366 6.40816 31.4235 6.16151C31.2104 5.91486 30.7447 5.42939 30.3935 5.08486C30.0384 4.73642 29.5885 4.32142 29.3912 4.1609C29.1939 4.00038 28.8584 3.73415 28.6414 3.57364C28.4243 3.4092 27.9903 3.10774 27.6746 2.90024C27.3589 2.69666 26.905 2.41868 26.6683 2.28557C26.4315 2.15246 25.9856 1.92538 25.6817 1.78052C25.3778 1.63175 24.9082 1.42425 24.6359 1.31463C24.3637 1.20892 23.9572 1.05232 23.7283 0.974015C23.4994 0.895713 23.0653 0.7626 22.7615 0.676468C22.4576 0.590336 21.9249 0.461138 21.5776 0.386751C21.2303 0.312364 20.6897 0.218402 20.374 0.175336C20.0583 0.13227 19.5532 0.0813737 19.2493 0.0578831Z" fill="#65AA4F"/>
</svg>
