<svg width="19" height="20" viewBox="0 0 19 20" fill="none" xmlns="http://www.w3.org/2000/svg">
<path d="M10.099 0.723727C9.93955 0.711403 9.69732 0.699079 9.56068 0.694971C9.42403 0.690863 9.16317 0.694971 8.98098 0.703187C8.79878 0.709349 8.54206 0.727835 8.41163 0.742213C8.28119 0.754537 8.00998 0.793564 7.81122 0.826428C7.61247 0.859292 7.28535 0.927075 7.0866 0.976371C6.88784 1.02567 6.5835 1.11399 6.41373 1.16945C6.24189 1.22696 5.95825 1.33172 5.78227 1.40566C5.60629 1.47755 5.33922 1.59874 5.19222 1.67268C5.04522 1.74457 4.82991 1.85754 4.71604 1.92327C4.60217 1.98695 4.35166 2.14511 4.15704 2.27246C3.96243 2.3998 3.68293 2.6011 3.53593 2.72023C3.38894 2.83731 3.15913 3.03039 3.0287 3.14952C2.89826 3.2666 2.68709 3.47405 2.55873 3.60962C2.43243 3.74313 2.2461 3.95264 2.14465 4.07177C2.04528 4.19296 1.88172 4.40042 1.78234 4.53393C1.68503 4.66949 1.51941 4.91187 1.41382 5.07619C1.3103 5.24051 1.11569 5.59585 0.979042 5.86698C0.844469 6.13811 0.682981 6.49346 0.6188 6.65778C0.556689 6.8221 0.463523 7.08912 0.413834 7.25344C0.362075 7.41776 0.287543 7.69506 0.246135 7.86965C0.206799 8.04424 0.152969 8.29894 0.130195 8.4345C0.107421 8.57007 0.0742957 8.80217 0.0556625 8.94801C0.0390996 9.09384 0.0163257 9.39167 0.00804425 9.60529C-0.00230754 9.81891 -0.00230754 10.1763 0.00597389 10.3961C0.0163257 10.6159 0.0390996 10.926 0.0577328 11.0842C0.0763661 11.2423 0.113632 11.497 0.142618 11.649C0.169532 11.801 0.231643 12.0783 0.277191 12.2652C0.324809 12.4522 0.407623 12.7418 0.465593 12.9123C0.521493 13.0807 0.614659 13.3354 0.672629 13.4771C0.730599 13.6188 0.858961 13.9002 0.958338 14.1036C1.05772 14.3069 1.22748 14.6171 1.33307 14.7917C1.44073 14.9683 1.60015 15.2128 1.6871 15.336C1.77406 15.4613 1.93555 15.6729 2.04528 15.8084C2.15501 15.944 2.3579 16.1781 2.49661 16.3301C2.63533 16.4801 2.87135 16.7142 3.01834 16.8457C3.16534 16.9792 3.37652 17.16 3.48417 17.2483C3.59183 17.3346 3.80301 17.4907 3.95001 17.5954C4.097 17.6981 4.31646 17.844 4.43654 17.9179C4.55662 17.9918 4.78436 18.1212 4.94378 18.2075C5.10319 18.2917 5.3682 18.4211 5.53383 18.4951C5.69946 18.569 5.96032 18.6738 6.11353 18.7313C6.26674 18.7867 6.50483 18.8668 6.64147 18.9059C6.77811 18.947 7.00171 19.0065 7.13836 19.0414C7.275 19.0743 7.51309 19.1257 7.6663 19.1544C7.8195 19.1832 8.0576 19.2201 8.19424 19.2366C8.33088 19.2551 8.59175 19.2797 8.77394 19.292C8.97476 19.3064 9.30188 19.3105 9.60208 19.3044C9.87537 19.2982 10.2253 19.2777 10.3785 19.2592C10.5317 19.2427 10.7739 19.2099 10.9168 19.1873C11.0596 19.1647 11.3205 19.1113 11.4965 19.0723C11.6724 19.0312 11.9519 18.9572 12.1176 18.9059C12.2832 18.8566 12.5254 18.7744 12.6559 18.7251C12.7863 18.6779 13.0058 18.5896 13.1424 18.53C13.279 18.4704 13.4737 18.38 13.5772 18.3287C13.6807 18.2794 13.8712 18.1767 14.0016 18.1048C14.132 18.0309 14.3991 17.8665 14.5916 17.7392C14.7842 17.6098 15.0471 17.4249 15.1713 17.3263C15.2956 17.2277 15.5026 17.0573 15.6268 16.9463C15.751 16.8375 15.9622 16.6382 16.0927 16.5047C16.2252 16.3692 16.4156 16.1638 16.5191 16.0446C16.6206 15.9255 16.7738 15.7365 16.8608 15.6236C16.9477 15.5106 17.0926 15.3072 17.1837 15.1717C17.2748 15.0361 17.4218 14.7999 17.5109 14.6479C17.6019 14.4959 17.7407 14.233 17.8235 14.0625C17.9063 13.8941 18.0347 13.6024 18.1071 13.4155C18.1816 13.2286 18.2831 12.9431 18.3349 12.7787C18.3866 12.6144 18.457 12.3659 18.4922 12.2242C18.5253 12.0824 18.5771 11.8421 18.6061 11.6901C18.6351 11.5381 18.6723 11.306 18.6889 11.1766C18.7054 11.0472 18.7303 10.7781 18.7448 10.5809C18.7593 10.3612 18.7634 10.0449 18.7572 9.76961C18.7489 9.52108 18.7344 9.22941 18.722 9.1226C18.7118 9.01746 18.6856 8.82077 18.667 8.68142L18.6661 8.67482L18.6288 8.42423H18.0284C18.0533 8.54337 18.0781 8.72206 18.1009 8.89666C18.1237 9.07125 18.1527 9.39167 18.163 9.60529C18.1775 9.85999 18.1775 10.1291 18.163 10.3755C18.1527 10.5851 18.134 10.848 18.1216 10.9609C18.1092 11.0739 18.0761 11.2999 18.0471 11.4642C18.0202 11.6285 17.958 11.914 17.9125 12.1009C17.867 12.2878 17.7779 12.5877 17.7179 12.7685C17.6578 12.9492 17.5502 13.2306 17.4798 13.395C17.4115 13.5593 17.2769 13.8407 17.1817 14.0214C17.0885 14.2022 16.9394 14.4651 16.8504 14.6068C16.7614 14.7485 16.6309 14.9416 16.5626 15.0382C16.4922 15.1347 16.3514 15.3196 16.2459 15.449C16.1423 15.5784 15.9539 15.7961 15.8297 15.9317C15.7034 16.0672 15.5109 16.2624 15.397 16.363C15.2852 16.4657 15.1258 16.6054 15.0471 16.6732C14.9685 16.7389 14.809 16.8642 14.6952 16.9505C14.5813 17.0367 14.368 17.1846 14.219 17.2812C14.0699 17.3777 13.8567 17.5112 13.7428 17.5749C13.6289 17.6406 13.4281 17.7454 13.2977 17.8111C13.1672 17.8768 12.9333 17.9816 12.7801 18.0473C12.6269 18.111 12.3515 18.2137 12.1693 18.2753C11.9871 18.3349 11.689 18.4232 11.5068 18.4684C11.3246 18.5136 11.041 18.5731 10.8754 18.5998C10.7097 18.6286 10.4302 18.6676 10.2542 18.6861C10.0327 18.7107 9.76357 18.721 9.3847 18.721C9.00582 18.721 8.73667 18.7107 8.51514 18.6861C8.33916 18.6676 8.05967 18.6286 7.89404 18.5998C7.72841 18.5731 7.44477 18.5136 7.26258 18.4684C7.08039 18.4232 6.80503 18.3472 6.65182 18.2958C6.49862 18.2465 6.25017 18.1562 6.10318 18.0986C5.95618 18.0391 5.71188 17.9343 5.56488 17.8645C5.41789 17.7947 5.18394 17.6735 5.0473 17.5954C4.91065 17.5194 4.72018 17.4044 4.62287 17.3428C4.52557 17.2812 4.35994 17.1702 4.25435 17.0942L4.0618 16.9587C4.31232 16.9505 4.3972 16.9422 4.40963 16.9381C4.42619 16.932 4.37029 16.8539 4.2647 16.7389C4.16946 16.6341 4.01833 16.4554 3.9293 16.3425C3.83821 16.2295 3.68914 16.0261 3.59597 15.8906C3.50281 15.755 3.37445 15.5517 3.30819 15.4387C3.23987 15.3257 3.10944 15.0772 3.01627 14.8841C2.92311 14.691 2.80303 14.4199 2.7492 14.2782C2.69744 14.1365 2.61255 13.8838 2.56287 13.7133C2.51318 13.5449 2.449 13.2902 2.42001 13.1485C2.39103 13.0067 2.35376 12.7952 2.3372 12.676C2.31856 12.5569 2.29372 12.331 2.2813 12.1728C2.2668 11.9941 2.26266 11.6942 2.26888 11.382C2.27509 11.1047 2.29579 10.772 2.31442 10.6426C2.33099 10.5132 2.37032 10.2811 2.39931 10.1291C2.42829 9.97707 2.48005 9.75113 2.51111 9.62583C2.54423 9.50054 2.61669 9.26638 2.67466 9.10206C2.73056 8.93774 2.81959 8.70358 2.87342 8.57828C2.92725 8.45299 3.02249 8.25375 3.08253 8.13051C3.14464 8.00932 3.26472 7.79365 3.35167 7.64987C3.43863 7.50403 3.57527 7.29452 3.65601 7.18155C3.73676 7.06858 3.86926 6.89194 3.95001 6.79129C4.03075 6.69064 4.18603 6.50989 4.29576 6.39076C4.40341 6.27162 4.59182 6.08265 4.71397 5.96968C4.83819 5.85671 5.04522 5.67801 5.1798 5.57326C5.3123 5.4685 5.51727 5.31651 5.63735 5.23435C5.75743 5.15424 5.96239 5.02484 6.09283 4.94884C6.22326 4.87079 6.45307 4.7496 6.60006 4.67565C6.74706 4.60376 6.98515 4.49901 7.12801 4.44355C7.27086 4.38809 7.50274 4.30388 7.64559 4.25869C7.78845 4.2135 7.99756 4.15188 8.11142 4.12312C8.22529 4.09437 8.44889 4.04918 8.60831 4.02042L8.89816 3.96702C9.44474 4.24842 9.75943 4.42096 9.95404 4.52982C10.1487 4.64074 10.3164 4.74138 10.3267 4.75371C10.3371 4.76808 10.3764 4.79068 10.4095 4.80506C10.4426 4.82149 10.5938 4.90776 10.7408 5.00019C10.8878 5.09057 11.4199 5.43359 11.9209 5.76017C12.4219 6.08882 12.925 6.41335 13.0389 6.48319C13.1527 6.55302 13.3391 6.66189 13.4529 6.72762C13.5668 6.79129 13.6745 6.85086 13.691 6.86113C13.7076 6.8714 13.8525 6.93918 14.0119 7.01312C14.1714 7.08707 14.455 7.20826 14.6434 7.28015C14.8318 7.35409 15.0927 7.44652 15.2231 7.48555C15.3535 7.52663 15.5502 7.58209 15.6579 7.61084C15.7655 7.6396 16.0181 7.69506 16.2169 7.73408C16.4156 7.77311 16.6227 7.81008 16.6765 7.81624C16.7747 7.82842 16.7759 7.83057 16.8537 7.97122L16.8566 7.97646C16.9022 8.05862 16.9477 8.14078 16.9581 8.15721C16.9705 8.1798 16.9912 8.14489 17.0367 8.02575L17.0968 7.86554C17.2251 7.88403 17.544 7.89635 17.8897 7.90457C18.4384 7.91894 18.515 7.91689 18.515 7.89019C18.515 7.87376 18.4818 7.73408 18.4404 7.58209C18.4011 7.43009 18.3245 7.1795 18.2727 7.0275C18.221 6.8755 18.1195 6.61259 18.0491 6.44211C17.9788 6.27368 17.8545 6.0046 17.7738 5.84644C17.6951 5.68828 17.5771 5.46645 17.5109 5.35348C17.4446 5.24051 17.3059 5.01867 17.2003 4.86052C17.0947 4.70236 16.9374 4.48052 16.8483 4.36755C16.7614 4.25458 16.5978 4.05534 16.486 3.92594C16.3742 3.79654 16.1299 3.54184 15.9457 3.36108C15.7593 3.17828 15.5233 2.96055 15.4198 2.87634C15.3163 2.79212 15.1403 2.65245 15.0264 2.56823C14.9126 2.48196 14.6848 2.32381 14.5192 2.21494C14.3536 2.10813 14.1155 1.9623 13.9912 1.89246C13.867 1.82263 13.6331 1.70349 13.4737 1.62749C13.3142 1.54944 13.0679 1.44058 12.925 1.38307C12.7822 1.32761 12.5689 1.24545 12.4488 1.20437C12.3287 1.16329 12.101 1.09345 11.9416 1.04826C11.7822 1.00307 11.5027 0.935291 11.3205 0.896265C11.1383 0.857238 10.8546 0.807942 10.689 0.785348C10.5234 0.762753 10.2584 0.736051 10.099 0.723727Z" fill="#65AA4F"/>
<path d="M10.0318 4.74126C9.85577 4.72072 9.60112 4.71045 9.34854 4.71045C9.12701 4.7125 8.87442 4.72072 8.78954 4.73099C8.70466 4.74126 8.50797 4.77207 8.35476 4.80288C8.20156 4.83164 7.96761 4.88709 7.83717 4.92817C7.70674 4.9672 7.49557 5.04115 7.37134 5.09044C7.24712 5.14179 7.03595 5.23833 6.90551 5.30817C6.77508 5.37595 6.5784 5.48892 6.47074 5.5567C6.36308 5.62654 6.18089 5.758 6.06702 5.84837C5.95315 5.9367 5.78131 6.08458 5.68607 6.17702C5.59084 6.26739 5.42314 6.44198 5.31548 6.56728C5.20782 6.69257 5.03598 6.91851 4.93453 7.07051C4.83101 7.22251 4.67574 7.49569 4.58464 7.67645C4.49562 7.8572 4.38175 8.12628 4.33206 8.27211C4.28237 8.41795 4.21612 8.63978 4.18713 8.76507C4.15608 8.89037 4.11881 9.07934 4.10018 9.18615C4.08361 9.29296 4.06084 9.52506 4.05049 9.69965C4.04014 9.88862 4.04014 10.1433 4.05049 10.3261C4.06084 10.4966 4.08775 10.7493 4.1126 10.891C4.13744 11.0327 4.18713 11.2586 4.2244 11.3942C4.26167 11.5298 4.32585 11.7331 4.36932 11.8461C4.41073 11.9591 4.51425 12.1912 4.59706 12.3596C4.68195 12.5301 4.82066 12.7745 4.90762 12.9039C4.99457 13.0333 5.13743 13.2284 5.22438 13.3353C5.30927 13.4421 5.48318 13.6331 5.60947 13.7563C5.73576 13.8816 5.91795 14.0459 6.01526 14.124C6.11257 14.202 6.30718 14.3417 6.45003 14.4362C6.59289 14.5286 6.82063 14.6621 6.95727 14.7299C7.09392 14.7998 7.29888 14.8922 7.41275 14.9353C7.52662 14.9805 7.73159 15.0504 7.86823 15.0914C8.00487 15.1325 8.23882 15.188 8.38582 15.2147C8.53282 15.2414 8.75848 15.2722 8.88271 15.2845C9.00693 15.2968 9.24088 15.3071 9.4003 15.3071C9.55971 15.3071 9.77917 15.2968 9.88683 15.2866C9.99449 15.2742 10.1725 15.2517 10.2802 15.2332C10.3879 15.2147 10.599 15.1695 10.746 15.1325C10.893 15.0955 11.1083 15.0298 11.2222 14.9887C11.3361 14.9477 11.57 14.845 11.7398 14.7628C11.9096 14.6806 12.1766 14.5286 12.3299 14.428C12.4831 14.3273 12.6984 14.1692 12.806 14.0788C12.9137 13.9884 13.1 13.8138 13.2222 13.6927C13.3423 13.5694 13.4996 13.3948 13.5721 13.3044C13.6445 13.2141 13.7667 13.0436 13.8474 12.9245C13.9261 12.8053 14.0338 12.6307 14.0855 12.5342C14.1373 12.4377 14.2242 12.2631 14.2781 12.1439C14.3298 12.0248 14.4126 11.8132 14.4603 11.6715C14.5079 11.5298 14.5679 11.3121 14.5969 11.1888C14.6259 11.0635 14.6631 10.8663 14.6797 10.7472C14.6963 10.6281 14.717 10.3754 14.7232 10.1823C14.7315 9.97489 14.7273 9.72841 14.7128 9.57641C14.7004 9.43468 14.6756 9.23133 14.6569 9.12453C14.6383 9.01772 14.5928 8.80821 14.5555 8.66237C14.5182 8.51654 14.452 8.30292 14.4106 8.18995C14.3692 8.07698 14.276 7.86336 14.2056 7.71753C14.1352 7.57169 14.0234 7.36218 13.9572 7.25537C13.8909 7.14856 13.8019 7.01095 13.7563 6.95343C13.6922 6.86511 13.6342 6.82198 13.4644 6.72749C13.3464 6.66382 13.158 6.55495 13.0441 6.48512C12.9303 6.41528 12.4272 6.09075 11.9261 5.7621C11.4251 5.43552 10.8889 5.09044 10.7357 4.99596C10.5825 4.89942 10.4231 4.8111 10.3837 4.79877C10.3444 4.78439 10.185 4.75975 10.0318 4.74126Z" fill="white"/>
<path d="M9.25016 4.14853C9.05555 4.04788 8.88785 3.96777 8.8775 3.96777C8.86714 3.96777 8.73464 3.99242 8.58764 4.01912C8.44065 4.04788 8.22533 4.09307 8.11146 4.12182C7.99759 4.15058 7.78849 4.2122 7.64563 4.25739C7.50278 4.30258 7.2709 4.38679 7.12804 4.44225C6.98519 4.49771 6.7471 4.60246 6.6001 4.67435C6.4531 4.7483 6.22329 4.86949 6.09286 4.94754C5.96243 5.02354 5.75746 5.15294 5.63738 5.23305C5.5173 5.31521 5.31234 5.4672 5.17983 5.57196C5.04526 5.67671 4.83822 5.85541 4.714 5.96838C4.59185 6.08136 4.40345 6.27032 4.29579 6.38946C4.18606 6.50859 4.03078 6.68934 3.95004 6.78999C3.8693 6.89064 3.73679 7.06728 3.65605 7.18025C3.5753 7.29322 3.43866 7.50273 3.35171 7.64857C3.26475 7.79235 3.14467 8.00802 3.08256 8.13126C3.02252 8.25245 2.92728 8.45169 2.87345 8.57698C2.81962 8.70228 2.7306 8.93644 2.6747 9.10076C2.61673 9.26508 2.54427 9.49924 2.51114 9.62453C2.48008 9.74983 2.42833 9.97577 2.39934 10.1278C2.37036 10.2798 2.33102 10.5119 2.31446 10.6413C2.29582 10.7707 2.27512 11.1034 2.26891 11.3807C2.2627 11.6929 2.26684 11.9928 2.28133 12.1715C2.29375 12.3297 2.3186 12.5556 2.33723 12.6747C2.35379 12.7939 2.39106 13.0054 2.42004 13.1472C2.44903 13.2889 2.51321 13.5436 2.5629 13.712C2.61259 13.8825 2.69747 14.1351 2.74923 14.2769C2.80306 14.4186 2.92314 14.6897 3.01631 14.8828C3.10947 15.0759 3.23991 15.3244 3.30823 15.4374C3.37448 15.5504 3.50284 15.7537 3.59601 15.8893C3.68917 16.0248 3.83824 16.2282 3.92934 16.3412C4.01836 16.4541 4.1695 16.6328 4.26473 16.7376C4.37032 16.8526 4.42622 16.9307 4.40966 16.9368C4.39724 16.9409 4.31235 16.9492 4.22333 16.9512L4.06184 16.9574C4.35997 17.1689 4.5256 17.2798 4.62291 17.3415C4.72021 17.4031 4.91069 17.5181 5.04733 17.5941C5.18397 17.6722 5.41792 17.7934 5.56492 17.8632C5.71192 17.933 5.95622 18.0378 6.10321 18.0973C6.25021 18.1549 6.49865 18.2452 6.65186 18.2945C6.80507 18.3459 7.08042 18.4219 7.26262 18.4671C7.44481 18.5123 7.72845 18.5718 7.89407 18.5985C8.0597 18.6273 8.3392 18.6663 8.51518 18.6848C8.73671 18.7094 9.00586 18.7197 9.38473 18.7197C9.76361 18.7197 10.0328 18.7094 10.2543 18.6848C10.4303 18.6663 10.7098 18.6273 10.8754 18.5985C11.041 18.5718 11.3247 18.5123 11.5069 18.4671C11.689 18.4219 11.9872 18.3336 12.1694 18.274C12.3516 18.2124 12.6269 18.1097 12.7801 18.046C12.9333 17.9803 13.1673 17.8755 13.2977 17.8098C13.4281 17.7441 13.629 17.6393 13.7428 17.5736C13.8567 17.5099 14.07 17.3764 14.219 17.2798C14.3681 17.1833 14.5813 17.0354 14.6952 16.9492C14.8091 16.8629 14.9685 16.7376 15.0472 16.6719C15.1258 16.6041 15.2853 16.4644 15.3971 16.3617C15.5109 16.2611 15.7035 16.0659 15.8298 15.9304C15.954 15.7948 16.1424 15.5771 16.2459 15.4477C16.3515 15.3183 16.4923 15.1334 16.5627 15.0369C16.631 14.9403 16.7614 14.7472 16.8504 14.6055C16.9395 14.4638 17.0885 14.2009 17.1817 14.0201C17.2769 13.8394 17.4115 13.558 17.4798 13.3937C17.5502 13.2293 17.6579 12.9479 17.7179 12.7672C17.778 12.5864 17.867 12.2865 17.9125 12.0996C17.9581 11.9127 18.0202 11.6272 18.0471 11.4629C18.0761 11.2986 18.1092 11.0726 18.1216 10.9596C18.1341 10.8467 18.1527 10.5838 18.1631 10.3742C18.1775 10.1278 18.1775 9.85869 18.1631 9.60399C18.1527 9.39037 18.1237 9.06995 18.1009 8.89536C18.0782 8.72076 18.0533 8.54207 18.045 8.49893L18.0285 8.42293C18.5916 8.42293 18.6185 8.41882 18.6185 8.38801C18.6185 8.36747 18.5999 8.2545 18.5751 8.13537L18.5316 7.9197C17.5482 7.89505 17.2252 7.88273 17.1796 7.87656L17.0968 7.86424C16.9912 8.14359 16.9705 8.1785 16.9581 8.15591C16.9478 8.13948 16.9022 8.05732 16.8567 7.97721L16.8538 7.97197C16.7759 7.82927 16.7747 7.82712 16.6765 7.81494C16.6227 7.80878 16.397 7.7677 16.1755 7.72251C15.954 7.67938 15.6227 7.60133 15.4405 7.54998C15.2583 7.49657 14.983 7.40825 14.8298 7.35074C14.6766 7.29322 14.453 7.2049 14.3329 7.15561C14.2128 7.10425 14.0348 7.02209 13.9333 6.9728C13.8339 6.9235 13.7449 6.88448 13.7346 6.88858C13.7242 6.89064 13.7801 6.98923 13.8608 7.10836C13.9395 7.2275 14.0782 7.47192 14.1673 7.65268C14.2563 7.83343 14.3639 8.07375 14.4054 8.18672C14.4488 8.29969 14.513 8.51331 14.5503 8.65914C14.5875 8.80498 14.6331 9.01449 14.6517 9.1213C14.6704 9.22811 14.6952 9.43145 14.7076 9.57318C14.7221 9.72518 14.7263 9.97166 14.718 10.1791C14.7118 10.3722 14.6911 10.6248 14.6745 10.744C14.6579 10.8631 14.6207 11.0603 14.5917 11.1856C14.5627 11.3088 14.5027 11.5265 14.455 11.6683C14.4074 11.81 14.3246 12.0216 14.2729 12.1407C14.219 12.2598 14.1321 12.4344 14.0803 12.531C14.0285 12.6275 13.9209 12.8021 13.8422 12.9212C13.7615 13.0404 13.6393 13.2108 13.5669 13.3012C13.4944 13.3916 13.337 13.5662 13.217 13.6894C13.0948 13.8106 12.9085 13.9852 12.8008 14.0756C12.6932 14.166 12.4778 14.3241 12.3246 14.4248C12.1714 14.5254 11.9044 14.6774 11.7346 14.7596C11.5628 14.8417 11.3309 14.9444 11.217 14.9855C11.1031 15.0266 10.8878 15.0923 10.7408 15.1293C10.5938 15.1663 10.3826 15.2115 10.275 15.2299C10.1673 15.2484 9.98928 15.271 9.88162 15.2833C9.77396 15.2936 9.5545 15.3039 9.39508 15.3039C9.23567 15.3039 9.00172 15.2936 8.8775 15.2813C8.75327 15.269 8.5276 15.2382 8.38061 15.2115C8.23361 15.1848 7.99966 15.1293 7.86302 15.0882C7.72638 15.0471 7.52141 14.9773 7.40754 14.9321C7.29367 14.889 7.08871 14.7965 6.95206 14.7267C6.81542 14.6589 6.58768 14.5254 6.44482 14.433C6.30197 14.3385 6.10735 14.1988 6.01005 14.1208C5.91274 14.0427 5.73055 13.8784 5.60426 13.7531C5.47797 13.6299 5.30405 13.4388 5.21917 13.332C5.13222 13.2252 4.98936 13.0301 4.90241 12.9007C4.81545 12.7713 4.67674 12.5269 4.59185 12.3564C4.50904 12.1879 4.40552 11.9558 4.36411 11.8429C4.32063 11.7299 4.25645 11.5265 4.21919 11.391C4.18192 11.2554 4.13223 11.0295 4.10739 10.8878C4.08254 10.746 4.05563 10.4872 4.04528 10.3126C4.03492 10.1237 4.03492 9.86896 4.04528 9.68615C4.05563 9.51772 4.0784 9.28973 4.09497 9.18292C4.1136 9.07611 4.15086 8.88714 4.18192 8.76185C4.21091 8.63655 4.27716 8.41472 4.32685 8.26888C4.37653 8.12305 4.4904 7.85397 4.57943 7.67322C4.67053 7.49246 4.8258 7.21928 4.92932 7.06728C5.03077 6.91529 5.20261 6.68934 5.31027 6.56405C5.41792 6.43875 5.58562 6.26416 5.68086 6.17379C5.7761 6.08136 5.94794 5.93347 6.06181 5.84514C6.17568 5.75477 6.35787 5.62331 6.46553 5.55347C6.57319 5.48569 6.76987 5.37272 6.9003 5.30494C7.03074 5.2351 7.24191 5.13856 7.36613 5.08721C7.49035 5.03792 7.70153 4.96397 7.83196 4.92494C7.9624 4.88386 8.19221 4.82841 8.3392 4.79965C8.4862 4.77089 8.71601 4.73803 8.84644 4.72365C9.00172 4.70722 9.24395 4.70311 9.54001 4.71133C9.79052 4.71954 10.0721 4.73598 10.1653 4.75035C10.2605 4.76473 10.335 4.76884 10.3309 4.76062C10.3288 4.75035 10.1632 4.64971 9.96443 4.53674C9.76568 4.42171 9.44477 4.24712 9.25016 4.14853Z" fill="#C9E00C"/>
<path d="M8.8871 1.96123C8.70491 1.93658 8.4399 1.92425 7.99685 1.92015C7.55793 1.91604 7.28878 1.9222 7.11694 1.94274C6.9803 1.95712 6.77947 1.98588 6.67182 2.00436C6.56416 2.02285 6.36333 2.06393 6.22669 2.09679C6.09005 2.1276 5.87473 2.18717 5.75051 2.22825C5.62629 2.26728 5.40683 2.34738 5.26397 2.40489C5.12112 2.46241 4.89338 2.56922 4.75674 2.63905C4.62009 2.70889 4.41099 2.82597 4.29505 2.89991C4.17703 2.9718 3.96793 3.11558 3.82921 3.21828C3.6905 3.32099 3.48761 3.48325 3.37995 3.57979C3.27229 3.67633 3.08389 3.85708 2.96173 3.98238C2.83751 4.10973 2.64704 4.3254 2.53524 4.46302C2.42344 4.60269 2.24332 4.84917 2.13359 5.01349C2.02386 5.17782 1.87687 5.41197 1.8044 5.53727C1.73194 5.66256 1.59323 5.92959 1.49385 6.13293C1.39447 6.33628 1.26197 6.63206 1.19986 6.79022C1.13775 6.94838 1.04665 7.20307 0.999034 7.35507C0.951416 7.50707 0.878954 7.77615 0.835476 7.95074C0.791999 8.12533 0.736099 8.38413 0.711255 8.52586C0.688481 8.66759 0.653285 8.9038 0.634651 9.04963C0.618089 9.19547 0.597385 9.53438 0.591174 9.79935C0.584963 10.0972 0.589104 10.4032 0.603596 10.6004C0.618089 10.775 0.642933 11.0256 0.659496 11.155C0.676059 11.2844 0.721606 11.5473 0.760943 11.7404C0.80028 11.9335 0.870672 12.219 0.91622 12.3771C0.963838 12.5353 1.02595 12.7345 1.05493 12.8188C1.08392 12.903 1.15017 13.0796 1.19986 13.209C1.25162 13.3384 1.3717 13.6075 1.46901 13.8047C1.56424 14.0019 1.72573 14.3018 1.82925 14.4722C1.9307 14.6407 2.028 14.7988 2.04457 14.8214C2.06113 14.844 2.07976 14.8584 2.08597 14.8522C2.09218 14.8461 2.06734 14.7721 2.03214 14.6879C1.99902 14.6037 1.92448 14.3962 1.86651 14.2258C1.81061 14.0573 1.73194 13.7882 1.6926 13.6301C1.65327 13.4719 1.59737 13.2172 1.57045 13.0652C1.54147 12.9132 1.50213 12.6544 1.48143 12.4901C1.45451 12.2621 1.44416 12.0423 1.44416 11.5555C1.44416 11.0687 1.45451 10.849 1.48143 10.621C1.50213 10.4566 1.54147 10.1978 1.57045 10.0458C1.59737 9.89384 1.64913 9.65352 1.68432 9.51179C1.71952 9.37006 1.78991 9.12563 1.84167 8.96747C1.89343 8.80932 1.98245 8.56489 2.03835 8.42316C2.09425 8.28143 2.20398 8.03701 2.28059 7.87885C2.35719 7.72069 2.47934 7.49064 2.54973 7.36534C2.6222 7.24005 2.75677 7.02438 2.84993 6.88265C2.9431 6.74092 3.08389 6.54168 3.16256 6.44104C3.24123 6.34039 3.37374 6.17196 3.46069 6.07131C3.54558 5.97067 3.72984 5.77143 3.86648 5.63175C4.00312 5.49208 4.21223 5.29284 4.33231 5.18809C4.45239 5.08539 4.64287 4.92723 4.75674 4.8389C4.8706 4.75058 5.1087 4.5842 5.28468 4.46918C5.46066 4.35416 5.6884 4.21243 5.79191 4.15492C5.89543 4.0974 6.12317 3.98238 6.29915 3.89816C6.47513 3.81395 6.75463 3.69276 6.92026 3.63114C7.08589 3.56952 7.27429 3.50174 7.34054 3.47914C7.40472 3.4586 7.45855 3.43806 7.45855 3.4319C7.45855 3.42574 7.33019 3.39082 7.17491 3.35385C7.01757 3.31688 6.80018 3.27169 6.69252 3.25526C6.57865 3.23677 6.3095 3.21828 6.05071 3.21212C5.71324 3.20391 5.54347 3.21007 5.353 3.23472C5.21221 3.2532 4.97412 3.29839 4.82506 3.33742C4.67392 3.37644 4.45239 3.44628 4.33231 3.49352C4.21223 3.54077 4.00934 3.6332 3.88304 3.70098C3.75468 3.76671 3.63874 3.82217 3.62839 3.82217C3.61804 3.82217 3.65737 3.77903 3.71741 3.72768C3.77538 3.67633 3.90789 3.57158 4.01141 3.49352C4.11492 3.41752 4.27641 3.30455 4.37372 3.24088C4.47103 3.17926 4.65322 3.07245 4.77744 3.00261C4.90166 2.93278 5.10249 2.83418 5.22257 2.78283C5.34265 2.72943 5.54347 2.65138 5.66769 2.60619C5.79191 2.561 5.99274 2.49938 6.11282 2.46651C6.2329 2.43365 6.42337 2.38846 6.53724 2.36587C6.65111 2.34327 6.86643 2.30836 7.01343 2.28782C7.21218 2.26317 7.43371 2.2529 7.85192 2.2529C8.18939 2.25084 8.51444 2.26111 8.64901 2.27755C8.77323 2.29192 8.99269 2.32273 9.13554 2.34533C9.2784 2.36792 9.52063 2.41311 9.67384 2.44803C9.82704 2.48089 10.1024 2.55073 10.2846 2.60208C10.4668 2.65548 10.7794 2.75613 10.9782 2.82597C11.1769 2.89786 11.4813 3.01699 11.651 3.08888C11.8229 3.16077 12.0092 3.24499 12.0651 3.27169C12.1231 3.30045 12.3777 3.39493 12.6344 3.47914C12.8912 3.56336 13.2121 3.68044 13.3487 3.74C13.4854 3.79957 13.6179 3.85503 13.6448 3.8653C13.6696 3.87557 13.6862 3.87762 13.682 3.86735C13.6779 3.85914 13.5413 3.76876 13.3777 3.66401C13.2141 3.56131 12.9636 3.40931 12.8208 3.3292C12.6779 3.24704 12.357 3.08067 12.1065 2.95948C11.856 2.83829 11.5289 2.6904 11.3819 2.63084C11.2349 2.57127 10.9864 2.47884 10.8332 2.42543C10.68 2.37203 10.4005 2.28576 10.2121 2.23236C10.0237 2.18101 9.70696 2.10706 9.50821 2.06804C9.30945 2.02901 9.02995 1.98177 8.8871 1.96123Z" fill="#C9E00C"/>
</svg>
