<svg width="39" height="32" viewBox="0 0 39 32" fill="none" xmlns="http://www.w3.org/2000/svg">
<path fill-rule="evenodd" clip-rule="evenodd" d="M33.8566 22.9259C34.2062 22.9326 34.2918 22.9416 34.4655 22.9908C34.5782 23.0221 34.7248 23.0713 34.7924 23.1004C34.8601 23.1317 34.9728 23.1921 35.1645 23.3152L35.3111 23.2302C35.3923 23.1809 35.5524 23.1071 35.6674 23.0646C35.7801 23.0199 35.9696 22.9684 36.0823 22.9483C36.2424 22.9214 36.3777 22.9147 36.6528 22.9237C36.9234 22.9326 37.0587 22.9483 37.194 22.9841C37.2932 23.0109 37.4466 23.0646 37.5323 23.1049C37.618 23.1451 37.7533 23.2257 37.8322 23.2838C37.9089 23.3398 38.0193 23.4494 38.0757 23.5255C38.1344 23.6038 38.211 23.7268 38.2448 23.8006C38.2809 23.8745 38.3305 24.0311 38.3553 24.1474C38.3982 24.3465 38.4004 24.4517 38.4004 25.8633C38.4004 27.2795 38.3982 27.369 38.3599 27.3802C38.3396 27.3846 38.2494 27.4003 38.1637 27.4159C38.078 27.4294 37.8795 27.4406 37.7239 27.4428C37.5683 27.4428 37.3902 27.4316 37.3293 27.4182C37.2662 27.4025 37.1715 27.3623 37.1151 27.3287C37.0474 27.2862 36.9911 27.2258 36.8783 27.0222L36.867 25.7358C36.858 24.7447 36.849 24.4338 36.8265 24.3823C36.8107 24.3443 36.7746 24.2906 36.7475 24.2637C36.7205 24.2347 36.6573 24.1899 36.6077 24.1631C36.5378 24.1273 36.4747 24.1161 36.3258 24.1138C36.1545 24.1138 36.1184 24.1206 35.8297 24.2593V27.369L35.7779 27.3802C35.7508 27.3846 35.6629 27.4025 35.5817 27.4159C35.5005 27.4294 35.3043 27.4428 35.142 27.4428C34.9277 27.4428 34.8127 27.4316 34.7135 27.4048C34.612 27.3734 34.5534 27.3399 34.4745 27.2593C34.3978 27.1855 34.3595 27.1229 34.3324 27.0334C34.3009 26.926 34.2963 26.7537 34.2963 25.7246C34.2963 24.7336 34.2918 24.5188 34.2625 24.4203C34.2377 24.3353 34.2061 24.2861 34.143 24.2369C34.0979 24.1989 34.0032 24.1519 33.9356 24.1317C33.8521 24.1094 33.7642 24.1004 33.665 24.1094C33.577 24.1161 33.4665 24.1429 33.2591 24.2369V25.8029C33.2591 27.275 33.2568 27.369 33.2185 27.3779C33.1982 27.3824 33.1553 27.3936 33.1238 27.4003C33.0922 27.407 32.9546 27.4227 32.8193 27.4361C32.6389 27.454 32.5126 27.454 32.3571 27.4361C32.2398 27.4227 32.1022 27.3936 32.0526 27.3712C32.003 27.3488 31.9286 27.2951 31.888 27.2504C31.8497 27.2057 31.7978 27.1296 31.7753 27.0826C31.7392 27.0065 31.7369 26.8723 31.7302 25.4674C31.7257 24.1004 31.7279 23.9214 31.7617 23.8118C31.7888 23.7201 31.8294 23.6575 31.9263 23.559C31.9963 23.4852 32.1248 23.3823 32.2105 23.3286C32.2962 23.2749 32.4563 23.1966 32.5645 23.1519C32.675 23.1093 32.8374 23.0534 32.9253 23.0288C33.0155 23.0042 33.1711 22.9706 33.2703 22.9527C33.4011 22.9281 33.5635 22.9214 33.8566 22.9259ZM0.696896 23.031C0.854745 23.031 1.01034 23.0422 1.09152 23.0624C1.16594 23.0803 1.26515 23.1205 1.31025 23.1519C1.35761 23.1832 1.42075 23.2503 1.45006 23.3017C1.48163 23.3554 1.51546 23.4583 1.52899 23.5322C1.54477 23.6217 1.55379 24.2861 1.55379 27.369L1.49065 27.3802C1.45683 27.3846 1.35761 27.4025 1.27192 27.4159C1.18397 27.4316 0.98779 27.4428 0.832195 27.4406C0.640521 27.4406 0.514241 27.4271 0.437571 27.4048C0.374431 27.3846 0.293251 27.3488 0.257171 27.322C0.218836 27.2974 0.166971 27.2437 0.139911 27.2057C0.110597 27.1654 0.0722616 27.0826 0.0497116 27.0222C0.0203966 26.9327 0.0113767 26.7851 0.00235666 26.2616C-0.00215333 25.9036 -0.00215333 25.0468 0.0203966 23.1004L0.227856 23.0668C0.342861 23.0489 0.554831 23.0333 0.696896 23.031ZM24.4826 30.2214C24.5457 30.2281 24.6224 30.2438 24.6517 30.2572C24.6788 30.2706 24.7284 30.3086 24.8231 30.4004L24.8344 30.3265C24.8479 30.2594 24.8547 30.255 24.9381 30.255C25.0125 30.255 25.0261 30.2617 25.017 30.293C25.0103 30.3154 24.9516 30.6107 24.884 30.9485C24.8163 31.2975 24.7442 31.6017 24.7194 31.6532C24.6923 31.7024 24.6337 31.7785 24.5863 31.8232C24.5367 31.8657 24.4398 31.9239 24.3699 31.9507C24.2977 31.9776 24.1917 32 24.1331 32C24.0722 32 23.9685 31.9843 23.9008 31.9642C23.8332 31.944 23.7587 31.9194 23.7385 31.9082C23.7001 31.8881 23.7001 31.8859 23.7385 31.821C23.7633 31.774 23.7881 31.7583 23.8106 31.7673C23.8287 31.7762 23.9008 31.7964 23.9685 31.8143C24.0677 31.8411 24.1173 31.8434 24.2165 31.8232C24.2842 31.8076 24.3744 31.774 24.4172 31.7472C24.4601 31.7203 24.5164 31.6577 24.5457 31.6085C24.5751 31.5592 24.6044 31.4675 24.6292 31.2952L24.5638 31.3557C24.5277 31.3892 24.4713 31.4272 24.4375 31.4384C24.4014 31.4519 24.3112 31.463 24.2346 31.463C24.1308 31.463 24.0699 31.4496 24.0023 31.4116C23.9549 31.3847 23.8895 31.3266 23.8625 31.2841C23.8332 31.2416 23.7993 31.1543 23.7858 31.0939C23.77 31.0089 23.7723 30.944 23.7948 30.8254C23.8129 30.7404 23.8444 30.6353 23.8647 30.595C23.885 30.557 23.9437 30.4764 23.9978 30.4205C24.0496 30.3623 24.1218 30.3019 24.1601 30.2818C24.1985 30.2639 24.2571 30.2393 24.2954 30.2303C24.3338 30.2192 24.4172 30.2169 24.4826 30.2214ZM24.115 30.5279C24.0699 30.5816 24.0181 30.6733 23.9978 30.7359C23.9797 30.7964 23.9617 30.9037 23.9617 30.9709C23.9617 31.0402 23.9797 31.1252 24 31.1655C24.0203 31.2058 24.0699 31.255 24.1105 31.2751C24.1601 31.2997 24.2233 31.3087 24.309 31.3042C24.4014 31.2975 24.4555 31.2796 24.5164 31.2326C24.5638 31.199 24.6247 31.1207 24.6562 31.0536C24.6878 30.991 24.7239 30.8724 24.7374 30.7919C24.7555 30.6778 24.7555 30.6263 24.7306 30.5592C24.7149 30.51 24.6765 30.4541 24.645 30.4317C24.6134 30.4093 24.548 30.3869 24.4984 30.3802C24.4488 30.3735 24.3608 30.3825 24.3022 30.4004C24.2255 30.425 24.1714 30.4608 24.115 30.5279ZM15.0725 30.2661L15.174 30.7695C15.2754 31.2527 15.28 31.2706 15.3138 31.2169C15.3341 31.1856 15.4671 30.9574 15.873 30.255H16.076L15.6227 30.9977C15.3747 31.4071 15.1424 31.7785 15.1086 31.821C15.0748 31.8635 15.0071 31.9217 14.9575 31.9485C14.9101 31.9776 14.8402 32 14.8019 32C14.7658 32 14.6959 31.9865 14.6508 31.9664C14.6035 31.9485 14.5651 31.9261 14.5651 31.915C14.5629 31.906 14.5809 31.8769 14.6035 31.8478C14.6395 31.8009 14.6508 31.7986 14.7117 31.821C14.7591 31.8366 14.7996 31.8389 14.847 31.8232C14.8853 31.8098 14.9417 31.7718 14.9733 31.7382C15.0071 31.7024 15.059 31.6331 15.0928 31.5794C15.1244 31.5279 15.1514 31.4698 15.1514 31.4519C15.1514 31.434 15.095 31.1744 15.0274 30.8747C14.9575 30.5771 14.8966 30.3154 14.8898 30.293C14.8808 30.2572 14.8921 30.2527 15.0725 30.2661Z" fill="#606062"/>
<path fill-rule="evenodd" clip-rule="evenodd" d="M0.76776 21.3538C0.788055 21.3516 0.860214 21.3628 0.925609 21.3762C0.988749 21.3896 1.0812 21.4209 1.12856 21.4433C1.17366 21.4679 1.25709 21.5305 1.31347 21.5865C1.36984 21.6424 1.43975 21.7408 1.46906 21.8035C1.49838 21.8684 1.52995 21.9713 1.53897 22.0339C1.55024 22.11 1.54122 22.1928 1.51867 22.2912C1.49838 22.3717 1.45779 22.4724 1.42847 22.5149C1.39916 22.5574 1.34278 22.6268 1.29994 22.667C1.25709 22.7095 1.17366 22.7677 1.11052 22.8013C1.02483 22.8438 0.954924 22.8594 0.81737 22.8684C0.66854 22.8751 0.612165 22.8684 0.50167 22.8259C0.404705 22.7901 0.33029 22.7409 0.24009 22.6514C0.152145 22.5641 0.100281 22.4881 0.0664556 22.3963C0.0348857 22.3136 0.0168457 22.2174 0.0168457 22.1234C0.0168457 22.0294 0.0348857 21.9332 0.0664556 21.8482C0.0980256 21.7677 0.156655 21.6782 0.228815 21.6021C0.291955 21.5373 0.38441 21.4634 0.43402 21.4388C0.48363 21.4164 0.56932 21.3874 0.625695 21.3762C0.68207 21.365 0.74521 21.356 0.76776 21.3538ZM4.54939 22.9198C4.7343 22.9176 4.93048 22.931 5.04549 22.9512C5.15147 22.9691 5.30932 23.0071 5.39501 23.0362C5.48296 23.0653 5.60473 23.1167 5.66561 23.148C5.72875 23.1794 5.81444 23.2286 5.93621 23.3136L6.15044 23.1995C6.2677 23.1391 6.44584 23.0608 6.54506 23.0272C6.64428 22.9937 6.81115 22.9534 6.91714 22.94C7.03891 22.9221 7.23058 22.9154 7.44706 22.9243C7.68383 22.931 7.83943 22.9489 7.96571 22.9825C8.06493 23.0071 8.24307 23.0764 8.36033 23.1324C8.53397 23.2174 8.60613 23.2688 8.74368 23.4075C8.86545 23.5306 8.93761 23.6246 8.99624 23.7454C9.04134 23.8371 9.09772 23.9736 9.11801 24.0474C9.15409 24.1682 9.1586 24.3293 9.16537 25.7745C9.17213 27.2779 9.16988 27.3696 9.1338 27.3786C9.11125 27.3853 9.02781 27.4009 8.94663 27.4166C8.86545 27.43 8.67378 27.4434 8.51818 27.4434C8.35808 27.4434 8.17768 27.4323 8.10101 27.4144C8.01983 27.3965 7.92963 27.3562 7.87551 27.3159C7.82139 27.2734 7.75825 27.1929 7.65001 26.9781L7.63873 25.7029C7.62746 24.4836 7.6252 24.4232 7.58236 24.3405C7.55755 24.2912 7.50118 24.2286 7.45833 24.2018C7.41549 24.1727 7.3298 24.1391 7.26666 24.1235C7.20126 24.1078 7.09754 24.1033 7.01861 24.11C6.93743 24.119 6.82694 24.1503 6.60144 24.2599V25.8148C6.60144 27.2757 6.59918 27.3696 6.5631 27.3808C6.54055 27.3853 6.45261 27.4009 6.36466 27.4166C6.27672 27.43 6.08504 27.4434 5.93621 27.4434C5.78738 27.4434 5.60473 27.43 5.53031 27.4144C5.44913 27.3965 5.35893 27.3562 5.30481 27.3159C5.25069 27.2734 5.18755 27.1929 5.07931 26.9781L5.06804 25.6917C5.05902 24.7722 5.05 24.3919 5.0297 24.3606C5.01617 24.336 4.97558 24.289 4.9395 24.2577C4.90568 24.2241 4.84028 24.1794 4.79744 24.157C4.73881 24.1257 4.66665 24.1167 4.51556 24.1145C4.33516 24.1145 4.29683 24.1212 4.02848 24.2487L4.03074 25.8081C4.03074 27.2779 4.02848 27.3696 3.9924 27.3786C3.96985 27.3853 3.89093 27.3987 3.81651 27.4121C3.7421 27.4233 3.60455 27.439 3.51209 27.4457C3.41964 27.4546 3.24826 27.4502 3.13551 27.4367C2.99344 27.4211 2.88971 27.3965 2.81304 27.3584C2.75216 27.3271 2.67549 27.2689 2.64617 27.2287C2.6146 27.1906 2.57176 27.1123 2.54921 27.0564C2.51087 26.9625 2.50862 26.8484 2.50862 25.4121C2.50862 23.8997 2.50862 23.8662 2.55597 23.7677C2.58078 23.7118 2.64166 23.6223 2.69127 23.5686C2.73863 23.5149 2.83559 23.4322 2.90324 23.3874C2.97089 23.3404 3.09943 23.2688 3.18512 23.2263C3.27306 23.1816 3.43542 23.1167 3.54592 23.0787C3.65867 23.0429 3.83004 22.9959 3.92926 22.9758C4.02848 22.9579 4.14123 22.9377 4.17731 22.9333C4.21565 22.9288 4.38252 22.9221 4.54939 22.9198ZM12.0878 22.9221C12.372 22.9176 12.5253 22.9288 12.7192 22.9601C12.8568 22.9847 13.0507 23.0295 13.1477 23.0608C13.2424 23.0943 13.4003 23.157 13.4972 23.2062C13.5919 23.2532 13.7475 23.3516 13.84 23.4232C13.9324 23.497 14.0677 23.6313 14.1399 23.723C14.2143 23.8147 14.3113 23.9668 14.3586 24.0586C14.406 24.1503 14.4646 24.2912 14.4917 24.3718C14.5187 24.4523 14.5548 24.6067 14.5728 24.7185C14.5909 24.8304 14.6067 25.0564 14.6067 25.2219C14.6067 25.3875 14.5954 25.5955 14.5841 25.6805C14.5706 25.7656 14.5413 25.9177 14.5165 26.0161C14.4894 26.1146 14.4195 26.2958 14.3586 26.4188C14.2955 26.5419 14.1918 26.7074 14.1264 26.788C14.061 26.8685 13.946 26.9826 13.8738 27.0408C13.7994 27.1012 13.6776 27.1817 13.6032 27.2242C13.5288 27.2645 13.3822 27.3294 13.2762 27.3651C13.1702 27.4009 12.9786 27.4502 12.8478 27.4703C12.6651 27.5016 12.5321 27.5061 12.2728 27.4971C12.045 27.4904 11.8849 27.4725 11.6323 27.4032L11.6188 28.8797L11.4835 28.9111C11.4001 28.9289 11.1971 28.9424 10.9536 28.9446C10.577 28.9468 10.5522 28.9446 10.4372 28.8909C10.3673 28.8596 10.2816 28.797 10.2387 28.7455C10.1982 28.6963 10.1531 28.6113 10.1373 28.5553C10.1147 28.477 10.108 27.9334 10.108 23.7789L10.1688 23.6559C10.2049 23.582 10.2793 23.4858 10.3605 23.412C10.4327 23.3471 10.568 23.2554 10.6604 23.2084C10.7529 23.1615 10.9107 23.0988 11.01 23.0675C11.1092 23.0362 11.2715 22.9959 11.3708 22.9758C11.47 22.9579 11.5872 22.9377 11.6301 22.9333C11.6729 22.9288 11.8781 22.9221 12.0878 22.9221ZM11.7744 24.1749L11.6346 24.2241L11.6301 26.1839C11.7789 26.251 11.8871 26.2823 11.9683 26.2958C12.0788 26.3159 12.1577 26.3159 12.284 26.2958C12.3765 26.2823 12.505 26.2488 12.5659 26.2197C12.629 26.1929 12.717 26.1325 12.7643 26.0877C12.8094 26.043 12.8726 25.9535 12.9042 25.8931C12.9357 25.8304 12.9786 25.7186 12.9989 25.6403C13.0259 25.5418 13.0349 25.4166 13.0349 25.2107C13.0349 25.0497 13.0237 24.8729 13.0079 24.8125C12.9944 24.7543 12.9628 24.6537 12.9402 24.5888C12.9154 24.5261 12.85 24.421 12.7959 24.3606C12.7283 24.2845 12.6516 24.2286 12.5524 24.1839C12.4329 24.1302 12.372 24.1167 12.2051 24.1123C12.0924 24.1078 11.9819 24.11 11.9571 24.1167C11.9322 24.1235 11.8488 24.1503 11.7744 24.1749ZM17.3916 22.9198C17.5607 22.9176 17.7659 22.931 17.8764 22.9512C17.9824 22.9691 18.1448 23.0093 18.2372 23.0406C18.3297 23.072 18.483 23.1391 18.5755 23.1883C18.6679 23.2398 18.81 23.3315 18.8889 23.3964C18.9701 23.459 19.0828 23.5709 19.1437 23.6447C19.2046 23.7185 19.2926 23.855 19.3399 23.9467C19.3895 24.0384 19.4527 24.1906 19.4797 24.2823C19.5226 24.421 19.5338 24.5015 19.5338 24.7409C19.5338 24.996 19.5271 25.0429 19.4842 25.1212C19.4594 25.1705 19.4076 25.2376 19.3715 25.2689C19.3377 25.3025 19.2678 25.3494 19.2181 25.374C19.1685 25.3987 19.0828 25.43 19.0265 25.4456C18.9701 25.4591 18.4311 25.5418 17.8291 25.6313C17.2247 25.7208 16.7241 25.7969 16.7151 25.8036C16.7083 25.8103 16.7061 25.8349 16.7128 25.8595C16.7196 25.8841 16.7625 25.9535 16.8121 26.0161C16.8729 26.0944 16.9451 26.1526 17.0556 26.2108C17.1413 26.2555 17.2766 26.3092 17.3578 26.3316C17.4638 26.3606 17.5878 26.3718 17.8088 26.3718C17.9756 26.3718 18.1741 26.3584 18.2485 26.3427C18.3229 26.3271 18.4537 26.2935 18.5416 26.2689C18.6296 26.2443 18.7739 26.1906 19.0265 26.072L19.1302 26.166C19.1866 26.2197 19.2587 26.3114 19.288 26.3741C19.3174 26.4345 19.3489 26.5419 19.358 26.609C19.367 26.691 19.3595 26.773 19.3354 26.8551C19.3129 26.9311 19.2655 27.0161 19.2114 27.0788C19.1618 27.137 19.058 27.213 18.9678 27.2622C18.8821 27.307 18.7468 27.3651 18.6657 27.3898C18.5845 27.4144 18.4221 27.4502 18.3049 27.4681C18.1876 27.486 17.9847 27.5083 17.8539 27.5173C17.7186 27.524 17.5043 27.5195 17.3578 27.5061C17.2157 27.4904 17.0173 27.4613 16.918 27.439C16.8188 27.4144 16.6565 27.3651 16.5572 27.3271C16.458 27.2891 16.2979 27.213 16.2032 27.1571C16.1062 27.1012 15.9507 26.9826 15.8559 26.8931C15.7612 26.8058 15.6395 26.6716 15.5876 26.5978C15.5335 26.524 15.4591 26.3987 15.4185 26.3181C15.3779 26.2376 15.3215 26.1078 15.2944 26.0273C15.2674 25.9468 15.2268 25.7767 15.2042 25.647C15.1727 25.4613 15.1659 25.336 15.1772 25.0429C15.1862 24.7722 15.202 24.6223 15.2381 24.4836C15.2629 24.3785 15.3238 24.2129 15.3711 24.1145C15.4162 24.0161 15.4884 23.8841 15.5312 23.8237C15.5741 23.761 15.644 23.6693 15.6868 23.6156C15.7319 23.5619 15.8379 23.4635 15.9258 23.3941C16.0138 23.327 16.1446 23.2375 16.219 23.195C16.2934 23.1547 16.4445 23.0899 16.5572 23.0518C16.67 23.0138 16.8369 22.9691 16.9293 22.9512C17.0218 22.9355 17.2315 22.9198 17.3916 22.9198ZM17.0082 24.1123C16.9451 24.1413 16.8481 24.2197 16.7873 24.2868C16.7151 24.3673 16.6655 24.4501 16.6339 24.5396C16.6114 24.6134 16.5911 24.7006 16.5911 24.7342C16.5911 24.7879 16.5978 24.7946 16.6429 24.7857C16.67 24.7812 17.0082 24.7253 17.3916 24.6626C17.7749 24.6 18.0929 24.544 18.0974 24.5396C18.0997 24.5329 18.0906 24.4948 18.0771 24.4546C18.0658 24.4165 18.0162 24.3337 17.9711 24.2733C17.926 24.2129 17.8471 24.1413 17.7975 24.1123C17.7479 24.0854 17.6464 24.0519 17.572 24.0384C17.4976 24.025 17.4164 24.0138 17.3916 24.0161C17.3668 24.0183 17.2969 24.0273 17.2337 24.0384C17.1729 24.0496 17.0714 24.0809 17.0082 24.1123ZM22.4428 22.9288C22.63 22.9355 22.7765 22.9512 22.8487 22.9735C22.9118 22.9937 23.002 23.0317 23.0516 23.0608C23.1012 23.0899 23.1644 23.1391 23.1914 23.1682C23.2185 23.195 23.2636 23.2688 23.2907 23.3315C23.3313 23.4187 23.3425 23.4836 23.3403 23.6223C23.3403 23.7588 23.3267 23.8371 23.2275 24.0921L22.9479 24.1078C22.7788 24.1167 22.5375 24.1481 22.3413 24.1883C22.1609 24.2264 21.9737 24.2711 21.8339 24.3203L21.8227 27.3696L21.728 27.392C21.6738 27.4032 21.5137 27.4233 21.3717 27.4367C21.1913 27.4524 21.0515 27.4546 20.9094 27.4367C20.7786 27.4233 20.6636 27.3942 20.5892 27.3584C20.5238 27.3271 20.4449 27.2689 20.4133 27.2287C20.3817 27.1906 20.3411 27.1056 20.3186 27.0452C20.2848 26.9446 20.2802 26.7835 20.2712 25.5463C20.2667 24.7834 20.2735 24.0832 20.2848 23.9915C20.296 23.8997 20.3253 23.7789 20.3524 23.723C20.3795 23.6671 20.4539 23.5686 20.5193 23.5037C20.5914 23.4322 20.7132 23.3471 20.8305 23.2867C20.9364 23.233 21.1281 23.1547 21.2589 23.11C21.3897 23.0675 21.6084 23.0138 21.7437 22.987C21.879 22.9623 22.0279 22.9377 22.0707 22.931C22.1136 22.9266 22.2827 22.9243 22.4428 22.9288ZM24.7429 23.0384C24.9819 23.0429 25.0856 23.0563 25.1713 23.0876C25.239 23.1122 25.3179 23.1659 25.3698 23.2196C25.4171 23.2688 25.4712 23.3539 25.4938 23.4098C25.5276 23.5015 25.5321 23.6872 25.5434 27.3696L25.4825 27.3808C25.4464 27.3853 25.3472 27.4032 25.2615 27.4166C25.1758 27.43 24.9864 27.4434 24.8444 27.4434C24.7023 27.4434 24.5354 27.4323 24.4723 27.4188C24.4114 27.4032 24.3144 27.3629 24.2581 27.3294C24.1904 27.2868 24.134 27.2264 24.0213 27.0229L24.01 23.0966L24.2197 23.0653C24.3483 23.0451 24.5444 23.0339 24.7429 23.0384ZM27.2234 23.0384C27.4286 23.0451 27.5955 23.0585 27.6496 23.0764C27.6992 23.0943 27.7826 23.148 27.8367 23.1973C27.9044 23.2554 27.9517 23.327 27.9811 23.4031C28.0216 23.5149 28.0239 23.591 28.0239 24.6C28.0239 25.2331 28.0329 25.7409 28.0465 25.826C28.0622 25.911 28.0961 26.0139 28.1321 26.072C28.175 26.1414 28.2314 26.1929 28.3171 26.2398C28.4298 26.3002 28.4659 26.307 28.6891 26.3137C28.8267 26.3181 28.9823 26.3114 29.0387 26.298C29.095 26.2823 29.1694 26.26 29.2664 26.2175L29.2642 23.0966L29.4175 23.0675C29.5009 23.0541 29.7354 23.0406 29.9407 23.0406C30.1752 23.0406 30.342 23.0518 30.3917 23.0675C30.4345 23.0832 30.5134 23.1257 30.5675 23.1637C30.6307 23.2084 30.6825 23.2711 30.7863 23.4881V26.6649L30.7254 26.788C30.6938 26.8551 30.6172 26.9557 30.5563 27.0117C30.4954 27.0676 30.3601 27.1549 30.2564 27.2063C30.1504 27.2578 29.9993 27.3204 29.9181 27.3473C29.8369 27.3741 29.6813 27.4144 29.5686 27.439C29.4558 27.4613 29.2439 27.4904 29.095 27.5061C28.9372 27.5195 28.7117 27.524 28.5538 27.5173C28.405 27.5083 28.1975 27.486 28.0916 27.4681C27.9856 27.4502 27.8277 27.4144 27.742 27.3875C27.6563 27.3629 27.5075 27.3047 27.4151 27.2578C27.3226 27.2108 27.185 27.128 27.1106 27.0721C27.0362 27.0184 26.928 26.9132 26.8693 26.8416C26.813 26.7678 26.725 26.6246 26.6754 26.5195C26.6258 26.4143 26.5672 26.2533 26.5446 26.1615C26.5108 26.0139 26.504 25.826 26.4973 24.5619C26.4928 23.7744 26.4973 23.1234 26.5063 23.1122C26.5153 23.1033 26.6055 23.0809 26.7047 23.063C26.8265 23.0429 26.9956 23.0339 27.2234 23.0384ZM17.6058 29.7366C17.6487 29.741 17.7298 29.7589 17.7862 29.7768C17.8426 29.7947 17.9125 29.8283 18.0004 29.8909L17.899 30.0319L17.793 29.9715C17.7253 29.9357 17.6396 29.9088 17.5607 29.9021C17.457 29.8954 17.4164 29.9044 17.3149 29.9581C17.2337 29.9983 17.1796 30.0475 17.1526 30.099C17.1278 30.1415 17.1097 30.2041 17.1097 30.2377C17.1097 30.2735 17.1345 30.3272 17.1616 30.3608C17.1909 30.3965 17.3014 30.4681 17.4051 30.5241C17.5089 30.5778 17.6284 30.6538 17.6712 30.6919C17.7118 30.7277 17.7614 30.7881 17.7817 30.8261C17.7997 30.8641 17.8155 30.938 17.8178 30.9939C17.8178 31.061 17.7997 31.1326 17.7614 31.2064C17.7231 31.2847 17.6712 31.3406 17.5945 31.3921C17.5314 31.4324 17.4412 31.4771 17.3916 31.4905C17.342 31.5017 17.2405 31.5084 17.1661 31.5017C17.0917 31.4972 16.9812 31.4704 16.918 31.4458C16.8572 31.4189 16.7805 31.372 16.6925 31.2825L16.8143 31.1617L16.8662 31.2109C16.8955 31.2377 16.9564 31.2758 17.0037 31.2937C17.0488 31.3138 17.1481 31.3295 17.2225 31.3295C17.3127 31.3295 17.3878 31.3145 17.448 31.2847C17.4976 31.2601 17.5585 31.2064 17.5833 31.1661C17.6103 31.1236 17.6284 31.0543 17.6284 30.9984C17.6284 30.9312 17.6126 30.8865 17.5765 30.8418C17.5472 30.8082 17.4367 30.7366 17.333 30.6829C17.2292 30.6292 17.112 30.5621 17.0759 30.5353C17.0398 30.5062 16.9902 30.448 16.9699 30.4033C16.9474 30.3585 16.9293 30.2802 16.9293 30.2265C16.9293 30.1751 16.9519 30.0878 16.9812 30.0319C17.0082 29.9782 17.0714 29.9044 17.121 29.8686C17.1706 29.8328 17.236 29.7947 17.2676 29.7813C17.2991 29.7701 17.369 29.7522 17.4254 29.7433C17.4818 29.7343 17.563 29.7299 17.6058 29.7366ZM13.7137 29.7634H13.7994C13.8535 29.7634 13.8851 29.7746 13.8851 29.7903C13.8851 29.8059 13.858 29.9446 13.8287 30.099C13.7971 30.2534 13.7723 30.3898 13.7723 30.401C13.7723 30.4122 13.7994 30.3965 13.8332 30.3652C13.8693 30.3317 13.9279 30.2892 13.964 30.2713C14.0001 30.2534 14.0677 30.231 14.1106 30.222C14.1557 30.2131 14.2414 30.2176 14.3135 30.2355C14.4015 30.2556 14.4601 30.2869 14.5187 30.3429C14.5751 30.401 14.6067 30.4592 14.627 30.5464C14.6473 30.6247 14.6518 30.7209 14.6428 30.8149C14.636 30.8954 14.6022 31.0163 14.5706 31.0834C14.539 31.1505 14.4714 31.2489 14.4195 31.3026C14.3676 31.3563 14.2842 31.4212 14.2346 31.4458C14.185 31.4704 14.0948 31.4972 14.0316 31.504C13.9572 31.5129 13.8851 31.504 13.8174 31.4794C13.7611 31.4615 13.6889 31.4145 13.6551 31.3764C13.6145 31.3317 13.5874 31.3183 13.5829 31.3339C13.5784 31.3496 13.5671 31.3899 13.5604 31.4234C13.5491 31.4771 13.5356 31.4861 13.4679 31.4861C13.4251 31.4861 13.389 31.4794 13.389 31.4682C13.389 31.4592 13.4611 31.0722 13.5513 30.6068L13.7137 29.7634ZM14.0362 30.401C14.0023 30.4077 13.9324 30.4525 13.8783 30.4995C13.8242 30.5487 13.7588 30.6382 13.7295 30.7075C13.7002 30.7724 13.6709 30.8887 13.6641 30.9603C13.6573 31.0565 13.6641 31.1214 13.6911 31.1796C13.7092 31.2265 13.7588 31.2825 13.7994 31.3071C13.84 31.3317 13.9144 31.3541 13.964 31.3541C14.0159 31.3541 14.097 31.3317 14.1557 31.3004C14.2098 31.2735 14.291 31.2042 14.3316 31.1505C14.3722 31.0946 14.4218 31.0006 14.4398 30.938C14.4556 30.8775 14.4714 30.7813 14.4714 30.7254C14.4714 30.6717 14.4533 30.5912 14.4308 30.5487C14.4105 30.5062 14.3654 30.4547 14.3361 30.4323C14.3045 30.4122 14.2481 30.3898 14.212 30.3831C14.1737 30.3764 14.1331 30.3742 14.1219 30.3787C14.1083 30.3831 14.07 30.3921 14.0362 30.401ZM21.4235 29.7634H21.5092C21.5566 29.7634 21.5972 29.7724 21.5972 29.7813C21.5972 29.7903 21.5363 30.1057 21.4619 30.4793C21.3874 30.8552 21.3266 31.1885 21.3266 31.2176C21.3243 31.2489 21.3378 31.287 21.3536 31.3026C21.3694 31.3183 21.401 31.3317 21.4213 31.3317C21.4461 31.3317 21.4619 31.3474 21.4619 31.3742C21.4619 31.3988 21.4551 31.4346 21.4506 31.4525C21.4438 31.4749 21.41 31.4861 21.3604 31.4861C21.3085 31.4861 21.2567 31.4682 21.2138 31.4301C21.1574 31.3854 21.1462 31.3585 21.1462 31.2802C21.1462 31.2288 21.207 30.8664 21.2837 30.4749L21.4235 29.7634ZM22.2286 29.7634L22.215 29.8462C22.206 29.8932 22.197 29.9379 22.1925 29.9469C22.188 29.9581 22.1429 29.9648 22.0031 29.9648L22.0166 29.8798C22.0234 29.835 22.0346 29.7903 22.0391 29.7791C22.0459 29.7701 22.091 29.7634 22.2286 29.7634ZM18.4965 29.8977C18.5394 29.8977 18.5755 29.9044 18.5755 29.9133C18.5732 29.9245 18.5597 29.9961 18.5416 30.0766C18.5236 30.1572 18.5101 30.2288 18.5078 30.2377C18.5078 30.2489 18.5755 30.2556 18.8122 30.2556L18.801 30.3294C18.7874 30.401 18.7874 30.401 18.474 30.4234L18.4131 30.7366C18.3793 30.9089 18.3522 31.0878 18.3522 31.1326C18.35 31.1952 18.3658 31.2333 18.4063 31.2735C18.4447 31.3116 18.4875 31.3295 18.5416 31.3295C18.6048 31.3295 18.6206 31.3384 18.6206 31.3742C18.6206 31.3988 18.6161 31.4346 18.6093 31.4525C18.6018 31.4749 18.568 31.4861 18.5078 31.4861C18.4582 31.4861 18.3793 31.4682 18.3342 31.4458C18.2778 31.4189 18.2395 31.3809 18.2102 31.3183C18.1899 31.2691 18.1696 31.193 18.1696 31.1505C18.1696 31.108 18.1944 30.9469 18.2259 30.7925C18.2575 30.6382 18.2868 30.4905 18.2936 30.4614C18.3026 30.4167 18.2958 30.4122 18.2259 30.4122C18.1786 30.4122 18.147 30.401 18.147 30.3831C18.147 30.3697 18.1515 30.3339 18.1583 30.3048C18.1673 30.2668 18.1876 30.2534 18.3364 30.2444L18.3658 30.099C18.3815 30.0185 18.3996 29.9402 18.4063 29.9245C18.4109 29.9111 18.4514 29.8977 18.4965 29.8977ZM19.6015 30.2131C19.6398 30.2131 19.7097 30.222 19.7593 30.2355C19.809 30.2489 19.8789 30.2825 19.9149 30.3093C19.9533 30.3339 20.0006 30.3965 20.0232 30.4458C20.0457 30.4972 20.0638 30.5889 20.0638 30.6583C20.0638 30.7254 20.0593 30.8037 20.0525 30.8306C20.0412 30.882 20.0412 30.882 19.0716 30.882V30.9648C19.0716 31.0118 19.0941 31.0946 19.1212 31.1482C19.1505 31.2042 19.2024 31.2691 19.2362 31.2937C19.288 31.3317 19.3354 31.3406 19.4639 31.3406C19.597 31.3406 19.6488 31.3295 19.7481 31.278C19.8157 31.2444 19.8743 31.2198 19.8743 31.2221C19.8766 31.2265 19.8901 31.2534 19.9059 31.2847C19.9307 31.3339 19.9285 31.3451 19.8924 31.372C19.8676 31.3876 19.8044 31.4234 19.7481 31.4503C19.6691 31.4861 19.6037 31.4972 19.4549 31.4972C19.3038 31.4972 19.2429 31.4861 19.173 31.4503C19.1234 31.4234 19.0535 31.3675 19.0152 31.325C18.9791 31.2802 18.934 31.2064 18.9205 31.1594C18.9047 31.1102 18.8912 31.0319 18.8912 30.9827C18.8912 30.9335 18.907 30.8373 18.9272 30.7702C18.9453 30.703 18.9972 30.5957 19.0377 30.5353C19.0806 30.4726 19.1415 30.4033 19.1776 30.3764C19.2114 30.3518 19.2768 30.3115 19.3196 30.2892C19.3625 30.2668 19.4301 30.2399 19.4662 30.231C19.5045 30.222 19.5654 30.2153 19.6015 30.2131ZM19.2272 30.5509C19.1956 30.5912 19.1573 30.6471 19.1437 30.674L19.1167 30.7254H19.8834C19.8834 30.5464 19.8698 30.5084 19.8225 30.4547C19.7684 30.3965 19.739 30.3831 19.6353 30.3742C19.5361 30.3652 19.4887 30.3742 19.3985 30.4212C19.3377 30.4502 19.2587 30.5084 19.2272 30.5509ZM23.1757 30.2131C23.2072 30.2109 23.2704 30.222 23.3177 30.2332C23.3628 30.2467 23.426 30.2847 23.4575 30.3227C23.4891 30.3608 23.5207 30.4279 23.5274 30.4726C23.5365 30.5285 23.5139 30.7053 23.4598 30.9827C23.4124 31.2176 23.3718 31.4257 23.3673 31.4458C23.3583 31.4749 23.3335 31.4861 23.2771 31.4861C23.214 31.4861 23.1982 31.4771 23.1982 31.4413C23.1982 31.4167 23.2298 31.2377 23.2659 31.0431C23.3042 30.8507 23.338 30.665 23.3448 30.6292C23.3516 30.5957 23.347 30.5397 23.3335 30.5017C23.3222 30.4637 23.2907 30.4234 23.2659 30.4122C23.2411 30.401 23.1779 30.3898 23.1261 30.3898C23.0652 30.3898 22.984 30.4122 22.9073 30.4502C22.8397 30.486 22.7607 30.542 22.7292 30.58C22.6999 30.618 22.6548 30.6851 22.6322 30.7299C22.6074 30.7769 22.5578 30.9626 22.5217 31.1438C22.4834 31.3272 22.4541 31.4771 22.4541 31.4794C22.4541 31.4838 22.4135 31.4861 22.3639 31.4861C22.2894 31.4861 22.2759 31.4794 22.2849 31.4458C22.2894 31.4257 22.3413 31.1661 22.3977 30.8708C22.4541 30.5755 22.5059 30.316 22.5127 30.2936C22.5195 30.2668 22.5443 30.2556 22.6796 30.2556L22.6683 30.3719C22.6593 30.4614 22.6615 30.4816 22.6796 30.4502C22.6908 30.4301 22.7495 30.3809 22.8104 30.3406C22.869 30.3003 22.9614 30.2556 23.0178 30.2399C23.0742 30.2265 23.1441 30.2131 23.1757 30.2131ZM21.0176 30.2332C21.0988 30.2332 21.1011 30.2355 21.0875 30.3048C21.0785 30.3451 21.0695 30.3854 21.065 30.3943C21.0605 30.4055 21.0266 30.4122 20.9883 30.4122C20.9522 30.4122 20.8936 30.4256 20.8598 30.4435C20.8237 30.4614 20.7651 30.5084 20.7245 30.5509C20.6861 30.5912 20.6275 30.674 20.5982 30.7366C20.5666 30.797 20.5328 30.8843 20.5193 30.9268C20.5057 30.9693 20.4787 31.0946 20.4584 31.2064C20.4381 31.3183 20.4178 31.4257 20.411 31.4458C20.4043 31.4749 20.3795 31.4861 20.3231 31.4861C20.2554 31.4861 20.2442 31.4794 20.2442 31.4346C20.2442 31.4078 20.2915 31.1482 20.3479 30.8596C20.4043 30.571 20.4539 30.316 20.4606 30.2936C20.4674 30.2668 20.4922 30.2556 20.6275 30.2556L20.6005 30.4905L20.6658 30.4122C20.7019 30.3697 20.7763 30.3115 20.8327 30.2847C20.8868 30.2556 20.9703 30.2332 21.0176 30.2332ZM21.9467 30.2556H22.0301C22.0775 30.2556 22.1158 30.2668 22.1158 30.278C22.1158 30.2892 22.0617 30.5666 21.879 31.4861H21.7956C21.7257 31.4861 21.7122 31.4794 21.7167 31.4458C21.7212 31.4257 21.7753 31.1482 21.8362 30.8306L21.9467 30.2556Z" fill="#606062"/>
<path d="M19.9852 0.0330761C19.8116 0.0196529 19.5477 0.00622972 19.3989 0.00175533C19.2501 -0.00271907 18.966 0.00175533 18.7675 0.0107041C18.5691 0.0174157 18.2895 0.0375505 18.1474 0.0532108C18.0053 0.066634 17.7099 0.109141 17.4934 0.144936C17.277 0.180731 16.9207 0.254558 16.7042 0.308251C16.4877 0.361944 16.1562 0.458143 15.9713 0.518548C15.7842 0.581189 15.4752 0.695286 15.2835 0.775825C15.0919 0.854127 14.801 0.986121 14.6409 1.06666C14.4808 1.14496 14.2462 1.26801 14.1222 1.3396C13.9982 1.40895 13.7253 1.58122 13.5134 1.71992C13.3014 1.85863 12.997 2.07787 12.8369 2.20763C12.6768 2.33515 12.4265 2.54545 12.2844 2.6752C12.1423 2.80272 11.9123 3.02868 11.7725 3.17634C11.635 3.32175 11.432 3.54995 11.3215 3.67971C11.2133 3.8117 11.0351 4.03766 10.9269 4.18307C10.8209 4.33073 10.6405 4.59472 10.5255 4.77369C10.4127 4.95267 10.2008 5.3397 10.052 5.63501C9.90538 5.93032 9.72949 6.31736 9.65958 6.49633C9.59193 6.67531 9.49046 6.96615 9.43634 7.14512C9.37996 7.3241 9.29878 7.62612 9.25368 7.81628C9.21084 8.00644 9.15221 8.28385 9.1274 8.43151C9.1026 8.57916 9.06652 8.83197 9.04622 8.99081C9.02818 9.14965 9.00338 9.47404 8.99436 9.70671C8.98308 9.93938 8.98308 10.3287 8.9921 10.568C9.00338 10.8074 9.02818 11.1452 9.04848 11.3175C9.06877 11.4898 9.10936 11.7672 9.14093 11.9327C9.17025 12.0983 9.2379 12.4003 9.28751 12.6039C9.33937 12.8075 9.42957 13.1229 9.49271 13.3086C9.5536 13.492 9.65507 13.7695 9.71821 13.9238C9.78135 14.0782 9.92116 14.3847 10.0294 14.6062C10.1376 14.8277 10.3226 15.1655 10.4376 15.3556C10.5548 15.548 10.7284 15.8143 10.8232 15.9485C10.9179 16.085 11.0938 16.3154 11.2133 16.463C11.3328 16.6107 11.5538 16.8657 11.7049 17.0313C11.8559 17.1946 12.113 17.4496 12.2731 17.5928C12.4332 17.7382 12.6632 17.9351 12.7805 18.0313C12.8978 18.1253 13.1278 18.2953 13.2879 18.4094C13.448 18.5213 13.687 18.6801 13.8178 18.7606C13.9486 18.8412 14.1966 18.9821 14.3703 19.0761C14.5439 19.1678 14.8325 19.3088 15.0129 19.3893C15.1933 19.4698 15.4775 19.5839 15.6443 19.6466C15.8112 19.707 16.0705 19.7942 16.2194 19.8367C16.3682 19.8815 16.6117 19.9464 16.7606 19.9844C16.9094 20.0202 17.1687 20.0761 17.3356 20.1074C17.5025 20.1388 17.7618 20.179 17.9106 20.1969C18.0594 20.2171 18.3436 20.2439 18.542 20.2573C18.7607 20.273 19.117 20.2775 19.444 20.2708C19.7417 20.264 20.1228 20.2417 20.2896 20.2215C20.4565 20.2036 20.7203 20.1678 20.8759 20.1432C21.0315 20.1186 21.3157 20.0605 21.5073 20.0179C21.699 19.9732 22.0034 19.8927 22.1838 19.8367C22.3642 19.783 22.6281 19.6936 22.7701 19.6399C22.9122 19.5884 23.1512 19.4922 23.3001 19.4273C23.4489 19.3624 23.6609 19.264 23.7736 19.2081C23.8864 19.1544 24.0938 19.0425 24.2359 18.9642C24.3779 18.8837 24.6688 18.7047 24.8786 18.566C25.0883 18.4251 25.3746 18.2237 25.5099 18.1163C25.6452 18.0089 25.8707 17.8233 26.006 17.7024C26.1413 17.5839 26.3714 17.3669 26.5134 17.2215C26.6577 17.0738 26.8652 16.8501 26.978 16.7203C27.0884 16.5906 27.2553 16.3847 27.35 16.2617C27.4447 16.1386 27.6026 15.9172 27.7018 15.7695C27.801 15.6219 27.9611 15.3646 28.0581 15.199C28.1573 15.0335 28.3084 14.7471 28.3986 14.5614C28.4888 14.378 28.6286 14.0603 28.7075 13.8567C28.7887 13.6531 28.8992 13.3422 28.9556 13.1632C29.012 12.9842 29.0886 12.7135 29.127 12.5591C29.163 12.4048 29.2194 12.143 29.251 11.9775C29.2826 11.8119 29.3231 11.5591 29.3412 11.4182C29.3592 11.2772 29.3863 10.9841 29.4021 10.7694C29.4179 10.53 29.4224 10.1855 29.4156 9.88569C29.4066 9.61499 29.3908 9.2973 29.3773 9.18097C29.3662 9.06637 29.3375 8.85191 29.3173 8.70011L29.3164 8.69326L29.2758 8.42032H28.6218C28.6489 8.55008 28.676 8.74472 28.7008 8.93488C28.7256 9.12504 28.7571 9.47404 28.7684 9.70671C28.7842 9.98412 28.7842 10.2772 28.7684 10.5457C28.7571 10.7739 28.7368 11.0602 28.7233 11.1833C28.7098 11.3063 28.6737 11.5524 28.6421 11.7314C28.6128 11.9103 28.5452 12.2213 28.4956 12.4249C28.446 12.6285 28.349 12.9551 28.2836 13.152C28.2182 13.3489 28.1009 13.6554 28.0243 13.8343C27.9499 14.0133 27.8033 14.3198 27.6996 14.5167C27.5981 14.7136 27.4357 14.9999 27.3388 15.1543C27.2418 15.3087 27.0997 15.5189 27.0253 15.6241C26.9486 15.7292 26.7953 15.9306 26.6803 16.0715C26.5675 16.2125 26.3623 16.4496 26.227 16.5973C26.0895 16.7449 25.8798 16.9575 25.7557 17.0671C25.634 17.1789 25.4603 17.3311 25.3746 17.4049C25.289 17.4765 25.1153 17.613 24.9913 17.7069C24.8673 17.8009 24.635 17.962 24.4727 18.0671C24.3103 18.1723 24.078 18.3177 23.954 18.387C23.83 18.4586 23.6112 18.5727 23.4692 18.6443C23.3271 18.7159 23.0723 18.83 22.9054 18.9016C22.7386 18.9709 22.4386 19.0828 22.2402 19.1499C22.0418 19.2148 21.717 19.311 21.5186 19.3602C21.3202 19.4094 21.0112 19.4743 20.8308 19.5034C20.6504 19.5347 20.346 19.5772 20.1543 19.5974C19.913 19.6242 19.6199 19.6354 19.2072 19.6354C18.7946 19.6354 18.5014 19.6242 18.2601 19.5974C18.0685 19.5772 17.764 19.5347 17.5836 19.5034C17.4032 19.4743 17.0943 19.4094 16.8959 19.3602C16.6974 19.311 16.3975 19.2282 16.2306 19.1723C16.0638 19.1186 15.7932 19.0202 15.6331 18.9575C15.473 18.8926 15.2069 18.7785 15.0468 18.7025C14.8867 18.6264 14.6318 18.4944 14.483 18.4094C14.3342 18.3266 14.1267 18.2013 14.0207 18.1342C13.9148 18.0671 13.7344 17.9463 13.6194 17.8635L13.4096 17.7159C13.6825 17.7069 13.7749 17.698 13.7885 17.6935C13.8065 17.6868 13.7456 17.6018 13.6306 17.4765C13.5269 17.3624 13.3623 17.1678 13.2653 17.0447C13.1661 16.9217 13.0037 16.7002 12.9023 16.5525C12.8008 16.4049 12.661 16.1834 12.5888 16.0603C12.5144 15.9373 12.3723 15.6666 12.2709 15.4563C12.1694 15.246 12.0386 14.9507 11.98 14.7963C11.9236 14.642 11.8311 14.3668 11.777 14.1811C11.7229 13.9977 11.653 13.7202 11.6214 13.5659C11.5899 13.4115 11.5493 13.1811 11.5312 13.0513C11.5109 12.9216 11.4839 12.6755 11.4703 12.5032C11.4546 12.3086 11.45 11.9819 11.4568 11.6419C11.4636 11.3399 11.4861 10.9774 11.5064 10.8365C11.5245 10.6956 11.5673 10.4427 11.5989 10.2772C11.6304 10.1116 11.6868 9.86555 11.7206 9.72908C11.7567 9.59261 11.8357 9.33757 11.8988 9.1586C11.9597 8.97962 12.0566 8.72458 12.1153 8.58811C12.1739 8.45164 12.2776 8.23464 12.343 8.1004C12.4107 7.96841 12.5415 7.7335 12.6362 7.5769C12.7309 7.41806 12.8797 7.18987 12.9677 7.06682C13.0556 6.94377 13.1999 6.75138 13.2879 6.64175C13.3758 6.53213 13.5449 6.33526 13.6645 6.2055C13.7817 6.07574 13.9869 5.86992 14.12 5.74687C14.2553 5.62383 14.4808 5.42919 14.6273 5.3151C14.7717 5.201 14.9949 5.03545 15.1257 4.94596C15.2565 4.85871 15.4797 4.71776 15.6218 4.63499C15.7639 4.54997 16.0142 4.41798 16.1743 4.33744C16.3344 4.25914 16.5937 4.14504 16.7493 4.08464C16.9049 4.02423 17.1574 3.93251 17.313 3.88329C17.4686 3.83407 17.6964 3.76696 17.8204 3.73564C17.9444 3.70431 18.188 3.6551 18.3616 3.62378L18.6773 3.56561C19.2726 3.8721 19.6154 4.06003 19.8274 4.1786C20.0393 4.29941 20.222 4.40903 20.2333 4.42245C20.2445 4.43812 20.2874 4.46272 20.3235 4.47838C20.3595 4.49628 20.5242 4.59024 20.6843 4.69092C20.8444 4.78935 21.4239 5.16297 21.9696 5.51868C22.5153 5.87663 23.0633 6.23011 23.1873 6.30617C23.3113 6.38224 23.5143 6.50081 23.6383 6.5724C23.7623 6.64175 23.8796 6.70663 23.8976 6.71782C23.9157 6.729 24.0735 6.80283 24.2472 6.88337C24.4208 6.96391 24.7297 7.0959 24.9349 7.17421C25.1401 7.25474 25.4243 7.35542 25.5663 7.39792C25.7084 7.44267 25.9226 7.50307 26.0399 7.53439C26.1571 7.56571 26.4322 7.62612 26.6487 7.66863C26.8652 7.71113 27.0907 7.7514 27.1493 7.75811C27.2563 7.77137 27.2576 7.77372 27.3424 7.9269L27.3455 7.93261C27.3951 8.0221 27.4447 8.11159 27.456 8.12949C27.4695 8.1541 27.4921 8.11607 27.5417 7.98631L27.6071 7.81181C27.7469 7.83194 28.0942 7.84536 28.4708 7.85431C29.0683 7.86997 29.1518 7.86774 29.1518 7.83865C29.1518 7.82075 29.1157 7.66863 29.0706 7.50307C29.0277 7.33752 28.9443 7.06458 28.8879 6.89903C28.8316 6.73348 28.7211 6.44712 28.6444 6.26143C28.5677 6.07798 28.4324 5.78491 28.3445 5.61264C28.2588 5.44038 28.1303 5.19876 28.0581 5.07572C27.9859 4.95267 27.8349 4.71105 27.7198 4.53879C27.6048 4.36652 27.4335 4.12491 27.3365 4.00186C27.2418 3.87882 27.0636 3.66181 26.9419 3.52086C26.8201 3.37992 26.554 3.10251 26.3533 2.90564C26.1504 2.70653 25.8933 2.46938 25.7805 2.37766C25.6678 2.28593 25.4761 2.1338 25.3521 2.04208C25.2281 1.94812 24.98 1.77585 24.7996 1.65728C24.6192 1.54095 24.3599 1.38211 24.2246 1.30604C24.0893 1.22998 23.8345 1.10022 23.6609 1.01744C23.4872 0.932429 23.2189 0.813857 23.0633 0.751216C22.9077 0.690812 22.6754 0.601324 22.5446 0.55658C22.4138 0.511836 22.1658 0.435771 21.9922 0.386553C21.8185 0.337335 21.5141 0.263507 21.3157 0.221001C21.1172 0.178494 20.8083 0.124801 20.6279 0.100192C20.4475 0.0755828 20.1588 0.0464992 19.9852 0.0330761Z" fill="#65AA4F"/>
<path d="M19.9128 4.4066C19.7211 4.38423 19.4438 4.37305 19.1686 4.37305C18.9274 4.37528 18.6522 4.38423 18.5598 4.39542C18.4673 4.4066 18.2531 4.44016 18.0862 4.47372C17.9194 4.50504 17.6646 4.56545 17.5225 4.61019C17.3804 4.6527 17.1504 4.73324 17.0151 4.78693C16.8798 4.84286 16.6498 4.94801 16.5077 5.02407C16.3657 5.0979 16.1515 5.22094 16.0342 5.29477C15.9169 5.37084 15.7185 5.51402 15.5945 5.61245C15.4704 5.70865 15.2833 5.86973 15.1796 5.9704C15.0758 6.06884 14.8932 6.259 14.7759 6.39547C14.6586 6.53194 14.4715 6.77803 14.361 6.94358C14.2482 7.10914 14.0791 7.40668 13.9799 7.60356C13.8829 7.80043 13.7589 8.0935 13.7048 8.25234C13.6507 8.41118 13.5785 8.6528 13.5469 8.78927C13.5131 8.92574 13.4725 9.13156 13.4522 9.24789C13.4342 9.36423 13.4094 9.61703 13.3981 9.80719C13.3868 10.013 13.3868 10.2904 13.3981 10.4895C13.4094 10.6752 13.4387 10.9504 13.4658 11.1048C13.4928 11.2591 13.5469 11.5052 13.5875 11.6529C13.6281 11.8005 13.698 12.022 13.7454 12.1451C13.7905 12.2681 13.9032 12.5209 13.9934 12.7044C14.0859 12.89 14.237 13.1563 14.3317 13.2972C14.4264 13.4382 14.582 13.6507 14.6767 13.767C14.7691 13.8834 14.9586 14.0914 15.0961 14.2257C15.2337 14.3621 15.4321 14.5411 15.5381 14.6261C15.6441 14.7111 15.8561 14.8633 16.0116 14.9662C16.1672 15.0668 16.4153 15.2123 16.5641 15.2861C16.713 15.3621 16.9362 15.4628 17.0602 15.5098C17.1842 15.559 17.4075 15.6351 17.5563 15.6798C17.7051 15.7246 17.96 15.785 18.1201 15.8141C18.2802 15.8431 18.526 15.8767 18.6613 15.8901C18.7966 15.9036 19.0514 15.9147 19.225 15.9147C19.3987 15.9147 19.6377 15.9036 19.7549 15.8924C19.8722 15.8789 20.0661 15.8543 20.1834 15.8342C20.3007 15.8141 20.5307 15.7648 20.6908 15.7246C20.8509 15.6843 21.0854 15.6127 21.2094 15.568C21.3334 15.5232 21.5883 15.4114 21.7732 15.3219C21.9581 15.2324 22.249 15.0668 22.4158 14.9572C22.5827 14.8476 22.8172 14.6753 22.9345 14.5769C23.0517 14.4785 23.2547 14.2883 23.3877 14.1563C23.5185 14.0221 23.6899 13.8319 23.7688 13.7335C23.8478 13.635 23.9808 13.4493 24.0688 13.3196C24.1544 13.1898 24.2717 12.9997 24.3281 12.8945C24.3844 12.7894 24.4792 12.5992 24.5378 12.4695C24.5942 12.3397 24.6844 12.1093 24.7362 11.9549C24.7881 11.8005 24.8535 11.5634 24.8851 11.4292C24.9166 11.2927 24.9572 11.0779 24.9753 10.9482C24.9933 10.8184 25.0158 10.5432 25.0226 10.3329C25.0316 10.107 25.0271 9.83851 25.0113 9.67296C24.9978 9.5186 24.9707 9.29711 24.9505 9.18078C24.9302 9.06445 24.8805 8.83625 24.84 8.67741C24.7994 8.51857 24.7272 8.2859 24.6821 8.16286C24.637 8.03981 24.5355 7.80714 24.4589 7.6483C24.3822 7.48946 24.2604 7.26127 24.1883 7.14493C24.1161 7.0286 24.0191 6.87871 23.9695 6.81606C23.8996 6.71986 23.8365 6.67288 23.6516 6.56997C23.523 6.50062 23.3178 6.38205 23.1938 6.30598C23.0698 6.22992 22.5218 5.87644 21.9761 5.51849C21.4304 5.16278 20.8464 4.78693 20.6795 4.68402C20.5126 4.57887 20.339 4.48267 20.2961 4.46925C20.2533 4.45359 20.0797 4.42674 19.9128 4.4066Z" fill="white"/>
<path d="M19.0615 3.76523C18.8495 3.65561 18.6669 3.56836 18.6556 3.56836C18.6443 3.56836 18.5 3.59521 18.3399 3.62429C18.1798 3.65561 17.9453 3.70483 17.8212 3.73615C17.6972 3.76747 17.4695 3.83459 17.3139 3.8838C17.1583 3.93302 16.9057 4.02475 16.7501 4.08515C16.5945 4.14556 16.3352 4.25965 16.1751 4.33795C16.015 4.41849 15.7647 4.55049 15.6226 4.6355C15.4805 4.71828 15.2573 4.85922 15.1265 4.94647C14.9957 5.03596 14.7725 5.20151 14.6282 5.31561C14.4816 5.42971 14.2561 5.62434 14.1208 5.74739C13.9877 5.87043 13.7825 6.07626 13.6653 6.20601C13.5458 6.33577 13.3766 6.53264 13.2887 6.64227C13.2007 6.75189 13.0564 6.94429 12.9685 7.06733C12.8805 7.19038 12.7317 7.41857 12.637 7.57741C12.5423 7.73402 12.4115 7.96892 12.3438 8.10315C12.2785 8.23515 12.1747 8.45216 12.1161 8.58863C12.0575 8.72509 11.9605 8.98013 11.8996 9.15911C11.8365 9.33809 11.7575 9.59313 11.7215 9.7296C11.6876 9.86606 11.6313 10.1122 11.5997 10.2777C11.5681 10.4433 11.5253 10.6961 11.5072 10.837C11.4869 10.978 11.4644 11.3404 11.4576 11.6424C11.4509 11.9825 11.4554 12.3091 11.4712 12.5037C11.4847 12.676 11.5118 12.9221 11.532 13.0518C11.5501 13.1816 11.5907 13.412 11.6222 13.5664C11.6538 13.7208 11.7237 13.9982 11.7778 14.1816C11.832 14.3673 11.9244 14.6425 11.9808 14.7968C12.0394 14.9512 12.1702 15.2465 12.2717 15.4568C12.3732 15.6671 12.5152 15.9378 12.5896 16.0609C12.6618 16.1839 12.8016 16.4054 12.9031 16.553C13.0046 16.7007 13.1669 16.9222 13.2661 17.0452C13.3631 17.1683 13.5277 17.3629 13.6315 17.477C13.7465 17.6023 13.8073 17.6873 13.7893 17.694C13.7758 17.6985 13.6833 17.7074 13.5864 17.7097L13.4105 17.7164C13.7352 17.9468 13.9156 18.0676 14.0216 18.1347C14.1276 18.2019 14.335 18.3271 14.4838 18.4099C14.6327 18.4949 14.8875 18.6269 15.0476 18.703C15.2077 18.7791 15.4738 18.8931 15.6339 18.958C15.794 19.0207 16.0646 19.1191 16.2315 19.1728C16.3983 19.2287 16.6982 19.3115 16.8967 19.3607C17.0951 19.4099 17.4041 19.4748 17.5845 19.5039C17.7649 19.5352 18.0693 19.5777 18.261 19.5979C18.5022 19.6247 18.7954 19.6359 19.2081 19.6359C19.6207 19.6359 19.9139 19.6247 20.1552 19.5979C20.3468 19.5777 20.6513 19.5352 20.8317 19.5039C21.0121 19.4748 21.321 19.4099 21.5194 19.3607C21.7179 19.3115 22.0426 19.2153 22.241 19.1504C22.4395 19.0833 22.7394 18.9714 22.9063 18.9021C23.0731 18.8305 23.3279 18.7164 23.47 18.6448C23.6121 18.5732 23.8308 18.4591 23.9548 18.3875C24.0789 18.3182 24.3111 18.1728 24.4735 18.0676C24.6358 17.9625 24.8681 17.8014 24.9921 17.7074C25.1162 17.6135 25.2898 17.477 25.3755 17.4054C25.4612 17.3316 25.6348 17.1795 25.7566 17.0676C25.8806 16.958 26.0903 16.7454 26.2279 16.5978C26.3632 16.4501 26.5684 16.213 26.6811 16.072C26.7961 15.9311 26.9495 15.7298 27.0261 15.6246C27.1005 15.5195 27.2426 15.3092 27.3396 15.1548C27.4365 15.0004 27.5989 14.7141 27.7004 14.5172C27.8041 14.3203 27.9507 14.0138 28.0251 13.8348C28.1018 13.6559 28.219 13.3494 28.2844 13.1525C28.3498 12.9556 28.4468 12.629 28.4964 12.4254C28.546 12.2218 28.6137 11.9109 28.643 11.7319C28.6745 11.5529 28.7106 11.3068 28.7241 11.1838C28.7377 11.0607 28.758 10.7744 28.7692 10.5462C28.785 10.2777 28.785 9.98464 28.7692 9.70722C28.758 9.47456 28.7264 9.12555 28.7016 8.93539C28.6768 8.74523 28.6497 8.55059 28.6407 8.50361L28.6227 8.42084C29.236 8.42084 29.2653 8.41636 29.2653 8.3828C29.2653 8.36043 29.2451 8.23739 29.218 8.10763L29.1706 7.87272C28.0995 7.84588 27.7477 7.83245 27.6981 7.82574L27.6079 7.81232C27.4929 8.11658 27.4704 8.15461 27.4568 8.13C27.4456 8.1121 27.396 8.02262 27.3463 7.93536L27.3432 7.92966C27.2584 7.77423 27.2571 7.77189 27.1502 7.75863C27.0915 7.75191 26.8457 7.70717 26.6044 7.65795C26.3632 7.61097 26.0024 7.52596 25.8039 7.47003C25.6055 7.41186 25.3056 7.31566 25.1387 7.25302C24.9718 7.19038 24.7283 7.09418 24.5975 7.04049C24.4667 6.98456 24.2728 6.89507 24.1623 6.84138C24.054 6.78768 23.9571 6.74518 23.9458 6.74965C23.9345 6.75189 23.9954 6.85927 24.0834 6.98903C24.1691 7.11879 24.3201 7.38501 24.4171 7.58189C24.5141 7.77876 24.6313 8.04051 24.6764 8.16356C24.7238 8.2866 24.7937 8.51927 24.8343 8.67811C24.8749 8.83695 24.9245 9.06515 24.9448 9.18148C24.9651 9.29782 24.9921 9.5193 25.0057 9.67367C25.0214 9.83922 25.026 10.1077 25.0169 10.3336C25.0102 10.5439 24.9876 10.8191 24.9696 10.9489C24.9515 11.0786 24.9109 11.2934 24.8794 11.4299C24.8478 11.5641 24.7824 11.8012 24.7305 11.9556C24.6787 12.11 24.5885 12.3404 24.5321 12.4702C24.4735 12.5999 24.3788 12.7901 24.3224 12.8952C24.266 13.0004 24.1488 13.1905 24.0631 13.3203C23.9751 13.4501 23.8421 13.6357 23.7632 13.7342C23.6842 13.8326 23.5128 14.0228 23.3821 14.157C23.249 14.289 23.0461 14.4792 22.9288 14.5776C22.8115 14.676 22.577 14.8483 22.4102 14.9579C22.2433 15.0675 21.9524 15.2331 21.7675 15.3226C21.5803 15.4121 21.3278 15.5239 21.2037 15.5687C21.0797 15.6134 20.8452 15.685 20.6851 15.7253C20.525 15.7655 20.295 15.8148 20.1777 15.8349C20.0604 15.855 19.8665 15.8796 19.7493 15.8931C19.632 15.9043 19.393 15.9154 19.2193 15.9154C19.0457 15.9154 18.7909 15.9043 18.6556 15.8908C18.5203 15.8774 18.2745 15.8439 18.1144 15.8148C17.9543 15.7857 17.6995 15.7253 17.5506 15.6805C17.4018 15.6358 17.1786 15.5597 17.0545 15.5105C16.9305 15.4635 16.7073 15.3629 16.5584 15.2868C16.4096 15.213 16.1616 15.0675 16.006 14.9669C15.8504 14.864 15.6384 14.7118 15.5324 14.6268C15.4264 14.5418 15.228 14.3628 15.0904 14.2264C14.9529 14.0921 14.7635 13.8841 14.671 13.7677C14.5763 13.6514 14.4207 13.4389 14.326 13.2979C14.2313 13.157 14.0802 12.8908 13.9877 12.7051C13.8975 12.5216 13.7848 12.2688 13.7397 12.1458C13.6923 12.0227 13.6224 11.8012 13.5818 11.6536C13.5413 11.5059 13.4871 11.2598 13.4601 11.1055C13.433 10.9511 13.4037 10.6692 13.3924 10.4791C13.3811 10.2732 13.3811 9.99582 13.3924 9.79671C13.4037 9.61326 13.4285 9.36493 13.4465 9.2486C13.4668 9.13226 13.5074 8.92644 13.5413 8.78997C13.5728 8.6535 13.645 8.41189 13.6991 8.25305C13.7532 8.09421 13.8772 7.80113 13.9742 7.60426C14.0734 7.40739 14.2426 7.10984 14.3553 6.94429C14.4658 6.77873 14.653 6.53264 14.7702 6.39617C14.8875 6.25971 15.0701 6.06954 15.1739 5.97111C15.2776 5.87043 15.4648 5.70936 15.5888 5.61316C15.7128 5.51472 15.9113 5.37154 16.0285 5.29547C16.1458 5.22165 16.36 5.0986 16.5021 5.02477C16.6441 4.94871 16.8741 4.84356 17.0094 4.78763C17.1447 4.73394 17.3747 4.6534 17.5168 4.61089C17.6589 4.56615 17.9092 4.50574 18.0693 4.47442C18.2294 4.4431 18.4797 4.40731 18.6218 4.39165C18.7909 4.37375 19.0547 4.36928 19.3772 4.37822C19.65 4.38717 19.9567 4.40507 20.0582 4.42073C20.1619 4.43639 20.2431 4.44087 20.2386 4.43192C20.2363 4.42073 20.0559 4.31111 19.8395 4.18806C19.623 4.06278 19.2735 3.87262 19.0615 3.76523Z" fill="#C9E00C"/>
<path d="M18.6653 1.38199C18.4668 1.35514 18.1782 1.34172 17.6956 1.33725C17.2176 1.33277 16.9244 1.33948 16.7373 1.36186C16.5884 1.37752 16.3697 1.40884 16.2524 1.42897C16.1352 1.44911 15.9164 1.49385 15.7676 1.52964C15.6188 1.5632 15.3843 1.62808 15.249 1.67283C15.1137 1.71533 14.8746 1.80258 14.719 1.86522C14.5634 1.92787 14.3154 2.0442 14.1666 2.12026C14.0177 2.19633 13.79 2.32385 13.6637 2.40439C13.5352 2.48269 13.3074 2.63929 13.1563 2.75115C13.0052 2.86301 12.7842 3.03975 12.667 3.1449C12.5497 3.25005 12.3445 3.44692 12.2115 3.58339C12.0762 3.7221 11.8687 3.957 11.747 4.10689C11.6252 4.25902 11.429 4.52749 11.3095 4.70646C11.19 4.88544 11.0299 5.14048 10.9509 5.27695C10.872 5.41342 10.7209 5.70425 10.6127 5.92573C10.5044 6.14722 10.3601 6.46937 10.2925 6.64164C10.2248 6.8139 10.1256 7.09131 10.0737 7.25687C10.0219 7.42242 9.94295 7.71549 9.8956 7.90565C9.84824 8.09581 9.78736 8.3777 9.7603 8.53207C9.73549 8.68643 9.69716 8.94371 9.67686 9.10255C9.65882 9.26139 9.63627 9.63053 9.62951 9.91913C9.62274 10.2435 9.62725 10.5769 9.64304 10.7916C9.65882 10.9818 9.68588 11.2547 9.70392 11.3957C9.72196 11.5366 9.77157 11.823 9.81442 12.0333C9.85726 12.2436 9.93393 12.5545 9.98354 12.7268C10.0354 12.8991 10.1031 13.1161 10.1346 13.2078C10.1662 13.2995 10.2384 13.4919 10.2925 13.6329C10.3489 13.7738 10.4796 14.0669 10.5856 14.2817C10.6894 14.4964 10.8652 14.8231 10.978 15.0088C11.0885 15.1922 11.1945 15.3645 11.2125 15.3891C11.2306 15.4137 11.2509 15.4293 11.2576 15.4226C11.2644 15.4159 11.2373 15.3354 11.199 15.2437C11.1629 15.1519 11.0817 14.926 11.0186 14.7403C10.9577 14.5568 10.872 14.2638 10.8292 14.0915C10.7863 13.9192 10.7254 13.6418 10.6961 13.4763C10.6646 13.3107 10.6217 13.0288 10.5992 12.8499C10.5698 12.6015 10.5586 12.3621 10.5586 11.8319C10.5586 11.3017 10.5698 11.0623 10.5992 10.814C10.6217 10.635 10.6646 10.3531 10.6961 10.1876C10.7254 10.022 10.7818 9.76029 10.8201 9.60592C10.8585 9.45156 10.9352 9.18533 10.9915 9.01306C11.0479 8.8408 11.1449 8.57457 11.2058 8.42021C11.2666 8.26584 11.3862 7.99962 11.4696 7.82735C11.553 7.65509 11.6861 7.40452 11.7627 7.26805C11.8417 7.13158 11.9882 6.89668 12.0897 6.74231C12.1912 6.58794 12.3445 6.37094 12.4302 6.26131C12.5159 6.15169 12.6602 5.96824 12.7549 5.85862C12.8474 5.749 13.0481 5.53199 13.1969 5.37986C13.3457 5.22773 13.5735 5.01072 13.7043 4.89662C13.8351 4.78477 14.0425 4.6125 14.1666 4.5163C14.2906 4.4201 14.5499 4.23889 14.7416 4.11361C14.9333 3.98832 15.1813 3.83396 15.2941 3.77132C15.4068 3.70867 15.6549 3.58339 15.8465 3.49167C16.0382 3.39994 16.3426 3.26795 16.523 3.20083C16.7034 3.13371 16.9086 3.05989 16.9808 3.03528C17.0507 3.01291 17.1093 2.99053 17.1093 2.98382C17.1093 2.97711 16.9695 2.93908 16.8004 2.89881C16.629 2.85854 16.3922 2.80932 16.275 2.79142C16.151 2.77129 15.8578 2.75115 15.5759 2.74444C15.2084 2.73549 15.0235 2.74221 14.816 2.76905C14.6627 2.78919 14.4033 2.8384 14.241 2.88091C14.0764 2.92342 13.8351 2.99948 13.7043 3.05094C13.5735 3.10239 13.3525 3.20307 13.215 3.27689C13.0751 3.34849 12.9489 3.40889 12.9376 3.40889C12.9263 3.40889 12.9692 3.36191 13.0346 3.30598C13.0977 3.25005 13.242 3.13595 13.3548 3.05094C13.4675 2.96816 13.6434 2.84512 13.7494 2.77576C13.8554 2.70865 14.0538 2.59231 14.1891 2.51625C14.3244 2.44018 14.5431 2.3328 14.6739 2.27687C14.8047 2.2187 15.0235 2.13369 15.1588 2.08447C15.2941 2.03525 15.5128 1.96814 15.6436 1.93234C15.7744 1.89654 15.9818 1.84733 16.1059 1.82272C16.2299 1.79811 16.4644 1.76008 16.6245 1.7377C16.841 1.71086 17.0823 1.69967 17.5378 1.69967C17.9053 1.69743 18.2594 1.70862 18.406 1.72652C18.5413 1.74218 18.7803 1.77574 18.9359 1.80035C19.0915 1.82495 19.3553 1.87417 19.5222 1.91221C19.689 1.948 19.989 2.02407 20.1874 2.08C20.3858 2.13816 20.7263 2.24778 20.9428 2.32385C21.1593 2.40215 21.4908 2.53191 21.6757 2.61021C21.8629 2.68851 22.0658 2.78024 22.1267 2.80932C22.1898 2.84064 22.4672 2.94355 22.7468 3.03528C23.0264 3.127 23.376 3.25452 23.5248 3.3194C23.6736 3.38428 23.8179 3.44468 23.8473 3.45587C23.8743 3.46706 23.8924 3.46929 23.8879 3.45811C23.8833 3.44916 23.7345 3.35072 23.5564 3.23663C23.3782 3.12477 23.1054 2.95921 22.9498 2.87196C22.7942 2.78247 22.4447 2.60126 22.1718 2.46927C21.8989 2.33727 21.5427 2.17619 21.3826 2.11132C21.2224 2.04644 20.9518 1.94576 20.785 1.8876C20.6181 1.82943 20.3137 1.73547 20.1085 1.6773C19.9033 1.62137 19.5583 1.54083 19.3418 1.49832C19.1253 1.45582 18.8209 1.40436 18.6653 1.38199Z" fill="#C9E00C"/>
</svg>
