<svg width="661" height="534" viewBox="0 0 661 534" fill="none" xmlns="http://www.w3.org/2000/svg">
<path d="M258.572 437.229L259.104 437.912L263.384 437.122L265.785 437.362L267.602 438.55L267.894 439.845L267.956 443.711L267.469 446.247L267.513 446.895L268.346 447.808L280.832 448.571L281.931 450.22L282.126 452.162L282.747 453.084L285.591 455.15L286.779 455.337L287.736 456.481L287.213 459.779L287.346 463.131L288.56 467.237L289.207 468.727L290.722 470.5L291.395 472.762L290.864 473.835L287.833 473.161L285.449 470.846L283.198 470.101L280.753 468.204L280.239 466.333L279.184 465.029L276.171 464.222L274.027 464.346L273.779 465.153L274.248 468.266L272.618 472.788L272.901 473.187L274.877 473.045L274.257 475.209L273.61 476.007L268.222 475.865L267.248 476.734L267.186 477.399L268.134 479.12L267.061 484.272L267.035 486.4L267.62 488.608L266.583 491.171L264.35 492.891L264.43 493.574L264.013 494.142L264.208 495.445L264.731 496.039L264.749 497.077L264.155 498.513L265.741 501.502L265.856 503.142L263.765 501.555L261.16 500.305L259.565 500.686L256.658 499.604L254.186 499.711L253.202 500.278L250.428 500.792L248.833 500.553L247.548 499.303L247.025 498.327L247.167 497.352L248.381 494.071L251.412 490.231L253.53 486.515L253.486 484.05L252.901 482.525L252.422 482.481L255.16 473.391L257.021 469.959L258.634 468.47L259.68 465.774L260.468 464.976L260.849 463.193L260.53 460.134L260.779 458.316L259.441 456.152L260.53 455.47L260.194 447.959L259.777 446.762L258.856 445.476L254.124 443.897L252.342 442.399L253.468 440.43L254.673 439.277L258.572 437.229Z" fill="#9BA2AB" stroke="#5F6772" stroke-width="0.5"/>
<path d="M605.618 167.216L605.503 168.839L604.776 170.4L603.872 171.792L602.898 172.528L601.329 175.1L600.124 179.436L597.767 181.609L597.341 182.584L596.801 185.253L597.439 188.454L598.121 189.394V190.902L596.694 192.374L596.464 196.462L595.605 197.943L595.72 201.002L595.029 202.723L593.212 205.002L592.982 207.68L591.555 208.602L590.279 210.916L585.077 211.945L581.373 217.159L581.506 218.028L582.87 219.465L582.906 220.032L581.887 222.462L580.247 223.695L580.221 225.264L580.832 226.683L583.216 227.863L584.111 229.273L582.197 232.013L582.082 234.008L581.603 235.152L581.842 236.136L580.885 237.44L581.178 238.131L580.983 239.382L581.364 239.94L580.708 241.891L579.804 243.346L578.945 243.23L577.438 244.401L570.34 245.128L567.903 247.043L566.468 247.301L563.136 250.307L559.804 252.062L559.883 253.251L561.984 253.49L562.418 253.863L562.498 260.496L561.851 261.108L561.115 265.018L561.86 266.854L560.832 270.427L561.097 271.598L558.607 275.855L556.268 277.894L556.259 278.781L556.888 279.659L556.162 281.477L557.287 284.953L556.286 286.593L555.32 286.93L553.84 286.726L552.546 287.205L552.041 288.181L551.899 290.602L551.031 291.258L550.153 292.898L548.222 293.067L545.209 295.514L544.473 295.621L539.262 294.166L538.678 294.752L538.465 296.268L537.419 297.297L536.701 300.001L535.133 302.076L533.068 302.2L532.076 302.99L529.887 302.741L528.247 303.814L526.555 304.107L525.917 304.834L525.314 308.417L526.59 313.046L527.104 318.162L527.051 319.085L526.369 319.581L524.215 323.58L524.765 325.806L524.96 329.114L521.3 334.745L518.207 337.485L516.648 340.154L516.222 341.928L515.23 343.231L514.866 346.291L513.883 347.674L514.494 353.119L515.07 354.715L512.474 356.027L510.737 356.267L508.3 359.051L507.219 358.271L507.263 356.888L505.544 352.791L505.207 349.652L504.552 348.117L505.066 343.249L504.144 341.458L502.239 339.152L498.41 335.747L496.195 332.954L494.848 331.96L493.59 331.579L492.136 331.916L489.629 335.472L487.218 337.237L484.817 335.064L482.238 330.896L480.005 324.928L480.732 323.527L484.4 319.289L487.768 316.433L492.269 311.574L499.917 301.358L505.34 296.729L505.73 294.885L505.393 289.759L510.701 279.614L511.588 276.404L511.357 274.799L509.567 271.394L505.899 270.091L503.541 267.483L503.24 264.078L503.648 262.154L498.986 253.446L497.143 252.302L493.023 251.344L491.729 249.642L486.899 240.614L492.393 239.807L495.38 238.539L503.71 233.52L508.805 229.973L509.78 227.907L509.319 224.626L509.922 215.554L515.54 216.414L517.933 216.246L521.982 215.075L523.524 214.126L525.031 212.442L528.336 207.52L533.83 201.259L536.055 200.488L541.629 200.053L546.857 198.085L549.019 195.761L549.746 193.403L552.688 193.279L554.77 192.268L556.738 188.987L558.598 187.071L560.823 185.768L568.373 186.468L570.916 187.381L573.202 188.756L575.719 191.514L577.872 192.534L579.982 193.438L583.872 193.429L584.882 192.347L586.194 185.466L588.595 180.429L589.676 177.201L590.456 173.566L590.704 166.463L593.442 166.081L593.992 166.737L597.315 167.748L600.735 167.491L605.716 165.948L605.618 167.216Z" fill="#E0E3E5" stroke="#5F6772" stroke-width="0.5"/>
<path d="M269.117 520.284V520.293L269.099 520.275L269.117 520.284ZM275.825 519.663L276.685 520.107L277.5 519.938L278.28 519.814L278.572 520.062L275.4 520.727L274.966 520.204L275.825 519.663ZM311.546 512.959L312.326 514.813L311.653 515.54L310.704 515.735L310.509 514.635L311.006 514.547L311.316 513.748L311.546 512.959ZM265.856 503.143L265.75 501.502L264.163 498.523L264.757 497.077L264.739 496.04L264.216 495.446L264.021 494.142L264.438 493.566L264.358 492.883L266.591 491.162L267.637 488.6L267.052 486.392L267.07 484.255L268.142 479.102L267.194 477.382L267.256 476.717L268.231 475.848L273.627 475.99L274.274 475.192L274.895 473.028L272.919 473.17L272.635 472.771L274.265 468.248L273.796 465.136L274.053 464.329L276.197 464.205L279.21 465.012L280.265 466.315L280.779 468.186L283.216 470.084L285.467 470.829L287.85 473.143L287.097 473.232L286.078 475.405L286.663 476.992L287.407 477.267L288.098 478.987L292.325 478.491L296.721 480.867L297.075 482.729L296.535 488.139L297.979 492.688L301.001 497.042L303.828 499.525L307.169 503.364L310.421 505.856L310.944 506.752L310.563 508.667L311.263 509.057L311.289 511.274L310.846 511.673L310.483 511.079L310.421 511.594L311.475 512.631L310.944 514.227L310.288 514.396L310.377 515.309L309.464 516.329L309.676 516.48L308.746 518.59L304.111 518.032L299.025 517.969L289.534 518.457L278.856 519.947L278.395 519.539L276.782 519.858L275.958 519.433L275.178 519.752L274.336 519.672L274.319 519.699L274.762 520.417L275.001 520.798L272.059 521.969L271.191 520.461L270.154 519.885L269.392 519.716L268.541 518.776L268.878 517.969L268.798 517.863L268.328 518.306L267.885 517.969L267.345 516.932L267.38 516.364L267.832 516.081L267.318 512.046L268.169 508.259L267.61 506.22L265.856 503.143Z" fill="#828B96" stroke="#5F6772" stroke-width="0.5"/>
<path d="M233.457 395.772L233.847 396.127L233.927 399.337L237.321 399.222L239.483 400.472L241.3 400.543L244.605 402.051L244.924 402.751L243.816 405.811L243.152 406.768L241.654 407.779L240.015 409.979L240.227 410.83L239.678 411.566L239.297 413.65L239.643 414.129L243.054 415.157L244.313 416.753L245.5 419.981L246.661 421.622L246.395 422.473L245.668 422.73L246.032 423.945L245.589 425.382L246.227 426.038L247.902 425.036L248.442 425.151L248.965 427.439L250.144 427.998L249.833 429.904L251.499 433.265L251.659 434.604L252.332 435.473L254.45 436.715L255.921 435.863L256.878 435.943L257.871 436.599L257.835 437.078L258.571 437.229L254.672 439.277L253.467 440.43L252.341 442.399L247.627 443.658L242.859 442.55L237.268 443.578L235.69 444.5L234.866 447.649L232.766 451.737L230.391 451.976L226.394 450.273L224.959 450.983L222.3 454.379L220.448 455.115L218.322 454.929L217.338 453.794L218.233 452.756L219.934 449.298L220.236 446.957L221.804 442.798L224.02 438.763L224.356 433.434L225.491 430.197L224.401 426.854L223.089 420.389L223.16 419.174L222.159 418.172L220.271 409.686L220.209 409.429L221.689 408.746L224.87 409.331L226.137 408.542L227.768 406.316L227.821 403.895L228.92 400.242L230.905 398.193L232.27 397.431L233.457 395.772Z" fill="#9BA2AB" stroke="#5F6772" stroke-width="0.5"/>
<path d="M436.628 78.8496L443.487 84.3387L444.497 86.937L445.18 93.2153L445.011 94.8203L447.812 98.9527L447.998 104.93L448.29 107.324L449.132 109.727L449.309 113.159L456.709 131.701L456.505 136.064L455.574 138.476L454.697 144.488L456.142 145.845L458.836 146.173L458.127 146.386L455.725 149.72L450.373 152.629L448.095 155.91L446.314 157.462L444.994 158.136L441.529 158.916L440.253 160.122L439.03 161.922L438.17 166.303L435.857 172.892L432.658 177.388L432.481 178.611L439.021 181.263L440.031 182.779L440.802 189.119L441.582 190.139L447.962 192.463L449.806 196.843L449.38 204.496L449.735 207.032L448.999 208.593L445.543 209.152L443.78 209.967L442.619 211.661L442.911 213.098L446.713 216.982L448.928 218.232L457.037 224.519L458.127 227.88L458.667 233.369L460.953 238.051L462.451 239.931L462.336 240.774L461.822 240.916L458.286 240.889L452.579 239.923L443.195 244.223L438.011 243.532L433.943 245.882L428.307 242.84L422.831 239.257L413.021 235.054L404.815 230.682L402.538 230.23L395.803 226.727L393.118 228.306L392.852 229.583L395.661 233.183L395.9 234.726L395.457 236.207L391.239 237.36L388.678 241.98L384.788 243.23L375.891 243.753L371.044 242.441L366.79 242.202L365.452 241.732L364.07 240.543L362.607 236.934L361.81 235.905L361.11 235.276L357.636 234.017L357.104 233.263L357.184 231.764L359.293 227.8L359.497 226.763L359.267 221.495L358.407 218.72L356.812 217.017L355.873 216.831L346.151 218.773L346.187 207.795L345.496 203.538L343.183 199.849L340.719 199.069L337.901 198.998L336.545 199.433L334.303 197.029L331.831 195.478L331.592 194.83L333.674 191.106L334.144 187.594L335.021 187.098L337.316 183.471L338.495 180.057L338.424 178.283L337.742 176.802L334.321 172.963L333.922 171.198L333.568 165.088L333.967 161.984L335.385 157.932L336.288 157.55L338.681 157.692L340.489 157.24L342.917 154.394L345.265 150.749L349.466 147.051L350.059 146.076L352.257 144.683L353.755 144.417L354.765 145.366L355.775 145.446L360.667 143.522L361.553 143.353L366.87 144.329L373.454 146.466L376.423 145.171L378.461 145.818L380.038 149.073L382.812 149.259L389.635 148.834L392.799 148.027L393.809 148.293L396.175 152.638L396.654 154.544L395.918 161.505L396.636 163.323L397.832 164.529L402.883 165.585L407.846 164.352L409.228 164.503L410.877 165.709L413.057 166.259L414.705 165.753L413.721 162.711L413.757 161.115L415.112 159.422L417.354 158.216L420.934 157.338L422.211 156.646L423.85 155.413L424.825 153.001L423.903 151.707L416.043 151.21L410.974 150.084L405.311 149.401L402.662 147.761L397.965 141.181L397.035 138.964L396.618 136.685L393.215 137.518L392.17 136.534L391.682 134.991L393.907 130.557L393.446 126.726L392.152 122.807L390.548 122.363L388.111 122.603L386.232 123.516L383.92 123.552L382.723 122.993L383.157 119.215L386.011 115.189L391.47 114.782L396.317 112.086L406.012 108.778L411.532 106.552L412.587 105.719L412.56 103.724L412.055 102.056L418.001 83.7978L422.024 82.0686L425.108 81.5809L425.986 82.308L426.721 83.7623L426.827 84.9949L436.628 78.8496Z" fill="#E0E3E5" stroke="#5F6772" stroke-width="0.5"/>
<path d="M275.098 327.358L283.189 329.557L290.73 330.666L298.449 333.814L302.809 336.315L307.461 337.192L308.409 337.068L311.351 339.551L316.074 341.529L317.085 340.553L317.164 339.347L312.999 329.025L312.929 326.791L313.832 324.254L314.931 323.004L318.432 321.053L319.655 320.805L321.95 320.645L324.325 321.035L333.266 324.334L339.345 325.709L343.669 326.072L347.179 325.877L347.188 325.256L357.635 333.175L354.277 338.469L355.961 338.975L361.384 336.643L368.003 335.8L375.252 336.226L381.881 337.795L386.436 342.141L390.37 347.151L397.787 353.864L397.663 354.44L398.7 355.646L398.47 356.568L398.966 358.147L398.443 361.011L396.334 366.234L396.591 371.484L395.776 372.752L393.037 374.472L389.989 377.354L387.056 382.817L385.186 393.015L385.727 393.662L385.434 394.62L385.408 402.388L383.724 409.65L383.086 409.916L381.207 409.269L380.516 410.528L380.605 412.302L378.106 413.845L376.519 414.04L374.056 413.65L373.48 412.275L369.155 406.396L364.255 401.315L362.935 400.676L360.196 400.481L351.716 402.468L347.834 402.077L346.762 401.288L347.347 397.058L346.851 395.604L339.194 390.833L334.382 389.335L332.513 389.272L330.466 389.796L328.596 390.39L327.249 391.454L327.931 395.444L325.149 397.147L322.375 397.883L318.972 397.759L317.147 397.165L315.445 397.564L314.24 399.116L312.149 400.854L309.499 401.288L307.993 399.275L307.248 395.498L305.689 394.345L304.785 396.393L301.763 396.721L300.194 399.275L298.493 400.1L295.879 399.878L292.822 400.233L291.714 407.531L290.837 409.349L289.587 409.872L288.01 409.216L284.456 405.953L283.88 404.587L284.031 403.78L286.051 398.087L285.254 393.103L283.995 391.206L282.648 390.186L280.158 389.875L278.2 391.747L276.339 392.394L273.751 391.046L270.579 388.598L268.018 385.628L265.59 379.855L265.705 379.385L266.068 378.942L266.813 379.456L269.799 382.373L270.526 382.285L271.722 383.216H273.282L273.583 379.296L274.434 378.019L280.141 375.253L283.065 372.495L284.784 367.325L285.156 363.84L285.573 362.696L286.663 361.623L286.982 360.018L285.67 359.601L282.737 359.885L281.612 358.954L280.513 354.05L280.008 348.011L279.999 341.892L279.352 340.252L276.959 337.937L275.293 335.082L274.815 329.877L275.098 327.358Z" fill="#C2C7CC" stroke="#5F6772" stroke-width="0.5"/>
<path d="M587.461 11.0647L588.082 16.0749L587.346 18.7353L590.439 24.2864L590.262 26.5211L589.854 26.9556L590.102 25.0313L589.181 26.2107L588.986 27.9133L591.095 30.1746L593.275 30.7155L592.699 31.3097L592.947 31.7885L593.638 31.957L597.59 38.6344L600.098 41.3656L601.028 41.5607L602.553 42.412L603.997 43.4762L607.427 44.1412L607.657 44.9038L607.143 44.895L606.647 45.8704L606.47 44.9482L605.885 45.4625L605.229 45.427L606.505 46.8459L606.744 48.4066L610.183 47.3779L612.23 45.0635L614.418 43.2722L615.836 42.6781L614.879 44.2388L615.012 44.6378L615.588 44.4693L616.093 46.5444L615.801 46.7395L615.207 45.5157L614.454 45.9414L613.949 47.0321L612.159 47.5376L612.752 49.2047L611.698 50.2067L610.05 53.5144L610.413 54.1972L611.627 53.7982L611.565 55.9619L611.051 56.9817L611.804 57.0171L611.503 58.2231L610.484 59.5888L610.838 60.0942L612.23 59.7129L612.487 60.2006L610.156 61.4333L611.902 61.8766L611.769 62.6659L612.832 62.7102L612.168 63.464L610.998 63.7566L611.104 64.129L612.203 63.9251L612.309 64.4571L611.884 64.8473L611.68 64.5192L610.785 64.7232L610.998 65.3882L611.654 65.2818L610.9 66.7627L612.238 66.949L612.433 68.1372L611.928 68.7934L612.159 69.9019L613.018 70.097L613.488 71.17L613.275 72.1898L615.003 72.6775L615.305 73.9722L615.845 74.4333L617.272 73.5909L617.679 73.7682L618.309 75.462L619.39 76.0916L619.664 77.0493L621.579 77.7321L621.552 78.7075L622.146 79.5943L621.818 80.6496L622.447 81.2171L623.431 81.7048L624.68 81.2614L626.452 81.492L626.213 82.4142L626.949 82.4674L627.294 81.8556L628.898 81.7935L630.201 81.0752L632.381 81.0043L632.531 82.0861L633.48 82.1659L633.373 82.9729L632.266 83.2567L632.461 83.7267L632.124 84.2942L632.966 84.5425L634.96 86.8569L637.99 86.387L638.903 86.3426L639.284 87.0609L640.808 86.2894L643.405 87.0609L646.506 86.7505L647.109 87.0254L647.862 87.1319L649.289 87.4334L649.989 88.4975L651.114 88.799L651.416 89.5705L650.822 89.5882L650.893 90.5814L652.816 91.477L653.436 92.6919L652.798 93.9245L655.448 94.6073L656.121 95.9375L655.643 96.3454L656.644 96.8242L657.335 96.9307L657.441 96.4961L658.301 96.4252L658.753 95.9729L659.932 98.1987L658.718 99.3427L658.434 100.939L657.778 101.71L658.381 103.484L656.857 104.513L656.803 105.905L658.753 109.257L657.681 110.8L657.885 111.997L655.829 114.453L655.838 115.783L656.094 119.144L655.474 120.235L652.984 122.142L652.931 122.629L654.047 124.155L655.829 125.157L657.743 127.09L658.133 129.005L657.583 133.155L656.467 133.98L650.831 136.259L647.392 137.057L645.886 139.797L638.717 142.608L635.81 144.444L634.1 146.794L630.148 148.514L628.092 148.55L625.681 146.448L623.448 146.058L622.5 145.322L621.552 145.464L621.011 146.138L620.497 148.195L618.654 150.288L617.963 152.664L617.325 153.595L616.031 154.447L616.244 155.768L615.668 155.954L614.711 157.444L612.655 159.253L611.583 161.833L608.712 163.261L606.567 163.74L605.885 164.405L605.716 165.948L600.736 167.491L597.315 167.748L593.992 166.737L593.443 166.081L590.705 166.462L590.457 173.565L589.677 177.201L588.596 180.429L586.194 185.466L584.883 192.347L583.872 193.429L579.982 193.438L577.873 192.533L575.72 191.514L573.203 188.756L570.917 187.381L568.373 186.468L560.823 185.767L558.599 187.071L556.738 188.986L554.771 192.267L552.688 193.278L549.746 193.402L549.02 195.761L546.857 198.085L541.629 200.053L536.055 200.488L533.831 201.259L528.337 207.52L525.031 212.441L523.525 214.126L521.983 215.075L517.933 216.246L515.541 216.414L509.922 215.554L506.457 213.603L504.854 212.184L502.08 206.713L497.064 204.638L495.442 203.024L493.289 199.911L492.571 197.402L497.162 190.698L497.711 188.02L496.515 185.093L499.209 184.481L502.23 180.464L501.982 173.024L502.523 170.568L504.047 168.059L506.404 166.356L516.338 163.678L521.753 160.441L523.605 157.71L523.817 155.103L523.144 151.423L523.108 148.789L523.906 146.253L526.467 143.282L529.391 138.05L533.414 134.122L534.292 132.251L533.547 129.298L530.774 125.972L526.423 126.159L525.856 125.839L525.723 124.119L529.905 116.014L528.408 109.416L528.523 106.313L530.774 91.8672L530.818 86.7328L529.294 83.3365L529.781 81.3856L536.038 75.7901L538.138 73.0588L539.768 69.3255L539.343 66.009L535.089 62.6038L533.804 60.9899L532.714 57.5758L534.035 50.4639L534.106 46.7306L535.391 46.6242L539.272 47.4045L539.299 46.3493L539.821 45.9857L539.883 45.3295L540.052 43.8131L541.363 42.6337L542.374 42.8465L543.57 42.1992L543.269 41.1705L543.915 40.2128L543.712 39.9291L542.923 39.7606L543.277 38.7585L543.96 37.5791L544.669 36.0007L545.236 35.4686L547.256 35.779L548.479 35.0075L549.33 35.0873L549.87 35.7435L550.721 34.7592L550.925 33.4823L552.112 33.2783L553.415 33.0211L553.672 32.6132L553.371 32.2585L554.239 31.221L556.109 30.7953L556.658 29.6957L557.872 29.0041L558.014 28.3035L558.528 27.6473L558.883 26.9911L558.865 26.2285L559.84 25.8472L560.221 24.9427L559.503 24.6678L560.008 24.1268L561.098 24.6855L560.841 23.2933L561.816 23.3997L561.869 23.8165L562.622 24.0736L563.597 23.9495L565.254 22.4686L566.158 22.1405L566.442 22.4774L568.196 22.3888L569.428 21.2093L570.332 21.6439L570.376 20.6862L571.333 20.3669L572.237 20.4467L571.448 21.4842L572.751 22.1848L573.566 21.0231L574.763 21.9454L574.585 20.7837L575.897 20.3314L575.622 22.1759L576.438 22.2823L576.836 21.4222L577.855 21.2005L578.671 22.4331L579.521 20.1896L580.992 19.4447L581.01 19.0545L580.523 18.886L580.691 18.2564L581.746 18.4338L582.313 17.7243L581.746 17.5736L581.391 16.6691L582.88 15.2503L582.827 14.7359L584.147 14.1418L584.103 13.3171L585.033 12.3771L586.132 12.1643L586.478 11.2243L587.461 11.0647Z" fill="#C2C7CC" stroke="#5F6772" stroke-width="0.5"/>
<path d="M223.31 514.954L223.124 514.405L222.521 514.493L219.012 512.188L217.949 508.304L216.726 506.645L214.962 506.628L209.167 508.88L208.245 508.649L207.935 506.929L208.307 505.634L205.374 504.357L204.931 503.621L204.993 499.773L206.677 497.405L207.35 495.587L207.377 494.461L206.234 494.603L205.489 493.911L206.668 489.974L210.647 483.022L213.101 483.173L213.589 482.729L214.253 480.521L215.618 479.821L215.414 478.215L216.814 477.267L217.656 475.954L217.63 474.234L217.071 472.868L216.398 472.354L214.696 471.618L212.091 472.052L211.169 471.804L211.852 473.994L210.788 474.748L206.287 476.69L203.194 476.3L200.766 476.735L198.985 480.37L197.115 480.831L196.415 480.299L195.112 480.228L194.793 481.071L195.024 483.119L192.516 484.503L191.08 484.999L188.413 484.786L187.323 486.551L185.276 487.101L183.601 486.507L182.724 485.035L180.854 483.9L180.189 484.343L178.878 487.065L175.953 488.52L173.632 488.147L167.003 491.783L166.17 491.455L164.114 491.81L163.228 490.834L160.844 489.415L158.142 488.786L155.572 487.314L153.711 485.452L153.215 486.09L152.577 485.585L151.309 486.055L150.99 485.611L149.546 486.356L151.637 490.444L153.33 495.596L153.029 496.297L153.87 497.645L154.181 499.294L157.778 505.297L157.947 506.574L158.78 507.062L158.789 507.213L158.833 508.188L165.479 517.393L166.534 517.943L166.516 518.608L168.971 519.805L168.731 520.169L169.662 520.834L169.768 521.41L172.037 522.82L172.205 522.474L172.48 522.776L172.285 522.989L172.302 523.29L174.615 525.205L175.041 525.188L174.917 524.505L174.518 524.319L175.918 523.911L175.245 524.531L175.537 525.17L175.307 525.409L175.369 525.862L177.424 527.369L181.917 529.462L182.086 527.688L181.386 527.236L180.898 526.128L181.2 526.234L181.457 527.023L182.157 527.218L182.05 526.598L182.414 526.624L182.396 527.245L182.857 527.396L183.087 528.079L182.538 529.125L182.768 529.506L182.467 530.659L182.821 530.916L187.412 532.087L187.58 530.109L188.156 529.595L188.493 533L195.883 532.379L195.316 530.251L196.229 527.547L196.805 526.571L196.548 525.356L194.855 524.336L195.281 524.292L196.335 524.531L197.186 525.933L197.718 524.931L197.23 524.23L197.31 522.332L196.566 521.135L196.84 520.479L196.991 521.392L197.602 521.88L197.629 522.217L198.285 524.008L198.196 526.757L200.606 524.567L200.092 524.008L200.181 522.288L201.874 521.756L202.317 521.197L202.928 522.625L203.035 523.769L202.609 524.682L203.141 525.853L203.185 527.28L204.373 527.511L205.33 528.85L205.755 528.806L205.587 529.098L205.782 529.48L207.705 529.054L207.873 529.356L207.324 529.932L208.679 530.632L216.176 529.825L216.194 529.4L215.84 528.948L215.778 528.265L215.689 527.963L216.283 527.201L216.814 526.686L216.354 528.495L216.548 528.841L218.347 530.402L219.198 529.533L222.326 529.196L221.883 527.006L221.803 526.669L221.467 525.667L220.448 525.001L220.279 524.124L220.297 523.955L220.554 523.015L220.084 521.02L219.721 520.532L220.031 520.213L220.705 521.011L221.812 524.735L222.149 524.221L221.573 519.583L223.079 516.577L223.31 514.954ZM206.659 530.978L199.375 531.856L196.893 531.768L196.698 531.147L197.904 528.912L198.037 528.894L198.435 528.93L198.559 527.777L200.314 525.835L200.42 525.56L200.801 524.771L201.2 524.602L200.677 523.92L200.518 522.767L201.005 522.456L201.918 522.288L202.716 523.476L202.272 524.656L202.964 526.092L202.769 527.484L204.213 527.875L204.789 528.69L206.659 530.978Z" fill="#828B96"/>
<path d="M153.924 497.742L153.932 497.751M223.31 514.954L223.124 514.405L222.521 514.493L219.012 512.188L217.949 508.304L216.726 506.645L214.962 506.628L209.167 508.88L208.245 508.649L207.935 506.929L208.307 505.634L205.374 504.357L204.931 503.621L204.993 499.773L206.677 497.405L207.35 495.587L207.377 494.461L206.234 494.603L205.489 493.911L206.668 489.974L210.647 483.022L213.101 483.173L213.589 482.729L214.253 480.521L215.618 479.821L215.414 478.215L216.814 477.267L217.656 475.954L217.63 474.234L217.071 472.868L216.398 472.354L214.696 471.618L212.091 472.052L211.169 471.804L211.852 473.994L210.788 474.748L206.287 476.69L203.194 476.3L200.766 476.735L198.985 480.37L197.115 480.831L196.415 480.299L195.112 480.228L194.793 481.071L195.024 483.119L192.516 484.503L191.08 484.999L188.413 484.786L187.323 486.551L185.276 487.101L183.601 486.507L182.724 485.035L180.854 483.9L180.189 484.343L178.878 487.065L175.953 488.52L173.632 488.147L167.003 491.783L166.17 491.455L164.114 491.81L163.228 490.834L160.844 489.415L158.142 488.786L155.572 487.314L153.711 485.452L153.215 486.09L152.577 485.585L151.309 486.055L150.99 485.611L149.546 486.356L151.637 490.444L153.33 495.596L153.029 496.297L153.87 497.645L154.181 499.294L157.778 505.297L157.947 506.574L158.78 507.062L158.789 507.213L158.833 508.188L165.479 517.393L166.534 517.943L166.516 518.608L168.971 519.805L168.731 520.169L169.662 520.834L169.768 521.41L172.037 522.82L172.205 522.474L172.48 522.776L172.285 522.989L172.302 523.29L174.615 525.205L175.041 525.188L174.917 524.505L174.518 524.319L175.918 523.911L175.245 524.531L175.537 525.17L175.307 525.409L175.369 525.862L177.424 527.369L181.917 529.462L182.086 527.688L181.386 527.236L180.898 526.128L181.2 526.234L181.457 527.023L182.157 527.218L182.05 526.598L182.414 526.624L182.396 527.245L182.857 527.396L183.087 528.079L182.538 529.125L182.768 529.506L182.467 530.659L182.821 530.916L187.412 532.087L187.58 530.109L188.156 529.595L188.493 533L195.883 532.379L195.316 530.251L196.229 527.547L196.805 526.571L196.548 525.356L194.855 524.336L195.281 524.292L196.335 524.531L197.186 525.933L197.718 524.931L197.23 524.23L197.31 522.332L196.566 521.135L196.84 520.479L196.991 521.392L197.602 521.88L197.629 522.217L198.285 524.008L198.196 526.757L200.606 524.567L200.092 524.008L200.181 522.288L201.874 521.756L202.317 521.197L202.928 522.625L203.035 523.769L202.609 524.682L203.141 525.853L203.185 527.28L204.373 527.511L205.33 528.85L205.755 528.806L205.587 529.098L205.782 529.48L207.705 529.054L207.873 529.356L207.324 529.932L208.679 530.632L216.176 529.825L216.194 529.4L215.84 528.948L215.778 528.265L215.689 527.963L216.283 527.201L216.814 526.686L216.354 528.495L216.548 528.841L218.347 530.402L219.198 529.533L222.326 529.196L221.883 527.006L221.803 526.669L221.467 525.667L220.448 525.001L220.279 524.124L220.297 523.955L220.554 523.015L220.084 521.02L219.721 520.532L220.031 520.213L220.705 521.011L221.812 524.735L222.149 524.221L221.573 519.583L223.079 516.577L223.31 514.954ZM206.659 530.978L199.375 531.856L196.893 531.768L196.698 531.147L197.904 528.912L198.037 528.894L198.435 528.93L198.559 527.777L200.314 525.835L200.42 525.56L200.801 524.771L201.2 524.602L200.677 523.92L200.518 522.767L201.005 522.456L201.918 522.288L202.716 523.476L202.272 524.656L202.964 526.092L202.769 527.484L204.213 527.875L204.789 528.69L206.659 530.978Z" stroke="#5F6772" stroke-width="0.5"/>
<path d="M309.5 401.288L312.149 400.854L314.24 399.116L315.446 397.564L317.147 397.165L318.973 397.759L322.375 397.883L325.149 397.147L327.932 395.444L327.249 391.454L328.596 390.39L330.466 389.796L332.513 389.272L334.383 389.335L339.195 390.833L346.851 395.604L347.347 397.058L346.763 401.288L347.835 402.077L351.716 402.468L360.197 400.481L362.935 400.676L364.255 401.315L369.156 406.396L373.48 412.275L374.056 413.65L372.133 421.045L367.57 419.086L366.878 420.717L366.861 422.473L366.347 423.12L365.39 423.954L362.908 428.264L360.046 429.097L358.602 430.153L357.538 431.199L356.696 433.416L355.819 434.276L348.092 441.166L344.716 443.587L343.723 443.88L342.27 445.919L340.772 446.691L339.62 448.003L339.975 448.766L341.18 449.688L340.249 451.001L340.604 451.737L340.205 452.588L338.902 454.246L338.397 453.732L338.442 455.062L342.961 460.063L343.236 461.624L341.109 465.215L340.542 467.344L339.549 468.55L339.735 471.999L338.131 477.213L338.264 483.031L336.013 486.755L334.339 487.438L334.268 488.183L333.08 489.105L331.999 492.031L330.891 492.954L331.751 493.858L330.953 494.169L330.085 495.268L330.129 495.774L329.234 496.111L329.314 497.671L327.568 498.336L326.664 499.445L326.647 500.296L327.71 501.307L328.011 502.664L325.867 503.958L324.901 503.746L324.298 503.107L323.386 503.834L322.818 505.182L322.154 505.652L322.012 506.956L322.606 507.018L323.137 505.466L323.368 507.692L323.049 508.188L322.668 507.594L322.136 507.718L322.65 508.995L321.339 509.235L321.392 509.909L319.814 510.166L318.512 509.634L318.964 508.064L319.912 507.958L318.786 506.53L318.078 507.612L317.05 508.038L315.215 507.63L314.639 506.61L315.322 505.989L315.508 505.847L315.233 505.04L314.028 505.404L313.026 504.845L310.917 506.778L310.395 505.883L307.142 503.391L303.793 499.542L300.975 497.059L297.953 492.705L296.508 488.156L297.049 482.747L296.703 480.885L292.308 478.508L288.081 479.005L287.381 477.284L286.645 477.009L286.061 475.422L287.08 473.25L287.833 473.161L290.864 473.835L291.395 472.762L290.722 470.501L289.206 468.727L288.56 467.237L287.345 463.132L287.213 459.78L287.735 456.481L286.778 455.337L287.115 453.217L289.189 450.46L288.87 448.101L290.163 446.983L290.465 445.786L292.219 443.756L292.29 441.61L291.28 440.013L291.448 439.144L293.46 438.187L295.782 438.027L298.166 442.018L299.353 440.173L301.267 439.49L303.217 437.974L303.465 436.812L305.131 436.555L307.063 437.672L307.807 436.865L308.41 434.826L308.498 432.529L309.207 431.226L315.339 423.786L315.357 422.544L313.709 420.238L313.7 418.82L315.162 417.374L317.103 417.046L317.838 415.539L317.626 414.607L316.403 413.721L316.039 412.391L315.579 412.062L315.667 410.342L314.533 409.349L314.09 407.833L311.697 406.174L309.934 403.851L309.5 401.288Z" fill="#E0E3E5" stroke="#5F6772" stroke-width="0.5"/>
<path d="M224.401 426.854L223.09 420.389L223.161 419.174L222.159 418.172L220.272 409.686L218.606 411.495L214.973 411.158L211.667 411.876L204.41 416.417L197.896 419.166L194.325 423.183L193.758 423.227L191.472 419.733L190.577 419.361L189.097 419.086L187.519 420.487L186.731 422.287L186.598 424.389L186.952 425.054L188.246 425.772L188.724 430.046L190.523 433.23L192.26 435.376L193.926 436.67L195.902 437.389L196.159 438.941L195.539 441.814L194.165 443.507L192.721 444.98L189.992 446.78L187.962 449.502L185.499 451.267L183.895 451.799L179.26 452.721L177.373 452.224L177.993 450.628L176.575 449.201L178.383 445.627L177.966 444.891L174.502 442.807L172.729 440.297L168.591 437.974L165.782 436.866L164.328 435.677L159.791 437.318L158.152 439.428L156.583 439.074L154.572 437.318L153.349 437.061L150.54 437.655L147.899 437.016L147.022 437.291L146.463 437.557L146.41 438.471L147.199 439.863L146.738 440.803L143.105 443.658L141.634 443.72L141.59 441.53L141.005 439.269L141.625 436.67L141.492 435.402L140.021 433.921L135.209 431.439L129.095 446.283L131.292 450.256L132.524 451.036L133.038 449.617L134.199 448.509L141.076 444.767L142.192 444.572L143.832 443.437L144.833 442.958L145.152 443.41L145.134 443.561L143.362 444.403L142.467 445.822L142.405 446.052L141.669 445.583L139.675 446.452L136.857 448.677L136.556 449.342L134.802 448.943L133.871 449.67L133.171 452.455L133.401 453.821L135.732 457.811L138.55 460.596L139.543 460.126L142.21 458.937L144.842 459.301L145.498 456.499L146.517 454.592L146.499 454.255L146.853 453.989V453.998L147.19 454.104L146.986 454.229L146.774 455.913L145.781 457.926L146.667 459.815L148.36 460.374L149.804 460.134L151.204 457.314L152.622 457.403L152.791 457.181V457.19L155.44 458.556L156.433 459.15L156.601 459.576L155.547 459.274L155.786 459.957L155.874 461.128L154.696 460.817L155.555 460.223L155.263 459.035L154.271 458.396L151.497 458.139L150.965 458.263L151.045 459.709L150.558 460.711L148.484 462.458L149.37 461.057L147.784 461.19L145.923 460.702L141.988 460.108L140.251 460.276L140.145 461.021L138.71 461.979L137.593 463.46L140.048 466.971L142.742 469.286L148.094 471.618L152.605 471.875L152.622 471.299L151.568 470.066L150.726 467.495L150.495 467.096L150.558 466.439L150.974 466.333L150.806 467.06L151.692 469.011L152.427 468.479H152.746L152.684 468.674L151.842 469.632L152.073 470.075L154.421 471.068L154.926 470.882L156.388 466.626L157.133 465.331L157.984 464.781L157.416 464.488L160.252 464.595L160.677 464.728L161.608 464.32L162.016 463.318L162.671 462.981L163.664 463.132L164.506 463.939L165.046 463.353L165.126 463.557L165.02 464.222L164.231 464.258L163.008 463.424L162.113 464.914L160.713 465.615L159.109 465.508L159.304 466.271L158.453 465.402L157.283 465.721L156.796 468.399L157.035 469.57L157.549 470.527L157.948 471.166L160.926 472.132L160.66 472.842L159.286 471.849L158.71 472.168L158.684 472.789L158.622 472.984L158.187 473.099L158.471 471.795L158.196 471.689L157.815 471.388L157.416 470.98L157.018 471.405L156.362 471.849L156.043 472.319L155.343 472.425L154.35 472.93L155.157 473.338L156.973 473.25L154.341 474.101L153.987 474.66L153.101 473.232L152.569 473.276L152.321 473.259L150.079 473.392L149.042 473.95L148.98 473.604L148.369 473.542L148.005 473.267L147.412 473.463L146.676 473.081L146.72 475.245L148.413 482.011L148.2 483.483L150.044 485.487L151.86 484.707L154.209 484.556L153.42 483.359L153.34 482.366L153.473 482.153L153.916 480.042L154.173 480.016L154.04 480.548L154.173 480.911L153.712 483.297L154.492 483.785L154.403 485.141L153.695 485.416L155.555 487.278L158.125 488.75L160.828 489.38L163.212 490.799L164.098 491.774L166.154 491.42L166.987 491.748L173.615 488.112L175.937 488.484L178.862 487.03L180.173 484.308L180.838 483.864L182.707 484.999L183.585 486.471L185.26 487.066L187.307 486.516L188.397 484.751L191.064 484.964L192.5 484.467L195.007 483.084L194.777 481.036L195.096 480.193L196.399 480.264L197.099 480.796L198.968 480.335L200.75 476.699L203.178 476.265L206.27 476.655L210.772 474.713L211.836 473.959L211.153 471.769L210.648 470.847L210.834 470.456L213.953 468.851L214.122 464.151L214.742 462.839L216.559 461.58L217.347 460.028L218.074 457.208L217.108 454.069L217.312 453.759L218.207 452.721L219.908 449.263L220.21 446.93L221.769 442.771L223.985 438.737L224.322 433.407L225.447 430.17L224.401 426.854Z" fill="#828B96" stroke="#5F6772" stroke-width="0.5"/>
<path d="M284.03 403.78L283.879 404.587L284.455 405.953L288.009 409.216L289.586 409.872L290.836 409.349L291.713 407.531L292.821 400.233L295.878 399.878L298.492 400.1L300.194 399.275L301.762 396.721L304.784 396.393L305.688 394.345L307.247 395.498L307.992 399.275L309.498 401.288L309.933 403.851L311.696 406.174L314.089 407.832L314.532 409.349L315.666 410.342L315.577 412.062L316.038 412.391L316.402 413.721L317.624 414.607L317.837 415.539L317.102 417.046L315.161 417.374L313.699 418.82L313.708 420.238L315.356 422.544L315.338 423.785L309.206 431.225L308.497 432.529L308.408 434.826L307.806 436.865L307.061 437.672L305.13 436.555L303.464 436.812L303.215 437.974L301.266 439.49L299.352 440.173L298.164 442.017L295.781 438.027L293.459 438.187L291.447 439.144L291.279 440.013L292.289 441.61L292.218 443.756L290.464 445.786L290.162 446.983L288.869 448.101L289.188 450.46L287.114 453.217L286.777 455.337L285.59 455.151L282.745 453.084L282.125 452.162L281.93 450.22L280.831 448.571L268.345 447.808L267.512 446.895L267.468 446.247L267.955 443.711L267.893 439.845L271.11 438.949L272.873 440.457L273.556 440.537L275.425 442.762L276.072 442.824L276.648 441.547L275.939 438.958L275.807 436.617L278.173 434.196L278.881 432.662L278.004 426.774L277.455 424.513L276.498 423.564L276.515 422.473L278.944 417.055L278.952 411.894L278.376 410.874L278.04 407.957L276.728 403.611L282.444 404.099L284.03 403.78Z" fill="#B1B7BE" stroke="#5F6772" stroke-width="0.5"/>
<path d="M185.321 351.948L186.004 352.516L187.554 352.188L188.175 352.507L188.423 353.11L188.086 353.899L188.494 354.476L190.426 354.254L190.665 354.963L189.814 356.604L189.61 358.315L189.858 359.246L190.815 359.938L192.703 360.408L197.967 357.81L199.349 359.672L199.925 359.61L201.042 360.86L201.529 360.807L203.266 362.785L205.269 362.616L205.924 362.164L208.193 362.297L209.132 364.079L209.194 365.161L209.948 365.702L210.373 367.245L211.029 367.742L210.816 368.194L211.401 369.639L214.724 368.894L215.105 369.231L216.399 368.353L218.056 367.99L219.607 369.24L220.094 371.12L221.379 372.078L222.079 373.86L222.212 376.884L221.937 378.587L220.502 382.081L220.555 385.77L218.862 390.044L216.948 393.192L218.083 395.098L217.258 399.993L218.047 402.299L219.297 404.081L220.209 409.429L220.271 409.686L218.605 411.486L214.981 411.149L211.676 411.867L204.418 416.399L197.905 419.148L194.334 423.165L193.758 423.2L191.471 419.706L190.576 419.343L189.105 419.059L187.519 420.469L186.73 422.26L186.597 424.362L186.952 425.027L188.246 425.745L188.724 430.019L190.523 433.194L192.26 435.34L193.926 436.635L195.902 437.353L196.15 438.896L195.539 441.769L194.165 443.463L192.73 444.935L190 446.735L187.962 449.457L185.507 451.222L183.903 451.754L179.26 452.676L177.372 452.171L177.993 450.575L176.575 449.147L178.374 445.573L177.957 444.837L174.501 442.753L172.729 440.244L168.582 437.921L165.781 436.812L164.328 435.624L159.791 437.264L158.152 439.375L156.583 439.02L154.572 437.264L153.349 437.007L150.539 437.601L147.908 436.963L147.03 437.238L146.463 437.504L146.41 438.417L147.199 439.809L146.738 440.749L143.113 443.614L141.642 443.676L141.598 441.485L141.013 439.224L141.642 436.626L141.51 435.358L140.038 433.877L135.227 431.403L135.572 430.374L134.482 428.37L133.304 427.448L131.921 427.368L130.459 424.761L128.74 423.555L128.12 423.502L127.73 422.695L127.951 422.172L127.703 422.562L128.412 421.941L129.263 418.722L129.777 418.181L132.391 417.41L133.135 414.093L134.677 412.577L135.422 410.839L135.732 409.313L135.227 408.028L133.986 406.006L132.896 405.438V402.92L133.614 402.051L133.525 400.082L133.959 399.231L135.51 397.794L135.909 396.881L137.442 396.171L138.142 394.158L138.993 393.547L139.073 391.817L139.471 391.126L141.421 390.23L143.308 390.585L145.329 390.248L146.818 390.567L152.702 390.665L155.617 390.328L157.07 390.629L158.612 392.474L156.831 394.478L158.692 399.319L159.348 399.293L162.689 396.491L163.876 396.597L164.931 397.91L165.649 398.22L168.023 397.315L169.362 394.309L170.203 389.911L170.425 389.689L171.479 390.141L171.488 388.696L172.268 388.235L172.135 387.517L171.09 386.382L171.63 382.267L172.729 380.795L174.076 380.148L174.404 379.394L174.12 378.649L176.983 372.539L176.85 371.306L177.266 370.384L178.826 368.761L180.731 367.83L181.998 364.691L181.617 364.443L180.935 362.244L181.706 359.681L179.925 358.954L179.57 358.209L179.73 356.976L180.979 355.451L182.361 355.575L183.15 355.043L185.321 351.948Z" fill="#828B96" stroke="#5F6772" stroke-width="0.5"/>
<path d="M132.426 326.782L132.789 326.631L133.33 328.112L134.243 328.546L138.213 327.438L139.054 327.766L140.357 329.593L141.199 330.027L143.264 329.823L145.302 330.373L147.03 329.859L148.173 330.347L149.095 328.431L148.838 327.872L149.564 325.904L153.206 324.716L158.311 324.636L157.345 325.008L157.318 328.804L157.806 329.203L160.003 327.943L163.255 327.376L165.302 327.615L165.799 328.236L165.551 329.451L164.363 330.018L162.334 332.688L162.263 334.071L163.433 337.396L164.602 338.248L165.737 338.274L167.376 339.773L173.42 341.892L172.073 344.021L171.346 344.287L170.017 343.178L168.369 343.524L167.615 345.351L165.683 346.637L163.557 348.836L162.555 350.733L161.04 357.916L159.534 361.392L156.831 365.321L151.93 368.416L149.919 367.892L148.953 365.516L149.095 364.753L148.173 361.924L146.915 359.956L145.541 359.495L139.365 359.77L132.47 359.379L128.438 360.665L127.703 359.158L126.958 355.797L124.433 350.379L123.821 346.14L124.876 342.602L124.158 340.11L124.264 338.868L125.948 335.1L127.384 333.769L129.315 332.936L131.079 331.482L132.426 326.782Z" fill="#E0E3E5" stroke="#5F6772" stroke-width="0.5"/>
<path d="M233.458 395.772L235.877 391.33L236.684 391.551L236.843 393.573L237.499 393.618L238.677 395.4L239.289 395.701L240.388 395.409L244.792 390.629L250.091 387.206L255.568 380.626L257.73 379.819L259.626 377.957L262.56 377.283L264.722 377.948L265.705 379.385L265.59 379.855L268.018 385.628L270.579 388.598L273.752 391.046L276.339 392.394L278.2 391.746L280.159 389.875L282.649 390.186L283.996 391.206L285.254 393.103L286.052 398.087L284.031 403.78L282.445 404.099L276.729 403.611L278.041 407.957L278.377 410.874L278.953 411.894L278.945 417.055L276.517 422.473L276.499 423.564L277.456 424.513L278.005 426.774L278.883 432.662L278.174 434.196L275.808 436.617L275.941 438.958L276.649 441.547L276.073 442.824L275.427 442.762L273.557 440.537L272.874 440.457L271.111 438.949L267.894 439.845L267.602 438.55L265.785 437.362L263.384 437.122L259.103 437.912L258.572 437.229L257.836 437.078L257.872 436.599L256.879 435.943L255.922 435.863L254.451 436.715L252.333 435.473L251.66 434.604L251.5 433.265L249.834 429.904L250.144 427.998L248.966 427.439L248.443 425.151L247.902 425.036L246.228 426.038L245.59 425.382L246.033 423.945L245.669 422.73L246.396 422.473L246.662 421.622L245.501 419.981L244.313 416.753L243.055 415.157L239.643 414.129L239.298 413.65L239.679 411.566L240.228 410.83L240.016 409.978L241.655 407.779L243.153 406.768L243.817 405.811L244.925 402.751L244.606 402.051L241.301 400.543L239.484 400.472L237.322 399.222L233.928 399.337L233.848 396.127L233.458 395.772Z" fill="#9BA2AB" stroke="#5F6772" stroke-width="0.5"/>
<path d="M255.673 256.896L261.097 256.337L263.932 256.621L265.279 257.374L266.281 256.621L267.885 253.925L268.824 253.446L269.772 253.827L271.075 256.585L271.908 256.86L272.954 256.16L272.892 258.323L272.519 258.873L271.607 258.935L271.137 259.476L269.267 265.258L269.196 270.241L269.648 272.184L269.161 278.391L267.406 283.064L266.059 290.114L265.359 290.433L264.402 293.448L263.481 294.903L260.131 298.999L253.963 302.227L249.86 303.167L247.282 304.231L237.419 305.783L236.178 306.191L229.567 306.058L227.945 306.244L226.687 305.828L224.959 301.474L225.367 300.259L224.702 273.469L225.021 261.356L225.322 261.019L227.697 260.726L237.472 260.31L239.031 260.868L247.175 268.051L248.008 267.838L255.673 256.896Z" fill="#EAE7E7" stroke="#5F6772" stroke-width="0.5"/>
<path d="M458.834 146.173L459.64 145.393L463.336 144.054L466.916 144.205L469.556 145.1L471.488 146.244L479.012 151.795L483.221 157.471L486.252 160.645L485.366 162.011L486.766 161.107L490.027 164.104L490.62 168.422L489.557 178.931L490.239 184.65L490.505 185.103L496.513 185.094L497.71 188.02L497.16 190.698L492.57 197.402L493.288 199.912L495.441 203.024L497.063 204.638L502.079 206.713L504.852 212.184L506.456 213.603L509.921 215.554L509.318 224.626L509.779 227.907L508.804 229.973L503.709 233.52L495.379 238.539L492.393 239.807L486.899 240.614L481.254 241.031L470.212 241.013L464.984 241.545L461.82 240.916L462.334 240.774L462.449 239.932L460.952 238.052L458.666 233.369L458.125 227.88L457.035 224.519L448.927 218.232L446.711 216.982L442.91 213.098L442.617 211.661L443.778 209.968L445.541 209.152L448.998 208.593L449.733 207.032L449.379 204.496L449.804 196.843L447.961 192.463L441.58 190.139L440.801 189.12L440.03 182.779L439.019 181.263L432.479 178.611L432.657 177.388L435.856 172.892L438.169 166.303L439.028 161.922L440.251 160.122L441.527 158.916L444.992 158.136L446.312 157.462L448.094 155.91L450.371 152.629L455.723 149.72L458.125 146.386L458.834 146.173Z" fill="#C2C7CC" stroke="#5F6772" stroke-width="0.5"/>
<path d="M252.343 442.399L254.124 443.898L258.856 445.476L259.777 446.762L260.194 447.959L260.531 455.47L259.441 456.153L260.779 458.316L260.531 460.134L260.85 463.194L260.469 464.976L259.68 465.774L258.634 468.47L257.021 469.96L255.161 473.392L252.422 482.481L250.145 483.323L246.139 482.321L244.252 482.357L240.574 483.297L236.418 482.312L230.463 482.437L228.567 482.073L226.653 480.61L225.129 477.595L223.498 476.442L223.268 475.227L224.234 472.78L224.694 468.674L224.296 467.202L222.417 466.519L219.351 467.113L218.013 466.723L220.45 455.115L222.302 454.379L224.96 450.983L226.396 450.273L230.392 451.976L232.767 451.737L234.867 447.649L235.692 444.501L237.269 443.578L242.861 442.55L247.628 443.658L252.343 442.399Z" fill="#B1B7BE" stroke="#5F6772" stroke-width="0.5"/>
<path d="M385.373 60.9192L386.959 61.9656L392.276 62.6129L395.058 61.0167L396.919 57.4785L401.634 55.1818L404.434 54.6231L406.933 53.4082L412.542 51.6702L414.501 52.7786L416.388 57.0174L417 60.8748L418.293 63.1184L419.286 62.4799L424.479 60.8305L428.901 62.7991L430.7 62.2582L432.339 63.0386L434.297 66.0536L435.857 76.278L436.628 78.8497L426.827 84.995L426.721 83.7624L425.985 82.3081L425.108 81.5809L422.024 82.0687L418.001 83.7979L412.055 102.056L412.56 103.724L412.587 105.719L411.532 106.552L406.011 108.778L396.317 112.086L391.469 114.782L386.011 115.19L383.157 119.215L382.723 122.993L383.919 123.552L386.232 123.516L388.111 122.603L390.548 122.363L392.152 122.807L393.445 126.726L393.906 130.557L391.682 134.991L392.169 136.534L393.215 137.518L396.618 136.685L397.034 138.964L397.965 141.181L402.662 147.761L405.311 149.401L410.974 150.084L416.043 151.21L423.903 151.707L424.824 153.001L423.85 155.413L422.21 156.646L420.934 157.338L417.354 158.216L415.112 159.422L413.756 161.115L413.721 162.712L414.704 165.753L413.056 166.259L410.876 165.709L409.228 164.503L407.846 164.352L402.883 165.585L397.832 164.529L396.636 163.323L395.918 161.506L396.653 154.544L396.175 152.638L393.809 148.293L392.799 148.027L389.635 148.834L382.812 149.259L380.038 149.073L378.46 145.819L376.422 145.171L373.454 146.466L366.869 144.329L361.553 143.353L360.666 143.522L360.595 141.535L361.553 138.237L367.862 132.136L367.073 131.116L365.221 130.646L362.713 128.305L361.402 125.866L360.959 124.093L359.993 123.215L355.509 123.348L355.332 121.61L355.775 119.756L358.752 115.597L358.921 113.78L359.86 112.148L359.692 109.966L357.671 103.599L356.563 104.069L355.261 105.621L353.205 106.88L351.592 107.04L350.378 106.818L350.369 104.539L349.864 103.262L347.082 103.484L345.398 104.539V103.626L343.936 102.988L344.405 101.462L345.451 100.23L345.522 95.2549L344.813 92.6478L343.998 91.9295L342.358 91.4329L337.538 90.9364L336.802 90.5639L335.898 89.3313L336.403 87.5489L335.429 84.8176L332.052 82.9377L331.051 81.7139L330.652 76.4643L323.758 74.673L320.417 74.9834L316.881 76.6948L315.348 77.892L314.799 80.1976L313.142 83.3988L312.193 82.4056L312.105 80.6676L308.994 75.0986L307.896 72.7753L307.16 72.1546L302.782 72.0482L300.248 71.2235L299.725 70.585L299.663 67.1709L300.328 64.1559L300.31 61.7705L300.718 61.5045L309.925 60.2807L314.684 61.1586L322.854 60.4669L323.891 61.5577L325.14 65.7077L325.743 66.5413L328.1 68.0222L329.863 68.4833L332.185 67.1443L332.752 68.5277L334.073 69.1484L337.334 68.6607L341.038 67.1177L343.865 64.8298L344.778 62.4976L345.291 61.8326L347.064 61.0522L347.073 60.2896L348.198 59.9437L357.113 60.3339L365.106 61.5931L369.75 60.9281L375.12 61.6197L384.008 62.0188L385.373 60.9192Z" fill="#C2C7CC" stroke="#5F6772" stroke-width="0.5"/>
<path d="M281.205 142.591L283.943 142.608L286.105 142.014L289.81 138.618L294.063 136.1H295.525L299.141 135L300.222 135.168L301.223 135.896L301.507 137.004L299.637 140.569L300.107 142.848L301.028 143.894L304.157 145.517L307.48 146.608L310.59 150.27L311.946 150.758L314.409 150.731L316.58 151.255L321.348 155.183L324.529 160.876L324.866 164.317L323.971 166.48L323.076 170.834L324.139 176.199L323.962 177.733L323.324 178.709L320.178 179.56L319.691 180.261L320.223 182.105L321.162 183.054L327.383 183.914L329.137 186.353L330.555 187.284L333.214 187.852L334.144 187.594L333.675 191.106L331.592 194.83L331.831 195.478L334.304 197.03L336.546 199.433L336.218 199.69L336.032 202.262L335.544 203.53L334.375 204.913L332.434 205.56L330.75 206.802L328.863 211.209L328.668 213.612L329.873 216.113L330.538 219.234L328.42 220.981L328.118 221.957L328.278 223.704L327.657 230.629L328.127 232.492L327.755 233.44L326.062 234.815L325.708 237.546L324.148 238.681L324.334 242.884L323.404 244.126L323.493 245.155L326.381 249.837L328.659 252.568L330.174 253.641L331.06 255.494L331.167 258.518L329.687 262.012L328.721 262.518L326.373 267.492L323.439 272.281L322.713 272.919L321.286 273.292L319.097 273.177L318.565 271.492L313.833 266.251L310.457 266.038L309.128 264.93L307.949 264.735L306.806 265.604L306.017 267.288L302.331 271.501L300.249 272.919L299.229 273.106L298.042 272.254L297.688 271.093L297.732 262.491L296.819 261.063L293.08 258.9L292.796 256.018L290.199 253.65L289.225 253.304L288.33 253.614L286.868 255.494L286.035 257.747L283.988 259.609H283.013L281.462 258.669L280.274 258.891L278.112 257.303L277.288 257.179L275.959 257.72L275.339 257.02L274.807 255.352L274.142 255.255L272.955 256.159L271.909 256.86L271.076 256.585L269.773 253.827L268.825 253.446L267.886 253.925L266.282 256.621L265.281 257.374L263.934 256.621L261.098 256.337L255.675 256.895L254.585 256.523L252.405 257.055L253.628 253.393L250.624 250.928L250.703 248.87L251.2 248.045L253.371 246.902L254.071 246.13L254.602 243.656L257.341 240.845L256.827 239.178L254.168 237.741L254.904 235.063L251.696 233.857L250.694 233.174L250.544 232.367L250.801 231.8L251.581 231.427L254.443 231.064L255.001 229.725L254.913 226.985L254.097 223.544L253.956 219.057L253.663 218.161L252.449 217.567L241.044 217.638L235.133 215.43L233.618 213.958L232.705 212.202L233.512 211.103L235.435 209.897L236.87 208.407L237.624 207.094L241.381 204.789L242.285 203.202L242.559 201.446L239.697 199.894L235.417 198.422L236.613 194.751L236.658 192.472L234.903 189.102L233.476 188.712L231.482 189.306L230.251 189.182L230.003 185.191L229.577 183.489L229.037 183.036L224.845 182.593L223.799 183.657L224.393 185.776L223.826 186.646L220.308 186.149L213.547 188.685L212.625 186.326L211.721 185.44L209.142 185.555L207.281 186.096L205.102 187.426L200.148 191.416L195.38 197.633L194.131 198.422L192.864 197.89L191.783 194.768L189.08 192.995L188.885 191.78L189.177 189.731L190.808 188.135L190.595 184.757L191.251 182.983L191.127 181.671L189.851 179.56L190.205 175.313L192.899 170.542L194.388 170.435L195.522 169.761L198.057 166.072L202.727 161.896L207.725 161.053L214.761 161.559L218.934 161.009L220.999 159.67L223.693 156.921L225.031 154.057L225.598 150.909L227.114 147.885L227.867 146.874L230.304 145.304L232.378 143.194L233.273 143.22L237.181 144.001L238.9 143.841L240.105 144.639L240.805 146.182L240.601 147.131L238.04 149.516L237.694 150.687L243.322 152.398L247.088 156.203L248.639 156.407L251.022 155.059L252.245 153.365L250.641 150.385L250.535 148.576L253.592 147.61L255.32 147.707L257.775 148.683L259.016 148.603L259.529 148.124L259.521 146.892L260.584 144.258L263.296 141.961L264.527 141.713L270.536 143.744L272.352 145.278L273.212 146.679L274.603 147.37L279.583 145.384L280.328 143.566L281.205 142.591Z" fill="#9BA2AB" stroke="#5F6772" stroke-width="0.5"/>
<path d="M81.1261 39.1222L86.9925 38.9981L88.6407 39.6543L92.7437 38.2532L93.4171 38.5281L94.8793 40.408L97.7061 42.0219L98.6455 42.9974L107.117 45.7641L109.731 47.5997L112.443 48.2027L114.056 47.8214L114.614 47.3248L116.821 44.0527L117.849 43.7778L118.806 44.5581L119.16 45.6666L117.725 49.1516L117.804 51.2798L116.546 53.9224L116.174 57.2035L117.822 59.11L119.417 62.9054L119.258 65.8495L118.106 71.2233L118.141 73.0323L119.63 77.9273L119.417 85.0392L118.85 86.4226L117.946 86.458L115.137 84.649L112.762 84.6667L109.262 85.7131L108.127 87.0256L107.232 90.3775L107.108 99.192L107.808 110.764L105.93 119.446L103.617 124.438L102.589 128.668L104.849 131.905L105.522 132.357L107.986 132.614L109.501 131.417L111.628 128.757L122.262 123.924L123.759 123.818L125.434 124.58L127.242 123.942L127.924 125.494L128.757 125.556L130.193 124.696L130.955 124.27H132.568L136.21 126.265L141.828 124.97L142.555 122.913L143.494 122.363L144.194 122.23L145.001 122.798L146.853 123.073L150.052 122.496L151.009 123.002L152.506 125.928L155.05 126.026L158.284 128.163L163.131 127.489L166.49 127.932L168.696 127.409L169.778 126.691L174.075 127.241L177.93 128.81L179.18 130.717L179.171 132.907L177.354 138.662V139.726L182.122 142.129L183.832 144.799L185.055 151.52L185.241 156.38L184.036 155.404L182.396 155.085L179.366 157.533L178.232 159.484L174.749 159.847L164.026 164.352L154.571 164.964L153.118 163.855L152.799 160.291L153.127 156.025L152.701 154.447L149.378 152.256L148.66 151.139L147.792 145.366L146.294 143.947L143.778 143.318L140.552 143.282L131.814 144.692L124.84 146.315L120.915 147.752L116.617 150.048L115.403 151.884L115.545 153.25L116.316 154.367L119.532 156.149L124.318 158.091L129.067 158.561L129.998 160.344L131.513 160.317L132.204 160.973L133.197 166.791L132.975 167.739L131.044 169.025L130.485 170.329L130.919 171.615L133.348 173.06L134.384 174.266L134.322 176.102L133.427 177.423L130.06 178.283L125.434 180.624L121.003 180.163L119.63 180.536L118.832 181.201L118.797 189.705L118.398 190.92L119.506 193.429L121.11 195.176L122.758 197.863L123.423 200.027L123.174 201.383L121.606 203.272L119.266 204.665L116.271 204.895L109.696 207.112L109.253 212.3L108.757 212.725L104.928 212.317L103.67 211.439L103.652 209.418L104.565 206.509L104.822 203.015L102.226 200.656L101.233 198.519L101.393 192.915L102.686 190.024L104.317 188.25L105.628 187.355L109.102 186.078L113.196 182.149L115.35 172.652L115.527 169.061L115.075 168.404L112.514 167.465L111.114 167.553L103.67 162.499L99.0265 161L96.4212 161.062L92.4335 161.816L86.9482 161.497L76.1636 162.215L74.5153 161.958L71.4226 160.698L61.6394 155.307L59.0784 154.988L58.2897 155.449L57.1466 155.44L46.3975 146.324L50.2345 128.243L52.1132 124.066L56.4465 120.359L55.7199 117.468L53.5754 115.854L53.0702 111.536L55.8794 108.131L53.788 100.363L54.1336 95.7336L55.2591 91.9205L54.4349 77.8652L64.0232 69.5916L70.8732 64.2267L79.3183 51.2621L81.1615 42.7225L81.1261 39.1222Z" fill="#B1B7BE" stroke="#5F6772" stroke-width="0.5"/>
<path d="M308.993 75.0985L312.103 80.6674L312.192 82.4055L313.14 83.3987L314.797 80.1974L315.347 77.8918L316.88 76.6947L320.416 74.9832L323.756 74.6729L330.651 76.4641L331.049 81.7138L332.051 82.9375L335.427 84.8175L336.402 87.5488L335.897 89.3312L336.801 90.5638L337.536 90.9362L342.357 91.4328L343.996 91.9294L344.812 92.6477L345.52 95.2548L345.45 100.23L344.404 101.462L343.934 102.987L345.396 103.626V104.539L347.08 103.484L349.863 103.262L350.368 104.539L350.377 106.818L351.591 107.04L353.203 106.88L355.259 105.621L356.562 104.069L357.67 103.599L359.69 109.966L359.859 112.148L358.919 113.779L358.751 115.597L355.773 119.756L355.33 121.61L355.507 123.348L359.991 123.215L360.957 124.093L361.4 125.866L362.712 128.305L365.22 130.646L367.072 131.116L367.861 132.136L361.551 138.237L360.594 141.535L360.665 143.522L355.773 145.446L354.763 145.366L353.753 144.417L352.255 144.683L350.058 146.076L349.464 147.051L345.263 150.749L342.915 154.393L340.487 157.24L338.679 157.692L336.287 157.55L335.383 157.932L333.965 161.984L333.566 165.088L333.921 171.198L334.319 172.962L337.74 176.802L338.422 178.283L338.493 180.057L337.315 183.471L335.019 187.098L334.142 187.594L333.212 187.851L330.553 187.284L329.135 186.353L327.381 183.914L321.16 183.054L320.221 182.105L319.689 180.261L320.176 179.56L323.322 178.709L323.96 177.733L324.137 176.199L323.074 170.834L323.969 166.48L324.864 164.316L324.527 160.876L321.346 155.183L316.578 151.254L314.407 150.731L311.944 150.758L310.588 150.27L307.478 146.608L304.154 145.517L301.026 143.894L300.105 142.848L299.635 140.569L301.505 137.004L301.221 135.895L300.22 135.168L299.139 135L295.523 136.099H294.061L289.808 138.618L286.103 142.014L283.941 142.608L281.203 142.591L278.013 140.214L277.029 138.21L276.338 135.009L277.685 132.641L277.747 130.681L279.36 129.236L282.683 128.322L284.854 126.815L287.255 126.753L288.097 126.239L285.315 119.322L285.908 115.721L284.056 111.66L284.818 106.047L284.198 95.1218L284.437 92.559L286.369 90.5372L290.135 88.4355L296.906 86.325L300.167 84.6135L300.858 83.8598L301.859 79.9669L303.756 75.8789L304.89 75.4177L308.993 75.0985Z" fill="#828B96" stroke="#5F6772" stroke-width="0.5"/>
<path d="M195.336 288.482L197.285 288.987L199.74 290.388L202.859 293.27L205.314 297.101L207.574 304.417L210.861 306.457L213.263 308.842L218.11 315.289L220.52 317.541L221.965 317.763L222.257 317.453L222.807 314.89L223.906 312.646L224.074 312.416L224.951 313.196L225.359 313.116L225.412 310.483L228.576 308.94L229.568 306.058L236.179 306.191L237.42 305.783L236.888 308.124L235.514 310.483V311.245L236.241 312.744L238.182 315.103L238.66 320.574L237.623 324.751L237.588 328.91L236.161 330.391L235.408 332.271L235.257 335.587L235.869 336.084L239.644 333.468L247.85 329.859L258.838 326.87L265.103 326.249L268.276 326.852L275.099 327.358L274.816 329.876L275.294 335.082L276.96 337.937L279.353 340.252L280 341.892L280.008 348.011L280.514 354.05L281.612 358.954L282.738 359.885L285.671 359.601L286.983 360.018L286.663 361.623L285.574 362.696L285.157 363.84L284.785 367.325L283.066 372.495L280.141 375.252L274.434 378.019L273.584 379.296L273.282 383.216H271.723L270.527 382.284L269.8 382.373L266.814 379.456L266.069 378.941L265.706 379.385L264.722 377.948L262.56 377.283L259.627 377.957L257.73 379.819L255.568 380.626L250.092 387.206L244.792 390.629L240.388 395.409L239.289 395.701L238.678 395.4L237.499 393.617L236.844 393.573L236.684 391.551L235.878 391.33L233.458 395.772L232.271 397.431L230.906 398.193L228.921 400.242L227.822 403.895L227.769 406.316L226.139 408.542L224.872 409.331L221.69 408.746L220.21 409.429L219.298 404.081L218.048 402.299L217.259 399.993L218.084 395.098L216.949 393.192L218.863 390.044L220.556 385.769L220.503 382.081L221.938 378.587L222.213 376.884L222.08 373.86L221.38 372.078L220.095 371.12L219.608 369.24L218.057 367.99L216.4 368.353L215.106 369.231L214.725 368.894L211.402 369.639L210.817 368.194L211.03 367.741L210.374 367.245L209.949 365.702L209.195 365.161L209.133 364.079L208.194 362.297L205.925 362.164L205.27 362.616L203.267 362.784L201.53 360.807L201.043 360.86L199.926 359.61L199.35 359.672L197.968 357.81L192.704 360.408L190.816 359.938L189.859 359.246L189.611 358.315L189.815 356.604L190.666 354.963L190.426 354.254L188.495 354.475L188.087 353.899L188.424 353.11L188.176 352.507L187.555 352.188L186.005 352.516L185.322 351.948L185.118 351.256L180.918 347.559L179.11 345.164L179.739 341.493L177.515 341.112L173.421 341.892L167.377 339.773L165.738 338.274L164.604 338.247L163.434 337.396L162.264 334.071L162.335 332.687L164.364 330.018L165.552 329.451L165.8 328.236L165.304 327.615L163.257 327.376L160.005 327.943L157.807 329.202L157.32 328.803L157.346 325.008L158.312 324.636L158.977 323.359L158.25 321.221L154.032 318.934L153.917 318.41L151.772 316.805L151.71 316.211L149.574 314.039L147.873 310.758L148.024 309.88L149.92 307.725L151.949 304.258L155.237 300.675L158.427 298.644L159.996 300.968L161.919 302.528L168.157 305.198L169.788 305.268L172.234 306.226L175.521 306.04L177.409 306.652L180.883 306.545L186.465 307.893L189.15 307.45L190.542 304.116L191.109 298.361L193.156 291.453L195.336 288.482Z" fill="#B1B7BE" stroke="#5F6772" stroke-width="0.5"/>
<path d="M286.618 32.4004L294.735 33.5976L299.334 34.8213L302.507 36.5417L305.094 38.7586L307.514 39.4059L316.278 47.9544L319.193 47.174L321.781 47.511L324.466 48.8855L326.495 50.4373L328.135 52.3084L329.056 54.4721L331.679 55.687L336.34 56.8132L347.072 60.2894L347.063 61.052L345.291 61.8323L344.777 62.4974L343.864 64.8296L341.037 67.1175L337.333 68.6605L334.072 69.1482L332.751 68.5275L332.184 67.1441L329.863 68.4831L328.099 68.022L325.742 66.5411L325.139 65.7075L323.89 61.5574L322.853 60.4667L314.683 61.1584L309.924 60.2805L300.717 61.5042L300.309 61.7703L300.327 64.1557L299.662 67.1707L299.724 70.5848L300.247 71.2232L302.782 72.0479L307.159 72.1543L307.895 72.7751L308.994 75.0984L304.891 75.4177L303.756 75.8788L301.86 79.9668L300.859 83.8597L300.167 84.6135L296.906 86.3249L290.136 88.4354L286.37 90.5371L284.438 92.5589L284.199 95.1217L284.819 106.047L284.057 111.66L285.909 115.721L285.315 119.322L288.098 126.238L287.256 126.753L284.855 126.815L282.683 128.322L279.36 129.236L277.747 130.681L277.685 132.641L276.339 135.009L277.03 138.21L278.013 140.214L281.204 142.59L280.326 143.566L279.582 145.384L274.602 147.37L273.21 146.679L272.351 145.277L270.534 143.743L264.526 141.713L263.294 141.961L260.583 144.258L259.519 146.891L259.528 148.124L259.014 148.603L257.773 148.683L255.319 147.707L253.591 147.61L250.534 148.576L250.64 150.385L252.244 153.365L251.021 155.058L248.637 156.406L247.086 156.202L243.32 152.398L237.693 150.687L238.039 149.516L240.6 147.131L240.803 146.182L240.103 144.639L238.898 143.841L237.179 144L233.271 143.22L233.289 141.154L234.397 135.745L233.599 132.472L231.906 130.788L231.765 129.839L232.163 126.504L233.546 122.833L234.122 119.286L235.451 118.541L241.309 118.426L242.443 119.197L246.767 115.677L247.255 112.839L250.215 113.558L251.889 112.121L251.446 110.392L250.418 109.124L248.043 107.093L245.801 106.064L244.685 104.991L246.298 101.772L247.264 97.1967L246.422 95.0064L246.537 93.5166L245.926 90.812L243.71 86.2008L244.065 83.035L242.904 80.1885L242.558 75.9763L241.672 71.3917L241.734 66.0268L240.857 60.5554L242.133 50.9605L246.439 49.5683L251.118 44.8152L258.828 45.5069L262 44.8507L282.737 32.3029L283.871 32.0103L286.618 32.4004Z" fill="#9BA2AB" stroke="#5F6772" stroke-width="0.5"/>
<path d="M55.9503 210.836L60.7178 210.021L70.7491 209.71L73.957 210.535L86.3456 224.599L88.109 227.348L93.0804 233.094L95.1097 234.495L96.6162 234.336L97.5378 234.761L97.777 237.369L97.1301 241.492L97.1833 246.263L97.9631 249.526L99.1151 249.872L105.823 249.171L106.568 249.828L106.949 251.264L106.78 254.306L107.091 255.547L107.675 256.452L110.52 258.589L113.214 258.935L114.162 259.423L114.96 261.294L115.615 266.127L117.29 267.297L119.063 267.288L127.18 264.131L129.315 263.989L134.943 266.659L136.201 267.634L141.828 274.045L143.822 274.657L147.331 273.629L151.337 274.347L154.642 275.775L155.209 275.535L165.639 282.026L170.238 285.281L171.063 286.602L172.356 287.232L173.987 287.764L178.347 288.047L181.351 287.241L188.015 286.966L195.334 288.482L193.154 291.453L191.107 298.361L190.54 304.116L189.149 307.45L186.464 307.893L180.881 306.546L177.407 306.652L175.52 306.04L172.232 306.226L169.786 305.269L168.156 305.198L161.917 302.528L159.994 300.968L158.426 298.644L155.236 300.675L151.948 304.258L149.919 307.725L148.022 309.88L147.872 310.758L149.573 314.039L151.709 316.211L151.771 316.805L153.915 318.41L154.031 318.934L158.249 321.222L158.975 323.359L158.311 324.636L153.206 324.715L149.564 325.904L148.838 327.872L149.095 328.431L148.173 330.346L147.03 329.859L145.302 330.373L143.264 329.823L141.199 330.027L140.357 329.593L139.054 327.766L138.213 327.438L134.243 328.546L133.33 328.112L132.789 326.631L132.426 326.782L132.08 326.303L130.6 327.012L127.508 327.127L126.196 324.316L124.264 323.802L120.064 325.31L117.716 324.973L117.787 325.753L117.627 324.999L117.308 325.079L114.162 326.507L111.858 326.782L104.53 326.587L104.095 326.001L102.81 325.939L102.181 325.106L100.498 320.84L100.152 318.384L99.4607 317.799L99.4342 317.089L96.368 315.094L93.7539 311.334L92.6728 308.284L92.593 306.421L91.8929 303.965L90.1472 301.633L87.4887 295.328L86.0177 293.634L84.848 288.943L84.1302 287.542L85.0429 283.552L86.8861 282.177L87.1963 280.758L87.7014 280.235L90.5017 278.382L92.5753 275.58L92.4335 274.427L91.2726 273.735L88.7648 275.331L86.8064 275.402L83.4124 274.444L82.4376 274.56L80.3108 273.194L75.2597 271.651L72.3797 269.505L70.8821 267.696L70.4035 265.497L66.788 263.315L64.9802 263.395L61.5951 265.24L60.0975 268.53L60.0798 270.88L59.681 271.864L55.7642 274.906L49.8801 277.495L44.7492 280.421L42.5427 282.142L41.5413 282.372L38.874 284.332L32.6708 287.223L31.8467 287.356L31.377 286.691L30.9783 286.788L30.1719 285.786L29.5604 285.618L27.283 285.857L21.1419 290.761L19.6709 291.346L16.206 294.397L16.0376 295.275L14.7084 295.975L11.0928 296.614L8.28369 296.631L5.45684 299.097L5.95309 297.518L5.43026 296.312L5.42139 293.173L4.79222 292.375L5.0049 291.098L5.49229 289.865L5.14668 287.462L4.28711 285.875L4.94287 284.633L6.21008 283.826L5.85561 280.865L6.46706 280.661L6.76836 279.135L6.59113 278.586L6.60885 277.805L7.2203 276.351L7.60135 274.968L7.23802 274.294L6.99876 273.611L6.6886 272.919L6.80381 271.882L7.02535 270.348L7.16713 269.736L11.9258 269.895L12.555 269.753L13.4855 268.707L16.6313 268.21L17.2162 268.938L18.315 269.337L19.6354 269.248L24.0219 267.714L24.2434 266.153L25.9715 262.712L26.1221 259.396L27.8147 257.729L27.5134 252.568L26.3791 249.012L26.6538 247.753L27.6817 246.086L29.8706 244.862L30.5972 243.239L32.8924 240.029L33.6456 237.28L34.5672 236.757L36.4636 236.978L38.3157 235.444L38.4043 234.362L37.2168 232.092L36.9333 230.381L37.2611 229.193L38.2448 228.111L44.2264 225.716L47.2304 225.929L48.2407 225.663L50.0307 223.836L50.1371 222.684L52.2284 220.387L52.7335 218.25L52.955 213.843L53.7083 212.867L55.5515 212.104L55.9503 210.836Z" fill="#B1B7BE" stroke="#5F6772" stroke-width="0.5"/>
<path d="M3.71225 412.391L4.81995 412.745L7.84176 412.364L9.56091 413.153L12.627 410.989V409.562L12.9904 409.464L16.1362 409.934L28.2855 409.766L29.2248 408.87L29.9072 405.367L31.7504 403.904L31.8301 401.82L33.0353 399.594L34.6747 399.816L37.6965 401.084L38.7599 401.794L39.4777 403.062L43.5274 402.636L43.0755 401.35L44.4845 400.41L77.7864 400.756L78.7346 400.942L79.2131 401.74L76.7939 404.294L76.5901 405.128L77.237 406.228L77.2724 407.522L79.2131 408.489L82.0666 406.573L85.1238 406.21L86.0631 407.522L86.1695 408.365L85.177 409.305L82.6957 410.466L82.1995 411.38L82.3944 412L83.2097 412.657L85.6644 413.339L86.6657 414.501L87.1797 414.625L88.1722 414.111L92.8423 414.687L93.1524 415.796L92.8334 417.889L84.3883 416.869L82.4476 416.275L71.796 414.643L64.1838 414.235L55.402 415.069L42.0121 415.211L41.507 415.485L41.3386 416.656L40.869 416.567L41.0816 416.869L36.2786 416.142L30.944 416.15L11.8029 416.798L3.39324 417.773L3.07422 415.015L3.71225 412.391Z" fill="#828B96" stroke="#5F6772" stroke-width="0.5"/>
<path d="M272.953 256.159L274.141 255.255L274.805 255.352L275.337 257.02L275.957 257.72L277.286 257.179L278.111 257.303L280.273 258.891L281.46 258.669L283.011 259.609H283.986L286.033 257.747L286.866 255.494L288.328 253.614L289.223 253.304L290.198 253.65L292.794 256.017L293.078 258.899L296.817 261.063L297.73 262.491L297.686 271.093L298.04 272.254L299.228 273.106L300.247 272.919L302.329 271.5L306.016 267.288L306.804 265.603L307.948 264.734L309.126 264.93L310.455 266.038L313.832 266.251L318.564 271.492L319.095 273.176L321.284 273.292L322.711 272.919L323.438 272.281L326.371 267.492L328.719 262.518L329.685 262.012L331.183 263.475L333.327 263.573L335.17 264.327L335.729 268.299L337.439 271.323L339.353 272.192L344.067 272.689H347.346L349.801 271.492L350.723 271.988L352.504 273.948L351.804 276.546L349.411 280.102L347.541 281.858L346.292 282.035L344.998 282.966L343.624 285.503L342.251 286.709L341.967 288.704L342.534 290.229L344.387 292.384L344.67 293.484L344.404 298.281L345.68 300.117L350.244 302.52L353.487 303.673L360.745 303.54L369.394 301.065L378.575 304.905L380.808 306.741L382.101 309.117L379.815 312.381L377.387 313.108L373.391 312.265L373.098 311.902L371.751 312.106L370.865 311.157L369.332 310.359H367.684L366.549 311.121L365.371 313.019L364.724 315.555L366.239 316.761L368.038 318.987L368.348 321.541L367.87 322.117L368.756 324.494L368.658 325.549L358.707 331.943L357.635 333.175L347.187 325.256L347.178 325.877L343.669 326.072L339.344 325.709L333.265 324.334L324.324 321.035L321.949 320.645L319.654 320.805L318.431 321.053L314.931 323.004L313.832 324.254L312.928 326.791L312.999 329.025L317.164 339.347L317.084 340.553L316.074 341.529L311.35 339.551L308.408 337.068L307.46 337.192L302.808 336.315L298.448 333.814L290.73 330.666L283.188 329.557L275.098 327.358L268.274 326.853L265.102 326.25L258.837 326.87L247.848 329.859L239.642 333.468L235.867 336.084L235.256 335.587L235.406 332.271L236.16 330.391L237.586 328.91L237.622 324.751L238.659 320.574L238.18 315.103L236.239 312.744L235.513 311.246V310.483L236.886 308.124L237.418 305.783L247.281 304.231L249.86 303.167L253.963 302.227L260.13 298.999L263.48 294.902L264.402 293.448L265.359 290.433L266.059 290.114L267.406 283.064L269.16 278.391L269.648 272.183L269.196 270.241L269.267 265.258L271.136 259.476L271.606 258.935L272.519 258.873L272.891 258.323L272.953 256.159Z" fill="#C2C7CC" stroke="#5F6772" stroke-width="0.5"/>
<path d="M58.2902 155.449L59.0788 154.988L61.6399 155.307L71.4231 160.699L74.5158 161.958L76.164 162.215L86.9486 161.497L92.4339 161.816L96.4216 161.062L99.027 161L103.67 162.499L111.114 167.553L112.514 167.465L115.075 168.405L115.527 169.061L115.35 172.652L113.197 182.15L109.103 186.078L105.629 187.355L104.317 188.251L102.687 190.024L101.393 192.915L101.233 198.519L102.226 200.657L104.822 203.015L104.565 206.509L103.653 209.418L103.67 211.44L104.929 212.318L108.757 212.725L109.253 212.3L109.696 207.112L116.272 204.895L119.267 204.665L121.606 203.272L123.175 201.384L123.423 200.027L122.758 197.863L121.11 195.176L119.506 193.429L118.398 190.92L118.797 189.705L118.833 181.201L119.63 180.536L121.004 180.163L125.435 180.624L130.06 178.283L133.428 177.423L134.323 176.102L134.385 174.266L133.348 173.06L130.92 171.615L130.486 170.329L131.044 169.025L132.976 167.74L133.197 166.791L132.205 160.974L131.514 160.317L129.998 160.344L129.068 158.562L124.318 158.092L119.533 156.15L116.316 154.367L115.545 153.25L115.403 151.884L116.617 150.049L120.915 147.752L124.841 146.315L131.815 144.692L140.552 143.282L143.778 143.318L146.295 143.948L147.792 145.366L148.661 151.139L149.379 152.257L152.702 154.447L153.127 156.025L152.799 160.291L153.118 163.856L154.571 164.964L164.027 164.352L174.749 159.847L178.232 159.484L179.366 157.533L182.397 155.085L184.036 155.405L185.242 156.38L188.184 160.282L191.551 166.17L192.96 169.797L192.898 170.542L190.204 175.313L189.85 179.56L191.126 181.671L191.25 182.983L190.594 184.757L190.807 188.135L189.176 189.731L188.884 191.78L189.079 192.995L191.781 194.768L192.862 197.89L194.13 198.422L195.379 197.633L200.147 191.416L205.1 187.426L207.28 186.096L209.141 185.555L211.72 185.44L212.624 186.326L213.545 188.685L220.307 186.149L223.825 186.646L224.392 185.776L223.798 183.657L224.844 182.593L229.036 183.036L229.576 183.489L230.001 185.191L230.25 189.182L231.481 189.306L233.475 188.712L234.902 189.102L236.656 192.472L236.612 194.751L235.416 198.422L239.696 199.894L242.558 201.446L242.284 203.202L241.38 204.789L237.622 207.094L236.869 208.407L235.434 209.897L233.511 211.103L232.704 212.202L233.617 213.958L235.132 215.43L241.043 217.638L252.448 217.567L253.662 218.161L253.954 219.057L254.096 223.544L254.911 226.985L255 229.725L254.442 231.064L251.579 231.427L250.8 231.8L250.543 232.367L250.693 233.174L251.695 233.857L254.903 235.063L254.167 237.741L256.826 239.178L257.339 240.845L254.601 243.656L254.07 246.13L253.37 246.902L251.198 248.046L250.702 248.87L250.622 250.928L253.626 253.393L252.404 257.055L254.584 256.523L255.674 256.895L248.008 267.838L247.175 268.051L239.031 260.868L237.472 260.31L227.697 260.726L225.323 261.019L225.021 261.356L224.702 273.469L225.367 300.259L224.959 301.473L226.687 305.827L227.946 306.244L229.567 306.058L228.575 308.94L225.411 310.483L225.358 313.117L224.95 313.197L224.073 312.416L223.905 312.647L222.806 314.89L222.256 317.453L221.964 317.763L220.52 317.542L218.109 315.289L213.262 308.842L210.86 306.457L207.573 304.417L205.313 297.102L202.858 293.271L199.739 290.389L197.284 288.988L195.335 288.482L188.015 286.966L181.351 287.241L178.347 288.048L173.987 287.764L172.357 287.232L171.063 286.602L170.239 285.281L165.64 282.027L155.21 275.535L154.642 275.775L151.337 274.347L147.332 273.629L143.822 274.657L141.828 274.046L136.201 267.634L134.943 266.659L129.316 263.99L127.18 264.132L119.063 267.288L117.291 267.297L115.616 266.127L114.96 261.294L114.163 259.423L113.214 258.935L110.52 258.589L107.676 256.452L107.091 255.548L106.781 254.306L106.949 251.264L106.568 249.828L105.824 249.172L99.1156 249.872L97.9636 249.526L97.1837 246.263L97.1306 241.492L97.7775 237.369L97.5382 234.762L96.6166 234.336L95.1101 234.496L93.0808 233.095L88.1095 227.348L86.346 224.599L73.9575 210.535L70.7496 209.71L60.7182 210.021L55.9507 210.837L56.3849 208.159L54.648 207.538L52.7871 205.747L51.2363 202.607L53.9657 196.427L53.8416 194.928L54.6303 193.917L56.9166 192.738L62.3045 195.566L63.1906 192.8L63.4122 190.148L65.9111 184.446L65.3263 178.948L62.9425 177.264L60.3106 172.298L61.3829 168.218L61.4981 166.409L60.4081 161.931L58.5206 161.204L58.8928 159.475L58.6446 157.746L59.0966 156.016L58.2902 155.449Z" fill="#B1B7BE" stroke="#5F6772" stroke-width="0.5"/>
<path d="M1.54056 334.124L6.83094 330.32L9.92364 330.134L11.6073 330.958L12.7062 332.546L13.0695 333.814L13.2024 339.56L13.6987 341.653L14.8596 343.577L15.6039 343.692L16.4369 338.762L16.942 337.653L17.3585 337.254H18.5726L19.3524 337.795L19.8309 339.347L19.6891 342.087L18.1472 347.39L17.7839 347.177L17.3319 347.683L17.7927 350.928L19.6714 353.154L22.3742 355.344L23.2781 358.04L26.1138 362.04L28.7811 364.132L30.8547 365.134L34.4437 365.383L35.9856 364.948L38.4491 361.428L39.4594 357.668L40.8949 356.355L43.199 356.612L44.7497 360.461L46.1587 361.463L47.0626 361.233L48.064 360.248L50.2528 359.716L55.747 359.911L56.7838 361.587L57.0762 366.606L57.4396 367.236L60.0803 368.318L60.6475 369.293L60.5588 371.262L61.5336 373.656L61.897 376.201L58.3789 379.757L58.0865 380.759L58.4143 381.008L63.8111 380.786L66.2037 380.272L68.8976 380.387L71.7156 379.287L73.0537 378.072L78.2732 377.292L80.7013 376.334L81.9419 375.35L82.7749 375.696L83.2357 376.441L83.7585 380.236L85.5043 380.227L88.916 378.471L91.9201 378.995L94.552 385.3L97.2636 383.561L98.2384 383.544L99.2575 384.156L101.136 383.34L104.823 383.109L105.097 383.224L104.831 384.12L104.167 388.997L103.227 391.888L101.145 393.75L99.3195 394.611L96.1028 397.519L93.462 401.882L93.4886 404.906L95.2698 406.653L99.5322 407.371L101.154 407.256L102.412 406.316L103.874 404.303L105.434 403.851L106.01 404.542L105.992 408.506L106.746 411.672L106.108 413.277L103.945 413.862L103.263 414.873L102.27 415.476L100.144 415.574L98.9739 416.762L99.8423 417.143L102.315 416.922L105.239 418.465L105.425 419.422L104.699 420.948L101.145 420.699L96.7142 418.713L92.8328 417.888L93.1518 415.796L92.8417 414.687L88.1716 414.111L87.1791 414.625L86.6651 414.501L85.6638 413.339L83.2091 412.656L82.3938 412L82.1989 411.379L82.6951 410.466L85.1764 409.304L86.1689 408.364L86.0625 407.522L85.1232 406.21L82.066 406.573L79.2125 408.489L77.2718 407.522L77.2364 406.227L76.5895 405.128L76.7933 404.294L79.2125 401.74L78.734 400.942L77.7858 400.756L44.4839 400.41L43.0749 401.35L43.5268 402.636L39.4771 403.062L38.7593 401.793L37.6959 401.084L34.6741 399.816L33.0347 399.594L31.8295 401.82L31.7498 403.904L29.9066 405.367L29.2242 408.87L28.2849 409.766L16.1356 409.934L12.9898 409.464L12.6264 409.562V410.989L9.56031 413.153L7.84116 412.364L4.81935 412.745L3.71165 412.39L4.08384 409.482L5.0852 408.435L5.64348 407.07L4.45603 403.753L5.60803 401.838L7.47783 400.242L7.65507 397.812L7.46897 396.961L5.57259 396.712L4.88138 396.366L4.51806 395.604L4.36741 393.99L5.4308 392.305L5.12951 391.356L5.55486 388.288L5.35991 387.419L4.2079 387.295L3.72937 386.754L3.8623 384.218L5.10292 382.79L7.81457 381.212L5.63462 379.234L5.20926 378.383L6.86638 376.432L7.38922 374.729L6.80435 370.597L5.44853 369.125L5.34219 360.532L7.44239 360.461L8.16904 360.035L8.20449 359.397L7.8323 356.293L5.45739 354.484L5.26243 352.924L4.39399 351.576L4.12815 347.851L4.34969 339.906L4.08384 339.063L3.35719 338.753L2.49761 336.465L1 334.541L1.54056 334.124Z" fill="#9BA2AB" stroke="#5F6772" stroke-width="0.5"/>
<path d="M173.421 341.892L177.515 341.112L179.739 341.493L179.11 345.164L180.918 347.559L185.118 351.256L185.322 351.948L183.151 355.043L182.353 355.575L180.971 355.451L179.722 356.976L179.562 358.2L179.917 358.945L181.707 359.672L180.927 362.235L181.609 364.443L181.981 364.691L180.714 367.83L178.809 368.761L177.249 370.384L176.833 371.306L176.966 372.539L174.103 378.649L174.387 379.385L174.059 380.139L172.721 380.786L171.622 382.267L171.073 386.373L172.118 387.508L172.26 388.235L171.48 388.687L171.471 390.132L170.417 389.68L170.195 389.902L169.354 394.3L168.015 397.306L165.641 398.22L164.923 397.901L163.868 396.588L162.681 396.482L159.34 399.284L158.684 399.311L156.823 394.469L158.604 392.474L157.062 390.62L155.609 390.319L152.694 390.665L146.81 390.567L145.321 390.248L143.3 390.585L141.422 390.239L139.472 391.135L139.065 391.826L138.985 393.564L138.143 394.167L137.443 396.18L135.91 396.89L135.511 397.812L133.951 399.24L133.517 400.091L133.597 402.06L132.888 402.937V405.456L133.978 406.023L135.21 408.045L135.724 409.331L135.405 410.856L134.669 412.594L133.127 414.111L132.374 417.427L129.769 418.19L129.255 418.74L128.404 421.95L127.695 422.571L127.943 422.18L127.722 422.712L128.112 423.519L128.732 423.564L130.451 424.77L131.913 427.377L133.296 427.465L134.474 428.388L135.573 430.392L135.227 431.42L129.113 446.265L124.806 440.998L116.68 432.804L103.547 422.198L101.155 420.726L104.699 420.974L105.435 419.44L105.249 418.491L102.324 416.948L99.852 417.17L98.9835 416.789L100.153 415.592L102.28 415.503L103.264 414.9L103.955 413.889L106.117 413.304L106.755 411.69L106.011 408.524L106.02 404.56L105.452 403.869L103.884 404.321L102.422 406.334L101.163 407.274L99.5418 407.389L95.2882 406.671L93.5071 404.933L93.4805 401.909L96.1212 397.546L99.338 394.637L101.163 393.786L103.246 391.924L104.194 389.042L104.85 384.156L107.216 382.896L109.121 378.489L112.923 375.439L114.979 375.421L117.203 376.521L119.782 378.489L121.386 378.516L121.953 377.398L121.749 375.953L122.112 374.082L121.705 370.553L123.087 364.753L123.831 364.248L129.024 362.838L128.475 360.709L132.507 359.424L139.401 359.805L145.578 359.53L146.951 360L148.21 361.96L149.122 364.789L148.981 365.551L149.947 367.937L151.967 368.46L156.868 365.356L159.561 361.428L161.077 357.952L162.583 350.769L163.585 348.871L165.711 346.672L167.643 345.386L168.396 343.559L170.045 343.222L171.374 344.322L172.101 344.056L173.421 341.892Z" fill="#9BA2AB" stroke="#5F6772" stroke-width="0.5"/>
<path d="M104.532 326.586L111.86 326.782L114.164 326.507L117.31 325.079L117.629 324.999L117.789 325.753L117.718 324.973L120.066 325.31L124.266 323.802L126.198 324.316L127.51 327.127L130.602 327.012L132.082 326.303L132.428 326.782L131.081 331.481L129.318 332.936L127.386 333.769L125.95 335.099L124.266 338.868L124.16 340.11L124.878 342.602L123.823 346.14L124.435 350.379L126.96 355.797L127.705 359.158L128.44 360.665L128.99 362.802L123.797 364.203L123.052 364.718L121.67 370.517L122.078 374.046L121.723 375.918L121.927 377.363L121.36 378.48L119.756 378.454L117.177 376.485L114.953 375.385L112.897 375.394L109.104 378.454L107.199 382.852L104.833 384.12L105.099 383.224L104.824 383.109L101.138 383.34L99.259 384.156L98.2399 383.544L97.2651 383.561L94.5535 385.3L91.9216 378.995L88.9175 378.471L85.5058 380.227L83.76 380.236L83.2372 376.441L82.7764 375.696L81.9434 375.35L80.7028 376.334L78.2747 377.292L80.3483 368.566L80.7294 363.875L82.2092 356.143L81.4383 355.708L78.7355 351.381L75.9795 349.314L75.7403 348.49L75.6162 347.709L76.6353 346.743L77.3265 345.182L78.0975 336.962L78.6292 336.713L82.4397 337.902L84.4955 337.237L85.1867 336.359L85.3019 334.319L86.2413 333.814L88.7314 330.87L91.3987 332.501L94.58 337.432L96.4676 336.607L97.0436 335.339L98.8602 334.31L99.7286 333.078L99.9768 333.423L101.598 332.084L103.628 331.411L103.849 331.747L104.727 330.559L105.001 329.424L104.532 326.586Z" fill="#E0E3E5" stroke="#5F6772" stroke-width="0.5"/>
<path d="M5.45784 299.097L8.2847 296.631L11.0938 296.614L14.7094 295.975L16.0386 295.275L16.207 294.397L19.6719 291.346L21.1429 290.761L27.284 285.857L29.5614 285.618L30.1729 285.786L30.9793 286.788L31.378 286.691L31.8477 287.356L32.6718 287.223L38.875 284.332L41.5423 282.372L42.5437 282.142L44.7502 280.421L49.8811 277.495L55.7652 274.906L59.682 271.864L60.0808 270.88L60.0985 268.53L61.5961 265.24L64.9812 263.395L66.789 263.315L70.4045 265.497L70.8831 267.696L72.3807 269.505L75.2607 271.651L80.3118 273.194L82.4386 274.56L83.4134 274.444L86.8074 275.402L88.7658 275.331L91.2736 273.735L92.4345 274.427L92.5763 275.579L90.5027 278.382L87.7024 280.235L87.1973 280.758L86.8871 282.177L85.0439 283.552L84.1312 287.542L84.849 288.943L86.0187 293.634L87.4897 295.328L90.1482 301.633L91.8939 303.965L92.594 306.421L92.6738 308.284L93.7549 311.334L96.369 315.094L99.4352 317.089L99.4617 317.799L100.153 318.384L100.499 320.84L102.182 325.106L102.811 325.939L104.096 326.001L104.531 326.586L105 329.424L104.726 330.559L103.848 331.747L103.627 331.411L101.597 332.084L99.9757 333.423L99.7276 333.078L98.8592 334.31L97.0425 335.339L96.4665 336.607L94.579 337.432L91.3977 332.501L88.7303 330.87L86.2402 333.814L85.3009 334.319L85.1857 336.359L84.4945 337.237L82.4386 337.902L78.6281 336.713L78.0964 336.962L77.3255 345.182L76.6342 346.743L75.6152 347.709L75.7392 348.49L75.9785 349.314L78.7345 351.381L81.4372 355.708L82.2082 356.143L80.7283 363.875L80.3473 368.566L78.2736 377.292L73.0542 378.072L71.7161 379.287L68.8981 380.387L66.2041 380.272L63.8115 380.786L58.4148 381.008L58.0869 380.759L58.3793 379.757L61.8974 376.201L61.5341 373.656L60.5593 371.262L60.6479 369.293L60.0808 368.318L57.44 367.236L57.0767 366.606L56.7843 361.587L55.7474 359.911L50.2533 359.716L48.0644 360.248L47.0631 361.233L46.1592 361.463L44.7502 360.461L43.1994 356.613L40.8954 356.355L39.4598 357.668L38.4496 361.428L35.9861 364.948L34.4442 365.383L30.8552 365.134L28.7816 364.132L26.1142 362.04L23.2785 358.04L22.3746 355.344L19.6719 353.154L17.7932 350.928L17.3324 347.683L17.7843 347.177L18.1477 347.39L19.6896 342.087L19.8314 339.347L19.3528 337.795L18.573 337.254H17.359L16.9425 337.653L16.4374 338.762L15.6044 343.692L14.86 343.577L13.6991 341.653L13.2029 339.56L13.07 333.814L12.7066 332.546L11.6078 330.958L9.92409 330.134L6.83139 330.32L1.54102 334.124L2.48921 332.28L3.1361 328.466L4.3147 324.786L4.04885 323.793L4.37673 321.399L5.37809 319.395L5.69711 316.832L3.53488 314.118L2.49807 310.58L2.56896 308.789L3.49943 307.131L3.10952 305.313L3.53488 304.692L4.64258 304.426L5.85662 301.872L5.47557 301.482L6.12247 300.622L6.13133 299.673L5.45784 299.097Z" fill="#E0E3E5" stroke="#5F6772" stroke-width="0.5"/>
<path d="M336.545 199.433L337.901 198.998L340.719 199.069L343.182 199.849L345.495 203.538L346.187 207.795L346.151 218.773L355.872 216.831L356.812 217.017L358.407 218.72L359.266 221.495L359.497 226.763L359.293 227.8L357.184 231.764L357.104 233.263L357.636 234.017L361.109 235.276L361.81 235.905L362.607 236.934L364.069 240.543L365.452 241.732L366.79 242.201L371.043 242.441L375.891 243.753L384.788 243.23L388.678 241.98L391.239 237.36L395.457 236.207L395.9 234.726L395.661 233.183L392.852 229.583L393.118 228.306L395.803 226.727L402.537 230.23L404.815 230.682L413.021 235.054L422.831 239.257L428.307 242.84L433.943 245.882L435.325 249.375L435.511 251.282L435.06 254.9L435.733 260.185L437.771 263.608L438.702 268.946L438.214 270.126L438.48 272.121H438.861L439.047 277.034L437.47 279.765L426.676 284.962L424.993 284.864L416.557 286.726L414.35 288.003L412.524 291.719L408.324 296.791L402.023 300.125L395.218 306.909L393.064 307.964L389.156 308.86L385.514 309.339L382.103 309.117L380.809 306.741L378.576 304.905L369.395 301.065L360.746 303.539L353.488 303.672L350.245 302.52L345.681 300.116L344.405 298.281L344.671 293.483L344.388 292.384L342.536 290.229L341.968 288.704L342.252 286.709L343.626 285.502L344.999 282.966L346.293 282.035L347.542 281.858L349.412 280.102L351.805 276.546L352.505 273.948L350.724 271.988L349.802 271.492L347.347 272.689H344.069L339.354 272.192L337.44 271.323L335.73 268.299L335.172 264.326L333.328 263.573L331.184 263.475L329.686 262.012L331.166 258.518L331.06 255.494L330.174 253.641L328.658 252.568L326.381 249.837L323.492 245.154L323.403 244.126L324.334 242.884L324.148 238.681L325.707 237.546L326.062 234.815L327.754 233.44L328.127 232.491L327.657 230.629L328.277 223.703L328.118 221.957L328.419 220.981L330.537 219.234L329.872 216.113L328.667 213.612L328.862 211.209L330.75 206.802L332.433 205.56L334.374 204.913L335.544 203.529L336.031 202.261L336.217 199.69L336.545 199.433Z" fill="#E0E3E5" stroke="#5F6772" stroke-width="0.5"/>
<path d="M246.795 519.619L245.501 520.851L245.519 521.534L244.969 521.321L245.164 520.062L246.44 519.335L246.795 519.619ZM244.012 517.987L242.488 517.118L242.001 517.251L241.513 517.384L241.327 516.772L242.089 516.072L241.815 515.477L242.089 514.901L242.027 513.97L241.522 513.252L240.716 513.101L240.521 513.243L239.892 511.735L239.652 511.585L239.776 511.177L239.014 510.414L238.775 510.733L237.924 510.866L237.756 511.593L238.261 512.507L238.704 513.438L239.068 515.247L238.642 515.043L238.243 515.602L239.192 518.688L239.068 519.814L240.104 523.396L239.892 523.591L240.574 523.999L242.399 523.618L242.754 523.219L242.869 522.705L244.42 523.139L244.447 521.162L245.04 519.778L244.012 517.987ZM240.645 508.889L241.008 509.297L242.94 509.376L243.108 508.569L242.745 508.295L241.247 508.561L240.645 508.889ZM241.77 506.707L242.089 507.709L242.55 507.878L242.293 506.193L241.77 506.707ZM248.151 515.344L246.875 512.808L245.988 512.188L244.544 511.469L244.305 511.363L243.56 511.939L244.136 512.019L245.297 513.021L245.421 513.207L245.217 513.615L245.678 514.44L245.785 516.142L246.928 517.207L247.734 517.357L248.328 516.107L248.151 515.344ZM253.397 520.771L251.554 518.448L250.393 519.894L251.093 520.594L251.811 520.381L252.147 521.188H252.821L253.016 521.738L254.052 521.295L255.01 522.252L256.658 520.931L256.108 520.443L253.397 520.771ZM235.753 514.91L234.761 515.38L234.513 516.55L235.523 516.905L236.799 517.863L237.712 519.885L237.455 516.905L237.136 516.772L237.366 515.451L235.753 514.91ZM251.819 517.18L249.719 515.743L248.346 513.66L248.319 513.42L247.894 511.913L247.468 512.294L247.114 511.975L247.495 511.381L247.468 510.059L247.362 509.997L246.857 511.638L244.863 511.017L244.393 510.928L243.614 509.971L243.551 508.623L243.232 508.366L243.17 507.958L242.94 507.807L242.807 507.23L243.25 506.53L242.382 505.448L241.664 505.918L241.363 506.707L241.939 508.073L240.113 508.756L239.75 509.075L238.926 509.412L238.465 509.456L237.579 510.139L237.171 510.689L237.091 509.35L236.577 510.006L236.382 510.458L237.269 511.921L237.756 514.094L236.595 514.493L236.125 514.679L234.903 513.252L234.273 511.567L232.988 509.43L231.659 508.977L232.155 507.603L231.553 505.634L232.421 504.916L232.731 504.49L232.262 503.896L230.658 503.683L229.054 502.699L228.806 504.109L228.017 504.614L227.725 503.932L226.599 503.808L226.298 503.506L225.731 503.675L225.048 503.701L224.499 502.93L224.331 502.805L223.843 503.169L224.012 504.047L223.888 504.34L224.295 504.614L225.421 505.741L225.314 507.097L226.183 511.212L229.036 514.147L229.054 515.194L227.45 516.488L227.361 517.003L228.974 522.82L229.462 525.764L231.597 527.963L231.34 528.256L224.924 528.868L222.939 528.203L222.86 525.799L222.647 523.547L222.771 523.139L222.744 522.988L222.337 520.585L222.168 519.92L223.888 516.666L223.719 514.298L223.125 514.431L222.523 514.52L219.014 512.214L217.95 508.33L216.727 506.672L214.964 506.654L209.168 508.906L208.247 508.676L207.937 506.956L208.309 505.661L205.376 504.384L204.933 503.648L204.995 499.799L206.678 497.432L207.352 495.614L207.378 494.488L206.235 494.629L205.491 493.938L206.669 490.001L210.648 483.048L213.103 483.199L213.59 482.756L214.255 480.548L215.62 479.847L215.416 478.242L216.816 477.293L217.658 475.981L217.631 474.26L217.073 472.895L216.4 472.38L214.698 471.644L212.093 472.079L211.171 471.831L210.666 470.908L210.852 470.518L213.971 468.913L214.14 464.213L214.76 462.901L216.577 461.642L217.365 460.09L218.092 457.27L217.126 454.131L217.33 453.82L218.314 454.955L220.44 455.142L218.003 466.741L219.342 467.131L222.417 466.537L224.295 467.228L224.685 468.7L224.224 472.797L223.258 475.245L223.489 476.46L225.119 477.612L226.644 480.636L228.558 482.099L230.454 482.463L236.409 482.339L240.574 483.332L244.252 482.383L246.139 482.357L250.136 483.359L252.413 482.516L252.9 482.561L253.485 484.086L253.539 486.551L251.412 490.267L248.39 494.106L247.176 497.396L247.034 498.363L247.566 499.347L248.851 500.597L250.446 500.837L253.219 500.314L254.203 499.746L256.676 499.64L259.582 500.722L261.186 500.349L263.791 501.591L265.874 503.178L267.602 506.273L268.16 508.312L267.309 512.099L267.823 516.134L267.371 516.417L267.336 516.985L267.877 518.022L266.795 518.705L266.051 518.067L265.9 517.198L264.819 516.958L264.332 516.728L264.102 517.136L262.87 518.182L262.356 517.969L262.125 517.65L261.789 517.632L261.159 517.978L259.83 515.885L258.705 516.737L257.881 516.417L256.463 515.974L255.887 515.061L255.293 515.229L254.637 514.467L254.088 514.919L253.92 515.619L253.131 515.912L253.432 516.87L253.671 517.783L253.884 518.315L254.575 518.847L255.258 518.634L255.763 518.705L256.525 518.43L256.374 519.982L254.806 520.133L253.53 520.603L252.874 519.539L252.785 519.246L251.855 518.209L251.722 517.375L251.819 517.18ZM270.89 521.002L270.278 520.656L269.897 520.63L269.117 520.31L269.1 520.293L268.745 519.973L268.373 520.381L268.089 520.266L268.399 519.787L267.62 518.466L266.822 518.936L265.9 518.138L265.581 517.836L265.431 517.384L264.199 517.393L263.969 517.641L262.879 518.413L261.7 518.368L261.292 518.404L260.911 518.2L260.353 517.641L259.883 517.366L259.804 516.648L258.705 516.949L257.792 516.967L257.81 516.595L256.702 516.293L255.896 515.885L254.708 515.806L254.283 516.018L254.079 516.533L254.061 517.233H255.586L255.665 517.304L256.702 518.253L256.906 518.847L257.225 520.062L257.969 520.337L258.111 519.982L258.412 520.231L259.361 520.257L259.414 520.452L257.783 521.108L257.402 521.241L256.791 523.37L261.638 524.053L265.342 523.237L270.597 523.113L270.429 522.031L270.89 521.002ZM227.751 504.978L228.451 504.827L229.267 504.127L229.337 503.134L230.481 503.932L231.898 504.49L231.048 505.528L231.429 507.168L231.668 507.452L231.641 507.966L231.11 508.8L231.305 509.368L232.2 509.643L233.316 510.84L235.151 514.706L234.327 515.247L233.954 515.992L234.087 516.799L236.879 518.439L237.41 521.011L238.19 522.181L238.084 523.414L238.509 524.842L239.821 525.844L238.828 527.076L237.978 527.396L237.215 526.952L236.684 527.316L231.03 526.083L230.312 523.831L230.782 523.281L230.25 523.299L229.045 519.849L228.327 518.164L228.416 516.338L229.86 514.954L229.71 513.757L228.106 512.285L226.608 511.265L225.935 507.665L225.678 507.151L225.695 505.537L225.013 504.579L226.112 503.923L226.892 504.481H227.485L227.751 504.978Z" fill="#828B96" stroke="#5F6772" stroke-width="0.5"/>
<path d="M158.808 1.44339L170.222 6.48024L188.414 12.9093L191.959 14.9932L196.071 13.6719L199.305 13.6542L206.873 17.3077L220.945 31.1059L226.245 40.346L223.56 42.6516L217.268 46.1987L208.84 45.0636L207.157 44.4783L205.65 42.6605L203.639 42.0575L199.234 41.889L198.712 46.7485L198.065 48.4245L197.622 48.6196L195.229 47.3426H192.757L188.459 48.726L186.589 50.3399L186.491 50.9606L187.183 55.5186L187.245 63.003L186.048 63.8897L182.468 65.344L173.589 66.0446L168.192 66.887L163.026 74.4955L161.36 76.1538L158.639 77.8475L158.693 80.4014L159.96 84.516L160.536 88.2848L159.88 90.9717L157.7 92.4792L152.286 92.9492L151.151 92.692L146.898 93.2596L144.558 92.9847L140.597 93.2773L132.329 91.7964L131.514 92.3285L130.69 96.3278L130.779 112.476L130.194 124.696L128.758 125.556L127.925 125.494L127.243 123.942L125.435 124.58L123.76 123.818L122.263 123.924L111.629 128.757L109.502 131.417L107.986 132.614L105.523 132.357L104.849 131.905L102.59 128.668L103.618 124.438L105.931 119.446L107.809 110.764L107.109 99.1921L107.233 90.3776L108.128 87.0256L109.263 85.7132L112.763 84.6668L115.138 84.649L117.947 86.4581L118.851 86.4226L119.418 85.0392L119.631 77.9273L118.142 73.0323L118.106 71.2233L119.258 65.8495L119.418 62.9054L117.823 59.1101L116.175 57.2035L116.547 53.9224L117.805 51.2799L117.725 49.1516L119.161 45.6666L118.806 44.5582L117.849 43.7778L116.821 44.0527L114.615 47.3249L114.057 47.8215L112.444 48.2028L109.732 47.5998L107.118 45.7642L98.6463 42.9974L97.707 42.022L94.8802 40.4081L93.418 38.5281L92.7445 38.2532L88.6416 39.6543L86.9933 38.9981L81.127 39.1223L81.2067 24.5437L84.8754 24.526L99.5502 11.5969L121.811 7.15419L123.946 9.05187L129.006 9.47752L134.722 8.83905L139.02 9.33564L143.743 9.19376L148.395 3.64258L157.789 1" fill="#C2C7CC"/>
<path d="M158.808 1.44339L170.222 6.48024L188.414 12.9093L191.959 14.9932L196.071 13.6719L199.305 13.6542L206.873 17.3077L220.945 31.1059L226.245 40.346L223.56 42.6516L217.268 46.1987L208.84 45.0636L207.157 44.4783L205.65 42.6605L203.639 42.0575L199.234 41.889L198.712 46.7485L198.065 48.4245L197.622 48.6196L195.229 47.3426H192.757L188.459 48.726L186.589 50.3399L186.491 50.9606L187.183 55.5186L187.245 63.003L186.048 63.8897L182.468 65.344L173.589 66.0446L168.192 66.887L163.026 74.4955L161.36 76.1538L158.639 77.8475L158.693 80.4014L159.96 84.516L160.536 88.2848L159.88 90.9717L157.7 92.4792L152.286 92.9492L151.151 92.692L146.898 93.2596L144.558 92.9847L140.597 93.2773L132.329 91.7964L131.514 92.3285L130.69 96.3278L130.779 112.476L130.194 124.696L128.758 125.556L127.925 125.494L127.243 123.942L125.435 124.58L123.76 123.818L122.263 123.924L111.629 128.757L109.502 131.417L107.986 132.614L105.523 132.357L104.849 131.905L102.59 128.668L103.618 124.438L105.931 119.446L107.809 110.764L107.109 99.1921L107.233 90.3776L108.128 87.0256L109.263 85.7132L112.763 84.6668L115.138 84.649L117.947 86.4581L118.851 86.4226L119.418 85.0392L119.631 77.9273L118.142 73.0324L118.106 71.2233L119.258 65.8495L119.418 62.9054L117.823 59.1101L116.175 57.2035L116.547 53.9224L117.805 51.2799L117.725 49.1516L119.161 45.6666L118.806 44.5582L117.849 43.7778L116.821 44.0527L114.615 47.3249L114.057 47.8215L112.444 48.2028L109.732 47.5998L107.118 45.7642L98.6463 42.9974L97.707 42.022L94.8802 40.4081L93.418 38.5281L92.7445 38.2532L88.6416 39.6543L86.9933 38.9981L81.127 39.1223L81.2067 24.5437L84.8754 24.526L99.5502 11.5969L121.811 7.15419L123.946 9.05187L129.006 9.47752L134.722 8.83905L139.02 9.33564L143.743 9.19376L148.395 3.64258L157.789 1" stroke="#5F6772" stroke-width="0.5"/>
<path d="M433.943 245.881L438.011 243.532L443.195 244.223L452.579 239.922L458.286 240.889L461.822 240.916L464.985 241.545L470.214 241.013L481.255 241.031L486.9 240.614L491.73 249.641L493.023 251.344L497.144 252.302L498.987 253.446L503.648 262.154L503.241 264.078L503.542 267.483L505.899 270.09L509.568 271.394L511.358 274.799L511.589 276.404L510.702 279.614L505.394 289.759L505.731 294.884L505.341 296.729L499.918 301.358L492.27 311.573L487.769 316.433L484.401 319.288L480.732 323.527L480.006 324.928L482.239 330.896L484.818 335.064L487.219 337.237L489.629 335.472L492.137 331.916L493.591 331.579L494.849 331.96L496.196 332.953L498.411 335.747L502.24 339.152L504.145 341.458L505.066 343.249L504.552 348.117L505.208 349.651L505.545 352.79L507.264 356.887L507.22 358.271L508.301 359.051L503.923 363.911L502.957 365.631L502.169 368.22L502.505 373.47L503.321 376.414L504.499 378.294L504.34 379.438L503.471 380.085L499.891 379.775L499.289 380.183L497.463 380.236L497.304 381.69L495.779 382.355L494.415 384.067L492.722 384.448L491.756 388.181L489.878 388.758L488.664 391.17L488.717 391.613L489.55 391.569L489.957 391.959L490.037 393.529L490.817 393.626L490.985 394.415L490.108 394.797L489.559 395.817L490.392 397.164L490.321 398.087L488.619 399.071L488.424 401.926L487.131 403.203L486.625 404.897L485.021 405.589L483.453 404.853L482.921 405.332L481.822 405.465L481.415 406.032L481.822 406.812L481.663 408.347L481.273 408.79L477.95 409.393L477.578 409.588L477.4 410.803L476.186 410.643L473.501 408.843L471.507 409.739L470.914 409.118L468.246 408.533L466.988 407.451L466.474 407.495L465.393 408.746L463.594 408.675L463.807 400.933L462.008 399.018L460.023 398.92L457.932 400.818L455.415 400.392L453.767 399.639L452.499 396.641L451.454 394.699L450.373 393.981L449.336 393.919L448.175 392.048L448.069 391.4L449.54 387.153L447.182 385.521L445.862 385.344L445.33 386L443.833 384.093L442.92 384.023L441.591 382.595L440.908 382.533L440.589 381.185L439.482 380.626L439.127 381.034L437.825 380.715L436.185 379.314L436.646 377.602L436.291 375.749L434.829 374.587L434.156 378.808L434.227 381.371L432.995 386.709L432.215 387.596L430.735 388.102L430.434 388.873L429.867 388.971L429.034 388.111L415.13 389.458L412.791 386.727L413.34 385.175L412.587 383.349L412.418 382.302L412.48 381.584L411.692 381.3L404.425 387.862L403.858 388.855L401.696 390.381L400.703 392.012L396.609 396.118L395.422 395.48L393.472 395.391L392.054 395.196L391.345 394.655L390.548 396.544L390.814 397.244L390.14 398.104L389.804 399.701L390.123 401.501L389.874 402.45L389.343 402.778L388.439 405.278L387.242 410.04L386.799 410.386L386.197 410.085L385.027 410.413L384.114 409.242L383.724 409.65L385.408 402.388L385.435 394.619L385.727 393.662L385.187 393.014L387.056 382.816L389.99 377.354L393.038 374.472L395.776 372.752L396.591 371.484L396.335 366.234L398.444 361.011L398.966 358.147L398.47 356.568L398.701 355.646L397.664 354.44L397.788 353.863L390.371 347.151L386.436 342.14L381.881 337.795L375.253 336.226L368.004 335.8L361.384 336.642L355.961 338.975L354.277 338.469L357.636 333.175L358.708 331.943L368.66 325.549L368.757 324.494L367.871 322.117L368.35 321.541L368.039 318.987L366.241 316.761L364.725 315.555L365.372 313.019L366.551 311.121L367.685 310.359H369.333L370.866 311.157L371.752 312.105L373.099 311.902L373.392 312.265L377.388 313.107L379.816 312.38L382.103 309.117L385.514 309.339L389.157 308.86L393.065 307.964L395.218 306.909L402.024 300.125L408.324 296.791L412.525 291.719L414.35 288.003L416.557 286.726L424.993 284.864L426.677 284.961L437.47 279.765L439.047 277.034L438.861 272.121H438.48L438.214 270.126L438.702 268.946L437.771 263.608L435.733 260.185L435.06 254.9L435.512 251.282L435.326 249.375L433.943 245.881Z" fill="#C2C7CC" stroke="#5F6772" stroke-width="0.5"/>
<path d="M467.182 30.0149L478.215 30.1834L486.687 31.2475L496.222 34.9542L506.581 37.2155L509 38.5545L514.397 43.1391L518.633 45.7994L520.033 45.9235L520.299 45.1964L521.185 44.9481L522.647 45.5245L523.197 45.0634L522.709 44.017L524.03 44.1589L525.536 44.9924L527.007 44.62L527.743 45.2496L528.301 46.1985L529.223 45.6486L531.748 46.1896L532.404 46.633L533.228 46.7394L534.105 46.7305L534.034 50.4638L532.714 57.5757L533.804 60.9898L535.089 62.6037L539.342 66.0089L539.768 69.3254L538.137 73.0587L536.037 75.79L529.781 81.3855L529.293 83.3364L530.818 86.7327L530.773 91.8671L528.522 106.313L528.407 109.416L529.905 116.014L525.722 124.119L525.855 125.839L526.422 126.159L530.773 125.972L533.547 129.298L534.291 132.251L533.414 134.122L529.391 138.05L526.467 143.282L523.906 146.253L523.108 148.789L523.143 151.423L523.817 155.103L523.604 157.71L521.752 160.441L516.338 163.678L506.404 166.356L504.047 168.058L502.523 170.568L501.982 173.024L502.23 180.464L499.208 184.481L496.514 185.093L490.506 185.102L490.24 184.65L489.558 178.93L490.621 168.422L490.028 164.103L486.767 161.106L485.366 162.011L486.253 160.645L483.222 157.47L479.013 151.795L471.489 146.244L469.557 145.1L466.917 144.204L463.336 144.054L459.641 145.393L458.835 146.173L456.141 145.845L454.696 144.488L455.574 138.476L456.504 136.064L456.708 131.701L449.309 113.158L449.131 109.727L448.289 107.324L447.997 104.929L447.811 98.9524L445.011 94.8201L445.179 93.215L444.497 86.9367L443.486 84.3384L436.628 78.8493L435.857 76.2777L434.297 66.0532L432.339 63.0382L430.699 62.2579L428.9 62.7988L424.478 60.8302L419.285 62.4796L418.293 63.118L416.999 60.8745L416.388 57.017L414.5 52.7783L412.542 51.6698L406.932 53.4079L404.433 54.6228L401.633 55.1814L396.919 57.4782L395.058 61.0164L392.275 62.6126L386.958 61.9652L385.372 60.9188L391.912 54.2681L394.792 50.1889L398.407 47.0764L403.007 41.8887L406.534 39.6363L414.553 36.0361L428.785 35.2025L439.906 31.0347L457.257 30.0858L467.182 30.0149Z" fill="#B1B7BE" stroke="#5F6772" stroke-width="0.5"/>
<path d="M229.842 45.8173L234.672 51.5991L239.173 51.5015L242.133 50.9606L240.857 60.5554L241.734 66.0268L241.672 71.3918L242.559 75.9764L242.904 80.1885L244.065 83.0351L243.711 86.2008L245.926 90.812L246.537 93.5167L246.422 95.0065L247.264 97.1968L246.298 101.773L244.685 104.991L245.802 106.064L248.044 107.093L250.419 109.124L251.447 110.392L251.89 112.121L250.215 113.558L247.255 112.839L246.768 115.677L242.443 119.198L241.309 118.426L235.452 118.541L234.122 119.286L233.546 122.833L232.164 126.505L231.765 129.839L231.907 130.788L233.599 132.472L234.397 135.745L233.289 141.154L233.272 143.22L232.377 143.194L230.303 145.304L227.866 146.874L227.113 147.885L225.597 150.908L225.03 154.056L223.692 156.921L220.998 159.67L218.933 161.009L214.76 161.559L207.724 161.053L202.726 161.896L198.056 166.072L195.521 169.761L194.387 170.435L192.898 170.542L192.96 169.797L191.551 166.17L188.184 160.282L185.242 156.38L185.056 151.52L183.833 144.799L182.122 142.129L177.355 139.726V138.662L179.171 132.907L179.18 130.717L177.931 128.81L174.076 127.241L169.778 126.691L168.697 127.409L166.49 127.932L163.132 127.489L158.285 128.163L155.05 126.026L152.507 125.928L151.009 123.002L150.052 122.496L146.853 123.073L145.001 122.798L144.195 122.23L143.495 122.363L142.555 122.913L141.829 124.97L136.21 126.265L132.568 124.27H130.955L130.193 124.696L130.778 112.476L130.69 96.3277L131.514 92.3284L132.329 91.7963L140.597 93.2773L144.558 92.9846L146.897 93.2595L151.151 92.692L152.285 92.9492L157.7 92.4792L159.88 90.9716L160.535 88.2847L159.96 84.516L158.692 80.4014L158.639 77.8475L161.36 76.1537L163.026 74.4955L168.192 66.887L173.589 66.0445L182.468 65.344L186.048 63.8897L187.244 63.0029L187.182 55.5186L186.491 50.9606L186.589 50.3398L188.458 48.7259L192.756 47.3426H195.229L197.621 48.6195L198.064 48.4244L198.711 46.7484L199.234 41.8889L203.638 42.0574L205.65 42.6604L207.156 44.4783L208.84 45.0636L217.268 46.1986L223.559 42.6516L226.244 40.3459L229.842 45.8173Z" fill="#B1B7BE" stroke="#5F6772" stroke-width="0.5"/>
</svg>
