<svg width="56" height="56" viewBox="0 0 56 56" fill="none" xmlns="http://www.w3.org/2000/svg">
<rect x="4" y="4" width="48" height="48" rx="24" fill="#DCECD5"/>
<path d="M27.6666 18.166H20.9999C20.5579 18.166 20.134 18.3416 19.8214 18.6542C19.5088 18.9667 19.3333 19.3907 19.3333 19.8327V33.166C19.3333 33.608 19.5088 34.032 19.8214 34.3445C20.134 34.6571 20.5579 34.8327 20.9999 34.8327H30.9999C31.4419 34.8327 31.8659 34.6571 32.1784 34.3445C32.491 34.032 32.6666 33.608 32.6666 33.166V23.166M27.6666 18.166L32.6666 23.166M27.6666 18.166V23.166H32.6666M29.3333 27.3327H22.6666M29.3333 30.666H22.6666M24.3333 23.9993H22.6666" stroke="#385E2B" stroke-width="2" stroke-linecap="round" stroke-linejoin="round"/>
<rect x="4" y="4" width="48" height="48" rx="24" stroke="#F0F7ED" stroke-width="8"/>
</svg>
