<svg width="56" height="56" viewBox="0 0 56 56" fill="none" xmlns="http://www.w3.org/2000/svg">
<rect x="4" y="4" width="48" height="48" rx="24" fill="#DCECD5"/>
<g clip-path="url(#clip0_3968_60196)">
<path d="M29.3333 33.5V31.8333C29.3333 30.9493 28.9821 30.1014 28.3569 29.4763C27.7318 28.8512 26.884 28.5 25.9999 28.5H20.1666C19.2825 28.5 18.4347 28.8512 17.8096 29.4763C17.1844 30.1014 16.8333 30.9493 16.8333 31.8333V33.5M32.6666 22.6667V27.6667M35.1666 25.1667H30.1666M26.4166 21.8333C26.4166 23.6743 24.9242 25.1667 23.0833 25.1667C21.2423 25.1667 19.7499 23.6743 19.7499 21.8333C19.7499 19.9924 21.2423 18.5 23.0833 18.5C24.9242 18.5 26.4166 19.9924 26.4166 21.8333Z" stroke="#385E2B" stroke-width="2" stroke-linecap="round" stroke-linejoin="round"/>
</g>
<rect x="4" y="4" width="48" height="48" rx="24" stroke="#F0F7ED" stroke-width="8"/>
<defs>
<clipPath id="clip0_3968_60196">
<rect width="20" height="20" fill="white" transform="translate(16 16)"/>
</clipPath>
</defs>
</svg>
