<svg width="483" height="107" viewBox="0 0 483 107" fill="none" xmlns="http://www.w3.org/2000/svg">
<path d="M1 7.2938C1 7.2938 21.1865 -3.61095 31.8528 3.28716C37.3501 6.84237 38.48 13.5646 45.0032 14.3053C50.4449 14.9232 52.2972 18.4707 57.6477 17.3103C79.3746 12.5982 65.4624 55.9274 86.9832 50.3647C91.684 49.1497 92.8475 63.3616 97.6046 62.3845C113.779 59.0624 114.901 76.3384 128.963 84.9215C141.897 92.8161 150.731 99.0304 165.885 97.9429C174.248 97.3428 177.742 91.3438 186.117 90.9314C196.409 90.4246 201.612 101.28 211.912 100.948C220.865 100.659 225.208 95.3906 234.166 95.439C242.933 95.4865 247.154 100.618 255.915 100.948C266.213 101.336 272.28 99.555 281.71 95.439C288.779 92.3532 289.601 83.0869 296.377 79.4124C304.909 74.7864 312.762 79.7632 321.161 74.9052C327.407 71.2927 328.781 60.9928 335.829 59.3794C343.907 57.53 348.32 64.7478 356.566 63.8868C371.867 62.2891 370.769 39.5981 385.901 36.8423C391.146 35.8871 396.327 37.7505 401.58 36.8423C414.7 34.5741 413.456 17.0686 426.364 20.315C432.152 21.7707 435.189 24.6036 441.032 25.8241C453.232 28.3726 451.798 12.0947 463.286 7.2938C469.642 4.63744 482 7.2938 482 7.2938" stroke="#66AB4F" stroke-width="2"/>
<path d="M31.8528 4.27725C21.1865 -2.59097 1 8.26653 1 8.26653V107L482 101.515V8.26653C482 8.26653 469.642 5.62168 463.286 8.26653C451.798 13.0466 453.232 29.254 441.032 26.7165C435.189 25.5013 432.152 22.6807 426.364 21.2313C413.456 17.9989 414.7 35.4287 401.58 37.687C396.327 38.5913 391.146 36.7359 385.901 37.687C370.769 40.4308 371.867 63.0235 356.566 64.6143C348.32 65.4716 343.907 58.2851 335.829 60.1264C328.781 61.7328 327.407 71.9881 321.161 75.585C312.762 80.4219 304.909 75.4666 296.378 80.0726C289.601 83.7312 288.779 92.9574 281.71 96.0298C272.28 100.128 266.213 101.901 255.915 101.515C247.154 101.187 242.933 96.077 234.166 96.0298C225.208 95.9816 220.865 101.228 211.912 101.515C201.612 101.846 196.409 91.0371 186.117 91.5417C177.742 91.9523 174.248 97.9253 165.885 98.5229C150.731 99.6056 141.897 93.4183 128.963 85.5579C114.901 77.012 113.779 59.8108 97.6046 63.1185C92.8475 64.0914 91.684 49.941 86.9832 51.1508C65.4624 56.6894 79.3746 13.5479 57.6477 18.2396C52.2972 19.395 50.4449 15.8629 45.0032 15.2477C38.48 14.5102 37.3501 7.81705 31.8528 4.27725Z" fill="url(#paint0_linear_3122_127010)"/>
<defs>
<linearGradient id="paint0_linear_3122_127010" x1="241.5" y1="2" x2="241.5" y2="107" gradientUnits="userSpaceOnUse">
<stop stop-color="#65AA4F"/>
<stop offset="0.0001" stop-color="#BBECAC"/>
<stop offset="1" stop-color="#D9D9D9" stop-opacity="0"/>
</linearGradient>
</defs>
</svg>
